999
dxflib 3.26.4.0
  0
SECTION
  2
HEADER
  9
$ACADVER
  1
AC1015
  9
$HANDSEED
  5
FFFF
  9
$ANGBASE
 50
0.0
  9
$ANGDIR
 70
0
  9
$ATTMODE
 70
1
  9
$AUNITS
 70
0
  9
$AUPREC
 70
0
  9
$CECOLOR
 62
256
  9
$CELTSCALE
 40
1.0
  9
$CHAMFERA
 40
0.0
  9
$CHAMFERB
 40
0.0
  9
$CHAMFERC
 40
0.0
  9
$CHAMFERD
 40
0.0
  9
$CMLJUST
 70
0
  9
$CMLSCALE
 40
20.0
  9
$DIMADEC
 70
2
  9
$DIMALT
 70
0
  9
$DIMALTD
 70
3
  9
$DIMALTF
 40
0.0393700787401575
  9
$DIMALTRND
 40
0.0
  9
$DIMALTTD
 70
3
  9
$DIMALTTZ
 70
0
  9
$DIMALTU
 70
2
  9
$DIMALTZ
 70
0
  9
$DIMAPOST
  1

  9
$DIMASZ
 40
2.5
  9
$DIMATFIT
 70
3
  9
$DIMAUNIT
 70
0
  9
$DIMAZIN
 70
0
  9
$DIMBLK
  1
0
  9
$DIMBLK1
  1
0
  9
$DIMBLK2
  1
0
  9
$DIMCEN
 40
2.5
  9
$DIMCLRD
 70
0
  9
$DIMCLRE
 70
0
  9
$DIMDEC
 70
2
  9
$DIMDLE
 40
0.0
  9
$DIMDLI
 40
3.75
  9
$DIMDSEP
 70
44
  9
$DIMEXE
 40
1.25
  9
$DIMEXO
 40
0.625
  9
$DIMFRAC
 70
2
  9
$DIMGAP
 40
0.7
  9
$DIMJUST
 70
0
  9
$DIMLDRBLK
  1

  9
$DIMLFAC
 40
1.0
  9
$DIMLIM
 70
0
  9
$DIMLUNIT
 70
2
  9
$DIMLWD
 70
15
  9
$DIMLWE
 70
15
  9
$DIMPOST
  1

  9
$DIMRND
 40
0.01
  9
$DIMSAH
 70
0
  9
$DIMSCALE
 40
1.0
  9
$DIMSD1
 70
0
  9
$DIMSD2
 70
0
  9
$DIMSE1
 70
0
  9
$DIMSE2
 70
0
  9
$DIMSOXD
 70
0
  9
$DIMTAD
 70
1
  9
$DIMTDEC
 70
2
  9
$DIMTFAC
 40
1.0
  9
$DIMTIH
 70
0
  9
$DIMTIX
 70
0
  9
$DIMTM
 40
0.0
  9
$DIMTOFL
 70
1
  9
$DIMTOH
 70
0
  9
$DIMTOL
 70
0
  9
$DIMTOLJ
 70
0
  9
$DIMTP
 40
0.0
  9
$DIMTSZ
 40
0.0
  9
$DIMTVP
 40
0.0
  9
$DIMTXSTY
  7
Standard
  9
$DIMTXT
 40
2.5
  9
$DIMTZIN
 70
8
  9
$DIMUPT
 70
0
  9
$DIMZIN
 70
8
  9
$DISPSILH
 70
0
  9
$DWGCODEPAGE
  3
ANSI_1252
  9
$ELEVATION
 40
0.0
  9
$EXTMAX
 10
-100000000000000000000.0
 20
-100000000000000000000.0
 30
-100000000000000000000.0
  9
$EXTMIN
 10
100000000000000000000.0
 20
100000000000000000000.0
 30
100000000000000000000.0
  9
$FILLETRAD
 40
0.0
  9
$FILLMODE
 70
1
  9
$INSBASE
 10
0.0
 20
0.0
 30
0.0
  9
$INSUNITS
 70
4
  9
$LIMCHECK
 70
0
  9
$LIMMAX
 10
420.0
 20
297.0
  9
$LIMMIN
 10
0.0
 20
0.0
  9
$LTSCALE
 40
1.0
  9
$LUNITS
 70
2
  9
$LUPREC
 70
4
  9
$MAXACTVP
 70
64
  9
$MEASUREMENT
 70
1
  9
$MIRRTEXT
 70
1
  9
$ORTHOMODE
 70
0
  9
$PDMODE
 70
0
  9
$PDSIZE
 40
0.0
  9
$PELEVATION
 40
0.0
  9
$PEXTMAX
 10
0.0
 20
0.0
 30
0.0
  9
$PEXTMIN
 10
0.0
 20
0.0
 30
0.0
  9
$PINSBASE
 10
0.0
 20
0.0
 30
0.0
  9
$PLIMCHECK
 70
0
  9
$PLIMMAX
 10
277.0
 20
202.5
  9
$PLIMMIN
 10
-20.0
 20
-7.5
  9
$PLINEGEN
 70
0
  9
$PLINEWID
 40
0.0
  9
$PROXYGRAPHICS
 70
1
  9
$PSLTSCALE
 70
1
  9
$PUCSNAME
  2

  9
$PUCSORG
 10
0.0
 20
0.0
 30
0.0
  9
$PUCSXDIR
 10
1.0
 20
0.0
 30
0.0
  9
$PUCSYDIR
 10
0.0
 20
1.0
 30
0.0
  9
$QTEXTMODE
 70
0
  9
$REGENMODE
 70
1
  9
$SHADEDGE
 70
3
  9
$SHADEDIF
 70
70
  9
$SKETCHINC
 40
1.0
  9
$SKPOLY
 70
0
  9
$SPLFRAME
 70
0
  9
$SPLINESEGS
 70
8
  9
$SPLINETYPE
 70
6
  9
$SURFTAB1
 70
6
  9
$SURFTAB2
 70
6
  9
$SURFTYPE
 70
6
  9
$SURFU
 70
6
  9
$SURFV
 70
6
  9
$TEXTSIZE
 40
2.5
  9
$TEXTSTYLE
  7
Standard
  9
$THICKNESS
 40
0.0
  9
$TILEMODE
 70
0
  9
$TRACEWID
 40
1.0
  9
$TREEDEPTH
 70
3020
  9
$UCSNAME
  2

  9
$UCSORG
 10
0.0
 20
0.0
 30
0.0
  9
$UCSXDIR
 10
1.0
 20
0.0
 30
0.0
  9
$UCSYDIR
 10
0.0
 20
1.0
 30
0.0
  9
$UNITMODE
 70
0
  9
$USERI1
 70
0
  9
$USERI2
 70
0
  9
$USERI3
 70
0
  9
$USERI4
 70
0
  9
$USERI5
 70
0
  9
$USERR1
 40
0.0
  9
$USERR2
 40
0.0
  9
$USERR3
 40
0.0
  9
$USERR4
 40
0.0
  9
$USERR5
 40
0.0
  9
$USRTIMER
 70
1
  9
$VISRETAIN
 70
1
  0
ENDSEC
  0
SECTION
  2
TABLES
  0
TABLE
  2
VPORT
  5
8
100
AcDbSymbolTable
 70
1
  0
VPORT
  5
30
100
AcDbSymbolTableRecord
100
AcDbViewportTableRecord
  2
*Active
 70
0
 10
0.0
 20
0.0
 11
1.0
 21
1.0
 12
286.3055555555554861
 22
148.5
 13
0.0
 23
0.0
 14
10.0
 24
10.0
 15
10.0
 25
10.0
 16
0.0
 26
0.0
 36
1.0
 17
0.0
 27
0.0
 37
0.0
 40
297.0
 41
1.92798353909465
 42
50.0
 43
0.0
 44
0.0
 50
0.0
 51
0.0
 71
0
 72
100
 73
1
 74
3
 75
1
 76
1
 77
0
 78
0
281
0
 65
1
110
0.0
120
0.0
130
0.0
111
1.0
121
0.0
131
0.0
112
0.0
122
1.0
132
0.0
 79
0
146
0.0
  0
ENDTAB
  0
TABLE
  2
LTYPE
  5
5
100
AcDbSymbolTable
 70
46
  0
LTYPE
  5
16
100
AcDbSymbolTableRecord
100
AcDbLinetypeTableRecord
  2
Continuous
 70
0
  3
Solid line
 72
65
 73
0
 40
0.0
  0
LTYPE
  5
31
100
AcDbSymbolTableRecord
100
AcDbLinetypeTableRecord
  2
ACAD_ISO08W100
 70
0
  3
ISO long-dash short-dash ____ __ ____ __ ____ _
 72
65
 73
4
 40
36.0
 49
24.0
 74
0
 49
-3.0
 74
0
 49
6.0
 74
0
 49
-3.0
 74
0
  0
LTYPE
  5
32
100
AcDbSymbolTableRecord
100
AcDbLinetypeTableRecord
  2
ACAD_ISO04W100
 70
0
  3
ISO long-dash dot ____ . ____ . ____ . ____ . _
 72
65
 73
4
 40
30.0
 49
24.0
 74
0
 49
-3.0
 74
0
 49
0.0
 74
0
 49
-3.0
 74
0
  0
LTYPE
  5
33
100
AcDbSymbolTableRecord
100
AcDbLinetypeTableRecord
  2
DASHDOTX2
 70
0
  3
Dash dot (2x) ____  .  ____  .  ____  .  ___
 72
65
 73
4
 40
50.7999999999999972
 49
25.3999999999999986
 74
0
 49
-12.6999999999999993
 74
0
 49
0.0
 74
0
 49
-12.6999999999999993
 74
0
  0
LTYPE
  5
34
100
AcDbSymbolTableRecord
100
AcDbLinetypeTableRecord
  2
ACAD_ISO12W100
 70
0
  3
ISO dash double-dot __ . . __ . . __ . . __ . . 
 72
65
 73
6
 40
21.0
 49
12.0
 74
0
 49
-3.0
 74
0
 49
0.0
 74
0
 49
-3.0
 74
0
 49
0.0
 74
0
 49
-3.0
 74
0
  0
LTYPE
  5
35
100
AcDbSymbolTableRecord
100
AcDbLinetypeTableRecord
  2
CENTERX2
 70
0
  3
Center (2x) ________  __  ________  __  _____
 72
65
 73
4
 40
101.6000000000000085
 49
63.5
 74
0
 49
-12.6999999999999993
 74
0
 49
12.6999999999999993
 74
0
 49
-12.6999999999999993
 74
0
  0
LTYPE
  5
36
100
AcDbSymbolTableRecord
100
AcDbLinetypeTableRecord
  2
DOT
 70
0
  3
Dot . . . . . . . . . . . . . . . . . . . . . . . .
 72
65
 73
2
 40
6.3499999999999996
 49
0.0
 74
0
 49
-6.3499999999999996
 74
0
  0
LTYPE
  5
37
100
AcDbSymbolTableRecord
100
AcDbLinetypeTableRecord
  2
BORDER
 70
0
  3
Border __ __ . __ __ . __ __ . __ __ . __ __ .
 72
65
 73
6
 40
44.4499999999999957
 49
12.6999999999999993
 74
0
 49
-6.3499999999999996
 74
0
 49
12.6999999999999993
 74
0
 49
-6.3499999999999996
 74
0
 49
0.0
 74
0
 49
-6.3499999999999996
 74
0
  0
LTYPE
  5
38
100
AcDbSymbolTableRecord
100
AcDbLinetypeTableRecord
  2
PHANTOMX2
 70
0
  3
Phantom (2x) ____________    ____    ____   _
 72
65
 73
6
 40
127.0000000000000142
 49
63.5
 74
0
 49
-12.6999999999999993
 74
0
 49
12.6999999999999993
 74
0
 49
-12.6999999999999993
 74
0
 49
12.6999999999999993
 74
0
 49
-12.6999999999999993
 74
0
  0
LTYPE
  5
14
100
AcDbSymbolTableRecord
100
AcDbLinetypeTableRecord
  2
ByBlock
 70
0
  3

 72
65
 73
0
 40
0.0
  0
LTYPE
  5
39
100
AcDbSymbolTableRecord
100
AcDbLinetypeTableRecord
  2
DASHDOT
 70
0
  3
Dash dot __ . __ . __ . __ . __ . __ . __ . __
 72
65
 73
4
 40
25.3999999999999986
 49
12.6999999999999993
 74
0
 49
-6.3499999999999996
 74
0
 49
0.0
 74
0
 49
-6.3499999999999996
 74
0
  0
LTYPE
  5
3A
100
AcDbSymbolTableRecord
100
AcDbLinetypeTableRecord
  2
ACAD_ISO11W100
 70
0
  3
ISO double-dash dot __ __ . __ __ . __ __ . __ _
 72
65
 73
6
 40
33.0
 49
12.0
 74
0
 49
-3.0
 74
0
 49
12.0
 74
0
 49
-3.0
 74
0
 49
0.0
 74
0
 49
-3.0
 74
0
  0
LTYPE
  5
3B
100
AcDbSymbolTableRecord
100
AcDbLinetypeTableRecord
  2
DOT2
 70
0
  3
Dot (.5x) ........................................
 72
65
 73
2
 40
3.1749999999999998
 49
0.0
 74
0
 49
-3.1749999999999998
 74
0
  0
LTYPE
  5
3C
100
AcDbSymbolTableRecord
100
AcDbLinetypeTableRecord
  2
ACAD_ISO15W100
 70
0
  3
ISO double-dash triple-dot __ __ . . . __ __ . .
 72
65
 73
10
 40
39.0
 49
12.0
 74
0
 49
-3.0
 74
0
 49
12.0
 74
0
 49
-3.0
 74
0
 49
0.0
 74
0
 49
-3.0
 74
0
 49
0.0
 74
0
 49
-3.0
 74
0
 49
0.0
 74
0
 49
-3.0
 74
0
  0
LTYPE
  5
3D
100
AcDbSymbolTableRecord
100
AcDbLinetypeTableRecord
  2
DASHDOT2
 70
0
  3
Dash dot (.5x) _._._._._._._._._._._._._._._.
 72
65
 73
4
 40
12.6999999999999993
 49
6.3499999999999996
 74
0
 49
-3.1749999999999998
 74
0
 49
0.0
 74
0
 49
-3.1749999999999998
 74
0
  0
LTYPE
  5
3E
100
AcDbSymbolTableRecord
100
AcDbLinetypeTableRecord
  2
ACAD_ISO10W100
 70
0
  3
ISO dash dot __ . __ . __ . __ . __ . __ . __ . 
 72
65
 73
4
 40
18.0
 49
12.0
 74
0
 49
-3.0
 74
0
 49
0.0
 74
0
 49
-3.0
 74
0
  0
LTYPE
  5
3F
100
AcDbSymbolTableRecord
100
AcDbLinetypeTableRecord
  2
ACAD_ISO03W100
 70
0
  3
ISO dash space __    __    __    __    __    __
 72
65
 73
2
 40
30.0
 49
12.0
 74
0
 49
-18.0
 74
0
  0
LTYPE
  5
40
100
AcDbSymbolTableRecord
100
AcDbLinetypeTableRecord
  2
HIDDENX2
 70
0
  3
Hidden (2x) ____ ____ ____ ____ ____ ____ ____ 
 72
65
 73
2
 40
19.0499999999999972
 49
12.6999999999999993
 74
0
 49
-6.3499999999999996
 74
0
  0
LTYPE
  5
41
100
AcDbSymbolTableRecord
100
AcDbLinetypeTableRecord
  2
BORDER2
 70
0
  3
Border (.5x) __.__.__.__.__.__.__.__.__.__.__.
 72
65
 73
6
 40
22.2249999999999979
 49
6.3499999999999996
 74
0
 49
-3.1749999999999998
 74
0
 49
6.3499999999999996
 74
0
 49
-3.1749999999999998
 74
0
 49
0.0
 74
0
 49
-3.1749999999999998
 74
0
  0
LTYPE
  5
42
100
AcDbSymbolTableRecord
100
AcDbLinetypeTableRecord
  2
HIDDEN2
 70
0
  3
Hidden (.5x) _ _ _ _ _ _ _ _ _ _ _ _ _ _ _ _ _ 
 72
65
 73
2
 40
4.7624999999999993
 49
3.1749999999999998
 74
0
 49
-1.5874999999999999
 74
0
  0
LTYPE
  5
43
100
AcDbSymbolTableRecord
100
AcDbLinetypeTableRecord
  2
ACAD_ISO13W100
 70
0
  3
ISO double-dash double-dot __ __ . . __ __ . . _
 72
65
 73
8
 40
36.0
 49
12.0
 74
0
 49
-3.0
 74
0
 49
12.0
 74
0
 49
-3.0
 74
0
 49
0.0
 74
0
 49
-3.0
 74
0
 49
0.0
 74
0
 49
-3.0
 74
0
  0
LTYPE
  5
44
100
AcDbSymbolTableRecord
100
AcDbLinetypeTableRecord
  2
ACAD_ISO02W100
 70
0
  3
ISO dash __ __ __ __ __ __ __ __ __ __ __ __ __
 72
65
 73
2
 40
15.0
 49
12.0
 74
0
 49
-3.0
 74
0
  0
LTYPE
  5
45
100
AcDbSymbolTableRecord
100
AcDbLinetypeTableRecord
  2
CENTER2
 70
0
  3
Center (.5x) ___ _ ___ _ ___ _ ___ _ ___ _ ___
 72
65
 73
4
 40
28.5750000000000028
 49
19.0500000000000007
 74
0
 49
-3.1749999999999998
 74
0
 49
3.1749999999999998
 74
0
 49
-3.1749999999999998
 74
0
  0
LTYPE
  5
46
100
AcDbSymbolTableRecord
100
AcDbLinetypeTableRecord
  2
SectionLineANSI
 70
0
  3

 72
65
 73
7
 40
11.9944444444445182
 49
4.23333333333336
 74
0
 49
-1.05833333333334
 74
0
 49
0.17638888888889
 74
0
 49
-1.05833333333334
 74
0
 49
0.17638888888889
 74
0
 49
-1.05833333333334
 74
0
 49
4.23333333333336
 74
0
  0
LTYPE
  5
47
100
AcDbSymbolTableRecord
100
AcDbLinetypeTableRecord
  2
DASHED
 70
0
  3
Dashed __ __ __ __ __ __ __ __ __ __ __ __ __ _
 72
65
 73
2
 40
19.0499999999999972
 49
12.6999999999999993
 74
0
 49
-6.3499999999999996
 74
0
  0
LTYPE
  5
48
100
AcDbSymbolTableRecord
100
AcDbLinetypeTableRecord
  2
PHANTOM2
 70
0
  3
Phantom (.5x) ___ _ _ ___ _ _ ___ _ _ ___ _ _
 72
65
 73
6
 40
31.7500000000000036
 49
15.875
 74
0
 49
-3.1749999999999998
 74
0
 49
3.1749999999999998
 74
0
 49
-3.1749999999999998
 74
0
 49
3.1749999999999998
 74
0
 49
-3.1749999999999998
 74
0
  0
LTYPE
  5
15
100
AcDbSymbolTableRecord
100
AcDbLinetypeTableRecord
  2
ByLayer
 70
0
  3

 72
65
 73
0
 40
0.0
  0
LTYPE
  5
49
100
AcDbSymbolTableRecord
100
AcDbLinetypeTableRecord
  2
HIDDEN
 70
0
  3
Hidden __ __ __ __ __ __ __ __ __ __ __ __ __ __
 72
65
 73
2
 40
9.5249999999999986
 49
6.3499999999999996
 74
0
 49
-3.1749999999999998
 74
0
  0
LTYPE
  5
4A
100
AcDbSymbolTableRecord
100
AcDbLinetypeTableRecord
  2
ACAD_ISO06W100
 70
0
  3
ISO long-dash triple-dot ____ ... ____ ... ____
 72
65
 73
8
 40
36.0
 49
24.0
 74
0
 49
-3.0
 74
0
 49
0.0
 74
0
 49
-3.0
 74
0
 49
0.0
 74
0
 49
-3.0
 74
0
 49
0.0
 74
0
 49
-3.0
 74
0
  0
LTYPE
  5
4B
100
AcDbSymbolTableRecord
100
AcDbLinetypeTableRecord
  2
BORDERX2
 70
0
  3
Border (2x) ____  ____  .  ____  ____  .  ___
 72
65
 73
6
 40
88.8999999999999915
 49
25.3999999999999986
 74
0
 49
-12.6999999999999993
 74
0
 49
25.3999999999999986
 74
0
 49
-12.6999999999999993
 74
0
 49
0.0
 74
0
 49
-12.6999999999999993
 74
0
  0
LTYPE
  5
4C
100
AcDbSymbolTableRecord
100
AcDbLinetypeTableRecord
  2
ACAD_ISO09W100
 70
0
  3
ISO long-dash double-short-dash ____ __ __ ____
 72
65
 73
6
 40
45.0
 49
24.0
 74
0
 49
-3.0
 74
0
 49
6.0
 74
0
 49
-3.0
 74
0
 49
6.0
 74
0
 49
-3.0
 74
0
  0
LTYPE
  5
4D
100
AcDbSymbolTableRecord
100
AcDbLinetypeTableRecord
  2
DOTX2
 70
0
  3
Dot (2x) .  .  .  .  .  .  .  .  .  .  .  .  .  .
 72
65
 73
2
 40
12.6999999999999993
 49
0.0
 74
0
 49
-12.6999999999999993
 74
0
  0
LTYPE
  5
4E
100
AcDbSymbolTableRecord
100
AcDbLinetypeTableRecord
  2
DraftedLine
 70
0
  3

 72
65
 73
2
 40
3.0
 49
2.0
 74
0
 49
-1.0
 74
0
  0
LTYPE
  5
4F
100
AcDbSymbolTableRecord
100
AcDbLinetypeTableRecord
  2
ACAD_ISO07W100
 70
0
  3
ISO dot . . . . . . . . . . . . . . . . . . . . 
 72
65
 73
2
 40
3.0
 49
0.0
 74
0
 49
-3.0
 74
0
  0
LTYPE
  5
50
100
AcDbSymbolTableRecord
100
AcDbLinetypeTableRecord
  2
ACAD_ISO05W100
 70
0
  3
ISO long-dash double-dot ____ .. ____ .. ____ . 
 72
65
 73
6
 40
33.0
 49
24.0
 74
0
 49
-3.0
 74
0
 49
0.0
 74
0
 49
-3.0
 74
0
 49
0.0
 74
0
 49
-3.0
 74
0
  0
LTYPE
  5
51
100
AcDbSymbolTableRecord
100
AcDbLinetypeTableRecord
  2
DASHEDX2
 70
0
  3
Dashed (2x) ____  ____  ____  ____  ____  ___
 72
65
 73
2
 40
38.0999999999999943
 49
25.3999999999999986
 74
0
 49
-12.6999999999999993
 74
0
  0
LTYPE
  5
52
100
AcDbSymbolTableRecord
100
AcDbLinetypeTableRecord
  2
DIVIDE
 70
0
  3
Divide ____ . . ____ . . ____ . . ____ . . ____
 72
65
 73
6
 40
31.75
 49
12.6999999999999993
 74
0
 49
-6.3499999999999996
 74
0
 49
0.0
 74
0
 49
-6.3499999999999996
 74
0
 49
0.0
 74
0
 49
-6.3499999999999996
 74
0
  0
LTYPE
  5
53
100
AcDbSymbolTableRecord
100
AcDbLinetypeTableRecord
  2
ACAD_ISO14W100
 70
0
  3
ISO dash triple-dot __ . . . __ . . . __ . . . _
 72
65
 73
8
 40
24.0
 49
12.0
 74
0
 49
-3.0
 74
0
 49
0.0
 74
0
 49
-3.0
 74
0
 49
0.0
 74
0
 49
-3.0
 74
0
 49
0.0
 74
0
 49
-3.0
 74
0
  0
LTYPE
  5
54
100
AcDbSymbolTableRecord
100
AcDbLinetypeTableRecord
  2
DIVIDEX2
 70
0
  3
Divide (2x) ________  .  .  ________  .  .  _
 72
65
 73
6
 40
63.5
 49
25.3999999999999986
 74
0
 49
-12.6999999999999993
 74
0
 49
0.0
 74
0
 49
-12.6999999999999993
 74
0
 49
0.0
 74
0
 49
-12.6999999999999993
 74
0
  0
LTYPE
  5
55
100
AcDbSymbolTableRecord
100
AcDbLinetypeTableRecord
  2
CENTER
 70
0
  3
Center ____ _ ____ _ ____ _ ____ _ ____ _ ____
 72
65
 73
4
 40
50.8000000000000043
 49
31.75
 74
0
 49
-6.3499999999999996
 74
0
 49
6.3499999999999996
 74
0
 49
-6.3499999999999996
 74
0
  0
LTYPE
  5
56
100
AcDbSymbolTableRecord
100
AcDbLinetypeTableRecord
  2
DIVIDE2
 70
0
  3
Divide (.5x) __..__..__..__..__..__..__..__.._
 72
65
 73
6
 40
15.875
 49
6.3499999999999996
 74
0
 49
-3.1749999999999998
 74
0
 49
0.0
 74
0
 49
-3.1749999999999998
 74
0
 49
0.0
 74
0
 49
-3.1749999999999998
 74
0
  0
LTYPE
  5
57
100
AcDbSymbolTableRecord
100
AcDbLinetypeTableRecord
  2
SectionLineISO
 70
0
  3

 72
65
 73
5
 40
13.7583333333334217
 49
4.23333333333336
 74
0
 49
-2.11666666666668
 74
0
 49
1.05833333333334
 74
0
 49
-2.11666666666668
 74
0
 49
4.23333333333336
 74
0
  0
LTYPE
  5
58
100
AcDbSymbolTableRecord
100
AcDbLinetypeTableRecord
  2
CenterLine
 70
0
  3

 72
65
 73
4
 40
8.0
 49
5.0
 74
0
 49
-1.0
 74
0
 49
1.0
 74
0
 49
-1.0
 74
0
  0
LTYPE
  5
59
100
AcDbSymbolTableRecord
100
AcDbLinetypeTableRecord
  2
DASHED2
 70
0
  3
Dashed (.5x) _ _ _ _ _ _ _ _ _ _ _ _ _ _ _ _ _ 
 72
65
 73
2
 40
9.5249999999999986
 49
6.3499999999999996
 74
0
 49
-3.1749999999999998
 74
0
  0
LTYPE
  5
5A
100
AcDbSymbolTableRecord
100
AcDbLinetypeTableRecord
  2
DetailCircleISO
 70
0
  3

 72
65
 73
5
 40
13.7583333333334217
 49
4.23333333333336
 74
0
 49
-2.11666666666668
 74
0
 49
1.05833333333334
 74
0
 49
-2.11666666666668
 74
0
 49
4.23333333333336
 74
0
  0
LTYPE
  5
5B
100
AcDbSymbolTableRecord
100
AcDbLinetypeTableRecord
  2
PHANTOM
 70
0
  3
Phantom ______  __  __  ______  __  __  ______ 
 72
65
 73
6
 40
63.5000000000000071
 49
31.75
 74
0
 49
-6.3499999999999996
 74
0
 49
6.3499999999999996
 74
0
 49
-6.3499999999999996
 74
0
 49
6.3499999999999996
 74
0
 49
-6.3499999999999996
 74
0
  0
ENDTAB
  0
TABLE
  2
LAYER
  5
2
100
AcDbSymbolTable
 70
4
  0
LAYER
  5
5C
100
AcDbSymbolTableRecord
100
AcDbLayerTableRecord
  2
Geometries
 70
0
 62
7
420
16777215
  6
Continuous
370
-3
390
F
  0
LAYER
  5
5D
100
AcDbSymbolTableRecord
100
AcDbLayerTableRecord
  2
Annotations
 70
0
 62
7
420
16777215
  6
Continuous
370
-3
390
F
  0
LAYER
  5
10
100
AcDbSymbolTableRecord
100
AcDbLayerTableRecord
  2
0
 70
0
 62
7
420
16777215
  6
Continuous
370
-3
390
F
  0
LAYER
  5
5E
100
AcDbSymbolTableRecord
100
AcDbLayerTableRecord
  2
Border
 70
0
 62
7
420
16777215
  6
Continuous
370
-3
390
F
  0
ENDTAB
  0
TABLE
  2
STYLE
  5
3
100
AcDbSymbolTable
 70
1
  0
STYLE
  5
5F
100
AcDbSymbolTableRecord
100
AcDbTextStyleTableRecord
  2
Standard
 70
0
 40
0.0
 41
1.0
 50
0.0
 71
0
 42
2.5
  3

  4

1001
ACAD
1000
txt
1071
0
  0
ENDTAB
  0
TABLE
  2
VIEW
  5
6
100
AcDbSymbolTable
 70
0
  0
ENDTAB
  0
TABLE
  2
UCS
  5
7
100
AcDbSymbolTable
 70
0
  0
ENDTAB
  0
TABLE
  2
APPID
  5
9
100
AcDbSymbolTable
 70
1
  0
APPID
  5
12
100
AcDbSymbolTableRecord
100
AcDbRegAppTableRecord
  2
ACAD
 70
0
  0
APPID
  5
60
100
AcDbSymbolTableRecord
100
AcDbRegAppTableRecord
  2
QCAD
 70
0
  0
ENDTAB
  0
TABLE
  2
DIMSTYLE
  5
A
100
AcDbSymbolTable
 70
1
100
AcDbDimStyleTable
 71
0
  0
DIMSTYLE
105
27
100
AcDbSymbolTableRecord
100
AcDbDimStyleTableRecord
  2
Standard
 41
2.5
 42
0.625
 43
3.75
 44
1.25
 70
0
 73
0
 74
0
 77
1
 78
8
140
2.5
141
2.5
143
0.03937007874016
147
0.7
171
3
172
1
271
2
272
2
274
3
278
44
283
0
284
8
340
5F
  0
ENDTAB
  0
TABLE
  2
BLOCK_RECORD
  5
1
100
AcDbSymbolTable
 70
1
  0
BLOCK_RECORD
  5
1F
100
AcDbSymbolTableRecord
100
AcDbBlockTableRecord
  2
*Model_Space
340
22
  0
BLOCK_RECORD
  5
1B
100
AcDbSymbolTableRecord
100
AcDbBlockTableRecord
  2
*Paper_Space
340
1E
  0
BLOCK_RECORD
  5
23
100
AcDbSymbolTableRecord
100
AcDbBlockTableRecord
  2
*Paper_Space0
340
26
  0
ENDTAB
  0
ENDSEC
  0
SECTION
  2
BLOCKS
  0
BLOCK
  5
20
100
AcDbEntity
  8
0
100
AcDbBlockBegin
  2
*Model_Space
 70
0
 10
0.0
 20
0.0
 30
0.0
  3
*Model_Space
  1

  0
ENDBLK
  5
21
100
AcDbEntity
  8
0
100
AcDbBlockEnd
  0
BLOCK
  5
1C
100
AcDbEntity
 67
1
  8
0
100
AcDbBlockBegin
  2
*Paper_Space
 70
0
 10
0.0
 20
0.0
 30
0.0
  3
*Paper_Space
  1

  0
ENDBLK
  5
1D
100
AcDbEntity
 67
1
  8
0
100
AcDbBlockEnd
  0
BLOCK
  5
24
100
AcDbEntity
  8
0
100
AcDbBlockBegin
  2
*Paper_Space0
 70
0
 10
0.0
 20
0.0
 30
0.0
  3
*Paper_Space0
  1

  0
ENDBLK
  5
25
100
AcDbEntity
  8
0
100
AcDbBlockEnd
  0
ENDSEC
  0
SECTION
  2
ENTITIES
  0
ARC
  5
61
100
AcDbEntity
  8
Geometries
 62
256
370
0
 48
1.0
  6
Continuous
100
AcDbCircle
 10
137.8955656451543916
 20
228.2202380851636008
 30
0.0
 40
8.0999999999998291
100
AcDbArc
 50
136.2622953461903137
 51
43.7377046538102974
  0
LWPOLYLINE
  5
62
100
AcDbEntity
  8
Geometries
 62
256
370
0
 48
1.0
  6
Continuous
100
AcDbPolyline
 90
36
 70
128
 10
325.3618028047812913
 20
217.6882964516705954
 10
325.3054353678280108
 20
217.6871826735529112
 10
325.2482738294680189
 20
217.6837727969096079
 10
325.1904527852988736
 20
217.6779695439892066
 10
325.1321190961256207
 20
217.6696842605516906
 10
325.0734312971658824
 20
217.6588384746773102
 10
325.0145587729762156
 20
217.645365433689193
 10
324.9590420656430183
 20
217.6302076286364127
 10
324.9036774665822804
 20
217.6126334722333127
 10
324.848627662454021
 20
217.5926223755917022
 10
324.7940596213251752
 20
217.5701670181441045
 10
324.7401431697564931
 20
217.5452740120801991
 10
324.6870494554725042
 20
217.5179643974242083
 10
324.634949320710291
 20
217.4882739480192129
 10
324.5840116153382269
 20
217.4562532726806126
 10
324.5344014820453253
 20
217.4219677005924893
 10
324.4862786481335206
 20
217.3854969454883133
 10
324.440610581946828
 20
217.3476409060068022
 10
324.3966609255398907
 20
217.3078681095796867
 10
324.3545567476718929
 20
217.2662907065910076
 10
324.3144144776749727
 20
217.2230310589407054
 10
324.2756662748099075
 20
217.1773923079229007
 10
324.2391575994897721
 20
217.1302926691587913
 10
324.2049712416842908
 20
217.0818857392935115
 10
324.1731751276840896
 20
217.032330238185807
 10
324.1438220000915749
 20
216.9817883630690005
 10
324.11740729168298
 20
216.931347618517691
 10
324.0934065522666856
 20
216.8802692464061863
 10
324.0718272620189282
 20
216.8287076392194024
 10
324.0526635901142072
 20
216.7768146302489924
 10
324.0329728490248158
 20
216.714810096273709
 10
324.0166256924700861
 20
216.6527859402908121
 10
324.0035472263901966
 20
216.5909704557558086
 10
323.9936430977530222
 20
216.5295777949482101
 10
323.9868019927258729
 20
216.468806438177694
 10
323.9828982128889265
 20
216.408838069852294
  0
LINE
  5
63
100
AcDbEntity
  8
Geometries
 62
256
370
0
 48
1.0
  6
Continuous
100
AcDbLine
 10
335.1672502847434885
 20
217.6882964534534892
 30
0.0
 11
328.6162990517336198
 21
217.6882964521983013
 31
0.0
  0
LINE
  5
64
100
AcDbEntity
  8
Geometries
 62
256
370
0
 48
1.0
  6
Continuous
100
AcDbLine
 10
319.4470277173485897
 20
229.8884421322088087
 30
0.0
 11
319.4470277173485897
 21
233.8202380851633961
 31
0.0
  0
LWPOLYLINE
  5
65
100
AcDbEntity
  8
Geometries
 62
256
370
0
 48
1.0
  6
Continuous
100
AcDbPolyline
 90
36
 70
128
 10
323.9821276002135164
 20
215.8203331354797001
 10
323.9832147924419132
 20
215.7657214783382074
 10
323.9866900088696866
 20
215.7103398835575945
 10
323.9926550965276988
 20
215.6543193217648025
 10
324.0012029297590175
 20
215.5978027364614036
 10
324.0124157742050102
 20
215.5409444689308884
 10
324.026363672648074
 20
215.4839094534798107
 10
324.0420703794471251
 20
215.4301283573111903
 10
324.060293428409409
 20
215.376498211600591
 10
324.0810545896762278
 20
215.3231774790812949
 10
324.1043617587661743
 20
215.2703287970161057
 10
324.130208256008018
 20
215.2181175845381063
 10
324.158572303745018
 20
215.1667105376789948
 10
324.1894167021816884
 20
215.1162740367664128
 10
324.2226887205533217
 20
215.0669724948022861
 10
324.2583202152159743
 20
215.0189666786019131
 10
324.2962279804609125
 20
214.9724120366797138
 10
324.3355800254943233
 20
214.9282449835197895
 10
324.3769281953387917
 20
214.8857537229953891
 10
324.4201553120030894
 20
214.8450617389771082
 10
324.4651335120976228
 20
214.8062820903498107
 10
324.512586673427279
 20
214.7688671170309078
 10
324.56155934042539
 20
214.7336340131595875
 10
324.6118910069300227
 20
214.700662851658393
 10
324.6634158281142959
 20
214.6700191656543097
 10
324.7159643483487912
 20
214.6417536427501886
 10
324.7684051629083228
 20
214.616342367264906
 10
324.821505656600209
 20
214.5932796000365101
 10
324.8751046305242198
 20
214.5725718676451095
 10
324.9290436033389255
 20
214.5542127143258995
 10
324.993486117163684
 20
214.5353919258820099
 10
325.0579409886007056
 20
214.5198193667044109
 10
325.1221702199695756
 20
214.5074208101653142
 10
325.1859506808543188
 20
214.4981031329629104
 10
325.2490757006214039
 20
214.4917567696147955
 10
325.3113562331029129
 20
214.4882582400749129
  0
LWPOLYLINE
  5
66
100
AcDbEntity
  8
Geometries
 62
256
370
0
 48
1.0
  6
Continuous
100
AcDbPolyline
 90
36
 70
128
 10
328.8671478451491907
 20
214.4882582407562097
 10
328.9227442256872109
 20
214.4900014320226092
 10
328.9791239466733259
 20
214.4940539251456926
 10
329.0361495140987245
 20
214.5005151144223134
 10
329.0936706263954079
 20
214.5094754957059138
 10
329.1515247814500071
 20
214.5210150093178925
 10
329.209538136620381
 20
214.5352014027355949
 10
329.2642169988783962
 20
214.5510501594401944
 10
329.3187123156263851
 20
214.5693329074001099
 10
329.3728567882022844
 20
214.5900694586202064
 10
329.4264787073498724
 20
214.6132657129564052
 10
329.4794034731357897
 20
214.6389129521622863
 10
329.531455239409695
 20
214.66698731811681
 10
329.5824586550222079
 20
214.6974494971831007
 10
329.6322406694885103
 20
214.7302446281499044
 10
329.680632367160797
 20
214.7653024457594029
 10
329.727470791444091
 20
214.8025376656229923
 10
329.771810669906472
 20
214.8411310097876878
 10
329.8143642735382173
 20
214.8816214239936073
 10
329.8550035682687849
 20
214.9238901433633941
 10
329.8936119916439793
 20
214.9678079474350909
 10
329.9307283729664277
 20
215.0140755294958979
 10
329.965536235307809
 20
215.0617549990506063
 10
329.9979554815253096
 20
215.11068550763909
 10
330.0279218146536095
 20
215.1607013458593087
 10
330.0553870120498914
 20
215.2116337169470057
 10
330.0798960698651854
 20
215.2623841062232941
 10
330.1019459784911874
 20
215.3136936801938077
 10
330.1215356128196845
 20
215.3654035024154894
 10
330.1386776540530832
 20
215.4173579136136993
 10
330.1559300554305878
 20
215.4793181645530069
 10
330.1698165205531268
 20
215.5411670227753973
 10
330.1804249154221225
 20
215.6026741399246021
 10
330.1878625790711226
 20
215.6636249208034997
 10
330.1922535786140998
 20
215.7238219943149033
 10
330.193735910040914
 20
215.7830862410743862
  0
LWPOLYLINE
  5
67
100
AcDbEntity
  8
Geometries
 62
256
370
0
 48
1.0
  6
Continuous
100
AcDbPolyline
 90
4
 70
128
 10
504.1303518579688898
 20
225.0175931938271958
 10
504.1334948677364878
 20
224.7988359133030087
 10
504.1354121260832244
 20
224.580065397347397
 10
504.1359207386748267
 20
224.2362699759040936
  0
LWPOLYLINE
  5
68
100
AcDbEntity
  8
Geometries
 62
256
370
0
 48
1.0
  6
Continuous
100
AcDbPolyline
 90
30
 70
128
 10
503.1184303779697871
 20
226.0283652110460082
 10
503.1737680519764808
 20
226.0242419590929899
 10
503.2286863099208745
 20
226.0173109831426927
 10
503.2830776380960742
 20
226.0076064859225085
 10
503.3368345227962095
 20
225.9951626701596865
 10
503.3898494503147845
 20
225.9800137385817891
 10
503.4410914529793786
 20
225.9625353288521978
 10
503.4914121958427131
 20
225.9425129470569118
 10
503.5407070292587832
 20
225.9199825744032921
 10
503.5888533583840854
 20
225.895003179563389
 10
503.6366637661311074
 20
225.8670601327038128
 10
503.6830054618243935
 20
225.8367102837434004
 10
503.727740632356813
 20
225.8040259678172959
 10
503.7707314646215764
 20
225.7690795200606999
 10
503.8118401455101889
 20
225.7319432756086997
 10
503.8509308923689218
 20
225.6926924495737126
 10
503.8878883161482918
 20
225.6514311831734858
 10
503.9226088053342778
 20
225.6082803227818943
 10
503.9549888910931941
 20
225.5633609171474916
 10
503.9849251045923779
 20
225.5167940150188883
 10
504.012313976997973
 20
225.468700665144695
 10
504.0370520394769756
 20
225.4192019162734937
 10
504.0590375410362753
 20
225.3684202221805037
 10
504.0781933061934978
 20
225.3164981370200906
 10
504.0932166670914967
 20
225.2680356562530051
 10
504.1057678742974986
 20
225.2188689773041972
 10
504.1158019623997006
 20
225.1691197458804083
 10
504.1232739659861863
 20
225.1189096076884937
 10
504.1281389196469718
 20
225.0683602084351094
 10
504.1303518579688898
 20
225.0175931938271958
  0
LINE
  5
69
100
AcDbEntity
  8
Geometries
 62
256
370
0
 48
1.0
  6
Continuous
100
AcDbLine
 10
330.1947406329724117
 20
216.5503775422928072
 30
0.0
 11
330.193735910040914
 21
215.7830862410743862
 31
0.0
  0
ARC
  5
6A
100
AcDbEntity
  8
Geometries
 62
256
370
0
 48
1.0
  6
Continuous
100
AcDbCircle
 10
271.8955656451544769
 20
228.2202380851637997
 30
0.0
 40
8.0999999999996781
100
AcDbArc
 50
136.2622953461915642
 51
43.7377046538092884
  0
LWPOLYLINE
  5
6B
100
AcDbEntity
  8
Geometries
 62
256
370
0
 48
1.0
  6
Continuous
100
AcDbPolyline
 90
80
 70
128
 10
80.8545025967572712
 20
233.8202380851633961
 10
80.4854104922503097
 20
233.608467911195703
 10
80.1177349957202694
 20
233.3942537768701868
 10
79.7517106380818177
 20
233.1772359137291062
 10
79.3873224128904553
 20
232.9574776407037859
 10
79.0244237837991363
 20
232.7352652404312039
 10
78.6628966901219258
 20
232.5108306607143049
 10
78.3026828760910689
 20
232.2842922447445062
 10
77.973612130484355
 20
232.0748503077134046
 10
77.6457446664795441
 20
231.8635338417288096
 10
77.3192951372396635
 20
231.6500392706581977
 10
76.9944617091049395
 20
231.434090080344987
 10
76.6713070352693364
 20
231.2156311561996915
 10
76.3498306649230472
 20
230.9947104314508124
 10
76.0300353287814801
 20
230.7713671634112131
 10
75.7119295098318332
 20
230.5456255520383024
 10
75.395519449090699
 20
230.3175121944973114
 10
75.0807660553931271
 20
230.0871155417956118
 10
74.7675932416788953
 20
229.8545745242714986
 10
74.4559412394178821
 20
229.6200037881110916
 10
74.2469332655879271
 20
229.4608627376595962
 10
74.0387458384101649
 20
229.3006471323122923
 10
73.8317279462476961
 20
229.1389288798557118
 10
73.6262126072348906
 20
228.9753047659652054
 10
73.422215911979265
 20
228.8097877209455078
 10
73.219726420633549
 20
228.6424327323377099
 10
73.0189561654852355
 20
228.473019566711713
 10
72.8205785968545172
 20
228.3016835354895022
 10
72.6243683388791794
 20
228.1278768810965971
 10
72.4302368842492967
 20
227.9517481220613888
 10
72.2374738439328326
 20
227.7741132851843986
 10
72.045633448126523
 20
227.5954908389635136
 10
71.8957649158417951
 20
227.4542260309457902
 10
71.7468516040655686
 20
227.3119482991369011
 10
71.5988930071895595
 20
227.1686794824869935
 10
71.4523282654390925
 20
227.0239892259021985
 10
71.3077060366278204
 20
226.8773534444592883
 10
71.1887291372547963
 20
226.7536600446973125
 10
71.0709049529094443
 20
226.6288627982727917
 10
70.9541781477409472
 20
226.5030373180487118
 10
70.8390075267497537
 20
226.3757924862215134
 10
70.7257551938420477
 20
226.2468386436140975
 10
70.6145930202417276
 20
226.1160708333262903
 10
70.5115359063399296
 20
225.9913096622688897
 10
70.4097282820958981
 20
225.8655302514262928
 10
70.3085504909592771
 20
225.739237490474693
 10
70.2075551265981233
 20
225.6128001788869142
 10
70.1068020488981745
 20
225.4861722339697963
 10
70.0158660838634432
 20
225.3705317206610061
 10
69.9260000504586685
 20
225.2540611454666077
 10
69.8375119797247521
 20
225.1365413775938862
 10
69.7504259469696422
 20
225.0179752495257901
 10
69.6650678490320274
 20
224.8981640127024093
 10
69.5822235598888312
 20
224.7765994292971925
 10
69.5021298319737753
 20
224.6532094182767878
 10
69.4407093258128896
 20
224.5552883833327087
 10
69.3815826003580867
 20
224.4559750282606103
 10
69.3259803241228383
 20
224.3546525179530136
 10
69.2732575165191236
 20
224.2517847472443009
 10
69.2222051144985926
 20
224.1480888917336074
 10
69.173578880060461
 20
224.0432307500300055
 10
69.1268113549048167
 20
223.937523629441614
 10
69.0873377410441094
 20
223.8444108913762989
 10
69.0490881143510364
 20
223.750787768892593
 10
69.0117321236225223
 20
223.6567971815146905
 10
68.9750841847769038
 20
223.5625268740502065
 10
68.9395080841772483
 20
223.4678552600406078
 10
68.9054954903924681
 20
223.3726121572977945
 10
68.8736224696886268
 20
223.2766265081693859
 10
68.8443912479725668
 20
223.1798067274658877
 10
68.8249928067388055
 20
223.111300116216114
 10
68.8075522942996827
 20
223.04227335847429
 10
68.7930988682754219
 20
222.972555208415713
 10
68.7800183374547203
 20
222.9025662982780887
 10
68.769210554586266
 20
222.8321994954800971
 10
68.7626227641060268
 20
222.7766385623754957
 10
68.7576634823412292
 20
222.7209078731764862
 10
68.7542620106933384
 20
222.6650815034466007
 10
68.7526140202638771
 20
222.6091889729000002
 10
68.7531495454727235
 20
222.5532205991312935
  0
LINE
  5
6C
100
AcDbEntity
  8
Geometries
 62
256
370
0
 48
1.0
  6
Continuous
100
AcDbLine
 10
335.1832256595595254
 20
229.8884421351280025
 30
0.0
 11
335.1672502847434885
 21
217.6882964534534892
 31
0.0
  0
LINE
  5
6D
100
AcDbEntity
  8
Geometries
 62
256
370
0
 48
1.0
  6
Continuous
100
AcDbLine
 10
328.8671478451491907
 20
214.4882582407562097
 30
0.0
 11
325.3113562331029129
 21
214.4882582400749129
 31
0.0
  0
LWPOLYLINE
  5
6E
100
AcDbEntity
  8
Geometries
 62
256
370
0
 48
1.0
  6
Continuous
100
AcDbPolyline
 90
29
 70
128
 10
504.1359207386748267
 20
224.2362699759040936
 10
504.1343528315621825
 20
224.1838753181596928
 10
504.129978553042406
 20
224.1317685139995035
 10
504.1228184256299869
 20
224.0800729668187898
 10
504.1128929718406084
 20
224.0289120800129012
 10
504.1002227141900107
 20
223.9784092569773009
 10
504.0851268483551735
 20
223.9295682146870945
 10
504.0674225708343101
 20
223.8815978890615099
 10
504.0471359167581795
 20
223.8346166586561026
 10
504.024335217163582
 20
223.7887523248749915
 10
503.9985659212163114
 20
223.7432398032219965
 10
503.9703578541411844
 20
223.6991669277516053
 10
503.9398014089986191
 20
223.6566734491053126
 10
503.9069869788485789
 20
223.6158991179246982
 10
503.8720049567518231
 20
223.5769836848513137
 10
503.8349485647465826
 20
223.5400623557131041
 10
503.7959390180590162
 20
223.50522536470001
 10
503.7551135108503786
 20
223.472537275510291
 10
503.7126094239736176
 20
223.4420623519141031
 10
503.6685641382837844
 20
223.4138648576814887
 10
503.6231150346357026
 20
223.3880090565826038
 10
503.5763994938844235
 20
223.3645592123874906
 10
503.5285542181745768
 20
223.343577634271611
 10
503.4797064234841173
 20
223.3250993124921138
 10
503.4249594417779008
 20
223.3076821900249911
 10
503.3693047305666823
 20
223.2933312607715095
 10
503.3129021162383196
 20
223.2820657435333089
 10
503.2559114251782262
 20
223.2739048571125124
 10
503.1984924837743733
 20
223.2688678203105894
  0
LINE
  5
6F
100
AcDbEntity
  8
Geometries
 62
256
370
0
 48
1.0
  6
Continuous
100
AcDbLine
 10
319.9470277173485897
 20
229.8884421322088087
 30
0.0
 11
335.1832256595595254
 21
229.8884421351280025
 31
0.0
  0
LWPOLYLINE
  5
70
100
AcDbEntity
  8
Geometries
 62
256
370
0
 48
1.0
  6
Continuous
100
AcDbPolyline
 90
40
 70
128
 10
503.1184303779697871
 20
226.0283652110460082
 10
502.3533609559049751
 20
226.0672011877805119
 10
501.5884478562409186
 20
226.1090731493659973
 10
500.8237083118522719
 20
226.1540036200320003
 10
500.0591555421847261
 20
226.2019695207204961
 10
499.2947815021349243
 20
226.2527061505458903
 10
498.5305711306331204
 20
226.3058690885659985
 10
497.6300871799933816
 20
226.3712250842806952
 10
496.7298090720078108
 20
226.4393512564114985
 10
495.8297074959259021
 20
226.5097844047043907
 10
494.9297151331472833
 20
226.5815916175820064
 10
493.3227704337780892
 20
226.7121186973980969
 10
491.7161117879310837
 20
226.8461116637666919
 10
490.1096509885558135
 20
226.9824664161367878
 10
488.503275130947884
 20
227.1198170481054035
 10
485.6349424704698095
 20
227.367358807581212
 10
482.7668626261324789
 20
227.6178138896177927
 10
479.8990299665719022
 20
227.8710869343252909
 10
477.0314291969660871
 20
228.1269711233848057
 10
474.7375094023972792
 20
228.3334685369860892
 10
472.4437424693368257
 20
228.5416584755456029
 10
470.1501422953290898
 20
228.7516842783626885
 10
467.8567334283678747
 20
228.9637877609212069
 10
465.5635416285113024
 20
229.178219617329006
 10
463.3115174429983085
 20
229.3911361900655947
 10
461.0597041453776228
 20
229.6062732016314101
 10
458.8080963940951733
 20
229.8235542050171034
 10
456.5566882166277196
 20
230.042897268668014
 10
453.6330694523512079
 20
230.3307007125534085
 10
450.7097637608285936
 20
230.6216612227877079
 10
447.7867531636350122
 20
230.9155629342907901
 10
444.8640118139692277
 20
231.2121318594012962
 10
441.9415131059075179
 20
231.5110884029018905
 10
439.0192315996758907
 20
231.8121644730418893
 10
436.0971591606955258
 20
232.1152626845762939
 10
432.8831270667462832
 20
232.4510461652427011
 10
429.6693614106736732
 20
232.7893657449596958
 10
426.455870666743408
 20
233.1302834931935024
 10
423.242665022744518
 20
233.4738801963410992
 10
420.0297547986992868
 20
233.8202380851633961
  0
LINE
  5
71
100
AcDbEntity
  8
Geometries
 62
256
370
0
 48
1.0
  6
Continuous
100
AcDbLine
 10
323.9821276002135164
 20
215.8203331354797001
 30
0.0
 11
323.9828982128889265
 21
216.408838069852294
 31
0.0
  0
LWPOLYLINE
  5
72
100
AcDbEntity
  8
Geometries
 62
256
370
0
 48
1.0
  6
Continuous
100
AcDbPolyline
 90
300
 70
128
 10
503.1984924837743733
 20
223.2688678203105894
 10
502.4437694996373125
 20
223.2218469649679946
 10
501.6892402891537017
 20
223.171826340462502
 10
500.9349049493388861
 20
223.1189539201893979
 10
500.1807635772079266
 20
223.0633776775441106
 10
499.4268157753992909
 20
223.0052443563353108
 10
498.6865166778068783
 20
222.9457954549608871
 10
497.9463960809305263
 20
222.8841597990625871
 10
497.2063868219032088
 20
222.8212024339821085
 10
496.4663919180388234
 20
222.7580773012435884
 10
495.4094807420430016
 20
222.6653043570046009
 10
494.3527371012174854
 20
222.5706400378668945
 10
493.2961750156295011
 20
222.4739763129659877
 10
492.23976626182872
 20
222.3756454550695878
 10
491.1834518613496243
 20
222.2763057113018874
 10
489.2970630861025825
 20
222.1001267218439068
 10
487.4106201764805064
 20
221.9245223660383886
 10
485.5242072896642753
 20
221.7485945518924098
 10
483.6378681151671799
 20
221.5718797524453123
 10
481.7516308643553771
 20
221.394079736205498
 10
476.1379742149206891
 20
220.8633792408471095
 10
470.5244186750854283
 20
220.3316103119070135
 10
464.9109405250310942
 20
219.7990243116734064
 10
461.5428037914575157
 20
219.4800000244912894
 10
458.1746675236332749
 20
219.1609701222390072
 10
454.8065810253395966
 20
218.8414127366064861
 10
451.4384531179982218
 20
218.5222939429891937
 10
448.0701568781876745
 20
218.2049600027636984
 10
445.4234833323026805
 20
217.9572774110486932
 10
442.7766585747177146
 20
217.7112126298227111
 10
440.1296634311133857
 20
217.4669863439497135
 10
437.4824731327573204
 20
217.224888110192893
 10
434.8350672174912006
 20
216.9851608748062972
 10
432.0269804020595075
 20
216.7334790062041918
 10
429.2186668927178061
 20
216.4843376377313859
 10
426.4101308942862261
 20
216.2377175005258891
 10
423.6013664766692841
 20
215.9937132030514135
 10
420.792365992539203
 20
215.7524410982670133
 10
417.9831171261876079
 20
215.5140804564368864
 10
415.3341571095169797
 20
215.2921830305421054
 10
412.6849545491779736
 20
215.0731984984095959
 10
410.035502320387593
 20
214.8572560472148893
 10
407.3857935450196237
 20
214.6444832585040956
 10
404.7358216855001274
 20
214.4350127832470889
 10
402.5273063315298145
 20
214.2630755196840084
 10
400.3186005137068832
 20
214.0936039048191049
 10
398.1097041684656119
 20
213.9266331061400024
 10
395.9006202683016795
 20
213.7621603963902999
 10
393.6913518912890027
 20
213.600181741165386
 10
391.4819015629390719
 20
213.4407019010878059
 10
389.3985400930412766
 20
213.2926450953009123
 10
387.315019057821587
 20
213.1468525468197868
 10
385.2313394518321275
 20
213.0033461091452125
 10
383.1475022696254769
 20
212.8621476357780864
 10
381.0635085103348274
 20
212.7232789421051109
 10
378.6520823765229125
 20
212.565537074371008
 10
376.2404509880200862
 20
212.4109648531756136
 10
373.8286170428866058
 20
212.2595864960142933
 10
371.416583239181989
 20
212.1114262203824126
 10
369.0043522750871716
 20
211.9665082472702125
 10
366.5919269121073967
 20
211.8248586470454029
 10
364.1793100789682853
 20
211.6865083734259088
 10
361.9675789720097896
 20
211.5626127731189001
 10
359.7556917376721231
 20
211.4415406586855966
 10
357.5436506528325822
 20
211.3233164860172906
 10
355.3314579949316112
 20
211.2079647005423055
 10
353.1191165892311119
 20
211.0954995949464887
 10
350.9066308318753045
 20
210.985906348856588
 10
348.6940053988138857
 20
210.8791649562706141
 10
346.4812449659971207
 20
210.7752554111866061
 10
344.2683542093737969
 20
210.6741577076024896
 10
342.0553378048946911
 20
210.575851839516389
 10
339.842200297580689
 20
210.4803194172932876
 10
337.6289454993225831
 20
210.3875511021525142
 10
335.5420581706346752
 20
210.3026099681922858
 10
333.4550727157388224
 20
210.2201153800868099
 10
331.3679921157071249
 20
210.1400621519318008
 10
329.2808193516145252
 20
210.0624450978228026
 10
327.1935574051050253
 20
209.987259039321799
 10
324.9797006287292902
 20
209.9101672486094969
 10
322.7657505237161786
 20
209.8357990916726976
 10
320.5517107057991097
 20
209.7641491541484982
 10
318.3375847907141178
 20
209.6952120216743083
 10
316.1233763941954749
 20
209.6289822798869977
 10
313.9090891321416166
 20
209.5654544916779969
 10
311.8212636296823916
 20
209.5080205751415008
 10
309.7333744560867785
 20
209.4529524246711958
 10
307.645424806085316
 20
209.4002227515512118
 10
305.5574178744087135
 20
209.3498042670655082
 10
303.4693568557877938
 20
209.3016696824984137
 10
301.1388716620122068
 20
209.2506115057016984
 10
298.8083275128349783
 20
209.2023262578003937
 10
296.4777285465821137
 20
209.1567757248585053
 10
294.1470784248263044
 20
209.1139212566201877
 10
291.8163807664191154
 20
209.0737241637312991
 10
289.4856391902109749
 20
209.0361457568378114
 10
287.1548573150540165
 20
209.0011473465854976
 10
284.824038759798384
 20
208.9686902436203013
 10
282.0781485214895952
 20
208.933666217673391
 10
279.3322168580398852
 20
208.9020800971620133
 10
276.5862482285922965
 20
208.8738965637637079
 10
273.8402470922895873
 20
208.8490802991564976
 10
271.0942179023787162
 20
208.8275950344263094
 10
268.3481649561006179
 20
208.8093793419101871
 10
265.6020923824127067
 20
208.7943446558087999
 10
263.0848454670182264
 20
208.7832804939909863
 10
260.5675886955152123
 20
208.7747444534049919
 10
258.050325161363503
 20
208.7686685751610014
 10
255.5330572676112979
 20
208.764996030399999
 10
253.0157870659471087
 20
208.7636756544758043
 10
250.498516605276194
 20
208.7646563276030918
 10
247.4777945954411109
 20
208.7687985434463087
 10
244.4570786658453017
 20
208.7760916441577024
 10
241.4363716678678031
 20
208.7864349039766125
 10
238.4156759028770125
 20
208.7997177077855042
 10
235.394993654979487
 20
208.815829130081795
 10
232.4282675287469999
 20
208.8342988220414043
 10
229.4615586682407127
 20
208.8552947056500955
 10
226.4948685073329102
 20
208.8787626606984986
 10
223.5281983388667868
 20
208.9046587318213994
 10
220.1570083660789123
 20
208.9369672555563113
 10
216.7858483849545053
 20
208.9722610537826881
 10
213.4147203608038978
 20
209.0104702741230938
 10
210.0436259509502861
 20
209.0515362849633902
 10
206.6725664510329068
 20
209.0953812001523033
 10
203.3015428152515938
 20
209.1419084336781111
 10
199.9305563086292921
 20
209.1910512617943994
 10
196.5596085532577035
 20
209.2427770069182884
 10
193.0281818295100891
 20
209.2996552417970975
 10
189.4967974342472132
 20
209.3591144025828896
 10
185.9654560420713949
 20
209.4210772350535876
 10
182.4341628870770933
 20
209.4857206724794878
 10
178.9029194493244859
 20
209.5530277664728089
 10
175.371719186074813
 20
209.6225644097806935
 10
172.5117774557043049
 20
209.6808157696216881
 10
169.6518780719794961
 20
209.7411048407400926
 10
166.7920275575280868
 20
209.8036695956311917
 10
163.9322294034788001
 20
209.868586671377102
 10
161.0724859861950904
 20
209.9358715749339126
 10
158.2128014862296084
 20
210.005613715322113
 10
155.9659514124411999
 20
210.0622270143005892
 10
153.7191464559128917
 20
210.1206016832711043
 10
151.4723961431853922
 20
210.1810297990404024
 10
149.2257100454592091
 20
210.243802417793006
 10
146.9790924510593868
 20
210.3089969007226046
 10
144.7325432276568904
 20
210.3765117913426081
 10
142.8069839916271917
 20
210.4361531587705088
 10
140.8814809054800889
 20
210.497563830276988
 10
138.9560468431440938
 20
210.5611111233278052
 10
137.0306893364571863
 20
210.6269551195537986
 10
135.1054125484969006
 20
210.6951181677565046
 10
133.1802255354199076
 20
210.7657553368449896
 10
131.2551393470862138
 20
210.839076173254
 10
129.7426495610947086
 20
210.8987046766077071
 10
128.2302353505855024
 20
210.9602367992416134
 10
126.7179070371206961
 20
211.0238422943812111
 10
125.2056757365677981
 20
211.0897018132899916
 10
123.693552564792796
 20
211.1579960072313895
 10
122.1815488336784057
 20
211.2289071670894884
 10
120.6696802138172018
 20
211.3026540432497029
 10
119.4453042940514962
 20
211.3646359969571904
 10
118.2210407810221966
 20
211.4287810697335885
 10
116.9969003680115947
 20
211.4952252852530989
 10
115.7728937538271055
 20
211.5641045645569136
 10
114.5490323393025989
 20
211.6355417926685902
 10
113.3253289069652965
 20
211.7096341976831013
 10
112.1017964477224069
 20
211.7864772697622868
 10
111.2607244808825016
 20
211.8409700241342932
 10
110.4197445973343008
 20
211.8968726219378027
 10
109.5788485607281046
 20
211.9540341784966131
 10
108.7380195817499953
 20
212.0121699047425068
 10
107.897266377363195
 20
212.0713792095586996
 10
107.0566203623978936
 20
212.1321007033095896
 10
106.2161165534800062
 20
212.1947650335567914
 10
105.3757915934714049
 20
212.2597693903952916
 10
104.535651001799593
 20
212.3271189552854139
 10
103.6956667207576004
 20
212.3963986076836079
 10
102.8558279071999948
 20
212.4674150850902947
 10
102.0161469450363967
 20
212.5402732375256107
 10
101.176642251726193
 20
212.6151355421474136
 10
100.3373385499412933
 20
212.6922181116927106
 10
99.4982606084548706
 20
212.7717218888435866
 10
98.6594325983056422
 20
212.8538188742739123
 10
97.9064335279040563
 20
212.9298938638571883
 10
97.1536779071693104
 20
213.0083401890402968
 10
96.4011877155592458
 20
213.0892963536028901
 10
95.6489873892005562
 20
213.1729007338115025
 10
94.8971019766673294
 20
213.2592905348795966
 10
94.1455572666356204
 20
213.3485939983636968
 10
93.3943794730926697
 20
213.4409354460067902
 10
92.6849533235469494
 20
213.5311073876524119
 10
91.9759126941079614
 20
213.6242571150359879
 10
91.2672886529341838
 20
213.7205230888741028
 10
90.5591100441178583
 20
213.8200158698629991
 10
89.8513880004001351
 20
213.922705339994593
 10
89.1440993701468756
 20
214.028336135847411
 10
88.6679838586028382
 20
214.1009503535001102
 10
88.1920767958248462
 20
214.1749156244557071
 10
87.7164269695389294
 20
214.250514470277011
 10
87.2410917706494047
 20
214.3280662154768095
 10
86.76613395523745
 20
214.4079029679137136
 10
86.2916255756531427
 20
214.490362334301409
 10
85.8174225325458622
 20
214.5745613616568903
 10
85.3435833769049452
 20
214.6607844034915047
 10
84.8702547348882774
 20
214.7497661434042868
 10
84.3972763809030937
 20
214.8405967753274126
 10
83.9249318699424123
 20
214.9346593901146036
 10
83.4530873030225564
 20
215.0312036680811048
 10
82.9817297529959887
 20
215.1300970511672119
 10
82.5109166278192561
 20
215.2315517877723892
 10
82.1873323775146218
 20
215.3017625573963016
 10
81.8641049803587748
 20
215.3736014007268977
 10
81.5412609270888993
 20
215.4471387750128883
 10
81.2188178117598625
 20
215.5224182095016943
 10
80.8968740749535868
 20
215.5998038949454951
 10
80.574935582434108
 20
215.6772089601128926
 10
80.2533178657656094
 20
215.7559377485910943
 10
79.9321512861790211
 20
215.8364877476307129
 10
79.635701726467488
 20
215.9142655441152101
 10
79.339700838493485
 20
215.9937478194293874
 10
79.0439875237698288
 20
216.0742871147340907
 10
78.7487046138317339
 20
216.1563950417211117
 10
78.4538982042572854
 20
216.2401972138549127
 10
78.1596081248652013
 20
216.3257941399398021
 10
77.8658710064266018
 20
216.41326965785521
 10
77.5434376844698932
 20
216.5117371288100117
 10
77.2217564422676901
 20
216.612636150088008
 10
76.9008827233521401
 20
216.716073388114097
 10
76.5808700203305079
 20
216.822142039194091
 10
76.2617547964754294
 20
216.9308851658086894
 10
75.996589552695923
 20
217.0237128343107997
 10
75.7320341615825612
 20
217.1182683911910942
 10
75.4677665013096828
 20
217.2136256869889905
 10
75.2037975008243791
 20
217.3098032931690113
 10
74.9403513845034865
 20
217.407408804840486
 10
74.6776648151319193
 20
217.5070351070610002
 10
74.5012893530083602
 20
217.575526193772987
 10
74.3254083686910292
 20
217.6452803356619086
 10
74.1501330652876049
 20
217.7165425399597041
 10
73.9755597918287719
 20
217.7895039332535987
 10
73.8012524638351692
 20
217.8631015793638142
 10
73.6274484493777095
 20
217.937876661223612
 10
73.4545581379353223
 20
218.0147441546019991
 10
73.2921499683793911
 20
218.0894904982444018
 10
73.1307205331737009
 20
218.1663235365550122
 10
72.9702907475533209
 20
218.2452203650634885
 10
72.8106924320419466
 20
218.3257974482125121
 10
72.6516624579616064
 20
218.4074902780776881
 10
72.4929926451180791
 20
218.4898678923308069
 10
72.3437422539534509
 20
218.5682254160244042
 10
72.1953727573749688
 20
218.6482296218505041
 10
72.0480737513866529
 20
218.7301906124046127
 10
71.9016404017667128
 20
218.8136869982947985
 10
71.7561236380767866
 20
218.8987762510359119
 10
71.6357663338995394
 20
218.9712059459511124
 10
71.516256115235592
 20
219.0450270578685092
 10
71.3972958852446595
 20
219.1197361452894938
 10
71.2790977746326746
 20
219.195636061376689
 10
71.1621190709940947
 20
219.2734078550944901
 10
71.046460063188789
 20
219.3531296144660132
 10
70.9386949634902351
 20
219.4301207220943013
 10
70.8323354444437712
 20
219.5090477677219951
 10
70.7273812936932416
 20
219.5898305003732105
 10
70.6228643682209452
 20
219.6711797278821905
 10
70.5194513071418498
 20
219.7539317400307084
 10
70.402698228372941
 20
219.8483860363018039
 10
70.2873391750333667
 20
219.9445357676198114
 10
70.1735065387851478
 20
220.0425001160880072
 10
70.0608486746707513
 20
220.1417887079107913
 10
69.9734691507565003
 20
220.2210907247383886
 10
69.8873918705546942
 20
220.3018203798891932
 10
69.8028361927369474
 20
220.3841058169130918
 10
69.7199318586005745
 20
220.4680360305374052
 10
69.6548287859275206
 20
220.5364042851732904
 10
69.5909621835313033
 20
220.605959875577895
 10
69.5286379752282073
 20
220.6768815200611016
 10
69.4681716838221064
 20
220.749352975621207
 10
69.409878832115794
 20
220.82355799925611
 10
69.3550387716390446
 20
220.8982937383657941
 10
69.3026978781405774
 20
220.9748437549272069
 10
69.2527936615429951
 20
221.0530051417107984
 10
69.2052493138874638
 20
221.1325870501435134
 10
69.1591580891403908
 20
221.2149442302203113
 10
69.1152885151464602
 20
221.298520983320202
 10
69.0734929116762828
 20
221.3831724819042108
 10
69.0336023141013584
 20
221.4687373093703116
 10
68.9955510608110956
 20
221.5551159413784887
 10
68.9601211079317977
 20
221.6407769134841885
 10
68.9268010440362389
 20
221.7273002573411986
 10
68.8958453113019686
 20
221.8147013250959958
 10
68.867539476467698
 20
221.9029809946401883
 10
68.8469063387597657
 20
221.9742137212336957
 10
68.8280051905731796
 20
222.0459296576229917
 10
68.8107702212874415
 20
222.1180712177277883
 10
68.7952328576965897
 20
222.1905984444867102
 10
68.7816133227032651
 20
222.2635041121482118
 10
68.7704668148149949
 20
222.335482837858109
 10
68.761889673909252
 20
222.4078182650561075
 10
68.7560650777716376
 20
222.480428302836799
 10
68.7531495454727235
 20
222.5532205991312935
  0
LINE
  5
73
100
AcDbEntity
  8
Geometries
 62
256
370
0
 48
1.0
  6
Continuous
100
AcDbLine
 10
319.4310523425327233
 20
217.6882964505342954
 30
0.0
 11
319.4470277173485897
 21
229.8884421322088087
 31
0.0
  0
LINE
  5
74
100
AcDbEntity
  8
Geometries
 62
256
370
0
 48
1.0
  6
Continuous
100
AcDbLine
 10
420.0297547986992868
 20
233.8202380851633961
 30
0.0
 11
319.9470277173485897
 21
233.8202380851633961
 31
0.0
  0
LINE
  5
75
100
AcDbEntity
  8
Geometries
 62
256
370
0
 48
1.0
  6
Continuous
100
AcDbLine
 10
132.0432156897946072
 20
233.8202380851633961
 30
0.0
 11
80.8545025967572712
 21
233.8202380851633961
 31
0.0
  0
ARC
  5
76
100
AcDbEntity
  8
Geometries
 62
256
370
0
 48
1.0
  6
Continuous
100
AcDbCircle
 10
328.6332950409799878
 20
216.0481607245424129
 30
0.0
 40
1.6382296155002061
100
AcDbArc
 50
17.8296502693524808
 51
90.5937091558973293
  0
LINE
  5
77
100
AcDbEntity
  8
Geometries
 62
256
370
0
 48
1.0
  6
Continuous
100
AcDbLine
 10
266.0432156897946925
 20
233.8202380851633961
 30
0.0
 11
143.7479156005140908
 21
233.8202380851635098
 31
0.0
  0
LINE
  5
78
100
AcDbEntity
  8
Geometries
 62
256
370
0
 48
1.0
  6
Continuous
100
AcDbLine
 10
319.4470277173485897
 20
233.8202380851633961
 30
0.0
 11
277.7479156005143182
 21
233.8202380851635098
 31
0.0
  0
LINE
  5
79
100
AcDbEntity
  8
Geometries
 62
256
370
0
 48
1.0
  6
Continuous
100
AcDbLine
 10
319.9470277173485897
 20
233.8202380851633961
 30
0.0
 11
319.9470277173485897
 21
229.8884421322088087
 31
0.0
  0
LINE
  5
7A
100
AcDbEntity
  8
Geometries
 62
256
370
0
 48
1.0
  6
Continuous
100
AcDbLine
 10
325.3618028047812913
 20
217.6882964516705954
 30
0.0
 11
319.4310523425327233
 21
217.6882964505342954
 31
0.0
  0
LINE
  5
7B
100
AcDbEntity
  8
0
 62
256
370
-1
 48
1.0
  6
ByLayer
100
AcDbLine
 10
328.616319715318582
 20
217.6863023885692598
 30
0.0
 11
328.6162990517336198
 21
217.6882964521983013
 31
0.0
  0
ENDSEC
  0
SECTION
  2
OBJECTS
  0
DICTIONARY
  5
C
100
AcDbDictionary
280
0
281
1
  3
ACAD_GROUP
350
D
  3
ACAD_LAYOUT
350
1A
  3
ACAD_MLINESTYLE
350
17
  3
ACAD_PLOTSETTINGS
350
19
  3
ACAD_PLOTSTYLENAME
350
E
  3
AcDbVariableDictionary
350
7C
  3
QCAD_OBJECTS
350
7D
  0
DICTIONARY
  5
D
100
AcDbDictionary
280
0
281
1
  0
ACDBDICTIONARYWDFLT
  5
E
100
AcDbDictionary
281
1
  3
Normal
350
F
100
AcDbDictionaryWithDefault
340
F
  0
ACDBPLACEHOLDER
  5
F
  0
DICTIONARY
  5
17
100
AcDbDictionary
280
0
281
1
  3
Standard
350
18
  0
MLINESTYLE
  5
18
100
AcDbMlineStyle
  2
STANDARD
 70
0
  3

 62
256
 51
90.0
 52
90.0
 71
2
 49
0.5
 62
256
  6
BYLAYER
 49
-0.5
 62
256
  6
BYLAYER
  0
DICTIONARY
  5
19
100
AcDbDictionary
280
0
281
1
  0
DICTIONARY
  5
1A
100
AcDbDictionary
281
1
  3
Layout1
350
1E
  3
Layout2
350
26
  3
Model
350
22
  0
LAYOUT
  5
1E
100
AcDbPlotSettings
  1

  2
none_device
  4

  6

 40
0.0
 41
0.0
 42
0.0
 43
0.0
 44
0.0
 45
0.0
 46
0.0
 47
0.0
 48
0.0
 49
0.0
140
0.0
141
0.0
142
1.0
143
1.0
 70
688
 72
0
 73
0
 74
5
  7

 75
16
147
1.0
148
0.0
149
0.0
100
AcDbLayout
  1
Layout1
 70
1
 71
1
 10
0.0
 20
0.0
 11
420.0
 21
297.0
 12
0.0
 22
0.0
 32
0.0
 14
100000000000000000000.0
 24
100000000000000000000.0
 34
100000000000000000000.0
 15
-100000000000000000000.0
 25
-100000000000000000000.0
 35
-100000000000000000000.0
146
0.0
 13
0.0
 23
0.0
 33
0.0
 16
1.0
 26
0.0
 36
0.0
 17
0.0
 27
1.0
 37
0.0
 76
0
330
1B
  0
LAYOUT
  5
22
100
AcDbPlotSettings
  1

  2
none_device
  4

  6

 40
0.0
 41
0.0
 42
0.0
 43
0.0
 44
0.0
 45
0.0
 46
0.0
 47
0.0
 48
0.0
 49
0.0
140
0.0
141
0.0
142
1.0
143
1.0
 70
1712
 72
0
 73
0
 74
0
  7

 75
0
147
1.0
148
0.0
149
0.0
100
AcDbLayout
  1
Model
 70
1
 71
0
 10
0.0
 20
0.0
 11
12.0
 21
9.0
 12
0.0
 22
0.0
 32
0.0
 14
0.0
 24
0.0
 34
0.0
 15
0.0
 25
0.0
 35
0.0
146
0.0
 13
0.0
 23
0.0
 33
0.0
 16
1.0
 26
0.0
 36
0.0
 17
0.0
 27
1.0
 37
0.0
 76
0
330
1F
  0
LAYOUT
  5
26
100
AcDbPlotSettings
  1

  2
none_device
  4

  6

 40
0.0
 41
0.0
 42
0.0
 43
0.0
 44
0.0
 45
0.0
 46
0.0
 47
0.0
 48
0.0
 49
0.0
140
0.0
141
0.0
142
1.0
143
1.0
 70
688
 72
0
 73
0
 74
5
  7

 75
16
147
1.0
148
0.0
149
0.0
100
AcDbLayout
  1
Layout2
 70
1
 71
2
 10
0.0
 20
0.0
 11
12.0
 21
9.0
 12
0.0
 22
0.0
 32
0.0
 14
0.0
 24
0.0
 34
0.0
 15
0.0
 25
0.0
 35
0.0
146
0.0
 13
0.0
 23
0.0
 33
0.0
 16
1.0
 26
0.0
 36
0.0
 17
0.0
 27
1.0
 37
0.0
 76
0
330
23
  0
DICTIONARY
  5
7C
100
AcDbDictionary
281
1
  3
DIMASSOC
350
7F
  3
HIDETEXT
350
7E
  0
DICTIONARYVAR
  5
7E
100
DictionaryVariables
280
0
  1
2
  0
DICTIONARYVAR
  5
7F
100
DictionaryVariables
280
0
  1
1
  0
DICTIONARY
  5
7D
100
AcDbDictionary
281
1
  3
ColorSettings/BackgroundColor
350
80
  3
ColorSettings/ColorMode
350
81
  3
Grid/DisplayGrid00
350
82
  3
Grid/DisplayGrid01
350
83
  3
Grid/DisplayGrid02
350
84
  3
Grid/DisplayGrid03
350
85
  3
Grid/GridSpacingX00
350
86
  3
Grid/GridSpacingX01
350
87
  3
Grid/GridSpacingX02
350
88
  3
Grid/GridSpacingX03
350
89
  3
Grid/GridSpacingY00
350
8A
  3
Grid/GridSpacingY01
350
8B
  3
Grid/GridSpacingY02
350
8C
  3
Grid/GridSpacingY03
350
8D
  3
Grid/IsometricGrid00
350
8E
  3
Grid/IsometricGrid01
350
8F
  3
Grid/IsometricGrid02
350
90
  3
Grid/IsometricGrid03
350
91
  3
Grid/IsometricProjection00
350
92
  3
Grid/IsometricProjection01
350
93
  3
Grid/IsometricProjection02
350
94
  3
Grid/IsometricProjection03
350
95
  3
Grid/MetaGridSpacingX00
350
96
  3
Grid/MetaGridSpacingX01
350
97
  3
Grid/MetaGridSpacingX02
350
98
  3
Grid/MetaGridSpacingX03
350
99
  3
Grid/MetaGridSpacingY00
350
9A
  3
Grid/MetaGridSpacingY01
350
9B
  3
Grid/MetaGridSpacingY02
350
9C
  3
Grid/MetaGridSpacingY03
350
9D
  3
MultiPageSettings/Columns
350
9E
  3
MultiPageSettings/GlueMarginsBottom
350
9F
  3
MultiPageSettings/GlueMarginsLeft
350
A0
  3
MultiPageSettings/GlueMarginsRight
350
A1
  3
MultiPageSettings/GlueMarginsTop
350
A2
  3
MultiPageSettings/PrintCropMarks
350
A3
  3
MultiPageSettings/Rows
350
A4
  3
PageSettings/OffsetX
350
A5
  3
PageSettings/OffsetY
350
A6
  3
PageSettings/PageOrientation
350
A7
  3
PageSettings/PaperHeight
350
A8
  3
PageSettings/PaperWidth
350
A9
  3
PageSettings/Scale
350
AA
  3
PageSettings/ShowPaperBorders
350
AB
  3
PageTagSettings/EnablePageTags
350
AC
  3
PageTagSettings/TagAlignment
350
AD
  3
PageTagSettings/TagFont
350
AE
  3
PageTagSettings/TagPosition
350
AF
  3
UnitSettings/PaperUnit
350
B0
  3
ViewportCenter
350
B1
  3
ViewportHeight
350
B2
  3
ViewportWidth
350
B3
  0
XRECORD
  5
80
330
7D
100
AcDbXrecord
280
1
1000
White
  0
XRECORD
  5
81
330
7D
100
AcDbXrecord
280
1
1000
FullColor
  0
XRECORD
  5
82
330
7D
100
AcDbXrecord
280
1
290
1
  0
XRECORD
  5
83
330
7D
100
AcDbXrecord
280
1
290
1
  0
XRECORD
  5
84
330
7D
100
AcDbXrecord
280
1
290
1
  0
XRECORD
  5
85
330
7D
100
AcDbXrecord
280
1
290
1
  0
XRECORD
  5
86
330
7D
100
AcDbXrecord
280
1
1000
auto
  0
XRECORD
  5
87
330
7D
100
AcDbXrecord
280
1
1000
auto
  0
XRECORD
  5
88
330
7D
100
AcDbXrecord
280
1
1000
auto
  0
XRECORD
  5
89
330
7D
100
AcDbXrecord
280
1
1000
auto
  0
XRECORD
  5
8A
330
7D
100
AcDbXrecord
280
1
1000
auto
  0
XRECORD
  5
8B
330
7D
100
AcDbXrecord
280
1
1000
auto
  0
XRECORD
  5
8C
330
7D
100
AcDbXrecord
280
1
1000
auto
  0
XRECORD
  5
8D
330
7D
100
AcDbXrecord
280
1
1000
auto
  0
XRECORD
  5
8E
330
7D
100
AcDbXrecord
280
1
290
0
  0
XRECORD
  5
8F
330
7D
100
AcDbXrecord
280
1
290
0
  0
XRECORD
  5
90
330
7D
100
AcDbXrecord
280
1
290
0
  0
XRECORD
  5
91
330
7D
100
AcDbXrecord
280
1
290
0
  0
XRECORD
  5
92
330
7D
100
AcDbXrecord
280
1
 90
65537
  0
XRECORD
  5
93
330
7D
100
AcDbXrecord
280
1
 90
65537
  0
XRECORD
  5
94
330
7D
100
AcDbXrecord
280
1
 90
65537
  0
XRECORD
  5
95
330
7D
100
AcDbXrecord
280
1
 90
65537
  0
XRECORD
  5
96
330
7D
100
AcDbXrecord
280
1
1000
auto
  0
XRECORD
  5
97
330
7D
100
AcDbXrecord
280
1
1000
auto
  0
XRECORD
  5
98
330
7D
100
AcDbXrecord
280
1
1000
auto
  0
XRECORD
  5
99
330
7D
100
AcDbXrecord
280
1
1000
auto
  0
XRECORD
  5
9A
330
7D
100
AcDbXrecord
280
1
1000
auto
  0
XRECORD
  5
9B
330
7D
100
AcDbXrecord
280
1
1000
auto
  0
XRECORD
  5
9C
330
7D
100
AcDbXrecord
280
1
1000
auto
  0
XRECORD
  5
9D
330
7D
100
AcDbXrecord
280
1
1000
auto
  0
XRECORD
  5
9E
330
7D
100
AcDbXrecord
280
1
 90
1
  0
XRECORD
  5
9F
330
7D
100
AcDbXrecord
280
1
 40
10.0
  0
XRECORD
  5
A0
330
7D
100
AcDbXrecord
280
1
 40
10.0
  0
XRECORD
  5
A1
330
7D
100
AcDbXrecord
280
1
 40
10.0
  0
XRECORD
  5
A2
330
7D
100
AcDbXrecord
280
1
 40
10.0
  0
XRECORD
  5
A3
330
7D
100
AcDbXrecord
280
1
290
0
  0
XRECORD
  5
A4
330
7D
100
AcDbXrecord
280
1
 90
1
  0
XRECORD
  5
A5
330
7D
100
AcDbXrecord
280
1
 40
0.0
  0
XRECORD
  5
A6
330
7D
100
AcDbXrecord
280
1
 40
0.0
  0
XRECORD
  5
A7
330
7D
100
AcDbXrecord
280
1
1000
Portrait
  0
XRECORD
  5
A8
330
7D
100
AcDbXrecord
280
1
 40
297.0
  0
XRECORD
  5
A9
330
7D
100
AcDbXrecord
280
1
 40
210.0
  0
XRECORD
  5
AA
330
7D
100
AcDbXrecord
280
1
1000
1:1
  0
XRECORD
  5
AB
330
7D
100
AcDbXrecord
280
1
290
1
  0
XRECORD
  5
AC
330
7D
100
AcDbXrecord
280
1
290
0
  0
XRECORD
  5
AD
330
7D
100
AcDbXrecord
280
1
1000
Inside
  0
XRECORD
  5
AE
330
7D
100
AcDbXrecord
280
1
1000
Arial,10,-1,5,50,0,0,0,0,0
  0
XRECORD
  5
AF
330
7D
100
AcDbXrecord
280
1
1000
TopLeft
  0
XRECORD
  5
B0
330
7D
100
AcDbXrecord
280
1
 90
4
  0
XRECORD
  5
B2
330
7D
100
AcDbXrecord
280
1
 40
0.0233685268193256
  0
XRECORD
  5
B3
330
7D
100
AcDbXrecord
280
1
 40
0.0495521301640451
  0
ENDSEC
  0
EOF
