999
dxflib 3.26.4.0
  0
SECTION
  2
HEADER
  9
$ACADVER
  1
AC1015
  9
$HANDSEED
  5
FFFF
  9
$ANGBASE
 50
0.0
  9
$ANGDIR
 70
0
  9
$ATTMODE
 70
1
  9
$AUNITS
 70
0
  9
$AUPREC
 70
0
  9
$CECOLOR
 62
256
  9
$CELTSCALE
 40
1.0
  9
$CHAMFERA
 40
0.0
  9
$CHAMFERB
 40
0.0
  9
$CHAMFERC
 40
0.0
  9
$CHAMFERD
 40
0.0
  9
$CMLJUST
 70
0
  9
$CMLSCALE
 40
20.0
  9
$DIMADEC
 70
2
  9
$DIMALT
 70
0
  9
$DIMALTD
 70
3
  9
$DIMALTF
 40
0.0393700787401575
  9
$DIMALTRND
 40
0.0
  9
$DIMALTTD
 70
3
  9
$DIMALTTZ
 70
0
  9
$DIMALTU
 70
2
  9
$DIMALTZ
 70
0
  9
$DIMAPOST
  1

  9
$DIMASZ
 40
2.5
  9
$DIMATFIT
 70
3
  9
$DIMAUNIT
 70
0
  9
$DIMAZIN
 70
0
  9
$DIMBLK
  1
0
  9
$DIMBLK1
  1
0
  9
$DIMBLK2
  1
0
  9
$DIMCEN
 40
2.5
  9
$DIMCLRD
 70
0
  9
$DIMCLRE
 70
0
  9
$DIMDEC
 70
2
  9
$DIMDLE
 40
0.0
  9
$DIMDLI
 40
3.75
  9
$DIMDSEP
 70
44
  9
$DIMEXE
 40
1.25
  9
$DIMEXO
 40
0.625
  9
$DIMFRAC
 70
2
  9
$DIMGAP
 40
0.7
  9
$DIMJUST
 70
0
  9
$DIMLDRBLK
  1

  9
$DIMLFAC
 40
1.0
  9
$DIMLIM
 70
0
  9
$DIMLUNIT
 70
2
  9
$DIMLWD
 70
15
  9
$DIMLWE
 70
15
  9
$DIMPOST
  1

  9
$DIMRND
 40
0.01
  9
$DIMSAH
 70
0
  9
$DIMSCALE
 40
1.0
  9
$DIMSD1
 70
0
  9
$DIMSD2
 70
0
  9
$DIMSE1
 70
0
  9
$DIMSE2
 70
0
  9
$DIMSOXD
 70
0
  9
$DIMTAD
 70
1
  9
$DIMTDEC
 70
2
  9
$DIMTFAC
 40
1.0
  9
$DIMTIH
 70
0
  9
$DIMTIX
 70
0
  9
$DIMTM
 40
0.0
  9
$DIMTOFL
 70
1
  9
$DIMTOH
 70
0
  9
$DIMTOL
 70
0
  9
$DIMTOLJ
 70
0
  9
$DIMTP
 40
0.0
  9
$DIMTSZ
 40
0.0
  9
$DIMTVP
 40
0.0
  9
$DIMTXSTY
  7
Standard
  9
$DIMTXT
 40
2.5
  9
$DIMTZIN
 70
8
  9
$DIMUPT
 70
0
  9
$DIMZIN
 70
8
  9
$DISPSILH
 70
0
  9
$DWGCODEPAGE
  3
ANSI_1252
  9
$ELEVATION
 40
0.0
  9
$EXTMAX
 10
-100000000000000000000.0
 20
-100000000000000000000.0
 30
-100000000000000000000.0
  9
$EXTMIN
 10
100000000000000000000.0
 20
100000000000000000000.0
 30
100000000000000000000.0
  9
$FILLETRAD
 40
0.0
  9
$FILLMODE
 70
1
  9
$INSBASE
 10
0.0
 20
0.0
 30
0.0
  9
$INSUNITS
 70
4
  9
$LIMCHECK
 70
0
  9
$LIMMAX
 10
420.0
 20
297.0
  9
$LIMMIN
 10
0.0
 20
0.0
  9
$LTSCALE
 40
1.0
  9
$LUNITS
 70
2
  9
$LUPREC
 70
4
  9
$MAXACTVP
 70
64
  9
$MEASUREMENT
 70
1
  9
$MIRRTEXT
 70
1
  9
$ORTHOMODE
 70
0
  9
$PDMODE
 70
0
  9
$PDSIZE
 40
0.0
  9
$PELEVATION
 40
0.0
  9
$PEXTMAX
 10
0.0
 20
0.0
 30
0.0
  9
$PEXTMIN
 10
0.0
 20
0.0
 30
0.0
  9
$PINSBASE
 10
0.0
 20
0.0
 30
0.0
  9
$PLIMCHECK
 70
0
  9
$PLIMMAX
 10
277.0
 20
202.5
  9
$PLIMMIN
 10
-20.0
 20
-7.5
  9
$PLINEGEN
 70
0
  9
$PLINEWID
 40
0.0
  9
$PROXYGRAPHICS
 70
1
  9
$PSLTSCALE
 70
1
  9
$PUCSNAME
  2

  9
$PUCSORG
 10
0.0
 20
0.0
 30
0.0
  9
$PUCSXDIR
 10
1.0
 20
0.0
 30
0.0
  9
$PUCSYDIR
 10
0.0
 20
1.0
 30
0.0
  9
$QTEXTMODE
 70
0
  9
$REGENMODE
 70
1
  9
$SHADEDGE
 70
3
  9
$SHADEDIF
 70
70
  9
$SKETCHINC
 40
1.0
  9
$SKPOLY
 70
0
  9
$SPLFRAME
 70
0
  9
$SPLINESEGS
 70
8
  9
$SPLINETYPE
 70
6
  9
$SURFTAB1
 70
6
  9
$SURFTAB2
 70
6
  9
$SURFTYPE
 70
6
  9
$SURFU
 70
6
  9
$SURFV
 70
6
  9
$TEXTSIZE
 40
2.5
  9
$TEXTSTYLE
  7
Standard
  9
$THICKNESS
 40
0.0
  9
$TILEMODE
 70
0
  9
$TRACEWID
 40
1.0
  9
$TREEDEPTH
 70
3020
  9
$UCSNAME
  2

  9
$UCSORG
 10
0.0
 20
0.0
 30
0.0
  9
$UCSXDIR
 10
1.0
 20
0.0
 30
0.0
  9
$UCSYDIR
 10
0.0
 20
1.0
 30
0.0
  9
$UNITMODE
 70
0
  9
$USERI1
 70
0
  9
$USERI2
 70
0
  9
$USERI3
 70
0
  9
$USERI4
 70
0
  9
$USERI5
 70
0
  9
$USERR1
 40
0.0
  9
$USERR2
 40
0.0
  9
$USERR3
 40
0.0
  9
$USERR4
 40
0.0
  9
$USERR5
 40
0.0
  9
$USRTIMER
 70
1
  9
$VISRETAIN
 70
1
  0
ENDSEC
  0
SECTION
  2
TABLES
  0
TABLE
  2
VPORT
  5
8
100
AcDbSymbolTable
 70
1
  0
VPORT
  5
30
100
AcDbSymbolTableRecord
100
AcDbViewportTableRecord
  2
*Active
 70
0
 10
0.0
 20
0.0
 11
1.0
 21
1.0
 12
286.3055555555554861
 22
148.5
 13
0.0
 23
0.0
 14
10.0
 24
10.0
 15
10.0
 25
10.0
 16
0.0
 26
0.0
 36
1.0
 17
0.0
 27
0.0
 37
0.0
 40
297.0
 41
1.92798353909465
 42
50.0
 43
0.0
 44
0.0
 50
0.0
 51
0.0
 71
0
 72
100
 73
1
 74
3
 75
1
 76
1
 77
0
 78
0
281
0
 65
1
110
0.0
120
0.0
130
0.0
111
1.0
121
0.0
131
0.0
112
0.0
122
1.0
132
0.0
 79
0
146
0.0
  0
ENDTAB
  0
TABLE
  2
LTYPE
  5
5
100
AcDbSymbolTable
 70
46
  0
LTYPE
  5
16
100
AcDbSymbolTableRecord
100
AcDbLinetypeTableRecord
  2
Continuous
 70
0
  3
Solid line
 72
65
 73
0
 40
0.0
  0
LTYPE
  5
31
100
AcDbSymbolTableRecord
100
AcDbLinetypeTableRecord
  2
ACAD_ISO08W100
 70
0
  3
ISO long-dash short-dash ____ __ ____ __ ____ _
 72
65
 73
4
 40
36.0
 49
24.0
 74
0
 49
-3.0
 74
0
 49
6.0
 74
0
 49
-3.0
 74
0
  0
LTYPE
  5
32
100
AcDbSymbolTableRecord
100
AcDbLinetypeTableRecord
  2
ACAD_ISO04W100
 70
0
  3
ISO long-dash dot ____ . ____ . ____ . ____ . _
 72
65
 73
4
 40
30.0
 49
24.0
 74
0
 49
-3.0
 74
0
 49
0.0
 74
0
 49
-3.0
 74
0
  0
LTYPE
  5
33
100
AcDbSymbolTableRecord
100
AcDbLinetypeTableRecord
  2
DASHDOTX2
 70
0
  3
Dash dot (2x) ____  .  ____  .  ____  .  ___
 72
65
 73
4
 40
50.7999999999999972
 49
25.3999999999999986
 74
0
 49
-12.6999999999999993
 74
0
 49
0.0
 74
0
 49
-12.6999999999999993
 74
0
  0
LTYPE
  5
34
100
AcDbSymbolTableRecord
100
AcDbLinetypeTableRecord
  2
ACAD_ISO12W100
 70
0
  3
ISO dash double-dot __ . . __ . . __ . . __ . . 
 72
65
 73
6
 40
21.0
 49
12.0
 74
0
 49
-3.0
 74
0
 49
0.0
 74
0
 49
-3.0
 74
0
 49
0.0
 74
0
 49
-3.0
 74
0
  0
LTYPE
  5
35
100
AcDbSymbolTableRecord
100
AcDbLinetypeTableRecord
  2
CENTERX2
 70
0
  3
Center (2x) ________  __  ________  __  _____
 72
65
 73
4
 40
101.6000000000000085
 49
63.5
 74
0
 49
-12.6999999999999993
 74
0
 49
12.6999999999999993
 74
0
 49
-12.6999999999999993
 74
0
  0
LTYPE
  5
36
100
AcDbSymbolTableRecord
100
AcDbLinetypeTableRecord
  2
DOT
 70
0
  3
Dot . . . . . . . . . . . . . . . . . . . . . . . .
 72
65
 73
2
 40
6.3499999999999996
 49
0.0
 74
0
 49
-6.3499999999999996
 74
0
  0
LTYPE
  5
37
100
AcDbSymbolTableRecord
100
AcDbLinetypeTableRecord
  2
BORDER
 70
0
  3
Border __ __ . __ __ . __ __ . __ __ . __ __ .
 72
65
 73
6
 40
44.4499999999999957
 49
12.6999999999999993
 74
0
 49
-6.3499999999999996
 74
0
 49
12.6999999999999993
 74
0
 49
-6.3499999999999996
 74
0
 49
0.0
 74
0
 49
-6.3499999999999996
 74
0
  0
LTYPE
  5
38
100
AcDbSymbolTableRecord
100
AcDbLinetypeTableRecord
  2
PHANTOMX2
 70
0
  3
Phantom (2x) ____________    ____    ____   _
 72
65
 73
6
 40
127.0000000000000142
 49
63.5
 74
0
 49
-12.6999999999999993
 74
0
 49
12.6999999999999993
 74
0
 49
-12.6999999999999993
 74
0
 49
12.6999999999999993
 74
0
 49
-12.6999999999999993
 74
0
  0
LTYPE
  5
14
100
AcDbSymbolTableRecord
100
AcDbLinetypeTableRecord
  2
ByBlock
 70
0
  3

 72
65
 73
0
 40
0.0
  0
LTYPE
  5
39
100
AcDbSymbolTableRecord
100
AcDbLinetypeTableRecord
  2
DASHDOT
 70
0
  3
Dash dot __ . __ . __ . __ . __ . __ . __ . __
 72
65
 73
4
 40
25.3999999999999986
 49
12.6999999999999993
 74
0
 49
-6.3499999999999996
 74
0
 49
0.0
 74
0
 49
-6.3499999999999996
 74
0
  0
LTYPE
  5
3A
100
AcDbSymbolTableRecord
100
AcDbLinetypeTableRecord
  2
ACAD_ISO11W100
 70
0
  3
ISO double-dash dot __ __ . __ __ . __ __ . __ _
 72
65
 73
6
 40
33.0
 49
12.0
 74
0
 49
-3.0
 74
0
 49
12.0
 74
0
 49
-3.0
 74
0
 49
0.0
 74
0
 49
-3.0
 74
0
  0
LTYPE
  5
3B
100
AcDbSymbolTableRecord
100
AcDbLinetypeTableRecord
  2
DOT2
 70
0
  3
Dot (.5x) ........................................
 72
65
 73
2
 40
3.1749999999999998
 49
0.0
 74
0
 49
-3.1749999999999998
 74
0
  0
LTYPE
  5
3C
100
AcDbSymbolTableRecord
100
AcDbLinetypeTableRecord
  2
ACAD_ISO15W100
 70
0
  3
ISO double-dash triple-dot __ __ . . . __ __ . .
 72
65
 73
10
 40
39.0
 49
12.0
 74
0
 49
-3.0
 74
0
 49
12.0
 74
0
 49
-3.0
 74
0
 49
0.0
 74
0
 49
-3.0
 74
0
 49
0.0
 74
0
 49
-3.0
 74
0
 49
0.0
 74
0
 49
-3.0
 74
0
  0
LTYPE
  5
3D
100
AcDbSymbolTableRecord
100
AcDbLinetypeTableRecord
  2
DASHDOT2
 70
0
  3
Dash dot (.5x) _._._._._._._._._._._._._._._.
 72
65
 73
4
 40
12.6999999999999993
 49
6.3499999999999996
 74
0
 49
-3.1749999999999998
 74
0
 49
0.0
 74
0
 49
-3.1749999999999998
 74
0
  0
LTYPE
  5
3E
100
AcDbSymbolTableRecord
100
AcDbLinetypeTableRecord
  2
ACAD_ISO10W100
 70
0
  3
ISO dash dot __ . __ . __ . __ . __ . __ . __ . 
 72
65
 73
4
 40
18.0
 49
12.0
 74
0
 49
-3.0
 74
0
 49
0.0
 74
0
 49
-3.0
 74
0
  0
LTYPE
  5
3F
100
AcDbSymbolTableRecord
100
AcDbLinetypeTableRecord
  2
ACAD_ISO03W100
 70
0
  3
ISO dash space __    __    __    __    __    __
 72
65
 73
2
 40
30.0
 49
12.0
 74
0
 49
-18.0
 74
0
  0
LTYPE
  5
40
100
AcDbSymbolTableRecord
100
AcDbLinetypeTableRecord
  2
HIDDENX2
 70
0
  3
Hidden (2x) ____ ____ ____ ____ ____ ____ ____ 
 72
65
 73
2
 40
19.0499999999999972
 49
12.6999999999999993
 74
0
 49
-6.3499999999999996
 74
0
  0
LTYPE
  5
41
100
AcDbSymbolTableRecord
100
AcDbLinetypeTableRecord
  2
BORDER2
 70
0
  3
Border (.5x) __.__.__.__.__.__.__.__.__.__.__.
 72
65
 73
6
 40
22.2249999999999979
 49
6.3499999999999996
 74
0
 49
-3.1749999999999998
 74
0
 49
6.3499999999999996
 74
0
 49
-3.1749999999999998
 74
0
 49
0.0
 74
0
 49
-3.1749999999999998
 74
0
  0
LTYPE
  5
42
100
AcDbSymbolTableRecord
100
AcDbLinetypeTableRecord
  2
HIDDEN2
 70
0
  3
Hidden (.5x) _ _ _ _ _ _ _ _ _ _ _ _ _ _ _ _ _ 
 72
65
 73
2
 40
4.7624999999999993
 49
3.1749999999999998
 74
0
 49
-1.5874999999999999
 74
0
  0
LTYPE
  5
43
100
AcDbSymbolTableRecord
100
AcDbLinetypeTableRecord
  2
ACAD_ISO13W100
 70
0
  3
ISO double-dash double-dot __ __ . . __ __ . . _
 72
65
 73
8
 40
36.0
 49
12.0
 74
0
 49
-3.0
 74
0
 49
12.0
 74
0
 49
-3.0
 74
0
 49
0.0
 74
0
 49
-3.0
 74
0
 49
0.0
 74
0
 49
-3.0
 74
0
  0
LTYPE
  5
44
100
AcDbSymbolTableRecord
100
AcDbLinetypeTableRecord
  2
ACAD_ISO02W100
 70
0
  3
ISO dash __ __ __ __ __ __ __ __ __ __ __ __ __
 72
65
 73
2
 40
15.0
 49
12.0
 74
0
 49
-3.0
 74
0
  0
LTYPE
  5
45
100
AcDbSymbolTableRecord
100
AcDbLinetypeTableRecord
  2
CENTER2
 70
0
  3
Center (.5x) ___ _ ___ _ ___ _ ___ _ ___ _ ___
 72
65
 73
4
 40
28.5750000000000028
 49
19.0500000000000007
 74
0
 49
-3.1749999999999998
 74
0
 49
3.1749999999999998
 74
0
 49
-3.1749999999999998
 74
0
  0
LTYPE
  5
46
100
AcDbSymbolTableRecord
100
AcDbLinetypeTableRecord
  2
SectionLineANSI
 70
0
  3

 72
65
 73
7
 40
11.9944444444445182
 49
4.23333333333336
 74
0
 49
-1.05833333333334
 74
0
 49
0.17638888888889
 74
0
 49
-1.05833333333334
 74
0
 49
0.17638888888889
 74
0
 49
-1.05833333333334
 74
0
 49
4.23333333333336
 74
0
  0
LTYPE
  5
47
100
AcDbSymbolTableRecord
100
AcDbLinetypeTableRecord
  2
DASHED
 70
0
  3
Dashed __ __ __ __ __ __ __ __ __ __ __ __ __ _
 72
65
 73
2
 40
19.0499999999999972
 49
12.6999999999999993
 74
0
 49
-6.3499999999999996
 74
0
  0
LTYPE
  5
48
100
AcDbSymbolTableRecord
100
AcDbLinetypeTableRecord
  2
PHANTOM2
 70
0
  3
Phantom (.5x) ___ _ _ ___ _ _ ___ _ _ ___ _ _
 72
65
 73
6
 40
31.7500000000000036
 49
15.875
 74
0
 49
-3.1749999999999998
 74
0
 49
3.1749999999999998
 74
0
 49
-3.1749999999999998
 74
0
 49
3.1749999999999998
 74
0
 49
-3.1749999999999998
 74
0
  0
LTYPE
  5
15
100
AcDbSymbolTableRecord
100
AcDbLinetypeTableRecord
  2
ByLayer
 70
0
  3

 72
65
 73
0
 40
0.0
  0
LTYPE
  5
49
100
AcDbSymbolTableRecord
100
AcDbLinetypeTableRecord
  2
HIDDEN
 70
0
  3
Hidden __ __ __ __ __ __ __ __ __ __ __ __ __ __
 72
65
 73
2
 40
9.5249999999999986
 49
6.3499999999999996
 74
0
 49
-3.1749999999999998
 74
0
  0
LTYPE
  5
4A
100
AcDbSymbolTableRecord
100
AcDbLinetypeTableRecord
  2
ACAD_ISO06W100
 70
0
  3
ISO long-dash triple-dot ____ ... ____ ... ____
 72
65
 73
8
 40
36.0
 49
24.0
 74
0
 49
-3.0
 74
0
 49
0.0
 74
0
 49
-3.0
 74
0
 49
0.0
 74
0
 49
-3.0
 74
0
 49
0.0
 74
0
 49
-3.0
 74
0
  0
LTYPE
  5
4B
100
AcDbSymbolTableRecord
100
AcDbLinetypeTableRecord
  2
BORDERX2
 70
0
  3
Border (2x) ____  ____  .  ____  ____  .  ___
 72
65
 73
6
 40
88.8999999999999915
 49
25.3999999999999986
 74
0
 49
-12.6999999999999993
 74
0
 49
25.3999999999999986
 74
0
 49
-12.6999999999999993
 74
0
 49
0.0
 74
0
 49
-12.6999999999999993
 74
0
  0
LTYPE
  5
4C
100
AcDbSymbolTableRecord
100
AcDbLinetypeTableRecord
  2
ACAD_ISO09W100
 70
0
  3
ISO long-dash double-short-dash ____ __ __ ____
 72
65
 73
6
 40
45.0
 49
24.0
 74
0
 49
-3.0
 74
0
 49
6.0
 74
0
 49
-3.0
 74
0
 49
6.0
 74
0
 49
-3.0
 74
0
  0
LTYPE
  5
4D
100
AcDbSymbolTableRecord
100
AcDbLinetypeTableRecord
  2
DOTX2
 70
0
  3
Dot (2x) .  .  .  .  .  .  .  .  .  .  .  .  .  .
 72
65
 73
2
 40
12.6999999999999993
 49
0.0
 74
0
 49
-12.6999999999999993
 74
0
  0
LTYPE
  5
4E
100
AcDbSymbolTableRecord
100
AcDbLinetypeTableRecord
  2
DraftedLine
 70
0
  3

 72
65
 73
2
 40
3.0
 49
2.0
 74
0
 49
-1.0
 74
0
  0
LTYPE
  5
4F
100
AcDbSymbolTableRecord
100
AcDbLinetypeTableRecord
  2
ACAD_ISO07W100
 70
0
  3
ISO dot . . . . . . . . . . . . . . . . . . . . 
 72
65
 73
2
 40
3.0
 49
0.0
 74
0
 49
-3.0
 74
0
  0
LTYPE
  5
50
100
AcDbSymbolTableRecord
100
AcDbLinetypeTableRecord
  2
ACAD_ISO05W100
 70
0
  3
ISO long-dash double-dot ____ .. ____ .. ____ . 
 72
65
 73
6
 40
33.0
 49
24.0
 74
0
 49
-3.0
 74
0
 49
0.0
 74
0
 49
-3.0
 74
0
 49
0.0
 74
0
 49
-3.0
 74
0
  0
LTYPE
  5
51
100
AcDbSymbolTableRecord
100
AcDbLinetypeTableRecord
  2
DASHEDX2
 70
0
  3
Dashed (2x) ____  ____  ____  ____  ____  ___
 72
65
 73
2
 40
38.0999999999999943
 49
25.3999999999999986
 74
0
 49
-12.6999999999999993
 74
0
  0
LTYPE
  5
52
100
AcDbSymbolTableRecord
100
AcDbLinetypeTableRecord
  2
DIVIDE
 70
0
  3
Divide ____ . . ____ . . ____ . . ____ . . ____
 72
65
 73
6
 40
31.75
 49
12.6999999999999993
 74
0
 49
-6.3499999999999996
 74
0
 49
0.0
 74
0
 49
-6.3499999999999996
 74
0
 49
0.0
 74
0
 49
-6.3499999999999996
 74
0
  0
LTYPE
  5
53
100
AcDbSymbolTableRecord
100
AcDbLinetypeTableRecord
  2
ACAD_ISO14W100
 70
0
  3
ISO dash triple-dot __ . . . __ . . . __ . . . _
 72
65
 73
8
 40
24.0
 49
12.0
 74
0
 49
-3.0
 74
0
 49
0.0
 74
0
 49
-3.0
 74
0
 49
0.0
 74
0
 49
-3.0
 74
0
 49
0.0
 74
0
 49
-3.0
 74
0
  0
LTYPE
  5
54
100
AcDbSymbolTableRecord
100
AcDbLinetypeTableRecord
  2
DIVIDEX2
 70
0
  3
Divide (2x) ________  .  .  ________  .  .  _
 72
65
 73
6
 40
63.5
 49
25.3999999999999986
 74
0
 49
-12.6999999999999993
 74
0
 49
0.0
 74
0
 49
-12.6999999999999993
 74
0
 49
0.0
 74
0
 49
-12.6999999999999993
 74
0
  0
LTYPE
  5
55
100
AcDbSymbolTableRecord
100
AcDbLinetypeTableRecord
  2
CENTER
 70
0
  3
Center ____ _ ____ _ ____ _ ____ _ ____ _ ____
 72
65
 73
4
 40
50.8000000000000043
 49
31.75
 74
0
 49
-6.3499999999999996
 74
0
 49
6.3499999999999996
 74
0
 49
-6.3499999999999996
 74
0
  0
LTYPE
  5
56
100
AcDbSymbolTableRecord
100
AcDbLinetypeTableRecord
  2
DIVIDE2
 70
0
  3
Divide (.5x) __..__..__..__..__..__..__..__.._
 72
65
 73
6
 40
15.875
 49
6.3499999999999996
 74
0
 49
-3.1749999999999998
 74
0
 49
0.0
 74
0
 49
-3.1749999999999998
 74
0
 49
0.0
 74
0
 49
-3.1749999999999998
 74
0
  0
LTYPE
  5
57
100
AcDbSymbolTableRecord
100
AcDbLinetypeTableRecord
  2
SectionLineISO
 70
0
  3

 72
65
 73
5
 40
13.7583333333334217
 49
4.23333333333336
 74
0
 49
-2.11666666666668
 74
0
 49
1.05833333333334
 74
0
 49
-2.11666666666668
 74
0
 49
4.23333333333336
 74
0
  0
LTYPE
  5
58
100
AcDbSymbolTableRecord
100
AcDbLinetypeTableRecord
  2
CenterLine
 70
0
  3

 72
65
 73
4
 40
8.0
 49
5.0
 74
0
 49
-1.0
 74
0
 49
1.0
 74
0
 49
-1.0
 74
0
  0
LTYPE
  5
59
100
AcDbSymbolTableRecord
100
AcDbLinetypeTableRecord
  2
DASHED2
 70
0
  3
Dashed (.5x) _ _ _ _ _ _ _ _ _ _ _ _ _ _ _ _ _ 
 72
65
 73
2
 40
9.5249999999999986
 49
6.3499999999999996
 74
0
 49
-3.1749999999999998
 74
0
  0
LTYPE
  5
5A
100
AcDbSymbolTableRecord
100
AcDbLinetypeTableRecord
  2
DetailCircleISO
 70
0
  3

 72
65
 73
5
 40
13.7583333333334217
 49
4.23333333333336
 74
0
 49
-2.11666666666668
 74
0
 49
1.05833333333334
 74
0
 49
-2.11666666666668
 74
0
 49
4.23333333333336
 74
0
  0
LTYPE
  5
5B
100
AcDbSymbolTableRecord
100
AcDbLinetypeTableRecord
  2
PHANTOM
 70
0
  3
Phantom ______  __  __  ______  __  __  ______ 
 72
65
 73
6
 40
63.5000000000000071
 49
31.75
 74
0
 49
-6.3499999999999996
 74
0
 49
6.3499999999999996
 74
0
 49
-6.3499999999999996
 74
0
 49
6.3499999999999996
 74
0
 49
-6.3499999999999996
 74
0
  0
ENDTAB
  0
TABLE
  2
LAYER
  5
2
100
AcDbSymbolTable
 70
4
  0
LAYER
  5
5C
100
AcDbSymbolTableRecord
100
AcDbLayerTableRecord
  2
Geometries
 70
0
 62
7
420
16777215
  6
Continuous
370
-3
390
F
  0
LAYER
  5
5D
100
AcDbSymbolTableRecord
100
AcDbLayerTableRecord
  2
Annotations
 70
0
 62
7
420
16777215
  6
Continuous
370
-3
390
F
  0
LAYER
  5
10
100
AcDbSymbolTableRecord
100
AcDbLayerTableRecord
  2
0
 70
0
 62
7
420
16777215
  6
Continuous
370
-3
390
F
  0
LAYER
  5
5E
100
AcDbSymbolTableRecord
100
AcDbLayerTableRecord
  2
Border
 70
0
 62
7
420
16777215
  6
Continuous
370
-3
390
F
  0
ENDTAB
  0
TABLE
  2
STYLE
  5
3
100
AcDbSymbolTable
 70
1
  0
STYLE
  5
5F
100
AcDbSymbolTableRecord
100
AcDbTextStyleTableRecord
  2
Standard
 70
0
 40
0.0
 41
1.0
 50
0.0
 71
0
 42
2.5
  3

  4

1001
ACAD
1000
txt
1071
0
  0
ENDTAB
  0
TABLE
  2
VIEW
  5
6
100
AcDbSymbolTable
 70
0
  0
ENDTAB
  0
TABLE
  2
UCS
  5
7
100
AcDbSymbolTable
 70
0
  0
ENDTAB
  0
TABLE
  2
APPID
  5
9
100
AcDbSymbolTable
 70
1
  0
APPID
  5
12
100
AcDbSymbolTableRecord
100
AcDbRegAppTableRecord
  2
ACAD
 70
0
  0
APPID
  5
60
100
AcDbSymbolTableRecord
100
AcDbRegAppTableRecord
  2
QCAD
 70
0
  0
ENDTAB
  0
TABLE
  2
DIMSTYLE
  5
A
100
AcDbSymbolTable
 70
1
100
AcDbDimStyleTable
 71
0
  0
DIMSTYLE
105
27
100
AcDbSymbolTableRecord
100
AcDbDimStyleTableRecord
  2
Standard
 41
2.5
 42
0.625
 43
3.75
 44
1.25
 70
0
 73
0
 74
0
 77
1
 78
8
140
2.5
141
2.5
143
0.03937007874016
147
0.7
171
3
172
1
271
2
272
2
274
3
278
44
283
0
284
8
340
5F
  0
ENDTAB
  0
TABLE
  2
BLOCK_RECORD
  5
1
100
AcDbSymbolTable
 70
1
  0
BLOCK_RECORD
  5
1F
100
AcDbSymbolTableRecord
100
AcDbBlockTableRecord
  2
*Model_Space
340
22
  0
BLOCK_RECORD
  5
1B
100
AcDbSymbolTableRecord
100
AcDbBlockTableRecord
  2
*Paper_Space
340
1E
  0
BLOCK_RECORD
  5
23
100
AcDbSymbolTableRecord
100
AcDbBlockTableRecord
  2
*Paper_Space0
340
26
  0
ENDTAB
  0
ENDSEC
  0
SECTION
  2
BLOCKS
  0
BLOCK
  5
20
100
AcDbEntity
  8
0
100
AcDbBlockBegin
  2
*Model_Space
 70
0
 10
0.0
 20
0.0
 30
0.0
  3
*Model_Space
  1

  0
ENDBLK
  5
21
100
AcDbEntity
  8
0
100
AcDbBlockEnd
  0
BLOCK
  5
1C
100
AcDbEntity
 67
1
  8
0
100
AcDbBlockBegin
  2
*Paper_Space
 70
0
 10
0.0
 20
0.0
 30
0.0
  3
*Paper_Space
  1

  0
ENDBLK
  5
1D
100
AcDbEntity
 67
1
  8
0
100
AcDbBlockEnd
  0
BLOCK
  5
24
100
AcDbEntity
  8
0
100
AcDbBlockBegin
  2
*Paper_Space0
 70
0
 10
0.0
 20
0.0
 30
0.0
  3
*Paper_Space0
  1

  0
ENDBLK
  5
25
100
AcDbEntity
  8
0
100
AcDbBlockEnd
  0
ENDSEC
  0
SECTION
  2
ENTITIES
  0
ARC
  5
61
100
AcDbEntity
  8
Geometries
 62
256
370
0
 48
1.0
  6
Continuous
100
AcDbCircle
 10
328.1460607602484743
 20
223.9402216308531877
 30
0.0
 40
1.6373429251681255
100
AcDbArc
 50
17.8182724223110185
 51
90.6050870007299665
  0
LWPOLYLINE
  5
62
100
AcDbEntity
  8
Geometries
 62
256
370
0
 48
1.0
  6
Continuous
100
AcDbPolyline
 90
414
 70
128
 10
577.0204918764840158
 20
213.8286633760062045
 10
576.8771841094455795
 20
213.6973123403047055
 10
576.7315146020641805
 20
213.5688620739350938
 10
576.5835690361437855
 20
213.4432358664446951
 10
576.4334330934848367
 20
213.3203570073810056
 10
576.2811924558905048
 20
213.2001487862914075
 10
576.1269328051632783
 20
213.0825344927231981
 10
575.9707398231048501
 20
212.9674374162239872
 10
575.8126991915171402
 20
212.8547808463409865
 10
575.6452444540243505
 20
212.7392936907000944
 10
575.4759544611438287
 20
212.6263126155373016
 10
575.3049277270574748
 20
212.5157494216412033
 10
575.1322627659453701
 20
212.4075159097999972
 10
574.9580580919894146
 20
212.3015238808021081
 10
574.7824122193704852
 20
212.1976851354357905
 10
574.5698734979587243
 20
212.0757967908998864
 10
574.3555715433976729
 20
211.9567297596910862
 10
574.1396765881922875
 20
211.8403316335715942
 10
573.9223588648467285
 20
211.7264500043035866
 10
573.7037886058659524
 20
211.6149324636492963
 10
573.4159555612218355
 20
211.4722182873244094
 10
573.1266427162257742
 20
211.332958837158003
 10
572.8360696243064467
 20
211.1969260540452069
 10
572.5044101711316671
 20
211.0461191168074038
 10
572.1712581037063501
 20
210.8991801622551066
 10
571.8366795794089512
 20
210.7559541957951978
 10
571.5007407556180397
 20
210.6162862228345887
 10
571.1635077897119572
 20
210.48002124878019
 10
570.8250468390687047
 20
210.3470042790391119
 10
570.5048612209715202
 20
210.2244239274562858
 10
570.1836982139054726
 20
210.104463284906501
 10
569.8616132697100056
 20
209.9869924379044051
 10
569.5386618402276326
 20
209.8718814729643896
 10
569.214899377299389
 20
209.7590004766009883
 10
568.8017493627869499
 20
209.6183634057225902
 10
568.3874535858629997
 20
209.4809670081783111
 10
567.972077263936626
 20
209.3466884075814107
 10
567.5556854543842746
 20
209.2154051999688136
 10
567.138343214583756
 20
209.0869949813775008
 10
566.7275913391556514
 20
208.9635558588217066
 10
566.3160470630166401
 20
208.8426540002369052
 10
565.9037720201936281
 20
208.7241734426162907
 10
565.4908278447123848
 20
208.6079982229535972
 10
564.9984406480923553
 20
208.4725394172936888
 10
564.5052937627096981
 20
208.3399913001921959
 10
564.0114500086604039
 20
208.210211157789189
 10
563.5169436289882015
 20
208.0830930229629985
 10
563.0218081886621349
 20
207.958531800516198
 10
562.5260772526536357
 20
207.8364223952515886
 10
561.8943386738769732
 20
207.684390626388705
 10
561.2617590580280194
 20
207.5359434941736936
 10
560.6284076029126027
 20
207.3908643335269062
 10
559.9943510707414589
 20
207.2489435929591082
 10
559.3596324557167918
 20
207.1100411397715106
 10
558.7242813323127848
 20
206.9740560360326072
 10
557.9747026579173053
 20
206.8173964785179066
 10
557.2243344469782187
 20
206.6644850990797124
 10
556.4732248670302397
 20
206.5151573794020123
 10
555.7214220856096745
 20
206.3692488011689079
 10
554.9536118138522625
 20
206.223716275396697
 10
554.1851810887501415
 20
206.0813977722152117
 10
553.4161810874679759
 20
205.9421184937978921
 10
552.6466629871648593
 20
205.8057036423182069
 10
551.8766779650045464
 20
205.6719784199495962
 10
551.1062752331374668
 20
205.5407735792722121
 10
550.3354829441153697
 20
205.4119793581961915
 10
549.3539353895231443
 20
205.2514297403942862
 10
548.3718130200516043
 20
205.0945148412471042
 10
547.3891471464619372
 20
204.9410838729268107
 10
546.4059690795135111
 20
204.7909860476059123
 10
545.4223101299663767
 20
204.6440705774568016
 10
544.4382016085786518
 20
204.5001866746518999
 10
543.4536748261126604
 20
204.3591835513635999
 10
542.3702494966007635
 20
204.2072280340991028
 10
541.2863901965491777
 20
204.0584046822222888
 10
540.2021211019869043
 20
203.9125823983521002
 10
539.1174656040295758
 20
203.7696332071203926
 10
538.0324470937932801
 20
203.6294291331591921
 10
536.6480051653978762
 20
203.4543783943040864
 10
535.2630592387406523
 20
203.2833199828885995
 10
533.8776578541554727
 20
203.1159883294110102
 10
532.4918451355648585
 20
202.9521396307821988
 10
531.1056468498804861
 20
202.791620556960595
 10
529.7190839952107808
 20
202.6343012810897903
 10
528.332177569654732
 20
202.4800519763610112
 10
526.7872894377765078
 20
202.31172884254309
 10
525.2420302564723897
 20
202.1468727285138982
 10
523.6964276618087979
 20
201.9853120466212033
 10
522.1504992972163564
 20
201.8269317219383936
 10
520.6042583638095493
 20
201.6716418027984901
 10
519.0577180425161714
 20
201.5193524516942887
 10
517.5108915142625392
 20
201.3699738311186138
 10
515.9637919599786073
 20
201.2234161035640909
 10
514.018499747074884
 20
201.0430359328109091
 10
512.0728230607003297
 20
200.8667934554316048
 10
510.1267880887068031
 20
200.6945101823714026
 10
508.1804210189457081
 20
200.5260076245756125
 10
506.2337478524207768
 20
200.3611084282628951
 10
504.2867882794853926
 20
200.1996735825605072
 10
502.3395543050714878
 20
200.0416107724886103
 10
500.3920574689560112
 20
199.8868305093056108
 10
498.4443093109160827
 20
199.7352433042701989
 10
496.4963213707279124
 20
199.5867596686408945
 10
494.5828966974850118
 20
199.4438618719152885
 10
492.6692627931494144
 20
199.3037866914388019
 10
490.7554305902721126
 20
199.1664493474114863
 10
488.841411017916414
 20
199.0317650816614901
 10
486.3608314718414931
 20
198.8610551695047093
 10
483.8799679663665074
 20
198.6945448355639883
 10
481.3988341155294961
 20
198.532112786741493
 10
478.9174435333675888
 20
198.3736377299393041
 10
476.4358098339179719
 20
198.2189983720591897
 10
473.9982675506464034
 20
198.0707366390743971
 10
471.5605167851455235
 20
197.9259429284078067
 10
469.1225698677071136
 20
197.7845070426604082
 10
466.6844357348911103
 20
197.646346976554014
 10
464.19635874797018
 20
197.508669822904892
 10
461.7081029811192252
 20
197.3742530177023866
 10
459.2196765922906252
 20
197.2430205382893007
 10
456.7310877394359068
 20
197.1148963620084942
 10
454.2423445805072788
 20
196.9898044662027985
 10
451.7534551711211748
 20
196.8676695806159955
 10
449.2644261714108893
 20
196.7484266951211964
 10
446.3603901163160117
 20
196.6128883385466963
 10
443.4561806938513087
 20
196.4811167311470115
 10
440.551806842497399
 20
196.3530206792025012
 10
437.647277500735072
 20
196.2285089889936103
 10
434.7426016007303247
 20
196.1074905298243891
 10
431.8377869634289254
 20
195.9898852596720928
 10
429.0988395595750831
 20
195.8820758252182088
 10
426.3597779692183281
 20
195.777205907542907
 10
423.6206064998671081
 20
195.6752308479711928
 10
420.8813294590311784
 20
195.5761059878286119
 10
418.1419511542189866
 20
195.4797866684403118
 10
414.9723018297897283
 20
195.3717851206577905
 10
411.802529381093791
 20
195.2674104107526034
 10
408.632640480101486
 20
195.1665933661682004
 10
405.4626417987860805
 20
195.0692648143480028
 10
402.2925400091187953
 20
194.9753555827356877
 10
399.1223417823781006
 20
194.8847965066215124
 10
395.9520531071548817
 20
194.7975261375721061
 10
392.464635890170598
 20
194.7052804521474911
 10
388.9771189996284875
 20
194.6169195384300963
 10
385.4895073309472195
 20
194.5323963691704137
 10
382.0018057795459754
 20
194.4516639171191059
 10
378.5140192408434245
 20
194.3746751550268925
 10
375.0261526102581797
 20
194.301383055644493
 10
371.5382107832106158
 20
194.2317405917225983
 10
368.0501986551183222
 20
194.1657007360117007
 10
364.5621211214008781
 20
194.1032164612624911
 10
361.0739829930058136
 20
194.0442421745804893
 10
357.6480779242916128
 20
193.9897069130242073
 10
354.2221215872735911
 20
193.9385044759343941
 10
350.7961173129431813
 20
193.8906125009795005
 10
347.3700684322914753
 20
193.8460086258282047
 10
343.8816853667074724
 20
193.8039489747116022
 10
340.3932630272328197
 20
193.7652512903327136
 10
336.904804929871716
 20
193.7298919682847895
 10
333.4163145906293835
 20
193.6978474041607967
 10
329.9277955255109873
 20
193.6690939935539859
 10
326.5015468812433141
 20
193.6440348288828943
 10
323.0752770437619006
 20
193.6221117069725892
 10
319.6489888356514939
 20
193.6033182872857026
 10
316.2226850537437031
 20
193.5876490408105042
 10
312.1437355522710959
 20
193.5730609776877884
 10
308.0647726616231807
 20
193.5628834333346049
 10
303.9858011005679828
 20
193.5571070792977082
 10
299.9068255878729019
 20
193.555722587123995
 10
295.8278508423064181
 20
193.5587206283603052
 10
291.7488815826345103
 20
193.5660918745533934
 10
288.1449321230463738
 20
193.5762389607349121
 10
284.5409939729044027
 20
193.5898028882594986
 10
280.9370704753433188
 20
193.6067938212678996
 10
277.3331649734997768
 20
193.6272219239006915
 10
273.7292808105090103
 20
193.6510973602985075
 10
270.1254213295060822
 20
193.6784302946020091
 10
266.5215898736282156
 20
193.709230890951801
 10
262.5574116312128012
 20
193.7471288275019106
 10
258.5932757941048976
 20
193.7892484622092866
 10
254.6291868167928953
 20
193.8356034346284105
 10
250.6651495097177929
 20
193.8862156665107079
 10
246.7011692792239899
 20
193.9411209449204136
 10
243.3978999620331933
 20
193.9901815261407023
 10
240.0946772367462074
 20
194.0422706343840957
 10
236.7915042649038071
 20
194.0974097445198083
 10
233.4883842080456873
 20
194.1556203314171114
 10
230.1853202277125945
 20
194.216923869945191
 10
226.8823154854451047
 20
194.2813418349734036
 10
223.7681109690952042
 20
194.344950628438994
 10
220.6539645746634051
 20
194.4113651740462103
 10
217.5398790361186911
 20
194.4806045310940021
 10
214.4258577784569866
 20
194.5526964718885949
 10
211.3119045660824895
 20
194.6276730482792914
 10
208.0093054720454973
 20
194.7103815976979035
 10
204.7067916522809128
 20
194.796409394192608
 10
201.4043676007538863
 20
194.885794712909501
 10
198.1020378114322114
 20
194.9785758289947069
 10
194.7998067782801002
 20
195.0747910175944071
 10
191.4976789952648915
 20
195.1744785538548115
 10
188.3843428348216946
 20
195.2716844356305899
 10
185.2711062234428994
 20
195.3720432709272927
 10
182.1579732085643002
 20
195.4755931823929984
 10
179.0449520193184014
 20
195.582462296477587
 10
175.9320540946764879
 20
195.6928478259088138
 10
173.338074963109193
 20
195.7876654708169895
 10
170.7441960999136086
 20
195.8851783998335918
 10
168.1504241723386031
 20
195.985501762507198
 10
165.5567658529284074
 20
196.0887507238558953
 10
162.9632288875496897
 20
196.1950435863788869
 10
160.3698233933567963
 20
196.3045055841739099
 10
157.9247422907261011
 20
196.4107286324463075
 10
155.4797960851803111
 20
196.5199868783672059
 10
153.0349935226340108
 20
196.6323860680431039
 10
150.5903433490007899
 20
196.7480319475806141
 10
148.1458543101958867
 20
196.8670302630860931
 10
146.0461661957301942
 20
196.9720132037616906
 10
143.9466126745680867
 20
197.0796497207275877
 10
141.8472029872891937
 20
197.1900416440842889
 10
139.7479463744749921
 20
197.303290803932299
 10
137.648852076706703
 20
197.41949903037181
 10
135.5499293345640979
 20
197.5387681535034119
 10
133.5711104681851111
 20
197.6541169211959073
 10
131.5924600712214954
 20
197.7723626404921049
 10
129.6139859245051014
 20
197.8935908317228041
 10
127.6356984597777
 20
198.0178995634074965
 10
125.6576125466983029
 20
198.1454079111207136
 10
123.6797434779055038
 20
198.2762369526296879
 10
121.7021065460381948
 20
198.4105077657013965
 10
119.7247170437349979
 20
198.548341428103214
 10
117.7475902636349048
 20
198.6898590176018899
 10
115.7707414983761964
 20
198.8351816119649129
 10
113.8294790131161989
 20
198.9817300041621024
 10
111.8885139593085967
 20
199.1321803102659089
 10
109.947864028608393
 20
199.2866634513684971
 10
108.0075537539674997
 20
199.4453449733582033
 10
106.361515171474494
 20
199.5834028376976903
 10
104.715754942807493
 20
199.7247094970508954
 10
103.0702885948442002
 20
199.869368812688208
 10
101.4251316544644936
 20
200.0174846458797902
 10
99.7802996485463609
 20
200.1691608578962018
 10
98.1358081039689125
 20
200.3245013100076903
 10
96.5856132900617297
 20
200.4744146261357969
 10
95.0357479567478265
 20
200.6277647619959907
 10
93.4862257847612739
 20
200.7846413375467876
 10
91.9370703832073843
 20
200.9451721937957984
 10
90.3883129821381033
 20
201.1095145099558863
 10
89.0980085141874554
 20
201.2494919099636945
 10
87.8080204439215208
 20
201.392317224187309
 10
86.5183669570032805
 20
201.5380818467426991
 10
85.2290662390955163
 20
201.6868771717460049
 10
83.9401364758622606
 20
201.8387945933131107
 10
82.6515958529656416
 20
201.9939255055600995
 10
81.437058882903159
 20
202.1432172044690958
 10
80.2228992602153994
 20
202.2955234833044074
 10
79.0091322277752397
 20
202.450920946855689
 10
77.7957730284559545
 20
202.6094861999123111
 10
76.582836905129767
 20
202.7712958472637013
 10
75.3329995546123428
 20
202.9415762931836014
 10
74.0836626417180355
 20
203.1155268831068952
 10
72.8348608654243037
 20
203.2932890112282962
 10
71.5866289247082079
 20
203.4750040717422053
 10
70.3390015185476329
 20
203.6608134588431938
 10
69.3591695454276191
 20
203.8097709513332916
 10
68.3797490321991006
 20
203.9614119375104053
 10
67.4007568560315065
 20
204.115805133393394
 10
66.4222133343974406
 20
204.2730290661525032
 10
65.4441445442141685
 20
204.4331786879097876
 10
64.4665771113354822
 20
204.5963505162569902
 10
63.4895376616153229
 20
204.7626410687863938
 10
62.5130528209067791
 20
204.9321468630899119
 10
61.5371492150635504
 20
205.104964416759401
 10
60.5618534699390025
 20
205.2811902473870873
 10
59.6045911585545127
 20
205.4576801038944041
 10
58.6479661434768502
 20
205.6376422347242112
 10
57.6920113727645685
 20
205.8211851293825134
 10
56.7367762869175181
 20
206.0084536878540007
 10
55.9268765739502101
 20
206.1703813112949888
 10
55.1175636166258585
 20
206.3351902408035983
 10
54.3088689197230678
 20
206.5029718673771981
 10
53.5008239880205565
 20
206.6738175820134984
 10
52.6934603262962824
 20
206.8478187757102091
 10
51.8868094393289709
 20
207.025066839464813
 10
51.126934038421922
 20
207.1952424226359994
 10
50.3677466935310179
 20
207.3684622539335862
 10
49.6092746637957021
 20
207.5448047825653077
 10
48.8515579083918681
 20
207.724375975633194
 10
48.0946461349513825
 20
207.9073029227787117
 10
47.3385893002555633
 20
208.0937132534886871
 10
46.5834373610851529
 20
208.2837345972500032
 10
45.8292402742225988
 20
208.4774945835494862
 10
45.0760479964480112
 20
208.6751208418741896
 10
44.3239104845431768
 20
208.8767410017107125
 10
43.7337177900744791
 20
209.0380418263193008
 10
43.144231324704549
 20
209.2019489732161901
 10
42.5554753203844882
 20
209.368524350144412
 10
41.9674740090667271
 20
209.5378298648469979
 10
41.3802516227028079
 20
209.7099274250670931
 10
40.7757905971919286
 20
209.8903271887961068
 10
40.1722646859587869
 20
210.0739057522523012
 10
39.5697556035349933
 20
210.2608094280207069
 10
38.9683450644517393
 20
210.4511845286860137
 10
38.3681147832399532
 20
210.64517736683311
 10
37.7798307972403222
 20
210.8393690268694911
 10
37.1928415302875166
 20
211.0373301204290897
 10
36.6072243970544875
 20
211.2391992610567115
 10
36.0230568122134969
 20
211.4451150622971909
 10
35.5568184418432907
 20
211.6128544472331896
 10
35.0915969641462766
 20
211.7833433777653056
 10
34.6274320154358293
 20
211.9566528240283958
 10
34.1643632320231632
 20
212.1328537561576013
 10
33.7024302502217665
 20
212.3120171442878075
 10
33.2498899824074101
 20
212.4909334323041037
 10
32.7985211863337369
 20
212.6728431126705061
 10
32.3483773236359298
 20
212.8578314271063903
 10
31.89954583266314
 20
213.0460220678874919
 10
31.5198166641361617
 20
213.2083060653818052
 10
31.1411545209580787
 20
213.3730667332231121
 10
30.7636155014128008
 20
213.5403826690765072
 10
30.3872557037827313
 20
213.7103324706068861
 10
30.0121312263510198
 20
213.8829947354795138
 10
29.6382981674008192
 20
214.0584480613592007
 10
29.2870602341940902
 20
214.2265024847687869
 10
28.9370672363921813
 20
214.3971738552239117
 10
28.5883679906220287
 20
214.570529243964387
 10
28.2410380729693884
 20
214.746653483990201
 10
27.8951735998908816
 20
214.9256450421019053
 10
27.5508712128102502
 20
215.1076027335498111
 10
27.2082275531508309
 20
215.2926253735840021
 10
26.8673392623352889
 20
215.4808117774549885
 10
26.5283029817870784
 20
215.6722607604129962
 10
26.1912153529290812
 20
215.8670711377083933
 10
25.8621374206610994
 20
216.0617702628352959
 10
25.5351239436261004
 20
216.2599007375623898
 10
25.2102664779290002
 20
216.4615561774332946
 10
24.8876565796733793
 20
216.666830197991203
 10
24.6233839710141105
 20
216.8389014015839109
 10
24.36081121611954
 20
217.0135775992353047
 10
24.1000474798695983
 20
217.1909393568724909
 10
23.8412019271430005
 20
217.3710672404226898
 10
23.5843837228202311
 20
217.554041815813207
 10
23.3342305512624613
 20
217.7365978370771131
 10
23.0862416907986017
 20
217.9220538311336099
 10
22.840520561998801
 20
218.1104861244911888
 10
22.5971705854330516
 20
218.3019710436585967
 10
22.3562951816720101
 20
218.4965849151444957
 10
22.1179977712852711
 20
218.6944040654574053
 10
21.8823817748432212
 20
218.8955048211059022
 10
21.6495506129170394
 20
219.0999635085985915
 10
21.4686328598547789
 20
219.2630150328947138
 10
21.2895484621344586
 20
219.4282236928563066
 10
21.11237189479073
 20
219.5956236238446877
 10
20.9372295450289094
 20
219.7652427953059942
 10
20.7611304101113809
 20
219.9402541696657067
 10
20.587418629635291
 20
220.1176230664212028
 10
20.4162347044953698
 20
220.2973781659655117
 10
20.2477191355843011
 20
220.4795481486916913
 10
20.0820124237968116
 20
220.6641616949929983
 10
19.9221347739846202
 20
220.8478848219725137
 10
19.7652351961270405
 20
221.0340198580522895
 10
19.6114467978909488
 20
221.2225939744494099
 10
19.4609026869451895
 20
221.4136343423803908
 10
19.3428927333898208
 20
221.5682605968871997
 10
19.2271124637330786
 20
221.724496553617314
 10
19.113630029101671
 20
221.8823561242338087
 10
19.0025135806210983
 20
222.0418532203995881
 10
18.8938312694173192
 20
222.2030017537776985
 10
18.7895249806925904
 20
222.3628935610086046
 10
18.6876969758317806
 20
222.5244049510359901
 10
18.5884118198147199
 20
222.6875491034844003
 10
18.491734077622251
 20
222.8523391979780115
 10
18.3948722222530705
 20
223.0239298007803939
 10
18.3008994381354988
 20
223.1972234577607992
 10
18.2098656675548796
 20
223.3721603122604904
 10
18.1218208527971001
 20
223.5486805076203893
 10
18.0368149361473797
 20
223.7267241871817021
 10
17.9548978598913287
 20
223.9062314942854073
 10
17.8761195663150296
 20
224.087142572272711
 10
17.8005299977032792
 20
224.269397564484791
 10
17.724815448665769
 20
224.4617075786129021
 10
17.6527127773295511
 20
224.6553580319371122
 10
17.5842794057285801
 20
224.8502801031955869
 10
17.5195727558965508
 20
225.046404971126691
 10
17.4586502498674498
 20
225.243663814468988
 10
17.4015693096756117
 20
225.4419878119605016
 10
17.3483873573547385
 20
225.6413081423399092
 10
17.2991618149391684
 20
225.8415559843454048
 10
17.2539501044621488
 20
226.04266251671541
 10
17.2128096479584087
 20
226.2445589181882895
 10
17.1757978674615401
 20
226.4471763675024079
 10
17.1429721850055898
 20
226.6504460433957888
 10
17.1159079720233116
 20
226.8426358615446929
 10
17.0926642918294114
 20
227.0352866304577901
 10
17.073280902791339
 20
227.2283409269774097
 10
17.0577287156592092
 20
227.4217434784866896
 10
17.0459448254884514
 20
227.6154400686436929
 10
17.0374941613388806
 20
227.8211367221560124
 10
17.03313604560282
 20
228.0270384818402079
 10
17.0327951494643912
 20
228.2330806730718109
 10
17.0363961441082097
 20
228.439198621226609
 10
17.0438637007185889
 20
228.6453276516799917
 10
17.05512249048002
 20
228.8514030898076896
 10
17.0691427000493299
 20
229.045595594059705
 10
17.0864031335744393
 20
229.239628752381094
 10
17.1068406518908205
 20
229.4334483557460942
 10
17.1303921158352104
 20
229.6270001951291135
 10
17.1569943862436993
 20
229.8202300615043043
 10
17.1902095028237909
 20
230.0354417057602063
 10
17.227058328103741
 20
230.250109410709797
 10
17.2674530862828384
 20
230.4641578151934027
 10
17.3113060015621194
 20
230.6775115580514068
 10
17.3585292981405814
 20
230.8900952781241926
 10
17.4090352002187387
 20
231.1018336142520013
 10
17.4627359319960611
 20
231.3126512052753014
 10
17.5195437176729492
 20
231.522472690034391
  0
LINE
  5
63
100
AcDbEntity
  8
Geometries
 62
256
370
0
 48
1.0
  6
Continuous
100
AcDbLine
 10
334.6796949718325891
 20
225.5799120463418888
 30
0.0
 11
328.1287437388227204
 21
225.5799120450867008
 31
0.0
  0
LWPOLYLINE
  5
64
100
AcDbEntity
  8
Geometries
 62
256
370
0
 48
1.0
  6
Continuous
100
AcDbPolyline
 90
30
 70
128
 10
324.8319999999999936
 20
225.5800000000000125
 10
324.7642596566478232
 20
225.5783911589392119
 10
324.6954137929707258
 20
225.5734474238079201
 10
324.6257013911672971
 20
225.5650050342928239
 10
324.5553863988569105
 20
225.5529194054200275
 10
324.4847559681949178
 20
225.5370689820187238
 10
324.4153775817815131
 20
225.5177451946590281
 10
324.3463000591507921
 20
225.4946368668438197
 10
324.2778444089154277
 20
225.4677134370809028
 10
324.2103403649754227
 20
225.4369775604096162
 10
324.1427861550752141
 20
225.4017236602281287
 10
324.07692434244683
 20
225.3626178562417124
 10
324.0131022913273
 20
225.3197778154751063
 10
323.9516550611256775
 20
225.273359689663522
 10
323.8928997403568815
 20
225.2235564687854037
 10
323.8371300885476103
 20
225.1705954096106268
 10
323.7846116728936749
 20
225.1147346072701225
 10
323.7355776674186814
 20
225.0562588173558254
 10
323.690225453463313
 20
224.9954746698478232
 10
323.6487141236755178
 20
224.9327054418249077
 10
323.611162949793993
 20
224.8682855717095208
 10
323.5776508306291817
 20
224.8025551028944164
 10
323.5482166937388797
 20
224.7358542390898037
 10
323.52286078533308
 20
224.6685181785784096
 10
323.5031700442435181
 20
224.6065136446031261
 10
323.4868228876890157
 20
224.5444894886202292
 10
323.4737444216083873
 20
224.4826740040852258
 10
323.4638402929721224
 20
224.4212813432776272
 10
323.4569991879445752
 20
224.3605099865072248
 10
323.453095408107913
 20
224.3005416181817111
  0
LWPOLYLINE
  5
65
100
AcDbEntity
  8
Geometries
 62
256
370
0
 48
1.0
  6
Continuous
100
AcDbPolyline
 90
42
 70
128
 10
17.5195437176729492
 20
231.522472690034391
 10
17.5900766877221599
 20
231.76773768385209
 10
17.6645355195879006
 20
232.0116796294553865
 10
17.7428317326726415
 20
232.254299633469401
 10
17.8248768463795386
 20
232.4955988025187139
 10
17.9105823801099895
 20
232.7355782432281046
 10
17.9982348025106909
 20
232.9699888186403882
 10
18.0892489093786786
 20
233.2031284938850888
 10
18.1835408760082409
 20
233.4349983173557916
 10
18.2810268776938187
 20
233.6655993374463094
 10
18.3837078703703583
 20
233.8995996803373885
 10
18.4895382538599087
 20
234.1322811090288951
 10
18.5984289658837803
 20
234.3636447374209126
 10
18.7102909441616099
 20
234.5936916794132117
 10
18.8250351264138693
 20
234.8224230489055913
 10
18.9425724503604407
 20
235.0498399597981916
 10
19.0628138537221012
 20
235.2759435259906127
 10
19.2063943284761116
 20
235.5380725841675087
 10
19.3533927045064011
 20
235.7984173192535877
 10
19.5036675542112903
 20
236.0569795000808142
 10
19.6570774499888898
 20
236.3137608954808115
 10
19.8134809642371614
 20
236.5687632742852884
 10
19.9727366693545001
 20
236.8219884053262092
 10
20.1639001664568092
 20
237.1181530832710109
 10
20.3585977071440993
 20
237.41185452171149
 10
20.5566405746795304
 20
237.7031063169127947
 10
20.7579314706063087
 20
237.9919449153537983
 10
20.9661310081283396
 20
238.283596445765312
 10
21.1775189477529615
 20
238.5728286728956107
 10
21.3920050789579896
 20
238.8596831900333086
 10
21.6094991912225396
 20
239.1442015904667073
 10
21.8299110740249489
 20
239.4264254674845063
 10
22.0491398256427793
 20
239.7014164484367029
 10
22.2710105910359708
 20
239.9742736472724118
 10
22.4954379066060106
 20
240.2450364686208104
 10
22.7223363087522898
 20
240.5137443171111897
 10
22.9955568852564092
 20
240.8310098665614873
 10
23.2720142539899406
 20
241.1454853678883978
 10
23.5515642222350188
 20
241.4572373039050888
 10
23.83406259727548
 20
241.7663321574245003
 10
24.1193651863960099
 20
242.0728364112599138
 10
24.4073277968798799
 20
242.3768165482242978
  0
LINE
  5
66
100
AcDbEntity
  8
Geometries
 62
256
370
0
 48
1.0
  6
Continuous
100
AcDbLine
 10
302.0156208186381832
 20
242.3768165482242978
 30
0.0
 11
179.7203207293576099
 21
242.3768165482244115
 31
0.0
  0
LINE
  5
67
100
AcDbEntity
  8
Geometries
 62
256
370
0
 48
1.0
  6
Continuous
100
AcDbLine
 10
319.2179707739978767
 20
237.7800577250509093
 30
0.0
 11
334.695670346648626
 21
237.7800577280164021
 31
0.0
  0
LWPOLYLINE
  5
68
100
AcDbEntity
  8
Geometries
 62
256
370
0
 48
1.0
  6
Continuous
100
AcDbPolyline
 90
67
 70
128
 10
576.3972707718223774
 20
222.0327967188366927
 10
576.5268106103039827
 20
221.8993365914874119
 10
576.6546416035262155
 20
221.7642333359073064
 10
576.7806218459904812
 20
221.6274203579108075
 10
576.9046094321961391
 20
221.4888310633120057
 10
577.0264624566450493
 20
221.3483988579255026
 10
577.1439245030012444
 20
221.2086160943636912
 10
577.2590562202268529
 20
221.0669283235694991
 10
577.3717231699583863
 20
220.9232724555756988
 10
577.481790913834061
 20
220.7775854004154894
 10
577.5777597433311712
 20
220.6457398590131902
 10
577.6714536378228786
 20
220.5121798665099107
 10
577.7627769067382815
 20
220.376860516713208
 10
577.8516338595065918
 20
220.2397369034308952
 10
577.9379214985888211
 20
220.1007690373897105
 10
578.021457965523382
 20
219.9599699954833909
 10
578.1020132706519234
 20
219.8173852424864094
 10
578.1793567369736593
 20
219.6730607056906024
 10
578.245739174879418
 20
219.5423057930719892
 10
578.3091919747133716
 20
219.410224061911606
 10
578.3695492051709834
 20
219.276848548772989
 10
578.4266449349511277
 20
219.1422122902197032
 10
578.4803132327480171
 20
219.0063483228155121
 10
578.5295264440687788
 20
218.8717474436620876
 10
578.5751162807479204
 20
218.7360254762980958
 10
578.616925542870149
 20
218.5992137188868014
 10
578.6547970305173294
 20
218.4613434695916965
 10
578.6821533846699595
 20
218.3503061883652094
 10
578.7068084688548879
 20
218.2386275278171865
 10
578.7286817967158186
 20
218.126323512607712
 10
578.7476928819028217
 20
218.0134101674265992
 10
578.763765645313697
 20
217.8999188942954106
 10
578.7766340928808404
 20
217.7879793010781952
 10
578.7865590736979584
 20
217.6756689792248949
 10
578.7934884571664043
 20
217.5630872691708078
 10
578.7973701126895776
 20
217.450333511351289
 10
578.7980790924652865
 20
217.3284931962336088
 10
578.7951074855750448
 20
217.2066931946289117
 10
578.7883896425780677
 20
217.0850586085751956
 10
578.7778599140328879
 20
216.9637145401106864
 10
578.7634526504991754
 20
216.8427860912732967
 10
578.745126151870295
 20
216.722394350845093
 10
578.7243183344461386
 20
216.6094659886726106
 10
578.7001716535118021
 20
216.4971874789791002
 10
578.6727703136004948
 20
216.3856403486250031
 10
578.6421985192444026
 20
216.2749061244709878
 10
578.6085404749771897
 20
216.1650663333778084
 10
578.5674345949485087
 20
216.0436334614302041
 10
578.5227063816518012
 20
215.9235295985220091
 10
578.474472895873987
 20
215.8048680829521118
 10
578.4228511980251142
 20
215.6877621672936129
 10
578.3679582101472079
 20
215.5722936830252934
 10
578.3099105103083275
 20
215.458466351780686
 10
578.248824624031613
 20
215.3462719628732884
 10
578.1848170768405453
 20
215.2357023056162859
 10
578.1082375291632616
 20
215.1113159177045873
 10
578.0281680701499454
 20
214.9890286479275119
 10
577.9447826387751093
 20
214.8688282400995888
 10
577.8582551740098552
 20
214.7507024380354892
 10
577.7687596148277862
 20
214.6346389855497989
 10
577.6764699002012549
 20
214.5206256264571039
 10
577.5815599691038642
 20
214.4086501045719899
 10
577.4743402910348777
 20
214.2878161047160006
 10
577.364392129966518
 20
214.1694167449142014
 10
577.2519469986700642
 20
214.0534357121838127
 10
577.1372364099178185
 20
213.9398566935419979
 10
577.0204918764840158
 20
213.8286633760062045
  0
LINE
  5
69
100
AcDbEntity
  8
Geometries
 62
256
370
0
 48
1.0
  6
Continuous
100
AcDbLine
 10
168.0156208186380127
 20
242.3768165482242978
 30
0.0
 11
24.4073277968798799
 21
242.3768165482242978
 31
0.0
  0
ARC
  5
6A
100
AcDbEntity
  8
Geometries
 62
256
370
0
 48
1.0
  6
Continuous
100
AcDbCircle
 10
173.8679707739977971
 20
236.7768165482241898
 30
0.0
 40
8.1000000000000369
100
AcDbArc
 50
136.2622953461886937
 51
43.7377046538111998
  0
LINE
  5
6B
100
AcDbEntity
  8
Geometries
 62
256
370
0
 48
1.0
  6
Continuous
100
AcDbLine
 10
318.9594724044376903
 20
242.3768165482242978
 30
0.0
 11
313.7203207293576952
 21
242.3768165482244115
 31
0.0
  0
LINE
  5
6C
100
AcDbEntity
  8
Geometries
 62
256
370
0
 48
1.0
  6
Continuous
100
AcDbLine
 10
324.8319999999999936
 20
225.5800000000000125
 30
0.0
 11
318.9434970296221081
 21
225.579912043376396
 31
0.0
  0
LINE
  5
6D
100
AcDbEntity
  8
Geometries
 62
256
370
0
 48
1.0
  6
Continuous
100
AcDbLine
 10
319.2179707739978767
 20
242.3768165482242978
 30
0.0
 11
319.2179707739978767
 21
237.7800577250509093
 31
0.0
  0
LINE
  5
6E
100
AcDbEntity
  8
Geometries
 62
256
370
0
 48
1.0
  6
Continuous
100
AcDbLine
 10
334.695670346648626
 20
237.7800577280164021
 30
0.0
 11
334.6796949718325891
 21
225.5799120463418888
 31
0.0
  0
LINE
  5
6F
100
AcDbEntity
  8
Geometries
 62
256
370
0
 48
1.0
  6
Continuous
100
AcDbLine
 10
329.7071853200615124
 20
224.4419931351349931
 30
0.0
 11
329.7061805971301851
 21
223.6747018339166004
 31
0.0
  0
LINE
  5
70
100
AcDbEntity
  8
Geometries
 62
256
370
0
 48
1.0
  6
Continuous
100
AcDbLine
 10
318.9594724044376903
 20
237.7800577250509093
 30
0.0
 11
318.9594724044376903
 21
242.3768165482242978
 31
0.0
  0
LINE
  5
71
100
AcDbEntity
  8
Geometries
 62
256
370
0
 48
1.0
  6
Continuous
100
AcDbLine
 10
323.494572287302617
 20
223.7119487283218007
 30
0.0
 11
323.4953428999783114
 21
224.3004536626943946
 31
0.0
  0
LWPOLYLINE
  5
72
100
AcDbEntity
  8
Geometries
 62
256
370
0
 48
1.0
  6
Continuous
100
AcDbPolyline
 90
30
 70
128
 10
323.494572287302617
 20
223.7119487283218007
 10
323.4961601057477196
 20
223.6463183320821884
 10
323.5012165269172897
 20
223.5796161859464064
 10
323.5099130324592238
 20
223.5120748554292049
 10
323.5224011406702971
 20
223.4439512778633912
 10
323.5388083597375157
 20
223.3755250463219113
 10
323.5588338417244927
 20
223.3083161558562892
 10
323.5828006044159224
 20
223.2414046788283031
 10
323.6107410759735785
 20
223.1751032930341125
 10
323.6426529430975165
 20
223.1097331773802921
 10
323.6792693464799981
 20
223.0443264708316917
 10
323.7198986615098875
 20
222.980572695296587
 10
323.7644182229885814
 20
222.9188100568906066
 10
323.8126650692835824
 20
222.8593646709881
 10
323.8644376662683158
 20
222.8025450169803037
 10
323.9194986046650797
 20
222.7486366971268978
 10
323.9775781991867234
 20
222.6978976831919965
 10
324.0383788760449875
 20
222.650554215665494
 10
324.1015801997127141
 20
222.6067974917743015
 10
324.1668443627044098
 20
222.5667812421897906
 10
324.2338219455066906
 20
222.5306202549936074
 10
324.302157748519619
 20
222.498389862108894
 10
324.371496503778701
 20
222.4701263611339925
 10
324.4414882904280262
 20
222.445828307168
 10
324.5059308042531825
 20
222.4270075187241105
 10
324.5703856756898062
 20
222.4114349595465114
 10
324.6346149070582214
 20
222.3990364030073863
 10
324.698395367943192
 20
222.389718725805011
 10
324.7615203877105046
 20
222.3833723624568961
 10
324.8238009201920136
 20
222.3798738329170988
  0
LINE
  5
73
100
AcDbEntity
  8
Geometries
 62
256
370
0
 48
1.0
  6
Continuous
100
AcDbLine
 10
523.3375157117707204
 20
242.3768165482242978
 30
0.0
 11
319.2179707739978767
 21
242.3768165482242978
 31
0.0
  0
ARC
  5
74
100
AcDbEntity
  8
Geometries
 62
256
370
0
 48
1.0
  6
Continuous
100
AcDbCircle
 10
307.8679707739979108
 20
236.7768165482241898
 30
0.0
 40
8.1000000000000369
100
AcDbArc
 50
136.2622953461886084
 51
43.7377046538111998
  0
LINE
  5
75
100
AcDbEntity
  8
Geometries
 62
256
370
0
 48
1.0
  6
Continuous
100
AcDbLine
 10
318.9434970296221081
 20
225.579912043376396
 30
0.0
 11
318.9594724044376903
 21
237.7800577250509093
 31
0.0
  0
LWPOLYLINE
  5
76
100
AcDbEntity
  8
Geometries
 62
256
370
0
 48
1.0
  6
Continuous
100
AcDbPolyline
 90
30
 70
128
 10
328.3795925322382914
 20
222.3798738335983103
 10
328.4464064014753149
 20
222.3822394839199035
 10
328.5143094945311191
 20
222.3879596652481041
 10
328.5830575388404213
 20
222.3972016611141953
 10
328.6523801835077165
 20
222.4101129284289016
 10
328.7219828237094816
 20
222.4268169955776955
 10
328.7903091688150994
 20
222.4470072485486014
 10
328.8582837401227721
 20
222.4710093465243972
 10
328.9255764181356199
 20
222.4988518664073069
 10
328.9918481602251745
 20
222.5305285450043868
 10
329.0580639159596785
 20
222.5667592869951079
 10
329.1224962536306862
 20
222.6068514341116895
 10
329.184789448288825
 20
222.6506779049969111
 10
329.2446013812087244
 20
222.6980713945413015
 10
329.301609580136585
 20
222.7488262318260013
 10
329.3555169059072227
 20
222.8027012430613922
 10
329.4060566787329094
 20
222.8594235402773052
 10
329.4529970600186175
 20
222.9186931120607085
 10
329.4961445392812038
 20
222.9801880550149065
 10
329.5353464183177152
 20
223.0435702566454097
 10
329.5704922328686166
 20
223.1084913239971002
 10
329.6015141020675969
 20
223.1745985484494952
 10
329.6283860442775904
 20
223.2415407053628087
 10
329.6511223411425817
 20
223.3089735064557999
 10
329.6683747425200863
 20
223.3709337573951075
 10
329.6822612076429095
 20
223.4327826156174979
 10
329.6928696025113936
 20
223.4942897327667879
 10
329.7003072661602232
 20
223.5552405136456002
 10
329.7046982657032004
 20
223.6154375871570892
 10
329.7061805971301851
 20
223.6747018339166004
  0
LWPOLYLINE
  5
77
100
AcDbEntity
  8
Geometries
 62
256
370
0
 48
1.0
  6
Continuous
100
AcDbPolyline
 90
84
 70
128
 10
523.336762470531994
 20
242.376638802315199
 10
524.953047676795336
 20
241.9374461743612983
 10
526.5683191048675553
 20
241.4945535265167962
 10
528.1825579887602089
 20
241.0479198284955089
 10
529.7957455624811018
 20
240.5975040500115085
 10
531.4078630600422457
 20
240.1432651607786113
 10
533.0188917154519004
 20
239.6851621305104914
 10
534.283923864035728
 20
239.3224864940721091
 10
535.5482631315253457
 20
238.9573801099921013
 10
536.8119004153197693
 20
238.5898230761891057
 10
538.0748208135787536
 20
238.2197785137196036
 10
539.3369614833418382
 20
237.8470691994913011
 10
540.5982359313998131
 20
237.4714486760198042
 10
541.6785731840309381
 20
237.1469839536341055
 10
542.7581557874993905
 20
236.8200434438230104
 10
543.8369291688625253
 20
236.4904716359010877
 10
544.9148387551758788
 20
236.1581130191831051
 10
545.9918299734955554
 20
235.822812082983603
 10
547.0678482508776597
 20
235.4844133166174913
 10
548.1428390143778415
 20
235.1427612093993105
 10
548.9867182318514551
 20
234.8719366468436078
 10
549.8299029552748607
 20
234.5989322084764979
 10
550.6723667135897813
 20
234.3236724625479894
 10
551.5140756100595354
 20
234.046065933029098
 10
552.3549522463273433
 20
233.7659271521550863
 10
553.1949034311413698
 20
233.483036529260886
 10
554.0338359509826205
 20
233.1971744255660042
 10
554.730578380620841
 20
232.9570552179725951
 10
555.4264984473719551
 20
232.7146033389996944
 10
556.1215425605382734
 20
232.4696925130224088
 10
556.8156571294222204
 20
232.2221964644161858
 10
557.5087885633265614
 20
231.9719889175563878
 10
558.2008780097921772
 20
231.7189325356333995
 10
558.8523905682828854
 20
231.4775582769931077
 10
559.502827436476764
 20
231.2333139073222128
 10
560.1521131061767846
 20
230.9860292800821071
 10
560.8001720691828496
 20
230.7355342487342114
 10
561.446928817297362
 20
230.4816586667400031
 10
561.9848435511366915
 20
230.2673905643426053
 10
562.5217578359555546
 20
230.0505582355791887
 10
563.0576279748806883
 20
229.8310632160178102
 10
563.5924102710373518
 20
229.6088070412264983
 10
564.1260610275521685
 20
229.3836912467731111
 10
564.6585207766281655
 20
229.1555976090986917
 10
565.0759466297361087
 20
228.9741385523325903
 10
565.4924474111696782
 20
228.7905551330437106
 10
565.9079296333845832
 20
228.604709016772091
 10
566.3222998088336908
 20
228.4164618690579118
 10
566.7354644499730512
 20
228.2256753554410977
 10
567.1473300692566681
 20
228.0322111414619997
 10
567.5861093296593936
 20
227.8222621857225931
 10
568.0231827793611501
 20
227.6089255937700102
 10
568.4584361837617053
 20
227.392032331518692
 10
568.8917553082596896
 20
227.171413364883108
 10
569.2307889632370461
 20
226.9953460830193137
 10
569.5685025636158798
 20
226.816792404896205
 10
569.9048406989523983
 20
226.6356703391259089
 10
570.2397479588055376
 20
226.4518978943208083
 10
570.537518020696325
 20
226.2855089060635123
 10
570.8340607884169913
 20
226.1168810158467011
 10
571.1293003082350879
 20
225.9459276731953139
 10
571.4231396091555553
 20
225.7725461011143864
 10
571.7154813961808486
 20
225.5966332724630092
 10
572.0062283743141052
 20
225.4180861600997048
 10
572.295283248559258
 20
225.2368017368835922
 10
572.5825487239201266
 20
225.0526769756737053
 10
572.8383388819295305
 20
224.8852041054890094
 10
573.0925443853616343
 20
224.715294144873809
 10
573.3450952476748625
 20
224.5428729840218978
 10
573.5959214823274124
 20
224.3678665131270975
 10
573.8449434459002987
 20
224.190195706059086
 10
574.0876053549204698
 20
224.012987034340199
 10
574.3281761768769229
 20
223.8329562284044982
 10
574.5664616741792088
 20
223.649967946943292
 10
574.802267609236992
 20
223.4638868486478884
 10
574.9889965448073781
 20
223.312704192531811
 10
575.1739147988374725
 20
223.1593862204541949
 10
575.3569229216809617
 20
223.0038636376652903
 10
575.5379214636921006
 20
222.8460671494150915
 10
575.7168109752250302
 20
222.6859274609535078
 10
575.8903569308704391
 20
222.5262995520662912
 10
576.0616783598906068
 20
222.3642788910352976
 10
576.2306810457257598
 20
222.1997998294341983
 10
576.3972707718223774
 20
222.0327967188366927
  0
LINE
  5
78
100
AcDbEntity
  8
Geometries
 62
256
370
0
 48
1.0
  6
Continuous
100
AcDbLine
 10
328.3795925322382914
 20
222.3798738335983103
 30
0.0
 11
324.8238009201920136
 21
222.3798738329170988
 31
0.0
  0
LINE
  5
79
100
AcDbEntity
  8
0
 62
256
370
-1
 48
1.0
  6
ByLayer
100
AcDbLine
 10
328.1287694953032315
 20
225.5774732507194642
 30
0.0
 11
328.1287437388227204
 21
225.5799120450867008
 31
0.0
  0
ENDSEC
  0
SECTION
  2
OBJECTS
  0
DICTIONARY
  5
C
100
AcDbDictionary
280
0
281
1
  3
ACAD_GROUP
350
D
  3
ACAD_LAYOUT
350
1A
  3
ACAD_MLINESTYLE
350
17
  3
ACAD_PLOTSETTINGS
350
19
  3
ACAD_PLOTSTYLENAME
350
E
  3
AcDbVariableDictionary
350
7A
  3
QCAD_OBJECTS
350
7B
  0
DICTIONARY
  5
D
100
AcDbDictionary
280
0
281
1
  0
ACDBDICTIONARYWDFLT
  5
E
100
AcDbDictionary
281
1
  3
Normal
350
F
100
AcDbDictionaryWithDefault
340
F
  0
ACDBPLACEHOLDER
  5
F
  0
DICTIONARY
  5
17
100
AcDbDictionary
280
0
281
1
  3
Standard
350
18
  0
MLINESTYLE
  5
18
100
AcDbMlineStyle
  2
STANDARD
 70
0
  3

 62
256
 51
90.0
 52
90.0
 71
2
 49
0.5
 62
256
  6
BYLAYER
 49
-0.5
 62
256
  6
BYLAYER
  0
DICTIONARY
  5
19
100
AcDbDictionary
280
0
281
1
  0
DICTIONARY
  5
1A
100
AcDbDictionary
281
1
  3
Layout1
350
1E
  3
Layout2
350
26
  3
Model
350
22
  0
LAYOUT
  5
1E
100
AcDbPlotSettings
  1

  2
none_device
  4

  6

 40
0.0
 41
0.0
 42
0.0
 43
0.0
 44
0.0
 45
0.0
 46
0.0
 47
0.0
 48
0.0
 49
0.0
140
0.0
141
0.0
142
1.0
143
1.0
 70
688
 72
0
 73
0
 74
5
  7

 75
16
147
1.0
148
0.0
149
0.0
100
AcDbLayout
  1
Layout1
 70
1
 71
1
 10
0.0
 20
0.0
 11
420.0
 21
297.0
 12
0.0
 22
0.0
 32
0.0
 14
100000000000000000000.0
 24
100000000000000000000.0
 34
100000000000000000000.0
 15
-100000000000000000000.0
 25
-100000000000000000000.0
 35
-100000000000000000000.0
146
0.0
 13
0.0
 23
0.0
 33
0.0
 16
1.0
 26
0.0
 36
0.0
 17
0.0
 27
1.0
 37
0.0
 76
0
330
1B
  0
LAYOUT
  5
22
100
AcDbPlotSettings
  1

  2
none_device
  4

  6

 40
0.0
 41
0.0
 42
0.0
 43
0.0
 44
0.0
 45
0.0
 46
0.0
 47
0.0
 48
0.0
 49
0.0
140
0.0
141
0.0
142
1.0
143
1.0
 70
1712
 72
0
 73
0
 74
0
  7

 75
0
147
1.0
148
0.0
149
0.0
100
AcDbLayout
  1
Model
 70
1
 71
0
 10
0.0
 20
0.0
 11
12.0
 21
9.0
 12
0.0
 22
0.0
 32
0.0
 14
0.0
 24
0.0
 34
0.0
 15
0.0
 25
0.0
 35
0.0
146
0.0
 13
0.0
 23
0.0
 33
0.0
 16
1.0
 26
0.0
 36
0.0
 17
0.0
 27
1.0
 37
0.0
 76
0
330
1F
  0
LAYOUT
  5
26
100
AcDbPlotSettings
  1

  2
none_device
  4

  6

 40
0.0
 41
0.0
 42
0.0
 43
0.0
 44
0.0
 45
0.0
 46
0.0
 47
0.0
 48
0.0
 49
0.0
140
0.0
141
0.0
142
1.0
143
1.0
 70
688
 72
0
 73
0
 74
5
  7

 75
16
147
1.0
148
0.0
149
0.0
100
AcDbLayout
  1
Layout2
 70
1
 71
2
 10
0.0
 20
0.0
 11
12.0
 21
9.0
 12
0.0
 22
0.0
 32
0.0
 14
0.0
 24
0.0
 34
0.0
 15
0.0
 25
0.0
 35
0.0
146
0.0
 13
0.0
 23
0.0
 33
0.0
 16
1.0
 26
0.0
 36
0.0
 17
0.0
 27
1.0
 37
0.0
 76
0
330
23
  0
DICTIONARY
  5
7A
100
AcDbDictionary
281
1
  3
DIMASSOC
350
7D
  3
HIDETEXT
350
7C
  0
DICTIONARYVAR
  5
7C
100
DictionaryVariables
280
0
  1
2
  0
DICTIONARYVAR
  5
7D
100
DictionaryVariables
280
0
  1
1
  0
DICTIONARY
  5
7B
100
AcDbDictionary
281
1
  3
ColorSettings/BackgroundColor
350
7E
  3
ColorSettings/ColorMode
350
7F
  3
Grid/DisplayGrid00
350
80
  3
Grid/DisplayGrid01
350
81
  3
Grid/DisplayGrid02
350
82
  3
Grid/DisplayGrid03
350
83
  3
Grid/GridSpacingX00
350
84
  3
Grid/GridSpacingX01
350
85
  3
Grid/GridSpacingX02
350
86
  3
Grid/GridSpacingX03
350
87
  3
Grid/GridSpacingY00
350
88
  3
Grid/GridSpacingY01
350
89
  3
Grid/GridSpacingY02
350
8A
  3
Grid/GridSpacingY03
350
8B
  3
Grid/IsometricGrid00
350
8C
  3
Grid/IsometricGrid01
350
8D
  3
Grid/IsometricGrid02
350
8E
  3
Grid/IsometricGrid03
350
8F
  3
Grid/IsometricProjection00
350
90
  3
Grid/IsometricProjection01
350
91
  3
Grid/IsometricProjection02
350
92
  3
Grid/IsometricProjection03
350
93
  3
Grid/MetaGridSpacingX00
350
94
  3
Grid/MetaGridSpacingX01
350
95
  3
Grid/MetaGridSpacingX02
350
96
  3
Grid/MetaGridSpacingX03
350
97
  3
Grid/MetaGridSpacingY00
350
98
  3
Grid/MetaGridSpacingY01
350
99
  3
Grid/MetaGridSpacingY02
350
9A
  3
Grid/MetaGridSpacingY03
350
9B
  3
MultiPageSettings/Columns
350
9C
  3
MultiPageSettings/GlueMarginsBottom
350
9D
  3
MultiPageSettings/GlueMarginsLeft
350
9E
  3
MultiPageSettings/GlueMarginsRight
350
9F
  3
MultiPageSettings/GlueMarginsTop
350
A0
  3
MultiPageSettings/PrintCropMarks
350
A1
  3
MultiPageSettings/Rows
350
A2
  3
PageSettings/OffsetX
350
A3
  3
PageSettings/OffsetY
350
A4
  3
PageSettings/PageOrientation
350
A5
  3
PageSettings/PaperHeight
350
A6
  3
PageSettings/PaperWidth
350
A7
  3
PageSettings/Scale
350
A8
  3
PageSettings/ShowPaperBorders
350
A9
  3
PageTagSettings/EnablePageTags
350
AA
  3
PageTagSettings/TagAlignment
350
AB
  3
PageTagSettings/TagFont
350
AC
  3
PageTagSettings/TagPosition
350
AD
  3
QCADVersion
350
AE
  3
UnitSettings/PaperUnit
350
AF
  3
ViewportCenter
350
B0
  3
ViewportHeight
350
B1
  3
ViewportWidth
350
B2
  0
XRECORD
  5
7E
330
7B
100
AcDbXrecord
280
1
1000
White
  0
XRECORD
  5
7F
330
7B
100
AcDbXrecord
280
1
1000
FullColor
  0
XRECORD
  5
80
330
7B
100
AcDbXrecord
280
1
290
1
  0
XRECORD
  5
81
330
7B
100
AcDbXrecord
280
1
290
1
  0
XRECORD
  5
82
330
7B
100
AcDbXrecord
280
1
290
1
  0
XRECORD
  5
83
330
7B
100
AcDbXrecord
280
1
290
1
  0
XRECORD
  5
84
330
7B
100
AcDbXrecord
280
1
1000
auto
  0
XRECORD
  5
85
330
7B
100
AcDbXrecord
280
1
1000
auto
  0
XRECORD
  5
86
330
7B
100
AcDbXrecord
280
1
1000
auto
  0
XRECORD
  5
87
330
7B
100
AcDbXrecord
280
1
1000
auto
  0
XRECORD
  5
88
330
7B
100
AcDbXrecord
280
1
1000
auto
  0
XRECORD
  5
89
330
7B
100
AcDbXrecord
280
1
1000
auto
  0
XRECORD
  5
8A
330
7B
100
AcDbXrecord
280
1
1000
auto
  0
XRECORD
  5
8B
330
7B
100
AcDbXrecord
280
1
1000
auto
  0
XRECORD
  5
8C
330
7B
100
AcDbXrecord
280
1
290
0
  0
XRECORD
  5
8D
330
7B
100
AcDbXrecord
280
1
290
0
  0
XRECORD
  5
8E
330
7B
100
AcDbXrecord
280
1
290
0
  0
XRECORD
  5
8F
330
7B
100
AcDbXrecord
280
1
290
0
  0
XRECORD
  5
90
330
7B
100
AcDbXrecord
280
1
 90
65537
  0
XRECORD
  5
91
330
7B
100
AcDbXrecord
280
1
 90
65537
  0
XRECORD
  5
92
330
7B
100
AcDbXrecord
280
1
 90
65537
  0
XRECORD
  5
93
330
7B
100
AcDbXrecord
280
1
 90
65537
  0
XRECORD
  5
94
330
7B
100
AcDbXrecord
280
1
1000
auto
  0
XRECORD
  5
95
330
7B
100
AcDbXrecord
280
1
1000
auto
  0
XRECORD
  5
96
330
7B
100
AcDbXrecord
280
1
1000
auto
  0
XRECORD
  5
97
330
7B
100
AcDbXrecord
280
1
1000
auto
  0
XRECORD
  5
98
330
7B
100
AcDbXrecord
280
1
1000
auto
  0
XRECORD
  5
99
330
7B
100
AcDbXrecord
280
1
1000
auto
  0
XRECORD
  5
9A
330
7B
100
AcDbXrecord
280
1
1000
auto
  0
XRECORD
  5
9B
330
7B
100
AcDbXrecord
280
1
1000
auto
  0
XRECORD
  5
9C
330
7B
100
AcDbXrecord
280
1
 90
1
  0
XRECORD
  5
9D
330
7B
100
AcDbXrecord
280
1
 40
10.0
  0
XRECORD
  5
9E
330
7B
100
AcDbXrecord
280
1
 40
10.0
  0
XRECORD
  5
9F
330
7B
100
AcDbXrecord
280
1
 40
10.0
  0
XRECORD
  5
A0
330
7B
100
AcDbXrecord
280
1
 40
10.0
  0
XRECORD
  5
A1
330
7B
100
AcDbXrecord
280
1
290
0
  0
XRECORD
  5
A2
330
7B
100
AcDbXrecord
280
1
 90
1
  0
XRECORD
  5
A3
330
7B
100
AcDbXrecord
280
1
 40
0.0
  0
XRECORD
  5
A4
330
7B
100
AcDbXrecord
280
1
 40
0.0
  0
XRECORD
  5
A5
330
7B
100
AcDbXrecord
280
1
1000
Portrait
  0
XRECORD
  5
A6
330
7B
100
AcDbXrecord
280
1
 40
297.0
  0
XRECORD
  5
A7
330
7B
100
AcDbXrecord
280
1
 40
210.0
  0
XRECORD
  5
A8
330
7B
100
AcDbXrecord
280
1
1000
1:1
  0
XRECORD
  5
A9
330
7B
100
AcDbXrecord
280
1
290
1
  0
XRECORD
  5
AA
330
7B
100
AcDbXrecord
280
1
290
0
  0
XRECORD
  5
AB
330
7B
100
AcDbXrecord
280
1
1000
Inside
  0
XRECORD
  5
AC
330
7B
100
AcDbXrecord
280
1
1000
Arial,10,-1,5,50,0,0,0,0,0
  0
XRECORD
  5
AD
330
7B
100
AcDbXrecord
280
1
1000
TopLeft
  0
XRECORD
  5
AE
330
7B
100
AcDbXrecord
280
1
1000
3.32.2
  0
XRECORD
  5
AF
330
7B
100
AcDbXrecord
280
1
 90
4
  0
XRECORD
  5
B1
330
7B
100
AcDbXrecord
280
1
 40
395.1027816561928034
  0
XRECORD
  5
B2
330
7B
100
AcDbXrecord
280
1
 40
837.8013991287339195
  0
ENDSEC
  0
EOF
