999
dxflib 3.26.4.0
  0
SECTION
  2
HEADER
  9
$ACADVER
  1
AC1015
  9
$HANDSEED
  5
FFFF
  9
$ANGBASE
 50
0.0
  9
$ANGDIR
 70
0
  9
$ATTMODE
 70
1
  9
$AUNITS
 70
0
  9
$AUPREC
 70
0
  9
$CECOLOR
 62
256
  9
$CELTSCALE
 40
1.0
  9
$CHAMFERA
 40
0.0
  9
$CHAMFERB
 40
0.0
  9
$CHAMFERC
 40
0.0
  9
$CHAMFERD
 40
0.0
  9
$CMLJUST
 70
0
  9
$CMLSCALE
 40
20.0
  9
$DIMADEC
 70
2
  9
$DIMALT
 70
0
  9
$DIMALTD
 70
3
  9
$DIMALTF
 40
0.0393700787401575
  9
$DIMALTRND
 40
0.0
  9
$DIMALTTD
 70
3
  9
$DIMALTTZ
 70
0
  9
$DIMALTU
 70
2
  9
$DIMALTZ
 70
0
  9
$DIMAPOST
  1

  9
$DIMASZ
 40
2.5
  9
$DIMATFIT
 70
3
  9
$DIMAUNIT
 70
0
  9
$DIMAZIN
 70
0
  9
$DIMBLK
  1
0
  9
$DIMBLK1
  1
0
  9
$DIMBLK2
  1
0
  9
$DIMCEN
 40
2.5
  9
$DIMCLRD
 70
0
  9
$DIMCLRE
 70
0
  9
$DIMDEC
 70
2
  9
$DIMDLE
 40
0.0
  9
$DIMDLI
 40
3.75
  9
$DIMDSEP
 70
44
  9
$DIMEXE
 40
1.25
  9
$DIMEXO
 40
0.625
  9
$DIMFRAC
 70
2
  9
$DIMGAP
 40
0.7
  9
$DIMJUST
 70
0
  9
$DIMLDRBLK
  1

  9
$DIMLFAC
 40
1.0
  9
$DIMLIM
 70
0
  9
$DIMLUNIT
 70
2
  9
$DIMLWD
 70
15
  9
$DIMLWE
 70
15
  9
$DIMPOST
  1

  9
$DIMRND
 40
0.01
  9
$DIMSAH
 70
0
  9
$DIMSCALE
 40
1.0
  9
$DIMSD1
 70
0
  9
$DIMSD2
 70
0
  9
$DIMSE1
 70
0
  9
$DIMSE2
 70
0
  9
$DIMSOXD
 70
0
  9
$DIMTAD
 70
1
  9
$DIMTDEC
 70
2
  9
$DIMTFAC
 40
1.0
  9
$DIMTIH
 70
0
  9
$DIMTIX
 70
0
  9
$DIMTM
 40
0.0
  9
$DIMTOFL
 70
1
  9
$DIMTOH
 70
0
  9
$DIMTOL
 70
0
  9
$DIMTOLJ
 70
0
  9
$DIMTP
 40
0.0
  9
$DIMTSZ
 40
0.0
  9
$DIMTVP
 40
0.0
  9
$DIMTXSTY
  7
Standard
  9
$DIMTXT
 40
2.5
  9
$DIMTZIN
 70
8
  9
$DIMUPT
 70
0
  9
$DIMZIN
 70
8
  9
$DISPSILH
 70
0
  9
$DWGCODEPAGE
  3
ANSI_1252
  9
$ELEVATION
 40
0.0
  9
$EXTMAX
 10
-100000000000000000000.0
 20
-100000000000000000000.0
 30
-100000000000000000000.0
  9
$EXTMIN
 10
100000000000000000000.0
 20
100000000000000000000.0
 30
100000000000000000000.0
  9
$FILLETRAD
 40
0.0
  9
$FILLMODE
 70
1
  9
$INSBASE
 10
0.0
 20
0.0
 30
0.0
  9
$INSUNITS
 70
4
  9
$LIMCHECK
 70
0
  9
$LIMMAX
 10
420.0
 20
297.0
  9
$LIMMIN
 10
0.0
 20
0.0
  9
$LTSCALE
 40
1.0
  9
$LUNITS
 70
2
  9
$LUPREC
 70
4
  9
$MAXACTVP
 70
64
  9
$MEASUREMENT
 70
1
  9
$MIRRTEXT
 70
1
  9
$ORTHOMODE
 70
0
  9
$PDMODE
 70
0
  9
$PDSIZE
 40
0.0
  9
$PELEVATION
 40
0.0
  9
$PEXTMAX
 10
0.0
 20
0.0
 30
0.0
  9
$PEXTMIN
 10
0.0
 20
0.0
 30
0.0
  9
$PINSBASE
 10
0.0
 20
0.0
 30
0.0
  9
$PLIMCHECK
 70
0
  9
$PLIMMAX
 10
277.0
 20
202.5
  9
$PLIMMIN
 10
-20.0
 20
-7.5
  9
$PLINEGEN
 70
0
  9
$PLINEWID
 40
0.0
  9
$PROXYGRAPHICS
 70
1
  9
$PSLTSCALE
 70
1
  9
$PUCSNAME
  2

  9
$PUCSORG
 10
0.0
 20
0.0
 30
0.0
  9
$PUCSXDIR
 10
1.0
 20
0.0
 30
0.0
  9
$PUCSYDIR
 10
0.0
 20
1.0
 30
0.0
  9
$QTEXTMODE
 70
0
  9
$REGENMODE
 70
1
  9
$SHADEDGE
 70
3
  9
$SHADEDIF
 70
70
  9
$SKETCHINC
 40
1.0
  9
$SKPOLY
 70
0
  9
$SPLFRAME
 70
0
  9
$SPLINESEGS
 70
8
  9
$SPLINETYPE
 70
6
  9
$SURFTAB1
 70
6
  9
$SURFTAB2
 70
6
  9
$SURFTYPE
 70
6
  9
$SURFU
 70
6
  9
$SURFV
 70
6
  9
$TEXTSIZE
 40
2.5
  9
$TEXTSTYLE
  7
Standard
  9
$THICKNESS
 40
0.0
  9
$TILEMODE
 70
0
  9
$TRACEWID
 40
1.0
  9
$TREEDEPTH
 70
3020
  9
$UCSNAME
  2

  9
$UCSORG
 10
0.0
 20
0.0
 30
0.0
  9
$UCSXDIR
 10
1.0
 20
0.0
 30
0.0
  9
$UCSYDIR
 10
0.0
 20
1.0
 30
0.0
  9
$UNITMODE
 70
0
  9
$USERI1
 70
0
  9
$USERI2
 70
0
  9
$USERI3
 70
0
  9
$USERI4
 70
0
  9
$USERI5
 70
0
  9
$USERR1
 40
0.0
  9
$USERR2
 40
0.0
  9
$USERR3
 40
0.0
  9
$USERR4
 40
0.0
  9
$USERR5
 40
0.0
  9
$USRTIMER
 70
1
  9
$VISRETAIN
 70
1
  0
ENDSEC
  0
SECTION
  2
TABLES
  0
TABLE
  2
VPORT
  5
8
100
AcDbSymbolTable
 70
1
  0
VPORT
  5
30
100
AcDbSymbolTableRecord
100
AcDbViewportTableRecord
  2
*Active
 70
0
 10
0.0
 20
0.0
 11
1.0
 21
1.0
 12
286.3055555555554861
 22
148.5
 13
0.0
 23
0.0
 14
10.0
 24
10.0
 15
10.0
 25
10.0
 16
0.0
 26
0.0
 36
1.0
 17
0.0
 27
0.0
 37
0.0
 40
297.0
 41
1.92798353909465
 42
50.0
 43
0.0
 44
0.0
 50
0.0
 51
0.0
 71
0
 72
100
 73
1
 74
3
 75
1
 76
1
 77
0
 78
0
281
0
 65
1
110
0.0
120
0.0
130
0.0
111
1.0
121
0.0
131
0.0
112
0.0
122
1.0
132
0.0
 79
0
146
0.0
  0
ENDTAB
  0
TABLE
  2
LTYPE
  5
5
100
AcDbSymbolTable
 70
46
  0
LTYPE
  5
16
100
AcDbSymbolTableRecord
100
AcDbLinetypeTableRecord
  2
Continuous
 70
0
  3
Solid line
 72
65
 73
0
 40
0.0
  0
LTYPE
  5
31
100
AcDbSymbolTableRecord
100
AcDbLinetypeTableRecord
  2
DASHED
 70
0
  3
Dashed __ __ __ __ __ __ __ __ __ __ __ __ __ _
 72
65
 73
2
 40
19.0499999999999972
 49
12.6999999999999993
 74
0
 49
-6.3499999999999996
 74
0
  0
LTYPE
  5
32
100
AcDbSymbolTableRecord
100
AcDbLinetypeTableRecord
  2
DOTX2
 70
0
  3
Dot (2x) .  .  .  .  .  .  .  .  .  .  .  .  .  .
 72
65
 73
2
 40
12.6999999999999993
 49
0.0
 74
0
 49
-12.6999999999999993
 74
0
  0
LTYPE
  5
33
100
AcDbSymbolTableRecord
100
AcDbLinetypeTableRecord
  2
DASHDOT2
 70
0
  3
Dash dot (.5x) _._._._._._._._._._._._._._._.
 72
65
 73
4
 40
12.6999999999999993
 49
6.3499999999999996
 74
0
 49
-3.1749999999999998
 74
0
 49
0.0
 74
0
 49
-3.1749999999999998
 74
0
  0
LTYPE
  5
34
100
AcDbSymbolTableRecord
100
AcDbLinetypeTableRecord
  2
ACAD_ISO05W100
 70
0
  3
ISO long-dash double-dot ____ .. ____ .. ____ . 
 72
65
 73
6
 40
33.0
 49
24.0
 74
0
 49
-3.0
 74
0
 49
0.0
 74
0
 49
-3.0
 74
0
 49
0.0
 74
0
 49
-3.0
 74
0
  0
LTYPE
  5
35
100
AcDbSymbolTableRecord
100
AcDbLinetypeTableRecord
  2
HIDDENX2
 70
0
  3
Hidden (2x) ____ ____ ____ ____ ____ ____ ____ 
 72
65
 73
2
 40
19.0499999999999972
 49
12.6999999999999993
 74
0
 49
-6.3499999999999996
 74
0
  0
LTYPE
  5
36
100
AcDbSymbolTableRecord
100
AcDbLinetypeTableRecord
  2
CENTER2
 70
0
  3
Center (.5x) ___ _ ___ _ ___ _ ___ _ ___ _ ___
 72
65
 73
4
 40
28.5750000000000028
 49
19.0500000000000007
 74
0
 49
-3.1749999999999998
 74
0
 49
3.1749999999999998
 74
0
 49
-3.1749999999999998
 74
0
  0
LTYPE
  5
37
100
AcDbSymbolTableRecord
100
AcDbLinetypeTableRecord
  2
ACAD_ISO03W100
 70
0
  3
ISO dash space __    __    __    __    __    __
 72
65
 73
2
 40
30.0
 49
12.0
 74
0
 49
-18.0
 74
0
  0
LTYPE
  5
38
100
AcDbSymbolTableRecord
100
AcDbLinetypeTableRecord
  2
DIVIDE2
 70
0
  3
Divide (.5x) __..__..__..__..__..__..__..__.._
 72
65
 73
6
 40
15.875
 49
6.3499999999999996
 74
0
 49
-3.1749999999999998
 74
0
 49
0.0
 74
0
 49
-3.1749999999999998
 74
0
 49
0.0
 74
0
 49
-3.1749999999999998
 74
0
  0
LTYPE
  5
39
100
AcDbSymbolTableRecord
100
AcDbLinetypeTableRecord
  2
PHANTOMX2
 70
0
  3
Phantom (2x) ____________    ____    ____   _
 72
65
 73
6
 40
127.0000000000000142
 49
63.5
 74
0
 49
-12.6999999999999993
 74
0
 49
12.6999999999999993
 74
0
 49
-12.6999999999999993
 74
0
 49
12.6999999999999993
 74
0
 49
-12.6999999999999993
 74
0
  0
LTYPE
  5
3A
100
AcDbSymbolTableRecord
100
AcDbLinetypeTableRecord
  2
BORDER
 70
0
  3
Border __ __ . __ __ . __ __ . __ __ . __ __ .
 72
65
 73
6
 40
44.4499999999999957
 49
12.6999999999999993
 74
0
 49
-6.3499999999999996
 74
0
 49
12.6999999999999993
 74
0
 49
-6.3499999999999996
 74
0
 49
0.0
 74
0
 49
-6.3499999999999996
 74
0
  0
LTYPE
  5
3B
100
AcDbSymbolTableRecord
100
AcDbLinetypeTableRecord
  2
DraftedLine
 70
0
  3

 72
65
 73
2
 40
3.0
 49
2.0
 74
0
 49
-1.0
 74
0
  0
LTYPE
  5
3C
100
AcDbSymbolTableRecord
100
AcDbLinetypeTableRecord
  2
PHANTOM
 70
0
  3
Phantom ______  __  __  ______  __  __  ______ 
 72
65
 73
6
 40
63.5000000000000071
 49
31.75
 74
0
 49
-6.3499999999999996
 74
0
 49
6.3499999999999996
 74
0
 49
-6.3499999999999996
 74
0
 49
6.3499999999999996
 74
0
 49
-6.3499999999999996
 74
0
  0
LTYPE
  5
3D
100
AcDbSymbolTableRecord
100
AcDbLinetypeTableRecord
  2
CENTER
 70
0
  3
Center ____ _ ____ _ ____ _ ____ _ ____ _ ____
 72
65
 73
4
 40
50.8000000000000043
 49
31.75
 74
0
 49
-6.3499999999999996
 74
0
 49
6.3499999999999996
 74
0
 49
-6.3499999999999996
 74
0
  0
LTYPE
  5
3E
100
AcDbSymbolTableRecord
100
AcDbLinetypeTableRecord
  2
CenterLine
 70
0
  3

 72
65
 73
4
 40
8.0
 49
5.0
 74
0
 49
-1.0
 74
0
 49
1.0
 74
0
 49
-1.0
 74
0
  0
LTYPE
  5
3F
100
AcDbSymbolTableRecord
100
AcDbLinetypeTableRecord
  2
ACAD_ISO13W100
 70
0
  3
ISO double-dash double-dot __ __ . . __ __ . . _
 72
65
 73
8
 40
36.0
 49
12.0
 74
0
 49
-3.0
 74
0
 49
12.0
 74
0
 49
-3.0
 74
0
 49
0.0
 74
0
 49
-3.0
 74
0
 49
0.0
 74
0
 49
-3.0
 74
0
  0
LTYPE
  5
40
100
AcDbSymbolTableRecord
100
AcDbLinetypeTableRecord
  2
SectionLineANSI
 70
0
  3

 72
65
 73
7
 40
11.9944444444445182
 49
4.23333333333336
 74
0
 49
-1.05833333333334
 74
0
 49
0.17638888888889
 74
0
 49
-1.05833333333334
 74
0
 49
0.17638888888889
 74
0
 49
-1.05833333333334
 74
0
 49
4.23333333333336
 74
0
  0
LTYPE
  5
15
100
AcDbSymbolTableRecord
100
AcDbLinetypeTableRecord
  2
ByLayer
 70
0
  3

 72
65
 73
0
 40
0.0
  0
LTYPE
  5
41
100
AcDbSymbolTableRecord
100
AcDbLinetypeTableRecord
  2
ACAD_ISO09W100
 70
0
  3
ISO long-dash double-short-dash ____ __ __ ____
 72
65
 73
6
 40
45.0
 49
24.0
 74
0
 49
-3.0
 74
0
 49
6.0
 74
0
 49
-3.0
 74
0
 49
6.0
 74
0
 49
-3.0
 74
0
  0
LTYPE
  5
42
100
AcDbSymbolTableRecord
100
AcDbLinetypeTableRecord
  2
ACAD_ISO04W100
 70
0
  3
ISO long-dash dot ____ . ____ . ____ . ____ . _
 72
65
 73
4
 40
30.0
 49
24.0
 74
0
 49
-3.0
 74
0
 49
0.0
 74
0
 49
-3.0
 74
0
  0
LTYPE
  5
43
100
AcDbSymbolTableRecord
100
AcDbLinetypeTableRecord
  2
ACAD_ISO15W100
 70
0
  3
ISO double-dash triple-dot __ __ . . . __ __ . .
 72
65
 73
10
 40
39.0
 49
12.0
 74
0
 49
-3.0
 74
0
 49
12.0
 74
0
 49
-3.0
 74
0
 49
0.0
 74
0
 49
-3.0
 74
0
 49
0.0
 74
0
 49
-3.0
 74
0
 49
0.0
 74
0
 49
-3.0
 74
0
  0
LTYPE
  5
14
100
AcDbSymbolTableRecord
100
AcDbLinetypeTableRecord
  2
ByBlock
 70
0
  3

 72
65
 73
0
 40
0.0
  0
LTYPE
  5
44
100
AcDbSymbolTableRecord
100
AcDbLinetypeTableRecord
  2
DASHED2
 70
0
  3
Dashed (.5x) _ _ _ _ _ _ _ _ _ _ _ _ _ _ _ _ _ 
 72
65
 73
2
 40
9.5249999999999986
 49
6.3499999999999996
 74
0
 49
-3.1749999999999998
 74
0
  0
LTYPE
  5
45
100
AcDbSymbolTableRecord
100
AcDbLinetypeTableRecord
  2
ACAD_ISO02W100
 70
0
  3
ISO dash __ __ __ __ __ __ __ __ __ __ __ __ __
 72
65
 73
2
 40
15.0
 49
12.0
 74
0
 49
-3.0
 74
0
  0
LTYPE
  5
46
100
AcDbSymbolTableRecord
100
AcDbLinetypeTableRecord
  2
SectionLineISO
 70
0
  3

 72
65
 73
5
 40
13.7583333333334217
 49
4.23333333333336
 74
0
 49
-2.11666666666668
 74
0
 49
1.05833333333334
 74
0
 49
-2.11666666666668
 74
0
 49
4.23333333333336
 74
0
  0
LTYPE
  5
47
100
AcDbSymbolTableRecord
100
AcDbLinetypeTableRecord
  2
BORDER2
 70
0
  3
Border (.5x) __.__.__.__.__.__.__.__.__.__.__.
 72
65
 73
6
 40
22.2249999999999979
 49
6.3499999999999996
 74
0
 49
-3.1749999999999998
 74
0
 49
6.3499999999999996
 74
0
 49
-3.1749999999999998
 74
0
 49
0.0
 74
0
 49
-3.1749999999999998
 74
0
  0
LTYPE
  5
48
100
AcDbSymbolTableRecord
100
AcDbLinetypeTableRecord
  2
BORDERX2
 70
0
  3
Border (2x) ____  ____  .  ____  ____  .  ___
 72
65
 73
6
 40
88.8999999999999915
 49
25.3999999999999986
 74
0
 49
-12.6999999999999993
 74
0
 49
25.3999999999999986
 74
0
 49
-12.6999999999999993
 74
0
 49
0.0
 74
0
 49
-12.6999999999999993
 74
0
  0
LTYPE
  5
49
100
AcDbSymbolTableRecord
100
AcDbLinetypeTableRecord
  2
DASHDOT
 70
0
  3
Dash dot __ . __ . __ . __ . __ . __ . __ . __
 72
65
 73
4
 40
25.3999999999999986
 49
12.6999999999999993
 74
0
 49
-6.3499999999999996
 74
0
 49
0.0
 74
0
 49
-6.3499999999999996
 74
0
  0
LTYPE
  5
4A
100
AcDbSymbolTableRecord
100
AcDbLinetypeTableRecord
  2
ACAD_ISO14W100
 70
0
  3
ISO dash triple-dot __ . . . __ . . . __ . . . _
 72
65
 73
8
 40
24.0
 49
12.0
 74
0
 49
-3.0
 74
0
 49
0.0
 74
0
 49
-3.0
 74
0
 49
0.0
 74
0
 49
-3.0
 74
0
 49
0.0
 74
0
 49
-3.0
 74
0
  0
LTYPE
  5
4B
100
AcDbSymbolTableRecord
100
AcDbLinetypeTableRecord
  2
DOT2
 70
0
  3
Dot (.5x) ........................................
 72
65
 73
2
 40
3.1749999999999998
 49
0.0
 74
0
 49
-3.1749999999999998
 74
0
  0
LTYPE
  5
4C
100
AcDbSymbolTableRecord
100
AcDbLinetypeTableRecord
  2
DetailCircleISO
 70
0
  3

 72
65
 73
5
 40
13.7583333333334217
 49
4.23333333333336
 74
0
 49
-2.11666666666668
 74
0
 49
1.05833333333334
 74
0
 49
-2.11666666666668
 74
0
 49
4.23333333333336
 74
0
  0
LTYPE
  5
4D
100
AcDbSymbolTableRecord
100
AcDbLinetypeTableRecord
  2
HIDDEN2
 70
0
  3
Hidden (.5x) _ _ _ _ _ _ _ _ _ _ _ _ _ _ _ _ _ 
 72
65
 73
2
 40
4.7624999999999993
 49
3.1749999999999998
 74
0
 49
-1.5874999999999999
 74
0
  0
LTYPE
  5
4E
100
AcDbSymbolTableRecord
100
AcDbLinetypeTableRecord
  2
DASHDOTX2
 70
0
  3
Dash dot (2x) ____  .  ____  .  ____  .  ___
 72
65
 73
4
 40
50.7999999999999972
 49
25.3999999999999986
 74
0
 49
-12.6999999999999993
 74
0
 49
0.0
 74
0
 49
-12.6999999999999993
 74
0
  0
LTYPE
  5
4F
100
AcDbSymbolTableRecord
100
AcDbLinetypeTableRecord
  2
ACAD_ISO07W100
 70
0
  3
ISO dot . . . . . . . . . . . . . . . . . . . . 
 72
65
 73
2
 40
3.0
 49
0.0
 74
0
 49
-3.0
 74
0
  0
LTYPE
  5
50
100
AcDbSymbolTableRecord
100
AcDbLinetypeTableRecord
  2
DOT
 70
0
  3
Dot . . . . . . . . . . . . . . . . . . . . . . . .
 72
65
 73
2
 40
6.3499999999999996
 49
0.0
 74
0
 49
-6.3499999999999996
 74
0
  0
LTYPE
  5
51
100
AcDbSymbolTableRecord
100
AcDbLinetypeTableRecord
  2
ACAD_ISO08W100
 70
0
  3
ISO long-dash short-dash ____ __ ____ __ ____ _
 72
65
 73
4
 40
36.0
 49
24.0
 74
0
 49
-3.0
 74
0
 49
6.0
 74
0
 49
-3.0
 74
0
  0
LTYPE
  5
52
100
AcDbSymbolTableRecord
100
AcDbLinetypeTableRecord
  2
ACAD_ISO12W100
 70
0
  3
ISO dash double-dot __ . . __ . . __ . . __ . . 
 72
65
 73
6
 40
21.0
 49
12.0
 74
0
 49
-3.0
 74
0
 49
0.0
 74
0
 49
-3.0
 74
0
 49
0.0
 74
0
 49
-3.0
 74
0
  0
LTYPE
  5
53
100
AcDbSymbolTableRecord
100
AcDbLinetypeTableRecord
  2
DIVIDEX2
 70
0
  3
Divide (2x) ________  .  .  ________  .  .  _
 72
65
 73
6
 40
63.5
 49
25.3999999999999986
 74
0
 49
-12.6999999999999993
 74
0
 49
0.0
 74
0
 49
-12.6999999999999993
 74
0
 49
0.0
 74
0
 49
-12.6999999999999993
 74
0
  0
LTYPE
  5
54
100
AcDbSymbolTableRecord
100
AcDbLinetypeTableRecord
  2
DIVIDE
 70
0
  3
Divide ____ . . ____ . . ____ . . ____ . . ____
 72
65
 73
6
 40
31.75
 49
12.6999999999999993
 74
0
 49
-6.3499999999999996
 74
0
 49
0.0
 74
0
 49
-6.3499999999999996
 74
0
 49
0.0
 74
0
 49
-6.3499999999999996
 74
0
  0
LTYPE
  5
55
100
AcDbSymbolTableRecord
100
AcDbLinetypeTableRecord
  2
CENTERX2
 70
0
  3
Center (2x) ________  __  ________  __  _____
 72
65
 73
4
 40
101.6000000000000085
 49
63.5
 74
0
 49
-12.6999999999999993
 74
0
 49
12.6999999999999993
 74
0
 49
-12.6999999999999993
 74
0
  0
LTYPE
  5
56
100
AcDbSymbolTableRecord
100
AcDbLinetypeTableRecord
  2
ACAD_ISO10W100
 70
0
  3
ISO dash dot __ . __ . __ . __ . __ . __ . __ . 
 72
65
 73
4
 40
18.0
 49
12.0
 74
0
 49
-3.0
 74
0
 49
0.0
 74
0
 49
-3.0
 74
0
  0
LTYPE
  5
57
100
AcDbSymbolTableRecord
100
AcDbLinetypeTableRecord
  2
HIDDEN
 70
0
  3
Hidden __ __ __ __ __ __ __ __ __ __ __ __ __ __
 72
65
 73
2
 40
9.5249999999999986
 49
6.3499999999999996
 74
0
 49
-3.1749999999999998
 74
0
  0
LTYPE
  5
58
100
AcDbSymbolTableRecord
100
AcDbLinetypeTableRecord
  2
DASHEDX2
 70
0
  3
Dashed (2x) ____  ____  ____  ____  ____  ___
 72
65
 73
2
 40
38.0999999999999943
 49
25.3999999999999986
 74
0
 49
-12.6999999999999993
 74
0
  0
LTYPE
  5
59
100
AcDbSymbolTableRecord
100
AcDbLinetypeTableRecord
  2
PHANTOM2
 70
0
  3
Phantom (.5x) ___ _ _ ___ _ _ ___ _ _ ___ _ _
 72
65
 73
6
 40
31.7500000000000036
 49
15.875
 74
0
 49
-3.1749999999999998
 74
0
 49
3.1749999999999998
 74
0
 49
-3.1749999999999998
 74
0
 49
3.1749999999999998
 74
0
 49
-3.1749999999999998
 74
0
  0
LTYPE
  5
5A
100
AcDbSymbolTableRecord
100
AcDbLinetypeTableRecord
  2
ACAD_ISO11W100
 70
0
  3
ISO double-dash dot __ __ . __ __ . __ __ . __ _
 72
65
 73
6
 40
33.0
 49
12.0
 74
0
 49
-3.0
 74
0
 49
12.0
 74
0
 49
-3.0
 74
0
 49
0.0
 74
0
 49
-3.0
 74
0
  0
LTYPE
  5
5B
100
AcDbSymbolTableRecord
100
AcDbLinetypeTableRecord
  2
ACAD_ISO06W100
 70
0
  3
ISO long-dash triple-dot ____ ... ____ ... ____
 72
65
 73
8
 40
36.0
 49
24.0
 74
0
 49
-3.0
 74
0
 49
0.0
 74
0
 49
-3.0
 74
0
 49
0.0
 74
0
 49
-3.0
 74
0
 49
0.0
 74
0
 49
-3.0
 74
0
  0
ENDTAB
  0
TABLE
  2
LAYER
  5
2
100
AcDbSymbolTable
 70
4
  0
LAYER
  5
5C
100
AcDbSymbolTableRecord
100
AcDbLayerTableRecord
  2
Geometries
 70
0
 62
7
420
16777215
  6
Continuous
370
-3
390
F
  0
LAYER
  5
10
100
AcDbSymbolTableRecord
100
AcDbLayerTableRecord
  2
0
 70
0
 62
7
420
16777215
  6
Continuous
370
-3
390
F
  0
LAYER
  5
5D
100
AcDbSymbolTableRecord
100
AcDbLayerTableRecord
  2
Border
 70
0
 62
7
420
16777215
  6
Continuous
370
-3
390
F
  0
LAYER
  5
5E
100
AcDbSymbolTableRecord
100
AcDbLayerTableRecord
  2
Annotations
 70
0
 62
7
420
16777215
  6
Continuous
370
-3
390
F
  0
ENDTAB
  0
TABLE
  2
STYLE
  5
3
100
AcDbSymbolTable
 70
1
  0
STYLE
  5
5F
100
AcDbSymbolTableRecord
100
AcDbTextStyleTableRecord
  2
Standard
 70
0
 40
0.0
 41
1.0
 50
0.0
 71
0
 42
2.5
  3

  4

1001
ACAD
1000
txt
1071
0
  0
ENDTAB
  0
TABLE
  2
VIEW
  5
6
100
AcDbSymbolTable
 70
0
  0
ENDTAB
  0
TABLE
  2
UCS
  5
7
100
AcDbSymbolTable
 70
0
  0
ENDTAB
  0
TABLE
  2
APPID
  5
9
100
AcDbSymbolTable
 70
1
  0
APPID
  5
12
100
AcDbSymbolTableRecord
100
AcDbRegAppTableRecord
  2
ACAD
 70
0
  0
APPID
  5
60
100
AcDbSymbolTableRecord
100
AcDbRegAppTableRecord
  2
QCAD
 70
0
  0
ENDTAB
  0
TABLE
  2
DIMSTYLE
  5
A
100
AcDbSymbolTable
 70
1
100
AcDbDimStyleTable
 71
0
  0
DIMSTYLE
105
27
100
AcDbSymbolTableRecord
100
AcDbDimStyleTableRecord
  2
Standard
 41
2.5
 42
0.625
 43
3.75
 44
1.25
 70
0
 73
0
 74
0
 77
1
 78
8
140
2.5
141
2.5
143
0.03937007874016
147
0.7
171
3
172
1
271
2
272
2
274
3
278
44
283
0
284
8
340
5F
  0
ENDTAB
  0
TABLE
  2
BLOCK_RECORD
  5
1
100
AcDbSymbolTable
 70
1
  0
BLOCK_RECORD
  5
1F
100
AcDbSymbolTableRecord
100
AcDbBlockTableRecord
  2
*Model_Space
340
22
  0
BLOCK_RECORD
  5
1B
100
AcDbSymbolTableRecord
100
AcDbBlockTableRecord
  2
*Paper_Space
340
1E
  0
BLOCK_RECORD
  5
23
100
AcDbSymbolTableRecord
100
AcDbBlockTableRecord
  2
*Paper_Space0
340
26
  0
ENDTAB
  0
ENDSEC
  0
SECTION
  2
BLOCKS
  0
BLOCK
  5
20
100
AcDbEntity
  8
0
100
AcDbBlockBegin
  2
*Model_Space
 70
0
 10
0.0
 20
0.0
 30
0.0
  3
*Model_Space
  1

  0
ENDBLK
  5
21
100
AcDbEntity
  8
0
100
AcDbBlockEnd
  0
BLOCK
  5
1C
100
AcDbEntity
 67
1
  8
0
100
AcDbBlockBegin
  2
*Paper_Space
 70
0
 10
0.0
 20
0.0
 30
0.0
  3
*Paper_Space
  1

  0
ENDBLK
  5
1D
100
AcDbEntity
 67
1
  8
0
100
AcDbBlockEnd
  0
BLOCK
  5
24
100
AcDbEntity
  8
0
100
AcDbBlockBegin
  2
*Paper_Space0
 70
0
 10
0.0
 20
0.0
 30
0.0
  3
*Paper_Space0
  1

  0
ENDBLK
  5
25
100
AcDbEntity
  8
0
100
AcDbBlockEnd
  0
ENDSEC
  0
SECTION
  2
ENTITIES
  0
LWPOLYLINE
  5
61
100
AcDbEntity
  8
Geometries
 62
256
370
0
 48
1.0
  6
Continuous
100
AcDbPolyline
 90
952
 70
128
 10
110.922031149801299
 20
122.6008747723706023
 10
112.1042770098676016
 20
122.6374874659667
 10
113.288600829488999
 20
122.6744994766756065
 10
114.4749755858806992
 20
122.7119129806048932
 10
115.6633736665413039
 20
122.7497301704166972
 10
116.8754286708916936
 20
122.7886519913871979
 10
118.0895216080707968
 20
122.8279969510667939
 10
119.3056214475000019
 20
122.8677674168028062
 10
120.5236965248116974
 20
122.9079657737340057
 10
121.7437145418492008
 20
122.9485944247906986
 10
122.9656425666667019
 20
122.9896557906946981
 10
124.1894470335294045
 20
123.0311523099593956
 10
125.4150937429139958
 20
123.0730864388894048
 10
126.6425478615071967
 20
123.1154606515811025
 10
127.8717739222077938
 20
123.1582774399221023
 10
129.1773945573025912
 20
123.2041756058871016
 10
130.484923957505714
 20
123.2505774580339022
 10
131.7943174712482062
 20
123.2974860349429065
 10
133.105529644985296
 20
123.3449043977070971
 10
134.4185142231968939
 20
123.3928356299324065
 10
135.7332241483879045
 20
123.441282837737603
 10
137.2848535572883009
 20
123.4990479996134951
 10
138.8387332320706093
 20
123.5575393760831986
 10
140.3947818458943004
 20
123.6167621725225985
 10
141.9529165245824913
 20
123.6767216377440946
 10
143.5414369562211903
 20
123.7385336271885024
 10
145.1319417163543051
 20
123.8011204359412005
 10
146.7243383833217933
 20
123.8644877431470945
 10
148.3185328724879071
 20
123.9286412746338044
 10
149.9144294362399989
 20
123.9935868029110964
 10
151.5119306639892898
 20
124.0593301471712948
 10
153.1109374821706979
 20
124.1258771732891972
 10
154.7113491542422992
 20
124.1932337938219035
 10
156.3130632806856113
 20
124.2614059680092993
 10
157.9159757990061053
 20
124.3303997017733025
 10
159.9576124998330044
 20
124.419407668966997
 10
162.0007971401190048
 20
124.5097688224661994
 10
164.0453034960665093
 20
124.6014958722205961
 10
166.0909009804530001
 20
124.6946016506686021
 10
168.1373546426314078
 20
124.7890991127368068
 10
170.1889017687564092
 20
124.8852125833846003
 10
172.240823173341397
 20
124.9827502519147941
 10
174.2928691704082098
 20
125.081725528706599
 10
176.3447856722640097
 20
125.182151947702593
 10
178.3963141895015099
 20
125.2840431664084946
 10
180.4471918309990031
 20
125.3874129658933043
 10
182.4971513039209015
 20
125.4922752507893051
 10
184.1035012606076862
 20
125.5755401186226976
 10
185.7089871286362097
 20
125.6597377848092947
 10
187.3134744260003117
 20
125.744875109196002
 10
188.916827007717302
 20
125.8309589983123971
 10
190.518907065829211
 20
125.9179964053702037
 10
191.9741219234560106
 20
125.997954641029807
 10
193.4280646000968886
 20
126.0787119280999065
 10
194.8806304207168125
 20
126.1602733967216068
 10
196.3317155177917073
 20
126.2426440541326969
 10
197.7812168316000907
 20
126.3258287846444006
 10
199.2290321102223913
 20
126.4098323496416043
 10
200.6750599095418863
 20
126.4946593875828
 10
201.9989291764827044
 20
126.5731447625712036
 10
203.3211349734943099
 20
126.6523292666210949
 10
204.6416009516387078
 20
126.7322162003081019
 10
205.960251332341187
 20
126.812808777413693
 10
207.2770109073890126
 20
126.8941101249250067
 10
208.5918050389317102
 20
126.9761232830350934
 10
209.6946590114069124
 20
127.0455665862774026
 10
210.7960303059672071
 20
127.1155159316620029
 10
211.8958756174947951
 20
127.1859729791399047
 10
212.9941519248386896
 20
127.2569393454497941
 10
214.110740663177296
 20
127.3297209291553003
 10
215.2256137109849874
 20
127.4030337667736035
 10
216.3387265649722906
 20
127.476879426760604
 10
217.4500350270386093
 20
127.5512594311303047
 10
218.5594952042723094
 20
127.6261752554548963
 10
219.6473023448166089
 20
127.7002762332657966
 10
220.7332435679732043
 20
127.7748967544667948
 10
221.8172781501428972
 20
127.8500380861692065
 10
222.8993656516936994
 20
127.9257014522718947
 10
223.9990854606379003
 20
128.0032780941598105
 10
225.0967030305482126
 20
128.0813983502025053
 10
226.1921765830392985
 20
128.1600633741963975
 10
227.2854646449148959
 20
128.2392742734961928
 10
228.3765260481683015
 20
128.3190321090146995
 10
229.2840134747530954
 20
128.3859155037339121
 10
230.1899027427074031
 20
128.4531799830280931
 10
231.0941705136422115
 20
128.5208260869424066
 10
231.9967935963466914
 20
128.5888543331249991
 10
232.8977489467891075
 20
128.6572652168273976
 10
233.7970136681155964
 20
128.7260592109043955
 10
234.7760748440049099
 20
128.8015446689574901
 10
235.753067624803009
 20
128.8774871500968118
 10
236.7279628834560867
 20
128.9538871770201922
 10
237.7007317013585919
 20
129.0307452407053006
 10
238.6713453683526893
 20
129.1080618004091036
 10
239.6397753827297095
 20
129.1858372836684907
 10
240.6059934512290113
 20
129.264072086299592
 10
241.5801180013264116
 20
129.3435983150552033
 10
242.5519262949723895
 20
129.4235943095133052
 10
243.5213897836958097
 20
129.5040603794170977
 10
244.4884801364007956
 20
129.5849968014308899
 10
245.4531692393670141
 20
129.6664038191402994
 10
246.4154291962481125
 20
129.748281643052195
 10
247.2218300600802934
 20
129.8174229849429935
 10
248.0264810974850036
 20
129.886896740580994
 10
248.8293661297817891
 20
129.9567029806219125
 10
249.6304690865156033
 20
130.0268417592527896
 10
250.444290080282002
 20
130.0985974901037991
 10
251.2562303254630081
 20
130.1706980231078887
 10
252.0662732048211012
 20
130.2431433628366051
 10
252.8744022174325892
 20
130.3159334961613922
 10
253.6806009786868117
 20
130.3890683922541029
 10
254.4705087361568872
 20
130.4612328442003957
 10
255.2585235684541942
 20
130.5337297465424911
 10
256.044630280759975
 20
130.6065590202180999
 10
256.8288137864798841
 20
130.679720569696201
 10
257.6252637164556063
 20
130.7545536061082032
 10
258.4196886466023102
 20
130.8297308589976922
 10
259.2120729981908767
 20
130.9052521749019036
 10
260.0024013088058723
 20
130.9811173826585957
 10
260.7906582323444127
 20
131.0573262934057084
 10
261.5768285390158212
 20
131.1338787005813913
 10
262.3608971153436755
 20
131.2107743799238904
 10
263.1428489641634769
 20
131.2880130894718889
 10
263.9226692046241283
 20
131.3655945695639957
 10
264.7003430721870245
 20
131.4435185428390866
 10
265.4054444321274104
 20
131.5146554754250019
 10
266.1087489007941826
 20
131.5860749822107891
 10
266.8102456356170933
 20
131.6577768167298927
 10
267.5099238734696883
 20
131.7297607204268957
 10
268.2077729306686251
 20
131.8020264226568941
 10
268.9037822029737868
 20
131.87457364068581
 10
269.5979411655882814
 20
131.9474020796905052
 10
270.3457893963733909
 20
132.0263984756635125
 10
271.0914527410944856
 20
132.1057223434831087
 10
271.8349182409810965
 20
132.1853732638186898
 10
272.5761730454875078
 20
132.2653508008710901
 10
273.3286206868169756
 20
132.347117585821195
 10
274.0787499686919091
 20
132.4292220085852136
 10
274.826547672628692
 20
132.5116635565329943
 10
275.5720006964572235
 20
132.5944416993343111
 10
276.3150960543201222
 20
132.6775558889592048
 10
277.0558208766726125
 20
132.7610055596780114
 10
277.7941624102842866
 20
132.8447901280613053
 10
278.5301080182359783
 20
132.9289089929797001
 10
279.2636451799223209
 20
133.0133615356041901
 10
279.9947614910502125
 20
133.0981471194060077
 10
280.6573016026741243
 20
133.1755133753594862
 10
281.3178217058866153
 20
133.2531538272567957
 10
281.9763127314046187
 20
133.3310679587833079
 10
282.6327656893893732
 20
133.4092552415351918
 10
283.2871716694450015
 20
133.4877151350196982
 10
283.9395218406186814
 20
133.5664470866547049
 10
284.5898074514013842
 20
133.645450531768887
 10
285.1840815276972876
 20
133.7181083635578887
 10
285.776606890886228
 20
133.7909933876042885
 10
286.3673769760026175
 20
133.8641051421961095
 10
286.9563852741745222
 20
133.9374431570853972
 10
287.5436253326213887
 20
134.0110069534887032
 10
288.1290907546551239
 20
134.0847960440866871
 10
288.7657488914090891
 20
134.1655495980423893
 10
289.4002793637073978
 20
134.2465700250994871
 10
290.032674095308721
 20
134.3278566578285051
 10
290.6629250894141023
 20
134.4094088167105951
 10
291.2910244286694024
 20
134.4912258101381894
 10
291.9169642751630249
 20
134.5733069344140063
 10
292.5407368704263718
 20
134.6556514737519876
 10
293.1623345354345247
 20
134.7382587002765888
 10
293.7817496706060751
 20
134.8211278740232046
 10
294.3989747558026124
 20
134.9042582429381127
 10
295.0140023503286102
 20
134.9876490428781892
 10
295.62682509293262
 20
135.0712994976111929
 10
296.2374357018056799
 20
135.1552088188159075
 10
296.845826974582792
 20
135.2393762060814879
 10
297.4398903570531729
 20
135.3221098383203866
 10
298.0318088180172822
 20
135.4050897609349988
 10
298.6215758007373893
 20
135.4883151867919082
 10
299.2091848217521033
 20
135.5717853176068104
 10
299.8052538456145157
 20
135.6570236696038023
 10
300.3990723897119892
 20
135.7425140003730064
 10
300.9906338446174914
 20
135.8282554316598123
 10
301.5799316796573066
 20
135.9142470732257095
 10
302.1669594429084782
 20
136.0004880228480886
 10
302.6735889040543839
 20
136.0753886145849094
 10
303.1785063442833916
 20
136.150474965129888
 10
303.6817077140290166
 20
136.2257464663670135
 10
304.1831890080533753
 20
136.3012025034344958
 10
304.682946265447697
 20
136.3768424547249936
 10
305.211103542425974
 20
136.4572669163372893
 10
305.7373124526782249
 20
136.5378967954810889
 10
306.2615684340705116
 20
136.6187313256656921
 10
306.783866980561811
 20
136.6997697318647056
 10
307.3042036422029923
 20
136.7810112305157872
 10
307.8225740251376124
 20
136.8624550295209019
 10
308.3389737916008926
 20
136.9441003282464067
 10
308.8533986599213108
 20
137.025946317522596
 10
309.3658444045183842
 20
137.1079921796442989
 10
309.8763068559051135
 20
137.1902370883701963
 10
310.3847819006851978
 20
137.2726802089235036
 10
310.8912654815562746
 20
137.3553206979914876
 10
311.4415170678149138
 20
137.4456980555704888
 10
311.9893887681968749
 20
137.5363081665460072
 10
312.5348755436186821
 20
137.6271499013124071
 10
313.0779724344400847
 20
137.7182221181747082
 10
313.6186745604637736
 20
137.8095236633490117
 10
314.1569771209362898
 20
137.9010533709619892
 10
314.6928753945475137
 20
137.9928100630513086
 10
315.1819994135743741
 20
138.077118747517801
 10
315.6690957456568185
 20
138.1616162365905041
 10
316.1541609301082758
 20
138.246301596166802
 10
316.637191562336227
 20
138.3311738836088125
 10
317.1181842938390787
 20
138.4162321477425053
 10
317.5971358322087212
 20
138.5014754288582992
 10
318.1172966458304927
 20
138.5946779722989959
 10
318.6350202950175117
 20
138.6880982801546907
 10
319.1503027337271874
 20
138.781735071704702
 10
319.6631399953603818
 20
138.8755870541392881
 10
320.1735281927607843
 20
138.9696529225593906
 10
320.681463518216276
 20
139.0639313599768911
 10
321.1869422434572243
 20
139.1584210373146107
 10
321.6899607196568809
 20
139.253120613405514
 10
322.1905153774334849
 20
139.3480287349943012
 10
322.688602726847023
 20
139.4431440367357879
 10
323.1842193574009912
 20
139.5384651411960135
 10
323.6773619380430773
 20
139.6339906588513031
 10
324.1680272171628872
 20
139.7297191880894047
 10
324.6562120225942749
 20
139.8256493152084943
 10
325.1322235954054918
 20
139.919855056027302
 10
325.6058471139608059
 20
140.0142516889521005
 10
326.077079814713386
 20
140.1088378496249902
 10
326.5459190073923992
 20
140.2036121625368992
 10
327.0208206630903192
 20
140.3003015261440112
 10
327.4932355857222888
 20
140.3971830329556099
 10
327.9631611697387825
 20
140.4942551954314922
 10
328.4305948883422843
 20
140.591516514047413
 10
328.8955342934871169
 20
140.6889654772953122
 10
329.320460354648219
 20
140.7786530854235991
 10
329.7432775449785822
 20
140.8684965817201942
 10
330.1639841421892925
 20
140.9584947675440958
 10
330.5825784800833276
 20
141.0486464357184957
 10
330.9990589485561259
 20
141.1389503705310062
 10
331.4134239935955861
 20
141.2294053477334046
 10
331.8069795117377225
 20
141.3158885026527969
 10
332.198604926614621
 20
141.4025070782469129
 10
332.5882990296689172
 20
141.4892599879713089
 10
332.9760606589118197
 20
141.576146138195412
 10
333.3618886989225985
 20
141.663164428202009
 10
333.7457820808489828
 20
141.7503137501875869
 10
334.1277397824069908
 20
141.8375929892619922
 10
334.5077608278801904
 20
141.9250010234488002
 10
334.885844288120893
 20
142.0125367236848035
 10
335.2619892805495851
 20
142.1001989538208079
 10
335.6361949691548148
 20
142.187986570620609
 10
336.0084605644934186
 20
142.2758984237621007
 10
336.3787853236901242
 20
142.3639333558363091
 10
336.7471685504381753
 20
142.4520902023477902
 10
337.1136095949989908
 20
142.5403677917149139
 10
337.4781078542018804
 20
142.6287649452694097
 10
337.8840387442268138
 20
142.7279102395540065
 10
338.2875311946999091
 20
142.8272023511028124
 10
338.6885845662612269
 20
142.9266395923116875
 10
339.0871982928269972
 20
143.0262202644260014
 10
339.4235024477100069
 20
143.110824162369596
 10
339.7580496217398149
 20
143.1955290384240129
 10
340.0908395932340795
 20
143.2803338360243117
 10
340.421872178489707
 20
143.36523749282631
 10
340.7511472317813741
 20
143.4502389407066119
 10
341.0786646453622097
 20
143.5353371057622098
 10
341.4214118875264035
 20
143.6249888075512047
 10
341.7622127355455746
 20
143.714745146238414
 10
342.1010672001021931
 20
143.8046048497431002
 10
342.4379753384475862
 20
143.8945666388979987
 10
342.7729372544014268
 20
143.9846292274494886
 10
343.105953098350426
 20
144.0747913220573935
 10
343.4370230672510047
 20
144.1650516222952092
 10
343.766147404626679
 20
144.2554088206497909
 10
344.1324571686394052
 20
144.356722296868611
 10
344.4963271745065754
 20
144.4581538153919951
 10
344.8577579724131965
 20
144.5597015075985041
 10
345.2167501858198762
 20
144.6613634937156121
 10
345.5194378044946006
 20
144.74771037087271
 10
345.8203707888089866
 20
144.8341370087512132
 10
346.1195496437111956
 20
144.9206422402124019
 10
346.4169749121268751
 20
145.0072248923378879
 10
346.7126471749605798
 20
145.0938837864302116
 10
347.0065670510948053
 20
145.1806177380123017
 10
347.3507237993439958
 20
145.2829346347575097
 10
347.6924484859885069
 20
145.3853521762503078
 10
348.0317423273577901
 20
145.4878683924989957
 10
348.3686066130586028
 20
145.5904813023614963
 10
348.7091008952033917
 20
145.6950571887730916
 10
349.0470794007954964
 20
145.799729136632493
 10
349.3825437252166921
 20
145.9044950191272108
 10
349.7154955426012179
 20
146.0093526974609972
 10
350.0459366058353226
 20
146.1143000208533067
 10
350.3738687465577755
 20
146.2193348265396935
 10
350.699293875159583
 20
146.3244549397718117
 10
351.0222139807838175
 20
146.4296581738169891
 10
351.3426311313260157
 20
146.5349423299587954
 10
351.6605474734333825
 20
146.6403051974965877
 10
351.947394077979709
 20
146.7361560557095004
 10
352.2321774653814828
 20
146.8320684493463091
 10
352.5148994178820203
 20
146.9280406916913932
 10
352.7955617715131211
 20
147.0240710878439074
 10
353.0741664160951814
 20
147.120157934717696
 10
353.3507152952374781
 20
147.216299521041293
 10
353.6252104063382262
 20
147.3124941273582067
 10
353.8937417348162739
 20
147.4073525139345975
 10
354.1602820460439034
 20
147.5022590722375071
 10
354.4248333278845848
 20
147.59721215592009
 10
354.6873975670985146
 20
147.692210126359214
 10
354.9479767493418194
 20
147.7872513526550904
 10
355.2065728591680909
 20
147.8823342116311892
 10
355.4631878800278173
 20
147.9774570878348925
 10
355.7178237942662804
 20
148.0726183735366135
 10
356.000668869009985
 20
148.1792426380567917
 10
356.2810366195121219
 20
148.2859108402182926
 10
356.5589298258972235
 20
148.3926207557830139
 10
356.834351266553881
 20
148.4993701726660049
 10
357.0661058806848018
 20
148.5899747742236912
 10
357.2960846992157258
 20
148.6806048928750954
 10
357.5242894163762912
 20
148.7712591979588126
 10
357.7507217254951115
 20
148.8619363651125127
 10
357.975383319002276
 20
148.9526350762727134
 10
358.1982758884270197
 20
149.0433540196746094
 10
358.4587019270398969
 20
149.1502969732356121
 10
358.7166758514226217
 20
149.2572640910424866
 10
358.9722004259169239
 20
149.3642532593393923
 10
359.2252784131275121
 20
149.471262376523498
 10
359.4380946788747906
 20
149.5620720789889901
 10
359.6491532546492067
 20
149.6528933692609087
 10
359.8584558250386181
 20
149.7437249841653966
 10
360.06600407373179
 20
149.8345656668280128
 10
360.2717996835165764
 20
149.9254141666727946
 10
360.4758443362817957
 20
150.0162692394227122
 10
360.7183890231029864
 20
150.1253022603276861
 10
360.9584176554304236
 20
150.2343408366068047
 10
361.1959331344356769
 20
150.3433828540680111
 10
361.4309383594257952
 20
150.4524262115803026
 10
361.6634362278406911
 20
150.5614688210744134
 10
361.8726245576897895
 20
150.6605960706498877
 10
362.0797452592307764
 20
150.7597194373722118
 10
362.2848005053397742
 20
150.8588373805451965
 10
362.4877924676172256
 20
150.9579483683934882
 10
362.6887233163902238
 20
151.0570508780631087
 10
362.8875952207101818
 20
151.156143395620802
 10
363.0844103483548224
 20
151.2552244160544888
 10
363.2947321448489788
 20
151.3622526580629142
 10
363.5026585889780222
 20
151.4692638600924113
 10
363.7081924092121881
 20
151.5762561594827105
 10
363.9113363322863961
 20
151.6832277057270062
 10
364.1157211267642992
 20
151.7921209664195885
 10
364.3176340281714261
 20
151.9009888791559035
 10
364.5170779091457121
 20
152.0098295294799868
 10
364.7140556404604013
 20
152.1186410159970137
 10
364.9085700910218861
 20
152.2274214503734981
 10
365.1006241278710149
 20
152.3361689573374065
 10
365.2902206161826939
 20
152.4448816746777027
 10
365.4773624192657735
 20
152.5535577532448883
 10
365.6620523985632758
 20
152.6621953569506047
 10
365.8442934136529061
 20
152.7707926627680024
 10
366.0078443342247851
 20
152.8694809937101127
 10
366.1693758249048756
 20
152.9681331741296901
 10
366.3288900301204194
 20
153.0667478624608862
 10
366.4863890930255934
 20
153.1653237260590004
 10
366.641875155499406
 20
153.2638594412001964
 10
366.7953503581472887
 20
153.3623536930815874
 10
366.9468168402988795
 20
153.4608051758214913
 10
367.111112450225221
 20
153.569050860820596
 10
367.2729829393434215
 20
153.6772415122379982
 10
367.4324311497599069
 20
153.7853754293479085
 10
367.589459921713626
 20
153.8934509244857907
 10
367.7440720935791205
 20
154.0014663230485894
 10
367.8825339506719274
 20
154.0996085916115135
 10
368.0190030916248816
 20
154.1976985812781891
 10
368.1534816449355958
 20
154.2957350619959129
 10
368.2859717378273103
 20
154.3937168126325901
 10
368.4164754962487223
 20
154.4916426209777001
 10
368.5449950448747813
 20
154.5895112837413023
 10
368.6715325071052121
 20
154.6873216065546899
 10
368.7960900050657074
 20
154.7850724039703039
 10
368.918669659607076
 20
154.8827624994615064
 10
369.0392735903067205
 20
154.9803907254224953
 10
369.1579039154661928
 20
155.0779559231689859
 10
369.2745627521136953
 20
155.1754569429373021
 10
369.3892522160028875
 20
155.272892643885001
 10
369.5019744216120898
 20
155.3702618940905893
 10
369.6105355856955157
 20
155.4656182064678944
 10
369.7172114121963773
 20
155.5609085723480973
 10
369.8220038876833087
 20
155.6561319513131139
 10
369.9249149975489104
 20
155.7512873111735985
 10
370.0277662829503811
 20
155.8481018246781105
 10
370.1286713176945113
 20
155.9448436895910959
 10
370.227632193691818
 20
156.0415118426855088
 10
370.3246510015907802
 20
156.1381052295772918
 10
370.4197298307765891
 20
156.2346228047263992
 10
370.521943920180604
 20
156.3405624472900968
 10
370.6218221556277967
 20
156.446407988321198
 10
370.7193673017470132
 20
156.5521580786495122
 10
370.8145821213265094
 20
156.6578113819836062
 10
370.9074693753150882
 20
156.7633665749114869
 10
370.9980318228218152
 20
156.8688223468998899
 10
371.0823116300027777
 20
156.9693907374486912
 10
371.16447808228952
 20
157.0698662397805094
 10
371.2445335747000854
 20
157.1702477469115138
 10
371.3224805007253053
 20
157.2705341625502058
 10
371.3983212523281168
 20
157.3707244010973056
 10
371.4720582199441878
 20
157.470817387645809
 10
371.5436937924819176
 20
157.5708120579807883
 10
371.6132303573219247
 20
157.67070735857979
 10
371.6806703003176153
 20
157.7705022466124944
 10
371.7460160057950134
 20
157.8701956899406866
 10
371.8092698565520209
 20
157.9697866671187114
 10
371.87043423386001
 20
158.0692741673927912
 10
371.9295115174625153
 20
158.1686571907015093
 10
371.9865040855751204
 20
158.2679347476758096
 10
372.0414143148865946
 20
158.3671058596387979
 10
372.0942445805579268
 20
158.4661695586057988
 10
372.1398157071656101
 20
158.5548386102508118
 10
372.1837206176625159
 20
158.6434199790419939
 10
372.2259610174327236
 20
158.7319129905590955
 10
372.2665386108747043
 20
158.8203169772735066
 10
372.3054551014034814
 20
158.9086312785476025
 10
372.3449169020411205
 20
159.0021992296497046
 10
372.3825140974876717
 20
159.0956647881295964
 10
372.4182487163888027
 20
159.1890271912197079
 10
372.4521227861441162
 20
159.2822856848723063
 10
372.4841383329081737
 20
159.3754395237600079
 10
372.5142973815886762
 20
159.4684879712750103
 10
372.5453958950632227
 20
159.5709420631492037
 10
372.5742433801459015
 20
159.6732662258532969
 10
372.6008425444450154
 20
159.7754595093595924
 10
372.6251960937286754
 20
159.8775209765196053
 10
372.6473067319253119
 20
159.9794497030634091
 10
372.6671771611236181
 20
160.0812447776004035
 10
372.6840570880373207
 20
160.1782873002422036
 10
372.6989006401004758
 20
160.2752064556215998
 10
372.7117101627388251
 20
160.3720014839053079
 10
372.7224879998494202
 20
160.4686716359526031
 10
372.7312364938026121
 20
160.5652161733144965
 10
372.737957985441426
 20
160.6616343682347008
 10
372.7426548140809928
 20
160.7579255036488064
 10
372.7453293175092881
 20
160.8540888731849066
 10
372.7459838319866208
 20
160.9501237811631995
 10
372.7446206922456895
 20
161.0460295425961021
 10
372.7412422314920946
 20
161.1418054831883069
 10
372.7358507814042241
 20
161.2374509393366964
 10
372.7284486721318899
 20
161.3329652581305993
 10
372.7190382322987148
 20
161.4283477973513072
 10
372.7076217890000862
 20
161.5235979254723873
 10
372.694201667804009
 20
161.6187150216599093
 10
372.6767952350734845
 20
161.725087480939294
 10
372.6568815668595107
 20
161.8312914586012994
 10
372.6344639235940122
 20
161.9373261301878983
 10
372.6095455633048914
 20
162.0431906880656925
 10
372.5864440598268743
 20
162.1328811679672981
 10
372.5615465549813052
 20
162.2224481353237877
 10
372.5348550348530239
 20
162.3118911252909129
 10
372.506371484281317
 20
162.4012096817440067
 10
372.4760978868596908
 20
162.4904033572786943
 10
372.444036224936724
 20
162.5794717132104097
 10
372.4070064364390191
 20
162.676535715937689
 10
372.3678517945729141
 20
162.7734493898146866
 10
372.326574871227308
 20
162.8702122001305099
 10
372.2831782365246909
 20
162.9668236245458957
 10
372.2376644588196086
 20
163.0632831530932094
 10
372.1900361046991748
 20
163.1595902881763038
 10
372.1402957389842072
 20
163.2557445445704047
 10
372.0884459247258746
 20
163.3517454494225092
 10
372.0401988088773919
 20
163.4376316243020995
 10
371.9902620914381259
 20
163.5233939934661009
 10
371.9386376124562048
 20
163.6090322420893983
 10
371.8853272108394776
 20
163.6945460633203879
 10
371.8303327243576177
 20
163.7799351582812903
 10
371.7701670097990814
 20
163.8703627316471909
 10
371.7081111488686247
 20
163.9606493378701089
 10
371.6441673299345894
 20
164.0507946497745877
 10
371.5783377399238816
 20
164.1407983502745935
 10
371.5106245643228817
 20
164.2306601323737993
 10
371.4410299871761936
 20
164.3203796991653007
 10
371.3736909938040185
 20
164.404841918129307
 10
371.3046832413971856
 20
164.4891772233397091
 10
371.2340085570596102
 20
164.5733853905807109
 10
371.1616687667548149
 20
164.6574662036099994
 10
371.0876656953084876
 20
164.7414194541588017
 10
371.0073620790810196
 20
164.8303211639957055
 10
370.9251916882781757
 20
164.9190789263057013
 10
370.8411566958261005
 20
165.0076925220155886
 10
370.7552592732080825
 20
165.0961617421415042
 10
370.6675015904675092
 20
165.1844863877892919
 10
370.5778858162054235
 20
165.2726662701543034
 10
370.4864141175817736
 20
165.3607012105213983
 10
370.3930886603152999
 20
165.4485910402650006
 10
370.2979116086834779
 20
165.5363356008489859
 10
370.2008851255218929
 20
165.6239347438269078
 10
370.1020113722253768
 20
165.711388330841686
 10
370.0012925087473832
 20
165.7986962336260888
 10
369.8893155807493258
 20
165.8937749276225873
 10
369.7751481883058773
 20
165.9886799651609124
 10
369.6587931297548835
 20
166.0834112207980979
 10
369.5402532013923746
 20
166.1779685833809879
 10
369.4195311974733045
 20
166.2723519560464069
 10
369.2966299102112089
 20
166.3665612562205922
 10
369.1715521297780924
 20
166.4605964156199889
 10
369.0616978705647853
 20
166.5417293242417998
 10
368.950221674723025
 20
166.6227320846641931
 10
368.8371253399374723
 20
166.7036046786010957
 10
368.7224106627539868
 20
166.7843470957402872
 10
368.6060794385791723
 20
166.8649593337430019
 10
368.4809333627757155
 20
166.950314915660698
 10
368.3539730147613227
 20
167.0355240839483031
 10
368.2252005323633171
 20
167.1205868652193089
 10
368.0946180519675863
 20
167.2055032961768859
 10
367.9622277085188102
 20
167.2902734236137121
 10
367.828031635519892
 20
167.3748973044118884
 10
367.692031965033209
 20
167.4593750055431087
 10
367.5542308276790209
 20
167.5437066040686034
 10
367.4146303526367774
 20
167.6278921871391958
 10
367.2732326676439243
 20
167.7119318519953026
 10
367.1300398989969835
 20
167.7958257059665925
 10
366.9850541715512122
 20
167.8795738664726969
 10
366.8248455564192909
 20
167.9707694834202982
 10
366.6625084539613226
 20
168.0617920442753928
 10
366.4980456169475929
 20
168.1526417425635884
 10
366.3314597961078221
 20
168.2433187860999908
 10
366.1627537401296877
 20
168.3338233969896862
 10
365.9919301956601885
 20
168.4241558116274859
 10
365.8189919073042233
 20
168.5143162806980115
 10
365.6586097415947734
 20
168.5968125539938001
 10
365.4964550190961745
 20
168.6791647823883977
 10
365.3325298493318201
 20
168.7613731906174053
 10
365.1668363403849753
 20
168.8434380135055903
 10
364.9993765988970722
 20
168.9253594959677116
 10
364.8301527300682778
 20
169.0071378930076094
 10
364.6435353652183267
 20
169.0961878132150105
 10
364.4548237759514109
 20
169.1850681234762135
 10
364.2640206895209189
 20
169.2737791959389995
 10
364.07112883113831
 20
169.3623214170407039
 10
363.8761509239744782
 20
169.4506951875088134
 10
363.6790896891587863
 20
169.5389009223601988
 10
363.4799478457787814
 20
169.6269390509019104
 10
363.2787281108804791
 20
169.7148100167304108
 10
363.0754331994691029
 20
169.8025142777322003
 10
362.870065824508174
 20
169.8900523060835042
 10
362.66262869691991
 20
169.9774245882501873
 10
362.4531245255848262
 20
170.0646316249880954
 10
362.2415560173423046
 20
170.1516739313427138
 10
362.0279258769903095
 20
170.2385520366495086
 10
361.8165707487157761
 20
170.3235337958334128
 10
361.6032407666078825
 20
170.408358903353701
 10
361.3879384706942233
 20
170.4930278973612872
 10
361.1706663991203072
 20
170.5775413291877101
 10
360.9474227254829088
 20
170.6634321219445098
 10
360.7221423012642845
 20
170.7491628394616043
 10
360.4948277995690091
 20
170.8347341058100142
 10
360.2654818914784869
 20
170.9201465592265095
 10
360.0341072460502119
 20
171.0054008521128992
 10
359.7761252547861091
 20
171.099408044716597
 10
359.51567379967139
 20
171.193223916705108
 10
359.2527564714682171
 20
171.286849408192694
 10
358.9873768579237208
 20
171.3802854803988112
 10
358.7195385437706818
 20
171.4735331156483937
 10
358.4492451107261104
 20
171.5665933173713995
 10
358.1765001374926101
 20
171.6594671101032077
 10
357.9068350254510165
 20
171.7503035805927141
 10
357.6348222509100765
 20
171.8409630318674033
 10
357.3604651736882261
 20
171.9314464872080066
 10
357.0837671508219273
 20
172.0217549893623072
 10
356.799636545426722
 20
172.1135268087934094
 10
356.5130861101536084
 20
172.2051194984697986
 10
356.2241193796135121
 20
172.2965342212611972
 10
355.9327398854292142
 20
172.3877721609590026
 10
355.6389511562342136
 20
172.478834522276486
 10
355.3480669796458074
 20
172.5681010524259875
 10
355.0548655820820159
 20
172.6572005818420905
 10
354.7593502980790277
 20
172.7461343107767107
 10
354.461524459392308
 20
172.8349034589483892
 10
354.1559130947663903
 20
172.9251187760937967
 10
353.8479133535004735
 20
173.0151660867815053
 10
353.5375287435199994
 20
173.1050467406817859
 10
353.2247627697611279
 20
173.1947621083868114
 10
352.9096189370636125
 20
173.2843135798794094
 10
352.5921007754201923
 20
173.373702551165195
 10
352.2722118611355882
 20
173.462930413071291
 10
351.9499558183346153
 20
173.5519985504473937
 10
351.6253363189637753
 20
173.6409083421652895
 10
351.2983570827906874
 20
173.7296611611193953
 10
350.9990586956420202
 20
173.8102104762891997
 10
350.6978160908665814
 20
173.8906322143546106
 10
350.3946321660674812
 20
173.9709273939305092
 10
350.0895098515093764
 20
174.0510970295493109
 10
349.7824521101197206
 20
174.1311421316601127
 10
349.4734619374880253
 20
174.2110637066298864
 10
349.1625423618664854
 20
174.2908627567422002
 10
348.8244735158338017
 20
174.376937693152513
 10
348.4841602011924806
 20
174.4628720403783859
 10
348.1416063649757007
 20
174.5486670461966128
 10
347.7968159987128729
 20
174.6343239528216884
 10
347.4434629928119875
 20
174.721397647646711
 10
347.0877998810078111
 20
174.8083307572665035
 10
346.72983101871381
 20
174.8951245751196097
 10
346.3695608091642271
 20
174.9817803886670049
 10
346.0069937034148211
 20
175.0682994793920102
 10
345.6421342003413884
 20
175.1546831228002077
 10
345.2749868466415251
 20
175.240932588419696
 10
344.9055562368330925
 20
175.3270491398010051
 10
344.5338470132555244
 20
175.4130340345168975
 10
344.1598638660686902
 20
175.4988885241625098
 10
343.8179099332789974
 20
175.5768259470468138
 10
343.4740842339056144
 20
175.6546575582171954
 10
343.128390394620908
 20
175.7323842851550069
 10
342.7808320747607809
 20
175.8100070512583954
 10
342.4314129663233075
 20
175.887526775843213
 10
342.0801367939683928
 20
175.9649443741421919
 10
341.7270073150186249
 20
176.0422607573053995
 10
341.3364288433788261
 20
176.1271929577658
 10
340.943617547449719
 20
176.212004986977405
 10
340.548578565169521
 20
176.2966980405630011
 10
340.1513170822979077
 20
176.3812733081678914
 10
339.7518383324143088
 20
176.4657319734600094
 10
339.3257317289749153
 20
176.5551832418834977
 10
338.8971432559952746
 20
176.6445060684924897
 10
338.4660793337976088
 20
176.7337018434303957
 10
338.032546443214585
 20
176.8227719492765004
 10
337.5965511255902811
 20
176.9117177610465887
 10
337.1580999827800156
 20
177.0005406461924053
 10
336.7171996771498925
 20
177.0892419646017117
 10
336.2738569315769155
 20
177.1778230685983999
 10
335.8280785294497264
 20
177.266285302942606
 10
335.3798713146672981
 20
177.3546300048305966
 10
334.9292421916400144
 20
177.4428585038945982
 10
334.4761981252897272
 20
177.5309721222031101
 10
334.0415006419265183
 20
177.6149746171246875
 10
333.6046153285918763
 20
177.6988747722591029
 10
333.1655483972605793
 20
177.7826737181758858
 10
332.7243061101440844
 20
177.8663725791649881
 10
332.2808947796900725
 20
177.9499724732368122
 10
331.8353207685842108
 20
178.0334745121220124
 10
331.3875904897474811
 20
178.116879801272006
 10
330.9377104063383968
 20
178.2001894398582067
 10
330.5061880389059752
 20
178.2796409290120039
 10
330.0727176773190195
 20
178.3590071704869047
 10
329.6373050746300919
 20
178.4382891048628892
 10
329.1999560256339237
 20
178.517487667501797
 10
328.7606763668679264
 20
178.5966037885480091
 10
328.3194719766115099
 20
178.6756383929279082
 10
327.8763487748868215
 20
178.754592400349992
 10
327.4313127234577792
 20
178.8334667253054135
 10
326.9306088246925128
 20
178.9217124927060922
 10
326.4275214758249035
 20
179.0098607165664077
 10
325.922059239196301
 20
179.0979126583688981
 10
325.4142307428293179
 20
179.1858695713856093
 10
324.894746802548525
 20
179.2753293517534985
 10
324.3728280339507819
 20
179.3646932125228091
 10
323.8484837541698766
 20
179.4539624503410096
 10
323.3217233509304833
 20
179.5431383530317078
 10
322.7925562825486736
 20
179.6322221995947075
 10
322.2705052611622136
 20
179.7196268872021108
 10
321.7461510447258206
 20
179.8069451973422019
 10
321.2195027926928219
 20
179.8941783168583015
 10
320.6905697301984901
 20
179.981327424383494
 10
320.1496818057044038
 20
180.0699759538094895
 10
319.6064447401892039
 20
180.1585398285216115
 10
319.0608684810645741
 20
180.2470202663826058
 10
318.5129630463338799
 20
180.3354184764314994
 10
317.9627385245908044
 20
180.4237356588830892
 10
317.410205075020599
 20
180.5119730051287092
 10
316.8553729273999124
 20
180.6001316977352076
 10
316.2982523820958249
 20
180.6882129104461967
 10
315.7388538100676101
 20
180.7762178081808884
 10
315.1771876528642906
 20
180.8641475470348041
 10
314.6646231605342905
 20
180.9440194183156905
 10
314.1502012662987227
 20
181.023830978717001
 10
313.6339299669243132
 20
181.1035830778457125
 10
313.1158173073936837
 20
181.183276559282092
 10
312.5958713809033043
 20
181.2629122605798102
 10
312.0741003288645743
 20
181.3424910132652883
 10
311.550512340903424
 20
181.422013642838408
 10
310.9828180168557878
 20
181.5078643599850921
 10
310.4130230834829263
 20
181.5936515536182014
 10
309.8411380573118095
 20
181.6793762409469082
 10
309.2671735205520918
 20
181.7650394309698072
 10
308.6806477033691749
 20
181.8521979833101909
 10
308.0919884176768164
 20
181.9392948668655094
 10
307.5012070433365921
 20
182.0263311204423076
 10
306.9083150308027257
 20
182.1133077740230135
 10
306.3133239011189062
 20
182.2002258487663084
 10
305.7162452459210726
 20
182.2870863570072117
 10
305.1170907274354818
 20
182.3738903022563989
 10
304.5158720784808111
 20
182.4606386792009971
 10
303.9126011024654872
 20
182.5473324737039889
 10
303.3072896733893913
 20
182.6339726628048084
 10
302.6630763242536091
 20
182.7258062746255973
 10
302.0165954741436849
 20
182.8175818198421894
 10
301.3678615497702253
 20
182.9093004315818973
 10
300.7168890671674717
 20
183.0009632318063098
 10
300.0636926316929021
 20
183.0925713313114898
 10
299.4082869380283114
 20
183.1841258297284867
 10
298.7883227800052737
 20
183.2704005263994134
 10
298.1664202428813155
 20
183.3566294437513875
 10
297.542591861646315
 20
183.4428134761998024
 10
296.9168502418812068
 20
183.5289535093363043
 10
296.2892080597588915
 20
183.6150504199285933
 10
295.6214643378378923
 20
183.7063191705832139
 10
294.9516123353176908
 20
183.7975414142219108
 10
294.2796674359482836
 20
183.8887181643418103
 10
293.6056451128034723
 20
183.9798504232745131
 10
292.9295609282808073
 20
184.0709391821864926
 10
292.2514305341010754
 20
184.1619854210784126
 10
291.57126967130921
 20
184.2529901087856956
 10
290.8890941702733812
 20
184.3439542029780966
 10
290.2049199506860191
 20
184.4348786501601865
 10
289.5187630215626768
 20
184.5257643856708114
 10
288.8306394812432814
 20
184.6166123336834062
 10
288.1405655173908826
 20
184.7074234072061074
 10
287.3855522356071788
 20
184.8064490370815065
 10
286.6282584144643124
 20
184.9054330120052896
 10
285.8687054336647861
 20
185.0043764718462
 10
285.1069147994199966
 20
185.1032805406591137
 10
284.3429081444501207
 20
185.2021463266854937
 10
283.5767072279846275
 20
185.300974922353106
 10
282.8083339357609134
 20
185.3997674042761901
 10
282.0651197416592026
 20
185.4950298604179864
 10
281.3199245834442763
 20
185.5902606393682959
 10
280.5727684387845784
 20
185.6854606655923874
 10
279.823671394874907
 20
185.7806308498649912
 10
279.0726536484356188
 20
185.8757720892697876
 10
278.3197355057146183
 20
185.9708852672000035
 10
277.5649373824847999
 20
186.0659712533577874
 10
276.8082798040463217
 20
186.1610309037546926
 10
275.958641252599989
 20
186.2674674858801041
 10
275.1067252413319011
 20
186.3738732516812888
 10
274.2525610961375833
 20
186.4802493426271042
 10
273.3961783152540761
 20
186.5865968786430926
 10
272.521976097949107
 20
186.6948498030619135
 10
271.6455360958693177
 20
186.8030753998143894
 10
270.7668899963828153
 20
186.9112747821928906
 10
269.8860696720781789
 20
187.0194490403368945
 10
269.0031071807661078
 20
187.127599241233213
 10
268.1338579446272092
 20
187.2337957819422058
 10
267.2626041859031716
 20
187.3399710910412068
 10
266.3893767972314208
 20
187.4461261141559874
 10
265.5142068435915803
 20
187.5522617753694874
 10
264.6211611336119063
 20
187.6603082155477011
 10
263.7261671177748781
 20
187.7683364486694018
 10
262.8292581372123209
 20
187.8763473813062888
 10
261.9304677182773275
 20
187.984341896877396
 10
261.0298295725451112
 20
188.092320855648893
 10
260.12737759681238
 20
188.2002850947343973
 10
259.2231458730971099
 20
188.3082354280946902
 10
258.317168668638999
 20
188.4161726465380013
 10
257.409480435899809
 20
188.5240975177196958
 10
256.5001158125622851
 20
188.6320107861425868
 10
255.5338451376804016
 20
188.7464523775730072
 10
254.5657696632322882
 20
188.8608825605506922
 10
253.5959313970853088
 20
188.9753021379335962
 10
252.6243725814800882
 20
189.0897118832826038
 10
251.6511356930309944
 20
189.2041125408620132
 10
250.6762634427250021
 20
189.318504825639593
 10
249.5017535285759891
 20
189.4560655999661094
 10
248.3250156546766902
 20
189.5936163912955124
 10
247.1461254576946942
 20
189.7311582748538115
 10
245.9651590645584918
 20
189.8686922645846096
 10
244.7821930924577885
 20
190.0062193131487049
 10
243.5973046488427087
 20
190.1437403119242902
 10
242.4105713314251886
 20
190.2812560910070943
 10
241.0869061034271965
 20
190.434393457024413
 10
239.7611583087775102
 20
190.587526273974305
 10
238.4334372656689141
 20
190.740655419973109
 10
237.1038530463461882
 20
190.8937816788802877
 10
235.772516477105512
 20
191.046905740299195
 10
234.4395391382948901
 20
191.2000281995765931
 10
233.1050333643134991
 20
191.353149557802908
 10
231.7691122436123123
 20
191.5062702218120023
 10
229.9858793056517072
 20
191.7104305539452866
 10
228.2006046034755116
 20
191.9145906770116881
 10
226.4135622886319084
 20
192.1187507695229044
 10
224.6250261695732036
 20
192.3229106486923001
 10
222.8352664412936122
 20
192.5270696943796906
 10
221.0445492772213072
 20
192.7312268396003105
 10
218.7644831638939138
 20
192.991058021104692
 10
216.4838215016415006
 20
193.2508794668611927
 10
214.2030847709825991
 20
193.5106858366436029
 10
211.9227829002790884
 20
193.7704706177640048
 10
209.6434152657388097
 20
194.0302261250728009
 10
207.3654706914140036
 20
194.2899435009589126
 10
205.7092348521915142
 20
194.4788809569541002
 10
204.0541864724521872
 20
194.6677886879882919
 10
202.4005033015116908
 20
194.8566621120818922
 10
200.7483601314773978
 20
195.0454963186761859
 10
199.3478773932124
 20
195.2056846354703055
 10
197.948730395898707
 20
195.3658375664570883
 10
196.5510209020696095
 20
195.5259515555204075
 10
195.1548491415545925
 20
195.6860228762431859
 10
193.76031381147871
 20
195.8460476319083909
 10
192.3675120762626136
 20
196.0060217554982103
 10
190.9765395676230924
 20
196.165941009694194
 10
189.5874903845721917
 20
196.3258009868777947
 10
188.2004570934180094
 20
196.4855971091299125
 10
186.8155307277642976
 20
196.6453246282306964
 10
185.4328007885106047
 20
196.8049786256601124
 10
184.0523552438521904
 20
196.9645540125974037
 10
182.8946096461567095
 20
197.09853274493139
 10
181.738587327598708
 20
197.232449091849503
 10
180.5843379199851881
 20
197.3662997585992116
 10
179.4319102920337059
 20
197.5000813656401135
 10
178.2604509216797055
 20
197.6362208296135066
 10
177.0909800129406051
 20
197.7722813610101866
 10
175.9235467104697079
 20
197.9082591216472053
 10
174.7581993388008073
 20
198.0441501822172938
 10
173.5949854023488967
 20
198.1799505222886921
 10
172.4314153041410123
 20
198.3159526555033096
 10
171.2700810344105946
 20
198.4518553110495986
 10
170.1110279306330995
 20
198.5876541665942909
 10
168.9543005029686924
 20
198.7233448078798119
 10
167.7999424342613963
 20
198.8589227287249059
 10
166.6479965800403988
 20
198.9943833310242951
 10
165.498504968518688
 20
199.1297219247487078
 10
164.5990466331267044
 20
199.2357389580625977
 10
163.7011416521382898
 20
199.3416757167418893
 10
162.8048092116864893
 20
199.4475298221676951
 10
161.9100681853431922
 20
199.553298860991589
 10
161.0169371341187059
 20
199.6589803851364024
 10
160.0714565600428045
 20
199.7709684503828953
 10
159.127828934217689
 20
199.8828522735556135
 10
158.1860752484294892
 20
199.994628805883309
 10
157.2462160989589108
 20
200.1062949546495133
 10
156.3082716865824011
 20
200.2178475831927926
 10
155.3722618165710969
 20
200.3292835109066914
 10
154.4915275519450972
 20
200.4342418862835871
 10
153.6125462609996077
 20
200.5390909122675112
 10
152.7353335780331918
 20
200.643827815591095
 10
151.8599048247824896
 20
200.7484497882578012
 10
150.9862750104227871
 20
200.8529539875420937
 10
150.0616800960316084
 20
200.963659869877489
 10
149.1391424594858108
 20
201.0742265577979992
 10
148.2186788550187089
 20
201.1846505316929097
 10
147.3003056413585909
 20
201.2949282280065972
 10
146.3840387817292878
 20
201.4050560392385023
 10
145.4698938438494906
 20
201.5150303139429866
 10
144.5578859999328074
 20
201.6248473567295889
 10
143.6480300266883887
 20
201.7345034282627978
 10
142.7403403053199895
 20
201.8439947452619094
 10
141.8348308215267082
 20
201.9533174805013971
 10
140.9315151655029865
 20
202.0624677628109112
 10
140.030406531937814
 20
202.171441677074796
 10
139.1723279683118051
 20
202.2752940696514941
 10
138.3162828092416987
 20
202.3789786755066871
 10
137.4622815221800067
 20
202.4824919774482908
 10
136.6103342462288879
 20
202.5858304218008925
 10
135.7604507921396078
 20
202.6889904184058082
 10
134.9126406423116862
 20
202.7919683406205138
 10
134.0669129507942046
 20
202.8947605253194126
 10
133.2232765432852091
 20
202.9973632728930966
 10
132.4068573622537031
 20
203.0967153387290978
 10
131.5924218048876924
 20
203.1958821604744116
 10
130.7799770431510922
 20
203.2948602619424037
 10
129.9695299581817949
 20
203.3936461346322915
 10
129.146406771529513
 20
203.4940269507758899
 10
128.3253680426273888
 20
203.5942010417107895
 10
127.5064201055012063
 20
203.6941646008056921
 10
126.6895689816151958
 20
203.7939137867006991
 10
125.8748203798720056
 20
203.8934447233064873
 10
125.0621796966131996
 20
203.9927534998051044
 10
124.2516520156182054
 20
204.0918361706490884
 10
123.4432421081058067
 20
204.1906887555622063
 10
122.636954432732395
 20
204.289307239539113
 10
121.8327931355936045
 20
204.3876875728452944
 10
120.9822226491098007
 20
204.4917655584542899
 10
120.1340525921232967
 20
204.5955661412359063
 10
119.2882867585605027
 20
204.6990843615454878
 10
118.4449285468432009
 20
204.8023152157932998
 10
117.6039809598878065
 20
204.9052536564445859
 10
116.7654466051064048
 20
205.0078945920197953
 10
115.9770408152558048
 20
205.1043932274401129
 10
115.1907838410961062
 20
205.2006184817973065
 10
114.4066769020104033
 20
205.2965659801670029
 10
113.6247209048205065
 20
205.3922313128952055
 10
112.8449164437867012
 20
205.4876100355994026
 10
112.0202024968411934
 20
205.5884511011028053
 10
111.1979090462075987
 20
205.688959337795211
 10
110.3780356482599956
 20
205.7891293151928949
 10
109.5605814638676065
 20
205.8889555588669964
 10
108.7455452583943014
 20
205.9884325504434912
 10
107.9329254016997055
 20
206.0875547276037878
 10
107.1227198681376933
 20
206.1863164840839033
 10
106.3149262365584065
 20
206.28471216967489
 10
105.5095416903056957
 20
206.3827360902232044
 10
104.7065630172196933
 20
206.480382507629912
 10
103.9059866096348941
 20
206.5776456398511129
 10
103.1078084643811934
 20
206.6745196608981985
 10
102.3481443288912942
 20
206.7666219421610947
 10
101.5906572198801001
 20
206.8583591912363033
 10
100.8353426471201004
 20
206.9497262289673927
 10
100.0821957920339997
 20
207.0407178397144889
 10
99.3312115076921174
 20
207.1313287713543048
 10
98.5823843188149738
 20
207.2215537352801107
 10
97.835708421771173
 20
207.3113874064015931
 10
97.091177684579236
 20
207.4008244231453943
 10
96.3578632547787208
 20
207.4887716165447102
 10
95.6266289290956593
 20
207.5763213063569879
 10
94.897467854561242
 20
207.6634682207296123
 10
94.1703728656444241
 20
207.7502070530806861
 10
93.4453364842538292
 20
207.8365324620997114
 10
92.6785993479195866
 20
207.9276319536363076
 10
91.9141594625839389
 20
208.0182538869163125
 10
91.1520067538198191
 20
208.1083917613669882
 10
90.3921307516948076
 20
208.1980390324704047
 10
89.6345205907718423
 20
208.2871891117636949
 10
88.8791650101088777
 20
208.3758353668389987
 10
88.1260523532591264
 20
208.4639711213434055
 10
87.375170568270633
 20
208.5515896549790114
 10
86.6265072076866431
 20
208.6386842035030895
 10
85.8800494285457034
 20
208.7252479587276923
 10
85.1357839923811071
 20
208.8112740685201061
 10
84.3936972813590103
 20
208.8967556425658927
 10
83.6873615215665154
 20
208.9778374140823871
 10
82.982986321085292
 20
209.0584108876284972
 10
82.2805596758075239
 20
209.1384702613549109
 10
81.5800695937859643
 20
209.2180098185401107
 10
80.8815040952350728
 20
209.2970239275908
 10
80.1848512125300772
 20
209.3755070420415052
 10
79.490098990207855
 20
209.4534537005550021
 10
78.7972354849655119
 20
209.5308585269220885
 10
78.0733912464586695
 20
209.6113623846470091
 10
77.3515930875407207
 20
209.6912597889798064
 10
76.6318273191328956
 20
209.7705448591516983
 10
75.9140802668047741
 20
209.8492118169320122
 10
75.1983382707743147
 20
209.9272549866286113
 10
74.484587685907627
 20
210.0046687950874116
 10
73.7082058642413074
 20
210.0883960130626917
 10
72.9341600891160624
 20
210.1713607674267905
 10
72.1624327050830914
 20
210.2535562402308074
 10
71.3930060774400204
 20
210.3349757587508861
 10
70.6258625922305043
 20
210.4156127954877036
 10
69.8609846562449945
 20
210.4954609681664977
 10
69.0983546970198859
 20
210.5745140397374087
 10
68.3379551628386821
 20
210.6527659183749961
 10
67.5797685227303191
 20
210.730210657478608
 10
66.8237772664705858
 20
210.8068424556724096
 10
66.0699639045818969
 20
210.8826556568049
 10
65.3183109683326109
 20
210.9576447499495089
 10
64.5688010097377401
 20
211.0318043694043979
 10
63.8214166015584112
 20
211.1051292946920057
 10
63.0910253152624421
 20
211.1761730093097924
 10
62.3626423268045187
 20
211.2464055674466863
 10
61.6362512918001073
 20
211.315822461583906
 10
60.9118358850004711
 20
211.3844193181525952
 10
60.1762622695438623
 20
211.4534164708076958
 10
59.4427026806015135
 20
211.5215547680730026
 10
58.7111399473150968
 20
211.5888300214863023
 10
57.9815569193923679
 20
211.6552381865465122
 10
57.2539364671065698
 20
211.7207753627139084
  0
LINE
  5
62
100
AcDbEntity
  8
Geometries
 62
256
370
0
 48
1.0
  6
Continuous
100
AcDbLine
 10
84.1868139123287733
 20
121.8600344881411957
 30
0.0
 11
84.1868139123287733
 21
151.5620046123306111
 31
0.0
  0
LINE
  5
63
100
AcDbEntity
  8
Geometries
 62
256
370
0
 48
1.0
  6
Continuous
100
AcDbLine
 10
94.5220311498013217
 20
162.9815332526746943
 30
0.0
 11
110.922031149801299
 21
162.9815332526746943
 31
0.0
  0
LWPOLYLINE
  5
64
100
AcDbEntity
  8
Geometries
 62
256
370
0
 48
1.0
  6
Continuous
100
AcDbPolyline
 90
25
 70
128
 10
84.3868139123287619
 20
121.8649669843940018
 10
85.385459264303222
 20
121.8897322994760941
 10
86.3860928582863892
 20
121.9147746925449951
 10
87.388705421140557
 20
121.9400954068592995
 10
88.3932873177906515
 20
121.9656956958299929
 10
89.3998285512234503
 20
121.9915768230280975
 10
90.4695017858822865
 20
122.0193348082921005
 10
91.5413545889040279
 20
122.0474116693737017
 10
92.6153736985549187
 20
122.0758089512559934
 10
93.6915453951178421
 20
122.1045282117786996
 10
94.7698555008917083
 20
122.1335710216379056
 10
95.8502893801912279
 20
122.1629389643860009
 10
96.9328319393472384
 20
122.1926336364315944
 10
98.0174676267071874
 20
122.2226566470397984
 10
99.104180432633953
 20
122.2530096183321007
 10
100.1929538895064979
 20
122.2836941852861941
 10
101.2837710717200963
 20
122.3147119957362037
 10
102.3766145956858935
 20
122.3460647103726018
 10
103.571097588231595
 20
122.3806515954900931
 10
104.7679470685217069
 20
122.4156412263373994
 10
105.9671386030856013
 20
122.4510358112918027
 10
107.1686471098129942
 20
122.4868375769385977
 10
108.3724468579520988
 20
122.5230487680718028
 10
109.5785114681100936
 20
122.5596716476937047
 10
110.786813912252498
 20
122.5967084970150012
  0
LINE
  5
65
100
AcDbEntity
  8
Geometries
 62
256
370
0
 48
1.0
  6
Continuous
100
AcDbLine
 10
55.7885319737781558
 20
121.2781215846433156
 30
0.0
 11
57.2539364671077919
 21
211.7207753627263003
 31
0.0
  0
LWPOLYLINE
  5
66
100
AcDbEntity
  8
Geometries
 62
256
370
0
 48
1.0
  6
Continuous
100
AcDbPolyline
 90
29
 70
128
 10
55.7885319737781558
 20
121.2781215846433156
 10
58.2667226313335789
 20
121.2980419935900045
 10
59.2819438894713571
 20
121.3171450004071943
 10
60.2996012661815826
 20
121.3365348554410019
 10
61.3196952999316807
 20
121.356212770046497
 10
62.3422260429973676
 20
121.3761799692263992
 10
63.2739135897733433
 20
121.3945840425796945
 10
64.2076139184151486
 20
121.4132291580144027
 10
65.1433260221599255
 20
121.432116265257207
 10
66.0810485621682062
 20
121.4512463233569974
 10
67.0207798675249933
 20
121.4706203006845016
 10
67.9625179352391342
 20
121.4902391749322987
 10
68.9062604302437478
 20
121.5101039331149053
 10
69.8520046853967358
 20
121.5302155715688031
 10
70.7997477014785943
 20
121.5505750959521976
 10
71.7494861471954835
 20
121.5711835212455014
 10
72.7012163591770673
 20
121.5920418717507943
 10
73.6549343419774232
 20
121.6131511810919932
 10
74.6106357680747294
 20
121.6345124922151939
 10
75.5683159778711513
 20
121.6561268573882018
 10
76.5087575903813786
 20
121.6775554713399998
 10
77.4510898262606702
 20
121.699229145768399
 10
78.3953073716680251
 20
121.7211488971171036
 10
79.3414046064662557
 20
121.743315750428593
 10
80.3066287461236357
 20
121.7661405878653937
 10
81.27378882217414
 20
121.789223766284195
 10
82.2428779235755201
 20
121.8125663951362014
 10
83.2138888100990926
 20
121.836169593113695
 10
84.1868139123286596
 20
121.8600344881494948
  0
LINE
  5
67
100
AcDbEntity
  8
Geometries
 62
256
370
0
 48
1.0
  6
Continuous
100
AcDbLine
 10
110.922031149801299
 20
162.981533252674808
 30
0.0
 11
110.922031149801299
 21
122.6008747723682006
 31
0.0
  0
ARC
  5
68
100
AcDbEntity
  8
Geometries
 62
256
370
0
 48
1.0
  6
Continuous
100
AcDbCircle
 10
84.1868139123286596
 20
159.6620046123306054
 30
0.0
 40
8.0999999999999996
100
AcDbArc
 50
271.4148543942034735
 51
270.0000000000007958
  0
LINE
  5
69
100
AcDbEntity
  8
Geometries
 62
256
370
0
 48
1.0
  6
Continuous
100
AcDbLine
 10
94.5220311498013217
 20
142.5815332526746886
 30
0.0
 11
94.5220311498013217
 21
162.9815332526746943
 31
0.0
  0
LINE
  5
6A
100
AcDbEntity
  8
Geometries
 62
256
370
0
 48
1.0
  6
Continuous
100
AcDbLine
 10
110.7868139123287961
 20
142.5815332526746886
 30
0.0
 11
94.5220311498013217
 21
142.5815332526746886
 31
0.0
  0
LINE
  5
6B
100
AcDbEntity
  8
Geometries
 62
256
370
0
 48
1.0
  6
Continuous
100
AcDbLine
 10
110.7868139123287961
 20
142.5815332526746886
 30
0.0
 11
110.786813912252498
 21
122.5967084970150012
 31
0.0
  0
LINE
  5
6C
100
AcDbEntity
  8
Geometries
 62
256
370
0
 48
1.0
  6
Continuous
100
AcDbLine
 10
84.3868139123287619
 20
151.5644741245831142
 30
0.0
 11
84.3868139123287619
 21
121.8649669843940018
 31
0.0
  0
ENDSEC
  0
SECTION
  2
OBJECTS
  0
DICTIONARY
  5
C
100
AcDbDictionary
280
0
281
1
  3
ACAD_GROUP
350
D
  3
ACAD_LAYOUT
350
1A
  3
ACAD_MLINESTYLE
350
17
  3
ACAD_PLOTSETTINGS
350
19
  3
ACAD_PLOTSTYLENAME
350
E
  3
AcDbVariableDictionary
350
6D
  3
QCAD_OBJECTS
350
6E
  0
DICTIONARY
  5
D
100
AcDbDictionary
280
0
281
1
  0
ACDBDICTIONARYWDFLT
  5
E
100
AcDbDictionary
281
1
  3
Normal
350
F
100
AcDbDictionaryWithDefault
340
F
  0
ACDBPLACEHOLDER
  5
F
  0
DICTIONARY
  5
17
100
AcDbDictionary
280
0
281
1
  3
Standard
350
18
  0
MLINESTYLE
  5
18
100
AcDbMlineStyle
  2
STANDARD
 70
0
  3

 62
256
 51
90.0
 52
90.0
 71
2
 49
0.5
 62
256
  6
BYLAYER
 49
-0.5
 62
256
  6
BYLAYER
  0
DICTIONARY
  5
19
100
AcDbDictionary
280
0
281
1
  0
DICTIONARY
  5
1A
100
AcDbDictionary
281
1
  3
Layout1
350
1E
  3
Layout2
350
26
  3
Model
350
22
  0
LAYOUT
  5
1E
100
AcDbPlotSettings
  1

  2
none_device
  4

  6

 40
0.0
 41
0.0
 42
0.0
 43
0.0
 44
0.0
 45
0.0
 46
0.0
 47
0.0
 48
0.0
 49
0.0
140
0.0
141
0.0
142
1.0
143
1.0
 70
688
 72
0
 73
0
 74
5
  7

 75
16
147
1.0
148
0.0
149
0.0
100
AcDbLayout
  1
Layout1
 70
1
 71
1
 10
0.0
 20
0.0
 11
420.0
 21
297.0
 12
0.0
 22
0.0
 32
0.0
 14
100000000000000000000.0
 24
100000000000000000000.0
 34
100000000000000000000.0
 15
-100000000000000000000.0
 25
-100000000000000000000.0
 35
-100000000000000000000.0
146
0.0
 13
0.0
 23
0.0
 33
0.0
 16
1.0
 26
0.0
 36
0.0
 17
0.0
 27
1.0
 37
0.0
 76
0
330
1B
  0
LAYOUT
  5
22
100
AcDbPlotSettings
  1

  2
none_device
  4

  6

 40
0.0
 41
0.0
 42
0.0
 43
0.0
 44
0.0
 45
0.0
 46
0.0
 47
0.0
 48
0.0
 49
0.0
140
0.0
141
0.0
142
1.0
143
1.0
 70
1712
 72
0
 73
0
 74
0
  7

 75
0
147
1.0
148
0.0
149
0.0
100
AcDbLayout
  1
Model
 70
1
 71
0
 10
0.0
 20
0.0
 11
12.0
 21
9.0
 12
0.0
 22
0.0
 32
0.0
 14
0.0
 24
0.0
 34
0.0
 15
0.0
 25
0.0
 35
0.0
146
0.0
 13
0.0
 23
0.0
 33
0.0
 16
1.0
 26
0.0
 36
0.0
 17
0.0
 27
1.0
 37
0.0
 76
0
330
1F
  0
LAYOUT
  5
26
100
AcDbPlotSettings
  1

  2
none_device
  4

  6

 40
0.0
 41
0.0
 42
0.0
 43
0.0
 44
0.0
 45
0.0
 46
0.0
 47
0.0
 48
0.0
 49
0.0
140
0.0
141
0.0
142
1.0
143
1.0
 70
688
 72
0
 73
0
 74
5
  7

 75
16
147
1.0
148
0.0
149
0.0
100
AcDbLayout
  1
Layout2
 70
1
 71
2
 10
0.0
 20
0.0
 11
12.0
 21
9.0
 12
0.0
 22
0.0
 32
0.0
 14
0.0
 24
0.0
 34
0.0
 15
0.0
 25
0.0
 35
0.0
146
0.0
 13
0.0
 23
0.0
 33
0.0
 16
1.0
 26
0.0
 36
0.0
 17
0.0
 27
1.0
 37
0.0
 76
0
330
23
  0
DICTIONARY
  5
6D
100
AcDbDictionary
281
1
  3
DIMASSOC
350
70
  3
HIDETEXT
350
6F
  0
DICTIONARYVAR
  5
6F
100
DictionaryVariables
280
0
  1
2
  0
DICTIONARYVAR
  5
70
100
DictionaryVariables
280
0
  1
1
  0
DICTIONARY
  5
6E
100
AcDbDictionary
281
1
  3
ColorSettings/BackgroundColor
350
71
  3
ColorSettings/ColorMode
350
72
  3
Grid/DisplayGrid00
350
73
  3
Grid/DisplayGrid01
350
74
  3
Grid/DisplayGrid02
350
75
  3
Grid/DisplayGrid03
350
76
  3
Grid/GridSpacingX00
350
77
  3
Grid/GridSpacingX01
350
78
  3
Grid/GridSpacingX02
350
79
  3
Grid/GridSpacingX03
350
7A
  3
Grid/GridSpacingY00
350
7B
  3
Grid/GridSpacingY01
350
7C
  3
Grid/GridSpacingY02
350
7D
  3
Grid/GridSpacingY03
350
7E
  3
Grid/IsometricGrid00
350
7F
  3
Grid/IsometricGrid01
350
80
  3
Grid/IsometricGrid02
350
81
  3
Grid/IsometricGrid03
350
82
  3
Grid/IsometricProjection00
350
83
  3
Grid/IsometricProjection01
350
84
  3
Grid/IsometricProjection02
350
85
  3
Grid/IsometricProjection03
350
86
  3
Grid/MetaGridSpacingX00
350
87
  3
Grid/MetaGridSpacingX01
350
88
  3
Grid/MetaGridSpacingX02
350
89
  3
Grid/MetaGridSpacingX03
350
8A
  3
Grid/MetaGridSpacingY00
350
8B
  3
Grid/MetaGridSpacingY01
350
8C
  3
Grid/MetaGridSpacingY02
350
8D
  3
Grid/MetaGridSpacingY03
350
8E
  3
MultiPageSettings/Columns
350
8F
  3
MultiPageSettings/GlueMarginsBottom
350
90
  3
MultiPageSettings/GlueMarginsLeft
350
91
  3
MultiPageSettings/GlueMarginsRight
350
92
  3
MultiPageSettings/GlueMarginsTop
350
93
  3
MultiPageSettings/PrintCropMarks
350
94
  3
MultiPageSettings/Rows
350
95
  3
PageSettings/OffsetX
350
96
  3
PageSettings/OffsetY
350
97
  3
PageSettings/PageOrientation
350
98
  3
PageSettings/PaperHeight
350
99
  3
PageSettings/PaperWidth
350
9A
  3
PageSettings/Scale
350
9B
  3
PageSettings/ShowPaperBorders
350
9C
  3
PageTagSettings/EnablePageTags
350
9D
  3
PageTagSettings/TagAlignment
350
9E
  3
PageTagSettings/TagFont
350
9F
  3
PageTagSettings/TagPosition
350
A0
  3
QCADVersion
350
A1
  3
UnitSettings/PaperUnit
350
A2
  3
ViewportCenter
350
A3
  3
ViewportHeight
350
A4
  3
ViewportWidth
350
A5
  0
XRECORD
  5
71
330
6E
100
AcDbXrecord
280
1
1000
White
  0
XRECORD
  5
72
330
6E
100
AcDbXrecord
280
1
1000
FullColor
  0
XRECORD
  5
73
330
6E
100
AcDbXrecord
280
1
290
1
  0
XRECORD
  5
74
330
6E
100
AcDbXrecord
280
1
290
1
  0
XRECORD
  5
75
330
6E
100
AcDbXrecord
280
1
290
1
  0
XRECORD
  5
76
330
6E
100
AcDbXrecord
280
1
290
1
  0
XRECORD
  5
77
330
6E
100
AcDbXrecord
280
1
1000
auto
  0
XRECORD
  5
78
330
6E
100
AcDbXrecord
280
1
1000
auto
  0
XRECORD
  5
79
330
6E
100
AcDbXrecord
280
1
1000
auto
  0
XRECORD
  5
7A
330
6E
100
AcDbXrecord
280
1
1000
auto
  0
XRECORD
  5
7B
330
6E
100
AcDbXrecord
280
1
1000
auto
  0
XRECORD
  5
7C
330
6E
100
AcDbXrecord
280
1
1000
auto
  0
XRECORD
  5
7D
330
6E
100
AcDbXrecord
280
1
1000
auto
  0
XRECORD
  5
7E
330
6E
100
AcDbXrecord
280
1
1000
auto
  0
XRECORD
  5
7F
330
6E
100
AcDbXrecord
280
1
290
0
  0
XRECORD
  5
80
330
6E
100
AcDbXrecord
280
1
290
0
  0
XRECORD
  5
81
330
6E
100
AcDbXrecord
280
1
290
0
  0
XRECORD
  5
82
330
6E
100
AcDbXrecord
280
1
290
0
  0
XRECORD
  5
83
330
6E
100
AcDbXrecord
280
1
 90
65537
  0
XRECORD
  5
84
330
6E
100
AcDbXrecord
280
1
 90
65537
  0
XRECORD
  5
85
330
6E
100
AcDbXrecord
280
1
 90
65537
  0
XRECORD
  5
86
330
6E
100
AcDbXrecord
280
1
 90
65537
  0
XRECORD
  5
87
330
6E
100
AcDbXrecord
280
1
1000
auto
  0
XRECORD
  5
88
330
6E
100
AcDbXrecord
280
1
1000
auto
  0
XRECORD
  5
89
330
6E
100
AcDbXrecord
280
1
1000
auto
  0
XRECORD
  5
8A
330
6E
100
AcDbXrecord
280
1
1000
auto
  0
XRECORD
  5
8B
330
6E
100
AcDbXrecord
280
1
1000
auto
  0
XRECORD
  5
8C
330
6E
100
AcDbXrecord
280
1
1000
auto
  0
XRECORD
  5
8D
330
6E
100
AcDbXrecord
280
1
1000
auto
  0
XRECORD
  5
8E
330
6E
100
AcDbXrecord
280
1
1000
auto
  0
XRECORD
  5
8F
330
6E
100
AcDbXrecord
280
1
 90
1
  0
XRECORD
  5
90
330
6E
100
AcDbXrecord
280
1
 40
10.0
  0
XRECORD
  5
91
330
6E
100
AcDbXrecord
280
1
 40
10.0
  0
XRECORD
  5
92
330
6E
100
AcDbXrecord
280
1
 40
10.0
  0
XRECORD
  5
93
330
6E
100
AcDbXrecord
280
1
 40
10.0
  0
XRECORD
  5
94
330
6E
100
AcDbXrecord
280
1
290
0
  0
XRECORD
  5
95
330
6E
100
AcDbXrecord
280
1
 90
1
  0
XRECORD
  5
96
330
6E
100
AcDbXrecord
280
1
 40
0.0
  0
XRECORD
  5
97
330
6E
100
AcDbXrecord
280
1
 40
0.0
  0
XRECORD
  5
98
330
6E
100
AcDbXrecord
280
1
1000
Portrait
  0
XRECORD
  5
99
330
6E
100
AcDbXrecord
280
1
 40
297.0
  0
XRECORD
  5
9A
330
6E
100
AcDbXrecord
280
1
 40
210.0
  0
XRECORD
  5
9B
330
6E
100
AcDbXrecord
280
1
1000
1:1
  0
XRECORD
  5
9C
330
6E
100
AcDbXrecord
280
1
290
1
  0
XRECORD
  5
9D
330
6E
100
AcDbXrecord
280
1
290
0
  0
XRECORD
  5
9E
330
6E
100
AcDbXrecord
280
1
1000
Inside
  0
XRECORD
  5
9F
330
6E
100
AcDbXrecord
280
1
1000
Arial,10,-1,5,50,0,0,0,0,0
  0
XRECORD
  5
A0
330
6E
100
AcDbXrecord
280
1
1000
TopLeft
  0
XRECORD
  5
A1
330
6E
100
AcDbXrecord
280
1
1000
3.32.2
  0
XRECORD
  5
A2
330
6E
100
AcDbXrecord
280
1
 90
4
  0
XRECORD
  5
A4
330
6E
100
AcDbXrecord
280
1
 40
8.6830663678423434
  0
XRECORD
  5
A5
330
6E
100
AcDbXrecord
280
1
 40
19.0540233923594471
  0
ENDSEC
  0
EOF
