999
dxflib 3.26.4.0
  0
SECTION
  2
HEADER
  9
$ACADVER
  1
AC1015
  9
$HANDSEED
  5
FFFF
  9
$ANGBASE
 50
0.0
  9
$ANGDIR
 70
0
  9
$ATTMODE
 70
1
  9
$AUNITS
 70
0
  9
$AUPREC
 70
0
  9
$CECOLOR
 62
256
  9
$CELTSCALE
 40
1.0
  9
$CHAMFERA
 40
0.0
  9
$CHAMFERB
 40
0.0
  9
$CHAMFERC
 40
0.0
  9
$CHAMFERD
 40
0.0
  9
$CMLJUST
 70
0
  9
$CMLSCALE
 40
20.0
  9
$DIMADEC
 70
2
  9
$DIMALT
 70
0
  9
$DIMALTD
 70
3
  9
$DIMALTF
 40
0.0393700787401575
  9
$DIMALTRND
 40
0.0
  9
$DIMALTTD
 70
3
  9
$DIMALTTZ
 70
0
  9
$DIMALTU
 70
2
  9
$DIMALTZ
 70
0
  9
$DIMAPOST
  1

  9
$DIMASZ
 40
2.5
  9
$DIMATFIT
 70
3
  9
$DIMAUNIT
 70
0
  9
$DIMAZIN
 70
0
  9
$DIMBLK
  1
0
  9
$DIMBLK1
  1
0
  9
$DIMBLK2
  1
0
  9
$DIMCEN
 40
2.5
  9
$DIMCLRD
 70
0
  9
$DIMCLRE
 70
0
  9
$DIMDEC
 70
2
  9
$DIMDLE
 40
0.0
  9
$DIMDLI
 40
3.75
  9
$DIMDSEP
 70
44
  9
$DIMEXE
 40
1.25
  9
$DIMEXO
 40
0.625
  9
$DIMFRAC
 70
2
  9
$DIMGAP
 40
0.7
  9
$DIMJUST
 70
0
  9
$DIMLDRBLK
  1

  9
$DIMLFAC
 40
1.0
  9
$DIMLIM
 70
0
  9
$DIMLUNIT
 70
2
  9
$DIMLWD
 70
15
  9
$DIMLWE
 70
15
  9
$DIMPOST
  1

  9
$DIMRND
 40
0.01
  9
$DIMSAH
 70
0
  9
$DIMSCALE
 40
1.0
  9
$DIMSD1
 70
0
  9
$DIMSD2
 70
0
  9
$DIMSE1
 70
0
  9
$DIMSE2
 70
0
  9
$DIMSOXD
 70
0
  9
$DIMTAD
 70
1
  9
$DIMTDEC
 70
2
  9
$DIMTFAC
 40
1.0
  9
$DIMTIH
 70
0
  9
$DIMTIX
 70
0
  9
$DIMTM
 40
0.0
  9
$DIMTOFL
 70
1
  9
$DIMTOH
 70
0
  9
$DIMTOL
 70
0
  9
$DIMTOLJ
 70
0
  9
$DIMTP
 40
0.0
  9
$DIMTSZ
 40
0.0
  9
$DIMTVP
 40
0.0
  9
$DIMTXSTY
  7
Standard
  9
$DIMTXT
 40
2.5
  9
$DIMTZIN
 70
8
  9
$DIMUPT
 70
0
  9
$DIMZIN
 70
8
  9
$DISPSILH
 70
0
  9
$DWGCODEPAGE
  3
ANSI_1252
  9
$ELEVATION
 40
0.0
  9
$EXTMAX
 10
-100000000000000000000.0
 20
-100000000000000000000.0
 30
-100000000000000000000.0
  9
$EXTMIN
 10
100000000000000000000.0
 20
100000000000000000000.0
 30
100000000000000000000.0
  9
$FILLETRAD
 40
0.0
  9
$FILLMODE
 70
1
  9
$INSBASE
 10
0.0
 20
0.0
 30
0.0
  9
$INSUNITS
 70
4
  9
$LIMCHECK
 70
0
  9
$LIMMAX
 10
420.0
 20
297.0
  9
$LIMMIN
 10
0.0
 20
0.0
  9
$LTSCALE
 40
1.0
  9
$LUNITS
 70
2
  9
$LUPREC
 70
4
  9
$MAXACTVP
 70
64
  9
$MEASUREMENT
 70
1
  9
$MIRRTEXT
 70
1
  9
$ORTHOMODE
 70
0
  9
$PDMODE
 70
0
  9
$PDSIZE
 40
0.0
  9
$PELEVATION
 40
0.0
  9
$PEXTMAX
 10
0.0
 20
0.0
 30
0.0
  9
$PEXTMIN
 10
0.0
 20
0.0
 30
0.0
  9
$PINSBASE
 10
0.0
 20
0.0
 30
0.0
  9
$PLIMCHECK
 70
0
  9
$PLIMMAX
 10
277.0
 20
202.5
  9
$PLIMMIN
 10
-20.0
 20
-7.5
  9
$PLINEGEN
 70
0
  9
$PLINEWID
 40
0.0
  9
$PROXYGRAPHICS
 70
1
  9
$PSLTSCALE
 70
1
  9
$PUCSNAME
  2

  9
$PUCSORG
 10
0.0
 20
0.0
 30
0.0
  9
$PUCSXDIR
 10
1.0
 20
0.0
 30
0.0
  9
$PUCSYDIR
 10
0.0
 20
1.0
 30
0.0
  9
$QTEXTMODE
 70
0
  9
$REGENMODE
 70
1
  9
$SHADEDGE
 70
3
  9
$SHADEDIF
 70
70
  9
$SKETCHINC
 40
1.0
  9
$SKPOLY
 70
0
  9
$SPLFRAME
 70
0
  9
$SPLINESEGS
 70
8
  9
$SPLINETYPE
 70
6
  9
$SURFTAB1
 70
6
  9
$SURFTAB2
 70
6
  9
$SURFTYPE
 70
6
  9
$SURFU
 70
6
  9
$SURFV
 70
6
  9
$TEXTSIZE
 40
2.5
  9
$TEXTSTYLE
  7
Standard
  9
$THICKNESS
 40
0.0
  9
$TILEMODE
 70
0
  9
$TRACEWID
 40
1.0
  9
$TREEDEPTH
 70
3020
  9
$UCSNAME
  2

  9
$UCSORG
 10
0.0
 20
0.0
 30
0.0
  9
$UCSXDIR
 10
1.0
 20
0.0
 30
0.0
  9
$UCSYDIR
 10
0.0
 20
1.0
 30
0.0
  9
$UNITMODE
 70
0
  9
$USERI1
 70
0
  9
$USERI2
 70
0
  9
$USERI3
 70
0
  9
$USERI4
 70
0
  9
$USERI5
 70
0
  9
$USERR1
 40
0.0
  9
$USERR2
 40
0.0
  9
$USERR3
 40
0.0
  9
$USERR4
 40
0.0
  9
$USERR5
 40
0.0
  9
$USRTIMER
 70
1
  9
$VISRETAIN
 70
1
  0
ENDSEC
  0
SECTION
  2
TABLES
  0
TABLE
  2
VPORT
  5
8
100
AcDbSymbolTable
 70
1
  0
VPORT
  5
30
100
AcDbSymbolTableRecord
100
AcDbViewportTableRecord
  2
*Active
 70
0
 10
0.0
 20
0.0
 11
1.0
 21
1.0
 12
286.3055555555554861
 22
148.5
 13
0.0
 23
0.0
 14
10.0
 24
10.0
 15
10.0
 25
10.0
 16
0.0
 26
0.0
 36
1.0
 17
0.0
 27
0.0
 37
0.0
 40
297.0
 41
1.92798353909465
 42
50.0
 43
0.0
 44
0.0
 50
0.0
 51
0.0
 71
0
 72
100
 73
1
 74
3
 75
1
 76
1
 77
0
 78
0
281
0
 65
1
110
0.0
120
0.0
130
0.0
111
1.0
121
0.0
131
0.0
112
0.0
122
1.0
132
0.0
 79
0
146
0.0
  0
ENDTAB
  0
TABLE
  2
LTYPE
  5
5
100
AcDbSymbolTable
 70
46
  0
LTYPE
  5
16
100
AcDbSymbolTableRecord
100
AcDbLinetypeTableRecord
  2
Continuous
 70
0
  3
Solid line
 72
65
 73
0
 40
0.0
  0
LTYPE
  5
31
100
AcDbSymbolTableRecord
100
AcDbLinetypeTableRecord
  2
DASHED
 70
0
  3
Dashed __ __ __ __ __ __ __ __ __ __ __ __ __ _
 72
65
 73
2
 40
19.0499999999999972
 49
12.6999999999999993
 74
0
 49
-6.3499999999999996
 74
0
  0
LTYPE
  5
32
100
AcDbSymbolTableRecord
100
AcDbLinetypeTableRecord
  2
DOTX2
 70
0
  3
Dot (2x) .  .  .  .  .  .  .  .  .  .  .  .  .  .
 72
65
 73
2
 40
12.6999999999999993
 49
0.0
 74
0
 49
-12.6999999999999993
 74
0
  0
LTYPE
  5
33
100
AcDbSymbolTableRecord
100
AcDbLinetypeTableRecord
  2
DASHDOT2
 70
0
  3
Dash dot (.5x) _._._._._._._._._._._._._._._.
 72
65
 73
4
 40
12.6999999999999993
 49
6.3499999999999996
 74
0
 49
-3.1749999999999998
 74
0
 49
0.0
 74
0
 49
-3.1749999999999998
 74
0
  0
LTYPE
  5
34
100
AcDbSymbolTableRecord
100
AcDbLinetypeTableRecord
  2
ACAD_ISO05W100
 70
0
  3
ISO long-dash double-dot ____ .. ____ .. ____ . 
 72
65
 73
6
 40
33.0
 49
24.0
 74
0
 49
-3.0
 74
0
 49
0.0
 74
0
 49
-3.0
 74
0
 49
0.0
 74
0
 49
-3.0
 74
0
  0
LTYPE
  5
35
100
AcDbSymbolTableRecord
100
AcDbLinetypeTableRecord
  2
HIDDENX2
 70
0
  3
Hidden (2x) ____ ____ ____ ____ ____ ____ ____ 
 72
65
 73
2
 40
19.0499999999999972
 49
12.6999999999999993
 74
0
 49
-6.3499999999999996
 74
0
  0
LTYPE
  5
36
100
AcDbSymbolTableRecord
100
AcDbLinetypeTableRecord
  2
CENTER2
 70
0
  3
Center (.5x) ___ _ ___ _ ___ _ ___ _ ___ _ ___
 72
65
 73
4
 40
28.5750000000000028
 49
19.0500000000000007
 74
0
 49
-3.1749999999999998
 74
0
 49
3.1749999999999998
 74
0
 49
-3.1749999999999998
 74
0
  0
LTYPE
  5
37
100
AcDbSymbolTableRecord
100
AcDbLinetypeTableRecord
  2
ACAD_ISO03W100
 70
0
  3
ISO dash space __    __    __    __    __    __
 72
65
 73
2
 40
30.0
 49
12.0
 74
0
 49
-18.0
 74
0
  0
LTYPE
  5
38
100
AcDbSymbolTableRecord
100
AcDbLinetypeTableRecord
  2
DIVIDE2
 70
0
  3
Divide (.5x) __..__..__..__..__..__..__..__.._
 72
65
 73
6
 40
15.875
 49
6.3499999999999996
 74
0
 49
-3.1749999999999998
 74
0
 49
0.0
 74
0
 49
-3.1749999999999998
 74
0
 49
0.0
 74
0
 49
-3.1749999999999998
 74
0
  0
LTYPE
  5
39
100
AcDbSymbolTableRecord
100
AcDbLinetypeTableRecord
  2
PHANTOMX2
 70
0
  3
Phantom (2x) ____________    ____    ____   _
 72
65
 73
6
 40
127.0000000000000142
 49
63.5
 74
0
 49
-12.6999999999999993
 74
0
 49
12.6999999999999993
 74
0
 49
-12.6999999999999993
 74
0
 49
12.6999999999999993
 74
0
 49
-12.6999999999999993
 74
0
  0
LTYPE
  5
3A
100
AcDbSymbolTableRecord
100
AcDbLinetypeTableRecord
  2
BORDER
 70
0
  3
Border __ __ . __ __ . __ __ . __ __ . __ __ .
 72
65
 73
6
 40
44.4499999999999957
 49
12.6999999999999993
 74
0
 49
-6.3499999999999996
 74
0
 49
12.6999999999999993
 74
0
 49
-6.3499999999999996
 74
0
 49
0.0
 74
0
 49
-6.3499999999999996
 74
0
  0
LTYPE
  5
3B
100
AcDbSymbolTableRecord
100
AcDbLinetypeTableRecord
  2
DraftedLine
 70
0
  3

 72
65
 73
2
 40
3.0
 49
2.0
 74
0
 49
-1.0
 74
0
  0
LTYPE
  5
3C
100
AcDbSymbolTableRecord
100
AcDbLinetypeTableRecord
  2
PHANTOM
 70
0
  3
Phantom ______  __  __  ______  __  __  ______ 
 72
65
 73
6
 40
63.5000000000000071
 49
31.75
 74
0
 49
-6.3499999999999996
 74
0
 49
6.3499999999999996
 74
0
 49
-6.3499999999999996
 74
0
 49
6.3499999999999996
 74
0
 49
-6.3499999999999996
 74
0
  0
LTYPE
  5
3D
100
AcDbSymbolTableRecord
100
AcDbLinetypeTableRecord
  2
CENTER
 70
0
  3
Center ____ _ ____ _ ____ _ ____ _ ____ _ ____
 72
65
 73
4
 40
50.8000000000000043
 49
31.75
 74
0
 49
-6.3499999999999996
 74
0
 49
6.3499999999999996
 74
0
 49
-6.3499999999999996
 74
0
  0
LTYPE
  5
3E
100
AcDbSymbolTableRecord
100
AcDbLinetypeTableRecord
  2
CenterLine
 70
0
  3

 72
65
 73
4
 40
8.0
 49
5.0
 74
0
 49
-1.0
 74
0
 49
1.0
 74
0
 49
-1.0
 74
0
  0
LTYPE
  5
3F
100
AcDbSymbolTableRecord
100
AcDbLinetypeTableRecord
  2
ACAD_ISO13W100
 70
0
  3
ISO double-dash double-dot __ __ . . __ __ . . _
 72
65
 73
8
 40
36.0
 49
12.0
 74
0
 49
-3.0
 74
0
 49
12.0
 74
0
 49
-3.0
 74
0
 49
0.0
 74
0
 49
-3.0
 74
0
 49
0.0
 74
0
 49
-3.0
 74
0
  0
LTYPE
  5
40
100
AcDbSymbolTableRecord
100
AcDbLinetypeTableRecord
  2
SectionLineANSI
 70
0
  3

 72
65
 73
7
 40
11.9944444444445182
 49
4.23333333333336
 74
0
 49
-1.05833333333334
 74
0
 49
0.17638888888889
 74
0
 49
-1.05833333333334
 74
0
 49
0.17638888888889
 74
0
 49
-1.05833333333334
 74
0
 49
4.23333333333336
 74
0
  0
LTYPE
  5
15
100
AcDbSymbolTableRecord
100
AcDbLinetypeTableRecord
  2
ByLayer
 70
0
  3

 72
65
 73
0
 40
0.0
  0
LTYPE
  5
41
100
AcDbSymbolTableRecord
100
AcDbLinetypeTableRecord
  2
ACAD_ISO09W100
 70
0
  3
ISO long-dash double-short-dash ____ __ __ ____
 72
65
 73
6
 40
45.0
 49
24.0
 74
0
 49
-3.0
 74
0
 49
6.0
 74
0
 49
-3.0
 74
0
 49
6.0
 74
0
 49
-3.0
 74
0
  0
LTYPE
  5
42
100
AcDbSymbolTableRecord
100
AcDbLinetypeTableRecord
  2
ACAD_ISO04W100
 70
0
  3
ISO long-dash dot ____ . ____ . ____ . ____ . _
 72
65
 73
4
 40
30.0
 49
24.0
 74
0
 49
-3.0
 74
0
 49
0.0
 74
0
 49
-3.0
 74
0
  0
LTYPE
  5
43
100
AcDbSymbolTableRecord
100
AcDbLinetypeTableRecord
  2
ACAD_ISO15W100
 70
0
  3
ISO double-dash triple-dot __ __ . . . __ __ . .
 72
65
 73
10
 40
39.0
 49
12.0
 74
0
 49
-3.0
 74
0
 49
12.0
 74
0
 49
-3.0
 74
0
 49
0.0
 74
0
 49
-3.0
 74
0
 49
0.0
 74
0
 49
-3.0
 74
0
 49
0.0
 74
0
 49
-3.0
 74
0
  0
LTYPE
  5
14
100
AcDbSymbolTableRecord
100
AcDbLinetypeTableRecord
  2
ByBlock
 70
0
  3

 72
65
 73
0
 40
0.0
  0
LTYPE
  5
44
100
AcDbSymbolTableRecord
100
AcDbLinetypeTableRecord
  2
DASHED2
 70
0
  3
Dashed (.5x) _ _ _ _ _ _ _ _ _ _ _ _ _ _ _ _ _ 
 72
65
 73
2
 40
9.5249999999999986
 49
6.3499999999999996
 74
0
 49
-3.1749999999999998
 74
0
  0
LTYPE
  5
45
100
AcDbSymbolTableRecord
100
AcDbLinetypeTableRecord
  2
ACAD_ISO02W100
 70
0
  3
ISO dash __ __ __ __ __ __ __ __ __ __ __ __ __
 72
65
 73
2
 40
15.0
 49
12.0
 74
0
 49
-3.0
 74
0
  0
LTYPE
  5
46
100
AcDbSymbolTableRecord
100
AcDbLinetypeTableRecord
  2
SectionLineISO
 70
0
  3

 72
65
 73
5
 40
13.7583333333334217
 49
4.23333333333336
 74
0
 49
-2.11666666666668
 74
0
 49
1.05833333333334
 74
0
 49
-2.11666666666668
 74
0
 49
4.23333333333336
 74
0
  0
LTYPE
  5
47
100
AcDbSymbolTableRecord
100
AcDbLinetypeTableRecord
  2
BORDER2
 70
0
  3
Border (.5x) __.__.__.__.__.__.__.__.__.__.__.
 72
65
 73
6
 40
22.2249999999999979
 49
6.3499999999999996
 74
0
 49
-3.1749999999999998
 74
0
 49
6.3499999999999996
 74
0
 49
-3.1749999999999998
 74
0
 49
0.0
 74
0
 49
-3.1749999999999998
 74
0
  0
LTYPE
  5
48
100
AcDbSymbolTableRecord
100
AcDbLinetypeTableRecord
  2
BORDERX2
 70
0
  3
Border (2x) ____  ____  .  ____  ____  .  ___
 72
65
 73
6
 40
88.8999999999999915
 49
25.3999999999999986
 74
0
 49
-12.6999999999999993
 74
0
 49
25.3999999999999986
 74
0
 49
-12.6999999999999993
 74
0
 49
0.0
 74
0
 49
-12.6999999999999993
 74
0
  0
LTYPE
  5
49
100
AcDbSymbolTableRecord
100
AcDbLinetypeTableRecord
  2
DASHDOT
 70
0
  3
Dash dot __ . __ . __ . __ . __ . __ . __ . __
 72
65
 73
4
 40
25.3999999999999986
 49
12.6999999999999993
 74
0
 49
-6.3499999999999996
 74
0
 49
0.0
 74
0
 49
-6.3499999999999996
 74
0
  0
LTYPE
  5
4A
100
AcDbSymbolTableRecord
100
AcDbLinetypeTableRecord
  2
ACAD_ISO14W100
 70
0
  3
ISO dash triple-dot __ . . . __ . . . __ . . . _
 72
65
 73
8
 40
24.0
 49
12.0
 74
0
 49
-3.0
 74
0
 49
0.0
 74
0
 49
-3.0
 74
0
 49
0.0
 74
0
 49
-3.0
 74
0
 49
0.0
 74
0
 49
-3.0
 74
0
  0
LTYPE
  5
4B
100
AcDbSymbolTableRecord
100
AcDbLinetypeTableRecord
  2
DOT2
 70
0
  3
Dot (.5x) ........................................
 72
65
 73
2
 40
3.1749999999999998
 49
0.0
 74
0
 49
-3.1749999999999998
 74
0
  0
LTYPE
  5
4C
100
AcDbSymbolTableRecord
100
AcDbLinetypeTableRecord
  2
DetailCircleISO
 70
0
  3

 72
65
 73
5
 40
13.7583333333334217
 49
4.23333333333336
 74
0
 49
-2.11666666666668
 74
0
 49
1.05833333333334
 74
0
 49
-2.11666666666668
 74
0
 49
4.23333333333336
 74
0
  0
LTYPE
  5
4D
100
AcDbSymbolTableRecord
100
AcDbLinetypeTableRecord
  2
HIDDEN2
 70
0
  3
Hidden (.5x) _ _ _ _ _ _ _ _ _ _ _ _ _ _ _ _ _ 
 72
65
 73
2
 40
4.7624999999999993
 49
3.1749999999999998
 74
0
 49
-1.5874999999999999
 74
0
  0
LTYPE
  5
4E
100
AcDbSymbolTableRecord
100
AcDbLinetypeTableRecord
  2
DASHDOTX2
 70
0
  3
Dash dot (2x) ____  .  ____  .  ____  .  ___
 72
65
 73
4
 40
50.7999999999999972
 49
25.3999999999999986
 74
0
 49
-12.6999999999999993
 74
0
 49
0.0
 74
0
 49
-12.6999999999999993
 74
0
  0
LTYPE
  5
4F
100
AcDbSymbolTableRecord
100
AcDbLinetypeTableRecord
  2
ACAD_ISO07W100
 70
0
  3
ISO dot . . . . . . . . . . . . . . . . . . . . 
 72
65
 73
2
 40
3.0
 49
0.0
 74
0
 49
-3.0
 74
0
  0
LTYPE
  5
50
100
AcDbSymbolTableRecord
100
AcDbLinetypeTableRecord
  2
DOT
 70
0
  3
Dot . . . . . . . . . . . . . . . . . . . . . . . .
 72
65
 73
2
 40
6.3499999999999996
 49
0.0
 74
0
 49
-6.3499999999999996
 74
0
  0
LTYPE
  5
51
100
AcDbSymbolTableRecord
100
AcDbLinetypeTableRecord
  2
ACAD_ISO08W100
 70
0
  3
ISO long-dash short-dash ____ __ ____ __ ____ _
 72
65
 73
4
 40
36.0
 49
24.0
 74
0
 49
-3.0
 74
0
 49
6.0
 74
0
 49
-3.0
 74
0
  0
LTYPE
  5
52
100
AcDbSymbolTableRecord
100
AcDbLinetypeTableRecord
  2
ACAD_ISO12W100
 70
0
  3
ISO dash double-dot __ . . __ . . __ . . __ . . 
 72
65
 73
6
 40
21.0
 49
12.0
 74
0
 49
-3.0
 74
0
 49
0.0
 74
0
 49
-3.0
 74
0
 49
0.0
 74
0
 49
-3.0
 74
0
  0
LTYPE
  5
53
100
AcDbSymbolTableRecord
100
AcDbLinetypeTableRecord
  2
DIVIDEX2
 70
0
  3
Divide (2x) ________  .  .  ________  .  .  _
 72
65
 73
6
 40
63.5
 49
25.3999999999999986
 74
0
 49
-12.6999999999999993
 74
0
 49
0.0
 74
0
 49
-12.6999999999999993
 74
0
 49
0.0
 74
0
 49
-12.6999999999999993
 74
0
  0
LTYPE
  5
54
100
AcDbSymbolTableRecord
100
AcDbLinetypeTableRecord
  2
DIVIDE
 70
0
  3
Divide ____ . . ____ . . ____ . . ____ . . ____
 72
65
 73
6
 40
31.75
 49
12.6999999999999993
 74
0
 49
-6.3499999999999996
 74
0
 49
0.0
 74
0
 49
-6.3499999999999996
 74
0
 49
0.0
 74
0
 49
-6.3499999999999996
 74
0
  0
LTYPE
  5
55
100
AcDbSymbolTableRecord
100
AcDbLinetypeTableRecord
  2
CENTERX2
 70
0
  3
Center (2x) ________  __  ________  __  _____
 72
65
 73
4
 40
101.6000000000000085
 49
63.5
 74
0
 49
-12.6999999999999993
 74
0
 49
12.6999999999999993
 74
0
 49
-12.6999999999999993
 74
0
  0
LTYPE
  5
56
100
AcDbSymbolTableRecord
100
AcDbLinetypeTableRecord
  2
ACAD_ISO10W100
 70
0
  3
ISO dash dot __ . __ . __ . __ . __ . __ . __ . 
 72
65
 73
4
 40
18.0
 49
12.0
 74
0
 49
-3.0
 74
0
 49
0.0
 74
0
 49
-3.0
 74
0
  0
LTYPE
  5
57
100
AcDbSymbolTableRecord
100
AcDbLinetypeTableRecord
  2
HIDDEN
 70
0
  3
Hidden __ __ __ __ __ __ __ __ __ __ __ __ __ __
 72
65
 73
2
 40
9.5249999999999986
 49
6.3499999999999996
 74
0
 49
-3.1749999999999998
 74
0
  0
LTYPE
  5
58
100
AcDbSymbolTableRecord
100
AcDbLinetypeTableRecord
  2
DASHEDX2
 70
0
  3
Dashed (2x) ____  ____  ____  ____  ____  ___
 72
65
 73
2
 40
38.0999999999999943
 49
25.3999999999999986
 74
0
 49
-12.6999999999999993
 74
0
  0
LTYPE
  5
59
100
AcDbSymbolTableRecord
100
AcDbLinetypeTableRecord
  2
PHANTOM2
 70
0
  3
Phantom (.5x) ___ _ _ ___ _ _ ___ _ _ ___ _ _
 72
65
 73
6
 40
31.7500000000000036
 49
15.875
 74
0
 49
-3.1749999999999998
 74
0
 49
3.1749999999999998
 74
0
 49
-3.1749999999999998
 74
0
 49
3.1749999999999998
 74
0
 49
-3.1749999999999998
 74
0
  0
LTYPE
  5
5A
100
AcDbSymbolTableRecord
100
AcDbLinetypeTableRecord
  2
ACAD_ISO11W100
 70
0
  3
ISO double-dash dot __ __ . __ __ . __ __ . __ _
 72
65
 73
6
 40
33.0
 49
12.0
 74
0
 49
-3.0
 74
0
 49
12.0
 74
0
 49
-3.0
 74
0
 49
0.0
 74
0
 49
-3.0
 74
0
  0
LTYPE
  5
5B
100
AcDbSymbolTableRecord
100
AcDbLinetypeTableRecord
  2
ACAD_ISO06W100
 70
0
  3
ISO long-dash triple-dot ____ ... ____ ... ____
 72
65
 73
8
 40
36.0
 49
24.0
 74
0
 49
-3.0
 74
0
 49
0.0
 74
0
 49
-3.0
 74
0
 49
0.0
 74
0
 49
-3.0
 74
0
 49
0.0
 74
0
 49
-3.0
 74
0
  0
ENDTAB
  0
TABLE
  2
LAYER
  5
2
100
AcDbSymbolTable
 70
4
  0
LAYER
  5
5C
100
AcDbSymbolTableRecord
100
AcDbLayerTableRecord
  2
Geometries
 70
0
 62
7
420
16777215
  6
Continuous
370
-3
390
F
  0
LAYER
  5
10
100
AcDbSymbolTableRecord
100
AcDbLayerTableRecord
  2
0
 70
0
 62
7
420
16777215
  6
Continuous
370
-3
390
F
  0
LAYER
  5
5D
100
AcDbSymbolTableRecord
100
AcDbLayerTableRecord
  2
Border
 70
0
 62
7
420
16777215
  6
Continuous
370
-3
390
F
  0
LAYER
  5
5E
100
AcDbSymbolTableRecord
100
AcDbLayerTableRecord
  2
Annotations
 70
0
 62
7
420
16777215
  6
Continuous
370
-3
390
F
  0
ENDTAB
  0
TABLE
  2
STYLE
  5
3
100
AcDbSymbolTable
 70
1
  0
STYLE
  5
5F
100
AcDbSymbolTableRecord
100
AcDbTextStyleTableRecord
  2
Standard
 70
0
 40
0.0
 41
1.0
 50
0.0
 71
0
 42
2.5
  3

  4

1001
ACAD
1000
txt
1071
0
  0
ENDTAB
  0
TABLE
  2
VIEW
  5
6
100
AcDbSymbolTable
 70
0
  0
ENDTAB
  0
TABLE
  2
UCS
  5
7
100
AcDbSymbolTable
 70
0
  0
ENDTAB
  0
TABLE
  2
APPID
  5
9
100
AcDbSymbolTable
 70
1
  0
APPID
  5
12
100
AcDbSymbolTableRecord
100
AcDbRegAppTableRecord
  2
ACAD
 70
0
  0
APPID
  5
60
100
AcDbSymbolTableRecord
100
AcDbRegAppTableRecord
  2
QCAD
 70
0
  0
ENDTAB
  0
TABLE
  2
DIMSTYLE
  5
A
100
AcDbSymbolTable
 70
1
100
AcDbDimStyleTable
 71
0
  0
DIMSTYLE
105
27
100
AcDbSymbolTableRecord
100
AcDbDimStyleTableRecord
  2
Standard
 41
2.5
 42
0.625
 43
3.75
 44
1.25
 70
0
 73
0
 74
0
 77
1
 78
8
140
2.5
141
2.5
143
0.03937007874016
147
0.7
171
3
172
1
271
2
272
2
274
3
278
44
283
0
284
8
340
5F
  0
ENDTAB
  0
TABLE
  2
BLOCK_RECORD
  5
1
100
AcDbSymbolTable
 70
1
  0
BLOCK_RECORD
  5
1F
100
AcDbSymbolTableRecord
100
AcDbBlockTableRecord
  2
*Model_Space
340
22
  0
BLOCK_RECORD
  5
1B
100
AcDbSymbolTableRecord
100
AcDbBlockTableRecord
  2
*Paper_Space
340
1E
  0
BLOCK_RECORD
  5
23
100
AcDbSymbolTableRecord
100
AcDbBlockTableRecord
  2
*Paper_Space0
340
26
  0
ENDTAB
  0
ENDSEC
  0
SECTION
  2
BLOCKS
  0
BLOCK
  5
20
100
AcDbEntity
  8
0
100
AcDbBlockBegin
  2
*Model_Space
 70
0
 10
0.0
 20
0.0
 30
0.0
  3
*Model_Space
  1

  0
ENDBLK
  5
21
100
AcDbEntity
  8
0
100
AcDbBlockEnd
  0
BLOCK
  5
1C
100
AcDbEntity
 67
1
  8
0
100
AcDbBlockBegin
  2
*Paper_Space
 70
0
 10
0.0
 20
0.0
 30
0.0
  3
*Paper_Space
  1

  0
ENDBLK
  5
1D
100
AcDbEntity
 67
1
  8
0
100
AcDbBlockEnd
  0
BLOCK
  5
24
100
AcDbEntity
  8
0
100
AcDbBlockBegin
  2
*Paper_Space0
 70
0
 10
0.0
 20
0.0
 30
0.0
  3
*Paper_Space0
  1

  0
ENDBLK
  5
25
100
AcDbEntity
  8
0
100
AcDbBlockEnd
  0
ENDSEC
  0
SECTION
  2
ENTITIES
  0
LWPOLYLINE
  5
61
100
AcDbEntity
  8
Geometries
 62
256
370
0
 48
1.0
  6
Continuous
100
AcDbPolyline
 90
36
 70
128
 10
76.6999999999999886
 20
147.1999999999999886
 10
77.204707303753537
 20
147.2279303533740062
 10
77.8911250129027053
 20
147.2341269040703082
 10
78.5792997020009807
 20
147.2403665398348096
 10
79.2692072414808138
 20
147.2466488277825079
 10
79.9608235017749962
 20
147.2529733350278889
 10
80.6541243533161207
 20
147.2593396286858081
 10
81.3490856665367801
 20
147.2657472758710924
 10
82.1154321456808702
 20
147.2728429344504946
 10
82.8837264702267191
 20
147.2799875308363937
 10
83.6539365237202617
 20
147.2871804888588088
 10
84.4260301897070917
 20
147.2944212323471902
 10
85.1999753517336558
 20
147.3017091851315001
 10
85.9757398933451498
 20
147.309043771041388
 10
86.7532916980877928
 20
147.3164244139067023
 10
87.532598649507392
 20
147.3238505375570071
 10
88.3136286311498111
 20
147.331321565822094
 10
89.096349526561184
 20
147.3388369225316978
 10
89.8667080789252992
 20
147.3462606670954074
 10
90.6386362883253867
 20
147.3537260694519091
 10
91.4121037282909299
 20
147.3612325837491994
 10
92.1870799723513983
 20
147.3687796641355021
 10
93.0695276346705072
 20
147.3774044400136916
 10
93.9538397108449601
 20
147.3860800939274895
 10
94.8399715527152125
 20
147.3948058248874986
 10
95.7278785121217624
 20
147.4035808319042076
 10
96.6175159409049797
 20
147.4124043139881906
 10
97.5088391909054479
 20
147.421275470149908
 10
98.4018036139637076
 20
147.4301934993999055
 10
99.296364561920285
 20
147.439157600748814
 10
100.2351873747040969
 20
147.4485971065176955
 10
101.1756620459881049
 20
147.4580853766337896
 10
102.1177372407539963
 20
147.4676214901450919
 10
103.0613616239837
 20
147.477204526099797
 10
104.0064838606592019
 20
147.4868335635457868
 10
104.9530526157620045
 20
147.4965076815311988
  0
LINE
  5
62
100
AcDbEntity
  8
Geometries
 62
256
370
0
 48
1.0
  6
Continuous
100
AcDbLine
 10
168.4001255508663064
 20
148.1924972408980921
 30
0.0
 11
168.4001255508661927
 21
168.2160959025883926
 31
0.0
  0
LWPOLYLINE
  5
63
100
AcDbEntity
  8
Geometries
 62
256
370
0
 48
1.0
  6
Continuous
100
AcDbPolyline
 90
34
 70
128
 10
105.0859159017442011
 20
147.4978679701378041
 10
106.2474039245329038
 20
147.509784392824713
 10
107.4108797939742033
 20
147.5217651751214021
 10
108.5762491885594017
 20
147.5338086248970058
 10
109.7434177867796024
 20
147.5459130500204878
 10
110.912291267125795
 20
147.5580767583608974
 10
112.0827753080890972
 20
147.5702980577869994
 10
113.2547755881602001
 20
147.5825752561680133
 10
114.5456145796874949
 20
147.5961427181213992
 10
115.8380485495816004
 20
147.609773518105186
 10
117.1319519559138058
 20
147.6234654038929079
 10
118.4271992567558982
 20
147.637216123258213
 10
119.7236649101794939
 20
147.6510234239746922
 10
121.3788892554991037
 20
147.6687133201803874
 10
123.0356310034673015
 20
147.6864869321346134
 10
124.6936296343613009
 20
147.7043395861045099
 10
126.3526246284584005
 20
147.7222666083575859
 10
128.0123554660358138
 20
147.7402633251614077
 10
129.6725616273706976
 20
147.7583250627833991
 10
131.3329825927403931
 20
147.7764471474908987
 10
132.9933578424221992
 20
147.7946249055515011
 10
134.6534268566933008
 20
147.8128536632326018
 10
136.3129291158309968
 20
147.8311287468017099
 10
137.971604100112387
 20
147.8494454825261073
 10
139.6291912898151111
 20
147.8677991966733885
 10
141.2854301652160132
 20
147.8861852155110057
 10
142.940060206592392
 20
147.9045988653064114
 10
144.2388283132638094
 20
147.919083072396603
 10
145.5363160128657114
 20
147.9335791850267867
 10
146.8323969381418976
 20
147.9480849361640082
 10
148.1269447218363098
 20
147.9625980587755123
 10
149.4198329966924916
 20
147.9771162858284868
 10
150.7109353954546123
 20
147.9916373502902047
 10
152.000125550866187
 20
148.0061589851277972
  0
LWPOLYLINE
  5
64
100
AcDbEntity
  8
Geometries
 62
256
370
0
 48
1.0
  6
Continuous
100
AcDbPolyline
 90
54
 70
128
 10
351.5300645810697802
 20
156.2200912192049884
 10
351.613014385512372
 20
156.2445455475074141
 10
351.6939409113263082
 20
156.2693611225872132
 10
351.7728584896748885
 20
156.2945597596728931
 10
351.8497814517222082
 20
156.3201632739933018
 10
351.9247241286313965
 20
156.3461934807768046
 10
351.9964148524775851
 20
156.3721953016465989
 10
352.0662227851432817
 20
156.3986504223960026
 10
352.1341615036794792
 20
156.4255795103256048
 10
352.2002445851367156
 20
156.4530032327359947
 10
352.2657775628935042
 20
156.4815179515132115
 10
352.3294069526714907
 20
156.5105911780617873
 10
352.3911471798488719
 20
156.5402448710262036
 10
352.4510126698042995
 20
156.5705009890511974
 10
352.5090178479160841
 20
156.6013814907811081
 10
352.5651771395625929
 20
156.6329083348607014
 10
352.6195049701220796
 20
156.6651034799344018
 10
352.6720157649730822
 20
156.6979888846468896
 10
352.7227239494937976
 20
156.7315865076425894
 10
352.771643949062593
 20
156.7659183075660962
 10
352.818790189058177
 20
156.8010062430620053
 10
352.8641770948582916
 20
156.8368722727749116
 10
352.9078190918419864
 20
156.8735383553492966
 10
352.9497306053871739
 20
156.9110264494298121
 10
352.9866416314579283
 20
156.9461314041689093
 10
353.0221218032900197
 20
156.9819624420184141
 10
353.056182232097683
 20
157.0185364767258989
 10
353.088834029095608
 20
157.0558704220389075
 10
353.1200883054983137
 20
157.0939811917052111
 10
353.1499561725199214
 20
157.1328856994722969
 10
353.1809711623134262
 20
157.1762521103034089
 10
353.2103638590060086
 20
157.2206052224748021
 10
353.238148687976377
 20
157.2659669946310999
 10
353.2643400746027282
 20
157.3123593854166984
 10
353.2889524442637139
 20
157.3598043534763917
 10
353.3120002223374172
 20
157.4083238574544907
 10
353.3334978342023192
 20
157.4579398559957042
 10
353.3518545207434158
 20
157.5044031822316128
 10
353.3689318696069108
 20
157.551823233591108
 10
353.3847409920069254
 20
157.6002169238215913
 10
353.3992929991582059
 20
157.649601166670891
 10
353.4125990022749875
 20
157.6999928758866076
 10
353.4246701125720165
 20
157.7514089652163989
 10
353.4355174412635279
 20
157.8038663484078086
 10
353.4451520995639839
 20
157.8573819392084943
 10
353.4535851986880743
 20
157.9119726513661135
 10
353.4608278498500908
 20
157.9676553986284091
 10
353.4668911642646094
 20
158.0244470947428113
 10
353.4717862531458081
 20
158.0823646534570059
 10
353.4753416065578904
 20
158.1380190321557109
 10
353.4778776221617136
 20
158.1947034924830859
 10
353.4794036131631856
 20
158.2524322112170978
 10
353.4799288927683278
 20
158.3112193651354005
 10
353.4794627741833892
 20
158.3710791310159038
  0
LINE
  5
65
100
AcDbEntity
  8
Geometries
 62
256
370
0
 48
1.0
  6
Continuous
100
AcDbLine
 10
152.000125550866187
 20
168.2160959025883926
 30
0.0
 11
152.000125550866187
 21
148.473384200741009
 31
0.0
  0
LWPOLYLINE
  5
66
100
AcDbEntity
  8
Geometries
 62
256
370
0
 48
1.0
  6
Continuous
100
AcDbPolyline
 90
105
 70
128
 10
353.4794627741833892
 20
158.3710791310159038
 10
353.4794582981995745
 20
158.4209805264823103
 10
353.4794537791746052
 20
158.4692169321641018
 10
353.4794492178431824
 20
158.5158167978898121
 10
353.4794446149402916
 20
158.560808573487293
 10
353.4794399712005202
 20
158.6042207087849931
 10
353.4794352873583989
 20
158.6460816536111054
 10
353.4794305641486858
 20
158.6864198577937941
 10
353.4794253240257262
 20
158.7290670718215893
 10
353.4794200381347196
 20
158.769944060684395
 10
353.4794147074538841
 20
158.8090886911035113
 10
353.4794093329610973
 20
158.8465388298002097
 10
353.4794039156345207
 20
158.8823323434959889
 10
353.4793984564515767
 20
158.916507098912092
 10
353.4793929563907113
 20
158.9491009627699896
 10
353.4793874164294039
 20
158.9801518017910098
 10
353.4793818375455885
 20
159.0096974826963958
 10
353.4793762207173131
 20
159.0377758722075043
 10
353.4793706682016818
 20
159.0639612780925916
 10
353.47936508095421
 20
159.0888037285305074
 10
353.479359459901616
 20
159.112339097676994
 10
353.47935380597022
 20
159.1346032596881912
 10
353.4793464318274232
 20
159.1616222877368898
 10
353.4793390060439151
 20
159.1866449204576099
 10
353.4793315306358181
 20
159.2097492241790064
 10
353.4793240076191978
 20
159.2310132652297909
 10
353.4793164390101765
 20
159.2505151099385046
 10
353.4793089631270959
 20
159.2680289672086076
 10
353.4793014471201786
 20
159.2839922633748131
 10
353.4792938928990793
 20
159.2984789568768917
 10
353.4792863023739073
 20
159.311563006155211
 10
353.4792772213478997
 20
159.3254129644670911
 10
353.4792680947996928
 20
159.3375046461044064
 10
353.4792589259523083
 20
159.3479628324759005
 10
353.4792497180276882
 20
159.3569123049904022
 10
353.4792404742489111
 20
159.3644778450569106
 10
353.4792311978379189
 20
159.3707842340839989
 10
353.479220620941021
 20
159.3765805234183972
 10
353.4792100107957253
 20
159.3810950816383922
 10
353.479199372130779
 20
159.3845110144459909
 10
353.4791887096744745
 20
159.3870114275426886
 10
353.4791767453173748
 20
159.3889510636232956
 10
353.4791647636922107
 20
159.3902292098985072
 10
353.4791542108530962
 20
159.3910110798258017
 10
353.4791495661638123
 20
159.3913011013461869
 10
353.4791475223731254
 20
159.3914241110664989
 10
353.4791466230930723
 20
159.3914778435751884
 10
353.4791462274088758
 20
159.3915014525177014
 10
353.4791460533077156
 20
159.3915118376127111
 10
353.4772387890616869
 20
159.4533651372908878
 10
353.4736043925601052
 20
159.5149668686534881
 10
353.4682569847286118
 20
159.5762926497897922
 10
353.4612108232872174
 20
159.637309939543087
 10
353.4524801659567856
 20
159.6979861967562897
 10
353.4422795646656823
 20
159.7572155110958079
 10
353.4304813514390844
 20
159.8160536457066883
 10
353.4170990337484
 20
159.8744697717638985
 10
353.402146119065776
 20
159.9324330604420936
 10
353.3852830577940836
 20
159.9910804841609888
 10
353.3668130552630942
 20
160.0491915436680017
 10
353.34675046292449
 20
160.106733483876809
 10
353.3251096322306921
 20
160.1636735497008033
 10
353.3019049146336101
 20
160.2199789860538885
 10
353.2771506615852104
 20
160.2756170378497131
 10
353.250861224537573
 20
160.330554950001698
 10
353.2230509549431758
 20
160.384759967423804
 10
353.1937342042537011
 20
160.438199335029509
 10
353.1629253239213995
 20
160.4908402977324045
 10
353.1306386653980098
 20
160.5426501004463091
 10
353.0968885801360102
 20
160.5935959880848998
 10
353.0616894195873101
 20
160.6436452055615973
 10
353.0250555352038759
 20
160.6927649977903059
 10
352.9831182848109847
 20
160.7456841898847131
 10
352.9394814856182734
 20
160.7973955467545863
 10
352.8941642394079281
 20
160.8478554713798871
 10
352.8471856479625899
 20
160.8970203667406906
 10
352.7985648130654113
 20
160.9448466358172141
 10
352.75319061097548
 20
160.9869137288339118
 10
352.7067769071188081
 20
161.0275800569087892
 10
352.6593568826742739
 20
161.0668329228448101
 10
352.6109637188214947
 20
161.1046596294449103
 10
352.5616305967396897
 20
161.1410474795119114
 10
352.5122955980643269
 20
161.1753727158476011
 10
352.462117353252097
 20
161.208285747725597
 10
352.4111272974724898
 20
161.2397745460814065
 10
352.3593568658951085
 20
161.2698270818507922
 10
352.3057580919860925
 20
161.2989999216131025
 10
352.2514128958313222
 20
161.3266519719061023
 10
352.1963546767465232
 20
161.3527704520599002
 10
352.1406168340483873
 20
161.3773425814044913
 10
352.0842327670530949
 20
161.4003555792698137
 10
352.0272358750772241
 20
161.4217966649858909
 10
351.9696595574367848
 20
161.4416530578828031
 10
351.9115372134481845
 20
161.4599119772904885
 10
351.852902242428172
 20
161.476560642538999
 10
351.793788043692814
 20
161.4915862729581875
 10
351.7342280165582906
 20
161.5049760878783047
 10
351.6742555603412939
 20
161.5167173066292037
 10
351.6139040743577198
 20
161.526797148540993
 10
351.5532069579243739
 20
161.5352028329434972
 10
351.4860807887619103
 20
161.5425001801336009
 10
351.4186212744181148
 20
161.5477393210551043
 10
351.3508728693826129
 20
161.550903244636288
 10
351.2828800281454846
 20
161.5519749398052909
 10
351.2146872051969808
 20
161.5509373954905925
  0
LINE
  5
67
100
AcDbEntity
  8
Geometries
 62
256
370
0
 48
1.0
  6
Continuous
100
AcDbLine
 10
168.4001255508661927
 20
168.2160959025883926
 30
0.0
 11
152.000125550866187
 21
168.2160959025883926
 31
0.0
  0
LWPOLYLINE
  5
68
100
AcDbEntity
  8
Geometries
 62
256
370
0
 48
1.0
  6
Continuous
100
AcDbPolyline
 90
330
 70
128
 10
168.4001255508663064
 20
148.1924972408980921
 10
169.2345575658503094
 20
148.2020421175824936
 10
170.0673176780620111
 20
148.2115725378253046
 10
170.8983683109630931
 20
148.2210878275022878
 10
171.7276718880154078
 20
148.230587312489007
 10
172.5551908326802106
 20
148.2400703186611963
 10
173.3808875684190127
 20
148.2495361718943911
 10
174.2047245186934958
 20
148.258984198064411
 10
175.0266641069650007
 20
148.2684137230465922
 10
175.7630845497299106
 20
148.2768647309962091
 10
176.4979175847853128
 20
148.2852997892020142
 10
177.231136004761197
 20
148.2937184095628993
 10
177.962712602287894
 20
148.3021201039778134
 10
178.6926201699953936
 20
148.3105043843453927
 10
179.4208315005141969
 20
148.3188707625648135
 10
180.1473193864740097
 20
148.3272187505347119
 10
180.8720566205055036
 20
148.3355478601542075
 10
181.5950159952386116
 20
148.3438576033219078
 10
182.3161703033034939
 20
148.3521474919367904
 10
183.0354923373305098
 20
148.360417037897804
 10
183.7529548899497911
 20
148.3686657531038122
 10
184.468530753791498
 20
148.3768931494535082
 10
185.1821927214855918
 20
148.3850987388460112
 10
185.620844085372994
 20
148.390142316133506
 10
186.0575875597162963
 20
148.3951851294739868
 10
186.4936996796394908
 20
148.4003614993085023
 10
186.9306596218737013
 20
148.4057066056909093
 10
187.3684597694609124
 20
148.4112196915334891
 10
187.9430273284986015
 20
148.4186919622879941
 10
188.5190055489669021
 20
148.4264492946176119
 10
189.0963773259171887
 20
148.4344899883757023
 10
189.8140363898286012
 20
148.4448486111909915
 10
190.5337781706755038
 20
148.45563684656031
 10
191.2555700818286084
 20
148.4668514555353909
 10
191.979379536658314
 20
148.4784891991679103
 10
192.7051739485347923
 20
148.4905468385094878
 10
193.4329207308290108
 20
148.5030211346117994
 10
194.1625872969111128
 20
148.5159088485266068
 10
194.8331069612804072
 20
148.5280829960570088
 10
195.5051872954817895
 20
148.540599312956914
 10
196.17880319951351
 20
148.5534553044113011
 10
196.8539295733727101
 20
148.566648475605291
 10
197.530541317057498
 20
148.5801763317240898
 10
198.2086133305654982
 20
148.5940363779525057
 10
199.0241919621385875
 20
148.6111034116721044
 10
199.8417938654500006
 20
148.6286408955760123
 10
200.6613756676958076
 20
148.6466445186239014
 10
201.4828939960719083
 20
148.665109969775699
 10
202.3063054777747993
 20
148.6840329379911054
 10
203.1168139620725981
 20
148.7030591598725948
 10
203.9290656626511122
 20
148.7225184621740084
 10
204.743019489003899
 20
148.742406760704398
 10
205.5586343506259936
 20
148.7627199712725883
 10
206.4412265373325965
 20
148.7851284787452926
 10
207.3256560956963028
 20
148.8080225963294083
 10
208.211871279356302
 20
148.8313971806950065
 10
209.0998203419518973
 20
148.8552470885119874
 10
209.9894515371221075
 20
148.8795671764503936
 10
210.8807131185062076
 20
148.9043523011804098
 10
211.7224922746756874
 20
148.9281424476679092
 10
212.5656314366538027
 20
148.952337119016903
 10
213.4100872316363109
 20
148.9769320041872049
 10
214.2558162868193108
 20
149.0019227921384868
 10
215.1027752293992137
 20
149.0273051718307045
 10
216.1847961142030954
 20
149.0602421103951087
 10
217.268657365226403
 20
149.0938001800064967
 10
218.3542689769145966
 20
149.1279704345620871
 10
219.4415409437133917
 20
149.1627439279590135
 10
220.5303832600685894
 20
149.1981117140944093
 10
221.6207059204259906
 20
149.2340648468654933
 10
222.7124189192313111
 20
149.2705943801693138
 10
223.9877212409658114
 20
149.3139287402127877
 10
225.2646505347632058
 20
149.3580212627059893
 10
226.543063875137392
 20
149.4028577415689938
 10
227.8228183366009887
 20
149.4484239707217057
 10
229.1037709936680073
 20
149.4947057440842002
 10
230.3857789208516067
 20
149.5416888555764956
 10
231.8978771821008991
 20
149.5979428636514115
 10
233.4110087386874
 20
149.6551280628052893
 10
234.9249396113283126
 20
149.713221196665387
 10
236.439435820740897
 20
149.7721990088589905
 10
238.0752899659055117
 20
149.8368552507618858
 10
239.7112358712807918
 20
149.9024867628519928
 10
241.3469788805668088
 20
149.9690642577637902
 10
242.9822243374636912
 20
150.0365584481318137
 10
244.6166775856711979
 20
150.104940046590599
 10
246.2500439688894005
 20
150.1741797657747952
 10
247.5324488555432083
 20
150.2291653218211991
 10
248.8138579387716902
 20
150.2846483495250993
 10
250.0941282930878913
 20
150.3406146428064858
 10
251.3731169930055103
 20
150.3970499955854052
 10
252.6506811130379049
 20
150.4539402017819043
 10
253.9266777276984044
 20
150.5112710553160014
 10
255.0190331653575981
 20
150.5607517377690101
 10
256.1100419543826092
 20
150.6105367779003075
 10
257.1996140892196081
 20
150.6606172296069133
 10
258.2876595643137989
 20
150.7109841467861884
 10
259.3740883741112953
 20
150.7616285833352094
 10
260.4588105130575855
 20
150.81254159315111
 10
261.5417359755983853
 20
150.8637142301311087
 10
262.5327624482167721
 20
150.9108429153478141
 10
263.5221342567157876
 20
150.9581753515124944
 10
264.5097820739006238
 20
151.0057046478478924
 10
265.4956365725765863
 20
151.0534239135770065
 10
266.479628425548583
 20
151.1013262579226932
 10
267.4616883056219194
 20
151.1494047901076954
 10
268.3000321954369838
 20
151.1906596284509874
 10
269.1368687785648035
 20
151.2320339951056098
 10
269.9721546822015057
 20
151.2735235790312913
 10
270.8058465335432174
 20
151.3151240691877888
 10
271.6379009597854974
 20
151.3568311545350866
 10
272.4534614780561128
 20
151.3978930561833067
 10
273.2673596004460137
 20
151.4390495374015018
 10
274.0795542364493258
 20
151.48029651399861
 10
274.8900042955605727
 20
151.521629901783399
 10
275.7151531611092992
 20
151.5638916638094997
 10
276.5383990732166239
 20
151.6062348080247943
 10
277.3596983739399775
 20
151.6486549950477922
 10
278.179007405337984
 20
151.6911478854968891
 10
278.9962825094684149
 20
151.7337091399907081
 10
279.8114800283893828
 20
151.7763344191477017
 10
280.6245563041592845
 20
151.8190193835862942
 10
281.3342236422444103
 20
151.8564142767224041
 10
282.0422042305195873
 20
151.8938486370167027
 10
282.74846882157442
 20
151.9313195574225972
 10
283.4529881679986829
 20
151.9688241308934948
 10
284.1557330223819804
 20
152.0063594503826891
 10
284.8566741373140871
 20
152.043922608843701
 10
285.55578226538438
 20
152.0815106992297956
 10
286.2530281591828043
 20
152.1191208144944937
 10
286.8775155439759033
 20
152.1529095383185108
 10
287.5004565923812265
 20
152.1867115725843007
 10
288.121830127751025
 20
152.2205248124386117
 10
288.7416149734378905
 20
152.2543471530285899
 10
289.359789952794074
 20
152.2881764895010122
 10
289.9763338891725084
 20
152.3220107170027973
 10
290.5912256059252172
 20
152.3558477306810914
 10
291.2106826056127034
 20
152.3900301545712921
 10
291.8284101082971915
 20
152.4242111038956011
 10
292.4443862834829133
 20
152.4583884088116861
 10
293.058589300673475
 20
152.4925598994772997
 10
293.6709973293733924
 20
152.5267234060499106
 10
294.2815885390864992
 20
152.5608767586874137
 10
294.8903410993167995
 20
152.5950177875471923
 10
295.4972331795685818
 20
152.629144322787198
 10
296.0405941279299782
 20
152.6597744217197885
 10
296.5824215051615056
 20
152.6903895133123967
 10
297.1226995048480717
 20
152.7209880264863955
 10
297.6614123205740157
 20
152.7515683901629018
 10
298.1985441459240178
 20
152.7821290332630895
 10
298.7340791744825879
 20
152.8126683847083029
 10
299.2680015998342924
 20
152.8431848734196024
 10
299.8002956155639254
 20
152.87367692831819
 10
300.3309454152559965
 20
152.9041429783254102
 10
300.8599351924949019
 20
152.9345814523622948
 10
301.3872491408653786
 20
152.9649907793501882
 10
301.912871453952107
 20
152.9953693882102073
 10
302.4367863253394262
 20
153.0257157078636112
 10
302.9589779486120165
 20
153.0560281672316023
 10
303.5313795176825238
 20
153.0893308888240938
 10
304.1016557924327799
 20
153.1225886473600042
 10
304.6697857345237139
 20
153.1557993517334069
 10
305.2357483056163119
 20
153.1889609108384889
 10
305.7995224673717871
 20
153.2220712335694088
 10
306.310127696523125
 20
153.2521253060363051
 10
306.8188911294440118
 20
153.2821337351267914
 10
307.3257969597191277
 20
153.3120949497620984
 10
307.8308293809329825
 20
153.3420073788635136
 10
308.3339725866703134
 20
153.371869451352012
 10
308.8352107705156868
 20
153.4016795961489095
 10
309.3345281260533852
 20
153.4314362421754083
 10
309.7905348078627981
 20
153.4586648287044
 10
310.2449020035862759
 20
153.4858459311321894
 10
310.6976175382591236
 20
153.5129783393279865
 10
311.1486692369167031
 20
153.5400608431612
 10
311.5980449245943191
 20
153.567092232501011
 10
312.0457324263273904
 20
153.5940712972168001
 10
312.4917195671513923
 20
153.6209968271776916
 10
312.9359941721015161
 20
153.6478676122532079
 10
313.3785440662131805
 20
153.674682442312303
 10
313.8193570745215197
 20
153.701440107224613
 10
314.258421022062123
 20
153.7281393968592056
 10
314.695723733870409
 20
153.7547791010854041
 10
315.1064136322643208
 20
153.7798408738597971
 10
315.51551679991951
 20
153.8048475863323858
 10
315.9230230320147257
 20
153.8297982241948034
 10
316.3289221237290008
 20
153.8546917731389101
 10
316.7332038702411978
 20
153.8795272188563956
 10
317.1408393915431247
 20
153.9046103163599923
 10
317.5467961711597127
 20
153.929631769019494
 10
317.9510636200275826
 20
153.9545905243348898
 10
318.353631149083526
 20
153.9794855298061975
 10
318.7544881692635954
 20
154.0043157329332075
 10
319.1536240915045823
 20
154.0290800812159944
 10
319.5510283267432783
 20
154.0537775221544052
 10
319.9466902859160768
 20
154.0784070032484863
 10
320.3593130533299131
 20
154.1041352788139989
 10
320.7699998663626957
 20
154.1297866028097019
 10
321.1787385500497862
 20
154.1553597651046061
 10
321.5855169294266034
 20
154.1808535555682056
 10
321.9903228295282815
 20
154.2062667640695963
 10
322.3931440753904099
 20
154.231598180478187
 10
322.7939684920481227
 20
154.2568465946633012
 10
323.1927839045368955
 20
154.2820107964940917
 10
323.5895781378919196
 20
154.3070895758399956
 10
323.984339017148784
 20
154.3320817225701092
 10
324.3770543673426232
 20
154.3569860265538978
 10
324.7677120135089126
 20
154.381801277660486
 10
325.1341507378265874
 20
154.4051158619834041
 10
325.4987391771414877
 20
154.4283491900262106
 10
325.8614671266324194
 20
154.4515002474805101
 10
326.2223243814783018
 20
154.4745680200381059
 10
326.5813007368582248
 20
154.4975514933906879
 10
326.9599665137490092
 20
154.5218346561613032
 10
327.336492840420874
 20
154.5460206408912995
 10
327.7108675419092947
 20
154.5701082374501141
 10
328.0830784432495761
 20
154.5940962357068997
 10
328.4531133694770233
 20
154.6179834255310936
 10
328.8209601456271116
 20
154.6417685967919908
 10
329.1657720002821179
 20
154.6641000874643908
 10
329.5086176060581806
 20
154.6863387956261988
 10
329.8494867581342191
 20
154.7084837069691048
 10
330.188369251689096
 20
154.7305338071847984
 10
330.5252548819019012
 20
154.7524880819649979
 10
330.8601334439510993
 20
154.774345517001592
 10
331.1929947330158939
 20
154.7961050979859863
 10
331.5238285442750907
 20
154.8177658106102115
 10
331.8526246729077798
 20
154.8393266405657869
 10
332.1793729140928235
 20
154.8607865735444875
 10
332.4982831314450777
 20
154.8817641015440074
 10
332.8151984357060087
 20
154.9026423645148896
 10
333.1301091590369765
 20
154.9234204015224066
 10
333.4430056335997961
 20
154.944097251631689
 10
333.7301992468603089
 20
154.9631036784936953
 10
334.0156587663691994
 20
154.9820222123341864
 10
334.2993765751684805
 20
155.0008520960658132
 10
334.581345056299881
 20
155.019592572600601
 10
334.8615565928051865
 20
155.0382428848512006
 10
335.1350468181229871
 20
155.0564716597235133
 10
335.4068277230833814
 20
155.0746120141737094
 10
335.6768920915362173
 20
155.0926632309524109
 10
335.9452327073311722
 20
155.1106245928102112
 10
336.2172652935042834
 20
155.1288591443947098
 10
336.4874878711113979
 20
155.1469986271982862
 10
336.7558927731192853
 20
155.1650422791562107
 10
337.0224723324952834
 20
155.1829893382034129
 10
337.2872188822057069
 20
155.2008390422751916
 10
337.5501247552177801
 20
155.2185906293067887
 10
337.8111822844982726
 20
155.2362433372333896
 10
338.0703838030141242
 20
155.2537964039900942
 10
338.3277216437318771
 20
155.2712490675120875
 10
338.5831881396189829
 20
155.2886005657346118
 10
338.8367756236415858
 20
155.30585013659271
 10
339.0884764287670805
 20
155.3229970180215957
 10
339.3382828879624071
 20
155.3400404479565111
 10
339.5861873341941077
 20
155.3569796643326981
 10
339.8117556628337184
 20
155.3724150797706045
 10
340.0357134242415782
 20
155.3877616995409028
 10
340.2580547128500257
 20
155.4030189366594072
 10
340.4787736230916266
 20
155.4181862041423869
 10
340.6978642493979237
 20
155.433262915005713
 10
340.9153206862015963
 20
155.4482484822655124
 10
341.1506751642377253
 20
155.4644917351791946
 10
341.3840701265618236
 20
155.4806250590478101
 10
341.6154979061406038
 20
155.496647691806686
 10
341.8449508359411197
 20
155.5125588713908087
 10
342.0724212489303113
 20
155.5283578357355907
 10
342.2979014780747775
 20
155.5440438227759898
 10
342.5213838563416857
 20
155.5596160704471913
 10
342.7244810984012133
 20
155.5737900630792865
 10
342.9258872427599272
 20
155.5878672557169864
 10
343.1255963838494836
 20
155.6018470613763043
 10
343.3236026161023915
 20
155.6157288930733102
 10
343.5199000339508757
 20
155.6295121638239038
 10
343.7144827318268199
 20
155.643196286644212
 10
343.9073448041630172
 20
155.6567806745503901
 10
344.0984803453912946
 20
155.6702647405583093
 10
344.2878834499442178
 20
155.6836478976840965
 10
344.4755482122537273
 20
155.6969295589437934
 10
344.6614687267521049
 20
155.7101091373534132
 10
344.8456390878715183
 20
155.7231860459291113
 10
345.0176771247412262
 20
155.7354211380105085
 10
345.188149111112125
 20
155.7475639448892935
 10
345.3570500970507169
 20
155.759613974567003
 10
345.5243751326240158
 20
155.7715707350446905
 10
345.6901192678985808
 20
155.7834337343238928
 10
345.8799100905395107
 20
155.797041871158001
 10
346.067570258335877
 20
155.8105230685715128
 10
346.2530921042547902
 20
155.8238765644996988
 10
346.4364679612627924
 20
155.8371015968776874
 10
346.6176901623271078
 20
155.8501974036406068
 10
346.796751040414108
 20
155.8631632227238129
 10
346.9736429284911878
 20
155.8759982920622065
 10
347.1338818802361743
 20
155.8876482614134886
 10
347.2922859298699905
 20
155.8991871373297045
 10
347.4488491718250884
 20
155.9106143328270093
 10
347.6035657005335224
 20
155.9219292609215017
 10
347.7564296104274035
 20
155.933131334628996
 10
347.9074349959394112
 20
155.9442199669657043
 10
348.0565759515013156
 20
155.9551945709476115
 10
348.2038465715452844
 20
155.9660545595907877
 10
348.3492409505042815
 20
155.9767993459113029
 10
348.4927531828096221
 20
155.9874283429251136
 10
348.6343773628942131
 20
155.9979409636482899
 10
348.7741075851898245
 20
156.0083366210969018
 10
348.9041132066395789
 20
156.0180305847767102
 10
349.0324249384048017
 20
156.0276195566769104
 10
349.1590378305523927
 20
156.0371030447990108
 10
349.2839469331486839
 20
156.0464805571442923
 10
349.407147296260689
 20
156.0557516017140074
 10
349.5359416121369236
 20
156.0654676370849927
 10
349.6628023185550092
 20
156.0750627680033062
 10
349.7877235099472273
 20
156.0845364074851034
 10
349.9106992807458028
 20
156.0938879685463974
 10
350.031723725383074
 20
156.1031168642032014
 10
350.1507909382912089
 20
156.1122225074716141
 10
350.2612563399828787
 20
156.1206944117523108
 10
350.3699716027484214
 20
156.1290557333595928
 10
350.4769317766542258
 20
156.1373059802949115
 10
350.5821319117674193
 20
156.145444660559491
 10
350.6855670581543905
 20
156.1534712821546975
 10
350.7872322658823805
 20
156.1613853530818972
 10
350.8871225850180053
 20
156.1691863813423993
 10
350.9852330656275967
 20
156.1768738749375984
 10
351.0815587577782253
 20
156.184447341868804
 10
351.1760947115362796
 20
156.1919062901372968
 10
351.2671956494826873
 20
156.1991200973959053
 10
351.3565607333641765
 20
156.2062224987330126
 10
351.4441852737148793
 20
156.2132130280390925
 10
351.5300645810697802
 20
156.2200912192049884
  0
LINE
  5
69
100
AcDbEntity
  8
Geometries
 62
256
370
0
 48
1.0
  6
Continuous
100
AcDbLine
 10
168.3001255508661984
 20
148.0061589851277972
 30
0.0
 11
152.000125550866187
 21
148.0061589851277972
 31
0.0
  0
LINE
  5
6A
100
AcDbEntity
  8
Geometries
 62
256
370
0
 48
1.0
  6
Continuous
100
AcDbLine
 10
168.3001255508661984
 20
148.0061589851277972
 30
0.0
 11
168.3001255508661984
 21
148.473384200741009
 31
0.0
  0
LWPOLYLINE
  5
6B
100
AcDbEntity
  8
Geometries
 62
256
370
0
 48
1.0
  6
Continuous
100
AcDbPolyline
 90
527
 70
128
 10
351.2146872051969808
 20
161.5509373954905925
 10
351.1220816017137736
 20
161.5481535598063942
 10
351.0277193504533102
 20
161.5453220263698029
 10
350.9316082604194094
 20
161.5424432394399901
 10
350.8337561406157761
 20
161.5395176432760991
 10
350.7341708000454901
 20
161.5365456821373868
 10
350.6328600477128816
 20
161.5335278002829114
 10
350.5298316926214852
 20
161.5304644419719011
 10
350.4145259908801222
 20
161.5270427527458139
 10
350.2971618324784231
 20
161.5235671658699061
 10
350.1777496112006247
 20
161.5200382726530108
 10
350.0562997208302818
 20
161.5164566644041031
 10
349.9328225551511764
 20
161.5128229324321865
 10
349.8073285079474886
 20
161.5091376680462929
 10
349.6798279730027161
 20
161.5054014625551986
 10
349.5503313441009823
 20
161.501614907267907
 10
349.4188490150258986
 20
161.4977785934935071
 10
349.2853913795610765
 20
161.4938931125406896
 10
349.1524042616367183
 20
161.4900297292755909
 10
349.0175316268483243
 20
161.4861200496978881
 10
348.8807833220533894
 20
161.4821646340014922
 10
348.7421691941099766
 20
161.4781640423805129
 10
348.5991279700119776
 20
161.4740448763205052
 10
348.4541730598139111
 20
161.4698800486995935
 10
348.3073148573001845
 20
161.46567015082681
 10
348.158563756254523
 20
161.4614157740107885
 10
348.0079301504607088
 20
161.4571175095609021
 10
347.8581641066422776
 20
161.4528538529021091
 10
347.7066020628490719
 20
161.4485489926032074
 10
347.5532538659392117
 20
161.4442034888583066
 10
347.3981293627700211
 20
161.4398179018612893
 10
347.2380182199154888
 20
161.4353020758389903
 10
347.0760782436718728
 20
161.4307456923079087
 10
346.9123198961527805
 20
161.4261493464640864
 10
346.74675363947199
 20
161.4215136335039062
 10
346.5793899357432224
 20
161.4168391486238079
 10
346.4102392470804261
 20
161.4121264870198047
 10
346.2393120355972087
 20
161.4073762438883932
 10
346.0669974635532071
 20
161.4025994991193045
 10
345.892934922626182
 20
161.3977865205467879
 10
345.7171348066003134
 20
161.3929378994799038
 10
345.5396075092593264
 20
161.3880542272275136
 10
345.3603634243863212
 20
161.3831360950985072
 10
345.1826591076857085
 20
161.3782728165577112
 10
345.003318642598515
 20
161.373377428435191
 10
344.8223518759825765
 20
161.3684504909248005
 10
344.6397686546960131
 20
161.3634925642205076
 10
344.4518031900142887
 20
161.3584020924301967
 10
344.2621753346630271
 20
161.3532805321628985
 10
344.0708955507565179
 20
161.3481284786147967
 10
343.8779743004080274
 20
161.342946526982189
 10
343.6834220457315041
 20
161.3377352724614866
 10
343.4872492488407261
 20
161.3324953102487882
 10
343.2894663718496986
 20
161.327227235540505
 10
343.056698677235488
 20
161.3210464113641933
 10
342.821770338255817
 20
161.314829078235789
 10
342.5846979683594782
 20
161.3085761813046872
 10
342.3454981809961737
 20
161.3022886657209085
 10
342.1041875896149804
 20
161.2959674766337059
 10
341.860782807665089
 20
161.2896135591929863
 10
341.6293836895155778
 20
161.2835935954394984
 10
341.396151572780127
 20
161.2775461692725969
 10
341.1611003825319131
 20
161.271472072898689
 10
340.9242440438446238
 20
161.2653720985238124
 10
340.6855964817914924
 20
161.2592470383542889
 10
340.4421800537095919
 20
161.2530213038263014
 10
340.1969564383516058
 20
161.2467714916913053
 10
339.9499400851121891
 20
161.2404984239846897
 10
339.7011454433855988
 20
161.2342029227415878
 10
339.4505869625668879
 20
161.2278858099973888
 10
339.1982790920504272
 20
161.2215479077869986
 10
338.9442362812305873
 20
161.2151900381458915
 10
338.6884729795028761
 20
161.2088130231092009
 10
338.4187008830190848
 20
161.2021127017382014
 10
338.1470730097515229
 20
161.1953932155248879
 10
337.873605973149381
 20
161.1886555096191103
 10
337.5983163866624182
 20
161.1819005291704912
 10
337.3212208637389722
 20
161.1751292193285963
 10
337.0423360178293137
 20
161.168342525243105
 10
336.7616784623821218
 20
161.1615413920636968
 10
336.4792648108465869
 20
161.1547267649401078
 10
336.1951116766724112
 20
161.1478995890217902
 10
335.9092356733082738
 20
161.1410608094587076
 10
335.6216534142042178
 20
161.1342113714001982
 10
335.3323815128088086
 20
161.1273522199961974
 10
335.0581067866656895
 20
161.1208769726601133
 10
334.7823586970990846
 20
161.114394722783004
 10
334.5051511691826249
 20
161.1079062625711913
 10
334.2264981279894869
 20
161.1014123842309118
 10
333.9464134985939268
 20
161.0949138799682885
 10
333.6478052053782903
 20
161.0880173551747134
 10
333.3476188173165724
 20
161.0811174630404139
 10
333.0458709478580204
 20
161.0742151487148988
 10
332.7425782104522227
 20
161.0673113573479895
 10
332.4377572185479721
 20
161.0604070340893941
 10
332.1314245855948002
 20
161.0535031240885928
 10
331.7684716483444163
 20
161.0453681891665951
 10
331.4034692694011142
 20
161.0372366883921131
 10
331.0364446461738908
 20
161.0291101690428945
 10
330.6674249760723114
 20
161.0209901783969997
 10
330.2888459834608739
 20
161.0127128093932072
 10
329.9082468981723082
 20
161.0044454933214979
 10
329.525656616976903
 20
160.9961898741375137
 10
329.141104036645288
 20
160.9879475957968111
 10
328.7546180539479224
 20
160.9797203022550889
 10
328.3662275656554925
 20
160.9715096374677898
 10
327.9759614685374913
 20
160.963317245390698
 10
327.5609352648999106
 20
160.9546690290721074
 10
327.1438750274548966
 20
160.9460450675881873
 10
326.7248150066192238
 20
160.9374473094667906
 10
326.303789452809724
 20
160.9288777032359121
 10
325.8808326164431151
 20
160.9203381974232911
 10
325.4559787479361148
 20
160.9118307405570079
 10
325.0536954898141744
 20
160.9038405290000071
 10
324.649784964796595
 20
160.8958821737224127
 10
324.2442758809236238
 20
160.8879573079427985
 10
323.8371969462353945
 20
160.8800675648797096
 10
323.4285768687723248
 20
160.8722145777518904
 10
322.9707430381494078
 20
160.8634954893871907
 10
322.5110652052758269
 20
160.8548264896386115
 10
322.0495832799485925
 20
160.846209848999905
 10
321.5863371719644874
 20
160.8376478379645107
 10
321.12136679112092
 20
160.8291427270262943
 10
320.6547120472143888
 20
160.8206967866788091
 10
320.1864128500421884
 20
160.8123122874156934
 10
319.7165091094017271
 20
160.8039914997306141
 10
319.1775627120912873
 20
160.7945629548543138
 10
318.6366322854257191
 20
160.7852239798347966
 10
318.0937774032124139
 20
160.7759779638637099
 10
317.5490576392592175
 20
160.7668282961327861
 10
317.0025325673739189
 20
160.7577783658337012
 10
316.4542617613643074
 20
160.7488315621581023
 10
315.9043047950378877
 20
160.7399912742976937
 10
315.2974757182528833
 20
160.7303940284180896
 10
314.6887577645301803
 20
160.7209342786109119
 10
314.0782302266084116
 20
160.7116165358904141
 10
313.4659723972250731
 20
160.7024453112707079
 10
312.8520635691180019
 20
160.6934251157657059
 10
312.1992324209492153
 20
160.6840283071265958
 10
311.5447278849545114
 20
160.6748118451899927
 10
310.8886445621338908
 20
160.6657811118666928
 10
310.2310770534879225
 20
160.6569414890676057
 10
309.5721199600168916
 20
160.6482983587036983
 10
308.9118678827205144
 20
160.6398571026857098
 10
308.1321798251681798
 20
160.6301749665838088
 10
307.350979267755406
 20
160.6207895263416106
 10
306.5684210791109763
 20
160.6117095925337992
 10
305.784660127864413
 20
160.602943975734803
 10
304.8502578954266937
 20
160.5929307584941057
 10
303.9146318441715948
 20
160.5833903535584
 10
302.9780432657880738
 20
160.5743376259775914
 10
302.0407534519648038
 20
160.5657874408016141
 10
301.103023694390572
 20
160.5577546630800896
 10
300.1651152847547905
 20
160.550254157862895
 10
299.1442775535048213
 20
160.5427120774737944
 10
298.1238747536726237
 20
160.5358374705913889
 10
297.1042438973768753
 20
160.5296495100488983
 10
296.0857219967367087
 20
160.5241673686792012
 10
295.0686460638705739
 20
160.5194102193156027
 10
294.2707489012860265
 20
160.5161935527785886
 10
293.4741159264087855
 20
160.5134455940689975
 10
292.6789106097676267
 20
160.5111756431288086
 10
291.8852964218904162
 20
160.5093929998998021
 10
291.0934368333063276
 20
160.5081069643242131
 10
290.4350120976371272
 20
160.5074213305285866
 10
289.7780139558997803
 20
160.5070924033628046
 10
289.1225370090945148
 20
160.5071255647376915
 10
288.4686758582212747
 20
160.5075261965642994
 10
287.8165251042805153
 20
160.5082996807533107
 10
287.1661793482721237
 20
160.5094513992156067
 10
286.5547344340315021
 20
160.5108885724104084
 10
285.9450575172131153
 20
160.5126712835781859
 10
285.337227890555198
 20
160.5148040437331076
 10
284.731324846795701
 20
160.5172913638893135
 10
284.1274276786724045
 20
160.5201377550610005
 10
283.5802376116538994
 20
160.5230407698441013
 10
283.0348303980915716
 20
160.526247654835089
 10
282.4912656117933807
 20
160.5297617992256107
 10
281.949602826567002
 20
160.533586592207314
 10
281.4099016162202247
 20
160.5377254229719881
 10
280.8722215545606105
 20
160.5421816807113089
 10
280.3366222153961189
 20
160.5469587546168952
 10
279.8475348916242069
 20
160.5516224617286127
 10
279.3602918982749088
 20
160.5565612019385924
 10
278.8749391223487919
 20
160.561777585787496
 10
278.3915224508477877
 20
160.567274223816014
 10
277.9100877707728046
 20
160.5730537265646092
 10
277.4306809691250919
 20
160.5791187045738013
 10
277.0214096622635225
 20
160.584546450992093
 10
276.6136908349362784
 20
160.5901874962403042
 10
276.2075533839135915
 20
160.5960434842741051
 10
275.8030262059659776
 20
160.6021160590491093
 10
275.4001381978641803
 20
160.6084068645209015
 10
274.9989182563783743
 20
160.6149175446450954
 10
274.5993952782794736
 20
160.6216497433771053
 10
274.2346812967564915
 20
160.6280169275455023
 10
273.8714397750424041
 20
160.6345728965212913
 10
273.5096929710081213
 20
160.6413189165687925
 10
273.1494631425247803
 20
160.64825625395261
 10
272.7907725474639165
 20
160.6553861749368934
 10
272.4336434436967238
 20
160.6627099457861902
 10
272.0466990974800865
 20
160.670903915535888
 10
271.6616600361217024
 20
160.6793307106736961
 10
271.2785549676621031
 20
160.687991964418103
 10
270.897412600141422
 20
160.6968893099879097
 10
270.5182616415999064
 20
160.706024380601491
 10
270.1478473983856929
 20
160.7152293005349009
 10
269.7794089667340813
 20
160.7246666538252953
 10
269.4129735440537843
 20
160.7343379877505072
 10
269.0485683277545945
 20
160.7442448495883127
 10
268.7249442653708229
 20
160.7532905498312914
 10
268.4029797112706888
 20
160.7625263462865064
 10
268.0826940240330032
 20
160.7719533402757861
 10
267.7641065622361793
 20
160.7815726331207884
 10
267.4472366844589146
 20
160.7913853261435122
 10
267.1321037492796791
 20
160.801392520665587
 10
266.8187271152775111
 20
160.8115953180090116
 10
266.5071261410300281
 20
160.8219948194953872
 10
266.229455801002473
 20
160.8314807579419039
 10
265.9532404554872187
 20
160.841126289986704
 10
265.67849402955801
 20
160.8509322078361947
 10
265.4052304482880231
 20
160.8608993036964989
 10
265.1334636367516282
 20
160.8710283697739101
 10
264.8680201939420158
 20
160.8811349837476996
 10
264.6040471666091776
 20
160.8913993496225032
 10
264.3415577470818789
 20
160.9018222179182089
 10
264.0805651276895105
 20
160.9124043391547048
 10
263.8158027519933739
 20
160.9233673621583023
 10
263.5526266466274024
 20
160.9344977834309987
 10
263.2910508282097908
 20
160.9457964003869961
 10
263.0310893133594732
 20
160.9572640104406958
 10
262.7727561186948719
 20
160.9689014110064136
 10
262.5160652608345799
 20
160.9807093994984939
 10
262.2610307563978154
 20
160.9926887733311105
 10
262.0082175880704085
 20
161.0048136294277867
 10
261.7570814339222807
 20
161.01711070996231
 10
261.5076362190268924
 20
161.0295808071410022
 10
261.2598958684577042
 20
161.0422247131702136
 10
261.0138743072882903
 20
161.0550432202560955
 10
260.7739324863422894
 20
161.0678035440334099
 10
260.5356752420627231
 20
161.0807338034775
 10
260.2991157667789821
 20
161.0938347491085096
 10
260.0642672528201729
 20
161.1071071314462131
 10
259.8264032974728934
 20
161.1208278781141985
 10
259.5903486041153769
 20
161.1347287091880958
 10
259.3561171893662163
 20
161.1488104220823061
 10
259.1237230698438907
 20
161.1630738142110886
 10
258.8931802621668794
 20
161.1775196829887875
 10
258.6645027829542869
 20
161.1921488258296051
 10
258.4377046488244787
 20
161.2069620401479995
 10
258.2826729838906203
 20
161.2172670660903862
 10
258.1606284520285044
 20
161.2254841804528098
 10
258.0099590645211265
 20
161.2357908847380088
 10
257.8583050596790258
 20
161.2463704263286104
 10
257.6764835954758155
 20
161.2593197101778912
 10
257.4932730027139201
 20
161.2726530963363132
 10
257.3086767075736248
 20
161.2863691870450111
 10
257.1093611498702103
 20
161.3014880953998897
 10
256.9084630095630928
 20
161.3170430092052072
 10
256.7059865007034887
 20
161.3330322092785991
 10
256.5019358373432965
 20
161.3494539764375872
 10
256.2963152335349832
 20
161.3663065914998924
 10
256.0891289033294811
 20
161.3835883352830933
 10
255.8803810607792002
 20
161.4012974886047971
 10
255.6700759199358117
 20
161.4194323322824971
 10
255.4582176948511858
 20
161.4379911471339142
 10
255.2448105995775052
 20
161.4569722139765133
 10
255.0337107931775051
 20
161.4760236787440988
 10
254.8211249966807088
 20
161.4954791626720123
 10
254.6070572023936904
 20
161.5153370370420021
 10
254.3915114026229958
 20
161.5355956731357878
 10
254.1595439070950988
 20
161.5576857475329859
 10
253.9258980094820117
 20
161.580229630967608
 10
253.690578581747701
 20
161.6032253358526134
 10
253.453590495856389
 20
161.6266708746011034
 10
253.2149386237713031
 20
161.6505642596260941
 10
252.9746278374568078
 20
161.6749035033406869
 10
252.7326630088761874
 20
161.6996866181580117
 10
252.4645970933098909
 20
161.7274583433955115
 10
252.194542166261698
 20
161.7557621022087062
 10
251.9225047123159129
 20
161.7845952491194055
 10
251.6484912160564136
 20
161.8139551386493906
 10
251.3725081620665947
 20
161.8438391253203861
 10
251.0945620349309024
 20
161.8742445636542016
 10
250.8146593192329874
 20
161.9051688081725899
 10
250.532806499556898
 20
161.9366092133971904
 10
250.2490100604863983
 20
161.9685631338500116
 10
249.9632764866047125
 20
162.0010279240526927
 10
249.6807660161981062
 20
162.0334076933386029
 10
249.3963993750797101
 20
162.0662751918187894
 10
249.1101827066109138
 20
162.0996279132212976
 10
248.8221221541539876
 20
162.1334633512742016
 10
248.5269360107770922
 20
162.1684073499025089
 10
248.2298511769076867
 20
162.2038465343740938
 10
247.9308741371305018
 20
162.2397782592105102
 10
247.63001137602879
 20
162.2761998789337099
 10
247.327269378186287
 20
162.3131087480653889
 10
247.0281105621355948
 20
162.349830246308386
 10
246.7271514241172099
 20
162.3870166894558906
 10
246.4243981074928911
 20
162.4246655712358915
 10
246.119856755625193
 20
162.4627743853766901
 10
245.8072635065412044
 20
162.5021324370289904
 10
245.4928214203625885
 20
162.5419641128677029
 10
245.1765370243037978
 20
162.5822667500229102
 10
244.8584168455791996
 20
162.6230376856244959
 10
244.5384674114031895
 20
162.6642742568027131
 10
244.2166952489899927
 20
162.7059738006875023
 10
243.8931068855540047
 20
162.7481336544090027
 10
243.5684207728137096
 20
162.7906576752276919
 10
243.2419393589925107
 20
162.8336347027087072
 10
242.9136691286742007
 20
162.8770620913734888
 10
242.5836165664427142
 20
162.9209371957441022
 10
242.2517881568820997
 20
162.9652573703419876
 10
241.9241629658583008
 20
163.0092167732042867
 10
241.5948371827672077
 20
163.0536004347393089
 10
241.2638169509710053
 20
163.0984058486752986
 10
240.9311084138321917
 20
163.1436305087401024
 10
240.5898759425859907
 20
163.1902076874607133
 10
240.2468984762913919
 20
163.2372161265278976
 10
239.9021825421619951
 20
163.2846531630717095
 10
239.5557346674127075
 20
163.3325161342222032
 10
239.2075613792572994
 20
163.3808023771094895
 10
238.8576692049105077
 20
163.4295092288637932
 10
238.5060646715870121
 20
163.4786340266149125
 10
238.1527543064999008
 20
163.5281741074931006
 10
237.7977446368641097
 20
163.5781268086284115
 10
237.4410421898938921
 20
163.6284894671508141
 10
237.0826534928037006
 20
163.6792594201905047
 10
236.7225850728077887
 20
163.7304340048775089
 10
236.360843457120211
 20
163.7820105583419092
 10
235.9974351729561874
 20
163.8339864177135894
 10
235.5957688485140977
 20
163.8916178832103867
 10
235.1921024408661935
 20
163.9497257425028067
 10
234.7864446377348031
 20
164.0083064513108866
 10
234.3788041268419136
 20
164.0673564653546919
 10
233.9691895959099099
 20
164.1268722403544871
 10
233.5959250108562912
 20
164.1812593436430063
 10
233.2210497486699978
 20
164.236024133627609
 10
232.8445702939347939
 20
164.2911639648299058
 10
232.4664931312348983
 20
164.3466761917717918
 10
232.0868247451543027
 20
164.4025581689749913
 10
231.7123935710054923
 20
164.457799599205714
 10
231.3364398938979889
 20
164.5133926341239885
 10
230.9589698571934093
 20
164.5693347674580878
 10
230.5799896042545072
 20
164.6256234929358016
 10
230.1268620522957917
 20
164.6930823109707944
 10
229.6716132427592072
 20
164.7610245505121895
 10
229.2142535406188983
 20
164.8294459830212872
 10
228.7547933108498057
 20
164.8983423799591037
 10
228.2932429184263015
 20
164.9677095127869961
 10
227.8296127283221892
 20
165.037543152966208
 10
227.3639131055134897
 20
165.1078390719576134
 10
226.8961544149738927
 20
165.178593041222598
 10
226.4263470216783105
 20
165.2498008322222915
 10
225.9545012906008878
 20
165.3214582164179092
 10
225.4806275867167074
 20
165.3935609652706091
 10
225.0047362749986917
 20
165.4661048502416918
 10
224.5542001010933006
 20
165.5349036158054048
 10
224.1018882169734923
 20
165.6040872390109087
 10
223.6478093103615947
 20
165.6736521755782121
 10
223.1919720689799078
 20
165.7435948812276081
 10
222.7343851805505892
 20
165.8139118116791053
 10
222.2471635195066995
 20
165.8888953555606918
 10
221.7579938440310059
 20
165.9642916439428006
 10
221.2668865190977954
 20
166.0400964482865049
 10
220.7738519096818948
 20
166.116305540053105
 10
220.2789003807577046
 20
166.1929146907035886
 10
219.7820422972993128
 20
166.2699196716995118
 10
219.311839168651403
 20
166.3428831171254103
 10
218.8399590539054032
 20
166.4161911442853921
 10
218.3664106407836982
 20
166.4898402088996932
 10
217.8912026170081901
 20
166.5638267666884076
 10
217.4143436703012924
 20
166.6381472733714872
 10
216.9358424883853047
 20
166.7127981846693103
 10
216.4557077589824132
 20
166.7877759563018003
 10
215.973948169814804
 20
166.8630770439891933
 10
215.4905724086046916
 20
166.9386979034516116
 10
215.0055891630742906
 20
167.0146349904090073
 10
214.5277100557077858
 20
167.0895204361175104
 10
214.048296972371503
 20
167.164704139713109
 10
213.567358143635488
 20
167.2401827434175914
 10
213.0849018000693889
 20
167.3159528894530865
 10
212.5146028017398976
 20
167.4055842588689131
 10
211.9422226312723865
 20
167.4956100894146118
 10
211.3677747452231017
 20
167.5860248912968018
 10
210.7912726001476074
 20
167.6768231747219033
 10
210.2127296526020075
 20
167.7679994498965925
 10
209.6321593591424914
 20
167.8595482270272896
 10
209.0495751763237138
 20
167.9514640163208981
 10
208.5137820223918084
 20
168.0360378778275106
 10
207.9763183142048888
 20
168.1209112900083085
 10
207.4371944167374977
 20
168.2060800243245069
 10
206.8964206949644904
 20
168.2915398522372072
 10
206.3540075138602106
 20
168.3772865452075962
 10
205.8099652383982914
 20
168.4633158746970878
 10
205.2643042335550092
 20
168.5496236121664992
 10
204.7170348643043951
 20
168.6362055290771025
 10
204.1681674956205086
 20
168.7230573968901979
 10
203.6177124924782902
 20
168.8101749870668868
 10
203.065680219852112
 20
168.8975540710684129
 10
202.5120810427154936
 20
168.9851904203561048
 10
201.8576273746772074
 20
169.0888006434338138
 10
201.2010285937832066
 20
169.1927554198776136
 10
200.5423016682414072
 20
169.2970478272659989
 10
199.8814635662585886
 20
169.4016709431774075
 10
199.206458662564188
 20
169.5085289246044056
 10
198.5293006159857896
 20
169.6157152662943872
 10
197.8500073371994858
 20
169.723222661332386
 10
197.1685967368813976
 20
169.8310438028030944
 10
196.485086725707788
 20
169.9391713837916029
 10
195.811756069092894
 20
170.0456593252706057
 10
195.136434556054212
 20
170.1524288890101104
 10
194.4591391547990042
 20
170.2594731525884981
 10
193.7798868335349027
 20
170.3667851935840076
 10
193.0847725969184125
 20
170.4765561223647126
 10
192.387656447240488
 20
170.5865913069762883
 10
191.6885564129244131
 20
170.6968833924672992
 10
190.9874905223933013
 20
170.8074250238859122
 10
190.2844768040696977
 20
170.9182088462806917
 10
189.5795332863768863
 20
171.0292275046998896
 10
188.8726779977386911
 20
171.1404736441918999
 10
188.1654773764234108
 20
171.2516964763981093
 10
187.4564091778499062
 20
171.3631311683080867
 10
186.7454913126940141
 20
171.4747704130066097
 10
186.0327416916319123
 20
171.5866069035785983
 10
185.3181782253398069
 20
171.6986333331088872
 10
184.6146266016671973
 20
171.8088371022510898
 10
183.909359579484402
 20
171.9192101166792952
 10
183.2023941269991099
 20
172.029745453971799
 10
182.4937472124184126
 20
172.1404361917070958
 10
181.7689224404875006
 20
172.2535389297341055
 10
181.0423825713156134
 20
172.366788912998004
 10
180.314145633325694
 20
172.4801787865472988
 10
179.5842296549407138
 20
172.5937011954302136
 10
178.8526526645837009
 20
172.7073487846953128
 10
178.1194326906775132
 20
172.8211141993907916
 10
177.3845877616460029
 20
172.934990084564987
 10
176.52523896685409
 20
173.0679750940684869
 10
175.6637315947401135
 20
173.2010887758709998
 10
174.800094273771407
 20
173.3343194505818872
 10
173.9343556324164126
 20
173.4676554388101977
 10
173.0665442991426914
 20
173.6010850611652074
 10
172.1966889024195098
 20
173.7345966382561073
 10
171.3746930549926049
 20
173.8605435526093004
 10
170.5509295228285112
 20
173.9865431508696076
 10
169.7254223017581864
 20
174.1125856435963044
 10
168.8981953876127022
 20
174.2386612413488081
 10
168.0692727762236132
 20
174.3647601546865928
 10
167.2702017756016062
 20
174.4860907403883914
 10
166.4696048084016979
 20
174.6074251283677938
 10
165.6675032431361103
 20
174.7287546010362007
 10
164.8639184483174915
 20
174.8500704408048989
 10
164.0588717924584046
 20
174.971363930085289
 10
163.2523846440707871
 20
175.092626351288601
 10
162.3000616935244977
 20
175.2354910332302893
 10
161.3458025180675008
 20
175.3782861803458957
 10
160.3896420994886114
 20
175.5209975213167866
 10
159.4316154195761044
 20
175.6636107848246979
 10
158.4521496995945995
 20
175.8090186115956044
 10
157.4708143587880045
 20
175.9542942941021124
 10
156.4876465646941881
 20
176.0994226693183862
 10
155.5026834848505928
 20
176.2443885742187035
 10
154.515962286795201
 20
176.3891768457773139
 10
153.5275201380655972
 20
176.5337723209684953
 10
152.5373942062005881
 20
176.678159836766298
 10
151.5456216587355982
 20
176.8223242301455116
 10
150.5522396632092068
 20
176.9662503380799876
 10
149.5572853871593964
 20
177.1099229975440892
 10
148.5607959981236945
 20
177.2533270455120942
 10
147.5628086636399132
 20
177.3964473189583089
 10
146.5633605512456938
 20
177.5392686548568975
 10
145.5624888284800988
 20
177.6817758901819957
 10
144.4599300229122889
 20
177.8381529658063869
 10
143.3557430915066959
 20
177.9941114504887025
 10
142.2499775042558952
 20
178.1496311622416044
 10
141.1426827311526893
 20
178.3046919190780102
 10
140.0339082421907051
 20
178.4592735390102973
 10
138.8563734965015044
 20
178.6226776678977046
 10
137.6772889090547949
 20
178.7854960420233112
 10
136.4967135005238106
 20
178.947704583063711
 10
135.3147062915817003
 20
179.1092792126956112
 10
134.1313263029018117
 20
179.2701958525958901
 10
132.9466325551574073
 20
179.4304304244413117
 10
131.5487800281985926
 20
179.6183699212598128
 10
130.1492812522834868
 20
179.8052891411985001
 10
128.7482328484913126
 20
179.9911486663133076
 10
127.3457314379006959
 20
180.17590907866051
 10
125.9132100368952933
 20
180.3632662144663925
 10
124.4793789807667963
 20
180.5493959938548869
 10
123.044340927718693
 20
180.7342565359518005
 10
121.6081985359538038
 20
180.9178059598827133
 10
120.1710544636751052
 20
181.1000023847732905
 10
118.7330113690857019
 20
181.280803929749311
 10
117.2941719103876039
 20
181.4601687139364117
 10
115.8577802261198997
 20
181.6376683811436124
 10
114.4207998474488051
 20
181.8136542445606949
 10
112.9833327620980015
 20
181.9880846968449077
 10
111.5454809577907014
 20
182.1609181306538119
 10
110.1073464222512968
 20
182.3321129386445989
 10
108.6947163386715971
 20
182.4986154427514862
 10
107.2820085301520976
 20
182.6634577682924885
 10
105.8693196177718931
 20
182.8266004973235965
 10
104.4567462226097945
 20
182.9880042119011989
 10
103.1956963232295976
 20
183.1306130402145129
 10
101.9348843121778998
 20
183.2717760561949092
 10
100.6743789624304952
 20
183.4114652029288095
 10
99.414249046963306
 20
183.5496524235020956
 10
98.1545633387521406
 20
183.6863096610011041
 10
96.8953906107729352
 20
183.8214088585118873
 10
95.6367996360014416
 20
183.9549219591206111
 10
94.3788591874135392
 20
184.0868209059134983
 10
93.2523534988402361
 20
184.2036082814763063
 10
92.1264747451335637
 20
184.3190570820027006
 10
91.0012723962861116
 20
184.4331471255053998
 10
89.8767959222907251
 20
184.5458582299970942
 10
88.753094793139951
 20
184.6571702134905877
 10
87.6502623220478938
 20
184.7651130876922139
 10
86.5482723379928132
 20
184.8716677757155935
 10
85.4471717078318136
 20
184.9768151575595994
 10
84.3470072984225112
 20
185.0805361132229905
 10
83.2254042696282568
 20
185.1848835903813892
 10
82.1048746591314398
 20
185.2877056027469109
 10
80.9854682621466111
 20
185.3889818356533965
 10
79.8672348738880657
 20
185.4886919744348859
 10
78.7502242895700419
 20
185.5868157044253053
 10
77.6344863044070905
 20
185.6833327109586094
 10
76.5200707136121991
 20
185.7782226793686959
  0
LINE
  5
6C
100
AcDbEntity
  8
Geometries
 62
256
370
0
 48
1.0
  6
Continuous
100
AcDbLine
 10
76.6999999999999886
 20
147.1999999999999886
 30
0.0
 11
76.5200707109954692
 21
185.7782226793686959
 31
0.0
  0
LINE
  5
6D
100
AcDbEntity
  8
Geometries
 62
256
370
0
 48
1.0
  6
Continuous
100
AcDbLine
 10
168.3001255508661984
 20
148.473384200741009
 30
0.0
 11
152.000125550866187
 21
148.473384200741009
 31
0.0
  0
LINE
  5
6E
100
AcDbEntity
  8
Geometries
 62
256
370
0
 48
1.0
  6
Continuous
100
AcDbLine
 10
105.0859159017442011
 20
147.4978679701378041
 30
0.0
 11
105.0859158989191968
 21
153.9976570054265039
 31
0.0
  0
ARC
  5
6F
100
AcDbEntity
  8
Geometries
 62
256
370
0
 48
1.0
  6
Continuous
100
AcDbCircle
 10
104.9530526157617061
 20
162.0965672622442924
 30
0.0
 40
8.0999999999999996
100
AcDbArc
 50
270.93985762733098
 51
270.0
  0
LINE
  5
70
100
AcDbEntity
  8
Geometries
 62
256
370
0
 48
1.0
  6
Continuous
100
AcDbLine
 10
104.9530526157617061
 20
153.996567262244298
 30
0.0
 11
104.9530526157618056
 21
147.4965076815549878
 31
0.0
  0
ENDSEC
  0
SECTION
  2
OBJECTS
  0
DICTIONARY
  5
C
100
AcDbDictionary
280
0
281
1
  3
ACAD_GROUP
350
D
  3
ACAD_LAYOUT
350
1A
  3
ACAD_MLINESTYLE
350
17
  3
ACAD_PLOTSETTINGS
350
19
  3
ACAD_PLOTSTYLENAME
350
E
  3
AcDbVariableDictionary
350
71
  3
QCAD_OBJECTS
350
72
  0
DICTIONARY
  5
D
100
AcDbDictionary
280
0
281
1
  0
ACDBDICTIONARYWDFLT
  5
E
100
AcDbDictionary
281
1
  3
Normal
350
F
100
AcDbDictionaryWithDefault
340
F
  0
ACDBPLACEHOLDER
  5
F
  0
DICTIONARY
  5
17
100
AcDbDictionary
280
0
281
1
  3
Standard
350
18
  0
MLINESTYLE
  5
18
100
AcDbMlineStyle
  2
STANDARD
 70
0
  3

 62
256
 51
90.0
 52
90.0
 71
2
 49
0.5
 62
256
  6
BYLAYER
 49
-0.5
 62
256
  6
BYLAYER
  0
DICTIONARY
  5
19
100
AcDbDictionary
280
0
281
1
  0
DICTIONARY
  5
1A
100
AcDbDictionary
281
1
  3
Layout1
350
1E
  3
Layout2
350
26
  3
Model
350
22
  0
LAYOUT
  5
1E
100
AcDbPlotSettings
  1

  2
none_device
  4

  6

 40
0.0
 41
0.0
 42
0.0
 43
0.0
 44
0.0
 45
0.0
 46
0.0
 47
0.0
 48
0.0
 49
0.0
140
0.0
141
0.0
142
1.0
143
1.0
 70
688
 72
0
 73
0
 74
5
  7

 75
16
147
1.0
148
0.0
149
0.0
100
AcDbLayout
  1
Layout1
 70
1
 71
1
 10
0.0
 20
0.0
 11
420.0
 21
297.0
 12
0.0
 22
0.0
 32
0.0
 14
100000000000000000000.0
 24
100000000000000000000.0
 34
100000000000000000000.0
 15
-100000000000000000000.0
 25
-100000000000000000000.0
 35
-100000000000000000000.0
146
0.0
 13
0.0
 23
0.0
 33
0.0
 16
1.0
 26
0.0
 36
0.0
 17
0.0
 27
1.0
 37
0.0
 76
0
330
1B
  0
LAYOUT
  5
22
100
AcDbPlotSettings
  1

  2
none_device
  4

  6

 40
0.0
 41
0.0
 42
0.0
 43
0.0
 44
0.0
 45
0.0
 46
0.0
 47
0.0
 48
0.0
 49
0.0
140
0.0
141
0.0
142
1.0
143
1.0
 70
1712
 72
0
 73
0
 74
0
  7

 75
0
147
1.0
148
0.0
149
0.0
100
AcDbLayout
  1
Model
 70
1
 71
0
 10
0.0
 20
0.0
 11
12.0
 21
9.0
 12
0.0
 22
0.0
 32
0.0
 14
0.0
 24
0.0
 34
0.0
 15
0.0
 25
0.0
 35
0.0
146
0.0
 13
0.0
 23
0.0
 33
0.0
 16
1.0
 26
0.0
 36
0.0
 17
0.0
 27
1.0
 37
0.0
 76
0
330
1F
  0
LAYOUT
  5
26
100
AcDbPlotSettings
  1

  2
none_device
  4

  6

 40
0.0
 41
0.0
 42
0.0
 43
0.0
 44
0.0
 45
0.0
 46
0.0
 47
0.0
 48
0.0
 49
0.0
140
0.0
141
0.0
142
1.0
143
1.0
 70
688
 72
0
 73
0
 74
5
  7

 75
16
147
1.0
148
0.0
149
0.0
100
AcDbLayout
  1
Layout2
 70
1
 71
2
 10
0.0
 20
0.0
 11
12.0
 21
9.0
 12
0.0
 22
0.0
 32
0.0
 14
0.0
 24
0.0
 34
0.0
 15
0.0
 25
0.0
 35
0.0
146
0.0
 13
0.0
 23
0.0
 33
0.0
 16
1.0
 26
0.0
 36
0.0
 17
0.0
 27
1.0
 37
0.0
 76
0
330
23
  0
DICTIONARY
  5
71
100
AcDbDictionary
281
1
  3
DIMASSOC
350
74
  3
HIDETEXT
350
73
  0
DICTIONARYVAR
  5
73
100
DictionaryVariables
280
0
  1
2
  0
DICTIONARYVAR
  5
74
100
DictionaryVariables
280
0
  1
1
  0
DICTIONARY
  5
72
100
AcDbDictionary
281
1
  3
ColorSettings/BackgroundColor
350
75
  3
ColorSettings/ColorMode
350
76
  3
Grid/DisplayGrid00
350
77
  3
Grid/DisplayGrid01
350
78
  3
Grid/DisplayGrid02
350
79
  3
Grid/DisplayGrid03
350
7A
  3
Grid/GridSpacingX00
350
7B
  3
Grid/GridSpacingX01
350
7C
  3
Grid/GridSpacingX02
350
7D
  3
Grid/GridSpacingX03
350
7E
  3
Grid/GridSpacingY00
350
7F
  3
Grid/GridSpacingY01
350
80
  3
Grid/GridSpacingY02
350
81
  3
Grid/GridSpacingY03
350
82
  3
Grid/IsometricGrid00
350
83
  3
Grid/IsometricGrid01
350
84
  3
Grid/IsometricGrid02
350
85
  3
Grid/IsometricGrid03
350
86
  3
Grid/IsometricProjection00
350
87
  3
Grid/IsometricProjection01
350
88
  3
Grid/IsometricProjection02
350
89
  3
Grid/IsometricProjection03
350
8A
  3
Grid/MetaGridSpacingX00
350
8B
  3
Grid/MetaGridSpacingX01
350
8C
  3
Grid/MetaGridSpacingX02
350
8D
  3
Grid/MetaGridSpacingX03
350
8E
  3
Grid/MetaGridSpacingY00
350
8F
  3
Grid/MetaGridSpacingY01
350
90
  3
Grid/MetaGridSpacingY02
350
91
  3
Grid/MetaGridSpacingY03
350
92
  3
MultiPageSettings/Columns
350
93
  3
MultiPageSettings/GlueMarginsBottom
350
94
  3
MultiPageSettings/GlueMarginsLeft
350
95
  3
MultiPageSettings/GlueMarginsRight
350
96
  3
MultiPageSettings/GlueMarginsTop
350
97
  3
MultiPageSettings/PrintCropMarks
350
98
  3
MultiPageSettings/Rows
350
99
  3
PageSettings/OffsetX
350
9A
  3
PageSettings/OffsetY
350
9B
  3
PageSettings/PageOrientation
350
9C
  3
PageSettings/PaperHeight
350
9D
  3
PageSettings/PaperWidth
350
9E
  3
PageSettings/Scale
350
9F
  3
PageSettings/ShowPaperBorders
350
A0
  3
PageTagSettings/EnablePageTags
350
A1
  3
PageTagSettings/TagAlignment
350
A2
  3
PageTagSettings/TagFont
350
A3
  3
PageTagSettings/TagPosition
350
A4
  3
QCADVersion
350
A5
  3
UnitSettings/PaperUnit
350
A6
  3
ViewportCenter
350
A7
  3
ViewportHeight
350
A8
  3
ViewportWidth
350
A9
  0
XRECORD
  5
75
330
72
100
AcDbXrecord
280
1
1000
White
  0
XRECORD
  5
76
330
72
100
AcDbXrecord
280
1
1000
FullColor
  0
XRECORD
  5
77
330
72
100
AcDbXrecord
280
1
290
1
  0
XRECORD
  5
78
330
72
100
AcDbXrecord
280
1
290
1
  0
XRECORD
  5
79
330
72
100
AcDbXrecord
280
1
290
1
  0
XRECORD
  5
7A
330
72
100
AcDbXrecord
280
1
290
1
  0
XRECORD
  5
7B
330
72
100
AcDbXrecord
280
1
1000
auto
  0
XRECORD
  5
7C
330
72
100
AcDbXrecord
280
1
1000
auto
  0
XRECORD
  5
7D
330
72
100
AcDbXrecord
280
1
1000
auto
  0
XRECORD
  5
7E
330
72
100
AcDbXrecord
280
1
1000
auto
  0
XRECORD
  5
7F
330
72
100
AcDbXrecord
280
1
1000
auto
  0
XRECORD
  5
80
330
72
100
AcDbXrecord
280
1
1000
auto
  0
XRECORD
  5
81
330
72
100
AcDbXrecord
280
1
1000
auto
  0
XRECORD
  5
82
330
72
100
AcDbXrecord
280
1
1000
auto
  0
XRECORD
  5
83
330
72
100
AcDbXrecord
280
1
290
0
  0
XRECORD
  5
84
330
72
100
AcDbXrecord
280
1
290
0
  0
XRECORD
  5
85
330
72
100
AcDbXrecord
280
1
290
0
  0
XRECORD
  5
86
330
72
100
AcDbXrecord
280
1
290
0
  0
XRECORD
  5
87
330
72
100
AcDbXrecord
280
1
 90
65537
  0
XRECORD
  5
88
330
72
100
AcDbXrecord
280
1
 90
65537
  0
XRECORD
  5
89
330
72
100
AcDbXrecord
280
1
 90
65537
  0
XRECORD
  5
8A
330
72
100
AcDbXrecord
280
1
 90
65537
  0
XRECORD
  5
8B
330
72
100
AcDbXrecord
280
1
1000
auto
  0
XRECORD
  5
8C
330
72
100
AcDbXrecord
280
1
1000
auto
  0
XRECORD
  5
8D
330
72
100
AcDbXrecord
280
1
1000
auto
  0
XRECORD
  5
8E
330
72
100
AcDbXrecord
280
1
1000
auto
  0
XRECORD
  5
8F
330
72
100
AcDbXrecord
280
1
1000
auto
  0
XRECORD
  5
90
330
72
100
AcDbXrecord
280
1
1000
auto
  0
XRECORD
  5
91
330
72
100
AcDbXrecord
280
1
1000
auto
  0
XRECORD
  5
92
330
72
100
AcDbXrecord
280
1
1000
auto
  0
XRECORD
  5
93
330
72
100
AcDbXrecord
280
1
 90
1
  0
XRECORD
  5
94
330
72
100
AcDbXrecord
280
1
 40
10.0
  0
XRECORD
  5
95
330
72
100
AcDbXrecord
280
1
 40
10.0
  0
XRECORD
  5
96
330
72
100
AcDbXrecord
280
1
 40
10.0
  0
XRECORD
  5
97
330
72
100
AcDbXrecord
280
1
 40
10.0
  0
XRECORD
  5
98
330
72
100
AcDbXrecord
280
1
290
0
  0
XRECORD
  5
99
330
72
100
AcDbXrecord
280
1
 90
1
  0
XRECORD
  5
9A
330
72
100
AcDbXrecord
280
1
 40
0.0
  0
XRECORD
  5
9B
330
72
100
AcDbXrecord
280
1
 40
0.0
  0
XRECORD
  5
9C
330
72
100
AcDbXrecord
280
1
1000
Portrait
  0
XRECORD
  5
9D
330
72
100
AcDbXrecord
280
1
 40
297.0
  0
XRECORD
  5
9E
330
72
100
AcDbXrecord
280
1
 40
210.0
  0
XRECORD
  5
9F
330
72
100
AcDbXrecord
280
1
1000
1:1
  0
XRECORD
  5
A0
330
72
100
AcDbXrecord
280
1
290
1
  0
XRECORD
  5
A1
330
72
100
AcDbXrecord
280
1
290
0
  0
XRECORD
  5
A2
330
72
100
AcDbXrecord
280
1
1000
Inside
  0
XRECORD
  5
A3
330
72
100
AcDbXrecord
280
1
1000
Arial,10,-1,5,50,0,0,0,0,0
  0
XRECORD
  5
A4
330
72
100
AcDbXrecord
280
1
1000
TopLeft
  0
XRECORD
  5
A5
330
72
100
AcDbXrecord
280
1
1000
3.32.2
  0
XRECORD
  5
A6
330
72
100
AcDbXrecord
280
1
 90
4
  0
XRECORD
  5
A8
330
72
100
AcDbXrecord
280
1
 40
4.1415338054878532
  0
XRECORD
  5
A9
330
72
100
AcDbXrecord
280
1
 40
9.0881353046276558
  0
ENDSEC
  0
EOF
