999
dxflib 3.26.4.0
  0
SECTION
  2
HEADER
  9
$ACADVER
  1
AC1015
  9
$HANDSEED
  5
FFFF
  9
$ANGBASE
 50
0.0
  9
$ANGDIR
 70
0
  9
$ATTMODE
 70
1
  9
$AUNITS
 70
0
  9
$AUPREC
 70
0
  9
$CECOLOR
 62
256
  9
$CELTSCALE
 40
1.0
  9
$CHAMFERA
 40
0.0
  9
$CHAMFERB
 40
0.0
  9
$CHAMFERC
 40
0.0
  9
$CHAMFERD
 40
0.0
  9
$CMLJUST
 70
0
  9
$CMLSCALE
 40
20.0
  9
$DIMADEC
 70
2
  9
$DIMALT
 70
0
  9
$DIMALTD
 70
3
  9
$DIMALTF
 40
0.0393700787401575
  9
$DIMALTRND
 40
0.0
  9
$DIMALTTD
 70
3
  9
$DIMALTTZ
 70
0
  9
$DIMALTU
 70
2
  9
$DIMALTZ
 70
0
  9
$DIMAPOST
  1

  9
$DIMASZ
 40
2.5
  9
$DIMATFIT
 70
3
  9
$DIMAUNIT
 70
0
  9
$DIMAZIN
 70
0
  9
$DIMBLK
  1
0
  9
$DIMBLK1
  1
0
  9
$DIMBLK2
  1
0
  9
$DIMCEN
 40
2.5
  9
$DIMCLRD
 70
0
  9
$DIMCLRE
 70
0
  9
$DIMDEC
 70
2
  9
$DIMDLE
 40
0.0
  9
$DIMDLI
 40
3.75
  9
$DIMDSEP
 70
44
  9
$DIMEXE
 40
1.25
  9
$DIMEXO
 40
0.625
  9
$DIMFRAC
 70
2
  9
$DIMGAP
 40
0.7
  9
$DIMJUST
 70
0
  9
$DIMLDRBLK
  1

  9
$DIMLFAC
 40
1.0
  9
$DIMLIM
 70
0
  9
$DIMLUNIT
 70
2
  9
$DIMLWD
 70
15
  9
$DIMLWE
 70
15
  9
$DIMPOST
  1

  9
$DIMRND
 40
0.01
  9
$DIMSAH
 70
0
  9
$DIMSCALE
 40
1.0
  9
$DIMSD1
 70
0
  9
$DIMSD2
 70
0
  9
$DIMSE1
 70
0
  9
$DIMSE2
 70
0
  9
$DIMSOXD
 70
0
  9
$DIMTAD
 70
1
  9
$DIMTDEC
 70
2
  9
$DIMTFAC
 40
1.0
  9
$DIMTIH
 70
0
  9
$DIMTIX
 70
0
  9
$DIMTM
 40
0.0
  9
$DIMTOFL
 70
1
  9
$DIMTOH
 70
0
  9
$DIMTOL
 70
0
  9
$DIMTOLJ
 70
0
  9
$DIMTP
 40
0.0
  9
$DIMTSZ
 40
0.0
  9
$DIMTVP
 40
0.0
  9
$DIMTXSTY
  7
Standard
  9
$DIMTXT
 40
2.5
  9
$DIMTZIN
 70
8
  9
$DIMUPT
 70
0
  9
$DIMZIN
 70
8
  9
$DISPSILH
 70
0
  9
$DWGCODEPAGE
  3
ANSI_1252
  9
$ELEVATION
 40
0.0
  9
$EXTMAX
 10
-100000000000000000000.0
 20
-100000000000000000000.0
 30
-100000000000000000000.0
  9
$EXTMIN
 10
100000000000000000000.0
 20
100000000000000000000.0
 30
100000000000000000000.0
  9
$FILLETRAD
 40
0.0
  9
$FILLMODE
 70
1
  9
$INSBASE
 10
0.0
 20
0.0
 30
0.0
  9
$INSUNITS
 70
4
  9
$LIMCHECK
 70
0
  9
$LIMMAX
 10
420.0
 20
297.0
  9
$LIMMIN
 10
0.0
 20
0.0
  9
$LTSCALE
 40
1.0
  9
$LUNITS
 70
2
  9
$LUPREC
 70
4
  9
$MAXACTVP
 70
64
  9
$MEASUREMENT
 70
1
  9
$MIRRTEXT
 70
1
  9
$ORTHOMODE
 70
0
  9
$PDMODE
 70
0
  9
$PDSIZE
 40
0.0
  9
$PELEVATION
 40
0.0
  9
$PEXTMAX
 10
0.0
 20
0.0
 30
0.0
  9
$PEXTMIN
 10
0.0
 20
0.0
 30
0.0
  9
$PINSBASE
 10
0.0
 20
0.0
 30
0.0
  9
$PLIMCHECK
 70
0
  9
$PLIMMAX
 10
277.0
 20
202.5
  9
$PLIMMIN
 10
-20.0
 20
-7.5
  9
$PLINEGEN
 70
0
  9
$PLINEWID
 40
0.0
  9
$PROXYGRAPHICS
 70
1
  9
$PSLTSCALE
 70
1
  9
$PUCSNAME
  2

  9
$PUCSORG
 10
0.0
 20
0.0
 30
0.0
  9
$PUCSXDIR
 10
1.0
 20
0.0
 30
0.0
  9
$PUCSYDIR
 10
0.0
 20
1.0
 30
0.0
  9
$QTEXTMODE
 70
0
  9
$REGENMODE
 70
1
  9
$SHADEDGE
 70
3
  9
$SHADEDIF
 70
70
  9
$SKETCHINC
 40
1.0
  9
$SKPOLY
 70
0
  9
$SPLFRAME
 70
0
  9
$SPLINESEGS
 70
8
  9
$SPLINETYPE
 70
6
  9
$SURFTAB1
 70
6
  9
$SURFTAB2
 70
6
  9
$SURFTYPE
 70
6
  9
$SURFU
 70
6
  9
$SURFV
 70
6
  9
$TEXTSIZE
 40
2.5
  9
$TEXTSTYLE
  7
Standard
  9
$THICKNESS
 40
0.0
  9
$TILEMODE
 70
0
  9
$TRACEWID
 40
1.0
  9
$TREEDEPTH
 70
3020
  9
$UCSNAME
  2

  9
$UCSORG
 10
0.0
 20
0.0
 30
0.0
  9
$UCSXDIR
 10
1.0
 20
0.0
 30
0.0
  9
$UCSYDIR
 10
0.0
 20
1.0
 30
0.0
  9
$UNITMODE
 70
0
  9
$USERI1
 70
0
  9
$USERI2
 70
0
  9
$USERI3
 70
0
  9
$USERI4
 70
0
  9
$USERI5
 70
0
  9
$USERR1
 40
0.0
  9
$USERR2
 40
0.0
  9
$USERR3
 40
0.0
  9
$USERR4
 40
0.0
  9
$USERR5
 40
0.0
  9
$USRTIMER
 70
1
  9
$VISRETAIN
 70
1
  0
ENDSEC
  0
SECTION
  2
TABLES
  0
TABLE
  2
VPORT
  5
8
100
AcDbSymbolTable
 70
1
  0
VPORT
  5
30
100
AcDbSymbolTableRecord
100
AcDbViewportTableRecord
  2
*Active
 70
0
 10
0.0
 20
0.0
 11
1.0
 21
1.0
 12
286.3055555555554861
 22
148.5
 13
0.0
 23
0.0
 14
10.0
 24
10.0
 15
10.0
 25
10.0
 16
0.0
 26
0.0
 36
1.0
 17
0.0
 27
0.0
 37
0.0
 40
297.0
 41
1.92798353909465
 42
50.0
 43
0.0
 44
0.0
 50
0.0
 51
0.0
 71
0
 72
100
 73
1
 74
3
 75
1
 76
1
 77
0
 78
0
281
0
 65
1
110
0.0
120
0.0
130
0.0
111
1.0
121
0.0
131
0.0
112
0.0
122
1.0
132
0.0
 79
0
146
0.0
  0
ENDTAB
  0
TABLE
  2
LTYPE
  5
5
100
AcDbSymbolTable
 70
46
  0
LTYPE
  5
16
100
AcDbSymbolTableRecord
100
AcDbLinetypeTableRecord
  2
Continuous
 70
0
  3
Solid line
 72
65
 73
0
 40
0.0
  0
LTYPE
  5
31
100
AcDbSymbolTableRecord
100
AcDbLinetypeTableRecord
  2
ACAD_ISO05W100
 70
0
  3
ISO long-dash double-dot ____ .. ____ .. ____ . 
 72
65
 73
6
 40
33.0
 49
24.0
 74
0
 49
-3.0
 74
0
 49
0.0
 74
0
 49
-3.0
 74
0
 49
0.0
 74
0
 49
-3.0
 74
0
  0
LTYPE
  5
32
100
AcDbSymbolTableRecord
100
AcDbLinetypeTableRecord
  2
BORDER2
 70
0
  3
Border (.5x) __.__.__.__.__.__.__.__.__.__.__.
 72
65
 73
6
 40
22.2249999999999979
 49
6.3499999999999996
 74
0
 49
-3.1749999999999998
 74
0
 49
6.3499999999999996
 74
0
 49
-3.1749999999999998
 74
0
 49
0.0
 74
0
 49
-3.1749999999999998
 74
0
  0
LTYPE
  5
33
100
AcDbSymbolTableRecord
100
AcDbLinetypeTableRecord
  2
DASHDOT
 70
0
  3
Dash dot __ . __ . __ . __ . __ . __ . __ . __
 72
65
 73
4
 40
25.3999999999999986
 49
12.6999999999999993
 74
0
 49
-6.3499999999999996
 74
0
 49
0.0
 74
0
 49
-6.3499999999999996
 74
0
  0
LTYPE
  5
34
100
AcDbSymbolTableRecord
100
AcDbLinetypeTableRecord
  2
PHANTOM2
 70
0
  3
Phantom (.5x) ___ _ _ ___ _ _ ___ _ _ ___ _ _
 72
65
 73
6
 40
31.7500000000000036
 49
15.875
 74
0
 49
-3.1749999999999998
 74
0
 49
3.1749999999999998
 74
0
 49
-3.1749999999999998
 74
0
 49
3.1749999999999998
 74
0
 49
-3.1749999999999998
 74
0
  0
LTYPE
  5
35
100
AcDbSymbolTableRecord
100
AcDbLinetypeTableRecord
  2
SectionLineANSI
 70
0
  3

 72
65
 73
7
 40
11.9944444444445182
 49
4.23333333333336
 74
0
 49
-1.05833333333334
 74
0
 49
0.17638888888889
 74
0
 49
-1.05833333333334
 74
0
 49
0.17638888888889
 74
0
 49
-1.05833333333334
 74
0
 49
4.23333333333336
 74
0
  0
LTYPE
  5
36
100
AcDbSymbolTableRecord
100
AcDbLinetypeTableRecord
  2
ACAD_ISO04W100
 70
0
  3
ISO long-dash dot ____ . ____ . ____ . ____ . _
 72
65
 73
4
 40
30.0
 49
24.0
 74
0
 49
-3.0
 74
0
 49
0.0
 74
0
 49
-3.0
 74
0
  0
LTYPE
  5
37
100
AcDbSymbolTableRecord
100
AcDbLinetypeTableRecord
  2
BORDERX2
 70
0
  3
Border (2x) ____  ____  .  ____  ____  .  ___
 72
65
 73
6
 40
88.8999999999999915
 49
25.3999999999999986
 74
0
 49
-12.6999999999999993
 74
0
 49
25.3999999999999986
 74
0
 49
-12.6999999999999993
 74
0
 49
0.0
 74
0
 49
-12.6999999999999993
 74
0
  0
LTYPE
  5
38
100
AcDbSymbolTableRecord
100
AcDbLinetypeTableRecord
  2
HIDDEN2
 70
0
  3
Hidden (.5x) _ _ _ _ _ _ _ _ _ _ _ _ _ _ _ _ _ 
 72
65
 73
2
 40
4.7624999999999993
 49
3.1749999999999998
 74
0
 49
-1.5874999999999999
 74
0
  0
LTYPE
  5
39
100
AcDbSymbolTableRecord
100
AcDbLinetypeTableRecord
  2
CENTERX2
 70
0
  3
Center (2x) ________  __  ________  __  _____
 72
65
 73
4
 40
101.6000000000000085
 49
63.5
 74
0
 49
-12.6999999999999993
 74
0
 49
12.6999999999999993
 74
0
 49
-12.6999999999999993
 74
0
  0
LTYPE
  5
3A
100
AcDbSymbolTableRecord
100
AcDbLinetypeTableRecord
  2
DOT
 70
0
  3
Dot . . . . . . . . . . . . . . . . . . . . . . . .
 72
65
 73
2
 40
6.3499999999999996
 49
0.0
 74
0
 49
-6.3499999999999996
 74
0
  0
LTYPE
  5
3B
100
AcDbSymbolTableRecord
100
AcDbLinetypeTableRecord
  2
DOT2
 70
0
  3
Dot (.5x) ........................................
 72
65
 73
2
 40
3.1749999999999998
 49
0.0
 74
0
 49
-3.1749999999999998
 74
0
  0
LTYPE
  5
3C
100
AcDbSymbolTableRecord
100
AcDbLinetypeTableRecord
  2
HIDDENX2
 70
0
  3
Hidden (2x) ____ ____ ____ ____ ____ ____ ____ 
 72
65
 73
2
 40
19.0499999999999972
 49
12.6999999999999993
 74
0
 49
-6.3499999999999996
 74
0
  0
LTYPE
  5
3D
100
AcDbSymbolTableRecord
100
AcDbLinetypeTableRecord
  2
CENTER
 70
0
  3
Center ____ _ ____ _ ____ _ ____ _ ____ _ ____
 72
65
 73
4
 40
50.8000000000000043
 49
31.75
 74
0
 49
-6.3499999999999996
 74
0
 49
6.3499999999999996
 74
0
 49
-6.3499999999999996
 74
0
  0
LTYPE
  5
3E
100
AcDbSymbolTableRecord
100
AcDbLinetypeTableRecord
  2
HIDDEN
 70
0
  3
Hidden __ __ __ __ __ __ __ __ __ __ __ __ __ __
 72
65
 73
2
 40
9.5249999999999986
 49
6.3499999999999996
 74
0
 49
-3.1749999999999998
 74
0
  0
LTYPE
  5
3F
100
AcDbSymbolTableRecord
100
AcDbLinetypeTableRecord
  2
BORDER
 70
0
  3
Border __ __ . __ __ . __ __ . __ __ . __ __ .
 72
65
 73
6
 40
44.4499999999999957
 49
12.6999999999999993
 74
0
 49
-6.3499999999999996
 74
0
 49
12.6999999999999993
 74
0
 49
-6.3499999999999996
 74
0
 49
0.0
 74
0
 49
-6.3499999999999996
 74
0
  0
LTYPE
  5
40
100
AcDbSymbolTableRecord
100
AcDbLinetypeTableRecord
  2
ACAD_ISO13W100
 70
0
  3
ISO double-dash double-dot __ __ . . __ __ . . _
 72
65
 73
8
 40
36.0
 49
12.0
 74
0
 49
-3.0
 74
0
 49
12.0
 74
0
 49
-3.0
 74
0
 49
0.0
 74
0
 49
-3.0
 74
0
 49
0.0
 74
0
 49
-3.0
 74
0
  0
LTYPE
  5
41
100
AcDbSymbolTableRecord
100
AcDbLinetypeTableRecord
  2
ACAD_ISO06W100
 70
0
  3
ISO long-dash triple-dot ____ ... ____ ... ____
 72
65
 73
8
 40
36.0
 49
24.0
 74
0
 49
-3.0
 74
0
 49
0.0
 74
0
 49
-3.0
 74
0
 49
0.0
 74
0
 49
-3.0
 74
0
 49
0.0
 74
0
 49
-3.0
 74
0
  0
LTYPE
  5
42
100
AcDbSymbolTableRecord
100
AcDbLinetypeTableRecord
  2
DASHED2
 70
0
  3
Dashed (.5x) _ _ _ _ _ _ _ _ _ _ _ _ _ _ _ _ _ 
 72
65
 73
2
 40
9.5249999999999986
 49
6.3499999999999996
 74
0
 49
-3.1749999999999998
 74
0
  0
LTYPE
  5
43
100
AcDbSymbolTableRecord
100
AcDbLinetypeTableRecord
  2
ACAD_ISO12W100
 70
0
  3
ISO dash double-dot __ . . __ . . __ . . __ . . 
 72
65
 73
6
 40
21.0
 49
12.0
 74
0
 49
-3.0
 74
0
 49
0.0
 74
0
 49
-3.0
 74
0
 49
0.0
 74
0
 49
-3.0
 74
0
  0
LTYPE
  5
44
100
AcDbSymbolTableRecord
100
AcDbLinetypeTableRecord
  2
DetailCircleISO
 70
0
  3

 72
65
 73
5
 40
13.7583333333334217
 49
4.23333333333336
 74
0
 49
-2.11666666666668
 74
0
 49
1.05833333333334
 74
0
 49
-2.11666666666668
 74
0
 49
4.23333333333336
 74
0
  0
LTYPE
  5
45
100
AcDbSymbolTableRecord
100
AcDbLinetypeTableRecord
  2
ACAD_ISO02W100
 70
0
  3
ISO dash __ __ __ __ __ __ __ __ __ __ __ __ __
 72
65
 73
2
 40
15.0
 49
12.0
 74
0
 49
-3.0
 74
0
  0
LTYPE
  5
46
100
AcDbSymbolTableRecord
100
AcDbLinetypeTableRecord
  2
ACAD_ISO10W100
 70
0
  3
ISO dash dot __ . __ . __ . __ . __ . __ . __ . 
 72
65
 73
4
 40
18.0
 49
12.0
 74
0
 49
-3.0
 74
0
 49
0.0
 74
0
 49
-3.0
 74
0
  0
LTYPE
  5
47
100
AcDbSymbolTableRecord
100
AcDbLinetypeTableRecord
  2
DASHDOTX2
 70
0
  3
Dash dot (2x) ____  .  ____  .  ____  .  ___
 72
65
 73
4
 40
50.7999999999999972
 49
25.3999999999999986
 74
0
 49
-12.6999999999999993
 74
0
 49
0.0
 74
0
 49
-12.6999999999999993
 74
0
  0
LTYPE
  5
48
100
AcDbSymbolTableRecord
100
AcDbLinetypeTableRecord
  2
DOTX2
 70
0
  3
Dot (2x) .  .  .  .  .  .  .  .  .  .  .  .  .  .
 72
65
 73
2
 40
12.6999999999999993
 49
0.0
 74
0
 49
-12.6999999999999993
 74
0
  0
LTYPE
  5
49
100
AcDbSymbolTableRecord
100
AcDbLinetypeTableRecord
  2
PHANTOMX2
 70
0
  3
Phantom (2x) ____________    ____    ____   _
 72
65
 73
6
 40
127.0000000000000142
 49
63.5
 74
0
 49
-12.6999999999999993
 74
0
 49
12.6999999999999993
 74
0
 49
-12.6999999999999993
 74
0
 49
12.6999999999999993
 74
0
 49
-12.6999999999999993
 74
0
  0
LTYPE
  5
4A
100
AcDbSymbolTableRecord
100
AcDbLinetypeTableRecord
  2
DIVIDEX2
 70
0
  3
Divide (2x) ________  .  .  ________  .  .  _
 72
65
 73
6
 40
63.5
 49
25.3999999999999986
 74
0
 49
-12.6999999999999993
 74
0
 49
0.0
 74
0
 49
-12.6999999999999993
 74
0
 49
0.0
 74
0
 49
-12.6999999999999993
 74
0
  0
LTYPE
  5
4B
100
AcDbSymbolTableRecord
100
AcDbLinetypeTableRecord
  2
SectionLineISO
 70
0
  3

 72
65
 73
5
 40
13.7583333333334217
 49
4.23333333333336
 74
0
 49
-2.11666666666668
 74
0
 49
1.05833333333334
 74
0
 49
-2.11666666666668
 74
0
 49
4.23333333333336
 74
0
  0
LTYPE
  5
15
100
AcDbSymbolTableRecord
100
AcDbLinetypeTableRecord
  2
ByLayer
 70
0
  3

 72
65
 73
0
 40
0.0
  0
LTYPE
  5
4C
100
AcDbSymbolTableRecord
100
AcDbLinetypeTableRecord
  2
PHANTOM
 70
0
  3
Phantom ______  __  __  ______  __  __  ______ 
 72
65
 73
6
 40
63.5000000000000071
 49
31.75
 74
0
 49
-6.3499999999999996
 74
0
 49
6.3499999999999996
 74
0
 49
-6.3499999999999996
 74
0
 49
6.3499999999999996
 74
0
 49
-6.3499999999999996
 74
0
  0
LTYPE
  5
4D
100
AcDbSymbolTableRecord
100
AcDbLinetypeTableRecord
  2
DASHED
 70
0
  3
Dashed __ __ __ __ __ __ __ __ __ __ __ __ __ _
 72
65
 73
2
 40
19.0499999999999972
 49
12.6999999999999993
 74
0
 49
-6.3499999999999996
 74
0
  0
LTYPE
  5
4E
100
AcDbSymbolTableRecord
100
AcDbLinetypeTableRecord
  2
CENTER2
 70
0
  3
Center (.5x) ___ _ ___ _ ___ _ ___ _ ___ _ ___
 72
65
 73
4
 40
28.5750000000000028
 49
19.0500000000000007
 74
0
 49
-3.1749999999999998
 74
0
 49
3.1749999999999998
 74
0
 49
-3.1749999999999998
 74
0
  0
LTYPE
  5
4F
100
AcDbSymbolTableRecord
100
AcDbLinetypeTableRecord
  2
ACAD_ISO07W100
 70
0
  3
ISO dot . . . . . . . . . . . . . . . . . . . . 
 72
65
 73
2
 40
3.0
 49
0.0
 74
0
 49
-3.0
 74
0
  0
LTYPE
  5
50
100
AcDbSymbolTableRecord
100
AcDbLinetypeTableRecord
  2
DASHDOT2
 70
0
  3
Dash dot (.5x) _._._._._._._._._._._._._._._.
 72
65
 73
4
 40
12.6999999999999993
 49
6.3499999999999996
 74
0
 49
-3.1749999999999998
 74
0
 49
0.0
 74
0
 49
-3.1749999999999998
 74
0
  0
LTYPE
  5
51
100
AcDbSymbolTableRecord
100
AcDbLinetypeTableRecord
  2
ACAD_ISO08W100
 70
0
  3
ISO long-dash short-dash ____ __ ____ __ ____ _
 72
65
 73
4
 40
36.0
 49
24.0
 74
0
 49
-3.0
 74
0
 49
6.0
 74
0
 49
-3.0
 74
0
  0
LTYPE
  5
52
100
AcDbSymbolTableRecord
100
AcDbLinetypeTableRecord
  2
ACAD_ISO11W100
 70
0
  3
ISO double-dash dot __ __ . __ __ . __ __ . __ _
 72
65
 73
6
 40
33.0
 49
12.0
 74
0
 49
-3.0
 74
0
 49
12.0
 74
0
 49
-3.0
 74
0
 49
0.0
 74
0
 49
-3.0
 74
0
  0
LTYPE
  5
14
100
AcDbSymbolTableRecord
100
AcDbLinetypeTableRecord
  2
ByBlock
 70
0
  3

 72
65
 73
0
 40
0.0
  0
LTYPE
  5
53
100
AcDbSymbolTableRecord
100
AcDbLinetypeTableRecord
  2
DraftedLine
 70
0
  3

 72
65
 73
2
 40
3.0
 49
2.0
 74
0
 49
-1.0
 74
0
  0
LTYPE
  5
54
100
AcDbSymbolTableRecord
100
AcDbLinetypeTableRecord
  2
ACAD_ISO14W100
 70
0
  3
ISO dash triple-dot __ . . . __ . . . __ . . . _
 72
65
 73
8
 40
24.0
 49
12.0
 74
0
 49
-3.0
 74
0
 49
0.0
 74
0
 49
-3.0
 74
0
 49
0.0
 74
0
 49
-3.0
 74
0
 49
0.0
 74
0
 49
-3.0
 74
0
  0
LTYPE
  5
55
100
AcDbSymbolTableRecord
100
AcDbLinetypeTableRecord
  2
DIVIDE2
 70
0
  3
Divide (.5x) __..__..__..__..__..__..__..__.._
 72
65
 73
6
 40
15.875
 49
6.3499999999999996
 74
0
 49
-3.1749999999999998
 74
0
 49
0.0
 74
0
 49
-3.1749999999999998
 74
0
 49
0.0
 74
0
 49
-3.1749999999999998
 74
0
  0
LTYPE
  5
56
100
AcDbSymbolTableRecord
100
AcDbLinetypeTableRecord
  2
DASHEDX2
 70
0
  3
Dashed (2x) ____  ____  ____  ____  ____  ___
 72
65
 73
2
 40
38.0999999999999943
 49
25.3999999999999986
 74
0
 49
-12.6999999999999993
 74
0
  0
LTYPE
  5
57
100
AcDbSymbolTableRecord
100
AcDbLinetypeTableRecord
  2
DIVIDE
 70
0
  3
Divide ____ . . ____ . . ____ . . ____ . . ____
 72
65
 73
6
 40
31.75
 49
12.6999999999999993
 74
0
 49
-6.3499999999999996
 74
0
 49
0.0
 74
0
 49
-6.3499999999999996
 74
0
 49
0.0
 74
0
 49
-6.3499999999999996
 74
0
  0
LTYPE
  5
58
100
AcDbSymbolTableRecord
100
AcDbLinetypeTableRecord
  2
ACAD_ISO09W100
 70
0
  3
ISO long-dash double-short-dash ____ __ __ ____
 72
65
 73
6
 40
45.0
 49
24.0
 74
0
 49
-3.0
 74
0
 49
6.0
 74
0
 49
-3.0
 74
0
 49
6.0
 74
0
 49
-3.0
 74
0
  0
LTYPE
  5
59
100
AcDbSymbolTableRecord
100
AcDbLinetypeTableRecord
  2
ACAD_ISO15W100
 70
0
  3
ISO double-dash triple-dot __ __ . . . __ __ . .
 72
65
 73
10
 40
39.0
 49
12.0
 74
0
 49
-3.0
 74
0
 49
12.0
 74
0
 49
-3.0
 74
0
 49
0.0
 74
0
 49
-3.0
 74
0
 49
0.0
 74
0
 49
-3.0
 74
0
 49
0.0
 74
0
 49
-3.0
 74
0
  0
LTYPE
  5
5A
100
AcDbSymbolTableRecord
100
AcDbLinetypeTableRecord
  2
ACAD_ISO03W100
 70
0
  3
ISO dash space __    __    __    __    __    __
 72
65
 73
2
 40
30.0
 49
12.0
 74
0
 49
-18.0
 74
0
  0
LTYPE
  5
5B
100
AcDbSymbolTableRecord
100
AcDbLinetypeTableRecord
  2
CenterLine
 70
0
  3

 72
65
 73
4
 40
8.0
 49
5.0
 74
0
 49
-1.0
 74
0
 49
1.0
 74
0
 49
-1.0
 74
0
  0
ENDTAB
  0
TABLE
  2
LAYER
  5
2
100
AcDbSymbolTable
 70
4
  0
LAYER
  5
10
100
AcDbSymbolTableRecord
100
AcDbLayerTableRecord
  2
0
 70
0
 62
7
420
16777215
  6
Continuous
370
-3
390
F
  0
LAYER
  5
5C
100
AcDbSymbolTableRecord
100
AcDbLayerTableRecord
  2
Geometries
 70
0
 62
7
420
16777215
  6
Continuous
370
-3
390
F
  0
LAYER
  5
5D
100
AcDbSymbolTableRecord
100
AcDbLayerTableRecord
  2
Annotations
 70
0
 62
7
420
16777215
  6
Continuous
370
-3
390
F
  0
LAYER
  5
5E
100
AcDbSymbolTableRecord
100
AcDbLayerTableRecord
  2
Border
 70
0
 62
7
420
16777215
  6
Continuous
370
-3
390
F
  0
ENDTAB
  0
TABLE
  2
STYLE
  5
3
100
AcDbSymbolTable
 70
1
  0
STYLE
  5
5F
100
AcDbSymbolTableRecord
100
AcDbTextStyleTableRecord
  2
Standard
 70
0
 40
0.0
 41
1.0
 50
0.0
 71
0
 42
2.5
  3

  4

1001
ACAD
1000
txt
1071
0
  0
ENDTAB
  0
TABLE
  2
VIEW
  5
6
100
AcDbSymbolTable
 70
0
  0
ENDTAB
  0
TABLE
  2
UCS
  5
7
100
AcDbSymbolTable
 70
0
  0
ENDTAB
  0
TABLE
  2
APPID
  5
9
100
AcDbSymbolTable
 70
1
  0
APPID
  5
12
100
AcDbSymbolTableRecord
100
AcDbRegAppTableRecord
  2
ACAD
 70
0
  0
APPID
  5
60
100
AcDbSymbolTableRecord
100
AcDbRegAppTableRecord
  2
QCAD
 70
0
  0
ENDTAB
  0
TABLE
  2
DIMSTYLE
  5
A
100
AcDbSymbolTable
 70
1
100
AcDbDimStyleTable
 71
0
  0
DIMSTYLE
105
27
100
AcDbSymbolTableRecord
100
AcDbDimStyleTableRecord
  2
Standard
 41
2.5
 42
0.625
 43
3.75
 44
1.25
 70
0
 73
0
 74
0
 77
1
 78
8
140
2.5
141
2.5
143
0.03937007874016
147
0.7
171
3
172
1
271
2
272
2
274
3
278
44
283
0
284
8
340
5F
  0
ENDTAB
  0
TABLE
  2
BLOCK_RECORD
  5
1
100
AcDbSymbolTable
 70
1
  0
BLOCK_RECORD
  5
1F
100
AcDbSymbolTableRecord
100
AcDbBlockTableRecord
  2
*Model_Space
340
22
  0
BLOCK_RECORD
  5
1B
100
AcDbSymbolTableRecord
100
AcDbBlockTableRecord
  2
*Paper_Space
340
1E
  0
BLOCK_RECORD
  5
23
100
AcDbSymbolTableRecord
100
AcDbBlockTableRecord
  2
*Paper_Space0
340
26
  0
ENDTAB
  0
ENDSEC
  0
SECTION
  2
BLOCKS
  0
BLOCK
  5
20
100
AcDbEntity
  8
0
100
AcDbBlockBegin
  2
*Model_Space
 70
0
 10
0.0
 20
0.0
 30
0.0
  3
*Model_Space
  1

  0
ENDBLK
  5
21
100
AcDbEntity
  8
0
100
AcDbBlockEnd
  0
BLOCK
  5
1C
100
AcDbEntity
 67
1
  8
0
100
AcDbBlockBegin
  2
*Paper_Space
 70
0
 10
0.0
 20
0.0
 30
0.0
  3
*Paper_Space
  1

  0
ENDBLK
  5
1D
100
AcDbEntity
 67
1
  8
0
100
AcDbBlockEnd
  0
BLOCK
  5
24
100
AcDbEntity
  8
0
100
AcDbBlockBegin
  2
*Paper_Space0
 70
0
 10
0.0
 20
0.0
 30
0.0
  3
*Paper_Space0
  1

  0
ENDBLK
  5
25
100
AcDbEntity
  8
0
100
AcDbBlockEnd
  0
ENDSEC
  0
SECTION
  2
ENTITIES
  0
LINE
  5
61
100
AcDbEntity
  8
Geometries
 62
256
370
0
 48
1.0
  6
Continuous
100
AcDbLine
 10
474.9999999999993179
 20
163.818596440484697
 30
0.0
 11
347.7987788040450141
 21
194.1046014871405134
 31
0.0
  0
LWPOLYLINE
  5
62
100
AcDbEntity
  8
Geometries
 62
256
370
0
 48
1.0
  6
Continuous
100
AcDbPolyline
 90
241
 70
128
 10
224.9999999999998863
 20
207.8114597600797993
 10
224.2969294322267899
 20
207.8866687050075086
 10
223.5994029674685066
 20
207.961053226917187
 10
222.9074206057248091
 20
208.0346133258090902
 10
222.2209823469960099
 20
208.1073490016829908
 10
221.5400881912817965
 20
208.1792602545390878
 10
220.8647381385825099
 20
208.2503470843772959
 10
220.1949321888978943
 20
208.3206094911975867
 10
219.5858137421824949
 20
208.384292464728901
 10
218.981353882028202
 20
208.4472826939187939
 10
218.3815526084349017
 20
208.509580178767294
 10
217.7864099214025941
 20
208.5711849192742875
 10
217.1959258209313077
 20
208.6320969154398881
 10
216.610100307021014
 20
208.6923161672642095
 10
215.9978588300317881
 20
208.7550194126114889
 10
215.7301111690439939
 20
208.782365177993114
 10
215.6881275786080892
 20
208.7866488315050901
 10
215.6461687156302958
 20
208.7909288079775934
 10
215.604234580110699
 20
208.7952051074107089
 10
215.5623251720492988
 20
208.7994777298042095
 10
215.5176322891466896
 20
208.8040328497476139
 10
215.0451828734931894
 20
208.8521042097958116
 10
214.5748044830999106
 20
208.8998166248890982
 10
214.0175305252045916
 20
208.9561491069185877
 10
213.4631916938118934
 20
209.0119728801118981
 10
212.9117879889217875
 20
209.0672879444690011
 10
212.1778987186430072
 20
209.1405737346929925
 10
211.4492741443391139
 20
209.2129470608853126
 10
210.7259142660101077
 20
209.2844079230457908
 10
210.0078190836557894
 20
209.3549563211747113
 10
209.2820767740489032
 20
209.4258499172165102
 10
208.561792344302205
 20
209.4957975670754138
 10
207.846965794415695
 20
209.5647992707511946
 10
207.1375971243894014
 20
209.6328550282441938
 10
206.4336863342234096
 20
209.6999648395542124
 10
206.3646043601873998
 20
209.7065279718335944
 10
206.2955754043981926
 20
209.7130819151221885
 10
206.2265994668555891
 20
209.7196266694199096
 10
206.1576765475595892
 20
209.726162234726786
 10
206.0888066465103918
 20
209.7326886110427893
 10
206.012414124141003
 20
209.7399229905063862
 10
205.9354672762661949
 20
209.7472046891406023
 10
205.5128867672744093
 20
209.787101773057401
 10
204.7609185232257119
 20
209.8577056814737887
 10
204.0923781833604096
 20
209.9200505731400028
 10
203.4265358416415097
 20
209.9817404532242051
 10
202.5300688529889896
 20
210.0641529531189065
 10
201.6385394850987041
 20
210.145366712832498
 10
200.7519477379707098
 20
210.2253817323648093
 10
199.8702936116046942
 20
210.3041980117158971
 10
198.9935771060009131
 20
210.3818155508857899
 10
198.1217982211593096
 20
210.4582343498746013
 10
197.1763980464990027
 20
210.5402331541845058
 10
196.2368740486134868
 20
210.6208053586094877
 10
195.3032262275027904
 20
210.6999509631492913
 10
194.3754545831669134
 20
210.777669967804087
 10
193.4535591156059127
 20
210.8539623725737897
 10
192.5375398248197882
 20
210.928828177458513
 10
191.627396710808398
 20
211.0022673824580011
 10
190.9305908336829134
 20
211.0578434138159878
 10
190.237268941767212
 20
211.1125736141021889
 10
189.5474310350612086
 20
211.1664579833164908
 10
188.8610771135649884
 20
211.2194965214588933
 10
188.2599676152140944
 20
211.2654707635616091
 10
187.6615561150094038
 20
211.3107899940823131
 10
187.1371857788961108
 20
211.3501290913596904
 10
187.0804784424261129
 20
211.354362324420407
 10
187.0236442006907112
 20
211.3586009130821139
 10
186.9668209105689982
 20
211.3628345612619057
 10
186.9100085720610025
 20
211.3670632689598108
 10
186.8532071851666103
 20
211.371287036175687
 10
186.7964167498859922
 20
211.3755058629095913
 10
186.739637266219205
 20
211.3797197491616942
 10
186.6828687341659929
 20
211.3839286949317113
 10
185.4953497254682873
 20
211.4710236013987981
 10
184.3126433858861901
 20
211.555947420986314
 10
183.1347497154197868
 20
211.6387001536940886
 10
181.9616687140689919
 20
211.7192817995224061
 10
180.7934003818338056
 20
211.7976923584710107
 10
179.629944718714313
 20
211.8739318305401014
 10
178.4713017247102869
 20
211.9480002157295075
 10
177.3174713998220966
 20
212.0198975140393998
 10
176.2254427952721869
 20
212.0862098112094998
 10
175.1377603959718101
 20
212.1505614522517078
 10
174.0544242019207957
 20
212.2129524371659102
 10
172.9754342131193141
 20
212.2733827659521921
 10
171.9007904295675075
 20
212.3318524386106958
 10
170.8304928512648928
 20
212.3883614551411085
 10
170.0421226582786005
 20
212.4288725940888014
 10
169.2561273041613958
 20
212.4683123979027926
 10
169.1020144183154059
 20
212.4759336135126944
 10
168.9479931636886079
 20
212.4835134925311024
 10
168.794063540280888
 20
212.4910520349579031
 10
168.6402255480923031
 20
212.4985492407930963
 10
168.4864791871227965
 20
212.5060051100367104
 10
168.3328244573725954
 20
212.5134196426886888
 10
168.1792613588413019
 20
212.5207928387492018
 10
168.0197392702418995
 20
212.5284128659658904
 10
166.8744880460583886
 20
212.5819353778655056
 10
165.7302890407067082
 20
212.6333295381994901
 10
164.1840753396380137
 20
212.6994690847504046
 10
162.639787309851414
 20
212.761713523777388
 10
161.0974249513469942
 20
212.8200628552806108
 10
159.5569882641246977
 20
212.8745170792599879
 10
158.0184772481846096
 20
212.9250761957156897
 10
156.4818919035265878
 20
212.9717402046474888
 10
154.76320247445571
 20
213.0193796229987981
 10
153.0469286074412878
 20
213.0621330184723092
 10
151.3330703024830939
 20
213.1000003910679936
 10
151.0505158478731005
 20
213.1057788996724014
 10
150.7680271569400929
 20
213.1114243863040087
 10
150.4856042296840997
 20
213.116936850962702
 10
150.2032470661050922
 20
213.1223162936485949
 10
149.9209556662030138
 20
213.127562714361602
 10
149.6387300299780065
 20
213.1326761131018088
 10
149.3565701574300135
 20
213.1376564898691015
 10
149.0759598617260053
 20
213.142478597884093
 10
148.2042847272857102
 20
213.1566143257545889
 10
147.3303600449252997
 20
213.1695102189150077
 10
146.1445225637093017
 20
213.184982814991713
 10
144.9545681728764919
 20
213.1981863829691974
 10
143.7604968724268133
 20
213.2091209228474042
 10
142.5623086623602092
 20
213.2177864346263902
 10
141.3600035426767079
 20
213.2241829183060133
 10
140.1535815133761957
 20
213.2283103738865009
 10
138.835676497109489
 20
213.2302239970389905
 10
137.5128933743087885
 20
213.2294490596381991
 10
136.1852321449738952
 20
213.225985561684297
 10
134.8526928091048092
 20
213.2198335031771137
 10
133.5152753667017862
 20
213.2109928841169051
 10
132.5314022678977892
 20
213.2028010338765966
 10
131.5449058318021969
 20
213.1931633355166866
 10
130.5557860584148955
 20
213.1820797890370045
 10
130.3378276564052101
 20
213.1794473759937887
 10
130.1207465493932887
 20
213.1767575844332043
 10
129.9159201757861126
 20
213.1741574832674928
 10
129.7107480332554132
 20
213.1714926920836888
 10
129.5052301218015884
 20
213.168763210881707
 10
129.2993664414246098
 20
213.1659690396616043
 10
128.8127482570668008
 20
213.1591268242904107
 10
128.3242089382326014
 20
213.1519251832573048
 10
127.4785585331287052
 20
213.1386834876950047
 10
126.627212986110905
 20
213.1243762862154085
 10
125.7701722971792009
 20
213.1090035788184878
 10
124.9074364663334933
 20
213.0925653655042993
 10
124.0390054935737965
 20
213.0750616462727862
 10
123.1648793789000962
 20
213.0564924211238917
 10
122.3909373765960993
 20
213.039270116498102
 10
121.6125850563938968
 20
213.0212226840899916
 10
120.829822418293503
 20
213.0023501238993902
 10
120.7002426963279049
 20
212.9991568463740066
 10
120.5758085330623004
 20
212.9960720318086942
 10
120.4574797493000062
 20
212.9931219115437102
 10
120.3389681357972023
 20
212.9901510156460915
 10
120.2202736925538034
 20
212.987159344115895
 10
120.1013964195696957
 20
212.9841468969530069
 10
119.982336316844993
 20
212.9811136741575126
 10
119.8630933843796953
 20
212.9780596757292983
 10
119.4871396234224932
 20
212.9683261413464948
 10
119.1093799523741978
 20
212.9583873945923074
 10
118.4846085314268009
 20
212.9416072705658109
 10
117.8549591740386973
 20
212.9242728482329028
 10
117.2204318802102989
 20
212.9063841275936113
 10
116.5810266499412933
 20
212.8879411086479081
 10
115.936743483231794
 20
212.8689437913957931
 10
115.2875823800817017
 20
212.8493921758372949
 10
114.633543340491201
 20
212.8292862619724133
 10
113.974626364460093
 20
212.8086260498010063
 10
113.3907443965292003
 20
212.7899865475311003
 10
112.8030849546185976
 20
212.7709177966528102
 10
112.2116480387285975
 20
212.7514197971659087
 10
111.6164336488591999
 20
212.7314925490705946
 10
111.5323240850664064
 20
212.728652318587109
 10
111.4481396342120973
 20
212.7258035784045944
 10
111.3638802962959033
 20
212.7229463285229087
 10
111.2795460713178954
 20
212.7200805689421088
 10
111.1951369592782015
 20
212.7172062996621094
 10
111.1123838985521957
 20
212.7143826480713926
 10
111.0367250549172979
 20
212.7117962211235067
 10
110.6192657749594019
 20
212.6974441180875033
 10
110.2446242521850053
 20
212.6844484755085887
 10
109.8681808210972974
 20
212.671281828337186
 10
109.2158123382237989
 20
212.6482112977496968
 10
108.5581021555964014
 20
212.624633829498606
 10
107.8950502732151051
 20
212.6005494235841127
 10
107.2266566910798957
 20
212.5759580800059894
 10
106.5529214091907022
 20
212.5508597987644919
 10
105.8738444275475956
 20
212.5252545798593928
 10
105.2286792839381064
 20
212.5006482028032053
 10
104.5787654782616016
 20
212.4755911685099079
 10
103.9241030105181949
 20
212.4500834769793016
 10
103.2646918807078009
 20
212.4241251282116139
 10
102.600532088830505
 20
212.3977161222065888
 10
102.1253106735589995
 20
212.3786605594791865
 10
101.6476875467404994
 20
212.3593770696693923
 10
101.5987151325663973
 20
212.3573924783464975
 10
101.5521164594969008
 20
212.3555027859285076
 10
101.5054826077116985
 20
212.3536104014407897
 10
101.4588135772107051
 20
212.3517153248834859
 10
101.4121093679939065
 20
212.3498175562563972
 10
101.3653699800614021
 20
212.3479170955596942
 10
101.3185954134129929
 20
212.3460139427932063
 10
101.2717856680490058
 20
212.3441080979571041
 10
100.9767474621053935
 20
212.3320668589425111
 10
100.3737779195939055
 20
212.3073056183349934
 10
99.7650850593612972
 20
212.2821063978352072
 10
99.2167729418192721
 20
212.2592369896356104
 10
98.6638982304307888
 20
212.2360184265473038
 10
98.1064609251959041
 20
212.2124507085704863
 10
97.5444610261145613
 20
212.1885338357051012
 10
96.9662885261065384
 20
212.1637689473795092
 10
96.3833653036428615
 20
212.1386405075247978
 10
95.7956913587233743
 20
212.1131485161409103
 10
95.203266691348361
 20
212.0872929732277896
 10
94.6060913015175089
 20
212.0610738787856064
 10
94.0041651892310881
 20
212.0344912328141902
 10
93.3974883544888854
 20
212.0075450353135977
 10
93.206255981027752
 20
211.9990198261673129
 10
93.0145563979567243
 20
211.990458863560491
 10
92.8223896052758164
 20
211.9818621474931035
 10
92.6297556029850711
 20
211.9732296779650085
 10
92.4366543910844882
 20
211.9645614549764048
 10
92.2430859695739542
 20
211.9558574785272071
 10
92.0513465386949861
 20
211.9472213197834947
 10
91.016316267331618
 20
211.9003659248766951
 10
90.0954891011095214
 20
211.8583434758182875
 10
89.1777817505835344
 20
211.8161443521989895
 10
88.0893407868626781
 20
211.7656769422839886
 10
87.0053213306478455
 20
211.7149591432520026
 10
85.9257233819389228
 20
211.6639909551032872
 10
84.7042745469591409
 20
211.6057686264092013
 10
83.4885353032835269
 20
211.5472229646613869
 10
82.2785056509120807
 20
211.4883539698597872
 10
81.0741855898446602
 20
211.4291616420044875
 10
79.8755751200814643
 20
211.3696459810954877
 10
78.6826742416223226
 20
211.309806987132788
 10
77.5631686471921284
 20
211.2530912175708977
 10
76.4487387629089596
 20
211.1960880115229031
 10
75.3393845887728446
 20
211.1387973689888042
 10
74.2351061247839255
 20
211.0812192899684874
 10
73.1359033709420885
 20
211.0233537744620946
  0
LINE
  5
63
100
AcDbEntity
  8
Geometries
 62
256
370
0
 48
1.0
  6
Continuous
100
AcDbLine
 10
224.9999999999996874
 20
201.818596440484697
 30
0.0
 11
224.9999999999996874
 21
207.8114597600797993
 31
0.0
  0
LWPOLYLINE
  5
64
100
AcDbEntity
  8
Geometries
 62
256
370
0
 48
1.0
  6
Continuous
100
AcDbPolyline
 90
87
 70
128
 10
-44.999999999999261
 20
168.8185964404854076
 10
-43.9204031559508508
 20
169.4687377242524917
 10
-42.8358696535399304
 20
170.1147521614061873
 10
-41.7463994927666135
 20
170.7566397519464942
 10
-40.6519926736306374
 20
171.3944004958734126
 10
-39.5526491961325632
 20
172.028034393186914
 10
-38.4681316386240724
 20
172.6463364354185046
 10
-37.3788521577910373
 20
173.2606577024569958
 10
-36.2848107536330033
 20
173.8709981943023024
 10
-35.1860074261505531
 20
174.4773579109547086
 10
-34.0598708528221366
 20
175.0919888510609042
 10
-32.9287760086433323
 20
175.7024748773885108
 10
-31.792722893614151
 20
176.3088159899373011
 10
-30.6517115077345217
 20
176.9110121887073888
 10
-29.5057418510045295
 20
177.5090634736988022
 10
-28.3548139234239898
 20
178.1029698449115131
 10
-27.198927724993009
 20
178.6927313023454076
 10
-26.0380832557116797
 20
179.2783478460005142
 10
-24.8722805155797992
 20
179.8598194758770035
 10
-23.701519504597659
 20
180.4371461919747048
 10
-22.5258002227648717
 20
181.0103279942937036
 10
-21.3451226700817394
 20
181.579364882833886
 10
-20.1594868465481305
 20
182.1442568575955079
 10
-18.9688927521640913
 20
182.7050039185783135
 10
-17.6535124455094206
 20
183.3170383102448966
 10
-16.3321326311256598
 20
183.9240573562393024
 10
-15.0047533090128695
 20
184.5260610565613888
 10
-13.6713744791710194
 20
185.1230494112112979
 10
-12.3319961416003103
 20
185.7150224201888875
 10
-11.1091732866882804
 20
186.2488275416098986
 10
-9.8813921609261115
 20
186.7784877492522071
 10
-8.6486527643131694
 20
187.3040030431158129
 10
-7.4109550968499889
 20
187.8253734232006877
 10
-6.1682991585362572
 20
188.3425988895068031
 10
-4.9206849493721734
 20
188.8556794420341873
 10
-3.66811246935751
 20
189.3646150807828974
 10
-2.2845559385093002
 20
189.9196569079919925
 10
-0.8949998999320314
 20
190.4696833895287966
 10
0.5005556463742948
 20
191.014694525393395
 10
1.902110700409565
 20
191.5546903155857024
 10
3.3096652621740081
 20
192.0896707601056903
 10
4.7232193316673943
 20
192.6196358589535009
 10
6.1427729088898388
 20
193.1445856121289921
 10
7.5683259938413698
 20
193.664520019632306
 10
8.9998785865218167
 20
194.1794390814633005
 10
10.43743068693135
 20
194.6893427976220039
 10
11.8551519773026808
 20
195.1852592845812921
 10
13.2786604203781504
 20
195.6763379460755061
 10
14.7079560161577891
 20
196.1625787821045037
 10
16.1430387646415987
 20
196.6439817926685123
 10
17.4765373081795303
 20
197.0852665172427862
 10
18.8149941225677004
 20
197.5224063280384996
 10
20.1584092078065282
 20
197.9554012250555104
 10
21.5067825638955696
 20
198.3842512082935912
 10
22.8601141908351089
 20
198.8089562777531114
 10
24.2184040886251601
 20
199.2295164334337869
 10
25.5816522572656915
 20
199.6459316753357882
 10
27.08695204560237
 20
200.0992010660135918
 10
28.5982513416681492
 20
200.5474551110191044
 10
30.115550145463061
 20
200.9906938103524112
 10
31.6388484569869206
 20
201.4289171640133986
 10
33.1681462762398667
 20
201.862125172002095
 10
34.7034436032217286
 20
202.2903178343186141
 10
36.244740437932677
 20
202.7134951509627001
 10
37.7920367803726478
 20
203.131657121934694
 10
39.3453326305417193
 20
203.5448037472343117
 10
40.9046279884398416
 20
203.9529350268618089
 10
42.4419185495586575
 20
204.3488964422278116
 10
43.9849962633817881
 20
204.7400200321287116
 10
45.5338611299090701
 20
205.1263057965645089
 10
47.0885131491405104
 20
205.5077537355350898
 10
48.6773775094173402
 20
205.8911665257778054
 10
50.2722413774233416
 20
206.2695639703482016
 10
51.8731047531581666
 20
206.6429460692463067
 10
53.479967636622213
 20
207.0113128224722061
 10
55.0928300278151468
 20
207.3746642300257861
 10
56.6827310680630774
 20
207.7266454138907932
 10
58.2784192610150527
 20
208.0737887722906976
 10
59.8798946066712929
 20
208.416094305225414
 10
61.4871571050318622
 20
208.753562012695113
 10
63.133186394463678
 20
209.0929298866120121
 10
64.7852414572235205
 20
209.4272604578787877
 10
66.4433222933113257
 20
209.7565537264956106
 10
68.1074289027270083
 20
210.0808096924623101
 10
69.7775612854708811
 20
210.4000283557788862
 10
71.4537194415426882
 20
210.7142097164455095
 10
73.1359033709423159
 20
211.0233537744620946
  0
LINE
  5
65
100
AcDbEntity
  8
Geometries
 62
256
370
0
 48
1.0
  6
Continuous
100
AcDbLine
 10
329.8066531914677171
 20
124.7799270787783001
 30
0.0
 11
474.9999999999993179
 21
153.818596440484697
 31
0.0
  0
LINE
  5
66
100
AcDbEntity
  8
Geometries
 62
256
370
0
 48
1.0
  6
Continuous
100
AcDbLine
 10
85.1678478717797702
 20
119.9303605484775943
 30
0.0
 11
85.1678478717797702
 21
152.8209446423273903
 31
0.0
  0
LINE
  5
67
100
AcDbEntity
  8
Geometries
 62
256
370
0
 48
1.0
  6
Continuous
100
AcDbLine
 10
-45.0000000000006324
 20
143.818596440484697
 30
0.0
 11
-44.999999999999261
 21
168.8185964404854076
 31
0.0
  0
LWPOLYLINE
  5
68
100
AcDbEntity
  8
Geometries
 62
256
370
0
 48
1.0
  6
Continuous
100
AcDbPolyline
 90
74
 70
128
 10
65.0294809005384877
 20
120.2007036600953995
 10
63.3025930257204266
 20
120.3827781715124985
 10
61.5808649680946587
 20
120.5691201121634037
 10
59.8642967276610065
 20
120.7597294820483
 10
58.1528883044196903
 20
120.9546062811670026
 10
56.4466396983706318
 20
121.1537505095196963
 10
54.7455509095137032
 20
121.3571621671061962
 10
53.0496219378489968
 20
121.5648412539267014
 10
51.4995531365648276
 20
121.7589625682209942
 10
49.9538200150046805
 20
121.9566697084687945
 10
48.4124225731685627
 20
122.1579626746702019
 10
46.8753608110564528
 20
122.3628414668250031
 10
45.3426347286683722
 20
122.5713060849332976
 10
43.8142443260044274
 20
122.7833565289950997
 10
42.2901896030643911
 20
122.9989927990102956
 10
40.7704705598484907
 20
123.2182148949790985
 10
39.2550871963563779
 20
123.4410228169012953
 10
37.7440395125885004
 20
123.6674165647769996
 10
36.2373275085446735
 20
123.8973961386061973
 10
34.7349511842247409
 20
124.1309615383889025
 10
32.9698595234730831
 20
124.4108385322937949
 10
31.2107902545828289
 20
124.6956963482182061
 10
29.4577433775543192
 20
124.9855349861621931
 10
27.710718892387181
 20
125.280354446125699
 10
26.2331178807760601
 20
125.534410279928295
 10
24.7598525488890004
 20
125.7920519396843986
 10
23.2909228967258208
 20
126.0532794253939954
 10
21.8263289242867984
 20
126.3180927370570004
 10
20.3660706315716915
 20
126.5864918746735981
 10
18.9101480185806814
 20
126.8584768382436039
 10
17.199805374752291
 20
127.1836340323263954
 10
15.4954851227854
 20
127.5137720484288053
 10
13.7971872626800707
 20
127.8488908865507057
 10
12.10491179443639
 20
128.1889905466921959
 10
10.5990406296885205
 20
128.4968598792011107
 10
9.0979704788608444
 20
128.808699892529205
 10
7.6017013419534578
 20
129.1245105866765073
 10
6.1102332189663002
 20
129.444291961642989
 10
4.6235661098995422
 20
129.7680440174287071
 10
3.1417000147528711
 20
130.095766754033491
 10
1.664634933526514
 20
130.4274601714575113
 10
0.192370866220358
 20
130.763124269700711
 10
-1.202277089446341
 20
131.085786467409207
 10
-2.592589365389216
 20
131.4120344910712959
 10
-3.9785659616078699
 20
131.741868340686807
 10
-5.3602068781027006
 20
132.0752880162559109
 10
-6.7375121148733106
 20
132.4122935177784086
 10
-8.1104816719198709
 20
132.7528848452544139
 10
-9.7230582140997228
 20
133.1588995396548967
 10
-11.3296123644177804
 20
133.569895056075012
 10
-12.9301441228744203
 20
133.9858713945147031
 10
-14.5246534894694204
 20
134.406828554973913
 10
-15.9432334920307692
 20
134.7868920841951876
 10
-17.3570124806720401
 20
135.1709262942354997
 10
-18.7659904553930801
 20
135.5589311850951049
 10
-20.1701674161938307
 20
135.9509067567738896
 10
-21.5695433630743914
 20
136.346853009271797
 10
-22.9641182960346306
 20
136.7467699425889123
 10
-24.3538922150746906
 20
137.1506575567252071
 10
-25.7388651201945287
 20
137.5585158516805961
 10
-27.1190370113939707
 20
137.9703448274551931
 10
-28.4944078886732086
 20
138.386144484048998
 10
-29.8649777520322495
 20
138.8059148214620109
 10
-31.2307466014710791
 20
139.2296558396940895
 10
-32.5917144369895198
 20
139.6573675387454898
 10
-33.9478812585878416
 20
140.0890499186160127
 10
-35.2992470662657567
 20
140.5247029793056015
 10
-36.6458118600235991
 20
140.9643267208145119
 10
-38.0513494000051082
 20
141.4291437289880946
 10
-39.451617799992313
 20
141.8983185818703134
 10
-40.8466170599856184
 20
142.3718512794609978
 10
-42.2363471799846977
 20
142.8497418217602899
 10
-43.6208081599896218
 20
143.3319902087681896
 10
-45.0000000000006324
 20
143.818596440484697
  0
ARC
  5
69
100
AcDbEntity
  8
Geometries
 62
256
370
0
 48
1.0
  6
Continuous
100
AcDbCircle
 10
84.9999999999992326
 20
158.818596440484697
 30
0.0
 40
5.9999999999999982
100
AcDbArc
 50
271.6030382397447056
 51
270.0
  0
LINE
  5
6A
100
AcDbEntity
  8
Geometries
 62
256
370
0
 48
1.0
  6
Continuous
100
AcDbLine
 10
347.7987788040450141
 20
194.1046014871405134
 30
0.0
 11
344.9999999999994884
 21
194.4078323196318081
 31
0.0
  0
LINE
  5
6B
100
AcDbEntity
  8
Geometries
 62
256
370
0
 48
1.0
  6
Continuous
100
AcDbLine
 10
224.9999999999996874
 20
201.818596440484697
 30
0.0
 11
229.9999999999992895
 21
201.818596440484697
 31
0.0
  0
LINE
  5
6C
100
AcDbEntity
  8
Geometries
 62
256
370
0
 48
1.0
  6
Continuous
100
AcDbLine
 10
229.9999999999992895
 20
201.818596440484697
 30
0.0
 11
229.9999999999992895
 21
159.0416584050011863
 31
0.0
  0
LINE
  5
6D
100
AcDbEntity
  8
Geometries
 62
256
370
0
 48
1.0
  6
Continuous
100
AcDbLine
 10
229.9999999999992895
 20
158.818596440484697
 30
0.0
 11
224.9999999999992895
 21
158.818596440484697
 31
0.0
  0
ARC
  5
6E
100
AcDbEntity
  8
Geometries
 62
256
370
0
 48
1.0
  6
Continuous
100
AcDbCircle
 10
218.9999999999992895
 20
158.818596440484697
 30
0.0
 40
5.9999999999999822
100
AcDbArc
 50
2.1305758368487497
 51
0.0
  0
LINE
  5
6F
100
AcDbEntity
  8
Geometries
 62
256
370
0
 48
1.0
  6
Continuous
100
AcDbLine
 10
344.9999999999993747
 20
188.818596440484697
 30
0.0
 11
344.9999999999994884
 21
194.4078323196318081
 31
0.0
  0
LINE
  5
70
100
AcDbEntity
  8
Geometries
 62
256
370
0
 48
1.0
  6
Continuous
100
AcDbLine
 10
339.9999999999993747
 20
188.818596440484697
 30
0.0
 11
344.9999999999993747
 21
188.818596440484697
 31
0.0
  0
LINE
  5
71
100
AcDbEntity
  8
Geometries
 62
256
370
0
 48
1.0
  6
Continuous
100
AcDbLine
 10
229.9999999999992895
 20
138.818596440484697
 30
0.0
 11
339.9999999999998863
 21
138.818596440484697
 31
0.0
  0
LINE
  5
72
100
AcDbEntity
  8
Geometries
 62
256
370
0
 48
1.0
  6
Continuous
100
AcDbLine
 10
84.9999999999993463
 20
152.818596440484697
 30
0.0
 11
84.9999999999993463
 21
119.9320176329380985
 31
0.0
  0
LINE
  5
73
100
AcDbEntity
  8
Geometries
 62
256
370
0
 48
1.0
  6
Continuous
100
AcDbLine
 10
339.9999999999998863
 20
138.818596440484697
 30
0.0
 11
339.9999999999993747
 21
188.818596440484697
 31
0.0
  0
LWPOLYLINE
  5
74
100
AcDbEntity
  8
Geometries
 62
256
370
0
 48
1.0
  6
Continuous
100
AcDbPolyline
 90
148
 70
128
 10
85.1678478717797702
 20
119.9303605484775943
 10
86.6973077732417892
 20
119.9158241316820011
 10
88.2340737712556233
 20
119.9018382205246951
 10
89.7781458664763932
 20
119.8885512864499958
 10
91.3295240589041839
 20
119.8759633294580027
 10
92.8882083485389813
 20
119.8640743495485026
 10
94.0358869249404989
 20
119.8558000030496942
 10
95.1874945580622267
 20
119.847901550892999
 10
96.3430312479040936
 20
119.8403789930786019
 10
97.8743558501454629
 20
119.831024786180393
 10
98.0753934013678759
 20
119.8298483304744053
 10
98.2650577195613835
 20
119.8287493416822969
 10
98.4509421907084743
 20
119.8276825067553943
 10
98.6368868210324194
 20
119.8266254695780049
 10
98.8228916105331763
 20
119.8255782301500005
 10
99.0089565592108585
 20
119.8245407884713956
 10
101.0724301811631989
 20
119.8137122791539042
 10
103.1432739750149068
 20
119.8040841037066002
 10
105.221487940765897
 20
119.7956562621294978
 10
107.3070720784162972
 20
119.788428754422597
 10
109.400026387965994
 20
119.7824015805858977
 10
111.5003508694150014
 20
119.7775747406194995
 10
113.6080455227634047
 20
119.7739482345232034
 10
115.723110348011005
 20
119.7715220622970946
 10
117.8455453451580013
 20
119.7702962239413012
 10
119.9753505142043934
 20
119.770270719455695
 10
122.0742973797610063
 20
119.7714140438572059
 10
124.180353546974402
 20
119.7737152158215963
 10
126.2935190158444954
 20
119.7771742353489941
 10
128.4137937863712864
 20
119.7817911024392998
 10
130.3154343459638085
 20
119.786899117164495
 10
131.1539564344799942
 20
119.7894398378636964
 10
131.282595410833494
 20
119.7898451580908983
 10
131.4061861724329106
 20
119.7902384649542995
 10
131.529795523610801
 20
119.7906356459888997
 10
131.6534234643673074
 20
119.7910367011946988
 10
131.7770699947022024
 20
119.7914416305716969
 10
134.2901470425842092
 20
119.8004954902727945
 10
136.540434251675407
 20
119.8099273473916071
 10
138.796823740332087
 20
119.8206309533916993
 10
140.8166137942500882
 20
119.8312624047105004
 10
142.8412685480768971
 20
119.8429076864512979
 10
144.8707880018122864
 20
119.855566798614106
 10
146.905172155456512
 20
119.8692397411987969
 10
149.3334009153446118
 20
119.8868389415381017
 10
151.7685240912030906
 20
119.9058749763755998
 10
154.2105416830320053
 20
119.9263478457114047
 10
156.6594536908312989
 20
119.9482575495454029
 10
159.1152601146008863
 20
119.9716040878776937
 10
161.5779609543409094
 20
119.9963874607083056
 10
163.9351523113047904
 20
120.0213846694348945
 10
166.2986255638118962
 20
120.0476910600081055
 10
168.6683807118621985
 20
120.0753066324277967
 10
171.0444177554558109
 20
120.1042313866940958
 10
173.4267366945925914
 20
120.1344653228069035
 10
175.8153375292727958
 20
120.1660084407663049
 10
178.2102202594961113
 20
120.1988607405722007
 10
180.6113848852627939
 20
120.2330222222247045
 10
183.1336284083832027
 20
120.2702146202674953
 10
185.6627663474739904
 20
120.3088438528085931
 10
188.1987987025352993
 20
120.3489099198478982
 10
190.7417254735667882
 20
120.390412821385496
 10
193.2915466605687982
 20
120.4333525574213013
 10
195.8482622635411019
 20
120.4777291279553992
 10
197.3601371758433061
 20
120.5045884567596062
 10
197.5545393279159043
 20
120.5080753029437943
 10
197.7456571040351037
 20
120.5115106441981965
 10
197.9367734502754104
 20
120.5149533073069961
 10
198.1278883666367108
 20
120.5184032922703068
 10
198.3190018531190049
 20
120.5218605990880008
 10
198.5101139097222074
 20
120.5253252277601064
 10
200.5576533554130094
 20
120.562905732968801
 10
204.2135655271447092
 20
120.6321043545865024
 10
207.4773305207293106
 20
120.696153697865995
 10
210.7406782477060005
 20
120.7623397012325057
 10
216.5670470587797922
 20
120.8858433898585929
 10
222.3920853003129992
 20
121.0161604078436994
 10
223.7128840939336101
 20
121.046661041718707
 10
225.033614459364486
 20
121.0775120697519043
 10
226.3542763966055986
 20
121.108713491943206
 10
227.6748699056570899
 20
121.140265308292598
 10
228.9953949865187894
 20
121.1721675188001939
 10
230.3158516391908108
 20
121.2044201234657947
 10
231.6530669862949878
 20
121.2374407674083017
 10
232.9925295441614992
 20
121.2708793047911939
 10
235.7936771351824916
 20
121.3419858070353996
 10
238.5875878940775863
 20
121.4145068143354962
 10
241.3742618208466126
 20
121.4884423266911995
 10
243.8562482334166077
 20
121.5556514698651966
 10
246.3324654877227999
 20
121.6239882478095069
 10
248.8029135837653882
 20
121.6934526605239029
 10
251.2675925215440884
 20
121.7640447080084982
 10
253.7265023010592131
 20
121.8357643902634067
 10
256.1796429223105065
 20
121.9086117072884008
 10
258.4822906523625079
 20
121.9781759399250944
 10
260.7798320736663982
 20
122.0487382473290978
 10
261.2305348290074107
 20
122.0627159807196023
 10
261.6810405615938748
 20
122.0767322240102004
 10
262.1313492714256199
 20
122.0907869772010059
 10
262.5814609585028165
 20
122.1048802402920046
 10
263.0313756228254078
 20
122.119012013283097
 10
263.4810932643932802
 20
122.1331822961742972
 10
263.9430601358798754
 20
122.1477851559853036
 10
264.4124266098650082
 20
122.1626704591335937
 10
266.0857468754298907
 20
122.2161373868459009
 10
267.7543975002196248
 20
122.2700810813616954
 10
269.418378484234097
 20
122.3245015426811051
 10
271.0776898274731934
 20
122.3793987708040021
 10
273.0469719402956912
 20
122.4453742485285943
 10
275.009636081497888
 20
122.5120254161675035
 10
276.9656822510798975
 20
122.5793522737207013
 10
278.9151104490414923
 20
122.6473548211883013
 10
280.8579206753830135
 20
122.7160330585701047
 10
282.7941129301038927
 20
122.7853869858661966
 10
284.8567588381233122
 20
122.8602799677292978
 10
286.9118406999280069
 20
122.9359452330097042
 10
288.9593585155183177
 20
123.0123827817074016
 10
290.9993122848940175
 20
123.0895926138223047
 10
292.788214622915973
 20
123.1581760989263046
 10
294.5712593635494727
 20
123.2273576403085968
 10
296.1354933307471242
 20
123.2887321088785058
 10
296.25002530001791
 20
123.2932511301668939
 10
296.3645328750247927
 20
123.2977726420913029
 10
296.479016055767886
 20
123.3022966446516051
 10
296.593474842247474
 20
123.3068231378478004
 10
296.7079092344632727
 20
123.3113521216800024
 10
296.8285875319182878
 20
123.3161319716618038
 10
297.4073770834805259
 20
123.3391105671116037
 10
299.1358589034759916
 20
123.4082661996723971
 10
300.857099590377004
 20
123.4779334423605945
 10
302.5710991441833926
 20
123.5481122951760966
 10
304.2778575648953847
 20
123.6188027581191022
 10
305.9773748525128099
 20
123.6900048311894977
 10
307.6696510070357249
 20
123.7617185143873968
 10
309.3546860284640161
 20
123.8339438077126005
 10
311.0324799167976835
 20
123.906680711165194
 10
312.7030326720371249
 20
123.9799292247453053
 10
314.3663442941817721
 20
124.053689348452707
 10
316.0224147832320796
 20
124.1279610822875981
 10
317.6712441391878201
 20
124.2027444262498932
 10
319.3128323620489937
 20
124.2780393803396066
 10
320.9471794518157139
 20
124.3538459445566957
 10
322.4389698164874858
 20
124.4237847303746065
 10
323.9246756179339854
 20
124.494153410813496
 10
325.4042968561553835
 20
124.564951985873293
 10
326.8778335311513956
 20
124.6361804555539976
 10
328.3452856429221924
 20
124.7078388198556951
 10
329.8066531914677171
 20
124.7799270787783001
  0
LINE
  5
75
100
AcDbEntity
  8
Geometries
 62
256
370
0
 48
1.0
  6
Continuous
100
AcDbLine
 10
224.9958521796303046
 20
159.0416584050011863
 30
0.0
 11
229.9999999999992895
 21
159.0416584050011863
 31
0.0
  0
LINE
  5
76
100
AcDbEntity
  8
Geometries
 62
256
370
0
 48
1.0
  6
Continuous
100
AcDbLine
 10
229.9999999999992895
 20
158.818596440484697
 30
0.0
 11
229.9999999999992895
 21
138.818596440484697
 31
0.0
  0
LWPOLYLINE
  5
77
100
AcDbEntity
  8
Geometries
 62
256
370
0
 48
1.0
  6
Continuous
100
AcDbPolyline
 90
15
 70
128
 10
65.0294809005384877
 20
120.2007036600953995
 10
66.3838559935509238
 20
120.1777386122999047
 10
67.7447886931862229
 20
120.1554009332097053
 10
69.1122789994443565
 20
120.1336906228249006
 10
70.4863269123252394
 20
120.112607681145505
 10
71.8669324318289284
 20
120.0921521081715042
 10
73.254095557955452
 20
120.0723239039028982
 10
74.6478162907047533
 20
120.0531230683396018
 10
76.0480946300768608
 20
120.0345496014817996
 10
77.5220863323954177
 20
120.0157645758793024
 10
79.0032750451572383
 20
119.9976680909876023
 10
80.4916607683623226
 20
119.9802601468065006
 10
81.9872435020103296
 20
119.9635407433360967
 10
83.4900232461016287
 20
119.9475098805763054
 10
84.9999999999993463
 20
119.9320176329380985
  0
LINE
  5
78
100
AcDbEntity
  8
Geometries
 62
256
370
0
 48
1.0
  6
Continuous
100
AcDbLine
 10
474.9999999999993179
 20
153.818596440484697
 30
0.0
 11
474.9999999999993179
 21
163.818596440484697
 31
0.0
  0
ENDSEC
  0
SECTION
  2
OBJECTS
  0
DICTIONARY
  5
C
100
AcDbDictionary
280
0
281
1
  3
ACAD_GROUP
350
D
  3
ACAD_LAYOUT
350
1A
  3
ACAD_MLINESTYLE
350
17
  3
ACAD_PLOTSETTINGS
350
19
  3
ACAD_PLOTSTYLENAME
350
E
  3
AcDbVariableDictionary
350
79
  3
QCAD_OBJECTS
350
7A
  0
DICTIONARY
  5
D
100
AcDbDictionary
280
0
281
1
  0
ACDBDICTIONARYWDFLT
  5
E
100
AcDbDictionary
281
1
  3
Normal
350
F
100
AcDbDictionaryWithDefault
340
F
  0
ACDBPLACEHOLDER
  5
F
  0
DICTIONARY
  5
17
100
AcDbDictionary
280
0
281
1
  3
Standard
350
18
  0
MLINESTYLE
  5
18
100
AcDbMlineStyle
  2
STANDARD
 70
0
  3

 62
256
 51
90.0
 52
90.0
 71
2
 49
0.5
 62
256
  6
BYLAYER
 49
-0.5
 62
256
  6
BYLAYER
  0
DICTIONARY
  5
19
100
AcDbDictionary
280
0
281
1
  0
DICTIONARY
  5
1A
100
AcDbDictionary
281
1
  3
Layout1
350
1E
  3
Layout2
350
26
  3
Model
350
22
  0
LAYOUT
  5
1E
100
AcDbPlotSettings
  1

  2
none_device
  4

  6

 40
0.0
 41
0.0
 42
0.0
 43
0.0
 44
0.0
 45
0.0
 46
0.0
 47
0.0
 48
0.0
 49
0.0
140
0.0
141
0.0
142
1.0
143
1.0
 70
688
 72
0
 73
0
 74
5
  7

 75
16
147
1.0
148
0.0
149
0.0
100
AcDbLayout
  1
Layout1
 70
1
 71
1
 10
0.0
 20
0.0
 11
420.0
 21
297.0
 12
0.0
 22
0.0
 32
0.0
 14
100000000000000000000.0
 24
100000000000000000000.0
 34
100000000000000000000.0
 15
-100000000000000000000.0
 25
-100000000000000000000.0
 35
-100000000000000000000.0
146
0.0
 13
0.0
 23
0.0
 33
0.0
 16
1.0
 26
0.0
 36
0.0
 17
0.0
 27
1.0
 37
0.0
 76
0
330
1B
  0
LAYOUT
  5
22
100
AcDbPlotSettings
  1

  2
none_device
  4

  6

 40
0.0
 41
0.0
 42
0.0
 43
0.0
 44
0.0
 45
0.0
 46
0.0
 47
0.0
 48
0.0
 49
0.0
140
0.0
141
0.0
142
1.0
143
1.0
 70
1712
 72
0
 73
0
 74
0
  7

 75
0
147
1.0
148
0.0
149
0.0
100
AcDbLayout
  1
Model
 70
1
 71
0
 10
0.0
 20
0.0
 11
12.0
 21
9.0
 12
0.0
 22
0.0
 32
0.0
 14
0.0
 24
0.0
 34
0.0
 15
0.0
 25
0.0
 35
0.0
146
0.0
 13
0.0
 23
0.0
 33
0.0
 16
1.0
 26
0.0
 36
0.0
 17
0.0
 27
1.0
 37
0.0
 76
0
330
1F
  0
LAYOUT
  5
26
100
AcDbPlotSettings
  1

  2
none_device
  4

  6

 40
0.0
 41
0.0
 42
0.0
 43
0.0
 44
0.0
 45
0.0
 46
0.0
 47
0.0
 48
0.0
 49
0.0
140
0.0
141
0.0
142
1.0
143
1.0
 70
688
 72
0
 73
0
 74
5
  7

 75
16
147
1.0
148
0.0
149
0.0
100
AcDbLayout
  1
Layout2
 70
1
 71
2
 10
0.0
 20
0.0
 11
12.0
 21
9.0
 12
0.0
 22
0.0
 32
0.0
 14
0.0
 24
0.0
 34
0.0
 15
0.0
 25
0.0
 35
0.0
146
0.0
 13
0.0
 23
0.0
 33
0.0
 16
1.0
 26
0.0
 36
0.0
 17
0.0
 27
1.0
 37
0.0
 76
0
330
23
  0
DICTIONARY
  5
79
100
AcDbDictionary
281
1
  3
DIMASSOC
350
7C
  3
HIDETEXT
350
7B
  0
DICTIONARYVAR
  5
7B
100
DictionaryVariables
280
0
  1
2
  0
DICTIONARYVAR
  5
7C
100
DictionaryVariables
280
0
  1
1
  0
DICTIONARY
  5
7A
100
AcDbDictionary
281
1
  3
ColorSettings/BackgroundColor
350
7D
  3
ColorSettings/ColorMode
350
7E
  3
Grid/DisplayGrid00
350
7F
  3
Grid/DisplayGrid01
350
80
  3
Grid/DisplayGrid02
350
81
  3
Grid/DisplayGrid03
350
82
  3
Grid/GridSpacingX00
350
83
  3
Grid/GridSpacingX01
350
84
  3
Grid/GridSpacingX02
350
85
  3
Grid/GridSpacingX03
350
86
  3
Grid/GridSpacingY00
350
87
  3
Grid/GridSpacingY01
350
88
  3
Grid/GridSpacingY02
350
89
  3
Grid/GridSpacingY03
350
8A
  3
Grid/IsometricGrid00
350
8B
  3
Grid/IsometricGrid01
350
8C
  3
Grid/IsometricGrid02
350
8D
  3
Grid/IsometricGrid03
350
8E
  3
Grid/IsometricProjection00
350
8F
  3
Grid/IsometricProjection01
350
90
  3
Grid/IsometricProjection02
350
91
  3
Grid/IsometricProjection03
350
92
  3
Grid/MetaGridSpacingX00
350
93
  3
Grid/MetaGridSpacingX01
350
94
  3
Grid/MetaGridSpacingX02
350
95
  3
Grid/MetaGridSpacingX03
350
96
  3
Grid/MetaGridSpacingY00
350
97
  3
Grid/MetaGridSpacingY01
350
98
  3
Grid/MetaGridSpacingY02
350
99
  3
Grid/MetaGridSpacingY03
350
9A
  3
MultiPageSettings/Columns
350
9B
  3
MultiPageSettings/GlueMarginsBottom
350
9C
  3
MultiPageSettings/GlueMarginsLeft
350
9D
  3
MultiPageSettings/GlueMarginsRight
350
9E
  3
MultiPageSettings/GlueMarginsTop
350
9F
  3
MultiPageSettings/PrintCropMarks
350
A0
  3
MultiPageSettings/Rows
350
A1
  3
PageSettings/OffsetX
350
A2
  3
PageSettings/OffsetY
350
A3
  3
PageSettings/PageOrientation
350
A4
  3
PageSettings/PaperHeight
350
A5
  3
PageSettings/PaperWidth
350
A6
  3
PageSettings/Scale
350
A7
  3
PageSettings/ShowPaperBorders
350
A8
  3
PageTagSettings/EnablePageTags
350
A9
  3
PageTagSettings/TagAlignment
350
AA
  3
PageTagSettings/TagFont
350
AB
  3
PageTagSettings/TagPosition
350
AC
  3
UnitSettings/PaperUnit
350
AD
  3
ViewportCenter
350
AE
  3
ViewportHeight
350
AF
  3
ViewportWidth
350
B0
  0
XRECORD
  5
7D
330
7A
100
AcDbXrecord
280
1
1000
White
  0
XRECORD
  5
7E
330
7A
100
AcDbXrecord
280
1
1000
FullColor
  0
XRECORD
  5
7F
330
7A
100
AcDbXrecord
280
1
290
1
  0
XRECORD
  5
80
330
7A
100
AcDbXrecord
280
1
290
1
  0
XRECORD
  5
81
330
7A
100
AcDbXrecord
280
1
290
1
  0
XRECORD
  5
82
330
7A
100
AcDbXrecord
280
1
290
1
  0
XRECORD
  5
83
330
7A
100
AcDbXrecord
280
1
1000
auto
  0
XRECORD
  5
84
330
7A
100
AcDbXrecord
280
1
1000
auto
  0
XRECORD
  5
85
330
7A
100
AcDbXrecord
280
1
1000
auto
  0
XRECORD
  5
86
330
7A
100
AcDbXrecord
280
1
1000
auto
  0
XRECORD
  5
87
330
7A
100
AcDbXrecord
280
1
1000
auto
  0
XRECORD
  5
88
330
7A
100
AcDbXrecord
280
1
1000
auto
  0
XRECORD
  5
89
330
7A
100
AcDbXrecord
280
1
1000
auto
  0
XRECORD
  5
8A
330
7A
100
AcDbXrecord
280
1
1000
auto
  0
XRECORD
  5
8B
330
7A
100
AcDbXrecord
280
1
290
0
  0
XRECORD
  5
8C
330
7A
100
AcDbXrecord
280
1
290
0
  0
XRECORD
  5
8D
330
7A
100
AcDbXrecord
280
1
290
0
  0
XRECORD
  5
8E
330
7A
100
AcDbXrecord
280
1
290
0
  0
XRECORD
  5
8F
330
7A
100
AcDbXrecord
280
1
 90
65537
  0
XRECORD
  5
90
330
7A
100
AcDbXrecord
280
1
 90
65537
  0
XRECORD
  5
91
330
7A
100
AcDbXrecord
280
1
 90
65537
  0
XRECORD
  5
92
330
7A
100
AcDbXrecord
280
1
 90
65537
  0
XRECORD
  5
93
330
7A
100
AcDbXrecord
280
1
1000
auto
  0
XRECORD
  5
94
330
7A
100
AcDbXrecord
280
1
1000
auto
  0
XRECORD
  5
95
330
7A
100
AcDbXrecord
280
1
1000
auto
  0
XRECORD
  5
96
330
7A
100
AcDbXrecord
280
1
1000
auto
  0
XRECORD
  5
97
330
7A
100
AcDbXrecord
280
1
1000
auto
  0
XRECORD
  5
98
330
7A
100
AcDbXrecord
280
1
1000
auto
  0
XRECORD
  5
99
330
7A
100
AcDbXrecord
280
1
1000
auto
  0
XRECORD
  5
9A
330
7A
100
AcDbXrecord
280
1
1000
auto
  0
XRECORD
  5
9B
330
7A
100
AcDbXrecord
280
1
 90
1
  0
XRECORD
  5
9C
330
7A
100
AcDbXrecord
280
1
 40
10.0
  0
XRECORD
  5
9D
330
7A
100
AcDbXrecord
280
1
 40
10.0
  0
XRECORD
  5
9E
330
7A
100
AcDbXrecord
280
1
 40
10.0
  0
XRECORD
  5
9F
330
7A
100
AcDbXrecord
280
1
 40
10.0
  0
XRECORD
  5
A0
330
7A
100
AcDbXrecord
280
1
290
0
  0
XRECORD
  5
A1
330
7A
100
AcDbXrecord
280
1
 90
1
  0
XRECORD
  5
A2
330
7A
100
AcDbXrecord
280
1
 40
0.0
  0
XRECORD
  5
A3
330
7A
100
AcDbXrecord
280
1
 40
0.0
  0
XRECORD
  5
A4
330
7A
100
AcDbXrecord
280
1
1000
Portrait
  0
XRECORD
  5
A5
330
7A
100
AcDbXrecord
280
1
 40
297.0
  0
XRECORD
  5
A6
330
7A
100
AcDbXrecord
280
1
 40
210.0
  0
XRECORD
  5
A7
330
7A
100
AcDbXrecord
280
1
1000
1:1
  0
XRECORD
  5
A8
330
7A
100
AcDbXrecord
280
1
290
1
  0
XRECORD
  5
A9
330
7A
100
AcDbXrecord
280
1
290
0
  0
XRECORD
  5
AA
330
7A
100
AcDbXrecord
280
1
1000
Inside
  0
XRECORD
  5
AB
330
7A
100
AcDbXrecord
280
1
1000
Arial,10,-1,5,50,0,0,0,0,0
  0
XRECORD
  5
AC
330
7A
100
AcDbXrecord
280
1
1000
TopLeft
  0
XRECORD
  5
AD
330
7A
100
AcDbXrecord
280
1
 90
4
  0
XRECORD
  5
AF
330
7A
100
AcDbXrecord
280
1
 40
0.0031088121846494
  0
XRECORD
  5
B0
330
7A
100
AcDbXrecord
280
1
 40
0.0066342231202583
  0
ENDSEC
  0
EOF
