999
dxflib 3.26.4.0
  0
SECTION
  2
HEADER
  9
$ACADVER
  1
AC1015
  9
$HANDSEED
  5
FFFF
  9
$ANGBASE
 50
0.0
  9
$ANGDIR
 70
0
  9
$ATTMODE
 70
1
  9
$AUNITS
 70
0
  9
$AUPREC
 70
0
  9
$CECOLOR
 62
256
  9
$CELTSCALE
 40
1.0
  9
$CHAMFERA
 40
0.0
  9
$CHAMFERB
 40
0.0
  9
$CHAMFERC
 40
0.0
  9
$CHAMFERD
 40
0.0
  9
$CMLJUST
 70
0
  9
$CMLSCALE
 40
20.0
  9
$DIMADEC
 70
2
  9
$DIMALT
 70
0
  9
$DIMALTD
 70
3
  9
$DIMALTF
 40
0.0393700787401575
  9
$DIMALTRND
 40
0.0
  9
$DIMALTTD
 70
3
  9
$DIMALTTZ
 70
0
  9
$DIMALTU
 70
2
  9
$DIMALTZ
 70
0
  9
$DIMAPOST
  1

  9
$DIMASZ
 40
2.5
  9
$DIMATFIT
 70
3
  9
$DIMAUNIT
 70
0
  9
$DIMAZIN
 70
0
  9
$DIMBLK
  1
0
  9
$DIMBLK1
  1
0
  9
$DIMBLK2
  1
0
  9
$DIMCEN
 40
2.5
  9
$DIMCLRD
 70
0
  9
$DIMCLRE
 70
0
  9
$DIMDEC
 70
2
  9
$DIMDLE
 40
0.0
  9
$DIMDLI
 40
3.75
  9
$DIMDSEP
 70
44
  9
$DIMEXE
 40
1.25
  9
$DIMEXO
 40
0.625
  9
$DIMFRAC
 70
2
  9
$DIMGAP
 40
0.7
  9
$DIMJUST
 70
0
  9
$DIMLDRBLK
  1

  9
$DIMLFAC
 40
1.0
  9
$DIMLIM
 70
0
  9
$DIMLUNIT
 70
2
  9
$DIMLWD
 70
15
  9
$DIMLWE
 70
15
  9
$DIMPOST
  1

  9
$DIMRND
 40
0.01
  9
$DIMSAH
 70
0
  9
$DIMSCALE
 40
1.0
  9
$DIMSD1
 70
0
  9
$DIMSD2
 70
0
  9
$DIMSE1
 70
0
  9
$DIMSE2
 70
0
  9
$DIMSOXD
 70
0
  9
$DIMTAD
 70
1
  9
$DIMTDEC
 70
2
  9
$DIMTFAC
 40
1.0
  9
$DIMTIH
 70
0
  9
$DIMTIX
 70
0
  9
$DIMTM
 40
0.0
  9
$DIMTOFL
 70
1
  9
$DIMTOH
 70
0
  9
$DIMTOL
 70
0
  9
$DIMTOLJ
 70
0
  9
$DIMTP
 40
0.0
  9
$DIMTSZ
 40
0.0
  9
$DIMTVP
 40
0.0
  9
$DIMTXSTY
  7
Standard
  9
$DIMTXT
 40
2.5
  9
$DIMTZIN
 70
8
  9
$DIMUPT
 70
0
  9
$DIMZIN
 70
8
  9
$DISPSILH
 70
0
  9
$DWGCODEPAGE
  3
ANSI_1252
  9
$ELEVATION
 40
0.0
  9
$EXTMAX
 10
-100000000000000000000.0
 20
-100000000000000000000.0
 30
-100000000000000000000.0
  9
$EXTMIN
 10
100000000000000000000.0
 20
100000000000000000000.0
 30
100000000000000000000.0
  9
$FILLETRAD
 40
0.0
  9
$FILLMODE
 70
1
  9
$INSBASE
 10
0.0
 20
0.0
 30
0.0
  9
$INSUNITS
 70
4
  9
$LIMCHECK
 70
0
  9
$LIMMAX
 10
420.0
 20
297.0
  9
$LIMMIN
 10
0.0
 20
0.0
  9
$LTSCALE
 40
1.0
  9
$LUNITS
 70
2
  9
$LUPREC
 70
4
  9
$MAXACTVP
 70
64
  9
$MEASUREMENT
 70
1
  9
$MIRRTEXT
 70
1
  9
$ORTHOMODE
 70
0
  9
$PDMODE
 70
0
  9
$PDSIZE
 40
0.0
  9
$PELEVATION
 40
0.0
  9
$PEXTMAX
 10
0.0
 20
0.0
 30
0.0
  9
$PEXTMIN
 10
0.0
 20
0.0
 30
0.0
  9
$PINSBASE
 10
0.0
 20
0.0
 30
0.0
  9
$PLIMCHECK
 70
0
  9
$PLIMMAX
 10
277.0
 20
202.5
  9
$PLIMMIN
 10
-20.0
 20
-7.5
  9
$PLINEGEN
 70
0
  9
$PLINEWID
 40
0.0
  9
$PROXYGRAPHICS
 70
1
  9
$PSLTSCALE
 70
1
  9
$PUCSNAME
  2

  9
$PUCSORG
 10
0.0
 20
0.0
 30
0.0
  9
$PUCSXDIR
 10
1.0
 20
0.0
 30
0.0
  9
$PUCSYDIR
 10
0.0
 20
1.0
 30
0.0
  9
$QTEXTMODE
 70
0
  9
$REGENMODE
 70
1
  9
$SHADEDGE
 70
3
  9
$SHADEDIF
 70
70
  9
$SKETCHINC
 40
1.0
  9
$SKPOLY
 70
0
  9
$SPLFRAME
 70
0
  9
$SPLINESEGS
 70
8
  9
$SPLINETYPE
 70
6
  9
$SURFTAB1
 70
6
  9
$SURFTAB2
 70
6
  9
$SURFTYPE
 70
6
  9
$SURFU
 70
6
  9
$SURFV
 70
6
  9
$TEXTSIZE
 40
2.5
  9
$TEXTSTYLE
  7
Standard
  9
$THICKNESS
 40
0.0
  9
$TILEMODE
 70
0
  9
$TRACEWID
 40
1.0
  9
$TREEDEPTH
 70
3020
  9
$UCSNAME
  2

  9
$UCSORG
 10
0.0
 20
0.0
 30
0.0
  9
$UCSXDIR
 10
1.0
 20
0.0
 30
0.0
  9
$UCSYDIR
 10
0.0
 20
1.0
 30
0.0
  9
$UNITMODE
 70
0
  9
$USERI1
 70
0
  9
$USERI2
 70
0
  9
$USERI3
 70
0
  9
$USERI4
 70
0
  9
$USERI5
 70
0
  9
$USERR1
 40
0.0
  9
$USERR2
 40
0.0
  9
$USERR3
 40
0.0
  9
$USERR4
 40
0.0
  9
$USERR5
 40
0.0
  9
$USRTIMER
 70
1
  9
$VISRETAIN
 70
1
  0
ENDSEC
  0
SECTION
  2
TABLES
  0
TABLE
  2
VPORT
  5
8
100
AcDbSymbolTable
 70
1
  0
VPORT
  5
30
100
AcDbSymbolTableRecord
100
AcDbViewportTableRecord
  2
*Active
 70
0
 10
0.0
 20
0.0
 11
1.0
 21
1.0
 12
286.3055555555554861
 22
148.5
 13
0.0
 23
0.0
 14
10.0
 24
10.0
 15
10.0
 25
10.0
 16
0.0
 26
0.0
 36
1.0
 17
0.0
 27
0.0
 37
0.0
 40
297.0
 41
1.92798353909465
 42
50.0
 43
0.0
 44
0.0
 50
0.0
 51
0.0
 71
0
 72
100
 73
1
 74
3
 75
1
 76
1
 77
0
 78
0
281
0
 65
1
110
0.0
120
0.0
130
0.0
111
1.0
121
0.0
131
0.0
112
0.0
122
1.0
132
0.0
 79
0
146
0.0
  0
ENDTAB
  0
TABLE
  2
LTYPE
  5
5
100
AcDbSymbolTable
 70
46
  0
LTYPE
  5
16
100
AcDbSymbolTableRecord
100
AcDbLinetypeTableRecord
  2
Continuous
 70
0
  3
Solid line
 72
65
 73
0
 40
0.0
  0
LTYPE
  5
31
100
AcDbSymbolTableRecord
100
AcDbLinetypeTableRecord
  2
ACAD_ISO13W100
 70
0
  3
ISO double-dash double-dot __ __ . . __ __ . . _
 72
65
 73
8
 40
36.0
 49
12.0
 74
0
 49
-3.0
 74
0
 49
12.0
 74
0
 49
-3.0
 74
0
 49
0.0
 74
0
 49
-3.0
 74
0
 49
0.0
 74
0
 49
-3.0
 74
0
  0
LTYPE
  5
32
100
AcDbSymbolTableRecord
100
AcDbLinetypeTableRecord
  2
PHANTOM
 70
0
  3
Phantom ______  __  __  ______  __  __  ______ 
 72
65
 73
6
 40
63.5000000000000071
 49
31.75
 74
0
 49
-6.3499999999999996
 74
0
 49
6.3499999999999996
 74
0
 49
-6.3499999999999996
 74
0
 49
6.3499999999999996
 74
0
 49
-6.3499999999999996
 74
0
  0
LTYPE
  5
33
100
AcDbSymbolTableRecord
100
AcDbLinetypeTableRecord
  2
ACAD_ISO15W100
 70
0
  3
ISO double-dash triple-dot __ __ . . . __ __ . .
 72
65
 73
10
 40
39.0
 49
12.0
 74
0
 49
-3.0
 74
0
 49
12.0
 74
0
 49
-3.0
 74
0
 49
0.0
 74
0
 49
-3.0
 74
0
 49
0.0
 74
0
 49
-3.0
 74
0
 49
0.0
 74
0
 49
-3.0
 74
0
  0
LTYPE
  5
34
100
AcDbSymbolTableRecord
100
AcDbLinetypeTableRecord
  2
ACAD_ISO11W100
 70
0
  3
ISO double-dash dot __ __ . __ __ . __ __ . __ _
 72
65
 73
6
 40
33.0
 49
12.0
 74
0
 49
-3.0
 74
0
 49
12.0
 74
0
 49
-3.0
 74
0
 49
0.0
 74
0
 49
-3.0
 74
0
  0
LTYPE
  5
35
100
AcDbSymbolTableRecord
100
AcDbLinetypeTableRecord
  2
BORDERX2
 70
0
  3
Border (2x) ____  ____  .  ____  ____  .  ___
 72
65
 73
6
 40
88.8999999999999915
 49
25.3999999999999986
 74
0
 49
-12.6999999999999993
 74
0
 49
25.3999999999999986
 74
0
 49
-12.6999999999999993
 74
0
 49
0.0
 74
0
 49
-12.6999999999999993
 74
0
  0
LTYPE
  5
36
100
AcDbSymbolTableRecord
100
AcDbLinetypeTableRecord
  2
DIVIDE
 70
0
  3
Divide ____ . . ____ . . ____ . . ____ . . ____
 72
65
 73
6
 40
31.75
 49
12.6999999999999993
 74
0
 49
-6.3499999999999996
 74
0
 49
0.0
 74
0
 49
-6.3499999999999996
 74
0
 49
0.0
 74
0
 49
-6.3499999999999996
 74
0
  0
LTYPE
  5
37
100
AcDbSymbolTableRecord
100
AcDbLinetypeTableRecord
  2
DASHDOT
 70
0
  3
Dash dot __ . __ . __ . __ . __ . __ . __ . __
 72
65
 73
4
 40
25.3999999999999986
 49
12.6999999999999993
 74
0
 49
-6.3499999999999996
 74
0
 49
0.0
 74
0
 49
-6.3499999999999996
 74
0
  0
LTYPE
  5
38
100
AcDbSymbolTableRecord
100
AcDbLinetypeTableRecord
  2
CenterLine
 70
0
  3

 72
65
 73
4
 40
8.0
 49
5.0
 74
0
 49
-1.0
 74
0
 49
1.0
 74
0
 49
-1.0
 74
0
  0
LTYPE
  5
39
100
AcDbSymbolTableRecord
100
AcDbLinetypeTableRecord
  2
CENTER2
 70
0
  3
Center (.5x) ___ _ ___ _ ___ _ ___ _ ___ _ ___
 72
65
 73
4
 40
28.5750000000000028
 49
19.0500000000000007
 74
0
 49
-3.1749999999999998
 74
0
 49
3.1749999999999998
 74
0
 49
-3.1749999999999998
 74
0
  0
LTYPE
  5
3A
100
AcDbSymbolTableRecord
100
AcDbLinetypeTableRecord
  2
DASHEDX2
 70
0
  3
Dashed (2x) ____  ____  ____  ____  ____  ___
 72
65
 73
2
 40
38.0999999999999943
 49
25.3999999999999986
 74
0
 49
-12.6999999999999993
 74
0
  0
LTYPE
  5
3B
100
AcDbSymbolTableRecord
100
AcDbLinetypeTableRecord
  2
DIVIDE2
 70
0
  3
Divide (.5x) __..__..__..__..__..__..__..__.._
 72
65
 73
6
 40
15.875
 49
6.3499999999999996
 74
0
 49
-3.1749999999999998
 74
0
 49
0.0
 74
0
 49
-3.1749999999999998
 74
0
 49
0.0
 74
0
 49
-3.1749999999999998
 74
0
  0
LTYPE
  5
3C
100
AcDbSymbolTableRecord
100
AcDbLinetypeTableRecord
  2
BORDER
 70
0
  3
Border __ __ . __ __ . __ __ . __ __ . __ __ .
 72
65
 73
6
 40
44.4499999999999957
 49
12.6999999999999993
 74
0
 49
-6.3499999999999996
 74
0
 49
12.6999999999999993
 74
0
 49
-6.3499999999999996
 74
0
 49
0.0
 74
0
 49
-6.3499999999999996
 74
0
  0
LTYPE
  5
3D
100
AcDbSymbolTableRecord
100
AcDbLinetypeTableRecord
  2
DIVIDEX2
 70
0
  3
Divide (2x) ________  .  .  ________  .  .  _
 72
65
 73
6
 40
63.5
 49
25.3999999999999986
 74
0
 49
-12.6999999999999993
 74
0
 49
0.0
 74
0
 49
-12.6999999999999993
 74
0
 49
0.0
 74
0
 49
-12.6999999999999993
 74
0
  0
LTYPE
  5
3E
100
AcDbSymbolTableRecord
100
AcDbLinetypeTableRecord
  2
DetailCircleISO
 70
0
  3

 72
65
 73
5
 40
13.7583333333334217
 49
4.23333333333336
 74
0
 49
-2.11666666666668
 74
0
 49
1.05833333333334
 74
0
 49
-2.11666666666668
 74
0
 49
4.23333333333336
 74
0
  0
LTYPE
  5
14
100
AcDbSymbolTableRecord
100
AcDbLinetypeTableRecord
  2
ByBlock
 70
0
  3

 72
65
 73
0
 40
0.0
  0
LTYPE
  5
3F
100
AcDbSymbolTableRecord
100
AcDbLinetypeTableRecord
  2
ACAD_ISO05W100
 70
0
  3
ISO long-dash double-dot ____ .. ____ .. ____ . 
 72
65
 73
6
 40
33.0
 49
24.0
 74
0
 49
-3.0
 74
0
 49
0.0
 74
0
 49
-3.0
 74
0
 49
0.0
 74
0
 49
-3.0
 74
0
  0
LTYPE
  5
40
100
AcDbSymbolTableRecord
100
AcDbLinetypeTableRecord
  2
DASHED
 70
0
  3
Dashed __ __ __ __ __ __ __ __ __ __ __ __ __ _
 72
65
 73
2
 40
19.0499999999999972
 49
12.6999999999999993
 74
0
 49
-6.3499999999999996
 74
0
  0
LTYPE
  5
41
100
AcDbSymbolTableRecord
100
AcDbLinetypeTableRecord
  2
ACAD_ISO07W100
 70
0
  3
ISO dot . . . . . . . . . . . . . . . . . . . . 
 72
65
 73
2
 40
3.0
 49
0.0
 74
0
 49
-3.0
 74
0
  0
LTYPE
  5
42
100
AcDbSymbolTableRecord
100
AcDbLinetypeTableRecord
  2
PHANTOM2
 70
0
  3
Phantom (.5x) ___ _ _ ___ _ _ ___ _ _ ___ _ _
 72
65
 73
6
 40
31.7500000000000036
 49
15.875
 74
0
 49
-3.1749999999999998
 74
0
 49
3.1749999999999998
 74
0
 49
-3.1749999999999998
 74
0
 49
3.1749999999999998
 74
0
 49
-3.1749999999999998
 74
0
  0
LTYPE
  5
43
100
AcDbSymbolTableRecord
100
AcDbLinetypeTableRecord
  2
SectionLineISO
 70
0
  3

 72
65
 73
5
 40
13.7583333333334217
 49
4.23333333333336
 74
0
 49
-2.11666666666668
 74
0
 49
1.05833333333334
 74
0
 49
-2.11666666666668
 74
0
 49
4.23333333333336
 74
0
  0
LTYPE
  5
44
100
AcDbSymbolTableRecord
100
AcDbLinetypeTableRecord
  2
ACAD_ISO09W100
 70
0
  3
ISO long-dash double-short-dash ____ __ __ ____
 72
65
 73
6
 40
45.0
 49
24.0
 74
0
 49
-3.0
 74
0
 49
6.0
 74
0
 49
-3.0
 74
0
 49
6.0
 74
0
 49
-3.0
 74
0
  0
LTYPE
  5
45
100
AcDbSymbolTableRecord
100
AcDbLinetypeTableRecord
  2
DASHDOTX2
 70
0
  3
Dash dot (2x) ____  .  ____  .  ____  .  ___
 72
65
 73
4
 40
50.7999999999999972
 49
25.3999999999999986
 74
0
 49
-12.6999999999999993
 74
0
 49
0.0
 74
0
 49
-12.6999999999999993
 74
0
  0
LTYPE
  5
46
100
AcDbSymbolTableRecord
100
AcDbLinetypeTableRecord
  2
HIDDEN
 70
0
  3
Hidden __ __ __ __ __ __ __ __ __ __ __ __ __ __
 72
65
 73
2
 40
9.5249999999999986
 49
6.3499999999999996
 74
0
 49
-3.1749999999999998
 74
0
  0
LTYPE
  5
47
100
AcDbSymbolTableRecord
100
AcDbLinetypeTableRecord
  2
CENTERX2
 70
0
  3
Center (2x) ________  __  ________  __  _____
 72
65
 73
4
 40
101.6000000000000085
 49
63.5
 74
0
 49
-12.6999999999999993
 74
0
 49
12.6999999999999993
 74
0
 49
-12.6999999999999993
 74
0
  0
LTYPE
  5
48
100
AcDbSymbolTableRecord
100
AcDbLinetypeTableRecord
  2
ACAD_ISO12W100
 70
0
  3
ISO dash double-dot __ . . __ . . __ . . __ . . 
 72
65
 73
6
 40
21.0
 49
12.0
 74
0
 49
-3.0
 74
0
 49
0.0
 74
0
 49
-3.0
 74
0
 49
0.0
 74
0
 49
-3.0
 74
0
  0
LTYPE
  5
49
100
AcDbSymbolTableRecord
100
AcDbLinetypeTableRecord
  2
ACAD_ISO02W100
 70
0
  3
ISO dash __ __ __ __ __ __ __ __ __ __ __ __ __
 72
65
 73
2
 40
15.0
 49
12.0
 74
0
 49
-3.0
 74
0
  0
LTYPE
  5
4A
100
AcDbSymbolTableRecord
100
AcDbLinetypeTableRecord
  2
PHANTOMX2
 70
0
  3
Phantom (2x) ____________    ____    ____   _
 72
65
 73
6
 40
127.0000000000000142
 49
63.5
 74
0
 49
-12.6999999999999993
 74
0
 49
12.6999999999999993
 74
0
 49
-12.6999999999999993
 74
0
 49
12.6999999999999993
 74
0
 49
-12.6999999999999993
 74
0
  0
LTYPE
  5
4B
100
AcDbSymbolTableRecord
100
AcDbLinetypeTableRecord
  2
ACAD_ISO06W100
 70
0
  3
ISO long-dash triple-dot ____ ... ____ ... ____
 72
65
 73
8
 40
36.0
 49
24.0
 74
0
 49
-3.0
 74
0
 49
0.0
 74
0
 49
-3.0
 74
0
 49
0.0
 74
0
 49
-3.0
 74
0
 49
0.0
 74
0
 49
-3.0
 74
0
  0
LTYPE
  5
4C
100
AcDbSymbolTableRecord
100
AcDbLinetypeTableRecord
  2
DOTX2
 70
0
  3
Dot (2x) .  .  .  .  .  .  .  .  .  .  .  .  .  .
 72
65
 73
2
 40
12.6999999999999993
 49
0.0
 74
0
 49
-12.6999999999999993
 74
0
  0
LTYPE
  5
4D
100
AcDbSymbolTableRecord
100
AcDbLinetypeTableRecord
  2
ACAD_ISO08W100
 70
0
  3
ISO long-dash short-dash ____ __ ____ __ ____ _
 72
65
 73
4
 40
36.0
 49
24.0
 74
0
 49
-3.0
 74
0
 49
6.0
 74
0
 49
-3.0
 74
0
  0
LTYPE
  5
4E
100
AcDbSymbolTableRecord
100
AcDbLinetypeTableRecord
  2
CENTER
 70
0
  3
Center ____ _ ____ _ ____ _ ____ _ ____ _ ____
 72
65
 73
4
 40
50.8000000000000043
 49
31.75
 74
0
 49
-6.3499999999999996
 74
0
 49
6.3499999999999996
 74
0
 49
-6.3499999999999996
 74
0
  0
LTYPE
  5
4F
100
AcDbSymbolTableRecord
100
AcDbLinetypeTableRecord
  2
SectionLineANSI
 70
0
  3

 72
65
 73
7
 40
11.9944444444445182
 49
4.23333333333336
 74
0
 49
-1.05833333333334
 74
0
 49
0.17638888888889
 74
0
 49
-1.05833333333334
 74
0
 49
0.17638888888889
 74
0
 49
-1.05833333333334
 74
0
 49
4.23333333333336
 74
0
  0
LTYPE
  5
50
100
AcDbSymbolTableRecord
100
AcDbLinetypeTableRecord
  2
BORDER2
 70
0
  3
Border (.5x) __.__.__.__.__.__.__.__.__.__.__.
 72
65
 73
6
 40
22.2249999999999979
 49
6.3499999999999996
 74
0
 49
-3.1749999999999998
 74
0
 49
6.3499999999999996
 74
0
 49
-3.1749999999999998
 74
0
 49
0.0
 74
0
 49
-3.1749999999999998
 74
0
  0
LTYPE
  5
51
100
AcDbSymbolTableRecord
100
AcDbLinetypeTableRecord
  2
ACAD_ISO10W100
 70
0
  3
ISO dash dot __ . __ . __ . __ . __ . __ . __ . 
 72
65
 73
4
 40
18.0
 49
12.0
 74
0
 49
-3.0
 74
0
 49
0.0
 74
0
 49
-3.0
 74
0
  0
LTYPE
  5
52
100
AcDbSymbolTableRecord
100
AcDbLinetypeTableRecord
  2
HIDDENX2
 70
0
  3
Hidden (2x) ____ ____ ____ ____ ____ ____ ____ 
 72
65
 73
2
 40
19.0499999999999972
 49
12.6999999999999993
 74
0
 49
-6.3499999999999996
 74
0
  0
LTYPE
  5
53
100
AcDbSymbolTableRecord
100
AcDbLinetypeTableRecord
  2
ACAD_ISO03W100
 70
0
  3
ISO dash space __    __    __    __    __    __
 72
65
 73
2
 40
30.0
 49
12.0
 74
0
 49
-18.0
 74
0
  0
LTYPE
  5
54
100
AcDbSymbolTableRecord
100
AcDbLinetypeTableRecord
  2
DASHED2
 70
0
  3
Dashed (.5x) _ _ _ _ _ _ _ _ _ _ _ _ _ _ _ _ _ 
 72
65
 73
2
 40
9.5249999999999986
 49
6.3499999999999996
 74
0
 49
-3.1749999999999998
 74
0
  0
LTYPE
  5
55
100
AcDbSymbolTableRecord
100
AcDbLinetypeTableRecord
  2
DASHDOT2
 70
0
  3
Dash dot (.5x) _._._._._._._._._._._._._._._.
 72
65
 73
4
 40
12.6999999999999993
 49
6.3499999999999996
 74
0
 49
-3.1749999999999998
 74
0
 49
0.0
 74
0
 49
-3.1749999999999998
 74
0
  0
LTYPE
  5
15
100
AcDbSymbolTableRecord
100
AcDbLinetypeTableRecord
  2
ByLayer
 70
0
  3

 72
65
 73
0
 40
0.0
  0
LTYPE
  5
56
100
AcDbSymbolTableRecord
100
AcDbLinetypeTableRecord
  2
DOT
 70
0
  3
Dot . . . . . . . . . . . . . . . . . . . . . . . .
 72
65
 73
2
 40
6.3499999999999996
 49
0.0
 74
0
 49
-6.3499999999999996
 74
0
  0
LTYPE
  5
57
100
AcDbSymbolTableRecord
100
AcDbLinetypeTableRecord
  2
ACAD_ISO04W100
 70
0
  3
ISO long-dash dot ____ . ____ . ____ . ____ . _
 72
65
 73
4
 40
30.0
 49
24.0
 74
0
 49
-3.0
 74
0
 49
0.0
 74
0
 49
-3.0
 74
0
  0
LTYPE
  5
58
100
AcDbSymbolTableRecord
100
AcDbLinetypeTableRecord
  2
DOT2
 70
0
  3
Dot (.5x) ........................................
 72
65
 73
2
 40
3.1749999999999998
 49
0.0
 74
0
 49
-3.1749999999999998
 74
0
  0
LTYPE
  5
59
100
AcDbSymbolTableRecord
100
AcDbLinetypeTableRecord
  2
HIDDEN2
 70
0
  3
Hidden (.5x) _ _ _ _ _ _ _ _ _ _ _ _ _ _ _ _ _ 
 72
65
 73
2
 40
4.7624999999999993
 49
3.1749999999999998
 74
0
 49
-1.5874999999999999
 74
0
  0
LTYPE
  5
5A
100
AcDbSymbolTableRecord
100
AcDbLinetypeTableRecord
  2
DraftedLine
 70
0
  3

 72
65
 73
2
 40
3.0
 49
2.0
 74
0
 49
-1.0
 74
0
  0
LTYPE
  5
5B
100
AcDbSymbolTableRecord
100
AcDbLinetypeTableRecord
  2
ACAD_ISO14W100
 70
0
  3
ISO dash triple-dot __ . . . __ . . . __ . . . _
 72
65
 73
8
 40
24.0
 49
12.0
 74
0
 49
-3.0
 74
0
 49
0.0
 74
0
 49
-3.0
 74
0
 49
0.0
 74
0
 49
-3.0
 74
0
 49
0.0
 74
0
 49
-3.0
 74
0
  0
ENDTAB
  0
TABLE
  2
LAYER
  5
2
100
AcDbSymbolTable
 70
4
  0
LAYER
  5
10
100
AcDbSymbolTableRecord
100
AcDbLayerTableRecord
  2
0
 70
0
 62
7
420
16777215
  6
Continuous
370
-3
390
F
  0
LAYER
  5
5C
100
AcDbSymbolTableRecord
100
AcDbLayerTableRecord
  2
Geometries
 70
0
 62
7
420
16777215
  6
Continuous
370
-3
390
F
  0
LAYER
  5
5D
100
AcDbSymbolTableRecord
100
AcDbLayerTableRecord
  2
Border
 70
0
 62
7
420
16777215
  6
Continuous
370
-3
390
F
  0
LAYER
  5
5E
100
AcDbSymbolTableRecord
100
AcDbLayerTableRecord
  2
Annotations
 70
0
 62
7
420
16777215
  6
Continuous
370
-3
390
F
  0
ENDTAB
  0
TABLE
  2
STYLE
  5
3
100
AcDbSymbolTable
 70
1
  0
STYLE
  5
5F
100
AcDbSymbolTableRecord
100
AcDbTextStyleTableRecord
  2
Standard
 70
0
 40
0.0
 41
1.0
 50
0.0
 71
0
 42
2.5
  3

  4

1001
ACAD
1000
txt
1071
0
  0
ENDTAB
  0
TABLE
  2
VIEW
  5
6
100
AcDbSymbolTable
 70
0
  0
ENDTAB
  0
TABLE
  2
UCS
  5
7
100
AcDbSymbolTable
 70
0
  0
ENDTAB
  0
TABLE
  2
APPID
  5
9
100
AcDbSymbolTable
 70
1
  0
APPID
  5
12
100
AcDbSymbolTableRecord
100
AcDbRegAppTableRecord
  2
ACAD
 70
0
  0
APPID
  5
60
100
AcDbSymbolTableRecord
100
AcDbRegAppTableRecord
  2
QCAD
 70
0
  0
ENDTAB
  0
TABLE
  2
DIMSTYLE
  5
A
100
AcDbSymbolTable
 70
1
100
AcDbDimStyleTable
 71
0
  0
DIMSTYLE
105
27
100
AcDbSymbolTableRecord
100
AcDbDimStyleTableRecord
  2
Standard
 41
2.5
 42
0.625
 43
3.75
 44
1.25
 70
0
 73
0
 74
0
 77
1
 78
8
140
2.5
141
2.5
143
0.03937007874016
147
0.7
171
3
172
1
271
2
272
2
274
3
278
44
283
0
284
8
340
5F
  0
ENDTAB
  0
TABLE
  2
BLOCK_RECORD
  5
1
100
AcDbSymbolTable
 70
1
  0
BLOCK_RECORD
  5
1F
100
AcDbSymbolTableRecord
100
AcDbBlockTableRecord
  2
*Model_Space
340
22
  0
BLOCK_RECORD
  5
1B
100
AcDbSymbolTableRecord
100
AcDbBlockTableRecord
  2
*Paper_Space
340
1E
  0
BLOCK_RECORD
  5
23
100
AcDbSymbolTableRecord
100
AcDbBlockTableRecord
  2
*Paper_Space0
340
26
  0
ENDTAB
  0
ENDSEC
  0
SECTION
  2
BLOCKS
  0
BLOCK
  5
20
100
AcDbEntity
  8
0
100
AcDbBlockBegin
  2
*Model_Space
 70
0
 10
0.0
 20
0.0
 30
0.0
  3
*Model_Space
  1

  0
ENDBLK
  5
21
100
AcDbEntity
  8
0
100
AcDbBlockEnd
  0
BLOCK
  5
1C
100
AcDbEntity
 67
1
  8
0
100
AcDbBlockBegin
  2
*Paper_Space
 70
0
 10
0.0
 20
0.0
 30
0.0
  3
*Paper_Space
  1

  0
ENDBLK
  5
1D
100
AcDbEntity
 67
1
  8
0
100
AcDbBlockEnd
  0
BLOCK
  5
24
100
AcDbEntity
  8
0
100
AcDbBlockBegin
  2
*Paper_Space0
 70
0
 10
0.0
 20
0.0
 30
0.0
  3
*Paper_Space0
  1

  0
ENDBLK
  5
25
100
AcDbEntity
  8
0
100
AcDbBlockEnd
  0
ENDSEC
  0
SECTION
  2
ENTITIES
  0
ARC
  5
61
100
AcDbEntity
  8
Geometries
 62
256
370
13
 48
1.0
  6
Continuous
100
AcDbCircle
 10
318.2043303810696102
 20
162.9755109316282926
 30
0.0
 40
0.9450375937259532
100
AcDbArc
 50
276.554822323910912
 51
1.743932607392751
  0
LWPOLYLINE
  5
62
100
AcDbEntity
  8
Geometries
 62
256
370
13
 48
1.0
  6
Continuous
100
AcDbPolyline
 90
11
 70
128
 10
240.8024296958678008
 20
171.4490418026769873
 10
240.1225505495548873
 20
171.5486821793193997
 10
239.4482983831748015
 20
171.6471662661105881
 10
238.7796731967272024
 20
171.7444940630504107
 10
238.1166749902122888
 20
171.8406655701388956
 10
237.4593037636300892
 20
171.9356807873762136
 10
236.8075595169804899
 20
172.0295397147621088
 10
236.0466562917227975
 20
172.1386747188045092
 10
235.2935691138459902
 20
172.2462036008467976
 10
234.54829798335021
 20
172.3521263608890024
 10
233.8108429002352864
 20
172.4564429989312089
  0
LWPOLYLINE
  5
63
100
AcDbEntity
  8
Geometries
 62
256
370
13
 48
1.0
  6
Continuous
100
AcDbPolyline
 90
6
 70
128
 10
142.1844086685385946
 20
175.9890002750871076
 10
141.4543556472225134
 20
175.8701797801957127
 10
140.7292784397913863
 20
175.7473028496461893
 10
140.0091770462450995
 20
175.6203694834383953
 10
139.29405146658371
 20
175.4893796815723022
 10
138.5839017008071892
 20
175.354333444048109
  0
ARC
  5
64
100
AcDbEntity
  8
Geometries
 62
256
370
13
 48
1.0
  6
Continuous
100
AcDbCircle
 10
291.3083693542993728
 20
329.3310246016172869
 30
0.0
 40
163.5818909867664956
100
AcDbArc
 50
262.4376164762115877
 51
263.8261204249557181
  0
LWPOLYLINE
  5
65
100
AcDbEntity
  8
Geometries
 62
256
370
13
 48
1.0
  6
Continuous
100
AcDbPolyline
 90
4
 70
128
 10
217.6903605133898054
 20
174.5886057190269867
 10
217.1735161607799114
 20
174.6514228515555089
 10
216.655948616860087
 20
174.7139323488017055
 10
216.1376588131205949
 20
174.7761280314516057
  0
LWPOLYLINE
  5
66
100
AcDbEntity
  8
Geometries
 62
256
370
13
 48
1.0
  6
Continuous
100
AcDbPolyline
 90
167
 70
128
 10
120.754978192717104
 20
156.6228062469423037
 10
120.8185070128461973
 20
156.6167450901255904
 10
120.8815780557956003
 20
156.6108003141546021
 10
120.9667419348786979
 20
156.6028856549345107
 10
121.0509358731453062
 20
156.5951852464276897
 10
121.1340907701293048
 20
156.5876980048491873
 10
121.2161375253645019
 20
156.5804228464139101
 10
121.2970129453998993
 20
156.5733570637578964
 10
121.3766594038378059
 20
156.5664817178592898
 10
121.4382430644787974
 20
156.5612085093991936
 10
121.4996952561754995
 20
156.5559972929166861
 10
121.5618018928798989
 20
156.5507989837734044
 10
121.6246110387453001
 20
156.5456089633084957
 10
121.6881707579251071
 20
156.5404226128611072
 10
121.7525291145726953
 20
156.5352353137701868
 10
121.8308810183352051
 20
156.5290027995773983
 10
121.910535227289401
 20
156.5227542874204119
 10
121.9915747962921984
 20
156.5164817962532879
 10
122.0740827802005981
 20
156.5101773450300868
 10
122.1581422338717999
 20
156.5038329527046983
 10
122.2253314547046017
 20
156.4988148540913926
 10
122.2935700307562996
 20
156.4937632996141019
 10
122.3628982484754033
 20
156.4886744179999027
 10
122.433356394310394
 20
156.4835443379762978
 10
122.5049847547098949
 20
156.4783691882705057
 10
122.5822778869131042
 20
156.4728268276521987
 10
122.6609806792807973
 20
156.4672248025034946
 10
122.7411208121207977
 20
156.46156033017769
 10
122.8226787378040967
 20
156.4558348819431899
 10
122.9056282091496968
 20
156.4500505325108008
 10
122.9899429789768988
 20
156.4442093565911875
 10
123.0706666815479053
 20
156.4386517777994072
 10
123.1525587735158069
 20
156.4330472647781107
 10
123.235597254998396
 20
156.4273975565101011
 10
123.3197601261140051
 20
156.4217043919778973
 10
123.4050253869804976
 20
156.4159695101641034
 10
123.5014622746459025
 20
156.4095218437630876
 10
123.5992143284631055
 20
156.4030267973022035
 10
123.6982509642887038
 20
156.3964867883074135
 10
123.7985415979792947
 20
156.3899042343051917
 10
123.9000556453916033
 20
156.3832815528218134
 10
124.0027625223819996
 20
156.3766211613834116
 10
124.1066316448072939
 20
156.3699254775162899
 10
124.2116324285238989
 20
156.3631969187468087
 10
124.3327631411603988
 20
156.3554828617747887
 10
124.4554473723396057
 20
156.3477191708174132
 10
124.5796724274708964
 20
156.3399066359957033
 10
124.7054228341957014
 20
156.332046271517811
 10
124.832683120154897
 20
156.3241390915916043
 10
124.9591256070392973
 20
156.3163285237068862
 10
125.0869949474623013
 20
156.3084747365751923
 10
125.2162764832281994
 20
156.3005786910366055
 10
125.3469555561410971
 20
156.2926413479308962
 10
125.4817269460807978
 20
156.2845004450437898
 10
125.6179226608940951
 20
156.2763185631079921
 10
125.7555271265051999
 20
156.2680967229987914
 10
125.8945247688379965
 20
156.2598359455919876
 10
126.0349000138165962
 20
156.2515372517628123
 10
126.1766372873647981
 20
156.2432016623868094
 10
126.3197210154065999
 20
156.2348301983396084
 10
126.4641356238661984
 20
156.2264238804966112
 10
126.6098655386674068
 20
156.2179837297333052
 10
126.7568951857341943
 20
156.2095107669252911
 10
126.9052089909907011
 20
156.2010060129479996
 10
127.0547913803607969
 20
156.1924704886768893
 10
127.2056267797685933
 20
156.1839052149875897
 10
127.357699615137804
 20
156.175311212755588
 10
127.5263903849200062
 20
156.1658258472484135
 10
127.6965388784886954
 20
156.1563083142490882
 10
127.868124366748404
 20
156.1467599725430944
 10
128.0411261206043037
 20
156.1371821809156017
 10
128.2155234109609978
 20
156.1275762981518938
 10
128.3934830415865065
 20
156.1178241084224112
 10
128.5728298871316895
 20
156.1080464013429037
 10
128.753541971703811
 20
156.0982451488783056
 10
128.9355977583649917
 20
156.0884217688160049
 10
129.1189757109347909
 20
156.0785776779954119
 10
129.3036542932331088
 20
156.0687142932555105
 10
129.4896119690795047
 20
156.0588330314355119
 10
129.6768272022937936
 20
156.048935309374599
 10
129.8742827897642087
 20
156.0385501563505954
 10
130.0730701558873079
 20
156.0281501221440124
 10
130.2731645390555002
 20
156.0177368357909131
 10
130.4745411776613935
 20
156.0073119263275885
 10
130.6771753100973115
 20
155.9968770227901018
 10
130.8810421747556063
 20
155.9864337542144881
 10
131.0861170100288007
 20
155.9759837496368959
 10
131.2923750543093888
 20
155.9655286380933887
 10
131.4997915459896944
 20
155.9550700486203141
 10
131.7083417234622118
 20
155.9446096102535932
 10
131.918000825119293
 20
155.9341489520294033
 10
132.1287440893534892
 20
155.9236897029838076
 10
132.3784782471884967
 20
155.9113667558432041
 10
132.6296434088714875
 20
155.8990506957250091
 10
132.8821990378731073
 20
155.8867441894782075
 10
133.1361045976642004
 20
155.8744499039520122
 10
133.4677763981665919
 20
155.858507165022786
 10
133.7998289624881068
 20
155.8426770496770075
 10
134.1311722107244861
 20
155.8270103650241083
 10
134.4617660575621017
 20
155.8115074984914088
 10
134.7915704176872964
 20
155.7961688375060874
 10
135.1205452057866125
 20
155.7809947694952939
 10
135.4486503365463079
 20
155.7659856818862067
 10
135.8085136843330076
 20
155.7496667002743891
 10
136.1672228899570882
 20
155.7335483294010032
 10
136.5247245998662038
 20
155.717631084931611
 10
136.8809654605078947
 20
155.7019154825316036
 10
137.2358921183297866
 20
155.6864020378667135
 10
137.5566672555823118
 20
155.6725049705713957
 10
137.8762772839012882
 20
155.6587750567449859
 10
138.1946823797779871
 20
155.6452126812845052
 10
138.51184271970331
 20
155.6318182290864911
 10
138.8277187755786031
 20
155.6185920802942917
 10
139.1367060818105017
 20
155.6057656161370915
 10
139.444458211837798
 20
155.5931007419931973
 10
139.7509527606115967
 20
155.5805973803149129
 10
140.0561673230828035
 20
155.5682554535540874
 10
140.3662680653700079
 20
155.5558279806760993
 10
140.6749889100661051
 20
155.5435684359935919
 10
140.9823060521993909
 20
155.531476737113195
 10
141.2881956867981899
 20
155.5195528016417086
 10
141.5926340088905135
 20
155.5077965471855066
 10
141.8955972135046864
 20
155.4962078913513039
 10
142.1970614956688905
 20
155.4847867517459008
 10
142.4595944438709125
 20
155.4749306054754072
 10
142.7209456064194057
 20
155.4652025955377894
 10
142.9810990358429876
 20
155.4556026667362971
 10
143.240038784670304
 20
155.4461307638736116
 10
143.4977489054300861
 20
155.4367868317526131
 10
143.7542134506508944
 20
155.4275708151760966
 10
144.0094164728616022
 20
155.4184826589471982
 10
144.2633415524786074
 20
155.4095224744289112
 10
144.5279682158040089
 20
155.4002737287775915
 10
144.7911560915837015
 20
155.3911661587814024
 10
145.0528890933829018
 20
155.3821994412622871
 10
145.3131511347665992
 20
155.3733732530421889
 10
145.5719261292998112
 20
155.3646872709433069
 10
145.8291979905474989
 20
155.3561411717874137
 10
146.0480308909646965
 20
155.3489426628414947
 10
146.2657424310932015
 20
155.3418460384806963
 10
146.4823225468624912
 20
155.3348510965170135
 10
146.6977611742017871
 20
155.327957634762214
 10
146.9120482490403958
 20
155.3211654510280937
 10
147.1213781402329062
 20
155.3145929420205107
 10
147.3295779962523966
 20
155.3081177396763053
 10
147.536638282604514
 20
155.3017396524467131
 10
147.7425494647949051
 20
155.2954584887827139
 10
147.9514685006811874
 20
155.2891488501070114
 10
148.159170993739707
 20
155.282939728464612
 10
148.3656468137371007
 20
155.2768309203379999
 10
148.5708858304404885
 20
155.2708222222101142
 10
148.7748779136167059
 20
155.2649134305634107
 10
148.9776129330325887
 20
155.2591043418806009
 10
149.1790806185468057
 20
155.2533947927651923
 10
149.3792703354205003
 20
155.2477847906480122
 10
149.5781733534799116
 20
155.2422739131158949
 10
149.7757812679764982
 20
155.2368616546548878
 10
149.9720856741616046
 20
155.2315475097510955
 10
150.1670781672866894
 20
155.2263309728901959
 10
150.360750342603211
 20
155.2212115385582081
 10
150.5530937953625141
 20
155.216188701241208
 10
150.7282342029554059
 20
155.21166885975029
 10
150.9022445783907926
 20
155.2072293724376095
 10
151.0751184478718869
 20
155.2028698499285042
 10
151.2468493376024128
 20
155.198589902848596
 10
151.4174307737856111
 20
155.194389141823109
 10
151.5868562826252059
 20
155.1902671774776934
  0
LWPOLYLINE
  5
67
100
AcDbEntity
  8
Geometries
 62
256
370
13
 48
1.0
  6
Continuous
100
AcDbPolyline
 90
7
 70
128
 10
155.0785662440115118
 20
177.4040843370954121
 10
154.4385959637914993
 20
177.359775209245214
 10
153.8041805191051878
 20
177.313576646257502
 10
153.1753199099526057
 20
177.2654886481325036
 10
152.5520141363338951
 20
177.2155112148701051
 10
151.9342631982488001
 20
177.1636443464703063
 10
151.3220670956974914
 20
177.1098880429331075
  0
ARC
  5
68
100
AcDbEntity
  8
Geometries
 62
256
370
13
 48
1.0
  6
Continuous
100
AcDbCircle
 10
144.6242031920540114
 20
118.3545778056038955
 30
0.0
 40
56.8063361980643577
100
AcDbArc
 50
108.657350782016394
 51
110.9487392626188011
  0
LWPOLYLINE
  5
69
100
AcDbEntity
  8
Geometries
 62
256
370
13
 48
1.0
  6
Continuous
100
AcDbPolyline
 90
106
 70
128
 10
124.3140883245869048
 20
171.4060534336938133
 10
124.101716202376295
 20
171.323597537199305
 10
123.8902215276280998
 20
171.2403466625420947
 10
123.679678854998599
 20
171.1563257484901897
 10
123.4701627391396954
 20
171.0715597338098917
 10
123.2680596706507004
 20
170.9886798482235974
 10
123.0670867352408067
 20
170.9051607678956088
 10
122.8673385911737057
 20
170.8210504422604004
 10
122.668851507628105
 20
170.7363713840221067
 10
122.4716609113643955
 20
170.6511456906141859
 10
122.279287820621704
 20
170.5669311853081922
 10
122.0882330628671042
 20
170.4822316431487081
 10
121.8985302006877021
 20
170.3970679987911865
 10
121.7102127966703051
 20
170.3114611868911084
 10
121.5195151713456028
 20
170.2236721976869092
 10
121.3303307366569044
 20
170.135465808447691
 10
121.1426951522642952
 20
170.0468642618781132
 10
120.9566440778280025
 20
169.9578898006824943
 10
120.7721864852098008
 20
169.8685563988366027
 10
120.589316330333105
 20
169.7788751965360063
 10
120.4080491849718015
 20
169.688864987444191
 10
120.2507676485282957
 20
169.6098509422373866
 10
120.0947357803403008
 20
169.5306119837078995
 10
119.939964016985499
 20
169.4511607036897942
 10
119.7864627950417997
 20
169.3715096940171918
 10
119.6342425510869987
 20
169.2916715465242135
 10
119.4833137216989059
 20
169.211658853045094
 10
119.3336867434552033
 20
169.1314842054138978
 10
119.1853720529339
 20
169.0511601954648029
 10
119.0314136400773037
 20
168.966864752161797
 10
118.8789189242801996
 20
168.8824336801635013
 10
118.7279022586009063
 20
168.7978836080706913
 10
118.578396192194802
 20
168.7132499083608934
 10
118.4304074890904985
 20
168.6285485397388868
 10
118.2839355921232993
 20
168.5437892051751021
 10
118.1455359512631986
 20
168.4628374083214055
 10
118.0085173667167027
 20
168.3818500753916112
 10
117.8728793538948025
 20
168.3008356454546117
 10
117.738621428208603
 20
168.2198025575798965
 10
117.6057431050693936
 20
168.1387592508365003
 10
117.4742438998879948
 20
168.0577141642937136
 10
117.3441233280757956
 20
167.9766757370207131
 10
117.2153809050436024
 20
167.8956524080865904
 10
117.1009494475680981
 20
167.8229165784593135
 10
116.9876284921506056
 20
167.7502058380921142
 10
116.8754176879234024
 20
167.6775262973104077
 10
116.764316684018894
 20
167.6048840664394959
 10
116.6543646879677993
 20
167.5323176621834875
 10
116.5457587167775984
 20
167.4599959619484082
 10
116.4384921334347069
 20
167.3879226055425136
 10
116.332525204479893
 20
167.3160742234011877
 10
116.2278181964536969
 20
167.244427445960099
 10
116.124331375896702
 20
167.1729589036544894
 10
116.0220250093496048
 20
167.1016452269199135
 10
115.9208593633529034
 20
167.0304630461918975
 10
115.820794704447195
 20
166.9593889919059109
 10
115.7217912991732049
 20
166.8883996944973092
 10
115.614065879432502
 20
166.8103814699659893
 10
115.5075236138657999
 20
166.7324064191928983
 10
115.402111617238603
 20
166.6544434372877106
 10
115.2977770043165009
 20
166.5764614193599016
 10
115.1944668898649979
 20
166.4984292605190888
 10
115.0761435145403055
 20
166.4080407025923876
 10
114.9590389292362005
 20
166.3174952015141059
 10
114.8430712191422032
 20
166.2267445784075051
 10
114.7281515199805
 20
166.1357278506459068
 10
114.6141604674418062
 20
166.0442776691662061
 10
114.5011281645554959
 20
165.9523989890367091
 10
114.3891185802032027
 20
165.8601476111668944
 10
114.2873961916202035
 20
165.775304101402611
 10
114.1866361946511006
 20
165.6902372911827115
 10
114.0868878616231967
 20
165.6049901614163105
 10
113.9882004648635956
 20
165.5196056930124939
 10
113.8906232766996993
 20
165.4341268668802059
 10
113.7942055694583985
 20
165.3485966639285039
 10
113.6989966154671947
 20
165.2630580650663887
 10
113.6050456870532059
 20
165.1775540512028897
 10
113.5124020565434932
 20
165.0921276032470075
 10
113.4211149962655014
 20
165.0068217021077999
 10
113.3312337785463058
 20
164.9216793286942959
 10
113.2428076757130953
 20
164.8367434639154965
 10
113.1608115293137047
 20
164.7568888393319071
 10
113.0801940515618043
 20
164.6772920316319926
 10
113.0009674508410029
 20
164.5979682346251991
 10
112.9229707329484995
 20
164.5188047803011955
 10
112.8461770500552035
 20
164.4397788733255084
 10
112.7660501581174941
 20
164.3561138568458091
 10
112.6872897294397973
 20
164.2726036384055135
 10
112.6099025514357947
 20
164.1892482556096127
 10
112.5338954115189978
 20
164.1060477460628135
 10
112.4592750971034008
 20
164.0230021473699935
 10
112.3860483956026997
 20
163.9401114971362006
 10
112.3182886110136991
 20
163.8620994094135881
 10
112.2517794428167974
 20
163.7842251326584062
 10
112.186526580091396
 20
163.7064886983903023
 10
112.1225357119171946
 20
163.6288901381290088
 10
112.0598125273737935
 20
163.551429483394088
 10
111.9983627155406936
 20
163.4741067657053861
 10
111.9381919654973956
 20
163.3969220165824083
 10
111.8793059663235994
 20
163.319875267545001
 10
111.8217104070989052
 20
163.2429665501128113
 10
111.7654109769027002
 20
163.1661958958054015
 10
111.7113840162530067
 20
163.0909305635549913
 10
111.6586242100482025
 20
163.0158327177155115
 10
111.6071655973147045
 20
162.9411211769559031
 10
111.5569433513798998
 20
162.8665592608764996
  0
LWPOLYLINE
  5
6A
100
AcDbEntity
  8
Geometries
 62
256
370
13
 48
1.0
  6
Continuous
100
AcDbPolyline
 90
30
 70
128
 10
264.3662276288591215
 20
157.199534972053101
 10
263.4024529101030794
 20
157.1382080571532924
 10
262.4384712907968833
 20
157.0780638444911972
 10
261.4743426660083969
 20
157.0191375585825142
 10
260.51014117511329
 20
156.9614662536779974
 10
259.5459409574872893
 20
156.9050869840284861
 10
258.5817994662016872
 20
156.8500364148119957
 10
257.6176809611233125
 20
156.7963490382308862
 10
256.6535173629393967
 20
156.7440585924383925
 10
255.787643313007294
 20
156.6983220652215891
 10
254.9216339920016878
 20
156.6537638780422981
 10
254.0554981800636938
 20
156.6104119574403057
 10
253.189274814393201
 20
156.5682960461921027
 10
252.3230031858026905
 20
156.5274459083707086
 10
251.4567174319072933
 20
156.4878927425415043
 10
250.5904116322109871
 20
156.4496788982208955
 10
249.7240611099632872
 20
156.4128519460921041
 10
248.8576410813263067
 20
156.3774594866480072
 10
247.9911332793419092
 20
156.3435455439725956
 10
247.1245464645620871
 20
156.3111393096785093
 10
246.2578964031868907
 20
156.2802661307376866
 10
245.3911988614277107
 20
156.2509513541153865
 10
244.5244682603386934
 20
156.2232246083976008
 10
243.8434419304807932
 20
156.2026042261155112
 10
243.1623883451084112
 20
156.1830692673283068
 10
242.4813015332813109
 20
156.1646753742172109
 10
241.8001755240597106
 20
156.1474781889629924
 10
241.1190049538618041
 20
156.1315245168975991
 10
240.4377949352557948
 20
156.1167087391200994
 10
239.7565594202544048
 20
156.1027966225634884
  0
LWPOLYLINE
  5
6B
100
AcDbEntity
  8
Geometries
 62
256
370
13
 48
1.0
  6
Continuous
100
AcDbPolyline
 90
71
 70
128
 10
180.5955604379059025
 20
177.7515979124015075
 10
180.0631609597799923
 20
177.7702899927176929
 10
179.5306774985257903
 20
177.7879546044325139
 10
178.9979901189632869
 20
177.8045826703935859
 10
178.4649788859123021
 20
177.8201651134484962
 10
177.9315241610140106
 20
177.8346930159351018
 10
177.3975193500673129
 20
177.8481593007122967
 10
176.8628542540720048
 20
177.8605401993478949
 10
176.372065102713691
 20
177.8709105370467967
 10
175.880533616929398
 20
177.8803210690240917
 10
175.3881701172711018
 20
177.8887489440396052
 10
174.8948849242910057
 20
177.8961713108527078
 10
174.4005883585411993
 20
177.9025653182227984
 10
173.9051907405739996
 20
177.9079081149095884
 10
173.4796198846142943
 20
177.9116336553960878
 10
173.0531177308691895
 20
177.914555698877507
 10
172.6256278048176114
 20
177.9166598550683887
 10
172.1970936319384862
 20
177.9179317336829911
 10
171.7674587377105979
 20
177.9183569444361126
 10
171.3366666476129865
 20
177.9179210970418978
 10
170.9046608871244928
 20
177.9166098012148893
 10
170.507542395919387
 20
177.9146453736260014
 10
170.1093258326451121
 20
177.9121672467238113
 10
169.7099632201882002
 20
177.909229336700605
 10
169.3094017437861964
 20
177.9058194139211935
 10
168.9075885886765889
 20
177.9019252487501035
 10
168.5044709400968941
 20
177.8975346115518903
 10
168.1697868839561067
 20
177.8935142949661952
 10
167.8337218172351868
 20
177.8891235616721076
 10
167.4965631509656134
 20
177.8843606146635921
 10
167.1586694684031897
 20
177.8792257280574916
 10
166.8203993528042872
 20
177.8737191759701943
 10
166.4821113874249079
 20
177.8678412325184865
 10
166.1441641555211959
 20
177.8615921718190123
 10
165.834984773115508
 20
177.8555380840992939
 10
165.5266692114323916
 20
177.8491725962771
 10
165.2194410739620025
 20
177.8424956866489026
 10
164.9133140964775919
 20
177.8355064044405083
 10
164.6082496774959054
 20
177.8282035671840902
 10
164.3042092155332909
 20
177.820585992411992
 10
163.9406579335546894
 20
177.8110277842502001
 10
163.5784588601842131
 20
177.8010126080077953
 10
163.2175452920581904
 20
177.7905384203806136
 10
162.8578505258134044
 20
177.7796031780644057
 10
162.4993737609719062
 20
177.7682057194020047
 10
162.2653860390987006
 20
177.7604924085179903
 10
162.0319560771341969
 20
177.7525789948560089
 10
161.798388315150504
 20
177.7444384087231981
 10
161.5637241107754107
 20
177.736030905288402
 10
161.3279842642874087
 20
177.7273520742105006
 10
161.0911972464224107
 20
177.7183977888275876
 10
160.8317232961150012
 20
177.7083104739442945
 10
160.5710739706130141
 20
177.6978850770755969
 10
160.309286232675305
 20
177.6871162406920064
 10
160.0463970450601892
 20
177.6759986072644892
 10
159.7824433705264084
 20
177.6645268192635001
 10
159.5174621718325056
 20
177.6526955191600052
 10
159.2514904117371088
 20
177.6404993494244877
 10
158.9578214922655945
 20
177.6266557440793861
 10
158.6630479158677929
 20
177.6123570329978065
 10
158.3672188799752121
 20
177.5975960853081972
 10
158.0703835820195877
 20
177.5823657701388925
 10
157.7725912194327123
 20
177.5666589566187099
 10
157.4391639855506071
 20
177.5485572937436984
 10
157.1046722783488008
 20
177.5298394399775077
 10
156.7691739961811095
 20
177.5104955357269034
 10
156.4327257757090024
 20
177.4905169832744889
 10
156.0953842535942897
 20
177.4698951849026116
 10
155.7572060664986964
 20
177.4486215428939033
 10
155.4182478510838905
 20
177.4266874595305978
 10
155.0785662440115118
 20
177.4040843370954121
  0
ARC
  5
6C
100
AcDbEntity
  8
Geometries
 62
256
370
13
 48
1.0
  6
Continuous
100
AcDbCircle
 10
163.095183373263211
 20
43.3272606211404465
 30
0.0
 40
134.2996562421633939
100
AcDbArc
 50
95.029177730264621
 51
98.9575336441321696
  0
LWPOLYLINE
  5
6D
100
AcDbEntity
  8
Geometries
 62
256
370
13
 48
1.0
  6
Continuous
100
AcDbPolyline
 90
4
 70
128
 10
182.9187255498165996
 20
177.6583233432158977
 10
182.1384273541472965
 20
177.6917350117307137
 10
181.3640389835103974
 20
177.7228265347924889
 10
180.5955604379059025
 20
177.7515979124015075
  0
LINE
  5
6E
100
AcDbEntity
  8
Geometries
 62
256
370
13
 48
1.0
  6
Continuous
100
AcDbLine
 10
151.6488149427910059
 20
174.9647486282640898
 30
0.0
 11
151.5868566414146983
 21
155.190282015701996
 31
0.0
  0
LWPOLYLINE
  5
6F
100
AcDbEntity
  8
Geometries
 62
256
370
13
 48
1.0
  6
Continuous
100
AcDbPolyline
 90
79
 70
128
 10
138.5839017008071892
 20
175.354333444048109
 10
138.4590194411883886
 20
175.3300635041574083
 10
138.334013930946611
 20
175.3056081485848097
 10
138.2086902769300139
 20
175.2809278650341867
 10
138.0828535859864985
 20
175.2559831412094127
 10
137.9563089649641086
 20
175.2307344648141054
 10
137.8288615207110013
 20
175.2051423235523089
 10
137.7003163600751066
 20
175.1791672051276976
 10
137.5984195518109914
 20
175.1584637741543133
 10
137.4955297025547907
 20
175.1374536268567965
 10
137.3914092054644982
 20
175.1160737401571055
 10
137.2860747859537014
 20
175.0943238430211863
 10
137.1795501994238862
 20
175.0722054623078066
 10
137.071859201276709
 20
175.0497201248761883
 10
136.9630255469133999
 20
175.0268693575854115
 10
136.8346404518592863
 20
174.9997503033308135
 10
136.7047701311720118
 20
174.9721383612547072
 10
136.5734523075489903
 20
174.9440359559528133
 10
136.4407247036882893
 20
174.9154455120207103
 10
136.3066250422872088
 20
174.8863694540538916
 10
136.1711910460437878
 20
174.8568102066479071
 10
136.0423078863084925
 20
174.8284996754435099
 10
135.9123036832774005
 20
174.7997637863541058
 10
135.7812100553896073
 20
174.770604571629093
 10
135.6490586210846914
 20
174.7410240635178127
 10
135.5158809988018049
 20
174.7110242942694924
 10
135.3735458919445875
 20
174.6787504770042858
 10
135.2301297312151007
 20
174.6460097497273125
 10
135.085670239311014
 20
174.6128045370344068
 10
134.9402051389299118
 20
174.5791372635208916
 10
134.7937721527696056
 20
174.545010353782402
 10
134.6464090035277934
 20
174.5104262324146873
 10
134.4715881729767091
 20
174.4690827043100114
 10
134.2955894701773047
 20
174.4271114323304914
 10
134.1184746498936988
 20
174.3845163857131126
 10
133.9403054668904076
 20
174.3413015336946899
 10
133.8209707506682946
 20
174.3121492561323862
 10
133.7012131730627971
 20
174.2827244496787102
 10
133.5810510317820103
 20
174.2530282904035914
 10
133.4605026245336887
 20
174.2230619543776129
 10
133.3394997568038889
 20
174.1928058633590979
 10
133.2175309637584917
 20
174.1621340196448955
 10
133.0724517362716028
 20
174.1254251019350079
 10
132.9259623925441929
 20
174.0881121148671014
 10
132.7780937036521891
 20
174.0501969415174131
 10
132.6288764406716041
 20
174.0116814649618959
 10
132.4895828817487029
 20
173.9754974247109942
 10
132.349184668854889
 20
173.9388021681664043
 10
132.2077062048452945
 20
173.90159718869279
 10
132.0651655649506893
 20
173.8638785731550911
 10
131.9215433626011134
 20
173.8256101594745076
 10
131.7768589256340874
 20
173.7867884588488891
 10
131.6311406648000002
 20
173.7474177098731047
 10
131.4696904195459126
 20
173.7034807939182031
 10
131.3070614391282902
 20
173.6588902997289097
 10
131.1432915382553119
 20
173.6136518688747969
 10
130.9784185316352989
 20
173.5677711429254941
 10
130.8124802339764869
 20
173.5212537634506873
 10
130.6455144599873108
 20
173.474105372020091
 10
130.4775590243756938
 20
173.4263316102031922
 10
130.3086517418502126
 20
173.3779381195695919
 10
130.1388304271189895
 20
173.3289305416890898
 10
129.9681328948904877
 20
173.2793145181312866
 10
129.7996672345404079
 20
173.2299977086279057
 10
129.6304286718900016
 20
173.1801047762218104
 10
129.4604530318187869
 20
173.1296410656202909
 10
129.2897761392069071
 20
173.0786119215310066
 10
129.0671299020428933
 20
173.0115050762611872
 10
128.8434398095184861
 20
172.9434652783824049
 10
128.6187843332442071
 20
172.8745042350603001
 10
128.3932419448306916
 20
172.8046336534605985
 10
128.1668911158884896
 20
172.7338652407489121
 10
127.9398103180280941
 20
172.6622107040911089
 10
127.7120780228600978
 20
172.589681750652602
 10
127.460913674652403
 20
172.5089039229910952
 10
127.2091604110649001
 20
172.4270977989330902
 10
126.9569226778113062
 20
172.3442789607161103
 10
126.7043049206053951
 20
172.2604629905777927
 10
126.4514115851606988
 20
172.1756654707556038
  0
ARC
  5
70
100
AcDbEntity
  8
Geometries
 62
256
370
13
 48
1.0
  6
Continuous
100
AcDbCircle
 10
124.5756110197329036
 20
197.4197174751508896
 30
0.0
 40
40.975421913156687
100
AcDbArc
 50
259.7551465404008013
 51
264.6498517585869763
  0
LWPOLYLINE
  5
71
100
AcDbEntity
  8
Geometries
 62
256
370
13
 48
1.0
  6
Continuous
100
AcDbPolyline
 90
6
 70
128
 10
111.3080803522945956
 20
162.4602929498612127
 10
111.3553192847736995
 20
162.5425281519972032
 10
111.4039031802017945
 20
162.6242623609574878
 10
111.4537664760132003
 20
162.7055696467612051
 10
111.5048124746083005
 20
162.7863654021678883
 10
111.5569433513798998
 20
162.8665592608764996
  0
LWPOLYLINE
  5
72
100
AcDbEntity
  8
Geometries
 62
256
370
13
 48
1.0
  6
Continuous
100
AcDbPolyline
 90
179
 70
128
 10
264.3662276288591215
 20
157.199534972053101
 10
264.6478479295034276
 20
157.2177982080710876
 10
264.9309810055838739
 20
157.2362733056216939
 10
265.2155827501985073
 20
157.254956512472404
 10
265.5016090564449769
 20
157.2738440763905032
 10
265.7890158174215003
 20
157.2929322451433904
 10
266.0777589262260108
 20
157.312217266498493
 10
266.3511867855040123
 20
157.3305772162701999
 10
266.625726451036428
 20
157.3491056832804134
 10
266.9013409532664127
 20
157.3677995224799133
 10
267.1779933226376897
 20
157.3866555888195933
 10
267.4556465895935844
 20
157.405670737250091
 10
267.8111901076081267
 20
157.4301506326281981
 10
268.1682251476793795
 20
157.4548776995939932
 10
268.5266749920228904
 20
157.4798454116638027
 10
268.8864629228539798
 20
157.5050472423540953
 10
269.2475122223880248
 20
157.5304766651811121
 10
269.6097461728401754
 20
157.5561271536612082
 10
269.9730880564259792
 20
157.5819921813107101
 10
270.3982848754112069
 20
157.6124304935603107
 10
270.824763468064873
 20
157.6431415703735013
 10
271.2524020093866852
 20
157.6741150479359135
 10
271.6810786743760104
 20
157.7053405624334061
 10
272.1106716380318744
 20
157.7368077500514119
 10
272.5410590753542124
 20
157.7685062469757895
 10
273.0491556497732972
 20
157.8061480478588976
 10
273.5579871175078779
 20
157.8440797824860056
 10
274.0673540422856149
 20
157.8822844845489897
 10
274.5770569878341121
 20
157.9207451877396977
 10
275.2259411452884024
 20
157.9700386544033108
 10
275.8746353876774151
 20
158.0196843400916862
 10
276.5227285556239281
 20
158.0696472669314971
 10
277.1698094897508895
 20
158.1198924570493887
 10
277.5758435872680252
 20
158.1516039342918987
 10
277.9812131878567243
 20
158.1834044277526914
 10
278.3858161801458095
 20
158.2152852506822001
 10
278.7895504527638195
 20
158.2472377163304884
 10
279.1923138943392928
 20
158.2792531379481034
 10
279.5940043935008816
 20
158.311322828784995
 10
279.9945198388774088
 20
158.3434381020917101
 10
280.3937581190970718
 20
158.3755902711183126
 10
280.7916171227889208
 20
158.4077706491150934
 10
281.1879947385813239
 20
158.4399705493324007
 10
281.498328537366092
 20
158.4652785076332862
 10
281.8076352377544254
 20
158.4905889415987872
 10
282.1158653097771207
 20
158.5158976376486919
 10
282.4229692234649747
 20
158.5412003822029021
 10
282.7288974488491249
 20
158.566492961681206
 10
283.005348760170591
 20
158.5894237243184932
 10
283.2807549385485117
 20
158.6123395105169891
 10
283.5550790144259281
 20
158.6352371752277861
 10
283.8282840182463929
 20
158.6581135734016073
 10
284.1003329804535724
 20
158.6809655599892039
 10
284.3663628939501109
 20
158.7033826707049116
 10
284.6312069991934095
 20
158.7257702206084957
 10
284.89483027198321
 20
158.7481252301446943
 10
285.1571976881193109
 20
158.7704447197583875
 10
285.3903645394289015
 20
158.7903403923656072
 10
285.6224773788907783
 20
158.8102032526363985
 10
285.8535112769711191
 20
158.8300311797823099
 10
286.0834413041354765
 20
158.8498220530146909
 10
286.312632067378388
 20
158.8696051750887932
 10
286.5429042320618009
 20
158.8895274840122056
 10
286.7744531965522015
 20
158.9096050535005133
 10
287.0072332850127168
 20
158.9298345240709978
 10
287.2747165776527254
 20
158.9531356107935949
 10
287.5436545635581069
 20
158.9766234999050027
 10
287.8139138355775231
 20
159.0002873601490876
 10
288.08545962565222
 20
159.0241246518093021
 10
288.3582645607913264
 20
159.0481334650920076
 10
288.6323012680040847
 20
159.0723118902031104
 10
288.9075423742999078
 20
159.0966580173488012
 10
289.2116660025013744
 20
159.123630173720187
 10
289.5171773988236055
 20
159.1508003967674085
 10
289.8240401298158986
 20
159.1781661445546092
 10
290.1322177620274942
 20
159.2057248751463874
 10
290.4416738620076899
 20
159.2334740466071139
 10
290.7712413004288123
 20
159.2631102556599956
 10
291.1021624175959914
 20
159.2929547967630981
 10
291.4343937462136864
 20
159.3230046372345896
 10
291.767891818986584
 20
159.3532567443924108
 10
292.102613168618916
 20
159.3837080855547867
 10
292.4385142940164997
 20
159.4143556245080902
 10
292.8358263249309061
 20
159.4507208800849867
 10
293.2345165051800109
 20
159.4873359972991125
 10
293.634398479368997
 20
159.524183974090306
 10
294.0352858921033885
 20
159.5612478083984911
 10
294.5135853502583814
 20
159.6056292918214012
 10
294.9927312249253077
 20
159.6502639142881037
 10
295.472409100485379
 20
159.6951229902153955
 10
295.9523045613208865
 20
159.7401778340197041
 10
296.4321031918133258
 20
159.785399760117798
 10
296.9114905763448178
 20
159.8307600829261901
 10
297.2837388316734746
 20
159.8661059547723085
 10
297.6554006085376045
 20
159.9015046677972975
 10
298.0263311629587974
 20
159.93694249509889
 10
298.3963969219577734
 20
159.9724048162514123
 10
298.7654668743003867
 20
160.0078768059254912
 10
299.1334100087523211
 20
160.0433436387918107
 10
299.5000953140789761
 20
160.0787904895207987
 10
299.7872374476933146
 20
160.1066179109062091
 10
300.0734586368755004
 20
160.134416652859386
 10
300.3586953335379235
 20
160.1621795242311919
 10
300.6428839895925762
 20
160.1898993338724893
 10
300.9259610569519054
 20
160.2175688906341122
 10
301.207862987528074
 20
160.2451810033666959
 10
301.4885262332333014
 20
160.2727284809211028
 10
301.7330405073051907
 20
160.2967738495383117
 10
301.9765151870140016
 20
160.3207594086154018
 10
302.2189077001054898
 20
160.3446803406442882
 10
302.460175474325581
 20
160.3685318281168861
 10
302.7002759374203151
 20
160.3923090535249969
 10
302.9391665171353907
 20
160.4160071993603935
 10
303.1768046412166768
 20
160.4396214481149059
 10
303.413147737410327
 20
160.4631469822805059
 10
303.6242355958793837
 20
160.4841923884652033
 10
303.834214081767584
 20
160.505158888722292
 10
304.043052370547116
 20
160.526042994925092
 10
304.2507196376897127
 20
160.5468412189470087
 10
304.4571850586676192
 20
160.5675500726611915
 10
304.6624178089526254
 20
160.5881660679411027
 10
304.866387064016692
 20
160.6086857166600055
 10
305.0686212307222718
 20
160.6290610895713087
 10
305.2695360962509881
 20
160.6493335976167884
 10
305.4691010373956033
 20
160.6694997754516123
 10
305.6672854309487093
 20
160.6895561577304932
 10
305.8640586537030117
 20
160.7094992791085133
 10
306.0559148419338271
 20
160.7289726751359922
 10
306.2463512572467721
 20
160.748330193493814
 10
306.4353388878424767
 20
160.7675685511848087
 10
306.6228487219220824
 20
160.786684465212204
 10
306.7889958007315272
 20
160.8036461024375114
 10
306.9539210111515217
 20
160.8205051743663887
 10
307.1176037031567034
 20
160.8372593442265099
 10
307.2800232267213119
 20
160.8539062752456061
 10
307.4411532676747925
 20
160.8704427470495943
 10
307.6009511907005844
 20
160.8868622928704042
 10
307.7594206638723904
 20
160.9031645840777003
 10
307.9165722163597252
 20
160.9193502853960922
 10
308.0910303199482883
 20
160.9373406760842045
 10
308.2638632243455845
 20
160.9551865841364986
 10
308.4350857222768241
 20
160.9728889434433086
 10
308.604712606466876
 20
160.9904486878947125
 10
308.7368811370275239
 20
161.0041461896329054
 10
308.8680809279072719
 20
161.017756678052308
 10
308.9986327737702823
 20
161.031313161235488
 10
309.1292164410584178
 20
161.0448860788721106
 10
309.5959262621194057
 20
161.0935036002742891
 10
310.0629091247204201
 20
161.1423184301868901
 10
310.4488104764677132
 20
161.1827860023996095
 10
310.8344755632227248
 20
161.2233459230990888
 10
311.2197130926605269
 20
161.2639789995795923
 10
311.604331772456419
 20
161.3046660391347871
 10
311.9881403102853028
 20
161.3453878490585112
 10
312.3709474138224778
 20
161.3861252366448014
 10
312.7525617907430728
 20
161.4268590091874103
 10
313.0514403121982809
 20
161.4588490775842047
 10
313.3493716258652171
 20
161.4908157561048938
 10
313.6462629438120757
 20
161.5227497351679915
 10
313.9420214781073923
 20
161.5546417051918979
 10
314.2365544408194751
 20
161.5864823565950132
 10
314.5297690440166889
 20
161.6182623797957092
 10
314.8215724997675125
 20
161.6499724652124996
 10
315.0492993369783221
 20
161.6747782210302091
 10
315.2760570576807027
 20
161.6995307807819984
 10
315.5018009482702155
 20
161.7242256582709956
 10
315.7264862951421946
 20
161.748858367299988
 10
315.9500683846922016
 20
161.7734244216719048
 10
316.1685407912580104
 20
161.7974825758558097
 10
316.3858634990438077
 20
161.8214678571139018
 10
316.6019941472969208
 20
161.8453760153151109
 10
316.8168903752645065
 20
161.8692028003279972
 10
317.0348558114301909
 20
161.8934275541836882
 10
317.2514468137180756
 20
161.9175586385393046
 10
317.4666183745711123
 20
161.9415915377047952
 10
317.6803254864316841
 20
161.9655217359903077
 10
317.8925231417427995
 20
161.9893447177059898
 10
318.1031663329471826
 20
162.0130559671617902
 10
318.3122100524877851
 20
162.0366509686679137
  0
LWPOLYLINE
  5
73
100
AcDbEntity
  8
Geometries
 62
256
370
13
 48
1.0
  6
Continuous
100
AcDbPolyline
 90
68
 70
128
 10
319.1489302514683004
 20
163.0042709455024976
 10
319.1486279040491922
 20
163.0143507288522073
 10
319.1483214692240153
 20
163.0246225844512082
 10
319.1480023022265868
 20
163.0353315401042948
 10
319.1476617582911217
 20
163.0467226236162901
 10
319.1472911926516076
 20
163.0590408627919885
 10
319.1468819605419753
 20
163.072531285436213
 10
319.1465276639303283
 20
163.0841128421413941
 10
319.1461399666563921
 20
163.0966881626603993
 10
319.1457146755046779
 20
163.1103760997660004
 10
319.1452475972595266
 20
163.125295506230799
 10
319.1447345387052792
 20
163.1415652348273966
 10
319.1441713066266175
 20
163.1593041383285936
 10
319.1436454237128828
 20
163.1757683485303119
 10
319.1430769572626218
 20
163.1934741190048044
 10
319.1424061160627161
 20
163.2124806506895141
 10
319.1414185768746279
 20
163.2327968876670923
 10
319.1399960598848224
 20
163.2544499606468094
 10
319.1380281580342171
 20
163.2774689301845115
 10
319.1354044642637859
 20
163.3018828568366985
 10
319.1328110109719773
 20
163.3220627635610072
 10
319.1296909932248127
 20
163.3431358792994104
 10
319.1259908571606729
 20
163.365116300116
 10
319.1216570489183937
 20
163.3880181220752092
 10
319.1166360146365264
 20
163.4118554412411015
 10
319.1108742004536794
 20
163.4366423536781951
 10
319.1043180525085745
 20
163.4623929554506105
 10
319.0958136675790229
 20
163.4926669367467866
 10
319.086063391393111
 20
163.5239219081342128
 10
319.0749980544811137
 20
163.55605707147879
 10
319.0625484873733058
 20
163.5889716286465898
 10
319.0486455067813836
 20
163.6225647828493948
 10
319.0366287683709174
 20
163.6493705859462011
 10
319.0235971396272134
 20
163.6764767469103106
 10
319.0095360591151916
 20
163.7038212037334972
 10
318.9944309653994878
 20
163.7313418944077057
 10
318.9782672970449084
 20
163.7589767569247101
 10
318.9610304926160893
 20
163.7866637292765972
 10
318.9427059906780073
 20
163.8143407494551127
 10
318.9232792297951846
 20
163.8419457554522012
 10
318.9027356485324276
 20
163.8694166852596936
 10
318.8810606854544858
 20
163.8966914768695062
 10
318.8586574286063069
 20
163.9232282529137024
 10
318.8351349944313142
 20
163.949457171579013
 10
318.8104795531236277
 20
163.9753194058745009
 10
318.7846398465043194
 20
164.0007160250023048
 10
318.7553900061142826
 20
164.0275128428932874
 10
318.7247837127985122
 20
164.0535880999636049
 10
318.6928630491291869
 20
164.0788713811890887
 10
318.6596700976793954
 20
164.1032922715459108
 10
318.6252469410214871
 20
164.1267803560099026
 10
318.5896356617283232
 20
164.149265219557094
 10
318.5550088993618942
 20
164.169483099345797
 10
318.5193986035710054
 20
164.1886875181758114
 10
318.4828400471582199
 20
164.2068194555290859
 10
318.4453685029262147
 20
164.2238198908873983
 10
318.4070192436773823
 20
164.2396298037324982
 10
318.3744164984732947
 20
164.2518527237942862
 10
318.3412491364554171
 20
164.2631737502474039
 10
318.3075375701254188
 20
164.2735587276993101
 10
318.2733022119846282
 20
164.2829735007576062
 10
318.2385634745348284
 20
164.2913839140296943
 10
318.2033417702771771
 20
164.2987558121232041
 10
318.1697087167316909
 20
164.3047245760959925
 10
318.1356815712140929
 20
164.3097111294297008
 10
318.1012774430902255
 20
164.3136868437314035
 10
318.0665134417261015
 20
164.3166230906082887
 10
318.0314066764877907
 20
164.3184912416678003
  0
ARC
  5
74
100
AcDbEntity
  8
Geometries
 62
256
370
13
 48
1.0
  6
Continuous
100
AcDbCircle
 10
167.9348054674277932
 20
-158.3172649285108946
 30
0.0
 40
336.3096812216751914
100
AcDbArc
 50
86.1532129963309643
 51
87.3908716071005927
  0
LINE
  5
75
100
AcDbEntity
  8
Geometries
 62
256
370
13
 48
1.0
  6
Continuous
100
AcDbLine
 10
278.8042833162958232
 20
166.2665189154238021
 30
0.0
 11
277.4936554298839155
 21
166.363678300045791
 31
0.0
  0
LWPOLYLINE
  5
76
100
AcDbEntity
  8
Geometries
 62
256
370
13
 48
1.0
  6
Continuous
100
AcDbPolyline
 90
50
 70
128
 10
318.0314066764877907
 20
164.3184912416678003
 10
317.5550455945822819
 20
164.3366524848071037
 10
317.0719894765949221
 20
164.3552048043021045
 10
316.5822383225254839
 20
164.3741482001528027
 10
316.0857921323740811
 20
164.3934826723593119
 10
315.5826509061408842
 20
164.41320822092149
 10
315.072814643825609
 20
164.4333248458393939
 10
314.5562833454283123
 20
164.4538325471129951
 10
314.1054501919526842
 20
164.4718324491601891
 10
313.6496377141186258
 20
164.4901232078958913
 10
313.546628092048195
 20
164.4942692727296105
 10
313.4433675335981775
 20
164.498429995480592
 10
313.3398560387686871
 20
164.5026053761488072
 10
313.2360936075596101
 20
164.506795414734313
 10
313.1320802399708896
 20
164.5110001112369957
 10
313.0278159360025825
 20
164.5152194656569122
 10
312.9185353857349128
 20
164.5196466803739952
 10
311.5132343433559754
 20
164.5770399770698873
 10
309.9209075407816272
 20
164.64311255637881
 10
308.3334809511101184
 20
164.7100925016160886
 10
307.5529995530391716
 20
164.7434339713364864
 10
307.3608716727151773
 20
164.7516831464882898
 10
307.2763582941676077
 20
164.7553170218428136
 10
307.259759095584684
 20
164.7560311231366086
 10
307.2431604367018281
 20
164.7567453243659088
 10
307.226562317518983
 20
164.7574596255307995
 10
307.2041122945526013
 20
164.7584259586288056
 10
306.8088663656487256
 20
164.7754753537506076
 10
306.0120838062459256
 20
164.810058483807893
 10
305.2223466547096109
 20
164.8446230490249889
 10
304.4675635544650163
 20
164.877932185338409
 10
303.7193302683925253
 20
164.9112240627144104
 10
302.9776467964923086
 20
164.9444986811529077
 10
302.2425131387641954
 20
164.9777560406537873
 10
301.513929295208186
 20
165.010996141217305
 10
300.7918952658245075
 20
165.0442189828432902
 10
300.1171194189370794
 20
165.0755275685984884
 10
299.4481662231789869
 20
165.1068208115104881
 10
298.7850356785504005
 20
165.1380987115792891
 10
298.1277277850510927
 20
165.1693612688048916
 10
297.4762425426811774
 20
165.2006084831872954
 10
296.830579951440825
 20
165.2318403547265007
 10
296.1907400113295807
 20
165.2630568834225073
 10
295.5567227223478994
 20
165.2942580692752017
 10
294.9285280844954968
 20
165.3254439122848112
 10
294.3061560977724866
 20
165.3566144124511936
 10
293.7005655121428731
 20
165.3872133622226954
 10
293.1005914825294099
 20
165.4177975122171915
 10
292.5062340089319264
 20
165.4483668624347104
 10
291.9174930913505932
 20
165.4789214128753088
  0
LWPOLYLINE
  5
77
100
AcDbEntity
  8
Geometries
 62
256
370
13
 48
1.0
  6
Continuous
100
AcDbPolyline
 90
7
 70
128
 10
275.1240772091164786
 20
166.5576975334560927
 10
274.9072855938276803
 20
166.5777976188836078
 10
274.6833235500640171
 20
166.5992040242099108
 10
274.4521910778253186
 20
166.621916749435087
 10
274.2138881771116985
 20
166.6459357945593069
 10
273.9684148479229862
 20
166.6712611595824001
 10
273.7157710902595227
 20
166.6978928445043948
  0
LINE
  5
78
100
AcDbEntity
  8
Geometries
 62
256
370
13
 48
1.0
  6
Continuous
100
AcDbLine
 10
275.3956988624020141
 20
166.533435280639992
 30
0.0
 11
275.1296530015147823
 21
166.5571891675523943
 31
0.0
  0
LWPOLYLINE
  5
79
100
AcDbEntity
  8
Geometries
 62
256
370
13
 48
1.0
  6
Continuous
100
AcDbPolyline
 90
33
 70
128
 10
190.4973743951784115
 20
177.2347110748046077
 10
191.1453866143014011
 20
177.1907133634371121
 10
191.7933203492285088
 20
177.1455784705925112
 10
192.4411752957350075
 20
177.0993258439198996
 10
193.0889511500218134
 20
177.0519749316252103
 10
193.7366476082895872
 20
177.0035451819140917
 10
194.3842643667387904
 20
176.9540560429927041
 10
195.1474242429700041
 20
176.8943959666806904
 10
195.9104724943856866
 20
176.8333232185879069
 10
196.6734086239013095
 20
176.7708696325659048
 10
197.4362322615585867
 20
176.7070649310458919
 10
198.2145077309737928
 20
176.6405904473681971
 10
198.9926660480136036
 20
176.5727591070996993
 10
199.7707072296906858
 20
176.5035956787652083
 10
200.5486312930179054
 20
176.4331249308893064
 10
201.3264382550077869
 20
176.3613716319968034
 10
202.1041281326733099
 20
176.2883605506125093
 10
202.8817009775868883
 20
176.2141160616139075
 10
203.7887217536107016
 20
176.125967650683009
 10
204.6955841879336049
 20
176.0362031970944088
 10
205.6022888592029005
 20
175.9448557491137137
 10
206.5088363460660048
 20
175.8519583550069001
 10
207.4152272271703055
 20
175.757544063039802
 10
208.3214620813810996
 20
175.6616459122816138
 10
209.1757697437693082
 20
175.5698963559192123
 10
210.0299398899115033
 20
175.4768767770511886
 10
210.8839731622028069
 20
175.382608231513899
 10
211.7378702030378861
 20
175.2871117751433019
 10
212.5916316548118914
 20
175.1904084637756966
 10
213.4783552199297958
 20
175.0887000637517019
 10
214.3649338903007902
 20
174.985735723222291
 10
215.2513683859822891
 20
174.881539043575998
 10
216.1376595044212081
 20
174.7761338110528868
  0
ARC
  5
7A
100
AcDbEntity
  8
Geometries
 62
256
370
13
 48
1.0
  6
Continuous
100
AcDbCircle
 10
121.6556534237955987
 20
-611.3027219754350199
 30
0.0
 40
791.7372316060098001
100
AcDbArc
 50
82.2935017452436028
 51
83.0330849057890532
  0
LINE
  5
7B
100
AcDbEntity
  8
Geometries
 62
256
370
13
 48
1.0
  6
Continuous
100
AcDbLine
 10
242.676660414218702
 20
171.1727817500118931
 30
0.0
 11
240.8024296958678008
 21
171.4490418026769873
 31
0.0
  0
ARC
  5
7C
100
AcDbEntity
  8
Geometries
 62
256
370
13
 48
1.0
  6
Continuous
100
AcDbCircle
 10
324.0983631566293184
 20
813.6284201096533479
 30
0.0
 40
648.9445159537061727
100
AcDbArc
 50
265.9976989429616765
 51
266.9993788673423865
  0
LWPOLYLINE
  5
7D
100
AcDbEntity
  8
Geometries
 62
256
370
13
 48
1.0
  6
Continuous
100
AcDbPolyline
 90
10
 70
128
 10
233.8108429002352864
 20
172.4564429989312089
 10
233.1168010770753085
 20
172.5541638199242982
 10
232.4287614252475862
 20
172.6506016040507063
 10
231.74672394475229
 20
172.7457563513104049
 10
231.0706886355893062
 20
172.8396280617033938
 10
230.4006554977586063
 20
172.9322167352297015
 10
229.7484295932540022
 20
173.0219031652123078
 10
229.10199341077751
 20
173.1103519719416965
 10
228.4613469503291867
 20
173.1975631554180097
 10
227.8264902119090891
 20
173.2835367156411053
  0
LINE
  5
7E
100
AcDbEntity
  8
Geometries
 62
256
370
13
 48
1.0
  6
Continuous
100
AcDbLine
 10
183.2443432230984115
 20
177.6437740881175102
 30
0.0
 11
182.9187255498165996
 21
177.6583233432158977
 31
0.0
  0
LWPOLYLINE
  5
7F
100
AcDbEntity
  8
Geometries
 62
256
370
13
 48
1.0
  6
Continuous
100
AcDbPolyline
 90
9
 70
128
 10
242.6766506981230975
 20
171.1727821669960008
 10
243.8913612982055099
 20
170.9921072250253928
 10
245.1059354842159053
 20
170.8105159275343965
 10
246.3204181331348082
 20
170.6283137926278926
 10
247.534833572344894
 20
170.4456641819718925
 10
248.749201587644194
 20
170.2626990398028113
 10
249.9635419648307959
 20
170.0795503103566091
 10
252.8258715673682957
 20
169.6475514263902085
 10
255.6880977737041007
 20
169.214868225593392
  0
LINE
  5
80
100
AcDbEntity
  8
Geometries
 62
256
370
13
 48
1.0
  6
Continuous
100
AcDbLine
 10
167.1156589547821056
 20
155.0816430506434926
 30
0.0
 11
167.177957648942197
 21
174.9647486282640045
 31
0.0
  0
LWPOLYLINE
  5
81
100
AcDbEntity
  8
Geometries
 62
256
370
13
 48
1.0
  6
Continuous
100
AcDbPolyline
 90
17
 70
128
 10
111.3080803522945956
 20
162.4602929498612127
 10
111.2757769879479071
 20
162.4013684240412942
 10
111.243811657277206
 20
162.3412641808826891
 10
111.2122002082085999
 20
162.2799333747493051
 10
111.1810822706246
 20
162.2175424921859133
 10
111.1506170498235946
 20
162.154291757014505
 10
111.1209637511040995
 20
162.0903813930574984
 10
111.0922815797649008
 20
162.0260116241369133
 10
111.0647297411045002
 20
161.9613826740751961
 10
111.0415455611132955
 20
161.904453803520596
 10
111.0194684932848048
 20
161.8476157233467063
 10
110.9986070315725044
 20
161.7910048804820065
 10
110.9790696699295012
 20
161.7347577218550896
 10
110.9647184577839027
 20
161.6909075458503935
 10
110.9513042790659938
 20
161.6474323090066036
 10
110.9388797596695042
 20
161.6043981960403073
 10
110.9274975254877944
 20
161.5618713916678075
  0
LINE
  5
82
100
AcDbEntity
  8
Geometries
 62
256
370
13
 48
1.0
  6
Continuous
100
AcDbLine
 10
291.9174930913505932
 20
165.4789214128753088
 30
0.0
 11
290.1282059247357097
 21
165.5736282872099991
 31
0.0
  0
LWPOLYLINE
  5
83
100
AcDbEntity
  8
Geometries
 62
256
370
13
 48
1.0
  6
Continuous
100
AcDbPolyline
 90
259
 70
128
 10
167.1156589645347879
 20
155.0816430506129109
 10
167.2962777994457895
 20
155.0826690197245057
 10
167.4783492236975064
 20
155.0837253610795017
 10
167.6618601718782031
 20
155.0848120166843103
 10
167.8467975785762007
 20
155.0859289285452007
 10
168.0331483783797921
 20
155.087076038668414
 10
168.2208995058772985
 20
155.0882532890601908
 10
168.4100378956570125
 20
155.0894606217268858
 10
168.6196768187816986
 20
155.0908233634721114
 10
168.8309611300566075
 20
155.0922223574079908
 10
169.0438734394188884
 20
155.0936575263446002
 10
169.2583963568054912
 20
155.0951287930924991
 10
169.4745124921533943
 20
155.096636080461991
 10
169.6922044553996045
 20
155.098179311263408
 10
169.9114548564812992
 20
155.0997584083069967
 10
170.1322463053352863
 20
155.1013732944032881
 10
170.3545614118987999
 20
155.1030238923625006
 10
170.5783827861087047
 20
155.1047101249951083
 10
170.7996566851396949
 20
155.1064008574981017
 10
171.0223502873350014
 20
155.1081258157852858
 10
171.2464471177052872
 20
155.1098849267285971
 10
171.4719307012611864
 20
155.111678117200313
 10
171.7029217596603985
 20
155.1135388501483874
 10
171.9353159874754908
 20
155.1154347601454049
 10
172.1690955552338949
 20
155.1173657594819133
 10
172.404233373041393
 20
155.1193315286722907
 10
172.6407013204459133
 20
155.1213317005164072
 10
172.874215871261498
 20
155.1233293251218015
 10
173.1089631454613027
 20
155.1253595092200044
 10
173.3449182068713128
 20
155.1274219428958077
 10
173.582056119317798
 20
155.1295163162342021
 10
173.8658708465559926
 20
155.1320508327719097
 10
174.15128453771311
 20
155.1346296531660016
 10
174.4382551209050973
 20
155.1372522545331094
 10
174.7267405242481004
 20
155.1399181139898928
 10
175.0166986758582084
 20
155.1426267086532107
 10
175.3080875038513966
 20
155.1453775156394101
 10
175.6275484689672908
 20
155.1484259245505086
 10
175.9486073674499096
 20
155.1515232684955947
 10
176.2712095785514919
 20
155.1546688686296989
 10
176.5953004815239922
 20
155.1578620461081073
 10
176.9208254556197062
 20
155.1611021220861062
 10
177.2477298800905885
 20
155.1643884177186976
 10
177.5759591341887926
 20
155.1677202541613099
 10
177.938471020234914
 20
155.1714369254162023
 10
178.3024243090981997
 20
155.1752063146226988
 10
178.6677337319262904
 20
155.1790270726334029
 10
179.0343142703464991
 20
155.1828978560695873
 10
179.4020809059861108
 20
155.1868173215526099
 10
179.8138310578607104
 20
155.191247563173107
 10
180.2268345383560018
 20
155.1957349030095941
 10
180.64097315528781
 20
155.2002774735024957
 10
181.0561287164715907
 20
155.2048734070924922
 10
181.4721830297231975
 20
155.2095208362200083
 10
181.889017902858086
 20
155.2142178933256105
 10
182.3065151436921099
 20
155.218962710849695
 10
182.724556560040611
 20
155.2237534212328001
 10
183.2572094601804906
 20
155.2299141071137001
 10
183.7902943104724898
 20
155.2361417708279134
 10
184.3235581246657091
 20
155.2424318799471905
 10
184.8567543372768114
 20
155.2487800114433014
 10
185.3896363828222036
 20
155.255181742287391
 10
185.9219576958188895
 20
155.2616326494508883
 10
186.4534717107833899
 20
155.2681283099055065
 10
186.9839318622325948
 20
155.2746643006223906
 10
187.3566103931414943
 20
155.2792874372927088
 10
187.7285583805656017
 20
155.2839268269075035
 10
188.0996897944386888
 20
155.2885809262116936
 10
188.4699186046944988
 20
155.2932481919501981
 10
188.8391581268525954
 20
155.2979270114144015
 10
189.2007609078206087
 20
155.3025319165957967
 10
189.5612553423933946
 20
155.3071449160098894
 10
189.9205673800092882
 20
155.3117645664725899
 10
190.2786229701063974
 20
155.3163894247994108
 10
190.5813872619218046
 20
155.3203165564588915
 10
190.8831484593144125
 20
155.3242455168470997
 10
191.1838613287384874
 20
155.3281754243994897
 10
191.4834806366482951
 20
155.3321053975517998
 10
191.7819611494981871
 20
155.3360345547395127
 10
192.0792576337424862
 20
155.339962014398111
 10
192.3584406328230898
 20
155.3436627009313895
 10
192.6364929290504051
 20
155.3473603557930005
 10
192.9133766085369075
 20
155.3510542400725001
 10
193.1895122485410923
 20
155.3547497355226881
 10
193.4662290908192972
 20
155.3584644354338025
 10
193.879181015001592
 20
155.3640289721587919
 10
194.2934386804284088
 20
155.3696363617154077
 10
194.7088804007366889
 20
155.3752848846586119
 10
195.1253804424094938
 20
155.3809726364669075
 10
195.5428130719297997
 20
155.3866977126183997
 10
195.9610525557804976
 20
155.3924582085917052
 10
196.5428510609588955
 20
155.4005114148839084
 10
197.1256260588160956
 20
155.4086241323610125
 10
197.7090410201172119
 20
155.4167912635180073
 10
198.292759415627188
 20
155.4250077108499113
 10
198.8764447547638099
 20
155.433268387257101
 10
199.4597552132896112
 20
155.4415685985536868
 10
200.0423232092933006
 20
155.4499023678773142
 10
200.4901593419228902
 20
155.4563380785889137
 10
200.9371628633901139
 20
155.4627867478741052
 10
201.3831630663767953
 20
155.4692453575150921
 10
201.8279892435654119
 20
155.4757108892943904
 10
202.1765607082249971
 20
155.4807938399389116
 10
202.5242192030090962
 20
155.4858777366451932
 10
202.8708819249146131
 20
155.4909611154018876
 10
203.2164660709385942
 20
155.4960425121975902
 10
203.5671398046488889
 20
155.5012127483861946
 10
203.9165221414417033
 20
155.5063778668275916
 10
204.2645256791703048
 20
155.5115363221941038
 10
204.611063015687904
 20
155.5166865691585087
 10
204.9560467488477116
 20
155.5218270623932995
 10
205.2259585603972027
 20
155.5258581721643907
 10
205.4948149070843897
 20
155.5298815569234137
 10
205.7625733937719872
 20
155.533896467096298
 10
206.0291916253223974
 20
155.5379021531092008
 10
206.2946272065981077
 20
155.5418978653881936
 10
206.5588377424614919
 20
155.5458828543594905
 10
206.8217808377752931
 20
155.5498563704489925
 10
207.0834140974017998
 20
155.5538176640831125
 10
207.3436951262036132
 20
155.5577659856874959
 10
207.6025815290431922
 20
155.5617005856886124
 10
207.8554464474561883
 20
155.5655508434545879
 10
208.1068850444333975
 20
155.5693864321256115
 10
208.356857155689994
 20
155.5732066415706072
 10
208.6053222244858887
 20
155.5770107511266076
 10
208.833907928447303
 20
155.5805163618832125
 10
209.0611116041567072
 20
155.5840061842824014
 10
209.2869118105124926
 20
155.5874797857233887
 10
209.5112871064131923
 20
155.5909367336057016
 10
209.7342160507575954
 20
155.5943765953284981
 10
209.9556772024440932
 20
155.5977989382913051
 10
210.1756491203711903
 20
155.601203329893508
 10
210.3759634824415912
 20
155.604307882952412
 10
210.5749919428895112
 20
155.6073966551643935
 10
210.7727179866070912
 20
155.6104693133169974
 10
210.9691250984866997
 20
155.6135255241975131
 10
211.1641963263381001
 20
155.6165649474735062
 10
211.357889839415293
 20
155.6195868375617977
 10
211.5227560553950923
 20
155.6221620440499009
 10
211.6864994192173981
 20
155.6247224789686925
 10
211.8490677866099077
 20
155.6272672525053054
 10
212.010409013299892
 20
155.6297954748472137
 10
212.1704709550149914
 20
155.6323062561814083
 10
212.3292031060042859
 20
155.6347987327903866
 10
212.4866835678953976
 20
155.6372740891636113
 10
212.6588218381691888
 20
155.6399827975754988
 10
212.8302290229204914
 20
155.6426831170576008
 10
213.0013290364051954
 20
155.6453817198776903
 10
213.172545792879589
 20
155.648085278303995
 10
213.3443032065997897
 20
155.6508004646044014
 10
213.5275139479711868
 20
155.6537000455444115
 10
213.7119818966079094
 20
155.6566229514421877
 10
213.8976716693823903
 20
155.6595686731068042
 10
214.0845420080175074
 20
155.6625366093925038
 10
214.272551654235599
 20
155.6655261591533872
 10
214.461659349759401
 20
155.6685367212438109
 10
214.6858898332048966
 20
155.6721110416683018
 10
214.9115206889773049
 20
155.675712729733192
 10
215.138484374314686
 20
155.6793408013195119
 10
215.3667133464547874
 20
155.6829942723084912
 10
215.6008342381852003
 20
155.6867474648038865
 10
215.8361305590950963
 20
155.6905250345442084
 10
216.0725410853567894
 20
155.6943260824579056
 10
216.3100267982185017
 20
155.6981500182149887
 10
216.5485515098783083
 20
155.7019962908468926
 10
216.788079032534398
 20
155.7058643493853083
 10
217.028573178384903
 20
155.7097536428615001
 10
217.3289946306128115
 20
155.7146199559797992
 10
217.6307858745890087
 20
155.7195172079362067
 10
217.9338772771037895
 20
155.7244443385474142
 10
218.2381992049475059
 20
155.7294002876301988
 10
218.543657890442006
 20
155.7343837192441924
 10
218.8501347751924015
 20
155.7393929298893909
 10
219.2125290152744128
 20
155.7453278349090056
 10
219.576076180925611
 20
155.7512943227571895
 10
219.9406352481942974
 20
155.7572901117949868
 10
220.306065193129001
 20
155.763312920383612
 10
220.8293390967506014
 20
155.7719592799359987
 10
221.3536913492015969
 20
155.7806494730135114
 10
221.8787108019353127
 20
155.7893768476074001
 10
222.4039863064045903
 20
155.7981347517088864
 10
222.9291067140628115
 20
155.8069165333089927
 10
223.3404258244268021
 20
155.8138138312903891
 10
223.7511987601857015
 20
155.8207185114839888
 10
223.8801544573857996
 20
155.8228895677654009
 10
224.0090304850191103
 20
155.8250609370880113
 10
224.1381411118248081
 20
155.8272379209628866
 10
224.2687091087155977
 20
155.8294411553465864
 10
224.400838782191812
 20
155.8316724487407043
 10
224.5345119335717072
 20
155.8339315458356111
 10
224.6697103641731132
 20
155.8362181913213078
 10
224.8064158753142863
 20
155.8385321298879944
 10
224.944610268313312
 20
155.8408731062260131
 10
225.0842753444881907
 20
155.843240865025308
 10
225.2228603171286068
 20
155.8455921647291973
 10
225.3628291219229993
 20
155.8479688107699985
 10
225.5041645178131944
 20
155.8503705612725128
 10
225.6468492637407905
 20
155.8527971743613136
 10
225.7934968298251022
 20
155.8552932024365987
 10
225.9415071868997131
 20
155.857814499350809
 10
226.0908621362825954
 20
155.8603608097940878
 10
226.2415434792918916
 20
155.8629318784568056
 10
226.3935330172456872
 20
155.865527450028992
 10
226.5440642102153106
 20
155.8681002755643874
 10
226.6958224984448975
 20
155.8706962485705958
 10
226.8487906408761035
 20
155.8733151271721908
 10
227.0029513964506123
 20
155.875956669494002
 10
227.1880071927998017
 20
155.8791305775424121
 10
227.3746996770960038
 20
155.8823358544939879
 10
227.5629997605219899
 20
155.8855720922609009
 10
227.7528783542605879
 20
155.8888388827554081
 10
227.9443063694943987
 20
155.8921358178895105
 10
228.1372547174061083
 20
155.8954624895756069
 10
228.3135702677026018
 20
155.8985055175436969
 10
228.4910913717143899
 20
155.9015723898887131
 10
228.6697932983798012
 20
155.9046628468348956
 10
228.8496412470381927
 20
155.9077763486752133
 10
229.0305991988983862
 20
155.9109123075631089
 10
229.2126311351686923
 20
155.9140701356523095
 10
229.4284985632266114
 20
155.9178191377179132
 10
229.6457487919556115
 20
155.9215967378897005
 10
229.8643228560081866
 20
155.9254019738208115
 10
230.0841617900368021
 20
155.9292338831641871
 10
230.3097298906371009
 20
155.9331704914839065
 10
230.53649096906571
 20
155.9371328485318884
 10
230.7643823756745007
 20
155.9411199318317074
 10
230.993341460815401
 20
155.9451307189065119
 10
231.2233055748403956
 20
155.9491641872795071
 10
231.4542120681012136
 20
155.953219314474012
 10
231.6859982909498115
 20
155.9572950780132032
 10
232.0118576637154888
 20
155.9630338692317935
 10
232.3391466025285865
 20
155.9688082979556896
 10
232.6676931967546977
 20
155.9746155585085887
 10
232.9973255357593871
 20
155.9804528452146997
 10
233.3278717089083898
 20
155.9863173523974922
 10
233.7618248993800876
 20
155.9940335462185033
 10
234.1966263405473114
 20
156.0017847379203886
 10
234.6317567407103866
 20
156.0095617609260898
 10
234.9639334826966888
 20
156.0155119303404092
 10
235.2957613050170096
 20
156.021467144967005
 10
235.6270060733602065
 20
156.0274230670949862
 10
235.9574336534157908
 20
156.0333753590134052
 10
236.2868099108729893
 20
156.0393196830113141
 10
236.5447154866729136
 20
156.0439818078779979
 10
236.8017139207921105
 20
156.0486342318579887
 10
237.0576916444377957
 20
156.0532748509087071
 10
237.3125350888169862
 20
156.0579015609872044
 10
237.5661306851368124
 20
156.0625122580509014
 10
237.7764251971933902
 20
156.0663407554768867
 10
237.9857085581994909
 20
156.0701554539955112
 10
238.1939150454736875
 20
156.0739551359895074
 10
238.4009789363352922
 20
156.077738583841608
 10
238.6068345081029918
 20
156.0815045799342897
 10
238.8114160380958992
 20
156.0852519066503987
 10
239.003081226675306
 20
156.0887669067909087
 10
239.1935003045088877
 20
156.092263207216206
 10
239.3826175604997957
 20
156.09574039649101
 10
239.570331380470293
 20
156.0992429432382096
 10
239.7565594202544048
 20
156.1027966225634884
  0
LWPOLYLINE
  5
84
100
AcDbEntity
  8
Geometries
 62
256
370
13
 48
1.0
  6
Continuous
100
AcDbPolyline
 90
116
 70
128
 10
110.9274975254877944
 20
161.5618713916678075
 10
110.913368030889103
 20
161.5039978077099931
 10
110.9005965691733024
 20
161.4457412800296083
 10
110.8892107790615
 20
161.3871550351464919
 10
110.8792382992748031
 20
161.3282922995807098
 10
110.8707067685342054
 20
161.2692062998519873
 10
110.8636438255608994
 20
161.2099502624803904
 10
110.8580771090757935
 20
161.1505774139859
 10
110.8543122844476017
 20
161.0960951467245081
 10
110.8518492187439932
 20
161.0416004487074986
 10
110.8507092008178034
 20
160.9871343179081862
 10
110.8509135195217965
 20
160.9327377523001985
 10
110.8524834637088929
 20
160.8784517498567084
 10
110.8554403222318996
 20
160.8243173085512012
 10
110.8598053839437938
 20
160.770375426356992
 10
110.8655999376971977
 20
160.7166671012475092
 10
110.8728452723451028
 20
160.6632333311960963
 10
110.8815626767403018
 20
160.6101151141762102
 10
110.8917263547917003
 20
160.5574002706831891
 10
110.9030286398754015
 20
160.5053979860882976
 10
110.9127510306452962
 20
160.4649305011828915
 10
110.9233005299018942
 20
160.4246634097708863
 10
110.9347560877971972
 20
160.3844646338087898
 10
110.9471966544831929
 20
160.3442020952531095
 10
110.9607011801118972
 20
160.303743716060211
 10
110.9753486148351982
 20
160.2629574181864882
 10
110.9896901757992964
 20
160.2255655155227032
 10
111.0050960652073968
 20
160.1876965232731891
 10
111.0216252120709015
 20
160.1492518573525956
 10
111.0393365454009995
 20
160.1101329336756862
 10
111.0582916277703021
 20
160.070256638923496
 10
111.0785651023477953
 20
160.0296167012973001
 10
111.0954704180617938
 20
159.997161028682001
 10
111.1132763953873024
 20
159.9642532635554915
 10
111.1320212073935068
 20
159.9309019175111075
 10
111.1517430271494931
 20
159.8971155021419861
 10
111.1724800277244043
 20
159.8629025290414916
 10
111.1942703821873977
 20
159.8282715098029882
 10
111.2171522636077015
 20
159.7932309560198121
 10
111.2411638450544018
 20
159.7577893792849864
 10
111.2663432995965991
 20
159.7219552911919891
 10
111.2927288003034931
 20
159.6857372033340994
 10
111.320358520244298
 20
159.649143627304511
 10
111.3492706324880004
 20
159.6121830746965884
 10
111.3777394881418985
 20
159.5770060805085961
 10
111.4074093788439939
 20
159.5415260278305141
 10
111.4381188289087987
 20
159.5060513972119907
 10
111.4697329313140983
 20
159.4707562997888886
 10
111.5021917979696013
 20
159.435670862957295
 10
111.5446303601833051
 20
159.3913674325879128
 10
111.5882168262892975
 20
159.3475145300002112
 10
111.6328277305326964
 20
159.3041742660697935
 10
111.6783396071586054
 20
159.2614087516724055
 10
111.7246289904120005
 20
159.219280097683594
 10
111.7862158097506011
 20
159.1651782888590958
 10
111.8486469531075045
 20
159.1124145914508858
 10
111.9116451608053069
 20
159.0611284841455131
 10
111.9681468204227031
 20
159.0166995718929002
 10
112.0246863903847014
 20
158.9736538342781955
 10
112.0811243437675984
 20
158.9320191468144117
 10
112.1373579647607954
 20
158.8917779273133135
 10
112.193285259769894
 20
158.8529117017289991
 10
112.2488042352004953
 20
158.8154019960155949
 10
112.2967393312497961
 20
158.7838282670095111
 10
112.3442200861040021
 20
158.753257022453397
 10
112.3911791458580041
 20
158.7236760625700072
 10
112.4375491566064937
 20
158.6950731875820111
 10
112.483262764444504
 20
158.6674361977123908
 10
112.5282526154666982
 20
158.6407528931839011
 10
112.5724513557679956
 20
158.6150110742192112
 10
112.6121546199952945
 20
158.5922576831376034
 10
112.650731996142099
 20
158.570436217768588
 10
112.6882458893909984
 20
158.5494948485365967
 10
112.7248270222787028
 20
158.5293516752618928
 10
112.7606061173417942
 20
158.5099247977645973
 10
112.7957138971168973
 20
158.4911323158650873
 10
112.8419095731492945
 20
158.4668147800331042
 10
112.8874496247137955
 20
158.4432915022318014
 10
112.9326480811137969
 20
158.4203657370713074
 10
112.9778189716523968
 20
158.3978407391620919
 10
113.0232762219714004
 20
158.3755198270503115
 10
113.0692516304724933
 20
158.3532569731808906
 10
113.1157474102050031
 20
158.3310477521424957
 10
113.1627259645972003
 20
158.3089122920397926
 10
113.2476990160186006
 20
158.2696313216270028
 10
113.3338775564471064
 20
158.2307643565875139
 10
113.4210475019054059
 20
158.1924260112213858
 10
113.5090072113358985
 20
158.1547228470743107
 10
113.5976763555806031
 20
158.1176829155920984
 10
113.6870430491817956
 20
158.0812899731288041
 10
113.7770961775000984
 20
158.0455272771833108
 10
113.8678246258966027
 20
158.0103780852541888
 10
113.9898271778370002
 20
157.9644378979407122
 10
114.1129841936351994
 20
157.919518934059397
 10
114.2372693274800071
 20
157.875581507681801
 10
114.3626562335599033
 20
157.8325859328793115
 10
114.4890395507459999
 20
157.7905293057600034
 10
114.6162741544780062
 20
157.7494291644366058
 10
114.7369442618952036
 20
157.7115439058042909
 10
114.8582295591163955
 20
157.6744901795628095
 10
114.9800613377726961
 20
157.6382588784074983
 10
115.1023708894954041
 20
157.6028408950336086
 10
115.2250895059156051
 20
157.5682271221363919
 10
115.390900335263197
 20
157.5228619881239922
 10
115.5571607132899032
 20
157.4789169566404041
 10
115.7237027664391036
 20
157.4363697760203138
 10
115.8903586211541068
 20
157.3951981945982084
 10
116.0569604038779943
 20
157.3553799607088877
 10
116.2233402410543022
 20
157.3168928226868104
 10
116.3893302591261971
 20
157.2797145288668048
 10
116.541003916527103
 20
157.2467645050832914
 10
116.6920884059566959
 20
157.2148750821272927
 10
116.8424534418784049
 20
157.1840289518005136
 10
116.9919679450848946
 20
157.1542090761132897
 10
117.1405008363691991
 20
157.1253984170758997
 10
117.2879210365240965
 20
157.0975799366989065
  0
LWPOLYLINE
  5
85
100
AcDbEntity
  8
Geometries
 62
256
370
13
 48
1.0
  6
Continuous
100
AcDbPolyline
 90
15
 70
128
 10
277.4936554298839155
 20
166.363678300045791
 10
277.1548273125221726
 20
166.3897783997865929
 10
276.8227623016223902
 20
166.4157999336864862
 10
276.736910493514813
 20
166.422602114366299
 10
276.651522594637072
 20
166.4293989058926115
 10
276.552064641057882
 20
166.437352014834488
 10
276.4531260356952771
 20
166.4452991865009892
 10
276.3564872476665073
 20
166.4530983199335026
 10
276.2621482769712884
 20
166.4607494151321134
 10
276.0994060382308248
 20
166.4740438777874942
 10
275.943997400682008
 20
166.4868662797478862
 10
275.7959223643246105
 20
166.499216621013403
 10
275.6551809291588029
 20
166.5110949015839026
 10
275.5217730951845851
 20
166.5225011214594133
 10
275.3956988624020141
 20
166.533435280639992
  0
LINE
  5
86
100
AcDbEntity
  8
Geometries
 62
256
370
13
 48
1.0
  6
Continuous
100
AcDbLine
 10
167.177957648942197
 20
174.9647486282640898
 30
0.0
 11
151.6488149427910912
 21
174.9647486282640898
 31
0.0
  0
LWPOLYLINE
  5
87
100
AcDbEntity
  8
Geometries
 62
256
370
13
 48
1.0
  6
Continuous
100
AcDbPolyline
 90
61
 70
128
 10
269.418947796683824
 20
167.2193632634416076
 10
269.2396904857491222
 20
167.2430764677723118
 10
269.0589039691391235
 20
167.2671160556593861
 10
268.8766398810016085
 20
167.2914729966555001
 10
268.6929498554841871
 20
167.3161382603134939
 10
268.5078855267346967
 20
167.3411028161862077
 10
268.3214985289006904
 20
167.3663576338265102
 10
268.1338404961301194
 20
167.391893682787213
 10
267.9260102400858727
 20
167.4202973809802018
 10
267.7167732341375199
 20
167.449018422704512
 10
267.506198203335714
 20
167.478044788434886
 10
267.2943538727308805
 20
167.5073644586460944
 10
267.0813089673739
 20
167.5369654138131068
 10
266.8422022380855196
 20
167.5703196053073896
 10
266.6017812006164718
 20
167.6039924884842094
 10
266.3601413962434208
 20
167.6379673538500867
 10
266.1173783662425762
 20
167.6722274919117126
 10
265.8735876518907162
 20
167.7067561931756075
 10
265.628864794464107
 20
167.7415367481482917
 10
265.3833053352390721
 20
167.7765524473363996
 10
265.1370048154922756
 20
167.8117865812465084
 10
264.8076164947552797
 20
167.8590763331993116
 10
264.4773070524597074
 20
167.9066851000926874
 10
264.1463029568163279
 20
167.9545732742382995
 10
263.8147855346080064
 20
168.0027055788758901
 10
263.482819270874927
 20
168.0510579940801961
 10
263.1506001827606838
 20
168.0995939345473005
 10
262.7590151256034119
 20
168.1569812424160091
 10
262.3677094716304055
 20
168.2145091781175097
 10
261.9770243564424277
 20
168.2721159102686954
 10
261.587300915639787
 20
168.3297396074860046
 10
261.304664501023808
 20
168.3716231009873923
 10
261.0228484017026744
 20
168.4134590786694901
 10
260.7419838433925179
 20
168.4552237556576131
 10
260.4622020518086174
 20
168.4968933470767922
 10
260.1836342526668204
 20
168.5384440680523994
 10
259.9064116716825765
 20
168.5798521337098066
 10
259.63066553457179
 20
168.6210937591741867
 10
259.4151291092115912
 20
168.6533656366034108
 10
259.2006488258746231
 20
168.6855085421184128
 10
258.9872883366841734
 20
168.7175109386676866
 10
258.7751112937643256
 20
168.7493612892004933
 10
258.5641813492387087
 20
168.7810480566656111
 10
258.3545621552311218
 20
168.8125597040117043
 10
258.1463173638650801
 20
168.8438846941878921
 10
257.9840596380781221
 20
168.8683050143482944
 10
257.8227319690985269
 20
168.8925962618899064
 10
257.6623674163200803
 20
168.9167529572239062
 10
257.5029983559234097
 20
168.9407697091371858
 10
257.3446571640890852
 20
168.9646411264166943
 10
257.1901753203276826
 20
168.9879395870451049
 10
257.0367468660439272
 20
169.0110875493049036
 10
256.8844024737679206
 20
169.03407990567149
 10
256.7331728160295938
 20
169.0569115486202065
 10
256.580037762910024
 20
169.0800381760242885
 10
256.4281279342467883
 20
169.1029867185650915
 10
256.2774759190656937
 20
169.1257517495874083
 10
256.1281143063920922
 20
169.1483278424356058
 10
255.9800756852517054
 20
169.1707095704543065
 10
255.8333926446698001
 20
169.1928915069879054
 10
255.6880977736720126
 20
169.2148682253809966
  0
LINE
  5
88
100
AcDbEntity
  8
Geometries
 62
256
370
13
 48
1.0
  6
Continuous
100
AcDbLine
 10
275.1296530015147823
 20
166.5571891675523943
 30
0.0
 11
275.1240772091164786
 21
166.5576975334560927
 31
0.0
  0
LINE
  5
89
100
AcDbEntity
  8
Geometries
 62
256
370
13
 48
1.0
  6
Continuous
100
AcDbLine
 10
269.780076816314704
 20
167.1719432055841139
 30
0.0
 11
269.4189477966838808
 21
167.2193632634416076
 31
0.0
  0
ENDSEC
  0
SECTION
  2
OBJECTS
  0
DICTIONARY
  5
C
100
AcDbDictionary
280
0
281
1
  3
ACAD_GROUP
350
D
  3
ACAD_LAYOUT
350
1A
  3
ACAD_MLINESTYLE
350
17
  3
ACAD_PLOTSETTINGS
350
19
  3
ACAD_PLOTSTYLENAME
350
E
  3
AcDbVariableDictionary
350
8A
  3
QCAD_OBJECTS
350
8B
  0
DICTIONARY
  5
D
100
AcDbDictionary
280
0
281
1
  0
ACDBDICTIONARYWDFLT
  5
E
100
AcDbDictionary
281
1
  3
Normal
350
F
100
AcDbDictionaryWithDefault
340
F
  0
ACDBPLACEHOLDER
  5
F
  0
DICTIONARY
  5
17
100
AcDbDictionary
280
0
281
1
  3
Standard
350
18
  0
MLINESTYLE
  5
18
100
AcDbMlineStyle
  2
STANDARD
 70
0
  3

 62
256
 51
90.0
 52
90.0
 71
2
 49
0.5
 62
256
  6
BYLAYER
 49
-0.5
 62
256
  6
BYLAYER
  0
DICTIONARY
  5
19
100
AcDbDictionary
280
0
281
1
  0
DICTIONARY
  5
1A
100
AcDbDictionary
281
1
  3
Layout1
350
1E
  3
Layout2
350
26
  3
Model
350
22
  0
LAYOUT
  5
1E
100
AcDbPlotSettings
  1

  2
none_device
  4

  6

 40
0.0
 41
0.0
 42
0.0
 43
0.0
 44
0.0
 45
0.0
 46
0.0
 47
0.0
 48
0.0
 49
0.0
140
0.0
141
0.0
142
1.0
143
1.0
 70
688
 72
0
 73
0
 74
5
  7

 75
16
147
1.0
148
0.0
149
0.0
100
AcDbLayout
  1
Layout1
 70
1
 71
1
 10
0.0
 20
0.0
 11
420.0
 21
297.0
 12
0.0
 22
0.0
 32
0.0
 14
100000000000000000000.0
 24
100000000000000000000.0
 34
100000000000000000000.0
 15
-100000000000000000000.0
 25
-100000000000000000000.0
 35
-100000000000000000000.0
146
0.0
 13
0.0
 23
0.0
 33
0.0
 16
1.0
 26
0.0
 36
0.0
 17
0.0
 27
1.0
 37
0.0
 76
0
330
1B
  0
LAYOUT
  5
22
100
AcDbPlotSettings
  1

  2
none_device
  4

  6

 40
0.0
 41
0.0
 42
0.0
 43
0.0
 44
0.0
 45
0.0
 46
0.0
 47
0.0
 48
0.0
 49
0.0
140
0.0
141
0.0
142
1.0
143
1.0
 70
1712
 72
0
 73
0
 74
0
  7

 75
0
147
1.0
148
0.0
149
0.0
100
AcDbLayout
  1
Model
 70
1
 71
0
 10
0.0
 20
0.0
 11
12.0
 21
9.0
 12
0.0
 22
0.0
 32
0.0
 14
0.0
 24
0.0
 34
0.0
 15
0.0
 25
0.0
 35
0.0
146
0.0
 13
0.0
 23
0.0
 33
0.0
 16
1.0
 26
0.0
 36
0.0
 17
0.0
 27
1.0
 37
0.0
 76
0
330
1F
  0
LAYOUT
  5
26
100
AcDbPlotSettings
  1

  2
none_device
  4

  6

 40
0.0
 41
0.0
 42
0.0
 43
0.0
 44
0.0
 45
0.0
 46
0.0
 47
0.0
 48
0.0
 49
0.0
140
0.0
141
0.0
142
1.0
143
1.0
 70
688
 72
0
 73
0
 74
5
  7

 75
16
147
1.0
148
0.0
149
0.0
100
AcDbLayout
  1
Layout2
 70
1
 71
2
 10
0.0
 20
0.0
 11
12.0
 21
9.0
 12
0.0
 22
0.0
 32
0.0
 14
0.0
 24
0.0
 34
0.0
 15
0.0
 25
0.0
 35
0.0
146
0.0
 13
0.0
 23
0.0
 33
0.0
 16
1.0
 26
0.0
 36
0.0
 17
0.0
 27
1.0
 37
0.0
 76
0
330
23
  0
DICTIONARY
  5
8A
100
AcDbDictionary
281
1
  3
DIMASSOC
350
8D
  3
HIDETEXT
350
8C
  0
DICTIONARYVAR
  5
8C
100
DictionaryVariables
280
0
  1
2
  0
DICTIONARYVAR
  5
8D
100
DictionaryVariables
280
0
  1
1
  0
DICTIONARY
  5
8B
100
AcDbDictionary
281
1
  3
ColorSettings/BackgroundColor
350
8E
  3
ColorSettings/ColorMode
350
8F
  3
Grid/DisplayGrid00
350
90
  3
Grid/DisplayGrid01
350
91
  3
Grid/DisplayGrid02
350
92
  3
Grid/DisplayGrid03
350
93
  3
Grid/GridSpacingX00
350
94
  3
Grid/GridSpacingX01
350
95
  3
Grid/GridSpacingX02
350
96
  3
Grid/GridSpacingX03
350
97
  3
Grid/GridSpacingY00
350
98
  3
Grid/GridSpacingY01
350
99
  3
Grid/GridSpacingY02
350
9A
  3
Grid/GridSpacingY03
350
9B
  3
Grid/IsometricGrid00
350
9C
  3
Grid/IsometricGrid01
350
9D
  3
Grid/IsometricGrid02
350
9E
  3
Grid/IsometricGrid03
350
9F
  3
Grid/IsometricProjection00
350
A0
  3
Grid/IsometricProjection01
350
A1
  3
Grid/IsometricProjection02
350
A2
  3
Grid/IsometricProjection03
350
A3
  3
Grid/MetaGridSpacingX00
350
A4
  3
Grid/MetaGridSpacingX01
350
A5
  3
Grid/MetaGridSpacingX02
350
A6
  3
Grid/MetaGridSpacingX03
350
A7
  3
Grid/MetaGridSpacingY00
350
A8
  3
Grid/MetaGridSpacingY01
350
A9
  3
Grid/MetaGridSpacingY02
350
AA
  3
Grid/MetaGridSpacingY03
350
AB
  3
MultiPageSettings/Columns
350
AC
  3
MultiPageSettings/GlueMarginsBottom
350
AD
  3
MultiPageSettings/GlueMarginsLeft
350
AE
  3
MultiPageSettings/GlueMarginsRight
350
AF
  3
MultiPageSettings/GlueMarginsTop
350
B0
  3
MultiPageSettings/PrintCropMarks
350
B1
  3
MultiPageSettings/Rows
350
B2
  3
PageSettings/OffsetX
350
B3
  3
PageSettings/OffsetY
350
B4
  3
PageSettings/PageOrientation
350
B5
  3
PageSettings/PaperHeight
350
B6
  3
PageSettings/PaperWidth
350
B7
  3
PageSettings/Scale
350
B8
  3
PageSettings/ShowPaperBorders
350
B9
  3
PageTagSettings/EnablePageTags
350
BA
  3
PageTagSettings/TagAlignment
350
BB
  3
PageTagSettings/TagFont
350
BC
  3
PageTagSettings/TagPosition
350
BD
  3
UnitSettings/PaperUnit
350
BE
  3
ViewportCenter
350
BF
  3
ViewportHeight
350
C0
  3
ViewportWidth
350
C1
  0
XRECORD
  5
8E
330
8B
100
AcDbXrecord
280
1
1000
White
  0
XRECORD
  5
8F
330
8B
100
AcDbXrecord
280
1
1000
FullColor
  0
XRECORD
  5
90
330
8B
100
AcDbXrecord
280
1
290
1
  0
XRECORD
  5
91
330
8B
100
AcDbXrecord
280
1
290
1
  0
XRECORD
  5
92
330
8B
100
AcDbXrecord
280
1
290
1
  0
XRECORD
  5
93
330
8B
100
AcDbXrecord
280
1
290
1
  0
XRECORD
  5
94
330
8B
100
AcDbXrecord
280
1
1000
auto
  0
XRECORD
  5
95
330
8B
100
AcDbXrecord
280
1
1000
auto
  0
XRECORD
  5
96
330
8B
100
AcDbXrecord
280
1
1000
auto
  0
XRECORD
  5
97
330
8B
100
AcDbXrecord
280
1
1000
auto
  0
XRECORD
  5
98
330
8B
100
AcDbXrecord
280
1
1000
auto
  0
XRECORD
  5
99
330
8B
100
AcDbXrecord
280
1
1000
auto
  0
XRECORD
  5
9A
330
8B
100
AcDbXrecord
280
1
1000
auto
  0
XRECORD
  5
9B
330
8B
100
AcDbXrecord
280
1
1000
auto
  0
XRECORD
  5
9C
330
8B
100
AcDbXrecord
280
1
290
0
  0
XRECORD
  5
9D
330
8B
100
AcDbXrecord
280
1
290
0
  0
XRECORD
  5
9E
330
8B
100
AcDbXrecord
280
1
290
0
  0
XRECORD
  5
9F
330
8B
100
AcDbXrecord
280
1
290
0
  0
XRECORD
  5
A0
330
8B
100
AcDbXrecord
280
1
 90
65537
  0
XRECORD
  5
A1
330
8B
100
AcDbXrecord
280
1
 90
65537
  0
XRECORD
  5
A2
330
8B
100
AcDbXrecord
280
1
 90
65537
  0
XRECORD
  5
A3
330
8B
100
AcDbXrecord
280
1
 90
65537
  0
XRECORD
  5
A4
330
8B
100
AcDbXrecord
280
1
1000
auto
  0
XRECORD
  5
A5
330
8B
100
AcDbXrecord
280
1
1000
auto
  0
XRECORD
  5
A6
330
8B
100
AcDbXrecord
280
1
1000
auto
  0
XRECORD
  5
A7
330
8B
100
AcDbXrecord
280
1
1000
auto
  0
XRECORD
  5
A8
330
8B
100
AcDbXrecord
280
1
1000
auto
  0
XRECORD
  5
A9
330
8B
100
AcDbXrecord
280
1
1000
auto
  0
XRECORD
  5
AA
330
8B
100
AcDbXrecord
280
1
1000
auto
  0
XRECORD
  5
AB
330
8B
100
AcDbXrecord
280
1
1000
auto
  0
XRECORD
  5
AC
330
8B
100
AcDbXrecord
280
1
 90
1
  0
XRECORD
  5
AD
330
8B
100
AcDbXrecord
280
1
 40
10.0
  0
XRECORD
  5
AE
330
8B
100
AcDbXrecord
280
1
 40
10.0
  0
XRECORD
  5
AF
330
8B
100
AcDbXrecord
280
1
 40
10.0
  0
XRECORD
  5
B0
330
8B
100
AcDbXrecord
280
1
 40
10.0
  0
XRECORD
  5
B1
330
8B
100
AcDbXrecord
280
1
290
0
  0
XRECORD
  5
B2
330
8B
100
AcDbXrecord
280
1
 90
1
  0
XRECORD
  5
B3
330
8B
100
AcDbXrecord
280
1
 40
0.0
  0
XRECORD
  5
B4
330
8B
100
AcDbXrecord
280
1
 40
0.0
  0
XRECORD
  5
B5
330
8B
100
AcDbXrecord
280
1
1000
Portrait
  0
XRECORD
  5
B6
330
8B
100
AcDbXrecord
280
1
 40
297.0
  0
XRECORD
  5
B7
330
8B
100
AcDbXrecord
280
1
 40
210.0
  0
XRECORD
  5
B8
330
8B
100
AcDbXrecord
280
1
1000
1:1
  0
XRECORD
  5
B9
330
8B
100
AcDbXrecord
280
1
290
1
  0
XRECORD
  5
BA
330
8B
100
AcDbXrecord
280
1
290
0
  0
XRECORD
  5
BB
330
8B
100
AcDbXrecord
280
1
1000
Inside
  0
XRECORD
  5
BC
330
8B
100
AcDbXrecord
280
1
1000
Arial,10,-1,5,50,0,0,0,0,0
  0
XRECORD
  5
BD
330
8B
100
AcDbXrecord
280
1
1000
TopLeft
  0
XRECORD
  5
BE
330
8B
100
AcDbXrecord
280
1
 90
4
  0
XRECORD
  5
C0
330
8B
100
AcDbXrecord
280
1
 40
101.0828016695601406
  0
XRECORD
  5
C1
330
8B
100
AcDbXrecord
280
1
 40
215.7112813726492107
  0
ENDSEC
  0
EOF
