999
dxflib 3.26.4.0
  0
SECTION
  2
HEADER
  9
$ACADVER
  1
AC1015
  9
$HANDSEED
  5
FFFF
  9
$ANGBASE
 50
0.0
  9
$ANGDIR
 70
0
  9
$ATTMODE
 70
1
  9
$AUNITS
 70
0
  9
$AUPREC
 70
0
  9
$CECOLOR
 62
256
  9
$CELTSCALE
 40
1.0
  9
$CHAMFERA
 40
0.0
  9
$CHAMFERB
 40
0.0
  9
$CHAMFERC
 40
0.0
  9
$CHAMFERD
 40
0.0
  9
$CMLJUST
 70
0
  9
$CMLSCALE
 40
20.0
  9
$DIMADEC
 70
2
  9
$DIMALT
 70
0
  9
$DIMALTD
 70
3
  9
$DIMALTF
 40
0.0393700787401575
  9
$DIMALTRND
 40
0.0
  9
$DIMALTTD
 70
3
  9
$DIMALTTZ
 70
0
  9
$DIMALTU
 70
2
  9
$DIMALTZ
 70
0
  9
$DIMAPOST
  1

  9
$DIMASZ
 40
2.5
  9
$DIMATFIT
 70
3
  9
$DIMAUNIT
 70
0
  9
$DIMAZIN
 70
0
  9
$DIMBLK
  1
0
  9
$DIMBLK1
  1
0
  9
$DIMBLK2
  1
0
  9
$DIMCEN
 40
2.5
  9
$DIMCLRD
 70
0
  9
$DIMCLRE
 70
0
  9
$DIMDEC
 70
2
  9
$DIMDLE
 40
0.0
  9
$DIMDLI
 40
3.75
  9
$DIMDSEP
 70
44
  9
$DIMEXE
 40
1.25
  9
$DIMEXO
 40
0.625
  9
$DIMFRAC
 70
2
  9
$DIMGAP
 40
0.7
  9
$DIMJUST
 70
0
  9
$DIMLDRBLK
  1

  9
$DIMLFAC
 40
1.0
  9
$DIMLIM
 70
0
  9
$DIMLUNIT
 70
2
  9
$DIMLWD
 70
15
  9
$DIMLWE
 70
15
  9
$DIMPOST
  1

  9
$DIMRND
 40
0.01
  9
$DIMSAH
 70
0
  9
$DIMSCALE
 40
1.0
  9
$DIMSD1
 70
0
  9
$DIMSD2
 70
0
  9
$DIMSE1
 70
0
  9
$DIMSE2
 70
0
  9
$DIMSOXD
 70
0
  9
$DIMTAD
 70
1
  9
$DIMTDEC
 70
2
  9
$DIMTFAC
 40
1.0
  9
$DIMTIH
 70
0
  9
$DIMTIX
 70
0
  9
$DIMTM
 40
0.0
  9
$DIMTOFL
 70
1
  9
$DIMTOH
 70
0
  9
$DIMTOL
 70
0
  9
$DIMTOLJ
 70
0
  9
$DIMTP
 40
0.0
  9
$DIMTSZ
 40
0.0
  9
$DIMTVP
 40
0.0
  9
$DIMTXSTY
  7
Standard
  9
$DIMTXT
 40
2.5
  9
$DIMTZIN
 70
8
  9
$DIMUPT
 70
0
  9
$DIMZIN
 70
8
  9
$DISPSILH
 70
0
  9
$DWGCODEPAGE
  3
ANSI_1252
  9
$ELEVATION
 40
0.0
  9
$EXTMAX
 10
-100000000000000000000.0
 20
-100000000000000000000.0
 30
-100000000000000000000.0
  9
$EXTMIN
 10
100000000000000000000.0
 20
100000000000000000000.0
 30
100000000000000000000.0
  9
$FILLETRAD
 40
0.0
  9
$FILLMODE
 70
1
  9
$INSBASE
 10
0.0
 20
0.0
 30
0.0
  9
$INSUNITS
 70
4
  9
$LIMCHECK
 70
0
  9
$LIMMAX
 10
420.0
 20
297.0
  9
$LIMMIN
 10
0.0
 20
0.0
  9
$LTSCALE
 40
1.0
  9
$LUNITS
 70
2
  9
$LUPREC
 70
4
  9
$MAXACTVP
 70
64
  9
$MEASUREMENT
 70
1
  9
$MIRRTEXT
 70
1
  9
$ORTHOMODE
 70
0
  9
$PDMODE
 70
0
  9
$PDSIZE
 40
0.0
  9
$PELEVATION
 40
0.0
  9
$PEXTMAX
 10
0.0
 20
0.0
 30
0.0
  9
$PEXTMIN
 10
0.0
 20
0.0
 30
0.0
  9
$PINSBASE
 10
0.0
 20
0.0
 30
0.0
  9
$PLIMCHECK
 70
0
  9
$PLIMMAX
 10
277.0
 20
202.5
  9
$PLIMMIN
 10
-20.0
 20
-7.5
  9
$PLINEGEN
 70
0
  9
$PLINEWID
 40
0.0
  9
$PROXYGRAPHICS
 70
1
  9
$PSLTSCALE
 70
1
  9
$PUCSNAME
  2

  9
$PUCSORG
 10
0.0
 20
0.0
 30
0.0
  9
$PUCSXDIR
 10
1.0
 20
0.0
 30
0.0
  9
$PUCSYDIR
 10
0.0
 20
1.0
 30
0.0
  9
$QTEXTMODE
 70
0
  9
$REGENMODE
 70
1
  9
$SHADEDGE
 70
3
  9
$SHADEDIF
 70
70
  9
$SKETCHINC
 40
1.0
  9
$SKPOLY
 70
0
  9
$SPLFRAME
 70
0
  9
$SPLINESEGS
 70
8
  9
$SPLINETYPE
 70
6
  9
$SURFTAB1
 70
6
  9
$SURFTAB2
 70
6
  9
$SURFTYPE
 70
6
  9
$SURFU
 70
6
  9
$SURFV
 70
6
  9
$TEXTSIZE
 40
2.5
  9
$TEXTSTYLE
  7
Standard
  9
$THICKNESS
 40
0.0
  9
$TILEMODE
 70
0
  9
$TRACEWID
 40
1.0
  9
$TREEDEPTH
 70
3020
  9
$UCSNAME
  2

  9
$UCSORG
 10
0.0
 20
0.0
 30
0.0
  9
$UCSXDIR
 10
1.0
 20
0.0
 30
0.0
  9
$UCSYDIR
 10
0.0
 20
1.0
 30
0.0
  9
$UNITMODE
 70
0
  9
$USERI1
 70
0
  9
$USERI2
 70
0
  9
$USERI3
 70
0
  9
$USERI4
 70
0
  9
$USERI5
 70
0
  9
$USERR1
 40
0.0
  9
$USERR2
 40
0.0
  9
$USERR3
 40
0.0
  9
$USERR4
 40
0.0
  9
$USERR5
 40
0.0
  9
$USRTIMER
 70
1
  9
$VISRETAIN
 70
1
  0
ENDSEC
  0
SECTION
  2
TABLES
  0
TABLE
  2
VPORT
  5
8
100
AcDbSymbolTable
 70
1
  0
VPORT
  5
30
100
AcDbSymbolTableRecord
100
AcDbViewportTableRecord
  2
*Active
 70
0
 10
0.0
 20
0.0
 11
1.0
 21
1.0
 12
286.3055555555554861
 22
148.5
 13
0.0
 23
0.0
 14
10.0
 24
10.0
 15
10.0
 25
10.0
 16
0.0
 26
0.0
 36
1.0
 17
0.0
 27
0.0
 37
0.0
 40
297.0
 41
1.92798353909465
 42
50.0
 43
0.0
 44
0.0
 50
0.0
 51
0.0
 71
0
 72
100
 73
1
 74
3
 75
1
 76
1
 77
0
 78
0
281
0
 65
1
110
0.0
120
0.0
130
0.0
111
1.0
121
0.0
131
0.0
112
0.0
122
1.0
132
0.0
 79
0
146
0.0
  0
ENDTAB
  0
TABLE
  2
LTYPE
  5
5
100
AcDbSymbolTable
 70
46
  0
LTYPE
  5
16
100
AcDbSymbolTableRecord
100
AcDbLinetypeTableRecord
  2
Continuous
 70
0
  3
Solid line
 72
65
 73
0
 40
0.0
  0
LTYPE
  5
31
100
AcDbSymbolTableRecord
100
AcDbLinetypeTableRecord
  2
ACAD_ISO08W100
 70
0
  3
ISO long-dash short-dash ____ __ ____ __ ____ _
 72
65
 73
4
 40
36.0
 49
24.0
 74
0
 49
-3.0
 74
0
 49
6.0
 74
0
 49
-3.0
 74
0
  0
LTYPE
  5
32
100
AcDbSymbolTableRecord
100
AcDbLinetypeTableRecord
  2
ACAD_ISO04W100
 70
0
  3
ISO long-dash dot ____ . ____ . ____ . ____ . _
 72
65
 73
4
 40
30.0
 49
24.0
 74
0
 49
-3.0
 74
0
 49
0.0
 74
0
 49
-3.0
 74
0
  0
LTYPE
  5
33
100
AcDbSymbolTableRecord
100
AcDbLinetypeTableRecord
  2
DASHDOTX2
 70
0
  3
Dash dot (2x) ____  .  ____  .  ____  .  ___
 72
65
 73
4
 40
50.7999999999999972
 49
25.3999999999999986
 74
0
 49
-12.6999999999999993
 74
0
 49
0.0
 74
0
 49
-12.6999999999999993
 74
0
  0
LTYPE
  5
34
100
AcDbSymbolTableRecord
100
AcDbLinetypeTableRecord
  2
ACAD_ISO12W100
 70
0
  3
ISO dash double-dot __ . . __ . . __ . . __ . . 
 72
65
 73
6
 40
21.0
 49
12.0
 74
0
 49
-3.0
 74
0
 49
0.0
 74
0
 49
-3.0
 74
0
 49
0.0
 74
0
 49
-3.0
 74
0
  0
LTYPE
  5
35
100
AcDbSymbolTableRecord
100
AcDbLinetypeTableRecord
  2
CENTERX2
 70
0
  3
Center (2x) ________  __  ________  __  _____
 72
65
 73
4
 40
101.6000000000000085
 49
63.5
 74
0
 49
-12.6999999999999993
 74
0
 49
12.6999999999999993
 74
0
 49
-12.6999999999999993
 74
0
  0
LTYPE
  5
36
100
AcDbSymbolTableRecord
100
AcDbLinetypeTableRecord
  2
DOT
 70
0
  3
Dot . . . . . . . . . . . . . . . . . . . . . . . .
 72
65
 73
2
 40
6.3499999999999996
 49
0.0
 74
0
 49
-6.3499999999999996
 74
0
  0
LTYPE
  5
37
100
AcDbSymbolTableRecord
100
AcDbLinetypeTableRecord
  2
BORDER
 70
0
  3
Border __ __ . __ __ . __ __ . __ __ . __ __ .
 72
65
 73
6
 40
44.4499999999999957
 49
12.6999999999999993
 74
0
 49
-6.3499999999999996
 74
0
 49
12.6999999999999993
 74
0
 49
-6.3499999999999996
 74
0
 49
0.0
 74
0
 49
-6.3499999999999996
 74
0
  0
LTYPE
  5
38
100
AcDbSymbolTableRecord
100
AcDbLinetypeTableRecord
  2
PHANTOMX2
 70
0
  3
Phantom (2x) ____________    ____    ____   _
 72
65
 73
6
 40
127.0000000000000142
 49
63.5
 74
0
 49
-12.6999999999999993
 74
0
 49
12.6999999999999993
 74
0
 49
-12.6999999999999993
 74
0
 49
12.6999999999999993
 74
0
 49
-12.6999999999999993
 74
0
  0
LTYPE
  5
14
100
AcDbSymbolTableRecord
100
AcDbLinetypeTableRecord
  2
ByBlock
 70
0
  3

 72
65
 73
0
 40
0.0
  0
LTYPE
  5
39
100
AcDbSymbolTableRecord
100
AcDbLinetypeTableRecord
  2
DASHDOT
 70
0
  3
Dash dot __ . __ . __ . __ . __ . __ . __ . __
 72
65
 73
4
 40
25.3999999999999986
 49
12.6999999999999993
 74
0
 49
-6.3499999999999996
 74
0
 49
0.0
 74
0
 49
-6.3499999999999996
 74
0
  0
LTYPE
  5
3A
100
AcDbSymbolTableRecord
100
AcDbLinetypeTableRecord
  2
ACAD_ISO11W100
 70
0
  3
ISO double-dash dot __ __ . __ __ . __ __ . __ _
 72
65
 73
6
 40
33.0
 49
12.0
 74
0
 49
-3.0
 74
0
 49
12.0
 74
0
 49
-3.0
 74
0
 49
0.0
 74
0
 49
-3.0
 74
0
  0
LTYPE
  5
3B
100
AcDbSymbolTableRecord
100
AcDbLinetypeTableRecord
  2
DOT2
 70
0
  3
Dot (.5x) ........................................
 72
65
 73
2
 40
3.1749999999999998
 49
0.0
 74
0
 49
-3.1749999999999998
 74
0
  0
LTYPE
  5
3C
100
AcDbSymbolTableRecord
100
AcDbLinetypeTableRecord
  2
ACAD_ISO15W100
 70
0
  3
ISO double-dash triple-dot __ __ . . . __ __ . .
 72
65
 73
10
 40
39.0
 49
12.0
 74
0
 49
-3.0
 74
0
 49
12.0
 74
0
 49
-3.0
 74
0
 49
0.0
 74
0
 49
-3.0
 74
0
 49
0.0
 74
0
 49
-3.0
 74
0
 49
0.0
 74
0
 49
-3.0
 74
0
  0
LTYPE
  5
3D
100
AcDbSymbolTableRecord
100
AcDbLinetypeTableRecord
  2
DASHDOT2
 70
0
  3
Dash dot (.5x) _._._._._._._._._._._._._._._.
 72
65
 73
4
 40
12.6999999999999993
 49
6.3499999999999996
 74
0
 49
-3.1749999999999998
 74
0
 49
0.0
 74
0
 49
-3.1749999999999998
 74
0
  0
LTYPE
  5
3E
100
AcDbSymbolTableRecord
100
AcDbLinetypeTableRecord
  2
ACAD_ISO10W100
 70
0
  3
ISO dash dot __ . __ . __ . __ . __ . __ . __ . 
 72
65
 73
4
 40
18.0
 49
12.0
 74
0
 49
-3.0
 74
0
 49
0.0
 74
0
 49
-3.0
 74
0
  0
LTYPE
  5
3F
100
AcDbSymbolTableRecord
100
AcDbLinetypeTableRecord
  2
ACAD_ISO03W100
 70
0
  3
ISO dash space __    __    __    __    __    __
 72
65
 73
2
 40
30.0
 49
12.0
 74
0
 49
-18.0
 74
0
  0
LTYPE
  5
40
100
AcDbSymbolTableRecord
100
AcDbLinetypeTableRecord
  2
HIDDENX2
 70
0
  3
Hidden (2x) ____ ____ ____ ____ ____ ____ ____ 
 72
65
 73
2
 40
19.0499999999999972
 49
12.6999999999999993
 74
0
 49
-6.3499999999999996
 74
0
  0
LTYPE
  5
41
100
AcDbSymbolTableRecord
100
AcDbLinetypeTableRecord
  2
BORDER2
 70
0
  3
Border (.5x) __.__.__.__.__.__.__.__.__.__.__.
 72
65
 73
6
 40
22.2249999999999979
 49
6.3499999999999996
 74
0
 49
-3.1749999999999998
 74
0
 49
6.3499999999999996
 74
0
 49
-3.1749999999999998
 74
0
 49
0.0
 74
0
 49
-3.1749999999999998
 74
0
  0
LTYPE
  5
42
100
AcDbSymbolTableRecord
100
AcDbLinetypeTableRecord
  2
HIDDEN2
 70
0
  3
Hidden (.5x) _ _ _ _ _ _ _ _ _ _ _ _ _ _ _ _ _ 
 72
65
 73
2
 40
4.7624999999999993
 49
3.1749999999999998
 74
0
 49
-1.5874999999999999
 74
0
  0
LTYPE
  5
43
100
AcDbSymbolTableRecord
100
AcDbLinetypeTableRecord
  2
ACAD_ISO13W100
 70
0
  3
ISO double-dash double-dot __ __ . . __ __ . . _
 72
65
 73
8
 40
36.0
 49
12.0
 74
0
 49
-3.0
 74
0
 49
12.0
 74
0
 49
-3.0
 74
0
 49
0.0
 74
0
 49
-3.0
 74
0
 49
0.0
 74
0
 49
-3.0
 74
0
  0
LTYPE
  5
44
100
AcDbSymbolTableRecord
100
AcDbLinetypeTableRecord
  2
ACAD_ISO02W100
 70
0
  3
ISO dash __ __ __ __ __ __ __ __ __ __ __ __ __
 72
65
 73
2
 40
15.0
 49
12.0
 74
0
 49
-3.0
 74
0
  0
LTYPE
  5
45
100
AcDbSymbolTableRecord
100
AcDbLinetypeTableRecord
  2
CENTER2
 70
0
  3
Center (.5x) ___ _ ___ _ ___ _ ___ _ ___ _ ___
 72
65
 73
4
 40
28.5750000000000028
 49
19.0500000000000007
 74
0
 49
-3.1749999999999998
 74
0
 49
3.1749999999999998
 74
0
 49
-3.1749999999999998
 74
0
  0
LTYPE
  5
46
100
AcDbSymbolTableRecord
100
AcDbLinetypeTableRecord
  2
SectionLineANSI
 70
0
  3

 72
65
 73
7
 40
11.9944444444445182
 49
4.23333333333336
 74
0
 49
-1.05833333333334
 74
0
 49
0.17638888888889
 74
0
 49
-1.05833333333334
 74
0
 49
0.17638888888889
 74
0
 49
-1.05833333333334
 74
0
 49
4.23333333333336
 74
0
  0
LTYPE
  5
47
100
AcDbSymbolTableRecord
100
AcDbLinetypeTableRecord
  2
DASHED
 70
0
  3
Dashed __ __ __ __ __ __ __ __ __ __ __ __ __ _
 72
65
 73
2
 40
19.0499999999999972
 49
12.6999999999999993
 74
0
 49
-6.3499999999999996
 74
0
  0
LTYPE
  5
48
100
AcDbSymbolTableRecord
100
AcDbLinetypeTableRecord
  2
PHANTOM2
 70
0
  3
Phantom (.5x) ___ _ _ ___ _ _ ___ _ _ ___ _ _
 72
65
 73
6
 40
31.7500000000000036
 49
15.875
 74
0
 49
-3.1749999999999998
 74
0
 49
3.1749999999999998
 74
0
 49
-3.1749999999999998
 74
0
 49
3.1749999999999998
 74
0
 49
-3.1749999999999998
 74
0
  0
LTYPE
  5
15
100
AcDbSymbolTableRecord
100
AcDbLinetypeTableRecord
  2
ByLayer
 70
0
  3

 72
65
 73
0
 40
0.0
  0
LTYPE
  5
49
100
AcDbSymbolTableRecord
100
AcDbLinetypeTableRecord
  2
HIDDEN
 70
0
  3
Hidden __ __ __ __ __ __ __ __ __ __ __ __ __ __
 72
65
 73
2
 40
9.5249999999999986
 49
6.3499999999999996
 74
0
 49
-3.1749999999999998
 74
0
  0
LTYPE
  5
4A
100
AcDbSymbolTableRecord
100
AcDbLinetypeTableRecord
  2
ACAD_ISO06W100
 70
0
  3
ISO long-dash triple-dot ____ ... ____ ... ____
 72
65
 73
8
 40
36.0
 49
24.0
 74
0
 49
-3.0
 74
0
 49
0.0
 74
0
 49
-3.0
 74
0
 49
0.0
 74
0
 49
-3.0
 74
0
 49
0.0
 74
0
 49
-3.0
 74
0
  0
LTYPE
  5
4B
100
AcDbSymbolTableRecord
100
AcDbLinetypeTableRecord
  2
BORDERX2
 70
0
  3
Border (2x) ____  ____  .  ____  ____  .  ___
 72
65
 73
6
 40
88.8999999999999915
 49
25.3999999999999986
 74
0
 49
-12.6999999999999993
 74
0
 49
25.3999999999999986
 74
0
 49
-12.6999999999999993
 74
0
 49
0.0
 74
0
 49
-12.6999999999999993
 74
0
  0
LTYPE
  5
4C
100
AcDbSymbolTableRecord
100
AcDbLinetypeTableRecord
  2
ACAD_ISO09W100
 70
0
  3
ISO long-dash double-short-dash ____ __ __ ____
 72
65
 73
6
 40
45.0
 49
24.0
 74
0
 49
-3.0
 74
0
 49
6.0
 74
0
 49
-3.0
 74
0
 49
6.0
 74
0
 49
-3.0
 74
0
  0
LTYPE
  5
4D
100
AcDbSymbolTableRecord
100
AcDbLinetypeTableRecord
  2
DOTX2
 70
0
  3
Dot (2x) .  .  .  .  .  .  .  .  .  .  .  .  .  .
 72
65
 73
2
 40
12.6999999999999993
 49
0.0
 74
0
 49
-12.6999999999999993
 74
0
  0
LTYPE
  5
4E
100
AcDbSymbolTableRecord
100
AcDbLinetypeTableRecord
  2
DraftedLine
 70
0
  3

 72
65
 73
2
 40
3.0
 49
2.0
 74
0
 49
-1.0
 74
0
  0
LTYPE
  5
4F
100
AcDbSymbolTableRecord
100
AcDbLinetypeTableRecord
  2
ACAD_ISO07W100
 70
0
  3
ISO dot . . . . . . . . . . . . . . . . . . . . 
 72
65
 73
2
 40
3.0
 49
0.0
 74
0
 49
-3.0
 74
0
  0
LTYPE
  5
50
100
AcDbSymbolTableRecord
100
AcDbLinetypeTableRecord
  2
ACAD_ISO05W100
 70
0
  3
ISO long-dash double-dot ____ .. ____ .. ____ . 
 72
65
 73
6
 40
33.0
 49
24.0
 74
0
 49
-3.0
 74
0
 49
0.0
 74
0
 49
-3.0
 74
0
 49
0.0
 74
0
 49
-3.0
 74
0
  0
LTYPE
  5
51
100
AcDbSymbolTableRecord
100
AcDbLinetypeTableRecord
  2
DASHEDX2
 70
0
  3
Dashed (2x) ____  ____  ____  ____  ____  ___
 72
65
 73
2
 40
38.0999999999999943
 49
25.3999999999999986
 74
0
 49
-12.6999999999999993
 74
0
  0
LTYPE
  5
52
100
AcDbSymbolTableRecord
100
AcDbLinetypeTableRecord
  2
DIVIDE
 70
0
  3
Divide ____ . . ____ . . ____ . . ____ . . ____
 72
65
 73
6
 40
31.75
 49
12.6999999999999993
 74
0
 49
-6.3499999999999996
 74
0
 49
0.0
 74
0
 49
-6.3499999999999996
 74
0
 49
0.0
 74
0
 49
-6.3499999999999996
 74
0
  0
LTYPE
  5
53
100
AcDbSymbolTableRecord
100
AcDbLinetypeTableRecord
  2
ACAD_ISO14W100
 70
0
  3
ISO dash triple-dot __ . . . __ . . . __ . . . _
 72
65
 73
8
 40
24.0
 49
12.0
 74
0
 49
-3.0
 74
0
 49
0.0
 74
0
 49
-3.0
 74
0
 49
0.0
 74
0
 49
-3.0
 74
0
 49
0.0
 74
0
 49
-3.0
 74
0
  0
LTYPE
  5
54
100
AcDbSymbolTableRecord
100
AcDbLinetypeTableRecord
  2
DIVIDEX2
 70
0
  3
Divide (2x) ________  .  .  ________  .  .  _
 72
65
 73
6
 40
63.5
 49
25.3999999999999986
 74
0
 49
-12.6999999999999993
 74
0
 49
0.0
 74
0
 49
-12.6999999999999993
 74
0
 49
0.0
 74
0
 49
-12.6999999999999993
 74
0
  0
LTYPE
  5
55
100
AcDbSymbolTableRecord
100
AcDbLinetypeTableRecord
  2
CENTER
 70
0
  3
Center ____ _ ____ _ ____ _ ____ _ ____ _ ____
 72
65
 73
4
 40
50.8000000000000043
 49
31.75
 74
0
 49
-6.3499999999999996
 74
0
 49
6.3499999999999996
 74
0
 49
-6.3499999999999996
 74
0
  0
LTYPE
  5
56
100
AcDbSymbolTableRecord
100
AcDbLinetypeTableRecord
  2
DIVIDE2
 70
0
  3
Divide (.5x) __..__..__..__..__..__..__..__.._
 72
65
 73
6
 40
15.875
 49
6.3499999999999996
 74
0
 49
-3.1749999999999998
 74
0
 49
0.0
 74
0
 49
-3.1749999999999998
 74
0
 49
0.0
 74
0
 49
-3.1749999999999998
 74
0
  0
LTYPE
  5
57
100
AcDbSymbolTableRecord
100
AcDbLinetypeTableRecord
  2
SectionLineISO
 70
0
  3

 72
65
 73
5
 40
13.7583333333334217
 49
4.23333333333336
 74
0
 49
-2.11666666666668
 74
0
 49
1.05833333333334
 74
0
 49
-2.11666666666668
 74
0
 49
4.23333333333336
 74
0
  0
LTYPE
  5
58
100
AcDbSymbolTableRecord
100
AcDbLinetypeTableRecord
  2
CenterLine
 70
0
  3

 72
65
 73
4
 40
8.0
 49
5.0
 74
0
 49
-1.0
 74
0
 49
1.0
 74
0
 49
-1.0
 74
0
  0
LTYPE
  5
59
100
AcDbSymbolTableRecord
100
AcDbLinetypeTableRecord
  2
DASHED2
 70
0
  3
Dashed (.5x) _ _ _ _ _ _ _ _ _ _ _ _ _ _ _ _ _ 
 72
65
 73
2
 40
9.5249999999999986
 49
6.3499999999999996
 74
0
 49
-3.1749999999999998
 74
0
  0
LTYPE
  5
5A
100
AcDbSymbolTableRecord
100
AcDbLinetypeTableRecord
  2
DetailCircleISO
 70
0
  3

 72
65
 73
5
 40
13.7583333333334217
 49
4.23333333333336
 74
0
 49
-2.11666666666668
 74
0
 49
1.05833333333334
 74
0
 49
-2.11666666666668
 74
0
 49
4.23333333333336
 74
0
  0
LTYPE
  5
5B
100
AcDbSymbolTableRecord
100
AcDbLinetypeTableRecord
  2
PHANTOM
 70
0
  3
Phantom ______  __  __  ______  __  __  ______ 
 72
65
 73
6
 40
63.5000000000000071
 49
31.75
 74
0
 49
-6.3499999999999996
 74
0
 49
6.3499999999999996
 74
0
 49
-6.3499999999999996
 74
0
 49
6.3499999999999996
 74
0
 49
-6.3499999999999996
 74
0
  0
ENDTAB
  0
TABLE
  2
LAYER
  5
2
100
AcDbSymbolTable
 70
4
  0
LAYER
  5
5C
100
AcDbSymbolTableRecord
100
AcDbLayerTableRecord
  2
Geometries
 70
0
 62
7
420
16777215
  6
Continuous
370
-3
390
F
  0
LAYER
  5
5D
100
AcDbSymbolTableRecord
100
AcDbLayerTableRecord
  2
Annotations
 70
0
 62
7
420
16777215
  6
Continuous
370
-3
390
F
  0
LAYER
  5
10
100
AcDbSymbolTableRecord
100
AcDbLayerTableRecord
  2
0
 70
0
 62
7
420
16777215
  6
Continuous
370
-3
390
F
  0
LAYER
  5
5E
100
AcDbSymbolTableRecord
100
AcDbLayerTableRecord
  2
Border
 70
0
 62
7
420
16777215
  6
Continuous
370
-3
390
F
  0
ENDTAB
  0
TABLE
  2
STYLE
  5
3
100
AcDbSymbolTable
 70
1
  0
STYLE
  5
5F
100
AcDbSymbolTableRecord
100
AcDbTextStyleTableRecord
  2
Standard
 70
0
 40
0.0
 41
1.0
 50
0.0
 71
0
 42
2.5
  3

  4

1001
ACAD
1000
txt
1071
0
  0
ENDTAB
  0
TABLE
  2
VIEW
  5
6
100
AcDbSymbolTable
 70
0
  0
ENDTAB
  0
TABLE
  2
UCS
  5
7
100
AcDbSymbolTable
 70
0
  0
ENDTAB
  0
TABLE
  2
APPID
  5
9
100
AcDbSymbolTable
 70
1
  0
APPID
  5
12
100
AcDbSymbolTableRecord
100
AcDbRegAppTableRecord
  2
ACAD
 70
0
  0
APPID
  5
60
100
AcDbSymbolTableRecord
100
AcDbRegAppTableRecord
  2
QCAD
 70
0
  0
ENDTAB
  0
TABLE
  2
DIMSTYLE
  5
A
100
AcDbSymbolTable
 70
1
100
AcDbDimStyleTable
 71
0
  0
DIMSTYLE
105
27
100
AcDbSymbolTableRecord
100
AcDbDimStyleTableRecord
  2
Standard
 41
2.5
 42
0.625
 43
3.75
 44
1.25
 70
0
 73
0
 74
0
 77
1
 78
8
140
2.5
141
2.5
143
0.03937007874016
147
0.7
171
3
172
1
271
2
272
2
274
3
278
44
283
0
284
8
340
5F
  0
ENDTAB
  0
TABLE
  2
BLOCK_RECORD
  5
1
100
AcDbSymbolTable
 70
1
  0
BLOCK_RECORD
  5
1F
100
AcDbSymbolTableRecord
100
AcDbBlockTableRecord
  2
*Model_Space
340
22
  0
BLOCK_RECORD
  5
1B
100
AcDbSymbolTableRecord
100
AcDbBlockTableRecord
  2
*Paper_Space
340
1E
  0
BLOCK_RECORD
  5
23
100
AcDbSymbolTableRecord
100
AcDbBlockTableRecord
  2
*Paper_Space0
340
26
  0
ENDTAB
  0
ENDSEC
  0
SECTION
  2
BLOCKS
  0
BLOCK
  5
20
100
AcDbEntity
  8
0
100
AcDbBlockBegin
  2
*Model_Space
 70
0
 10
0.0
 20
0.0
 30
0.0
  3
*Model_Space
  1

  0
ENDBLK
  5
21
100
AcDbEntity
  8
0
100
AcDbBlockEnd
  0
BLOCK
  5
1C
100
AcDbEntity
 67
1
  8
0
100
AcDbBlockBegin
  2
*Paper_Space
 70
0
 10
0.0
 20
0.0
 30
0.0
  3
*Paper_Space
  1

  0
ENDBLK
  5
1D
100
AcDbEntity
 67
1
  8
0
100
AcDbBlockEnd
  0
BLOCK
  5
24
100
AcDbEntity
  8
0
100
AcDbBlockBegin
  2
*Paper_Space0
 70
0
 10
0.0
 20
0.0
 30
0.0
  3
*Paper_Space0
  1

  0
ENDBLK
  5
25
100
AcDbEntity
  8
0
100
AcDbBlockEnd
  0
ENDSEC
  0
SECTION
  2
ENTITIES
  0
LINE
  5
61
100
AcDbEntity
  8
Geometries
 62
256
370
0
 48
1.0
  6
Continuous
100
AcDbLine
 10
233.28916528930651
 20
158.1713476935676113
 30
0.0
 11
239.8401165223166913
 21
158.1713476948227139
 31
0.0
  0
LWPOLYLINE
  5
62
100
AcDbEntity
  8
Geometries
 62
256
370
0
 48
1.0
  6
Continuous
100
AcDbPolyline
 90
73
 70
128
 10
231.6264407359608981
 20
150.1854310108275001
 10
229.5604479327267882
 20
150.1447438664903018
 10
227.4944012830659119
 20
150.1063987221212983
 10
225.4283045662824065
 20
150.0703721649994122
 10
223.3621615618095007
 20
150.0366407824008945
 10
221.2959760496599984
 20
150.0051811615902864
 10
219.2297518100041884
 20
149.9759698898288889
 10
217.1634926230123881
 20
149.9489835543782874
 10
215.1676880380609873
 20
149.9250081864456092
 10
214.2895256867610101
 20
149.9151042603731128
 10
214.0875712324217943
 20
149.9128820951623879
 10
214.0025647559540971
 20
149.9119529956224142
 10
213.8507673521613128
 20
149.9103032317582063
 10
212.4506215788487111
 20
149.8956492819401092
 10
211.2004805245852879
 20
149.883419389913314
 10
209.9503296561724142
 20
149.8719892648306029
 10
207.9208442211539136
 20
149.8551223073465906
 10
205.8913360362568028
 20
149.8403238915356894
 10
203.8618070283721124
 20
149.8275698060911907
 10
201.8322591243905038
 20
149.8168358397061866
 10
199.8026942512030075
 20
149.8080977810741103
 10
197.5375372092221085
 20
149.8006726421386929
 10
195.2723641090574915
 20
149.7956698202702057
 10
193.0071776294645929
 20
149.7930556570117062
 10
190.7419804491991044
 20
149.7927964939065077
 10
188.4767752470164055
 20
149.7948586724976963
 10
186.2115647016728985
 20
149.7992085343281872
 10
183.9463514919235081
 20
149.8058124209414075
 10
181.6811382965238124
 20
149.814636673880301
 10
179.0923266699435032
 20
149.8273971732616872
 10
176.5035225594980091
 20
149.8429635385188021
 10
173.9147299637967024
 20
149.8612855272901925
 10
171.3259528814481882
 20
149.882312897214689
 10
168.7371952629985969
 20
149.9059956920947911
 10
166.1484567259288099
 20
149.9323115095812966
 10
163.5597372147684041
 20
149.9612415532824912
 10
161.1867630039567985
 20
149.9900302001231012
 10
158.8138084774874983
 20
150.0209644485908882
 10
156.4408754036327878
 20
150.054019871719106
 10
154.0679655506629899
 20
150.0891720425406106
 10
151.69508068684911
 20
150.1263965340885136
 10
149.3222225804620109
 20
150.1656689193962109
 10
146.7336826953201978
 20
150.2108184328579057
 10
144.145179022147488
 20
150.25836780007171
 10
141.5567142362727111
 20
150.3083603195379965
 10
138.9682913215754922
 20
150.3608345174150998
 10
136.3799132629484063
 20
150.4158288127071899
 10
133.791583045283403
 20
150.4733816244188063
 10
131.2033036534726023
 20
150.5335313715540053
 10
128.9712146096576078
 20
150.5875194642160011
 10
126.7391675012088967
 20
150.6434922007312025
 10
124.7750022550347069
 20
150.6944094746054077
 10
124.2910373027622057
 20
150.7071963542348954
 10
124.0780934070157002
 20
150.7128528967072043
 10
124.0256240955201008
 20
150.7142495174296073
 10
124.020470860945494
 20
150.7143867463074116
 10
124.015317626616806
 20
150.7145239860560082
 10
124.0101643925347048
 20
150.7146612366759086
 10
124.005011158698693
 20
150.7147984981671982
 10
123.9998579251089978
 20
150.7149357705301895
 10
123.9972113665543958
 20
150.715006274177
 10
123.9946347499318051
 20
150.7150749176047952
 10
123.9920581333820024
 20
150.7151435640068939
 10
123.9552493334933985
 20
150.7161245516938948
 10
123.6157355757578955
 20
150.725201581207898
 10
122.0499605201703019
 20
150.7677374440677909
 10
120.4842136743499026
 20
150.8113941752214089
 10
118.3660963826686014
 20
150.8722695849565127
 10
116.2480351641851968
 20
150.9352741643822071
 10
114.130032575452006
 20
151.0004526827387963
 10
112.0120926269385961
 20
151.06787539343091
 10
109.8942309664341934
 20
151.1378157147923105
 10
107.7764407359618986
 20
151.2101508913198131
  0
LINE
  5
63
100
AcDbEntity
  8
Geometries
 62
256
370
0
 48
1.0
  6
Continuous
100
AcDbLine
 10
231.9264407359607958
 20
154.9713094817205103
 30
0.0
 11
231.9264407359607958
 21
150.1915353542225091
 31
0.0
  0
LINE
  5
64
100
AcDbEntity
  8
Geometries
 62
256
370
0
 48
1.0
  6
Continuous
100
AcDbLine
 10
231.6264407359608981
 20
150.1854310108275001
 30
0.0
 11
231.6264407359608981
 21
154.9713094816630132
 31
0.0
  0
LWPOLYLINE
  5
65
100
AcDbEntity
  8
Geometries
 62
256
370
0
 48
1.0
  6
Continuous
100
AcDbPolyline
 90
255
 70
128
 10
107.1764407359618048
 20
151.2310475932592055
 10
105.2226867002303976
 20
151.3004412000219929
 10
103.2690146836573035
 20
151.3722524779236096
 10
101.549868490929498
 20
151.4377550906397119
 10
101.1431363478215957
 20
151.4535855959036041
 10
100.7703845922437011
 20
151.4681811728283947
 10
100.1047632115542001
 20
151.4944584221204877
 10
98.9161773695997084
 20
151.5420966247253887
 10
96.9909397073711972
 20
151.621358970998898
 10
96.1438687187727083
 20
151.6571182777250897
 10
95.8127608190098385
 20
151.6712515230520921
 10
95.6663426459326871
 20
151.6775334814549012
 10
94.3158670477053676
 20
151.736503206790502
 10
93.1101508880025932
 20
151.7906556613154123
 10
91.9044902769901313
 20
151.8461394546440886
 10
90.5065222963613962
 20
151.9120355771534037
 10
89.1086192302777249
 20
151.9795862893155061
 10
87.7108073349579911
 20
152.0491268228211084
 10
86.3131131447649977
 20
152.121004680636986
 10
84.9155629355663848
 20
152.195564232287893
 10
83.5181455563865143
 20
152.2727085189715126
 10
82.1208138414237112
 20
152.3518741484502925
 10
81.025393239292498
 20
152.4156498230090051
 10
79.9300737151294243
 20
152.4811900904450965
 10
78.8348778536256702
 20
152.5487388563620073
 10
77.7398422650410907
 20
152.6186830333429896
 10
76.6449455930450654
 20
152.6908431961240922
 10
75.7847364508376415
 20
152.7488107540719966
 10
74.9245831593696039
 20
152.8078534790882941
 10
74.0645078430344483
 20
152.8681646249540904
 10
73.2045343048491191
 20
152.9299547097718914
 10
72.3447019667817983
 20
152.9935727744345968
 10
71.4850191991767474
 20
153.0591031201201986
 10
70.6254788788701831
 20
153.1264959021245033
 10
69.7660738826984357
 20
153.1957012757436871
 10
68.9067970874986315
 20
153.2666693962733859
 10
68.0476413701067031
 20
153.3393504190094916
 10
67.8617706134161836
 20
153.3552961527618095
 10
67.7295488861762465
 20
153.366686800042288
 10
67.5991613417909321
 20
153.3779627164489909
 10
67.3663362216144037
 20
153.3982152410727053
 10
66.9506108079212368
 20
153.4347712559813885
 10
66.2083660261097293
 20
153.5013975566695876
 10
65.3953224092876155
 20
153.576593368233091
 10
64.5825357167251468
 20
153.6543516015410091
 10
63.7700093756543822
 20
153.7347340934165061
 10
62.9576923460051603
 20
153.817422613382405
 10
62.1455292712416565
 20
153.9020652202368922
 10
61.3335417103208229
 20
153.9887642788883966
 10
60.6957528215240032
 20
154.058774693777309
 10
60.0581858797272616
 20
154.1307010645531932
 10
59.4208819187871597
 20
154.2047752745336027
 10
58.7838843208915875
 20
154.2812521959928915
 10
58.1471836227092425
 20
154.3601141313193921
 10
57.5107276151772169
 20
154.4411003588953974
 10
57.0335145806598973
 20
154.5030760479116054
 10
56.5563874639126993
 20
154.5659880265745869
 10
56.0793688259053908
 20
154.6299310550022028
 10
55.6025264055497814
 20
154.6952090835054889
 10
55.1258988775465184
 20
154.7619932938912086
 10
54.6495248786407615
 20
154.8304546938875887
 10
54.1734430455769598
 20
154.900764291222913
 10
53.6976926195036697
 20
154.9730954789579016
 10
53.1997002235056584
 20
155.0512887455111013
 10
52.7020216466976024
 20
155.1315606038382953
 10
52.2044871283904683
 20
155.2132737154146866
 10
51.7071099752174632
 20
155.2964493059004951
 10
51.2100088760919903
 20
155.38149496422119
 10
50.7132887714466776
 20
155.4687703711672953
 10
50.2897647657785569
 20
155.5452857492327894
 10
49.8666598924749778
 20
155.6239105718977953
 10
49.6583279138071134
 20
155.6635011201456109
 10
49.6452368693789765
 20
155.6660092092880916
 10
49.6321463224771833
 20
155.6685196493257877
 10
49.6190562750402933
 20
155.6710324469030979
 10
49.6059667290070081
 20
155.6735476086645065
 10
49.5928776863160934
 20
155.676065141254611
 10
49.5830072671184325
 20
155.6779652620323873
 10
49.576463174428568
 20
155.6792259583631051
 10
49.5404737738861911
 20
155.6861729036297106
 10
49.3944651186629926
 20
155.7145896745184075
 10
49.0984165147852067
 20
155.7732929389424044
 10
48.8026367493654902
 20
155.8332636980277073
 10
48.5070701440084804
 20
155.8943515113626006
 10
48.2116610203176208
 20
155.9564059385351129
 10
48.1261832490094434
 20
155.9745204946052866
 10
48.0544640910071266
 20
155.9897657794899999
 10
47.9264069876533085
 20
156.0170992794002132
 10
47.6977866310121215
 20
156.0662904848327912
 10
47.2897743578429015
 20
156.1555264737139908
 10
46.9200288046175729
 20
156.2382800879977083
 10
46.8290065768648773
 20
156.2589635384892972
 10
46.8170987746901233
 20
156.2616790977432117
 10
46.8051796232112167
 20
156.2643995229331892
 10
46.7932609821765482
 20
156.2671221205906136
 10
46.7294199601693734
 20
156.2817448415731008
 10
46.4704876790629626
 20
156.3417622511030913
 10
46.23954092399822
 20
156.3963172223639049
 10
46.0088503164861891
 20
156.4518552623877952
 10
45.7784419221718792
 20
156.5084435468120034
 10
45.5483418067007904
 20
156.566149251274112
 10
45.5341783051511868
 20
156.5697419686725027
 10
45.5200160783848773
 20
156.5733391967922898
 10
45.5058551324938776
 20
156.5769409513353878
 10
45.491695473571383
 20
156.580547248003711
 10
45.4775371077099919
 20
156.5841581024992877
 10
45.463380041002182
 20
156.58777353052389
 10
45.4540779076170622
 20
156.5901518403908028
 10
45.4470003981521131
 20
156.5919630293622902
 10
45.4025225823937717
 20
156.6033784070432091
 10
45.3231369673382929
 20
156.6238923888321892
 10
45.0625164414191488
 20
156.6924204744240967
 10
44.8023087215675773
 20
156.7624652544272124
 10
44.779805498774607
 20
156.7685913388230858
 10
44.7756253807215785
 20
156.7697304261135969
 10
44.7697321656769702
 20
156.7713369302472017
 10
44.7638391038794126
 20
156.7729440871760005
 10
44.7579461941435568
 20
156.7745518943536922
 10
44.7520534352846866
 20
156.7761603492340043
 10
44.7461608261171833
 20
156.7777694492706075
 10
44.6830348066267504
 20
156.7950496164297931
 10
44.5703475993580014
 20
156.8260807095003884
 10
44.3692180442405686
 20
156.8819976440672121
 10
44.0102497958673666
 20
156.9831988168097894
 10
43.7676504856657118
 20
157.0527597099963089
 10
43.5253448113711769
 20
157.1234582928582029
 10
43.2834140664905433
 20
157.1954529793626136
 10
43.0419395445303223
 20
157.2689021834765128
 10
42.8010025389975794
 20
157.3439643191669006
 10
42.5606843433980373
 20
157.4207978004008908
 10
42.3319416454950783
 20
157.4959367901809912
 10
42.1039075560395872
 20
157.5729718729851925
 10
41.8767406158077335
 20
157.6521848177885943
 10
41.6503633908356505
 20
157.7334718334510058
 10
41.4243760443502467
 20
157.8162014781555911
 10
41.1984583352621883
 20
157.8998536350107997
 10
40.972713540343733
 20
157.9845607748042084
 10
40.7473792048178893
 20
158.0706761010997923
 10
40.5259226684125125
 20
158.1572732912705135
 10
40.3053230892892884
 20
158.2459197851447925
 10
40.1120849597849372
 20
158.3258924681194912
 10
40.1025866338873698
 20
158.3298853944345979
 10
40.0966333632612191
 20
158.3323911517886984
 10
40.0918858783772407
 20
158.3343911136394979
 10
40.0871390073136808
 20
158.3363923526140127
 10
40.0823927523892678
 20
158.3383948721601087
 10
40.0637527601813019
 20
158.3462743765709888
 10
40.0304912420389769
 20
158.3603948664145946
 10
39.8775161057174614
 20
158.4263769905836909
 10
39.7252934390498922
 20
158.4938594443258921
 10
39.5876282470815397
 20
158.5566073288885889
 10
39.4507090219654799
 20
158.6207796320437922
 10
39.3146336326584631
 20
158.6865189971350105
 10
39.1792148353641778
 20
158.7536310370392982
 10
39.0441092815641468
 20
158.8217298484495927
 10
38.8775813404694972
 20
158.9064126932453007
 10
38.8364680145233834
 20
158.927335617088886
 10
38.8310805294294425
 20
158.9300758119136958
 10
38.8255237717748685
 20
158.9329016126451108
 10
38.8147461723863785
 20
158.9383839938780056
 10
38.8039687385918626
 20
158.9438703147567935
 10
38.7931916171296223
 20
158.9493607229973975
 10
38.7824149547372485
 20
158.9548553663155133
 10
38.6670185505277004
 20
159.014031604247208
 10
38.5501925898688285
 20
159.0747732262389889
 10
38.433812522117563
 20
159.1364095801465908
 10
38.3180668553598025
 20
159.1991304302607091
 10
38.2031440976803722
 20
159.2631255408720108
 10
38.1987990871681973
 20
159.2655831612169948
 10
38.1962522211474607
 20
159.2670250886498877
 10
38.1937058620581027
 20
159.2684677473851877
 10
38.1911600119816796
 20
159.2699111395168927
 10
38.1886146729966427
 20
159.2713552671388868
 10
38.1860698471845694
 20
159.2728001323451963
 10
38.1835255366249768
 20
159.2742457372297054
 10
38.169541131639221
 20
159.2822098794181045
 10
38.1446089897720526
 20
159.2964884656794027
 10
38.100220356772887
 20
159.3221728972991968
 10
38.0214103304570585
 20
159.3686654490512069
 10
37.9515817365201826
 20
159.4109009044456116
 10
37.8823075190331267
 20
159.4538672283663914
 10
37.8006241044207911
 20
159.5060340462254089
 10
37.7198675620981305
 20
159.5593788077588044
 10
37.6401146265108935
 20
159.6139787587657963
 10
37.6334780022130033
 20
159.6186145969909091
 10
37.6268490127591804
 20
159.6232598413834012
 10
37.6202277033330006
 20
159.6279145374282109
 10
37.6136141191181466
 20
159.6325787306103052
 10
37.607008305298649
 20
159.6372524664143953
 10
37.6015899623401069
 20
159.6410973444050114
 10
37.5982932044774074
 20
159.6434417538467017
 10
37.59499841543294
 20
159.6457885753378889
 10
37.5743337519726595
 20
159.6605956152914985
 10
37.5376310035894676
 20
159.6872787845123867
 10
37.4727453058493367
 20
159.7357213719666902
 10
37.4155296060721128
 20
159.7798562129740105
 10
37.358534422811033
 20
159.8246014313099863
 10
37.3315429016790929
 20
159.8457749778318089
 10
37.32850193428186
 20
159.8481526629346092
 10
37.3254582647817585
 20
159.8505303462540041
 10
37.321650094019823
 20
159.8535022841815874
 10
37.315551379761871
 20
159.8582593018836917
 10
37.3094471014331575
 20
159.8630188102671923
 10
37.3033374733949969
 20
159.8677808907193878
 10
37.2972227100082705
 20
159.8725456246274064
 10
37.2204422918334501
 20
159.932361874520609
 10
37.1515797583608389
 20
159.986259863519507
 10
37.0827360277051028
 20
160.0407383743061871
 10
37.0012169457642415
 20
160.1065075505316884
 10
36.9206496404424271
 20
160.1734507081602885
 10
36.8415368990419267
 20
160.2417587419982112
 10
36.7688855422614722
 20
160.3074398459075098
 10
36.7659516730186908
 20
160.3101628057110872
 10
36.7637038094407629
 20
160.3122531179863017
 10
36.7614581005998673
 20
160.3143449588013993
 10
36.7592145594924204
 20
160.3164383330910141
 10
36.7569731991166933
 20
160.3185332457898085
 10
36.75473403246923
 20
160.320629701832587
 10
36.7524970725470368
 20
160.3227277061540974
 10
36.740233819010399
 20
160.3342946259215012
 10
36.6911981861031506
 20
160.3817375964297867
 10
36.648498825219832
 20
160.4248074891384874
 10
36.6069276504148888
 20
160.4685879113598901
 10
36.5660078011891585
 20
160.513774277892793
 10
36.5264627243652527
 20
160.5597731021080108
 10
36.4883998831906808
 20
160.6066251849075002
 10
36.4519267409102667
 20
160.6543713271935871
 10
36.4171509095361614
 20
160.7030523040955927
 10
36.3843393100270873
 20
160.7526817284050935
 10
36.3532739594996315
 20
160.8033588889647092
 10
36.3233701416789927
 20
160.8552464359210035
 10
36.2899450630660922
 20
160.9161297426662998
 10
36.2573250550927568
 20
160.9785673973487121
 10
36.2257177042622232
 20
161.0423879300905128
 10
36.1953305970779411
 20
161.1074198710142014
 10
36.1663713200438792
 20
161.173491750241908
 10
36.1390474596643685
 20
161.2404320978961891
 10
36.113566602442063
 20
161.3080694440992886
 10
36.0932310255735231
 20
161.3668282420568971
 10
36.0745536866164116
 20
161.4258679133363898
 10
36.0595950548972368
 20
161.4779678259627929
 10
36.0582041404539382
 20
161.4830890917920101
 10
36.0568275686506183
 20
161.4882108402163112
 10
36.0554654254472666
 20
161.4933330002313028
 10
36.0541177968043769
 20
161.498455500832506
 10
36.0527847686818177
 20
161.5035782710151864
 10
36.0514664270399692
 20
161.5087012397750073
 10
36.0496469554420287
 20
161.5158681554931945
 10
36.0470964156415619
 20
161.5261144240380133
 10
36.034357605273982
 20
161.5815372176298013
 10
36.0234922276728966
 20
161.6368566802698865
 10
36.0146092464430865
 20
161.6919828062256101
 10
36.0078176251896025
 20
161.7468255897640859
 10
36.0032263275170976
 20
161.8012950251527116
 10
36.0009443170309922
 20
161.8553011066589136
  0
LWPOLYLINE
  5
66
100
AcDbEntity
  8
Geometries
 62
256
370
0
 48
1.0
  6
Continuous
100
AcDbPolyline
 90
37
 70
128
 10
233.5400140827221094
 20
154.9713094820297101
 10
233.5956104632601864
 20
154.9730526732959959
 10
233.6519901842461877
 20
154.9771051664191077
 10
233.709015751671501
 20
154.9835663556958139
 10
233.7665368639686108
 20
154.9925267369794142
 10
233.824391019023011
 20
155.0040662505913076
 10
233.8824043741934133
 20
155.0182526440090101
 10
233.9370832364510022
 20
155.0341014007136948
 10
233.9915785531993038
 20
155.0523841486734966
 10
234.0457230257754873
 20
155.0731206998935932
 10
234.0993449449229047
 20
155.0963169542297919
 10
234.1522697107089925
 20
155.1219641934357014
 10
234.2043214769832105
 20
155.1500385593901967
 10
234.2553248925952971
 20
155.1805007384564874
 10
234.3051069070612016
 20
155.2132958694232912
 10
234.353498604733204
 20
155.2483536870327896
 10
234.4003370290172938
 20
155.2855889068964927
 10
234.4446769074797885
 20
155.3241822510611883
 10
234.4872305111109085
 20
155.364672665266994
 10
234.5278698058421014
 20
155.4069413846368946
 10
234.5664782292170116
 20
155.4508591887085913
 10
234.6035946105396874
 20
155.4971267707693983
 10
234.6384024728805002
 20
155.5448062403239931
 10
234.6708217190983987
 20
155.5937367489125052
 10
234.7007880522261871
 20
155.6437525871328091
 10
234.7282532496226963
 20
155.6946849582203924
 10
234.7527623074375924
 20
155.7454353474967093
 10
234.774812216063907
 20
155.7967449214673081
 10
234.7944018503922905
 20
155.8484547436889045
 10
234.8115438916262008
 20
155.9004091548870861
 10
234.8265395270684905
 20
155.9535192059846054
 10
234.8390539241621013
 20
156.0065722402210042
 10
234.8491396238686093
 20
156.0594211784409993
 10
234.8568600938197051
 20
156.111927183822587
 10
234.8622884742694055
 20
156.1639604169147901
 10
234.8655062889073974
 20
156.215400612312294
 10
234.8666021476138894
 20
156.2661374823478866
  0
ARC
  5
67
100
AcDbEntity
  8
Geometries
 62
256
370
0
 48
1.0
  6
Continuous
100
AcDbCircle
 10
107.1764407359620037
 20
167.4377065599111916
 30
0.0
 40
8.0999999999961414
100
AcDbArc
 50
274.2480226667292982
 51
269.9999999999992042
  0
LWPOLYLINE
  5
68
100
AcDbEntity
  8
Geometries
 62
256
370
0
 48
1.0
  6
Continuous
100
AcDbPolyline
 90
34
 70
128
 10
393.9982517888266216
 20
160.4591232214013132
 10
393.9970495567230842
 20
160.4139740418490021
 10
393.9937726365573099
 20
160.3690299342354137
 10
393.9884420746237765
 20
160.3243650556840123
 10
393.9810789172174168
 20
160.2800535633184893
 10
393.9717042106324811
 20
160.2361696142625078
 10
393.96033900116322
 20
160.1927873656395036
 10
393.9478190035961234
 20
160.152410247415304
 10
393.9335658399132853
 20
160.1126072118809134
 10
393.9175972856168073
 20
160.0734404408102023
 10
393.8999411042029806
 20
160.0349739447158868
 10
393.8806417404787794
 20
159.997274788353792
 10
393.8572183879508088
 20
159.9561885580679075
 10
393.8318695880026894
 20
159.9162356729426904
 10
393.804659331050118
 20
159.8775097695539102
 10
393.7756516075074842
 20
159.8401044844773082
 10
393.7449104077899165
 20
159.804113454288597
 10
393.712499722311577
 20
159.7696303155634894
 10
393.6784876251205105
 20
159.7367421938110965
 10
393.6429608662406281
 20
159.7055064370069886
 10
393.606011531598881
 20
159.6759718854021912
 10
393.5677317075385986
 20
159.6481873785855043
 10
393.528213480402087
 20
159.6222017561453868
 10
393.4875489365323915
 20
159.5980638576708088
 10
393.445830162272614
 20
159.5758225227500873
 10
393.4031492439644921
 20
159.5555265909721072
 10
393.3595975929047199
 20
159.5372219423242939
 10
393.3152623359861764
 20
159.5209356727532111
 10
393.268068516876383
 20
159.5060602230614109
 10
393.220206714075573
 20
159.4934443200598935
 10
393.1717751723836045
 20
159.4831106521764923
 10
393.1228721366006766
 20
159.4750819078394954
 10
393.0735958515265906
 20
159.4693807754767079
 10
393.0240445619622278
 20
159.466029943516304
  0
ARC
  5
69
100
AcDbEntity
  8
Geometries
 62
256
370
0
 48
1.0
  6
Continuous
100
AcDbCircle
 10
233.3064582125302877
 20
156.5316238520146896
 30
0.0
 40
1.6383762375659927
100
AcDbArc
 50
17.8191267079536289
 51
90.6042327127109672
  0
LINE
  5
6A
100
AcDbEntity
  8
Geometries
 62
256
370
0
 48
1.0
  6
Continuous
100
AcDbLine
 10
393.9992579374642787
 20
160.7473624031389079
 30
0.0
 11
393.9982517888266216
 21
160.4591232214013132
 31
0.0
  0
LINE
  5
6B
100
AcDbEntity
  8
Geometries
 62
256
370
0
 48
1.0
  6
Continuous
100
AcDbLine
 10
224.1039185801056135
 20
158.1713476918077106
 30
0.0
 11
230.0349999999999966
 21
158.171999999999997
 31
0.0
  0
LINE
  5
6C
100
AcDbEntity
  8
Geometries
 62
256
370
0
 48
1.0
  6
Continuous
100
AcDbLine
 10
107.7764407359618986
 20
159.3599593492133124
 30
0.0
 11
107.7764407359618986
 21
151.2101508913198131
 31
0.0
  0
LWPOLYLINE
  5
6D
100
AcDbEntity
  8
Geometries
 62
256
370
0
 48
1.0
  6
Continuous
100
AcDbPolyline
 90
37
 70
128
 10
228.654993837786094
 20
156.3033843767530868
 10
228.6560810300142919
 20
156.2487727196115941
 10
228.6595562464420937
 20
156.1933911248310096
 10
228.6655213341005037
 20
156.1373705630381892
 10
228.6740691673317087
 20
156.0808539777347903
 10
228.6852820117771898
 20
156.0239957102043036
 10
228.6992299102209927
 20
155.9669606947531975
 10
228.7149366170197879
 20
155.9131795985846054
 10
228.7331596659821003
 20
155.8595494528740062
 10
228.7539208272492885
 20
155.80622872035471
 10
228.7772279963390929
 20
155.7533800382894924
 10
228.8030744935811924
 20
155.701168825811493
 10
228.8314385413179934
 20
155.6497617789522963
 10
228.8622829397542091
 20
155.5993252780396858
 10
228.8955549581266951
 20
155.5500237360757012
 10
228.9311864527890918
 20
155.5020179198751862
 10
228.9690942180336037
 20
155.4554632779531005
 10
229.0084462630670998
 20
155.4112962247930909
 10
229.0497944329115114
 20
155.3688049642688043
 10
229.0930215495756102
 20
155.328112980250495
 10
229.1379997496705982
 20
155.2893333316231974
 10
229.1854529110001124
 20
155.2519183583042093
 10
229.2344255779983939
 20
155.2166852544330027
 10
229.284757244502714
 20
155.1837140929318082
 10
229.3362820656871861
 20
155.1530704069276965
 10
229.3888305859215109
 20
155.1248048840234901
 10
229.4412714004810141
 20
155.0993936085382927
 10
229.494371894173014
 20
155.0763308413098116
 10
229.54797086809711
 20
155.0556231089184962
 10
229.6019098409121
 20
155.0372639555992862
 10
229.6571398028688975
 20
155.0209315035031921
 10
229.7124044280247972
 20
155.006992412075391
 10
229.767551946456507
 20
154.9954026335952904
 10
229.8224383350510891
 20
154.9861075506348982
 10
229.8769281257609975
 20
154.9790430932820868
 10
229.9308950425673004
 20
154.974136897674498
 10
229.9842224706758032
 20
154.9713094813484133
  0
LINE
  5
6E
100
AcDbEntity
  8
Geometries
 62
256
370
0
 48
1.0
  6
Continuous
100
AcDbLine
 10
107.1764407359618048
 20
151.2310475932592055
 30
0.0
 11
107.1764407359619042
 21
159.3377065599142099
 31
0.0
  0
LWPOLYLINE
  5
6F
100
AcDbEntity
  8
Geometries
 62
256
370
0
 48
1.0
  6
Continuous
100
AcDbPolyline
 90
173
 70
128
 10
393.0240445619622278
 20
159.466029943516304
 10
392.3516554765918158
 20
159.4354058645313046
 10
391.6793889485990121
 20
159.4023568977713126
 10
391.0072411150568996
 20
159.3670356350471025
 10
390.3352100763852945
 20
159.3296553382297134
 10
389.743910276112274
 20
159.2952991307101911
 10
389.1526820884665767
 20
159.259796681614489
 10
388.6324526860656761
 20
159.2277749943899039
 10
388.403565164646011
 20
159.2134936321166094
 10
388.3719829414400806
 20
159.2115149295912886
 10
388.3224567357007118
 20
159.2084056587106886
 10
388.2338354316490268
 20
159.2028180406416027
 10
388.0755878441485152
 20
159.1927664416292885
 10
387.2875473505152968
 20
159.1414587481843057
 10
386.4996151372030795
 20
159.0885185611647898
 10
385.7117549335462741
 20
159.034553235496702
 10
385.6094819800587175
 20
159.0275041511698078
 10
385.5459618744321233
 20
159.0231229529995005
 10
385.4742150470514161
 20
159.0181682444130047
 10
385.346097140411473
 20
159.0093015256944113
 10
385.1173196344489043
 20
158.9934084338405
 10
384.7088021539198053
 20
158.9648433484638019
 10
383.87988071225152
 20
158.9061942300207022
 10
383.0510204615125076
 20
158.8467095562704117
 10
382.8435383201415902
 20
158.8316993070517924
 10
382.7924152163789131
 20
158.8279938576289112
 10
382.7452856619407271
 20
158.8245754882387928
 10
382.4583734427370132
 20
158.803737487500797
 10
381.2939905895826769
 20
158.718736140568808
 10
379.2148551406118031
 20
158.5654124692941878
 10
378.0505961262724099
 20
158.478821881233614
 10
377.5383331174181194
 20
158.4405814446542138
 10
377.3129393217442953
 20
158.4237309178120086
 10
377.2137664084996231
 20
158.4163121087061938
 10
377.1375924861608837
 20
158.4106119124614054
 10
376.3208655606604793
 20
158.3493988527478109
 10
373.0063320400893758
 20
158.0996236170489055
 10
370.0470005557269246
 20
157.8756721277146937
 10
367.0877381270739193
 20
157.6508471866225989
 10
362.8695409565527825
 20
157.329143243422493
 10
361.0135580134236761
 20
157.1872919247225866
 10
360.5562452179265165
 20
157.1523219773455082
 10
360.3550277233176757
 20
157.1369334803480058
 10
360.3054477442918255
 20
157.1331416066722113
 10
360.2998826448829277
 20
157.1327159846651114
 10
360.2922600106996924
 20
157.1321330000590137
 10
360.2811298122009021
 20
157.1312817519934129
 10
360.2699996139234031
 20
157.130430501119406
 10
360.2588694158654903
 20
157.1295792474494135
 10
360.2477392180264246
 20
157.1287279909963104
 10
360.2366090204050124
 20
157.1278767317724032
 10
360.0974815681203722
 20
157.1172357628340137
 10
358.8142086537665136
 20
157.0190703491416002
 10
355.1022634753583134
 20
156.7351033937075044
 10
354.8154369592243143
 20
156.7131691170133934
 10
354.689233236587711
 20
156.7035187327630013
 10
354.6361956933387205
 20
156.6994632607581934
 10
354.4349779231353068
 20
156.6840780649754095
 10
354.0756602263051036
 20
156.6566076437977983
 10
353.434020591585579
 20
156.6075645170294877
 10
350.8299482427173075
 20
156.4087195833164117
 10
349.7905830971931778
 20
156.3294666457663027
 10
349.3332604950933842
 20
156.2946197787215965
 10
349.1320381478420245
 20
156.2792922284764927
 10
349.0824569226634253
 20
156.2755160093865925
 10
349.0768916821353969
 20
156.2750921602558094
 10
349.0713264414112018
 20
156.2746683135922012
 10
349.0633324210566002
 20
156.2740594971207031
 10
349.0522019378158234
 20
156.2732118261079961
 10
349.041071453103882
 20
156.2723641733294073
 10
349.0299409669198099
 20
156.271516538798096
 10
349.0188104792637773
 20
156.2706689225275056
 10
348.8796792589216125
 20
156.2600752653600011
 10
345.9630117970086189
 20
156.0387035829376998
 10
344.3296271021122834
 20
155.9153783779823073
 10
343.6109252342586728
 20
155.8612759384508024
 10
343.5117552482840892
 20
155.8538186971736934
 10
343.5006239137127864
 20
155.8529817830867046
 10
343.4894925771973817
 20
155.8521448939142999
 10
343.4783612387373068
 20
155.8513080296698092
 10
343.4672298983314818
 20
155.8504711903667896
 10
343.4560985559784854
 20
155.8496343760185994
 10
343.4493716781901185
 20
155.8491286856747138
 10
343.4438060056942845
 20
155.8487102954094041
 10
343.3742350583527241
 20
155.8434809446193867
 10
343.2500010337361118
 20
155.8341452557683908
 10
342.1040881190626806
 20
155.748185879690908
 10
339.4996576424675823
 20
155.5538948715125116
 10
338.353669325001988
 20
155.4689122161364878
 10
337.8494265268889762
 20
155.431623419993997
 10
337.7252516462821177
 20
155.4224506702439044
 10
337.6027943083045102
 20
155.4134086991168999
 10
337.3841197532801175
 20
155.3972719677190923
 10
336.9936271057127897
 20
155.3684874152365012
 10
336.2963111331299046
 20
155.317187009509297
 10
333.9335509710572865
 20
155.1443671752398075
 10
331.570666514506911
 20
154.9731880062082894
 10
329.2076486922906042
 20
154.8037775421549043
 10
326.8444884332179754
 20
154.6362638228193873
 10
326.5212573551536934
 20
154.6135068089909055
 10
326.3605591546112805
 20
154.602207204585909
 10
326.0735963349774806
 20
154.5820530166743083
 10
325.5611571435151177
 20
154.54613925759881
 10
324.6460692730689175
 20
154.4822515095009123
 10
323.0119263212600913
 20
154.3689559063884076
 10
320.8011164618117164
 20
154.2173363715978098
 10
318.5901681549976274
 20
154.0676666918772924
 10
316.3790791878968776
 20
153.9200063977567936
 10
314.009896690582309
 20
153.7640963762061972
 10
311.640547458859885
 20
153.6106346058757879
 10
309.2710287709338104
 20
153.4596943067145105
 10
306.9013379050072103
 20
153.311348698670713
 10
304.5314721392846877
 20
153.1656710016929992
 10
304.1660114936984201
 20
153.1434488891264891
 10
303.8772830276403738
 20
153.1259392943707951
 10
303.6245882528284028
 20
153.1106492931164951
 10
302.5990201836086726
 20
153.0489247729404099
 10
300.767564877250777
 20
152.9400232211785919
 10
299.1322468646080779
 20
152.8442323674339889
 10
297.4968446133606221
 20
152.7498151258162125
 10
295.8613588198227262
 20
152.6567836101137914
 10
294.2257901803083087
 20
152.5651499341151975
 10
293.41975169467878
 20
152.5205107227021983
 10
293.0650884622521062
 20
152.5009783186524999
 10
292.9090354233289872
 20
152.4924051824496871
 10
292.8383831846052772
 20
152.4885280001109038
 10
292.2729006278082124
 20
152.4575918769278928
 10
290.5342202462783803
 20
152.3635449282660943
 10
288.7954488267324109
 20
152.2711218472209964
 10
287.0565872053775252
 20
152.1803371812823968
 10
285.1934220361276857
 20
152.0849025631843006
 10
283.3301553073097239
 20
151.9913833714549014
 10
281.4667880215191076
 20
151.8997975476252122
 10
279.6033181566652956
 20
151.8101664202366976
 10
277.7397457561012857
 20
151.7224997689617112
 10
275.5259179988238998
 20
151.620919833809694
 10
273.3119536263544092
 20
151.5221222753964128
 10
271.0978570193407222
 20
151.4261127353200891
 10
270.5845819623654052
 20
151.4042551234477116
 10
270.458109939587473
 20
151.3988924684460926
 10
270.3240949532573723
 20
151.3932199483560055
 10
269.9691955447282226
 20
151.3782475102619003
 10
268.5288240981151944
 20
151.3182204459928926
 10
267.2427342281122264
 20
151.2656260709204048
 10
265.9566038020872725
 20
151.2139773906712037
 10
264.425444462986718
 20
151.1537254480296895
 10
262.8942303109237173
 20
151.0948172071551028
 10
261.3629627939371858
 20
151.0372545328982881
 10
259.5293827362730781
 20
150.9701028116122075
 10
259.2763723207053772
 20
150.9609888001463958
 10
259.1086874459904266
 20
150.9549687431089069
 10
258.9311913933511278
 20
150.9486142291374904
 10
258.6142322983420172
 20
150.9373124043383996
 10
257.3278481692117907
 20
150.8920429615185128
 10
256.1792587460340087
 20
150.8524336723536123
 10
255.0306397183422007
 20
150.8135865832678917
 10
252.9794629109019866
 20
150.7461070813673985
 10
250.9281980206397122
 20
150.6810425600170902
 10
249.0633387299363051
 20
150.623980276275887
 10
247.1984130347846076
 20
150.5688981633107915
 10
245.3334239786474882
 20
150.5157887540175921
 10
243.46837460498881
 20
150.4646445812925037
 10
241.6032679572722088
 20
150.4154581780312867
 10
239.5515881256202988
 20
150.3636054461863125
 10
237.4998467257985055
 20
150.3141026414814121
 10
236.9336214563629142
 20
150.3008538595626931
 10
236.6844809720300873
 20
150.2950807985064046
 10
236.6215861219629915
 20
150.2936288534939138
 10
236.5251186124588969
 20
150.2914062041521959
 10
236.3528548417041861
 20
150.2874503163677957
 10
234.7639187449341023
 20
150.2517536043750965
 10
233.3451940709898906
 20
150.221082113903293
 10
231.9264407359607958
 20
150.1915353542225091
  0
LINE
  5
70
100
AcDbEntity
  8
Geometries
 62
256
370
0
 48
1.0
  6
Continuous
100
AcDbLine
 10
231.9264407359607958
 20
154.9713094817205103
 30
0.0
 11
233.5400140827221094
 21
154.9713094820297101
 31
0.0
  0
LWPOLYLINE
  5
71
100
AcDbEntity
  8
Geometries
 62
256
370
0
 48
1.0
  6
Continuous
100
AcDbPolyline
 90
32
 70
128
 10
393.0269488937154847
 20
161.7525588578257043
 10
393.0812200389746067
 20
161.7482537300664092
 10
393.1350750971848242
 20
161.7412809594196972
 10
393.1883947935588139
 20
161.7315416396463945
 10
393.2410664360643864
 20
161.7190656078032021
 10
393.2929773326670215
 20
161.7038827009469912
 10
393.3431117203609801
 20
161.6863649861487886
 10
393.392296823686479
 20
161.6662932552617917
 10
393.4404232422240284
 20
161.643700305589789
 10
393.4873646385063921
 20
161.6186480174862083
 10
393.5281668264037194
 20
161.5942614866177962
 10
393.5678235702142729
 20
161.5680251250105073
 10
393.6062401695896824
 20
161.5399911785883091
 10
393.6433219241823736
 20
161.5102118932751978
 10
393.678974133644374
 20
161.4787395149955103
 10
393.7131020976286209
 20
161.4456262896732142
 10
393.745615767942013
 20
161.4109297493214115
 10
393.7764464464125922
 20
161.3747316852625886
 10
393.8055315557697895
 20
161.337120843796896
 10
393.8328085192572985
 20
161.298185971807186
 10
393.8582147601189263
 20
161.2580158161765098
 10
393.8816877015971727
 20
161.2166991237874925
 10
393.9031647669357881
 20
161.1743246415230999
 10
393.9225833793780112
 20
161.1309811162662129
 10
393.9398845807778002
 20
161.0867585165588025
 10
393.9550325683924825
 20
161.0417546283102865
 10
393.9685633638142122
 20
160.993879619591695
 10
393.9796710649359284
 20
160.9453738244980912
 10
393.9883250223099935
 20
160.8963532241679104
 10
393.9944945864879742
 20
160.8469337997391051
 10
393.9981491080222895
 20
160.7972315323501107
 10
393.9992579374646766
 20
160.7473624031389079
  0
LINE
  5
72
100
AcDbEntity
  8
Geometries
 62
256
370
0
 48
1.0
  6
Continuous
100
AcDbLine
 10
234.8666021476138894
 20
156.2661374823478866
 30
0.0
 11
234.8676068705449893
 21
157.0334287835661939
 31
0.0
  0
LINE
  5
73
100
AcDbEntity
  8
Geometries
 62
256
370
0
 48
1.0
  6
Continuous
100
AcDbLine
 10
229.9842224706758032
 20
154.9713094813484133
 30
0.0
 11
231.6264407359608981
 21
154.9713094816630132
 31
0.0
  0
LINE
  5
74
100
AcDbEntity
  8
Geometries
 62
256
370
0
 48
1.0
  6
Continuous
100
AcDbLine
 10
239.8560918971325862
 20
170.3714933764973125
 30
0.0
 11
224.1198939549215083
 21
170.3714933734821955
 31
0.0
  0
LINE
  5
75
100
AcDbEntity
  8
Geometries
 62
256
370
0
 48
1.0
  6
Continuous
100
AcDbLine
 10
228.6557644504619873
 20
156.8918893111257091
 30
0.0
 11
228.654993837786094
 21
156.3033843767530868
 31
0.0
  0
LWPOLYLINE
  5
76
100
AcDbEntity
  8
Geometries
 62
256
370
0
 48
1.0
  6
Continuous
100
AcDbPolyline
 90
339
 70
128
 10
36.0009443170309922
 20
161.8553011066589136
 10
36.0011819050423583
 20
161.9068794546496122
 10
36.0038265191786877
 20
161.9588844818491111
 10
36.0086542164710579
 20
162.0109691864844024
 10
36.0154415734165525
 20
162.0627895055872045
 10
36.0239926429560171
 20
162.1141568201072971
 10
36.0341520695073712
 20
162.1651121512923055
 10
36.0479836179718234
 20
162.2247186925505957
 10
36.0635913880278665
 20
162.2839305421649954
 10
36.0807883127621096
 20
162.3427799679056136
 10
36.0994493956453866
 20
162.4012339130148064
 10
36.1234047267371565
 20
162.4702562128032071
 10
36.1490543272149694
 20
162.5386167278473124
 10
36.1761747224890726
 20
162.6063615127100093
 10
36.2045342074456826
 20
162.6735869755137003
 10
36.2339010048724788
 20
162.7403899661564139
 10
36.2640948579821369
 20
162.8068415857214006
 10
36.2951334267536367
 20
162.8729140206928889
 10
36.3270818893775171
 20
162.9385557089615872
 10
36.3600100075373405
 20
163.0037121496472139
 10
36.3940859846248372
 20
163.0682657245864107
 10
36.4295727380631718
 20
163.1320380883848884
 10
36.4667310957843824
 20
163.1948509488869945
 10
36.5033951705986794
 20
163.2530933131031077
 10
36.541589537694847
 20
163.3103470442073046
 10
36.5812491943027567
 20
163.3665874972512029
 10
36.6222117181940519
 20
163.4218872285584041
 10
36.6642488191112577
 20
163.4763845149597898
 10
36.7342221379411171
 20
163.5634848213497037
 10
36.8059272462378075
 20
163.64915200360619
 10
36.8791224734078966
 20
163.7335526138978139
 10
36.9535923708286589
 20
163.8168375419074039
 10
37.0291535897014228
 20
163.8991383662371106
 10
37.1056227992292804
 20
163.9805898926151997
 10
37.1827872298294224
 20
164.061379335143414
 10
37.3253098290616094
 20
164.208486901984287
 10
37.4687874042976432
 20
164.3546638563757085
 10
37.6137407387904474
 20
164.4993724506909984
 10
37.6936004705622665
 20
164.5775056275780912
 10
37.7743200120911808
 20
164.6547463738278907
 10
37.8563353742237609
 20
164.7306076332928058
 10
37.9397206730700987
 20
164.8049625819514858
 10
38.0242493007581288
 20
164.8780145408734938
 10
38.1095315805713071
 20
164.950187135827008
 10
38.1953676270419535
 20
165.0216997454375019
 10
38.3539632432992335
 20
165.1513193895995073
 10
38.5138344558351378
 20
165.2793597818273952
 10
38.6746723155371512
 20
165.4061797995391885
 10
38.8477796444737535
 20
165.5410670332933876
 10
39.0214436187866127
 20
165.675239537462403
 10
39.1958906302470211
 20
165.8083890324579954
 10
39.3715231420811733
 20
165.9399690831934038
 10
39.5485650011357279
 20
166.0696415344004038
 10
39.7292700644084391
 20
166.1988968669249118
 10
39.9113145835466128
 20
166.3262684865912888
 10
40.0945525512914003
 20
166.4519205681166909
 10
40.2788449432734126
 20
166.5760114714476003
 10
40.4640921875212598
 20
166.6986667038509893
 10
40.6502085534962418
 20
166.8200002465976866
 10
40.8371083256471579
 20
166.9401260684788042
 10
41.0247114061567402
 20
167.0591506280028966
 10
41.261478286629881
 20
167.2073181364247887
 10
41.4992011864306107
 20
167.3539508566962866
 10
41.7378042771443916
 20
167.4991484440535885
 10
41.977273674313949
 20
167.6429088875337072
 10
42.2176762958681877
 20
167.7850975583718025
 10
42.4590843531461815
 20
167.9255711340551045
 10
42.7015381980895725
 20
168.0642372487361911
 10
42.9450060625977983
 20
168.201118887052786
 10
43.1894462431988018
 20
168.3362549321477104
 10
43.4348000850402229
 20
168.4697204948028002
 10
43.6765570685545867
 20
168.5993522561246039
 10
43.9189794192162068
 20
168.727738125288397
 10
44.1619707452907377
 20
168.8550419590808076
 10
44.4055018063651801
 20
168.9813085790752893
 10
44.7007532171333324
 20
169.1326555662348881
 10
44.9967865611456332
 20
169.2824691570262132
 10
45.2937758019007788
 20
169.4303769309607048
 10
45.5918208686576918
 20
169.5761470366396964
 10
45.8908319788592678
 20
169.7199229010099089
 10
46.1907260134017292
 20
169.8618484855738018
 10
46.545203365652533
 20
170.0269248538089073
 10
46.9006851554858883
 20
170.1898252078989913
 10
47.2570945957976676
 20
170.3506856409821921
 10
47.6143704244912769
 20
170.5096145986198906
 10
47.979777085671401
 20
170.6698863592264956
 10
48.3460280266743609
 20
170.8282170741020991
 10
48.7131355867757279
 20
170.9845496759747903
 10
49.0811060365591629
 20
171.1388414111945053
 10
49.4499076477506208
 20
171.2911391440734974
 10
49.8194940321359567
 20
171.4415243134899924
 10
50.1898194716484909
 20
171.5900774055450881
 10
50.6227501806868929
 20
171.7611646853463014
 10
51.0565845106864273
 20
171.9299480873212929
 10
51.4912734096083966
 20
172.0965190354127969
 10
51.9267863842996178
 20
172.26092426188589
 10
52.363102850390959
 20
172.4231866376478024
 10
52.8002024332332667
 20
172.5833285409979112
 10
53.2130254709732071
 20
172.7323937017912101
 10
53.6265138366658789
 20
172.8796024596269092
 10
54.0406532093104204
 20
173.024967237272989
 10
54.4554278473573774
 20
173.1685065868649076
 10
54.8708186754214822
 20
173.3102534453244914
 10
55.3425445617558296
 20
173.4688536763827926
 10
55.8150090352878294
 20
173.6252453313348099
 10
56.288183590956578
 20
173.7794794315080082
 10
56.7620397237011218
 20
173.9316069982299098
 10
57.2365492855835498
 20
174.0816785223383079
 10
57.7116890493961989
 20
174.2297371851607011
 10
58.187439370650651
 20
174.3758208460637888
 10
58.6637806859042996
 20
174.5199672440261907
 10
59.1634174827731272
 20
174.6689410407749961
 10
59.6636589344992387
 20
174.8158734902704907
 10
60.1644825502928597
 20
174.9608079799888003
 10
60.6658671545498294
 20
175.1037861021794981
 10
61.1677950146243674
 20
175.2448447494531933
 10
61.6702489543543777
 20
175.3840200548218888
 10
62.2738639231382081
 20
175.5485952852309026
 10
62.8781820325420711
 20
175.7105729726789889
 10
63.4831736050108972
 20
175.8700155475436873
 10
64.0888118026879283
 20
176.0269780095501915
 10
64.6950779552191477
 20
176.1814939864844973
 10
65.2911125082686112
 20
176.3308982477336997
 10
65.8877198824437187
 20
176.4779996123612023
 10
66.4848837756592275
 20
176.6228263217832932
 10
67.082588213699978
 20
176.7654067294373021
 10
67.6916994980068409
 20
176.9083010950062942
 10
68.3013390811120473
 20
177.0489265128067871
 10
68.9114908125368117
 20
177.1873131540386055
 10
69.5221385590591296
 20
177.3234911798431028
 10
70.1332671955371723
 20
177.4574901638048061
 10
70.7339377675926642
 20
177.5870030295114077
 10
71.3350463714696161
 20
177.7144687292253877
 10
71.9365802678757973
 20
177.8399143536522899
 10
72.5385267228208193
 20
177.9633669772804865
 10
73.2556509035070746
 20
178.1077702893207118
 10
73.9733244271240551
 20
178.2494203114744948
 10
74.6915292793233618
 20
178.3883521097897074
 10
75.410247445756994
 20
178.5246007503141072
 10
76.1294610373553269
 20
178.6582021238492075
 10
76.8491530446186175
 20
178.7891979117048891
 10
77.5808043807202807
 20
178.9196616045522035
 10
78.3129149174789632
 20
179.0475277791177859
 10
79.0454672145332324
 20
179.1728427556824954
 10
79.7784440767508727
 20
179.295652450109003
 10
80.5118297181157914
 20
179.4160004544089873
 10
81.2456088549558331
 20
179.5339295321537918
 10
81.9378044337360336
 20
179.6429426871640942
 10
82.6303234256758117
 20
179.7498793236183872
 10
83.3231533181081545
 20
179.8547742855535887
 10
84.0162843996228617
 20
179.9576530066617011
 10
84.7097084970455398
 20
180.058535753201113
 10
85.4839553207867198
 20
180.1687959625880922
 10
86.258545628551218
 20
180.2766232327477951
 10
87.03346808008952
 20
180.3820456636275082
 10
87.8087113351513722
 20
180.4850913551748874
 10
88.5842640534873311
 20
180.5857884073373896
 10
89.3601148948473281
 20
180.6841649200628126
 10
90.1362525189817489
 20
180.7802489932986134
 10
90.9126656889391143
 20
180.8740685701604036
 10
91.6893447406254296
 20
180.9656492057810055
 10
92.4662812348076386
 20
181.0550145956568997
 10
93.2434667645823225
 20
181.1421883861980859
 10
94.020892923047299
 20
181.2271942238145073
 10
94.7985513032996465
 20
181.310055754915993
 10
95.5764334984370691
 20
181.3907966259125999
 10
96.3545311015567023
 20
181.4694404832142141
 10
97.132835705755852
 20
181.546010973230608
 10
97.9484152954774032
 20
181.624029626176906
 10
98.764203207188288
 20
181.699825884248412
 10
99.5801907768489087
 20
181.7734268518991883
 10
100.3963705061726017
 20
181.8448595365163953
 10
101.2127349657234987
 20
181.9141509397543075
 10
102.0292767260651061
 20
181.9813280632671137
 10
102.9202430363421001
 20
182.0522325991840944
 10
103.8114018621416932
 20
182.1206881571856115
 10
104.7027435580344985
 20
182.1867297927628044
 10
105.5942584785923941
 20
182.2503925614066986
 10
106.4859369783859933
 20
182.3117115186082913
 10
107.3777696051211024
 20
182.3707213972903105
 10
108.2697486609849022
 20
182.4274540000772902
 10
109.2510866775976979
 20
182.4872657005614087
 10
110.2325847020639031
 20
182.5443987180402985
 10
111.2142337453859966
 20
182.5988932827397093
 10
112.1960248185675937
 20
182.6507896248849931
 10
113.1779489326114003
 20
182.7001279747018998
 10
114.159997098520293
 20
182.7469485624160086
 10
115.1421603272978018
 20
182.7912916182528136
 10
116.124429630277703
 20
182.833197371266607
 10
117.1067966567549945
 20
182.8727037942562959
 10
118.0892550234297005
 20
182.9098419019607888
 10
119.0542525882923002
 20
182.9440402888340884
 10
120.019326778392994
 20
182.9760109311783935
 10
120.9844719044843941
 20
183.0057819450279908
 10
121.9496822773188001
 20
183.033381446417593
 10
122.9481896987372949
 20
183.0596762324510109
 10
123.9467545522723952
 20
183.0837085980708991
 10
124.9453705405264969
 20
183.1055096647639004
 10
125.9440313667938938
 20
183.1251105532386987
 10
126.9427311889886028
 20
183.1425418725692964
 10
127.9236305886265939
 20
183.1575783853203063
 10
128.9045590016748122
 20
183.1705777560179911
 10
129.8855122657581092
 20
183.1815674386733974
 10
130.8664862185009099
 20
183.1905748872976858
 10
132.0343335560154969
 20
183.1987515637275123
 10
133.2021972924466979
 20
183.2042041802457959
 10
134.3700704051069863
 20
183.2069790567882137
 10
135.5379461385018089
 20
183.2071208511700888
 10
136.7058189844138099
 20
183.2046664623343872
 10
137.8736837982800125
 20
183.1996505270545015
 10
139.0415354355799025
 20
183.1921076818393885
 10
140.2093687517931073
 20
183.1820725631978064
 10
141.3771786023991126
 20
183.1695798076385984
 10
142.5449598428780007
 20
183.154664051670693
 10
143.7127073354438949
 20
183.137359950243308
 10
144.8804165964207868
 20
183.1177039492403082
 10
145.9813616371546061
 20
183.0970526720051907
 10
147.0822671115379876
 20
183.0743794790435004
 10
148.1831303666120903
 20
183.0497179445258098
 10
149.2839487494171067
 20
183.0231016426228052
 10
150.3847196069939116
 20
182.9945641475050877
 10
151.5521489593166109
 20
182.9622351609241093
 10
152.7195187017977105
 20
182.9278228755898965
 10
153.8868256696260062
 20
182.8913673475508119
 10
155.0540671330242901
 20
182.8529086931559959
 10
156.221241654342208
 20
182.8124872078595899
 10
157.388348034726107
 20
182.7701432202156866
 10
158.7637771586472013
 20
182.7178245513464958
 10
160.1391080048699962
 20
182.6629575061992909
 10
161.514338610784506
 20
182.6056081055124025
 10
162.8894670137806884
 20
182.5458423700243884
 10
164.2925518720124103
 20
182.4824346367144017
 10
165.6955262105051077
 20
182.4166485409834877
 10
167.0983883419920915
 20
182.3485346228127923
 10
168.5011368565014891
 20
182.2781297613300069
 10
169.9037703506946002
 20
182.2054705089342974
 10
171.3062874212324118
 20
182.1305934180248869
 10
172.7086866647753993
 20
182.0535350410011972
 10
174.1079072887588097
 20
181.9745070451571962
 10
175.5070078079448024
 20
181.8933799778951936
 10
176.9059868302213943
 20
181.8101901582791129
 10
178.3048433979726042
 20
181.724975042600505
 10
179.7035775217694891
 20
181.6377746212284876
 10
181.0772152035686133
 20
181.5502379309934042
 10
182.4507350456871109
 20
181.460863321340895
 10
183.8241371820668917
 20
181.3696890026888013
 10
185.1974217466502921
 20
181.2767531854551066
 10
186.832131212705292
 20
181.1638715533499919
 10
188.4666744678773966
 20
181.0486120873856919
 10
190.1010517944789058
 20
180.9310391038715977
 10
191.7352644260039938
 20
180.811214358239198
 10
193.3693143878722083
 20
180.6891974738059048
 10
195.0032037296446106
 20
180.5650480088947063
 10
196.6369345061463889
 20
180.4388255758146045
 10
198.2705094842764026
 20
180.3105970895385042
 10
199.9039328562539879
 20
180.1804440823738958
 10
201.5372089841299896
 20
180.0484498283346113
 10
203.1703422299551107
 20
179.9146976014349093
 10
204.8033368141433925
 20
179.7792682522295138
 10
206.7277628919505901
 20
179.6175707571352973
 10
208.6520021104026057
 20
179.4536681407224989
 10
210.5760566971719072
 20
179.2876126597062978
 10
212.4999289321106062
 20
179.1194570748679098
 10
214.4898567666726024
 20
178.9433736324101858
 10
216.4795996458292962
 20
178.7652081329001987
 10
218.4691637757522074
 20
178.5850545521726076
 10
220.4585553640415867
 20
178.403006863716314
 10
222.4477809433003017
 20
178.2191585074623106
 10
224.4013300810354963
 20
178.0369296768294873
 10
226.3547330797516963
 20
177.8531401006185888
 10
228.3079969101059135
 20
177.6678768543096965
 10
230.2611275535967081
 20
177.4812148663272069
 10
233.0510915506220044
 20
177.2122345949634905
 10
235.8408043461859904
 20
176.9406601324141945
 10
238.6302778361418007
 20
176.666640024761989
 10
241.4195238321817953
 20
176.3903138849846073
 10
244.2085541233676906
 20
176.111818923968201
 10
247.3210727932591908
 20
175.7986228117150915
 10
250.4333685103617881
 20
175.4832170724527032
 10
253.5454742631949898
 20
175.1659399251373088
 10
256.6574219554195793
 20
174.8471180954670103
 10
259.7692327607680909
 20
174.5269647092364096
 10
262.8809214735990736
 20
174.2056257294362922
 10
265.992500006068326
 20
173.8832204367350869
 10
269.1039791765820723
 20
173.5598581079071039
 10
275.3267407199900845
 20
172.9112436516917057
 10
281.5493966249472919
 20
172.2616160927892963
 10
287.7719453182144775
 20
171.6109615397714947
 10
293.9944422364245042
 20
170.9598141459881049
 10
297.9058449596993796
 20
170.5516593024202905
 10
301.8174395725607724
 20
170.1453440436552
 10
305.7292170533365834
 20
169.740798251285014
 10
309.6411740058736086
 20
169.337995198293811
 10
313.5533244899013994
 20
168.9370638871810115
 10
316.6654098326021085
 20
168.6195820455448029
 10
319.777633692294728
 20
168.3034757142868045
 10
322.8900129616171739
 20
167.9889101942750926
 10
326.0025709339000741
 20
167.6761002496282913
 10
329.1153230949777253
 20
167.3652093183355873
 10
332.2282772670353097
 20
167.056350308890103
 10
335.3414409605646824
 20
166.7496340746768055
 10
338.4548222702039766
 20
166.4451741727793035
 10
340.9012156080885916
 20
166.2076459957206112
 10
343.3477706259388924
 20
165.9717215546558009
 10
345.7944946371642914
 20
165.7375045511776932
 10
348.2413812087231122
 20
165.5050915409736092
 10
350.6884323306645115
 20
165.2745879824423128
 10
353.1356868936401838
 20
165.0461355592418897
 10
355.5831797730655808
 20
164.8198692896374951
 10
358.0308669853752122
 20
164.5958298681138956
 10
360.2241094531166823
 20
164.3969874131443873
 10
362.4175063683417193
 20
164.1999568846235036
 10
364.6111500004196841
 20
164.0047645668381904
 10
366.8050365334287903
 20
163.8114521197528859
 10
368.9990050117510805
 20
163.6200861590239981
 10
371.1537691291325132
 20
163.4340875796150954
 10
373.3087346354938063
 20
163.2500177234533112
 10
375.4642137532446782
 20
163.0678580382385121
 10
377.6200161589989079
 20
162.8876879572999883
 10
378.8517872996573033
 20
162.7856941132677093
 10
380.0833205688696808
 20
162.6844440745468034
 10
381.3147315822549217
 20
162.5840541757632991
 10
382.5463723070259903
 20
162.4847201655541937
 10
383.7786049831079822
 20
162.3866412441821012
 10
385.0116978752370756
 20
162.2900559918921886
 10
386.2449854073702227
 20
162.195594311728712
 10
386.8777583848727204
 20
162.1482065655974054
 10
387.5101031040546786
 20
162.101719327430402
 10
388.1418838002223879
 20
162.0562479494716115
 10
388.7734343341983845
 20
162.0118987599020102
 10
389.4054826496426926
 20
161.9687705144255006
 10
390.0387689016226886
 20
161.9269617340983132
 10
390.5976725431240197
 20
161.8913397082835104
 10
391.1581235960280196
 20
161.856909213905908
 10
391.7184450644235767
 20
161.8238547722812939
 10
392.0477480433609117
 20
161.8051031690993113
 10
392.3758784103001744
 20
161.7869421212722898
 10
392.7024180616240869
 20
161.769413420335809
 10
393.0269488937154847
 20
161.7525588578257043
  0
LINE
  5
77
100
AcDbEntity
  8
Geometries
 62
256
370
0
 48
1.0
  6
Continuous
100
AcDbLine
 10
239.8401165223166913
 20
158.1713476948227139
 30
0.0
 11
239.8560918971325862
 21
170.3714933764973125
 31
0.0
  0
LINE
  5
78
100
AcDbEntity
  8
Geometries
 62
256
370
0
 48
1.0
  6
Continuous
100
AcDbLine
 10
224.1198939549215083
 20
170.3714933734821955
 30
0.0
 11
224.1039185801056135
 21
158.1713476918077106
 31
0.0
  0
LWPOLYLINE
  5
79
100
AcDbEntity
  8
Geometries
 62
256
370
0
 48
1.0
  6
Continuous
100
AcDbPolyline
 90
37
 70
128
 10
230.03466904235421
 20
158.1713476929440105
 10
229.9783016054005884
 20
158.1702339148262979
 10
229.9211400670411081
 20
158.1668240381831083
 10
229.8633190228723038
 20
158.1610207852625933
 10
229.8049853336981982
 20
158.1527355018251058
 10
229.7462975347386873
 20
158.1418897159506969
 10
229.6874250105489921
 20
158.1284166749626081
 10
229.6319083032159085
 20
158.1132588699097994
 10
229.576543704155398
 20
158.0956847135066994
 10
229.5214939000275081
 20
158.0756736168650889
 10
229.4669258588980085
 20
158.0532182594174913
 10
229.4130094073296107
 20
158.0283252533535858
 10
229.3599156930459912
 20
158.001015638697595
 10
229.3078155582836075
 20
157.9713251892925996
 10
229.2568778529112876
 20
157.9393045139539993
 10
229.2072677196186987
 20
157.9050189418659045
 10
229.1591448857062119
 20
157.8685481867617
 10
229.1134768195196898
 20
157.8306921472801889
 10
229.0695271631126104
 20
157.7909193508531018
 10
229.0274229852448116
 20
157.7493419478643943
 10
228.9872807152478913
 20
157.7060823002140921
 10
228.9485325123827977
 20
157.6604435491962874
 10
228.9120238370630886
 20
157.6133439104320928
 10
228.8778374792576926
 20
157.5649369805668982
 10
228.8460413652568093
 20
157.5153814794591085
 10
228.8166882376648914
 20
157.4648396043423872
 10
228.7902735292562966
 20
157.4143988597911061
 10
228.7662727898396895
 20
157.3633204876796015
 10
228.7446934995925005
 20
157.3117588804927891
 10
228.72552982768741
 20
157.2598658715224076
 10
228.7084458555873994
 20
157.2067258165297972
 10
228.6938253455793131
 20
157.1535468096707859
 10
228.6816239079761885
 20
157.1004744162954978
 10
228.6717862735654876
 20
157.047646835731797
 10
228.6642474301077073
 20
156.9951941251310075
 10
228.6589338023320011
 20
156.9432375861281912
 10
228.6557644504619873
 20
156.8918893111257091
  0
LINE
  5
7A
100
AcDbEntity
  8
0
 62
256
370
-1
 48
1.0
  6
ByLayer
100
AcDbLine
 10
233.2891804622798588
 20
158.1699089844526327
 30
0.0
 11
233.28916528930651
 21
158.1713476935676113
 31
0.0
  0
LINE
  5
7B
100
AcDbEntity
  8
0
 62
256
370
-1
 48
1.0
  6
ByLayer
100
AcDbLine
 10
230.03466904235421
 20
158.1713476929440105
 30
0.0
 11
230.0349999999999966
 21
158.171999999999997
 31
0.0
  0
ENDSEC
  0
SECTION
  2
OBJECTS
  0
DICTIONARY
  5
C
100
AcDbDictionary
280
0
281
1
  3
ACAD_GROUP
350
D
  3
ACAD_LAYOUT
350
1A
  3
ACAD_MLINESTYLE
350
17
  3
ACAD_PLOTSETTINGS
350
19
  3
ACAD_PLOTSTYLENAME
350
E
  3
AcDbVariableDictionary
350
7C
  3
QCAD_OBJECTS
350
7D
  0
DICTIONARY
  5
D
100
AcDbDictionary
280
0
281
1
  0
ACDBDICTIONARYWDFLT
  5
E
100
AcDbDictionary
281
1
  3
Normal
350
F
100
AcDbDictionaryWithDefault
340
F
  0
ACDBPLACEHOLDER
  5
F
  0
DICTIONARY
  5
17
100
AcDbDictionary
280
0
281
1
  3
Standard
350
18
  0
MLINESTYLE
  5
18
100
AcDbMlineStyle
  2
STANDARD
 70
0
  3

 62
256
 51
90.0
 52
90.0
 71
2
 49
0.5
 62
256
  6
BYLAYER
 49
-0.5
 62
256
  6
BYLAYER
  0
DICTIONARY
  5
19
100
AcDbDictionary
280
0
281
1
  0
DICTIONARY
  5
1A
100
AcDbDictionary
281
1
  3
Layout1
350
1E
  3
Layout2
350
26
  3
Model
350
22
  0
LAYOUT
  5
1E
100
AcDbPlotSettings
  1

  2
none_device
  4

  6

 40
0.0
 41
0.0
 42
0.0
 43
0.0
 44
0.0
 45
0.0
 46
0.0
 47
0.0
 48
0.0
 49
0.0
140
0.0
141
0.0
142
1.0
143
1.0
 70
688
 72
0
 73
0
 74
5
  7

 75
16
147
1.0
148
0.0
149
0.0
100
AcDbLayout
  1
Layout1
 70
1
 71
1
 10
0.0
 20
0.0
 11
420.0
 21
297.0
 12
0.0
 22
0.0
 32
0.0
 14
100000000000000000000.0
 24
100000000000000000000.0
 34
100000000000000000000.0
 15
-100000000000000000000.0
 25
-100000000000000000000.0
 35
-100000000000000000000.0
146
0.0
 13
0.0
 23
0.0
 33
0.0
 16
1.0
 26
0.0
 36
0.0
 17
0.0
 27
1.0
 37
0.0
 76
0
330
1B
  0
LAYOUT
  5
22
100
AcDbPlotSettings
  1

  2
none_device
  4

  6

 40
0.0
 41
0.0
 42
0.0
 43
0.0
 44
0.0
 45
0.0
 46
0.0
 47
0.0
 48
0.0
 49
0.0
140
0.0
141
0.0
142
1.0
143
1.0
 70
1712
 72
0
 73
0
 74
0
  7

 75
0
147
1.0
148
0.0
149
0.0
100
AcDbLayout
  1
Model
 70
1
 71
0
 10
0.0
 20
0.0
 11
12.0
 21
9.0
 12
0.0
 22
0.0
 32
0.0
 14
0.0
 24
0.0
 34
0.0
 15
0.0
 25
0.0
 35
0.0
146
0.0
 13
0.0
 23
0.0
 33
0.0
 16
1.0
 26
0.0
 36
0.0
 17
0.0
 27
1.0
 37
0.0
 76
0
330
1F
  0
LAYOUT
  5
26
100
AcDbPlotSettings
  1

  2
none_device
  4

  6

 40
0.0
 41
0.0
 42
0.0
 43
0.0
 44
0.0
 45
0.0
 46
0.0
 47
0.0
 48
0.0
 49
0.0
140
0.0
141
0.0
142
1.0
143
1.0
 70
688
 72
0
 73
0
 74
5
  7

 75
16
147
1.0
148
0.0
149
0.0
100
AcDbLayout
  1
Layout2
 70
1
 71
2
 10
0.0
 20
0.0
 11
12.0
 21
9.0
 12
0.0
 22
0.0
 32
0.0
 14
0.0
 24
0.0
 34
0.0
 15
0.0
 25
0.0
 35
0.0
146
0.0
 13
0.0
 23
0.0
 33
0.0
 16
1.0
 26
0.0
 36
0.0
 17
0.0
 27
1.0
 37
0.0
 76
0
330
23
  0
DICTIONARY
  5
7C
100
AcDbDictionary
281
1
  3
DIMASSOC
350
7F
  3
HIDETEXT
350
7E
  0
DICTIONARYVAR
  5
7E
100
DictionaryVariables
280
0
  1
2
  0
DICTIONARYVAR
  5
7F
100
DictionaryVariables
280
0
  1
1
  0
DICTIONARY
  5
7D
100
AcDbDictionary
281
1
  3
ColorSettings/BackgroundColor
350
80
  3
ColorSettings/ColorMode
350
81
  3
Grid/DisplayGrid00
350
82
  3
Grid/DisplayGrid01
350
83
  3
Grid/DisplayGrid02
350
84
  3
Grid/DisplayGrid03
350
85
  3
Grid/GridSpacingX00
350
86
  3
Grid/GridSpacingX01
350
87
  3
Grid/GridSpacingX02
350
88
  3
Grid/GridSpacingX03
350
89
  3
Grid/GridSpacingY00
350
8A
  3
Grid/GridSpacingY01
350
8B
  3
Grid/GridSpacingY02
350
8C
  3
Grid/GridSpacingY03
350
8D
  3
Grid/IsometricGrid00
350
8E
  3
Grid/IsometricGrid01
350
8F
  3
Grid/IsometricGrid02
350
90
  3
Grid/IsometricGrid03
350
91
  3
Grid/IsometricProjection00
350
92
  3
Grid/IsometricProjection01
350
93
  3
Grid/IsometricProjection02
350
94
  3
Grid/IsometricProjection03
350
95
  3
Grid/MetaGridSpacingX00
350
96
  3
Grid/MetaGridSpacingX01
350
97
  3
Grid/MetaGridSpacingX02
350
98
  3
Grid/MetaGridSpacingX03
350
99
  3
Grid/MetaGridSpacingY00
350
9A
  3
Grid/MetaGridSpacingY01
350
9B
  3
Grid/MetaGridSpacingY02
350
9C
  3
Grid/MetaGridSpacingY03
350
9D
  3
MultiPageSettings/Columns
350
9E
  3
MultiPageSettings/GlueMarginsBottom
350
9F
  3
MultiPageSettings/GlueMarginsLeft
350
A0
  3
MultiPageSettings/GlueMarginsRight
350
A1
  3
MultiPageSettings/GlueMarginsTop
350
A2
  3
MultiPageSettings/PrintCropMarks
350
A3
  3
MultiPageSettings/Rows
350
A4
  3
PageSettings/OffsetX
350
A5
  3
PageSettings/OffsetY
350
A6
  3
PageSettings/PageOrientation
350
A7
  3
PageSettings/PaperHeight
350
A8
  3
PageSettings/PaperWidth
350
A9
  3
PageSettings/Scale
350
AA
  3
PageSettings/ShowPaperBorders
350
AB
  3
PageTagSettings/EnablePageTags
350
AC
  3
PageTagSettings/TagAlignment
350
AD
  3
PageTagSettings/TagFont
350
AE
  3
PageTagSettings/TagPosition
350
AF
  3
QCADVersion
350
B0
  3
UnitSettings/PaperUnit
350
B1
  3
ViewportCenter
350
B2
  3
ViewportHeight
350
B3
  3
ViewportWidth
350
B4
  0
XRECORD
  5
80
330
7D
100
AcDbXrecord
280
1
1000
White
  0
XRECORD
  5
81
330
7D
100
AcDbXrecord
280
1
1000
FullColor
  0
XRECORD
  5
82
330
7D
100
AcDbXrecord
280
1
290
1
  0
XRECORD
  5
83
330
7D
100
AcDbXrecord
280
1
290
1
  0
XRECORD
  5
84
330
7D
100
AcDbXrecord
280
1
290
1
  0
XRECORD
  5
85
330
7D
100
AcDbXrecord
280
1
290
1
  0
XRECORD
  5
86
330
7D
100
AcDbXrecord
280
1
1000
auto
  0
XRECORD
  5
87
330
7D
100
AcDbXrecord
280
1
1000
auto
  0
XRECORD
  5
88
330
7D
100
AcDbXrecord
280
1
1000
auto
  0
XRECORD
  5
89
330
7D
100
AcDbXrecord
280
1
1000
auto
  0
XRECORD
  5
8A
330
7D
100
AcDbXrecord
280
1
1000
auto
  0
XRECORD
  5
8B
330
7D
100
AcDbXrecord
280
1
1000
auto
  0
XRECORD
  5
8C
330
7D
100
AcDbXrecord
280
1
1000
auto
  0
XRECORD
  5
8D
330
7D
100
AcDbXrecord
280
1
1000
auto
  0
XRECORD
  5
8E
330
7D
100
AcDbXrecord
280
1
290
0
  0
XRECORD
  5
8F
330
7D
100
AcDbXrecord
280
1
290
0
  0
XRECORD
  5
90
330
7D
100
AcDbXrecord
280
1
290
0
  0
XRECORD
  5
91
330
7D
100
AcDbXrecord
280
1
290
0
  0
XRECORD
  5
92
330
7D
100
AcDbXrecord
280
1
 90
65537
  0
XRECORD
  5
93
330
7D
100
AcDbXrecord
280
1
 90
65537
  0
XRECORD
  5
94
330
7D
100
AcDbXrecord
280
1
 90
65537
  0
XRECORD
  5
95
330
7D
100
AcDbXrecord
280
1
 90
65537
  0
XRECORD
  5
96
330
7D
100
AcDbXrecord
280
1
1000
auto
  0
XRECORD
  5
97
330
7D
100
AcDbXrecord
280
1
1000
auto
  0
XRECORD
  5
98
330
7D
100
AcDbXrecord
280
1
1000
auto
  0
XRECORD
  5
99
330
7D
100
AcDbXrecord
280
1
1000
auto
  0
XRECORD
  5
9A
330
7D
100
AcDbXrecord
280
1
1000
auto
  0
XRECORD
  5
9B
330
7D
100
AcDbXrecord
280
1
1000
auto
  0
XRECORD
  5
9C
330
7D
100
AcDbXrecord
280
1
1000
auto
  0
XRECORD
  5
9D
330
7D
100
AcDbXrecord
280
1
1000
auto
  0
XRECORD
  5
9E
330
7D
100
AcDbXrecord
280
1
 90
1
  0
XRECORD
  5
9F
330
7D
100
AcDbXrecord
280
1
 40
10.0
  0
XRECORD
  5
A0
330
7D
100
AcDbXrecord
280
1
 40
10.0
  0
XRECORD
  5
A1
330
7D
100
AcDbXrecord
280
1
 40
10.0
  0
XRECORD
  5
A2
330
7D
100
AcDbXrecord
280
1
 40
10.0
  0
XRECORD
  5
A3
330
7D
100
AcDbXrecord
280
1
290
0
  0
XRECORD
  5
A4
330
7D
100
AcDbXrecord
280
1
 90
1
  0
XRECORD
  5
A5
330
7D
100
AcDbXrecord
280
1
 40
0.0
  0
XRECORD
  5
A6
330
7D
100
AcDbXrecord
280
1
 40
0.0
  0
XRECORD
  5
A7
330
7D
100
AcDbXrecord
280
1
1000
Portrait
  0
XRECORD
  5
A8
330
7D
100
AcDbXrecord
280
1
 40
297.0
  0
XRECORD
  5
A9
330
7D
100
AcDbXrecord
280
1
 40
210.0
  0
XRECORD
  5
AA
330
7D
100
AcDbXrecord
280
1
1000
1:1
  0
XRECORD
  5
AB
330
7D
100
AcDbXrecord
280
1
290
1
  0
XRECORD
  5
AC
330
7D
100
AcDbXrecord
280
1
290
0
  0
XRECORD
  5
AD
330
7D
100
AcDbXrecord
280
1
1000
Inside
  0
XRECORD
  5
AE
330
7D
100
AcDbXrecord
280
1
1000
Arial,10,-1,5,50,0,0,0,0,0
  0
XRECORD
  5
AF
330
7D
100
AcDbXrecord
280
1
1000
TopLeft
  0
XRECORD
  5
B0
330
7D
100
AcDbXrecord
280
1
1000
3.32.2
  0
XRECORD
  5
B1
330
7D
100
AcDbXrecord
280
1
 90
4
  0
XRECORD
  5
B3
330
7D
100
AcDbXrecord
280
1
 40
9.4586886275677671
  0
XRECORD
  5
B4
330
7D
100
AcDbXrecord
280
1
 40
20.0568128953215137
  0
ENDSEC
  0
EOF
