999
dxflib 3.26.4.0
  0
SECTION
  2
HEADER
  9
$ACADVER
  1
AC1015
  9
$HANDSEED
  5
FFFF
  9
$ANGBASE
 50
0.0
  9
$ANGDIR
 70
0
  9
$ATTMODE
 70
1
  9
$AUNITS
 70
0
  9
$AUPREC
 70
0
  9
$CECOLOR
 62
256
  9
$CELTSCALE
 40
1.0
  9
$CHAMFERA
 40
0.0
  9
$CHAMFERB
 40
0.0
  9
$CHAMFERC
 40
0.0
  9
$CHAMFERD
 40
0.0
  9
$CMLJUST
 70
0
  9
$CMLSCALE
 40
20.0
  9
$DIMADEC
 70
2
  9
$DIMALT
 70
0
  9
$DIMALTD
 70
3
  9
$DIMALTF
 40
0.0393700787401575
  9
$DIMALTRND
 40
0.0
  9
$DIMALTTD
 70
3
  9
$DIMALTTZ
 70
0
  9
$DIMALTU
 70
2
  9
$DIMALTZ
 70
0
  9
$DIMAPOST
  1

  9
$DIMASZ
 40
2.5
  9
$DIMATFIT
 70
3
  9
$DIMAUNIT
 70
0
  9
$DIMAZIN
 70
0
  9
$DIMBLK
  1
0
  9
$DIMBLK1
  1
0
  9
$DIMBLK2
  1
0
  9
$DIMCEN
 40
2.5
  9
$DIMCLRD
 70
0
  9
$DIMCLRE
 70
0
  9
$DIMDEC
 70
2
  9
$DIMDLE
 40
0.0
  9
$DIMDLI
 40
3.75
  9
$DIMDSEP
 70
44
  9
$DIMEXE
 40
1.25
  9
$DIMEXO
 40
0.625
  9
$DIMFRAC
 70
2
  9
$DIMGAP
 40
0.7
  9
$DIMJUST
 70
0
  9
$DIMLDRBLK
  1

  9
$DIMLFAC
 40
1.0
  9
$DIMLIM
 70
0
  9
$DIMLUNIT
 70
2
  9
$DIMLWD
 70
15
  9
$DIMLWE
 70
15
  9
$DIMPOST
  1

  9
$DIMRND
 40
0.01
  9
$DIMSAH
 70
0
  9
$DIMSCALE
 40
1.0
  9
$DIMSD1
 70
0
  9
$DIMSD2
 70
0
  9
$DIMSE1
 70
0
  9
$DIMSE2
 70
0
  9
$DIMSOXD
 70
0
  9
$DIMTAD
 70
1
  9
$DIMTDEC
 70
2
  9
$DIMTFAC
 40
1.0
  9
$DIMTIH
 70
0
  9
$DIMTIX
 70
0
  9
$DIMTM
 40
0.0
  9
$DIMTOFL
 70
1
  9
$DIMTOH
 70
0
  9
$DIMTOL
 70
0
  9
$DIMTOLJ
 70
0
  9
$DIMTP
 40
0.0
  9
$DIMTSZ
 40
0.0
  9
$DIMTVP
 40
0.0
  9
$DIMTXSTY
  7
Standard
  9
$DIMTXT
 40
2.5
  9
$DIMTZIN
 70
8
  9
$DIMUPT
 70
0
  9
$DIMZIN
 70
8
  9
$DISPSILH
 70
0
  9
$DWGCODEPAGE
  3
ANSI_1252
  9
$ELEVATION
 40
0.0
  9
$EXTMAX
 10
-100000000000000000000.0
 20
-100000000000000000000.0
 30
-100000000000000000000.0
  9
$EXTMIN
 10
100000000000000000000.0
 20
100000000000000000000.0
 30
100000000000000000000.0
  9
$FILLETRAD
 40
0.0
  9
$FILLMODE
 70
1
  9
$INSBASE
 10
0.0
 20
0.0
 30
0.0
  9
$INSUNITS
 70
4
  9
$LIMCHECK
 70
0
  9
$LIMMAX
 10
420.0
 20
297.0
  9
$LIMMIN
 10
0.0
 20
0.0
  9
$LTSCALE
 40
1.0
  9
$LUNITS
 70
2
  9
$LUPREC
 70
4
  9
$MAXACTVP
 70
64
  9
$MEASUREMENT
 70
1
  9
$MIRRTEXT
 70
1
  9
$ORTHOMODE
 70
0
  9
$PDMODE
 70
0
  9
$PDSIZE
 40
0.0
  9
$PELEVATION
 40
0.0
  9
$PEXTMAX
 10
0.0
 20
0.0
 30
0.0
  9
$PEXTMIN
 10
0.0
 20
0.0
 30
0.0
  9
$PINSBASE
 10
0.0
 20
0.0
 30
0.0
  9
$PLIMCHECK
 70
0
  9
$PLIMMAX
 10
277.0
 20
202.5
  9
$PLIMMIN
 10
-20.0
 20
-7.5
  9
$PLINEGEN
 70
0
  9
$PLINEWID
 40
0.0
  9
$PROXYGRAPHICS
 70
1
  9
$PSLTSCALE
 70
1
  9
$PUCSNAME
  2

  9
$PUCSORG
 10
0.0
 20
0.0
 30
0.0
  9
$PUCSXDIR
 10
1.0
 20
0.0
 30
0.0
  9
$PUCSYDIR
 10
0.0
 20
1.0
 30
0.0
  9
$QTEXTMODE
 70
0
  9
$REGENMODE
 70
1
  9
$SHADEDGE
 70
3
  9
$SHADEDIF
 70
70
  9
$SKETCHINC
 40
1.0
  9
$SKPOLY
 70
0
  9
$SPLFRAME
 70
0
  9
$SPLINESEGS
 70
8
  9
$SPLINETYPE
 70
6
  9
$SURFTAB1
 70
6
  9
$SURFTAB2
 70
6
  9
$SURFTYPE
 70
6
  9
$SURFU
 70
6
  9
$SURFV
 70
6
  9
$TEXTSIZE
 40
2.5
  9
$TEXTSTYLE
  7
Standard
  9
$THICKNESS
 40
0.0
  9
$TILEMODE
 70
0
  9
$TRACEWID
 40
1.0
  9
$TREEDEPTH
 70
3020
  9
$UCSNAME
  2

  9
$UCSORG
 10
0.0
 20
0.0
 30
0.0
  9
$UCSXDIR
 10
1.0
 20
0.0
 30
0.0
  9
$UCSYDIR
 10
0.0
 20
1.0
 30
0.0
  9
$UNITMODE
 70
0
  9
$USERI1
 70
0
  9
$USERI2
 70
0
  9
$USERI3
 70
0
  9
$USERI4
 70
0
  9
$USERI5
 70
0
  9
$USERR1
 40
0.0
  9
$USERR2
 40
0.0
  9
$USERR3
 40
0.0
  9
$USERR4
 40
0.0
  9
$USERR5
 40
0.0
  9
$USRTIMER
 70
1
  9
$VISRETAIN
 70
1
  0
ENDSEC
  0
SECTION
  2
TABLES
  0
TABLE
  2
VPORT
  5
8
100
AcDbSymbolTable
 70
1
  0
VPORT
  5
30
100
AcDbSymbolTableRecord
100
AcDbViewportTableRecord
  2
*Active
 70
0
 10
0.0
 20
0.0
 11
1.0
 21
1.0
 12
286.3055555555554861
 22
148.5
 13
0.0
 23
0.0
 14
10.0
 24
10.0
 15
10.0
 25
10.0
 16
0.0
 26
0.0
 36
1.0
 17
0.0
 27
0.0
 37
0.0
 40
297.0
 41
1.92798353909465
 42
50.0
 43
0.0
 44
0.0
 50
0.0
 51
0.0
 71
0
 72
100
 73
1
 74
3
 75
1
 76
1
 77
0
 78
0
281
0
 65
1
110
0.0
120
0.0
130
0.0
111
1.0
121
0.0
131
0.0
112
0.0
122
1.0
132
0.0
 79
0
146
0.0
  0
ENDTAB
  0
TABLE
  2
LTYPE
  5
5
100
AcDbSymbolTable
 70
46
  0
LTYPE
  5
16
100
AcDbSymbolTableRecord
100
AcDbLinetypeTableRecord
  2
Continuous
 70
0
  3
Solid line
 72
65
 73
0
 40
0.0
  0
LTYPE
  5
31
100
AcDbSymbolTableRecord
100
AcDbLinetypeTableRecord
  2
ACAD_ISO08W100
 70
0
  3
ISO long-dash short-dash ____ __ ____ __ ____ _
 72
65
 73
4
 40
36.0
 49
24.0
 74
0
 49
-3.0
 74
0
 49
6.0
 74
0
 49
-3.0
 74
0
  0
LTYPE
  5
32
100
AcDbSymbolTableRecord
100
AcDbLinetypeTableRecord
  2
ACAD_ISO04W100
 70
0
  3
ISO long-dash dot ____ . ____ . ____ . ____ . _
 72
65
 73
4
 40
30.0
 49
24.0
 74
0
 49
-3.0
 74
0
 49
0.0
 74
0
 49
-3.0
 74
0
  0
LTYPE
  5
33
100
AcDbSymbolTableRecord
100
AcDbLinetypeTableRecord
  2
DASHDOTX2
 70
0
  3
Dash dot (2x) ____  .  ____  .  ____  .  ___
 72
65
 73
4
 40
50.7999999999999972
 49
25.3999999999999986
 74
0
 49
-12.6999999999999993
 74
0
 49
0.0
 74
0
 49
-12.6999999999999993
 74
0
  0
LTYPE
  5
34
100
AcDbSymbolTableRecord
100
AcDbLinetypeTableRecord
  2
ACAD_ISO12W100
 70
0
  3
ISO dash double-dot __ . . __ . . __ . . __ . . 
 72
65
 73
6
 40
21.0
 49
12.0
 74
0
 49
-3.0
 74
0
 49
0.0
 74
0
 49
-3.0
 74
0
 49
0.0
 74
0
 49
-3.0
 74
0
  0
LTYPE
  5
35
100
AcDbSymbolTableRecord
100
AcDbLinetypeTableRecord
  2
CENTERX2
 70
0
  3
Center (2x) ________  __  ________  __  _____
 72
65
 73
4
 40
101.6000000000000085
 49
63.5
 74
0
 49
-12.6999999999999993
 74
0
 49
12.6999999999999993
 74
0
 49
-12.6999999999999993
 74
0
  0
LTYPE
  5
36
100
AcDbSymbolTableRecord
100
AcDbLinetypeTableRecord
  2
DOT
 70
0
  3
Dot . . . . . . . . . . . . . . . . . . . . . . . .
 72
65
 73
2
 40
6.3499999999999996
 49
0.0
 74
0
 49
-6.3499999999999996
 74
0
  0
LTYPE
  5
37
100
AcDbSymbolTableRecord
100
AcDbLinetypeTableRecord
  2
BORDER
 70
0
  3
Border __ __ . __ __ . __ __ . __ __ . __ __ .
 72
65
 73
6
 40
44.4499999999999957
 49
12.6999999999999993
 74
0
 49
-6.3499999999999996
 74
0
 49
12.6999999999999993
 74
0
 49
-6.3499999999999996
 74
0
 49
0.0
 74
0
 49
-6.3499999999999996
 74
0
  0
LTYPE
  5
38
100
AcDbSymbolTableRecord
100
AcDbLinetypeTableRecord
  2
PHANTOMX2
 70
0
  3
Phantom (2x) ____________    ____    ____   _
 72
65
 73
6
 40
127.0000000000000142
 49
63.5
 74
0
 49
-12.6999999999999993
 74
0
 49
12.6999999999999993
 74
0
 49
-12.6999999999999993
 74
0
 49
12.6999999999999993
 74
0
 49
-12.6999999999999993
 74
0
  0
LTYPE
  5
14
100
AcDbSymbolTableRecord
100
AcDbLinetypeTableRecord
  2
ByBlock
 70
0
  3

 72
65
 73
0
 40
0.0
  0
LTYPE
  5
39
100
AcDbSymbolTableRecord
100
AcDbLinetypeTableRecord
  2
DASHDOT
 70
0
  3
Dash dot __ . __ . __ . __ . __ . __ . __ . __
 72
65
 73
4
 40
25.3999999999999986
 49
12.6999999999999993
 74
0
 49
-6.3499999999999996
 74
0
 49
0.0
 74
0
 49
-6.3499999999999996
 74
0
  0
LTYPE
  5
3A
100
AcDbSymbolTableRecord
100
AcDbLinetypeTableRecord
  2
ACAD_ISO11W100
 70
0
  3
ISO double-dash dot __ __ . __ __ . __ __ . __ _
 72
65
 73
6
 40
33.0
 49
12.0
 74
0
 49
-3.0
 74
0
 49
12.0
 74
0
 49
-3.0
 74
0
 49
0.0
 74
0
 49
-3.0
 74
0
  0
LTYPE
  5
3B
100
AcDbSymbolTableRecord
100
AcDbLinetypeTableRecord
  2
DOT2
 70
0
  3
Dot (.5x) ........................................
 72
65
 73
2
 40
3.1749999999999998
 49
0.0
 74
0
 49
-3.1749999999999998
 74
0
  0
LTYPE
  5
3C
100
AcDbSymbolTableRecord
100
AcDbLinetypeTableRecord
  2
ACAD_ISO15W100
 70
0
  3
ISO double-dash triple-dot __ __ . . . __ __ . .
 72
65
 73
10
 40
39.0
 49
12.0
 74
0
 49
-3.0
 74
0
 49
12.0
 74
0
 49
-3.0
 74
0
 49
0.0
 74
0
 49
-3.0
 74
0
 49
0.0
 74
0
 49
-3.0
 74
0
 49
0.0
 74
0
 49
-3.0
 74
0
  0
LTYPE
  5
3D
100
AcDbSymbolTableRecord
100
AcDbLinetypeTableRecord
  2
DASHDOT2
 70
0
  3
Dash dot (.5x) _._._._._._._._._._._._._._._.
 72
65
 73
4
 40
12.6999999999999993
 49
6.3499999999999996
 74
0
 49
-3.1749999999999998
 74
0
 49
0.0
 74
0
 49
-3.1749999999999998
 74
0
  0
LTYPE
  5
3E
100
AcDbSymbolTableRecord
100
AcDbLinetypeTableRecord
  2
ACAD_ISO10W100
 70
0
  3
ISO dash dot __ . __ . __ . __ . __ . __ . __ . 
 72
65
 73
4
 40
18.0
 49
12.0
 74
0
 49
-3.0
 74
0
 49
0.0
 74
0
 49
-3.0
 74
0
  0
LTYPE
  5
3F
100
AcDbSymbolTableRecord
100
AcDbLinetypeTableRecord
  2
ACAD_ISO03W100
 70
0
  3
ISO dash space __    __    __    __    __    __
 72
65
 73
2
 40
30.0
 49
12.0
 74
0
 49
-18.0
 74
0
  0
LTYPE
  5
40
100
AcDbSymbolTableRecord
100
AcDbLinetypeTableRecord
  2
HIDDENX2
 70
0
  3
Hidden (2x) ____ ____ ____ ____ ____ ____ ____ 
 72
65
 73
2
 40
19.0499999999999972
 49
12.6999999999999993
 74
0
 49
-6.3499999999999996
 74
0
  0
LTYPE
  5
41
100
AcDbSymbolTableRecord
100
AcDbLinetypeTableRecord
  2
BORDER2
 70
0
  3
Border (.5x) __.__.__.__.__.__.__.__.__.__.__.
 72
65
 73
6
 40
22.2249999999999979
 49
6.3499999999999996
 74
0
 49
-3.1749999999999998
 74
0
 49
6.3499999999999996
 74
0
 49
-3.1749999999999998
 74
0
 49
0.0
 74
0
 49
-3.1749999999999998
 74
0
  0
LTYPE
  5
42
100
AcDbSymbolTableRecord
100
AcDbLinetypeTableRecord
  2
HIDDEN2
 70
0
  3
Hidden (.5x) _ _ _ _ _ _ _ _ _ _ _ _ _ _ _ _ _ 
 72
65
 73
2
 40
4.7624999999999993
 49
3.1749999999999998
 74
0
 49
-1.5874999999999999
 74
0
  0
LTYPE
  5
43
100
AcDbSymbolTableRecord
100
AcDbLinetypeTableRecord
  2
ACAD_ISO13W100
 70
0
  3
ISO double-dash double-dot __ __ . . __ __ . . _
 72
65
 73
8
 40
36.0
 49
12.0
 74
0
 49
-3.0
 74
0
 49
12.0
 74
0
 49
-3.0
 74
0
 49
0.0
 74
0
 49
-3.0
 74
0
 49
0.0
 74
0
 49
-3.0
 74
0
  0
LTYPE
  5
44
100
AcDbSymbolTableRecord
100
AcDbLinetypeTableRecord
  2
ACAD_ISO02W100
 70
0
  3
ISO dash __ __ __ __ __ __ __ __ __ __ __ __ __
 72
65
 73
2
 40
15.0
 49
12.0
 74
0
 49
-3.0
 74
0
  0
LTYPE
  5
45
100
AcDbSymbolTableRecord
100
AcDbLinetypeTableRecord
  2
CENTER2
 70
0
  3
Center (.5x) ___ _ ___ _ ___ _ ___ _ ___ _ ___
 72
65
 73
4
 40
28.5750000000000028
 49
19.0500000000000007
 74
0
 49
-3.1749999999999998
 74
0
 49
3.1749999999999998
 74
0
 49
-3.1749999999999998
 74
0
  0
LTYPE
  5
46
100
AcDbSymbolTableRecord
100
AcDbLinetypeTableRecord
  2
SectionLineANSI
 70
0
  3

 72
65
 73
7
 40
11.9944444444445182
 49
4.23333333333336
 74
0
 49
-1.05833333333334
 74
0
 49
0.17638888888889
 74
0
 49
-1.05833333333334
 74
0
 49
0.17638888888889
 74
0
 49
-1.05833333333334
 74
0
 49
4.23333333333336
 74
0
  0
LTYPE
  5
47
100
AcDbSymbolTableRecord
100
AcDbLinetypeTableRecord
  2
DASHED
 70
0
  3
Dashed __ __ __ __ __ __ __ __ __ __ __ __ __ _
 72
65
 73
2
 40
19.0499999999999972
 49
12.6999999999999993
 74
0
 49
-6.3499999999999996
 74
0
  0
LTYPE
  5
48
100
AcDbSymbolTableRecord
100
AcDbLinetypeTableRecord
  2
PHANTOM2
 70
0
  3
Phantom (.5x) ___ _ _ ___ _ _ ___ _ _ ___ _ _
 72
65
 73
6
 40
31.7500000000000036
 49
15.875
 74
0
 49
-3.1749999999999998
 74
0
 49
3.1749999999999998
 74
0
 49
-3.1749999999999998
 74
0
 49
3.1749999999999998
 74
0
 49
-3.1749999999999998
 74
0
  0
LTYPE
  5
15
100
AcDbSymbolTableRecord
100
AcDbLinetypeTableRecord
  2
ByLayer
 70
0
  3

 72
65
 73
0
 40
0.0
  0
LTYPE
  5
49
100
AcDbSymbolTableRecord
100
AcDbLinetypeTableRecord
  2
HIDDEN
 70
0
  3
Hidden __ __ __ __ __ __ __ __ __ __ __ __ __ __
 72
65
 73
2
 40
9.5249999999999986
 49
6.3499999999999996
 74
0
 49
-3.1749999999999998
 74
0
  0
LTYPE
  5
4A
100
AcDbSymbolTableRecord
100
AcDbLinetypeTableRecord
  2
ACAD_ISO06W100
 70
0
  3
ISO long-dash triple-dot ____ ... ____ ... ____
 72
65
 73
8
 40
36.0
 49
24.0
 74
0
 49
-3.0
 74
0
 49
0.0
 74
0
 49
-3.0
 74
0
 49
0.0
 74
0
 49
-3.0
 74
0
 49
0.0
 74
0
 49
-3.0
 74
0
  0
LTYPE
  5
4B
100
AcDbSymbolTableRecord
100
AcDbLinetypeTableRecord
  2
BORDERX2
 70
0
  3
Border (2x) ____  ____  .  ____  ____  .  ___
 72
65
 73
6
 40
88.8999999999999915
 49
25.3999999999999986
 74
0
 49
-12.6999999999999993
 74
0
 49
25.3999999999999986
 74
0
 49
-12.6999999999999993
 74
0
 49
0.0
 74
0
 49
-12.6999999999999993
 74
0
  0
LTYPE
  5
4C
100
AcDbSymbolTableRecord
100
AcDbLinetypeTableRecord
  2
ACAD_ISO09W100
 70
0
  3
ISO long-dash double-short-dash ____ __ __ ____
 72
65
 73
6
 40
45.0
 49
24.0
 74
0
 49
-3.0
 74
0
 49
6.0
 74
0
 49
-3.0
 74
0
 49
6.0
 74
0
 49
-3.0
 74
0
  0
LTYPE
  5
4D
100
AcDbSymbolTableRecord
100
AcDbLinetypeTableRecord
  2
DOTX2
 70
0
  3
Dot (2x) .  .  .  .  .  .  .  .  .  .  .  .  .  .
 72
65
 73
2
 40
12.6999999999999993
 49
0.0
 74
0
 49
-12.6999999999999993
 74
0
  0
LTYPE
  5
4E
100
AcDbSymbolTableRecord
100
AcDbLinetypeTableRecord
  2
DraftedLine
 70
0
  3

 72
65
 73
2
 40
3.0
 49
2.0
 74
0
 49
-1.0
 74
0
  0
LTYPE
  5
4F
100
AcDbSymbolTableRecord
100
AcDbLinetypeTableRecord
  2
ACAD_ISO07W100
 70
0
  3
ISO dot . . . . . . . . . . . . . . . . . . . . 
 72
65
 73
2
 40
3.0
 49
0.0
 74
0
 49
-3.0
 74
0
  0
LTYPE
  5
50
100
AcDbSymbolTableRecord
100
AcDbLinetypeTableRecord
  2
ACAD_ISO05W100
 70
0
  3
ISO long-dash double-dot ____ .. ____ .. ____ . 
 72
65
 73
6
 40
33.0
 49
24.0
 74
0
 49
-3.0
 74
0
 49
0.0
 74
0
 49
-3.0
 74
0
 49
0.0
 74
0
 49
-3.0
 74
0
  0
LTYPE
  5
51
100
AcDbSymbolTableRecord
100
AcDbLinetypeTableRecord
  2
DASHEDX2
 70
0
  3
Dashed (2x) ____  ____  ____  ____  ____  ___
 72
65
 73
2
 40
38.0999999999999943
 49
25.3999999999999986
 74
0
 49
-12.6999999999999993
 74
0
  0
LTYPE
  5
52
100
AcDbSymbolTableRecord
100
AcDbLinetypeTableRecord
  2
DIVIDE
 70
0
  3
Divide ____ . . ____ . . ____ . . ____ . . ____
 72
65
 73
6
 40
31.75
 49
12.6999999999999993
 74
0
 49
-6.3499999999999996
 74
0
 49
0.0
 74
0
 49
-6.3499999999999996
 74
0
 49
0.0
 74
0
 49
-6.3499999999999996
 74
0
  0
LTYPE
  5
53
100
AcDbSymbolTableRecord
100
AcDbLinetypeTableRecord
  2
ACAD_ISO14W100
 70
0
  3
ISO dash triple-dot __ . . . __ . . . __ . . . _
 72
65
 73
8
 40
24.0
 49
12.0
 74
0
 49
-3.0
 74
0
 49
0.0
 74
0
 49
-3.0
 74
0
 49
0.0
 74
0
 49
-3.0
 74
0
 49
0.0
 74
0
 49
-3.0
 74
0
  0
LTYPE
  5
54
100
AcDbSymbolTableRecord
100
AcDbLinetypeTableRecord
  2
DIVIDEX2
 70
0
  3
Divide (2x) ________  .  .  ________  .  .  _
 72
65
 73
6
 40
63.5
 49
25.3999999999999986
 74
0
 49
-12.6999999999999993
 74
0
 49
0.0
 74
0
 49
-12.6999999999999993
 74
0
 49
0.0
 74
0
 49
-12.6999999999999993
 74
0
  0
LTYPE
  5
55
100
AcDbSymbolTableRecord
100
AcDbLinetypeTableRecord
  2
CENTER
 70
0
  3
Center ____ _ ____ _ ____ _ ____ _ ____ _ ____
 72
65
 73
4
 40
50.8000000000000043
 49
31.75
 74
0
 49
-6.3499999999999996
 74
0
 49
6.3499999999999996
 74
0
 49
-6.3499999999999996
 74
0
  0
LTYPE
  5
56
100
AcDbSymbolTableRecord
100
AcDbLinetypeTableRecord
  2
DIVIDE2
 70
0
  3
Divide (.5x) __..__..__..__..__..__..__..__.._
 72
65
 73
6
 40
15.875
 49
6.3499999999999996
 74
0
 49
-3.1749999999999998
 74
0
 49
0.0
 74
0
 49
-3.1749999999999998
 74
0
 49
0.0
 74
0
 49
-3.1749999999999998
 74
0
  0
LTYPE
  5
57
100
AcDbSymbolTableRecord
100
AcDbLinetypeTableRecord
  2
SectionLineISO
 70
0
  3

 72
65
 73
5
 40
13.7583333333334217
 49
4.23333333333336
 74
0
 49
-2.11666666666668
 74
0
 49
1.05833333333334
 74
0
 49
-2.11666666666668
 74
0
 49
4.23333333333336
 74
0
  0
LTYPE
  5
58
100
AcDbSymbolTableRecord
100
AcDbLinetypeTableRecord
  2
CenterLine
 70
0
  3

 72
65
 73
4
 40
8.0
 49
5.0
 74
0
 49
-1.0
 74
0
 49
1.0
 74
0
 49
-1.0
 74
0
  0
LTYPE
  5
59
100
AcDbSymbolTableRecord
100
AcDbLinetypeTableRecord
  2
DASHED2
 70
0
  3
Dashed (.5x) _ _ _ _ _ _ _ _ _ _ _ _ _ _ _ _ _ 
 72
65
 73
2
 40
9.5249999999999986
 49
6.3499999999999996
 74
0
 49
-3.1749999999999998
 74
0
  0
LTYPE
  5
5A
100
AcDbSymbolTableRecord
100
AcDbLinetypeTableRecord
  2
DetailCircleISO
 70
0
  3

 72
65
 73
5
 40
13.7583333333334217
 49
4.23333333333336
 74
0
 49
-2.11666666666668
 74
0
 49
1.05833333333334
 74
0
 49
-2.11666666666668
 74
0
 49
4.23333333333336
 74
0
  0
LTYPE
  5
5B
100
AcDbSymbolTableRecord
100
AcDbLinetypeTableRecord
  2
PHANTOM
 70
0
  3
Phantom ______  __  __  ______  __  __  ______ 
 72
65
 73
6
 40
63.5000000000000071
 49
31.75
 74
0
 49
-6.3499999999999996
 74
0
 49
6.3499999999999996
 74
0
 49
-6.3499999999999996
 74
0
 49
6.3499999999999996
 74
0
 49
-6.3499999999999996
 74
0
  0
ENDTAB
  0
TABLE
  2
LAYER
  5
2
100
AcDbSymbolTable
 70
4
  0
LAYER
  5
5C
100
AcDbSymbolTableRecord
100
AcDbLayerTableRecord
  2
Geometries
 70
0
 62
7
420
16777215
  6
Continuous
370
-3
390
F
  0
LAYER
  5
5D
100
AcDbSymbolTableRecord
100
AcDbLayerTableRecord
  2
Annotations
 70
0
 62
7
420
16777215
  6
Continuous
370
-3
390
F
  0
LAYER
  5
10
100
AcDbSymbolTableRecord
100
AcDbLayerTableRecord
  2
0
 70
0
 62
7
420
16777215
  6
Continuous
370
-3
390
F
  0
LAYER
  5
5E
100
AcDbSymbolTableRecord
100
AcDbLayerTableRecord
  2
Border
 70
0
 62
7
420
16777215
  6
Continuous
370
-3
390
F
  0
ENDTAB
  0
TABLE
  2
STYLE
  5
3
100
AcDbSymbolTable
 70
1
  0
STYLE
  5
5F
100
AcDbSymbolTableRecord
100
AcDbTextStyleTableRecord
  2
Standard
 70
0
 40
0.0
 41
1.0
 50
0.0
 71
0
 42
2.5
  3

  4

1001
ACAD
1000
txt
1071
0
  0
ENDTAB
  0
TABLE
  2
VIEW
  5
6
100
AcDbSymbolTable
 70
0
  0
ENDTAB
  0
TABLE
  2
UCS
  5
7
100
AcDbSymbolTable
 70
0
  0
ENDTAB
  0
TABLE
  2
APPID
  5
9
100
AcDbSymbolTable
 70
1
  0
APPID
  5
12
100
AcDbSymbolTableRecord
100
AcDbRegAppTableRecord
  2
ACAD
 70
0
  0
APPID
  5
60
100
AcDbSymbolTableRecord
100
AcDbRegAppTableRecord
  2
QCAD
 70
0
  0
ENDTAB
  0
TABLE
  2
DIMSTYLE
  5
A
100
AcDbSymbolTable
 70
1
100
AcDbDimStyleTable
 71
0
  0
DIMSTYLE
105
27
100
AcDbSymbolTableRecord
100
AcDbDimStyleTableRecord
  2
Standard
 41
2.5
 42
0.625
 43
3.75
 44
1.25
 70
0
 73
0
 74
0
 77
1
 78
8
140
2.5
141
2.5
143
0.03937007874016
147
0.7
171
3
172
1
271
2
272
2
274
3
278
44
283
0
284
8
340
5F
  0
ENDTAB
  0
TABLE
  2
BLOCK_RECORD
  5
1
100
AcDbSymbolTable
 70
1
  0
BLOCK_RECORD
  5
1F
100
AcDbSymbolTableRecord
100
AcDbBlockTableRecord
  2
*Model_Space
340
22
  0
BLOCK_RECORD
  5
1B
100
AcDbSymbolTableRecord
100
AcDbBlockTableRecord
  2
*Paper_Space
340
1E
  0
BLOCK_RECORD
  5
23
100
AcDbSymbolTableRecord
100
AcDbBlockTableRecord
  2
*Paper_Space0
340
26
  0
ENDTAB
  0
ENDSEC
  0
SECTION
  2
BLOCKS
  0
BLOCK
  5
20
100
AcDbEntity
  8
0
100
AcDbBlockBegin
  2
*Model_Space
 70
0
 10
0.0
 20
0.0
 30
0.0
  3
*Model_Space
  1

  0
ENDBLK
  5
21
100
AcDbEntity
  8
0
100
AcDbBlockEnd
  0
BLOCK
  5
1C
100
AcDbEntity
 67
1
  8
0
100
AcDbBlockBegin
  2
*Paper_Space
 70
0
 10
0.0
 20
0.0
 30
0.0
  3
*Paper_Space
  1

  0
ENDBLK
  5
1D
100
AcDbEntity
 67
1
  8
0
100
AcDbBlockEnd
  0
BLOCK
  5
24
100
AcDbEntity
  8
0
100
AcDbBlockBegin
  2
*Paper_Space0
 70
0
 10
0.0
 20
0.0
 30
0.0
  3
*Paper_Space0
  1

  0
ENDBLK
  5
25
100
AcDbEntity
  8
0
100
AcDbBlockEnd
  0
ENDSEC
  0
SECTION
  2
ENTITIES
  0
LWPOLYLINE
  5
61
100
AcDbEntity
  8
Geometries
 62
256
370
0
 48
1.0
  6
Continuous
100
AcDbPolyline
 90
313
 70
128
 10
199.6924200190744898
 20
144.0714917719080006
 10
197.1553582139208913
 20
144.0535681894438085
 10
194.6182705275236913
 20
144.0383726873027115
 10
192.0811617044172976
 20
144.0258408795629919
 10
189.5440364901261887
 20
144.0159083802954001
 10
187.0068996310668865
 20
144.0085108035638086
 10
184.5150572832123999
 20
144.0037179079822067
 10
182.0231996734414111
 20
144.0013984448050905
 10
179.5313312855230095
 20
144.001431389184404
 10
177.0394567649447879
 20
144.0036931823204895
 10
174.0729379240617902
 20
144.0091205570255113
 10
171.106421782575211
 20
144.0173990658740024
 10
168.1399034028083008
 20
144.0286503565764065
 10
165.1733866165228051
 20
144.0427888013134918
 10
162.2068762941214004
 20
144.0597033022121138
 10
159.2403773048974074
 20
144.0792827856832901
 10
156.2738900138047882
 20
144.1015025280067903
 10
153.3074134870992964
 20
144.1263183804366008
 10
150.3409502537899129
 20
144.1535987190995058
 10
147.3745028428855903
 20
144.1832119201222895
 10
144.4080735196658054
 20
144.2150395422887925
 10
141.4416621234549041
 20
144.2490924076107888
 10
137.945558745788901
 20
144.2920406475849973
 10
134.4494839216579862
 20
144.3379525791042113
 10
130.9534399548942076
 20
144.3867413746694126
 10
127.4574279271275969
 20
144.438293609298313
 10
123.8978847104965979
 20
144.4934901149649988
 10
120.3383742965404934
 20
144.5512864221583129
 10
116.7788973819150016
 20
144.61158991341199
 10
113.2194612886812024
 20
144.6746472949429858
 10
109.6600687364362017
 20
144.7405482921541022
 10
107.4675051384163993
 20
144.7825702126935141
 10
105.2749588288862981
 20
144.8256874914872014
 10
104.6698892918361992
 20
144.8377801644438989
 10
104.5186813946352942
 20
144.8408153263397082
 10
104.4140910064605947
 20
144.8429179384145016
 10
103.9896175014683024
 20
144.8514781745305129
 10
103.2316310087769011
 20
144.8668723199822068
 10
100.155413178734193
 20
144.9307968533078963
 10
97.0342958222012726
 20
144.9981025480045105
 10
93.9132273673522207
 20
145.0679704290079997
 10
90.7922112304008522
 20
145.1404993738958069
 10
87.6712608685612906
 20
145.2160795521099033
 10
85.4469141008938209
 20
145.2718052549932963
 10
83.2225947705829583
 20
145.3289230034930029
 10
80.9983128314237035
 20
145.3876989546810137
 10
78.7740823828634689
 20
145.4485125096198885
 10
77.5464762995652848
 20
145.4830774324414051
 10
77.3770879651177097
 20
145.4879071950460059
 10
77.1782009445402366
 20
145.4935955996149062
 10
76.7028787237126437
 20
145.5072446683034002
 10
75.8540930695579618
 20
145.5318131144499887
 10
74.1317386172850945
 20
145.5825052076899908
 10
72.4094156534241051
 20
145.6344483998034889
 10
70.4804602130773219
 20
145.6943022446426141
 10
70.3470426577748356
 20
145.6985143354459069
 10
70.242479781305633
 20
145.7018240183955129
 10
70.0557609698380475
 20
145.7077527114122972
 10
69.7223364359135473
 20
145.7183981627233891
 10
68.3691763680220106
 20
145.7623468515917011
 10
66.5862028195662106
 20
145.8219678640525103
 10
64.8032798663629421
 20
145.8833506454024871
 10
63.0203989641169571
 20
145.9463265801583134
 10
61.2375808720798886
 20
146.0112778791234973
 10
59.4548555944832131
 20
146.0787781217701138
 10
57.6722500936493176
 20
146.1493470802033983
 10
55.8897724544556169
 20
146.2231977349335921
 10
54.492352734923287
 20
146.2826432020791003
 10
53.0949892237485983
 20
146.3436975609432977
 10
51.6977096174175301
 20
146.4067575484990869
 10
50.3005416124160831
 20
146.472219901719086
 10
48.9035213342162933
 20
146.5405885025265889
 10
47.5315894487351898
 20
146.6105886803719898
 10
46.1597394051837284
 20
146.6827264372232946
 10
44.7879692021071776
 20
146.7569363519083083
 10
43.4163342218823232
 20
146.8338196094682928
 10
42.3191698118540671
 20
146.897762558639613
 10
41.2221643016057726
 20
146.9642346313083863
 10
40.1253098783600706
 20
147.0331697895798015
 10
39.02859771648275
 20
147.1044906926962881
 10
37.9320189903398628
 20
147.1781199999003888
 10
36.5812043892548502
 20
147.2718905987470919
 10
36.3948275133474795
 20
147.2850872183146862
 10
36.3739078631953134
 20
147.2865723075958897
 10
36.3529882538465188
 20
147.2880581691748034
 10
36.3420050639054182
 20
147.2888386094205089
 10
36.3315452950763529
 20
147.2895821111974897
 10
36.3210855433031767
 20
147.2903258609015893
 10
36.3106258086411131
 20
147.2910698589886067
 10
36.3001660911446606
 20
147.2918141059141988
 10
36.1694210931583768
 20
147.3011383741379063
 10
35.9359549110818435
 20
147.3178885312102864
 10
34.9885502748106489
 20
147.387277269392996
 10
33.987900529649977
 20
147.4633203120515077
 10
32.9875195575993132
 20
147.542569724505114
 10
31.9874670936491192
 20
147.6255083673970887
 10
30.9876315882756899
 20
147.7114135759680948
 10
29.9879097180105987
 20
147.7995440976885959
 10
28.9883889217306603
 20
147.890422989251789
 10
28.3154074545948617
 20
147.9534948997695096
 10
27.6425956058674807
 20
148.0182955328070022
 10
26.9699849344501708
 20
148.0850189320269124
 10
26.2976069992438113
 20
148.1538591410914876
 10
25.6255118655452101
 20
148.2251074197126002
 10
24.9536981137391898
 20
148.2987854731439938
 10
24.2820530241627885
 20
148.3743304225835971
 10
23.6944346626802087
 20
148.4416067822064917
 10
23.1069140940481113
 20
148.5101148931331068
 10
22.5195399686671998
 20
148.5800826323157935
 10
21.9323609369377586
 20
148.6517378767069886
 10
21.3454256492605907
 20
148.7253085032594981
 10
20.75878275603608
 20
148.8010223889257873
 10
20.1724809076646885
 20
148.8791074106582926
 10
19.5865687545469314
 20
148.9597914454095928
 10
19.0608135934860208
 20
149.034639395233711
 10
18.5353672567143803
 20
149.1116180302092005
 10
18.0101014993754482
 20
149.1902120789428068
 10
17.4848952747203406
 20
149.269930658433708
 10
16.9598276076834793
 20
149.3510569348532044
 10
16.4350216921161199
 20
149.4340466059690016
 10
15.9105743375805009
 20
149.5192536212572918
 10
15.4468076564558299
 20
149.5967965340749117
 10
14.9834647517245401
 20
149.676598767050308
 10
14.5206127305943902
 20
149.7589056736428859
 10
14.3291736725530807
 20
149.793767562214498
 10
14.3076917927104397
 20
149.7977108115825899
 10
14.28833725351444
 20
149.8012690630615964
 10
14.2775974473940206
 20
149.8032460496413023
 10
14.2668580770109408
 20
149.8052249444938866
 10
14.2561191396859801
 20
149.8072057400250969
 10
14.2453806327396499
 20
149.8091884286407947
 10
14.2346425534936394
 20
149.8111730027468127
 10
14.1004515575133098
 20
149.8361361703015859
 10
13.8609735321056196
 20
149.8813965117147973
 10
13.3754963235966198
 20
149.9756214434453909
 10
12.8904507389366092
 20
150.0724508890868094
 10
12.7201433281224805
 20
150.1069472832764973
 10
12.6452124262269994
 20
150.1221920255478892
 10
12.6267496955092895
 20
150.1259540851453096
 10
12.6243319623316399
 20
150.1264468993132084
 10
12.6219142302980494
 20
150.1269397510646115
 10
12.6194964993774796
 20
150.1274326403120085
 10
12.6170787695392601
 20
150.1279255669680026
 10
12.6146610407527398
 20
150.1284185309449981
 10
12.6110305478254592
 20
150.1291588475671119
 10
12.5592233569891505
 20
150.1397349984572998
 10
12.0815127263772997
 20
150.2383985822744137
 10
11.6553051470718305
 20
150.3284350312854087
 10
11.2295289199551291
 20
150.4206316348355017
 10
10.9627579084595101
 20
150.4796998261315082
 10
10.9518076355643892
 20
150.4821474881852907
 10
10.94085778558056
 20
150.4845969273212916
 10
10.9353658594079395
 20
150.4858261566382964
 10
10.9298912005348292
 20
150.4870519919676894
 10
10.9244166484557201
 20
150.488278274249808
 10
10.9189422034370693
 20
150.4895050041546085
 10
10.8931355555581906
 20
150.4952942088220027
 10
10.8470582761417802
 20
150.505657075243704
 10
10.6601386123823794
 20
150.548050856389807
 10
10.3267085951748605
 20
150.6251649811827917
 10
10.0056988763426506
 20
150.7013515591667101
 10
9.685214584643802
 20
150.7794768849909985
 10
9.3653099360878969
 20
150.8596773429721907
 10
9.2912403586822734
 20
150.8785796249941882
 10
9.2796039946651376
 20
150.8815608994927118
 10
9.2730170061710453
 20
150.8832499926162996
 10
9.2671994922246768
 20
150.884742802751191
 10
9.2613822661721485
 20
150.8862365088469062
 10
9.2555653264239481
 20
150.8877311077851004
 10
9.2036407978600039
 20
150.9011148120293058
 10
9.110971327737559
 20
150.9251837339168105
 10
8.9456409526161167
 20
150.9686692337878071
 10
8.5704348944520063
 20
151.0695671605062103
 10
8.4780631346054633
 20
151.0947963747701976
 10
8.4553057806088532
 20
151.1010317618382999
 10
8.4508660780666958
 20
151.1022490770774027
 10
8.4437139970211774
 20
151.1042105801323032
 10
8.4365619559150673
 20
151.1061726515331998
 10
8.4294099561549558
 20
151.10813529377549
 10
8.4222579991478881
 20
151.1100985093549127
 10
8.3584033622982474
 20
151.1276530354103045
 10
8.0993099437916385
 20
151.1994050757220123
 10
7.7588795708001612
 20
151.2951394901517972
 10
7.4188458040247838
 20
151.392706693488492
 10
7.0793607853016169
 20
151.4923765653796863
 10
6.7405766564672547
 20
151.5944189854731974
 10
6.4026455593583478
 20
151.6991038334165012
 10
6.137825805071742
 20
151.7833857633171135
 10
5.8737003892679809
 20
151.8695965047016045
 10
5.6103431096088627
 20
151.9578669649355049
 10
5.3478277637568974
 20
152.0483280513844875
 10
5.0862318602264338
 20
152.1411173399663141
 10
4.8254657373182681
 20
152.2361156350372937
 10
4.5650096048764226
 20
152.3325171290670141
 10
4.3043216200579204
 20
152.4294771582104886
 10
4.0435969731216517
 20
152.5272775973569992
 10
3.7832934620660978
 20
152.6266032033105091
 10
3.5928777969221239
 20
152.7007175776099928
 10
3.403020091959291
 20
152.7761451700903876
 10
3.2138605898428811
 20
152.8530945650215926
 10
3.0894659120717449
 20
152.9048161217758945
 10
2.965476780370778
 20
152.957351402128694
 10
2.8567338301479879
 20
153.0043031816279893
 10
2.8445507493034938
 20
153.0096173091849892
 10
2.832372403618137
 20
153.0149405336518953
 10
2.8201988319477782
 20
153.0202729128197916
 10
2.8080300731485859
 20
153.0256145044799041
 10
2.7958661660768769
 20
153.0309653664232883
 10
2.7861041714395749
 20
153.0352679390209119
 10
2.7800260227544409
 20
153.0379506239424927
 10
2.6272155755039819
 20
153.1063776633004068
 10
2.4752680527696782
 20
153.1764145381224012
 10
2.3242612761573009
 20
153.2481769932338977
 10
2.174273067273504
 20
153.3217807734606026
 10
2.0253812477233741
 20
153.3973416236281082
 10
1.8776029416718529
 20
153.4749221597886901
 10
1.730380457882575
 20
153.5539847636717923
 10
1.582962557186846
 20
153.6337702753884003
 10
1.437562660158648
 20
153.7131523999975968
 10
1.2923736178098011
 20
153.7935332241679021
 10
1.269970131991073
 20
153.8060567243362868
 10
1.265570795746783
 20
153.8085200944260862
 10
1.257714135920168
 20
153.8129228145479885
 10
1.248918531372027
 20
153.8178570092418909
 10
1.2401248646355609
 20
153.8227957963165125
 10
1.1773741186331961
 20
153.8582101725419875
 10
1.0656340088787599
 20
153.9220869820339033
 10
0.9662848128080554
 20
153.979870806594505
 10
0.8674139452602674
 20
154.0384284556685088
 10
0.7423964244307797
 20
154.1141747158096109
 10
0.6184484898427627
 20
154.1914058531484102
 10
0.5578108219176841
 20
154.230051141458091
 10
0.5510241378633793
 20
154.2344140336604141
 10
0.5442415082945047
 20
154.2387820829250984
 10
0.5374629611482362
 20
154.2431553111844096
 10
0.5306885243626027
 20
154.2475337403703861
 10
0.5249560473425277
 20
154.2512449062911912
 10
0.5215721389147063
 20
154.2534382953556076
 10
0.5181892744668346
 20
154.2556329975186031
 10
0.4759929788497459
 20
154.2831786852705989
 10
0.3908985628780215
 20
154.3397289775132037
 10
0.3065631648361489
 20
154.3971926663762986
 10
0.2100070118159749
 20
154.4648781287746999
 10
0.1146315330387324
 20
154.5339155571348044
 10
0.020525004728313
 20
154.6043742520388093
 10
-0.0722242968915339
 20
154.6763235140685993
 10
-0.1635280955966891
 20
154.7498326438063998
 10
-0.1670211911263948
 20
154.7527015904960876
 10
-0.1695171960634809
 20
154.7547550268114946
 10
-0.1720114268638042
 20
154.7568099622218085
 10
-0.1745039232898478
 20
154.7588663806324121
 10
-0.1769947251034409
 20
154.7609242659488871
 10
-0.1794838720669816
 20
154.7629836020767868
 10
-0.1819714039426685
 20
154.7650443729216079
 10
-0.1956257364381315
 20
154.7764035389118078
 10
-0.219910710524033
 20
154.7967860953918091
 10
-0.2630694844420702
 20
154.8334547799601921
 10
-0.3400704287884366
 20
154.8995594973839047
 10
-0.4387867601620314
 20
154.9844831162237142
 10
-0.4823994951392478
 20
155.0221465263396965
 10
-0.4881149137809473
 20
155.027093223154111
 10
-0.497124654429939
 20
155.0348971131369069
 10
-0.5085588277434283
 20
155.0448120909954923
 10
-0.5199941533394394
 20
155.054741407151198
 10
-0.5314298170517588
 20
155.0646853059340913
 10
-0.542865004713093
 20
155.0746440316744952
 10
-0.6355638838466291
 20
155.1560569334851891
 10
-0.7277423657805002
 20
155.2385934496003017
 10
-0.8189650577400016
 20
155.3223842407477946
 10
-0.8968444482809446
 20
155.396050658433893
 10
-0.9733981645993595
 20
155.4708402403682044
 10
-1.04834355783197
 20
155.5468378090567114
 10
-1.121397979114988
 20
155.6241281870055957
 10
-1.124874654684646
 20
155.627896490210702
 10
-1.12735393718097
 20
155.6305890948634953
 10
-1.1298306052727869
 20
155.6332833472208108
 10
-1.132304647357671
 20
155.6359792507643931
 10
-1.1347760518327159
 20
155.6386768089761858
 10
-1.137244807095726
 20
155.6413760253381895
 10
-1.139710901543822
 20
155.6440769033322056
 10
-1.1421743235748349
 20
155.6467794464402061
 10
-1.157596763956519
 20
155.6638052081763135
 10
-1.1848640292279811
 20
155.6943750437451115
 10
-1.2326401411724821
 20
155.7495092300925137
 10
-1.2952601691121399
 20
155.8252512240381975
 10
-1.355355101962914
 20
155.9023856056944908
 10
-1.412693624971183
 20
155.9809817922769071
 10
-1.461371012258383
 20
156.0524487856644953
 10
-1.5075019585167411
 20
156.1251858697717125
 10
-1.5508768183613879
 20
156.1992455953443084
 10
-1.592189809751261
 20
156.2748176801250963
 10
-1.6326798609452451
 20
156.352142874969303
 10
-1.6724020514356821
 20
156.431123202646603
 10
-1.711042648022755
 20
156.5115695664088094
 10
-1.7483452978943319
 20
156.5933111621179989
 10
-1.784053648237375
 20
156.6761771856365044
 10
-1.817911346238958
 20
156.7599968328264879
 10
-1.849662039085842
 20
156.8445992995503104
 10
-1.879049373965302
 20
156.9298137816699921
 10
-1.899102845394935
 20
156.9930974859067874
 10
-1.9176213194948839
 20
157.0565532856159052
 10
-1.9325656015635959
 20
157.1124819611852956
 10
-1.9344249177584909
 20
157.1198093940473086
 10
-1.9367461300256541
 20
157.1290886319283118
 10
-1.94033599131356
 20
157.1437454860954119
 10
-1.9438312702447429
 20
157.1584027905473988
 10
-1.94723069916077
 20
157.1730597006620087
 10
-1.95053301040312
 20
157.1877153718170916
 10
-1.965185984889672
 20
157.2590450357631084
 10
-1.9773590119679061
 20
157.3302277182137914
 10
-1.9869056637532201
 20
157.4011658564064078
 10
-1.9936795123602451
 20
157.4717618875777987
 10
-1.9975341299035281
 20
157.5419182489654872
  0
ARC
  5
62
100
AcDbEntity
  8
Geometries
 62
256
370
0
 48
1.0
  6
Continuous
100
AcDbCircle
 10
430.9908010551956181
 20
159.4711641504740953
 30
0.0
 40
1.007556071769165
100
AcDbArc
 50
272.468057068963617
 51
359.6882936757921811
  0
ARC
  5
63
100
AcDbEntity
  8
Geometries
 62
256
370
0
 48
1.0
  6
Continuous
100
AcDbCircle
 10
186.030600264390614
 20
2108.13593146230005
 30
0.0
 40
1964.1115746322780069
100
AcDbArc
 50
270.4160401432873755
 51
272.0259691074188027
  0
LINE
  5
64
100
AcDbEntity
  8
Geometries
 62
256
370
0
 48
1.0
  6
Continuous
100
AcDbLine
 10
431.9947126591839037
 20
160.1588708657351106
 30
0.0
 11
431.998342216742401
 21
159.4656827685462872
 31
0.0
  0
LINE
  5
65
100
AcDbEntity
  8
Geometries
 62
256
370
0
 48
1.0
  6
Continuous
100
AcDbLine
 10
255.4667828692635965
 20
149.5538113487583871
 30
0.0
 11
255.4667828692635965
 21
145.2521106135602054
 31
0.0
  0
LWPOLYLINE
  5
66
100
AcDbEntity
  8
Geometries
 62
256
370
0
 48
1.0
  6
Continuous
100
AcDbPolyline
 90
188
 70
128
 10
431.034188839716478
 20
158.4645427032988039
 10
430.4276253884439143
 20
158.4310862140359006
 10
429.8212309880349267
 20
158.3948703855461986
 10
429.2149998538473028
 20
158.3559504796801889
 10
428.6089136488890858
 20
158.3149009621286041
 10
428.0029672653731723
 20
158.2720687478866921
 10
427.4079847016308236
 20
158.228161792972486
 10
426.8131431772430915
 20
158.1823576646897891
 10
426.2184177762474064
 20
158.1350158367108065
 10
425.6237682238539719
 20
158.0867763280905081
 10
425.2060754072293776
 20
158.0526361014649126
 10
425.197841974855919
 20
158.0519625161215913
 10
425.1896085458649281
 20
158.0512889315947973
 10
425.1744217702595847
 20
158.0500461223178092
 10
425.1579550309804176
 20
158.0486975845269058
 10
425.1414883763275725
 20
158.0473480322540922
 10
425.1250218059270765
 20
158.0459974701934982
 10
425.1085553194026829
 20
158.04464590303931
 10
425.0179911260515269
 20
158.0371945274168866
 10
424.8562754389608926
 20
158.0238156816153889
 10
424.5675158500840212
 20
157.9997050215673084
 10
423.9816240494532167
 20
157.9500059442692077
 10
423.3958054980789143
 20
157.8994467515674955
 10
422.224320526670283
 20
157.7965944111977876
 10
421.9356856888745142
 20
157.7710478995807932
 10
421.8086875728694736
 20
157.7597966241665972
 10
421.7944327164178731
 20
157.7585334654611984
 10
421.7828937000259089
 20
157.7575109293240985
 10
421.7757662805377095
 20
157.7568792705951921
 10
421.7686388671547206
 20
157.7562475481159936
 10
421.7615114598705759
 20
157.7556157619424084
 10
421.7543840586799888
 20
157.754983912130001
 10
421.7472566635772182
 20
157.7543519987347906
 10
421.5447763664224112
 20
157.7363735885757876
 10
420.6110241797192089
 20
157.6528325818196095
 10
419.677360377550599
 20
157.568353746838909
 10
418.93211362936961
 20
157.5003290205326891
 10
418.604218520610118
 20
157.470250595807812
 10
418.4599470551257809
 20
157.4569896556454864
 10
418.3964680524940718
 20
157.4511499060564859
 10
418.3215507410267264
 20
157.4442551611060139
 10
418.2337687592859083
 20
157.4361751956996898
 10
414.0516888949841814
 20
157.0498208037647032
 10
411.7098277508545721
 20
156.8324074951584066
 10
411.5557815222193199
 20
156.8180830298510102
 10
411.4846919819132722
 20
156.8114716436280105
 10
411.3577465101312782
 20
156.7996641999648091
 10
411.1310585961641095
 20
156.7785750727796881
 10
410.7262600884313883
 20
156.7409021386156951
 10
409.0834255227612744
 20
156.5878381642270938
 10
405.7498201804506266
 20
156.2765217864985914
 10
402.4162878786980855
 20
155.9644361693169969
 10
398.1737121910225028
 20
155.5661817049360138
 10
393.9312275479655909
 20
155.1669871929225906
 10
391.840556588503091
 20
154.9700020202569988
 10
391.3254173203387154
 20
154.921443791545812
 10
391.1984871167542224
 20
154.9094778970901984
 10
391.1905086482549905
 20
154.9087257404235913
 10
391.1825301799253225
 20
154.9079735820257042
 10
391.1685667692846096
 20
154.9066571949423974
 10
391.1526098349266931
 20
154.9051528544788141
 10
391.1366529022021155
 20
154.9036484972118899
 10
391.1206959711058175
 20
154.9021441231907943
 10
391.1047390416329108
 20
154.9006397324646116
 10
391.0169759583407085
 20
154.8923652870599028
 10
390.6607950999637069
 20
154.8587789314634904
 10
389.2152629437568976
 20
154.7223981850515884
 10
385.9299890964555857
 20
154.4121686123203006
 10
384.4844719787462282
 20
154.2756323996312062
 10
384.3765096083350841
 20
154.2654356002697114
 10
384.332628760651005
 20
154.2612912069602089
 10
384.2542700962690105
 20
154.2538905839188885
 10
384.1143438834197923
 20
154.2406754546190086
 10
383.8644755528893029
 20
154.2170779590165921
 10
380.1311867059341125
 20
153.8647781364599041
 10
378.4885142604538828
 20
153.7100256926125041
 10
377.7657314301152951
 20
153.64200585113079
 10
377.5876370080508764
 20
153.6252532685990957
 10
377.5813680789107138
 20
153.6246636338786118
 10
377.570319219973328
 20
153.6236244289945034
 10
377.5577813572176069
 20
153.6224452051208118
 10
377.5452434913544266
 20
153.6212660128612981
 10
377.5327056223832187
 20
153.6200868522336975
 10
377.5201677503014821
 20
153.6189077232558873
 10
377.5076298751085915
 20
153.6177286259456025
 10
377.4386715058579966
 20
153.6112441575897947
 10
377.3155313257606167
 20
153.5996671430661138
 10
376.8157709815690168
 20
153.5527143247724098
 10
373.882248800802472
 20
153.2782010501007051
 10
370.9485326592651973
 20
153.0057034565614913
 10
370.8063466190920963
 20
152.9925521852402142
 10
370.7903869301943018
 20
152.9910763521733088
 10
370.776642863418715
 20
152.989805457283893
 10
370.7686630138662736
 20
152.9890675945293026
 10
370.7606831627294923
 20
152.9883297484738875
 10
370.7527033100075755
 20
152.987591919122309
 10
370.74472345570058
 20
152.9868541064790008
 10
370.7367435998074825
 20
152.9861163105487094
 10
370.6369952671956867
 20
152.9768952734413858
 10
370.4588726259132727
 20
152.9604356607873967
 10
370.1407944958464213
 20
152.9310644435011
 10
369.5727914381848223
 20
152.8786834447294893
 10
368.5584794821526202
 20
152.7853661005362937
 10
365.8969304693322897
 20
152.5419182714595081
 10
364.7257856626798116
 20
152.4354781029769867
 10
364.2104692292269874
 20
152.388781145757406
 10
363.9837274957329782
 20
152.3682614362799086
 10
363.7813706965823144
 20
152.3499623106158936
 10
363.6057798364902283
 20
152.3340938548894883
 10
363.2922225231544076
 20
152.305780799357791
 10
360.5035056361236911
 20
152.0553157856134874
 10
357.7145626196535773
 20
151.8072839896271091
 10
354.9253912507672908
 20
151.5617338458332028
 10
353.0844119761130173
 20
151.4010537253801942
 10
351.2433316237198255
 20
151.2414896353681968
 10
350.735234479598887
 20
151.1976534043735967
 10
350.5116692786061776
 20
151.1783928005276891
 10
350.3521716869551028
 20
151.1646620691369094
 10
349.9957170425872164
 20
151.1340096832481095
 10
349.359180417719017
 20
151.0793924175117979
 10
346.690286160229391
 20
150.8520888128796003
 10
344.0211494734646749
 20
150.6275652155001978
 10
341.3517650527256251
 20
150.4059006788554029
 10
338.6821275933139077
 20
150.1871742564268004
 10
336.0122307740097085
 20
149.9714818925644977
 10
333.5200736521180147
 20
149.7732337139715924
 10
331.0276668279889805
 20
149.5780618876044912
 10
328.535012012740026
 20
149.3859753762193918
 10
326.8897248162571145
 20
149.260892767606606
 10
325.2443308321447262
 20
149.1371606031333101
 10
323.7962961820534815
 20
149.0293954320223122
 10
323.1591349448804067
 20
148.9823111456964
 10
323.1481450487946177
 20
148.9815008193430117
 10
323.1371551479958271
 20
148.9806905534825887
 10
323.1195518806313771
 20
148.9793928230623976
 10
323.0975720496737154
 20
148.9777726692450983
 10
323.0755921997528048
 20
148.9761527598141981
 10
323.0536123308712035
 20
148.9745330947949924
 10
323.0316324430306736
 20
148.9729136742126911
 10
323.0096525362317834
 20
148.9712944980929024
 10
322.8714926880870166
 20
148.9611224189139023
 10
322.6247768120206842
 20
148.9429820377166891
 10
322.1842068182094749
 20
148.9106652761498992
 10
319.8331785715827209
 20
148.7398935273228915
 10
317.4819362510714882
 20
148.571960360614213
 10
315.1304819042185272
 20
148.4068967418745046
 10
312.7788175785652811
 20
148.2447336369544075
 10
310.4269453216551256
 20
148.085502011704591
 10
309.5182319950084775
 20
148.024773729697614
 10
309.3992861889976211
 20
148.0168576904536053
 10
309.3113207242062117
 20
148.011008361641899
 10
309.1542388242773995
 20
148.0005734898456922
 10
308.5167217448762926
 20
147.9583606626447931
 10
307.3782611002014278
 20
147.8835269080161083
 10
305.3451774022551035
 20
147.7516469508686896
 10
303.1174211121714848
 20
147.609749083181697
 10
300.8894859011567746
 20
147.4705940817985947
 10
298.6613735079765775
 20
147.3342082428144977
 10
296.4330856713966114
 20
147.2006178623242931
 10
294.2046215806693112
 20
147.0698248185832995
 10
291.9759791004950102
 20
146.9417985522408117
 10
290.0146310391349971
 20
146.8314480593830069
 10
288.0531540440728122
 20
146.7232861925687928
 10
286.0915525516049911
 20
146.6173355435593066
 10
284.7968295216787737
 20
146.5486303935063859
 10
283.5020554685511911
 20
146.4809047859415045
 10
282.3626131082318125
 20
146.4221216866204998
 10
282.274565633645409
 20
146.4176113641790948
 10
282.1838521683434919
 20
146.4129692825200095
 10
281.9367780605620055
 20
146.4003504558388897
 10
281.495568959519801
 20
146.3779063304525891
 10
280.7076787741883095
 20
146.3381123503974948
 10
278.353193998098277
 20
146.2213660471961987
 10
275.9985330866376785
 20
146.1078408047291077
 10
273.6437085473584716
 20
145.997505949761603
 10
271.2887328878156836
 20
145.8903308090588098
 10
268.9336186155612722
 20
145.7862847093857965
 10
268.6482618230888875
 20
145.7738894338293107
 10
268.5016068106069156
 20
145.7675368309425039
 10
268.3014183337436975
 20
145.7588853836284102
 10
267.9439361268478024
 20
145.7434939626016899
 10
267.3055662254408844
 20
145.7161927425518115
 10
266.1655921950394941
 20
145.6680245088932963
 10
264.1298376402916119
 20
145.5838657889640899
 10
262.0642298733700954
 20
145.5008983852061135
 10
259.9985153906106916
 20
145.4203564587681967
 10
257.9326983398631228
 20
145.3422269594983902
 10
255.8667828692636022
 20
145.2664968372347118
  0
ARC
  5
67
100
AcDbEntity
  8
Geometries
 62
256
370
0
 48
1.0
  6
Continuous
100
AcDbCircle
 10
430.9798316177927973
 20
160.1413148654617089
 30
0.0
 40
1.01503287696542
100
AcDbArc
 50
0.9910367460332352
 51
87.9184323082812256
  0
ARC
  5
68
100
AcDbEntity
  8
Geometries
 62
256
370
0
 48
1.0
  6
Continuous
100
AcDbCircle
 10
257.2367756742082179
 20
151.1137138328220999
 30
0.0
 40
1.640223786390528
100
AcDbArc
 50
17.8296502710070115
 51
90.5937091496550835
  0
LINE
  5
69
100
AcDbEntity
  8
Geometries
 62
256
370
0
 48
1.0
  6
Continuous
100
AcDbLine
 10
199.6924200190744898
 20
155.1710798086166108
 30
0.0
 11
199.6924200190744898
 21
144.0714917719080006
 31
0.0
  0
LWPOLYLINE
  5
6A
100
AcDbEntity
  8
Geometries
 62
256
370
0
 48
1.0
  6
Continuous
100
AcDbPolyline
 90
36
 70
128
 10
252.5856082336181885
 20
150.8858862438659116
 10
252.5866954258459884
 20
150.8312745867243052
 10
252.5901706422741881
 20
150.775892991943806
 10
252.5961357299327972
 20
150.719872430151014
 10
252.6046835631638032
 20
150.6633558448475867
 10
252.6158964076093127
 20
150.6064975773171
 10
252.6298443060530872
 20
150.5494625618659086
 10
252.6455510128521951
 20
150.4956814656972881
 10
252.6637740618141095
 20
150.4420513199868026
 10
252.6845352230810988
 20
150.3887305874673928
 10
252.7078423921711874
 20
150.3358819054022888
 10
252.7336888894132869
 20
150.2836706929242894
 10
252.7620529371502016
 20
150.2322636460650926
 10
252.7928973355863889
 20
150.1818271451525106
 10
252.8261693539585906
 20
150.1325256031884976
 10
252.8618008486214137
 20
150.084519786988011
 10
252.8997086138654993
 20
150.0379651450658969
 10
252.9390606588991943
 20
149.9937980919058873
 10
252.980408828743407
 20
149.9513068313816007
 10
253.0236359454077046
 20
149.9106148473632913
 10
253.0686141455024085
 20
149.8718351987359938
 10
253.1160673068322069
 20
149.8344202254170057
 10
253.1650399738304884
 20
149.7991871215457991
 10
253.2153716403346095
 20
149.7662159600446046
 10
253.2668964615189964
 20
149.7355722740404929
 10
253.3194449817536906
 20
149.7073067511362865
 10
253.3718857963129096
 20
149.6818954756510891
 10
253.4249862900051085
 20
149.658832708422608
 10
253.4785852639290908
 20
149.6381249760312926
 10
253.5325242367439103
 20
149.6197658227119973
 10
253.5969667505686118
 20
149.6009450342681077
 10
253.6614216220054914
 20
149.585372475090594
 10
253.7256508533739918
 20
149.572973918551412
 10
253.7894313142589056
 20
149.5636562413490935
 10
253.8525563340263034
 20
149.5573098780008934
 10
253.9148368665076134
 20
149.553811348461096
  0
LWPOLYLINE
  5
6B
100
AcDbEntity
  8
Geometries
 62
256
370
0
 48
1.0
  6
Continuous
100
AcDbPolyline
 90
36
 70
128
 10
253.9652834381861055
 20
152.7538495600566932
 10
253.9089160012325976
 20
152.752735781939009
 10
253.8517544628728047
 20
152.749325905295791
 10
253.7939334187041993
 20
152.7435226523753045
 10
253.7355997295300938
 20
152.7352373689377885
 10
253.6769119305704123
 20
152.724391583063408
 10
253.6180394063806887
 20
152.7109185420754045
 10
253.5625226990474914
 20
152.6957607370225958
 10
253.5071580999872083
 20
152.6781865806194958
 10
253.4521082958594036
 20
152.6581754839778
 10
253.3975402547299893
 20
152.6357201265302024
 10
253.3436238031617052
 20
152.6108271204662969
 10
253.2905300888776878
 20
152.5835175058103061
 10
253.2384299541153041
 20
152.5538270564053107
 10
253.1874922487432968
 20
152.5218063810667957
 10
253.13788211545031
 20
152.4875208089785872
 10
253.0897592815383916
 20
152.4510500538744964
 10
253.0440912153513864
 20
152.4131940143930137
 10
253.0001415589449039
 20
152.3734212179658982
 10
252.9580373810769913
 20
152.3318438149771055
 10
252.9178951110797016
 20
152.2885841673268885
 10
252.8791469082146932
 20
152.2429454163091123
 10
252.8426382328948989
 20
152.1958457775448892
 10
252.8084518750895029
 20
152.1474388476796946
 10
252.7766557610887048
 20
152.0978833465719049
 10
252.7473026334965027
 20
152.0473414714552121
 10
252.7208879250879932
 20
151.9969007269037888
 10
252.6968871856714998
 20
151.9458223547923978
 10
252.6753078954245098
 20
151.8942607476055002
 10
252.6561442235193908
 20
151.8423677386350903
 10
252.6364534824296868
 20
151.7803632046598068
 10
252.6201063258750992
 20
151.7183390486769099
 10
252.607027859794897
 20
151.6565235641419918
 10
252.5971237311582058
 20
151.595130903334308
 10
252.590282626130886
 20
151.5343595465639055
 10
252.5863788462939112
 20
151.4743911782383918
  0
LINE
  5
6C
100
AcDbEntity
  8
Geometries
 62
256
370
0
 48
1.0
  6
Continuous
100
AcDbLine
 10
255.8667828692636022
 20
149.5538113488350973
 30
0.0
 11
257.4706284785539765
 21
149.5538113491423928
 31
0.0
  0
LINE
  5
6D
100
AcDbEntity
  8
Geometries
 62
256
370
0
 48
1.0
  6
Continuous
100
AcDbLine
 10
263.7707309181482742
 20
152.7538495619353967
 30
0.0
 11
263.7867062929641975
 21
164.9539952436099952
 31
0.0
  0
ARC
  5
6E
100
AcDbEntity
  8
Geometries
 62
256
370
0
 48
1.0
  6
Continuous
100
AcDbCircle
 10
199.6924200190746035
 20
163.2710798086135071
 30
0.0
 40
8.0999999999969834
100
AcDbArc
 50
274.2480226667296961
 51
269.9999999999993179
  0
LINE
  5
6F
100
AcDbEntity
  8
Geometries
 62
256
370
0
 48
1.0
  6
Continuous
100
AcDbLine
 10
258.7972165434459271
 20
150.8486393494605977
 30
0.0
 11
258.7982212663769133
 21
151.6159306506789903
 31
0.0
  0
LINE
  5
70
100
AcDbEntity
  8
Geometries
 62
256
370
0
 48
1.0
  6
Continuous
100
AcDbLine
 10
248.0345329759375943
 20
152.7538495589203933
 30
0.0
 11
253.7748771597340181
 21
152.7543333902929987
 31
0.0
  0
LWPOLYLINE
  5
71
100
AcDbEntity
  8
Geometries
 62
256
370
0
 48
1.0
  6
Continuous
100
AcDbPolyline
 90
351
 70
128
 10
-1.9975341299035281
 20
157.5419182489654872
 10
-1.998289326031141
 20
157.6051962194613907
 10
-1.9964126866805709
 20
157.6682809038711923
 10
-1.99207278671571
 20
157.7311682349404123
 10
-1.985438201000477
 20
157.7938541454140875
 10
-1.9766775043980831
 20
157.8563345680375107
 10
-1.965959271772306
 20
157.9186054355560032
 10
-1.9510432808119449
 20
157.9917215414361067
 10
-1.9339183371906761
 20
158.0645342609311115
 10
-1.9148604100629141
 20
158.1370369356529864
 10
-1.894145468582991
 20
158.2092229072140128
 10
-1.8622253932481669
 20
158.3117831403924072
 10
-1.8282884131031949
 20
158.4136640049574112
 10
-1.792847757350188
 20
158.514842724269613
 10
-1.755893993062926
 20
158.6152904860396973
 10
-1.7173625356325599
 20
158.7149778410926046
 10
-1.6724164532942609
 20
158.8253020082586886
 10
-1.625334939188122
 20
158.9346013786152128
 10
-1.576028208061643
 20
159.0428350120423886
 10
-1.5244064746626409
 20
159.1499619684207119
 10
-1.470391254208067
 20
159.2559436024558863
 10
-1.414026022961224
 20
159.3607660359054989
 10
-1.355428693686719
 20
159.4644305066049128
 10
-1.29471824214562
 20
159.5669384682555858
 10
-1.222899994269568
 20
159.6826761557057068
 10
-1.148654743345759
 20
159.796907369394205
 10
-1.0721600858451841
 20
159.9096342792780092
 10
-0.9936019265085179
 20
160.0208790609372045
 10
-0.9132131972950503
 20
160.130777127577602
 10
-0.8312433579990852
 20
160.2395036900572052
 10
-0.747941886566764
 20
160.3472340029400982
 10
-0.6316863272961086
 20
160.4940584219328912
 10
-0.5140321743031961
 20
160.6397853547306056
 10
-0.395413316333503
 20
160.784710754185312
 10
-0.2758052599679104
 20
160.9287896731680121
 10
-0.1385798947256092
 20
161.0913751796730082
 10
0.0001541224094126
 20
161.2526218604932069
 10
0.1405198116134727
 20
161.4123989993717885
 10
0.2826401930627185
 20
161.570575880051905
 10
0.4266382869337235
 20
161.7270217862767083
 10
0.5726371134023225
 20
161.8816060017892937
 10
0.7207342228030882
 20
162.0342200776867116
 10
0.8708566846291887
 20
162.1849046102510101
 10
1.030144439585513
 20
162.3408059353699002
 10
1.191333635755228
 20
162.4948185029869023
 10
1.3542597188538821
 20
162.6470595434589086
 10
1.5187581345971639
 20
162.7976462871430101
 10
1.6846643287007621
 20
162.9466959643960138
 10
1.85181374688085
 20
163.094325805575096
 10
2.0857007468219422
 20
163.2971276292703067
 10
2.3215781674799421
 20
163.4975090710690893
 10
2.559357037712743
 20
163.6955608305420071
 10
2.7989483863788678
 20
163.89137360725951
 10
3.0402632423354419
 20
164.0850381007919054
 10
3.2832126344406731
 20
164.2766450107097
 10
3.527707591552542
 20
164.4662850365835141
 10
3.798330984899934
 20
164.6727255639108876
 10
4.070598436233297
 20
164.8770166291535872
 10
4.3443915249620488
 20
165.0792789534397116
 10
4.6195919812530803
 20
165.2796330883946894
 10
4.8961073652098719
 20
165.4781705438551
 10
5.2062252558823729
 20
165.697643513968103
 10
5.5178917835561379
 20
165.914921207135194
 10
5.831064481099304
 20
166.1300340984803938
 10
6.1457008813805771
 20
166.3430126631274959
 10
6.4617585172682936
 20
166.5538873762004926
 10
6.7791949216305056
 20
166.7626887128232909
 10
7.0979676273357484
 20
166.9694471481197127
 10
7.4180341672525287
 20
167.1741931572136082
 10
7.7600707848746424
 20
167.389933374499094
 10
8.1034945650895622
 20
167.6034506589020907
 10
8.448275098904702
 20
167.8147672680817095
 10
8.7943819773284417
 20
168.023905459697005
 10
9.1417847913682238
 20
168.2308874914072874
 10
9.4904531320318313
 20
168.4357356208716112
 10
9.9029669979056507
 20
168.6744545428367985
 10
10.3171466982761295
 20
168.9102767632145969
 10
10.7329415140929108
 20
169.1432417733248883
 10
11.1502946940085508
 20
169.3734087180808103
 10
11.5777103013339495
 20
169.6054581057261998
 10
12.00662410724766
 20
169.8347348763983859
 10
12.4369732695961694
 20
170.0613101617774134
 10
12.8686949462268103
 20
170.2852550935429861
 10
13.3017262949865405
 20
170.5066408033750065
 10
13.7360061667273499
 20
170.7255370394153999
 10
14.1714906151891
 20
170.9419994914599101
 10
14.6081457191038702
 20
171.1560756567955082
 10
15.0459376820578008
 20
171.3678129306771041
 10
15.4848327076371692
 20
171.5772587083598069
 10
15.9247969994281995
 20
171.7844603850986118
 10
16.3657967610172612
 20
171.9894653561484859
 10
16.8077981959904683
 20
172.1923210167645095
 10
17.2507675079341105
 20
172.3930747622017066
 10
17.7391113129530709
 20
172.6115327363878862
 10
18.2285403724189905
 20
172.8275678245508118
 10
18.7190097033048914
 20
173.041243109774598
 10
19.2104743225843002
 20
173.2526216751438994
 10
19.7028892472303312
 20
173.4617666037430865
 10
20.2623306260930995
 20
173.6962793456970928
 10
20.8229124404242611
 20
173.9280279698143943
 10
21.3846111585538701
 20
174.157039025240806
 10
21.9474032488119803
 20
174.3833390611220011
 10
22.5112651795287491
 20
174.6069546266039083
 10
23.0761734190337187
 20
174.8279122708322859
 10
23.6421044356572203
 20
175.0462385429528069
 10
24.2090346977290913
 20
175.2619599921112865
 10
24.8040077521962985
 20
175.4851889837790964
 10
25.4000246021089104
 20
175.7056188306715967
 10
25.9970581915095806
 20
175.9232800581428933
 10
26.5950817141232108
 20
176.1382034185099883
 10
27.1940704277508303
 20
176.3504215403428077
 10
27.79400060843966
 20
176.5599679778023869
 10
28.3948485394101304
 20
176.7668762915699858
 10
28.9965905038831693
 20
176.9711800423270063
 10
29.5992027850793704
 20
177.1729127907545944
 10
30.2026616662187983
 20
177.3721080975340954
 10
30.8069434305224092
 20
177.568799523346911
 10
31.4120243612108503
 20
177.7630206288741022
 10
31.9832399010177291
 20
177.9439109271339987
 10
32.555124920750103
 20
178.1226631257528084
 10
33.1276599506381899
 20
178.2993052745385967
 10
33.7008288859444178
 20
178.4738647644911964
 10
34.2746172747250668
 20
178.6463686630254131
 10
35.0057665260327369
 20
178.8629888189240091
 10
35.7378660277232427
 20
179.0763788953728124
 10
36.470886009157617
 20
179.2865946901449092
 10
37.204796699695919
 20
179.4936920010136134
 10
37.9395683286989822
 20
179.6977266257520967
 10
38.6620282451647768
 20
179.8951906256434938
 10
39.3852617068446875
 20
180.0898070261945065
 10
40.1092429108896127
 20
180.2816222725240038
 10
40.8339535985934674
 20
180.4706626504774079
 10
41.5741888518525116
 20
180.6607237845350085
 10
42.3151483663912984
 20
180.8479426218474089
 10
43.0568143133978367
 20
181.0323428933631078
 10
43.7991688640597872
 20
181.2139483300308029
 10
44.542194189565663
 20
181.3927826627989077
 10
45.2858724611030823
 20
181.5688696226162051
 10
46.0301858498604304
 20
181.7422329404313075
 10
46.7870114749094128
 20
181.9155989697985945
 10
47.5444597564962805
 20
182.0862063340944133
 10
48.3025162012532974
 20
182.2540831500006107
 10
49.0611663158129474
 20
182.4192575341994882
 10
49.8203956068078568
 20
182.5817576033730063
 10
50.5801895808706732
 20
182.7416114742034097
 10
51.3405337446334613
 20
182.8988472633726872
 10
52.1775304960424933
 20
183.0688163044005137
 10
53.0151561493418626
 20
183.2356889111075873
 10
53.853391413859498
 20
183.3995025067978872
 10
54.6922169989237332
 20
183.5602945147753928
 10
55.5316136138619569
 20
183.7181023583437991
 10
56.3715619680021121
 20
183.8729634608071137
 10
57.212042770672177
 20
184.0249152454692023
 10
58.05303673119991
 20
184.1739951356337883
 10
58.8945245589133322
 20
184.3202405546049931
 10
59.7364869716329565
 20
184.4636889155378014
 10
60.5638596802385223
 20
184.6018868692964929
 10
61.3916620971323468
 20
184.7374477988859098
 10
62.2198833513606573
 20
184.8703983097695129
 10
63.0485125719696669
 20
185.0007650074113883
 10
63.8926157016535399
 20
185.13087480182881
 10
64.737119023107681
 20
185.2583616369527988
 10
65.5820110615708245
 20
185.3832535959996903
 10
66.427280342281648
 20
185.5055787621859906
 10
67.2729153904786585
 20
185.6253652187280068
 10
68.103794738527597
 20
185.7405686908950884
 10
68.9350049680118957
 20
185.8533770067452906
 10
69.7665352079776255
 20
185.9638167717421879
 10
70.5983745874713406
 20
186.0719145913496106
 10
71.589047562047341
 20
186.1975858071029108
 10
72.5801249115695555
 20
186.3200205336916895
 10
73.5715883311658843
 20
186.439263572254788
 10
74.5634219163451633
 20
186.5553539795633071
 10
75.5556136127468108
 20
186.6683215986184052
 10
76.5481517128212943
 20
186.778195442466199
 10
77.4958868318798295
 20
186.8802156434294091
 10
78.4439167291289152
 20
186.9794685986497029
 10
79.3922312220343542
 20
187.0759795419567126
 10
80.3408201280631431
 20
187.1697737071804113
 10
81.2896732646816531
 20
187.2608763281502036
 10
82.2387804493563124
 20
187.3493126386960057
 10
83.188131499553549
 20
187.4351078726475066
 10
84.1377162327396206
 20
187.5182872638345088
 10
85.1327588313738772
 20
187.6026494183836917
 10
86.1280350154754331
 20
187.6841973779868908
 10
87.123533078477351
 20
187.7629601562763924
 10
88.1192420860599555
 20
187.8389672274938107
 10
89.1151532603750383
 20
187.9122493521163904
 10
90.1112581970734681
 20
187.9828375133969018
 10
91.1075484918070515
 20
188.0507626945876041
 10
92.1040157402267852
 20
188.116055878941296
 10
93.1006515379842199
 20
188.1787480497102081
 10
94.097447480730267
 20
188.2388701901471109
 10
95.0943951641166905
 20
188.2964532835042917
 10
96.0914861837947427
 20
188.3515283130344926
 10
97.2668017548053143
 20
188.4132604583359125
 10
98.4422909918929747
 20
188.4716025846990988
 10
99.6179401365352817
 20
188.5266054139327139
 10
100.7937354302102051
 20
188.5783196678455056
 10
102.0101562261625929
 20
188.6284071392427109
 10
103.2267093515759058
 20
188.6750798813430094
 10
104.4433854714105934
 20
188.7183878308385943
 10
105.6601752506278018
 20
188.7583809244216013
 10
106.8770693541878956
 20
188.7951090987841951
 10
108.0723257200770036
 20
188.8280517440450126
 10
109.267664869260102
 20
188.8579405113954124
 10
110.4630779579119064
 20
188.8848227098343102
 10
111.6585561422077006
 20
188.9087456483607923
 10
112.8784897639799993
 20
188.930155443199709
 10
114.0984725605836019
 20
188.9485834841601957
 10
115.3184952309080984
 20
188.9640794860644917
 10
116.5385499861464069
 20
188.9766844331765014
 10
117.758630247476205
 20
188.9864323244947002
 10
118.978729469966197
 20
188.9933569633676882
 10
120.1988411086838937
 20
188.997492153144492
 10
121.4189586186976015
 20
188.9988716971737119
 10
122.639075455075897
 20
188.997529398804005
 10
123.8591850728868025
 20
188.9934990613843979
 10
125.0792809271980985
 20
188.9868144882634908
 10
126.2993564730782055
 20
188.9775094827899977
 10
127.5194051655953018
 20
188.9656178483128883
 10
128.7394204719388995
 20
188.9511733957172908
 10
130.0813926072295033
 20
188.9323773760119138
 10
131.4233143974896905
 20
188.9105824958323012
 10
132.7651825424561878
 20
188.8858371117831041
 10
134.106993741866205
 20
188.8581895804686042
 10
135.4487446954560994
 20
188.8276882584931968
 10
136.8717443760974959
 20
188.7922738132255915
 10
138.2946686372775105
 20
188.7537612689982893
 10
139.7175135415843101
 20
188.7122083181452865
 10
141.1402751516054934
 20
188.6676726530010058
 10
142.5629495299295115
 20
188.6202119658996139
 10
143.9855327391435083
 20
188.5698839491751073
 10
145.3267384381420868
 20
188.519857414218194
 10
146.6678562891204933
 20
188.4673815256554121
 10
148.0088829918159092
 20
188.4125046400912993
 10
149.3498152459654875
 20
188.3552751141303077
 10
150.690649751305898
 20
188.2957413043768042
 10
152.1869973592451117
 20
188.2266356327629921
 10
153.6832145108886891
 20
188.1547871685745861
 10
155.1792966182246118
 20
188.0802631369597862
 10
156.6752391487356135
 20
188.0031304053296992
 10
158.1710394152208039
 20
187.9234439455053121
 10
159.6666969612670925
 20
187.8412443488342092
 10
161.1622114639206131
 20
187.7565713463370116
 10
162.6575826002273004
 20
187.6694646690338004
 10
164.3626740905882002
 20
187.5672120899359072
 10
166.0675782442544914
 20
187.4619052759819908
 10
167.7722945822970928
 20
187.3536031467737075
 10
169.4768226257878894
 20
187.2423646219120883
 10
171.1811618957979135
 20
187.1282486209987042
 10
172.8548823254384956
 20
187.0134265556521029
 10
174.5284197476088082
 20
186.8959415170340037
 10
176.2017737085818112
 20
186.7758493243673001
 10
177.8749437546300101
 20
186.6532057968751133
 10
179.5820700739826918
 20
186.5254873030563942
 10
181.2890039405671132
 20
186.3952297034363141
 10
182.9957448723056928
 20
186.2624923049606878
 10
184.7022925484565974
 20
186.127334461353712
 10
186.4086487058127091
 20
185.9898161229104119
 10
188.1148165004790087
 20
185.8499976514484047
 10
189.8207991167091961
 20
185.7079394169462887
 10
191.8108823721377121
 20
185.5394545382935974
 10
193.8007229697377909
 20
185.3680991288196083
 10
195.7903259659861135
 20
185.1939690538146124
 10
197.7796964173585934
 20
185.0171601785687869
 10
199.7688393803317126
 20
184.8377683683723092
 10
201.757759911381811
 20
184.6558894885152995
 10
204.1015661425556118
 20
184.4384697323565092
 10
206.4450787103941991
 20
184.2178854584898033
 10
208.7883058927122022
 20
183.9942936052777895
 10
211.1312559673243925
 20
183.7678511110827912
 10
213.5545966740901918
 20
183.530769180139913
 10
215.9776598451198026
 20
183.2909187895556897
 10
218.400455606171306
 20
183.0484138768752018
 10
220.8229940830030955
 20
182.8033683796435866
 10
223.2452854013731098
 20
182.5558962354060952
 10
225.6240907375567133
 20
182.3105914458380994
 10
228.0026770238418123
 20
182.0631637482003953
 10
230.3810538531645875
 20
181.8137210845885079
 10
232.759230818460793
 20
181.5623713970983033
 10
235.5901465806414024
 20
181.2608087730295949
 10
238.4208088692832916
 20
180.9568785479293922
 10
241.2512337566456893
 20
180.6507578877238132
 10
244.0814367585878131
 20
180.3425995264371977
 10
246.9114332196770931
 20
180.0325486765484015
 10
249.7412384844332962
 20
179.7207505484504111
 10
253.5308834988007902
 20
179.3006798787708078
 10
257.3202499516938246
 20
178.8780844349961967
 10
261.109374704613117
 20
178.4533130500041125
 10
264.8982946190587882
 20
178.0267145566718909
 10
268.687046235055675
 20
177.5986335516417967
 10
272.4756626230757206
 20
177.1693689117138035
 10
276.2641747360177078
 20
176.7391916094908026
 10
280.0526134965410847
 20
176.3083722190878007
 10
285.1038045200485271
 20
175.7334152203457904
 10
290.1549934110277036
 20
175.1584391130199094
 10
295.2062533244757105
 20
174.5840840882491989
 10
300.2576486241205771
 20
174.0109185047639926
 10
305.3092299299058823
 20
173.4393984224873861
 10
310.361046665695028
 20
172.8699701283196077
 10
314.3305286009273232
 20
172.4243203570796084
 10
318.3002103632787225
 20
171.9804539338458085
 10
322.2701159183188224
 20
171.5385873800094885
 10
326.2402687117343021
 20
171.0989402639077923
 10
330.2106913553365075
 20
170.661737041075213
 10
334.1814063858249142
 20
170.2272026072733979
 10
337.5776996513184827
 20
169.8578443468367993
 10
340.9742373802325233
 20
169.4907434923885887
 10
344.3710336720819782
 20
169.1260407442672999
 10
347.7681026263821877
 20
168.7638768028110974
 10
351.1654576758248254
 20
168.404388329463103
 10
354.5024322977416773
 20
168.0540263917391997
 10
357.8396967968618014
 20
167.7064351995030904
 10
361.1772569592886271
 20
167.3617021893807078
 10
364.5151185711250719
 20
167.0199147979976999
 10
367.1856287924310891
 20
166.7486644877963897
 10
369.8563386069503736
 20
166.4794001005813868
 10
372.5272509771683076
 20
166.2121664039052007
 10
375.1983688655698188
 20
165.9470081653201987
 10
377.8696963624366276
 20
165.6839811851627076
 10
380.4935401803522268
 20
165.4278834375832901
 10
383.1176209354894127
 20
165.1742116205145123
 10
385.7419588821496177
 20
164.9231788295514889
 10
388.3665742746341039
 20
164.67499816028959
 10
391.0392150940559191
 20
164.4254499096302027
 10
393.7121645118276092
 20
164.1791564449846987
 10
396.3854035178637787
 20
163.9360637385030941
 10
399.0589122302200167
 20
163.6961117406200117
 10
401.732670766951685
 20
163.4592404017701881
 10
404.3589076336289736
 20
163.229536725821589
 10
406.9853524276871894
 20
163.0025277602553047
 10
409.611998515329276
 20
162.7777578216137897
 10
412.2388398808033116
 20
162.5547510269848885
 10
415.1811266164004905
 20
162.3064890546515073
 10
418.1236448734085229
 20
162.0592227553856048
 10
419.2797226862618913
 20
161.9627305607045002
 10
420.4358940431681049
 20
161.8674003720549877
 10
421.592192382923372
 20
161.7738476102460083
 10
422.748651144322821
 20
161.6826876960859067
 10
423.5197292880438908
 20
161.6235476912947036
 10
424.2909034997521758
 20
161.5659270416132074
 10
425.0621836872389849
 20
161.5100080939477039
 10
425.8335797582952864
 20
161.4559731952043933
 10
426.6051016207127873
 20
161.4040046922895897
 10
427.3767591822829104
 20
161.3542849321096071
 10
428.1044552172709814
 20
161.3096297995018062
 10
428.832288998380875
 20
161.2672886956389959
 10
429.5602688301316903
 20
161.2274144601892942
 10
430.2884030170445726
 20
161.1901599328207055
 10
431.0166998636395874
 20
161.15567795320149
  0
LINE
  5
72
100
AcDbEntity
  8
Geometries
 62
256
370
0
 48
1.0
  6
Continuous
100
AcDbLine
 10
253.9148368665076134
 20
149.553811348461096
 30
0.0
 11
255.4667828692635965
 21
149.5538113487583871
 31
0.0
  0
LINE
  5
73
100
AcDbEntity
  8
Geometries
 62
256
370
0
 48
1.0
  6
Continuous
100
AcDbLine
 10
257.2200000000000273
 20
152.7599999999999909
 30
0.0
 11
263.7707309181482742
 21
152.7538495619353967
 31
0.0
  0
LINE
  5
74
100
AcDbEntity
  8
Geometries
 62
256
370
0
 48
1.0
  6
Continuous
100
AcDbLine
 10
200.2924200190745978
 20
144.0761365217871059
 30
0.0
 11
200.2924200190745978
 21
155.1933325979148037
 31
0.0
  0
LINE
  5
75
100
AcDbEntity
  8
Geometries
 62
256
370
0
 48
1.0
  6
Continuous
100
AcDbLine
 10
255.8667828692636022
 20
145.2664968372347118
 30
0.0
 11
255.8667828692636022
 21
149.5538113488350973
 31
0.0
  0
LINE
  5
76
100
AcDbEntity
  8
Geometries
 62
256
370
0
 48
1.0
  6
Continuous
100
AcDbLine
 10
252.5863788462939112
 20
151.4743911782383918
 30
0.0
 11
252.5856082336181885
 21
150.8858862438659116
 31
0.0
  0
LWPOLYLINE
  5
77
100
AcDbEntity
  8
Geometries
 62
256
370
0
 48
1.0
  6
Continuous
100
AcDbPolyline
 90
36
 70
128
 10
257.4706284785539765
 20
149.5538113491423928
 10
257.5262248590921104
 20
149.555554540408707
 10
257.582604580077998
 20
149.5596070335317904
 10
257.6396301475033965
 20
149.5660682228084966
 10
257.6971512598001937
 20
149.5750286040920969
 10
257.7550054148547929
 20
149.5865681177039903
 10
257.8130187700252236
 20
149.6007545111216928
 10
257.8676976322830114
 20
149.616603267826406
 10
257.922192949031114
 20
149.6348860157862077
 10
257.9763374216071838
 20
149.6556225670063043
 10
258.0299593407547718
 20
149.678818821342503
 10
258.0828841065408028
 20
149.7044660605484125
 10
258.1349358728148786
 20
149.7325404265029078
 10
258.1859392884272211
 20
149.7630026055693122
 10
258.2357213028931255
 20
149.7957977365360875
 10
258.2841130005654122
 20
149.830855554145586
 10
258.3309514248489904
 20
149.8680907740092039
 10
258.3752913033114851
 20
149.9066841181738994
 10
258.417844906943003
 20
149.9471745323797052
 10
258.4584842016736843
 20
149.9894432517496057
 10
258.4970926250488219
 20
150.0333610558213024
 10
258.534209006371384
 20
150.0796286378821094
 10
258.5690168687123105
 20
150.1273081074367042
 10
258.601436114930209
 20
150.1762386160251879
 10
258.6314024480581111
 20
150.2262544542454918
 10
258.6588676454546203
 20
150.2771868253331036
 10
258.6833767032695732
 20
150.327937214609392
 10
258.7054266118956889
 20
150.3792467885799908
 10
258.725016246224186
 20
150.4309566108015872
 10
258.7421582874579826
 20
150.4829110219999109
 10
258.7594106888357146
 20
150.5448712729391048
 10
258.7732971539576852
 20
150.6067201311614951
 10
258.7839055488271924
 20
150.6682272483108136
 10
258.7913432124759083
 20
150.7291780291897112
 10
258.7957342120187718
 20
150.7893751027010865
 10
258.7972165434459271
 20
150.8486393494605977
  0
LINE
  5
78
100
AcDbEntity
  8
Geometries
 62
256
370
0
 48
1.0
  6
Continuous
100
AcDbLine
 10
248.0505083507532902
 20
164.9539952405949919
 30
0.0
 11
248.0345329759375943
 21
152.7538495589203933
 31
0.0
  0
LINE
  5
79
100
AcDbEntity
  8
Geometries
 62
256
370
0
 48
1.0
  6
Continuous
100
AcDbLine
 10
263.7867062929641975
 20
164.9539952436099952
 30
0.0
 11
248.0505083507532902
 21
164.9539952405949919
 31
0.0
  0
LINE
  5
7A
100
AcDbEntity
  8
0
 62
256
370
-1
 48
1.0
  6
ByLayer
100
AcDbLine
 10
253.7748771597340181
 20
152.7543333902929987
 30
0.0
 11
253.8499999999999943
 21
152.7700000000000102
 31
0.0
  0
LINE
  5
7B
100
AcDbEntity
  8
0
 62
256
370
-1
 48
1.0
  6
ByLayer
100
AcDbLine
 10
253.8499999999999943
 20
152.7700000000000102
 30
0.0
 11
253.9652834381861055
 21
152.7538495600566932
 31
0.0
  0
LINE
  5
7C
100
AcDbEntity
  8
0
 62
256
370
-1
 48
1.0
  6
ByLayer
100
AcDbLine
 10
257.2197796851384624
 20
152.7538495606802655
 30
0.0
 11
257.2200000000000273
 21
152.7599999999999909
 31
0.0
  0
ENDSEC
  0
SECTION
  2
OBJECTS
  0
DICTIONARY
  5
C
100
AcDbDictionary
280
0
281
1
  3
ACAD_GROUP
350
D
  3
ACAD_LAYOUT
350
1A
  3
ACAD_MLINESTYLE
350
17
  3
ACAD_PLOTSETTINGS
350
19
  3
ACAD_PLOTSTYLENAME
350
E
  3
AcDbVariableDictionary
350
7D
  3
QCAD_OBJECTS
350
7E
  0
DICTIONARY
  5
D
100
AcDbDictionary
280
0
281
1
  0
ACDBDICTIONARYWDFLT
  5
E
100
AcDbDictionary
281
1
  3
Normal
350
F
100
AcDbDictionaryWithDefault
340
F
  0
ACDBPLACEHOLDER
  5
F
  0
DICTIONARY
  5
17
100
AcDbDictionary
280
0
281
1
  3
Standard
350
18
  0
MLINESTYLE
  5
18
100
AcDbMlineStyle
  2
STANDARD
 70
0
  3

 62
256
 51
90.0
 52
90.0
 71
2
 49
0.5
 62
256
  6
BYLAYER
 49
-0.5
 62
256
  6
BYLAYER
  0
DICTIONARY
  5
19
100
AcDbDictionary
280
0
281
1
  0
DICTIONARY
  5
1A
100
AcDbDictionary
281
1
  3
Layout1
350
1E
  3
Layout2
350
26
  3
Model
350
22
  0
LAYOUT
  5
1E
100
AcDbPlotSettings
  1

  2
none_device
  4

  6

 40
0.0
 41
0.0
 42
0.0
 43
0.0
 44
0.0
 45
0.0
 46
0.0
 47
0.0
 48
0.0
 49
0.0
140
0.0
141
0.0
142
1.0
143
1.0
 70
688
 72
0
 73
0
 74
5
  7

 75
16
147
1.0
148
0.0
149
0.0
100
AcDbLayout
  1
Layout1
 70
1
 71
1
 10
0.0
 20
0.0
 11
420.0
 21
297.0
 12
0.0
 22
0.0
 32
0.0
 14
100000000000000000000.0
 24
100000000000000000000.0
 34
100000000000000000000.0
 15
-100000000000000000000.0
 25
-100000000000000000000.0
 35
-100000000000000000000.0
146
0.0
 13
0.0
 23
0.0
 33
0.0
 16
1.0
 26
0.0
 36
0.0
 17
0.0
 27
1.0
 37
0.0
 76
0
330
1B
  0
LAYOUT
  5
22
100
AcDbPlotSettings
  1

  2
none_device
  4

  6

 40
0.0
 41
0.0
 42
0.0
 43
0.0
 44
0.0
 45
0.0
 46
0.0
 47
0.0
 48
0.0
 49
0.0
140
0.0
141
0.0
142
1.0
143
1.0
 70
1712
 72
0
 73
0
 74
0
  7

 75
0
147
1.0
148
0.0
149
0.0
100
AcDbLayout
  1
Model
 70
1
 71
0
 10
0.0
 20
0.0
 11
12.0
 21
9.0
 12
0.0
 22
0.0
 32
0.0
 14
0.0
 24
0.0
 34
0.0
 15
0.0
 25
0.0
 35
0.0
146
0.0
 13
0.0
 23
0.0
 33
0.0
 16
1.0
 26
0.0
 36
0.0
 17
0.0
 27
1.0
 37
0.0
 76
0
330
1F
  0
LAYOUT
  5
26
100
AcDbPlotSettings
  1

  2
none_device
  4

  6

 40
0.0
 41
0.0
 42
0.0
 43
0.0
 44
0.0
 45
0.0
 46
0.0
 47
0.0
 48
0.0
 49
0.0
140
0.0
141
0.0
142
1.0
143
1.0
 70
688
 72
0
 73
0
 74
5
  7

 75
16
147
1.0
148
0.0
149
0.0
100
AcDbLayout
  1
Layout2
 70
1
 71
2
 10
0.0
 20
0.0
 11
12.0
 21
9.0
 12
0.0
 22
0.0
 32
0.0
 14
0.0
 24
0.0
 34
0.0
 15
0.0
 25
0.0
 35
0.0
146
0.0
 13
0.0
 23
0.0
 33
0.0
 16
1.0
 26
0.0
 36
0.0
 17
0.0
 27
1.0
 37
0.0
 76
0
330
23
  0
DICTIONARY
  5
7D
100
AcDbDictionary
281
1
  3
DIMASSOC
350
80
  3
HIDETEXT
350
7F
  0
DICTIONARYVAR
  5
7F
100
DictionaryVariables
280
0
  1
2
  0
DICTIONARYVAR
  5
80
100
DictionaryVariables
280
0
  1
1
  0
DICTIONARY
  5
7E
100
AcDbDictionary
281
1
  3
ColorSettings/BackgroundColor
350
81
  3
ColorSettings/ColorMode
350
82
  3
Grid/DisplayGrid00
350
83
  3
Grid/DisplayGrid01
350
84
  3
Grid/DisplayGrid02
350
85
  3
Grid/DisplayGrid03
350
86
  3
Grid/GridSpacingX00
350
87
  3
Grid/GridSpacingX01
350
88
  3
Grid/GridSpacingX02
350
89
  3
Grid/GridSpacingX03
350
8A
  3
Grid/GridSpacingY00
350
8B
  3
Grid/GridSpacingY01
350
8C
  3
Grid/GridSpacingY02
350
8D
  3
Grid/GridSpacingY03
350
8E
  3
Grid/IsometricGrid00
350
8F
  3
Grid/IsometricGrid01
350
90
  3
Grid/IsometricGrid02
350
91
  3
Grid/IsometricGrid03
350
92
  3
Grid/IsometricProjection00
350
93
  3
Grid/IsometricProjection01
350
94
  3
Grid/IsometricProjection02
350
95
  3
Grid/IsometricProjection03
350
96
  3
Grid/MetaGridSpacingX00
350
97
  3
Grid/MetaGridSpacingX01
350
98
  3
Grid/MetaGridSpacingX02
350
99
  3
Grid/MetaGridSpacingX03
350
9A
  3
Grid/MetaGridSpacingY00
350
9B
  3
Grid/MetaGridSpacingY01
350
9C
  3
Grid/MetaGridSpacingY02
350
9D
  3
Grid/MetaGridSpacingY03
350
9E
  3
MultiPageSettings/Columns
350
9F
  3
MultiPageSettings/GlueMarginsBottom
350
A0
  3
MultiPageSettings/GlueMarginsLeft
350
A1
  3
MultiPageSettings/GlueMarginsRight
350
A2
  3
MultiPageSettings/GlueMarginsTop
350
A3
  3
MultiPageSettings/PrintCropMarks
350
A4
  3
MultiPageSettings/Rows
350
A5
  3
PageSettings/OffsetX
350
A6
  3
PageSettings/OffsetY
350
A7
  3
PageSettings/PageOrientation
350
A8
  3
PageSettings/PaperHeight
350
A9
  3
PageSettings/PaperWidth
350
AA
  3
PageSettings/Scale
350
AB
  3
PageSettings/ShowPaperBorders
350
AC
  3
PageTagSettings/EnablePageTags
350
AD
  3
PageTagSettings/TagAlignment
350
AE
  3
PageTagSettings/TagFont
350
AF
  3
PageTagSettings/TagPosition
350
B0
  3
QCADVersion
350
B1
  3
UnitSettings/PaperUnit
350
B2
  3
ViewportCenter
350
B3
  3
ViewportHeight
350
B4
  3
ViewportWidth
350
B5
  0
XRECORD
  5
81
330
7E
100
AcDbXrecord
280
1
1000
White
  0
XRECORD
  5
82
330
7E
100
AcDbXrecord
280
1
1000
FullColor
  0
XRECORD
  5
83
330
7E
100
AcDbXrecord
280
1
290
1
  0
XRECORD
  5
84
330
7E
100
AcDbXrecord
280
1
290
1
  0
XRECORD
  5
85
330
7E
100
AcDbXrecord
280
1
290
1
  0
XRECORD
  5
86
330
7E
100
AcDbXrecord
280
1
290
1
  0
XRECORD
  5
87
330
7E
100
AcDbXrecord
280
1
1000
auto
  0
XRECORD
  5
88
330
7E
100
AcDbXrecord
280
1
1000
auto
  0
XRECORD
  5
89
330
7E
100
AcDbXrecord
280
1
1000
auto
  0
XRECORD
  5
8A
330
7E
100
AcDbXrecord
280
1
1000
auto
  0
XRECORD
  5
8B
330
7E
100
AcDbXrecord
280
1
1000
auto
  0
XRECORD
  5
8C
330
7E
100
AcDbXrecord
280
1
1000
auto
  0
XRECORD
  5
8D
330
7E
100
AcDbXrecord
280
1
1000
auto
  0
XRECORD
  5
8E
330
7E
100
AcDbXrecord
280
1
1000
auto
  0
XRECORD
  5
8F
330
7E
100
AcDbXrecord
280
1
290
0
  0
XRECORD
  5
90
330
7E
100
AcDbXrecord
280
1
290
0
  0
XRECORD
  5
91
330
7E
100
AcDbXrecord
280
1
290
0
  0
XRECORD
  5
92
330
7E
100
AcDbXrecord
280
1
290
0
  0
XRECORD
  5
93
330
7E
100
AcDbXrecord
280
1
 90
65537
  0
XRECORD
  5
94
330
7E
100
AcDbXrecord
280
1
 90
65537
  0
XRECORD
  5
95
330
7E
100
AcDbXrecord
280
1
 90
65537
  0
XRECORD
  5
96
330
7E
100
AcDbXrecord
280
1
 90
65537
  0
XRECORD
  5
97
330
7E
100
AcDbXrecord
280
1
1000
auto
  0
XRECORD
  5
98
330
7E
100
AcDbXrecord
280
1
1000
auto
  0
XRECORD
  5
99
330
7E
100
AcDbXrecord
280
1
1000
auto
  0
XRECORD
  5
9A
330
7E
100
AcDbXrecord
280
1
1000
auto
  0
XRECORD
  5
9B
330
7E
100
AcDbXrecord
280
1
1000
auto
  0
XRECORD
  5
9C
330
7E
100
AcDbXrecord
280
1
1000
auto
  0
XRECORD
  5
9D
330
7E
100
AcDbXrecord
280
1
1000
auto
  0
XRECORD
  5
9E
330
7E
100
AcDbXrecord
280
1
1000
auto
  0
XRECORD
  5
9F
330
7E
100
AcDbXrecord
280
1
 90
1
  0
XRECORD
  5
A0
330
7E
100
AcDbXrecord
280
1
 40
10.0
  0
XRECORD
  5
A1
330
7E
100
AcDbXrecord
280
1
 40
10.0
  0
XRECORD
  5
A2
330
7E
100
AcDbXrecord
280
1
 40
10.0
  0
XRECORD
  5
A3
330
7E
100
AcDbXrecord
280
1
 40
10.0
  0
XRECORD
  5
A4
330
7E
100
AcDbXrecord
280
1
290
0
  0
XRECORD
  5
A5
330
7E
100
AcDbXrecord
280
1
 90
1
  0
XRECORD
  5
A6
330
7E
100
AcDbXrecord
280
1
 40
0.0
  0
XRECORD
  5
A7
330
7E
100
AcDbXrecord
280
1
 40
0.0
  0
XRECORD
  5
A8
330
7E
100
AcDbXrecord
280
1
1000
Portrait
  0
XRECORD
  5
A9
330
7E
100
AcDbXrecord
280
1
 40
297.0
  0
XRECORD
  5
AA
330
7E
100
AcDbXrecord
280
1
 40
210.0
  0
XRECORD
  5
AB
330
7E
100
AcDbXrecord
280
1
1000
1:1
  0
XRECORD
  5
AC
330
7E
100
AcDbXrecord
280
1
290
1
  0
XRECORD
  5
AD
330
7E
100
AcDbXrecord
280
1
290
0
  0
XRECORD
  5
AE
330
7E
100
AcDbXrecord
280
1
1000
Inside
  0
XRECORD
  5
AF
330
7E
100
AcDbXrecord
280
1
1000
Arial,10,-1,5,50,0,0,0,0,0
  0
XRECORD
  5
B0
330
7E
100
AcDbXrecord
280
1
1000
TopLeft
  0
XRECORD
  5
B1
330
7E
100
AcDbXrecord
280
1
1000
3.32.2
  0
XRECORD
  5
B2
330
7E
100
AcDbXrecord
280
1
 90
4
  0
XRECORD
  5
B4
330
7E
100
AcDbXrecord
280
1
 40
0.1442310598173719
  0
XRECORD
  5
B5
330
7E
100
AcDbXrecord
280
1
 40
0.3058368336620561
  0
ENDSEC
  0
EOF
