999
dxflib 3.26.4.0
  0
SECTION
  2
HEADER
  9
$ACADVER
  1
AC1015
  9
$HANDSEED
  5
FFFF
  9
$ANGBASE
 50
0.0
  9
$ANGDIR
 70
0
  9
$ATTMODE
 70
1
  9
$AUNITS
 70
0
  9
$AUPREC
 70
0
  9
$CECOLOR
 62
256
  9
$CELTSCALE
 40
1.0
  9
$CHAMFERA
 40
0.0
  9
$CHAMFERB
 40
0.0
  9
$CHAMFERC
 40
0.0
  9
$CHAMFERD
 40
0.0
  9
$CMLJUST
 70
0
  9
$CMLSCALE
 40
20.0
  9
$DIMADEC
 70
2
  9
$DIMALT
 70
0
  9
$DIMALTD
 70
3
  9
$DIMALTF
 40
0.0393700787401575
  9
$DIMALTRND
 40
0.0
  9
$DIMALTTD
 70
3
  9
$DIMALTTZ
 70
0
  9
$DIMALTU
 70
2
  9
$DIMALTZ
 70
0
  9
$DIMAPOST
  1

  9
$DIMASZ
 40
2.5
  9
$DIMATFIT
 70
3
  9
$DIMAUNIT
 70
0
  9
$DIMAZIN
 70
0
  9
$DIMBLK
  1
0
  9
$DIMBLK1
  1
0
  9
$DIMBLK2
  1
0
  9
$DIMCEN
 40
2.5
  9
$DIMCLRD
 70
0
  9
$DIMCLRE
 70
0
  9
$DIMDEC
 70
2
  9
$DIMDLE
 40
0.0
  9
$DIMDLI
 40
3.75
  9
$DIMDSEP
 70
44
  9
$DIMEXE
 40
1.25
  9
$DIMEXO
 40
0.625
  9
$DIMFRAC
 70
2
  9
$DIMGAP
 40
0.7
  9
$DIMJUST
 70
0
  9
$DIMLDRBLK
  1

  9
$DIMLFAC
 40
1.0
  9
$DIMLIM
 70
0
  9
$DIMLUNIT
 70
2
  9
$DIMLWD
 70
15
  9
$DIMLWE
 70
15
  9
$DIMPOST
  1

  9
$DIMRND
 40
0.01
  9
$DIMSAH
 70
0
  9
$DIMSCALE
 40
1.0
  9
$DIMSD1
 70
0
  9
$DIMSD2
 70
0
  9
$DIMSE1
 70
0
  9
$DIMSE2
 70
0
  9
$DIMSOXD
 70
0
  9
$DIMTAD
 70
1
  9
$DIMTDEC
 70
2
  9
$DIMTFAC
 40
1.0
  9
$DIMTIH
 70
0
  9
$DIMTIX
 70
0
  9
$DIMTM
 40
0.0
  9
$DIMTOFL
 70
1
  9
$DIMTOH
 70
0
  9
$DIMTOL
 70
0
  9
$DIMTOLJ
 70
0
  9
$DIMTP
 40
0.0
  9
$DIMTSZ
 40
0.0
  9
$DIMTVP
 40
0.0
  9
$DIMTXSTY
  7
Standard
  9
$DIMTXT
 40
2.5
  9
$DIMTZIN
 70
8
  9
$DIMUPT
 70
0
  9
$DIMZIN
 70
8
  9
$DISPSILH
 70
0
  9
$DWGCODEPAGE
  3
ANSI_1252
  9
$ELEVATION
 40
0.0
  9
$EXTMAX
 10
-100000000000000000000.0
 20
-100000000000000000000.0
 30
-100000000000000000000.0
  9
$EXTMIN
 10
100000000000000000000.0
 20
100000000000000000000.0
 30
100000000000000000000.0
  9
$FILLETRAD
 40
0.0
  9
$FILLMODE
 70
1
  9
$INSBASE
 10
0.0
 20
0.0
 30
0.0
  9
$INSUNITS
 70
4
  9
$LIMCHECK
 70
0
  9
$LIMMAX
 10
420.0
 20
297.0
  9
$LIMMIN
 10
0.0
 20
0.0
  9
$LTSCALE
 40
1.0
  9
$LUNITS
 70
2
  9
$LUPREC
 70
4
  9
$MAXACTVP
 70
64
  9
$MEASUREMENT
 70
1
  9
$MIRRTEXT
 70
1
  9
$ORTHOMODE
 70
0
  9
$PDMODE
 70
0
  9
$PDSIZE
 40
0.0
  9
$PELEVATION
 40
0.0
  9
$PEXTMAX
 10
0.0
 20
0.0
 30
0.0
  9
$PEXTMIN
 10
0.0
 20
0.0
 30
0.0
  9
$PINSBASE
 10
0.0
 20
0.0
 30
0.0
  9
$PLIMCHECK
 70
0
  9
$PLIMMAX
 10
277.0
 20
202.5
  9
$PLIMMIN
 10
-20.0
 20
-7.5
  9
$PLINEGEN
 70
0
  9
$PLINEWID
 40
0.0
  9
$PROXYGRAPHICS
 70
1
  9
$PSLTSCALE
 70
1
  9
$PUCSNAME
  2

  9
$PUCSORG
 10
0.0
 20
0.0
 30
0.0
  9
$PUCSXDIR
 10
1.0
 20
0.0
 30
0.0
  9
$PUCSYDIR
 10
0.0
 20
1.0
 30
0.0
  9
$QTEXTMODE
 70
0
  9
$REGENMODE
 70
1
  9
$SHADEDGE
 70
3
  9
$SHADEDIF
 70
70
  9
$SKETCHINC
 40
1.0
  9
$SKPOLY
 70
0
  9
$SPLFRAME
 70
0
  9
$SPLINESEGS
 70
8
  9
$SPLINETYPE
 70
6
  9
$SURFTAB1
 70
6
  9
$SURFTAB2
 70
6
  9
$SURFTYPE
 70
6
  9
$SURFU
 70
6
  9
$SURFV
 70
6
  9
$TEXTSIZE
 40
2.5
  9
$TEXTSTYLE
  7
Standard
  9
$THICKNESS
 40
0.0
  9
$TILEMODE
 70
0
  9
$TRACEWID
 40
1.0
  9
$TREEDEPTH
 70
3020
  9
$UCSNAME
  2

  9
$UCSORG
 10
0.0
 20
0.0
 30
0.0
  9
$UCSXDIR
 10
1.0
 20
0.0
 30
0.0
  9
$UCSYDIR
 10
0.0
 20
1.0
 30
0.0
  9
$UNITMODE
 70
0
  9
$USERI1
 70
0
  9
$USERI2
 70
0
  9
$USERI3
 70
0
  9
$USERI4
 70
0
  9
$USERI5
 70
0
  9
$USERR1
 40
0.0
  9
$USERR2
 40
0.0
  9
$USERR3
 40
0.0
  9
$USERR4
 40
0.0
  9
$USERR5
 40
0.0
  9
$USRTIMER
 70
1
  9
$VISRETAIN
 70
1
  0
ENDSEC
  0
SECTION
  2
TABLES
  0
TABLE
  2
VPORT
  5
8
100
AcDbSymbolTable
 70
1
  0
VPORT
  5
30
100
AcDbSymbolTableRecord
100
AcDbViewportTableRecord
  2
*Active
 70
0
 10
0.0
 20
0.0
 11
1.0
 21
1.0
 12
286.3055555555554861
 22
148.5
 13
0.0
 23
0.0
 14
10.0
 24
10.0
 15
10.0
 25
10.0
 16
0.0
 26
0.0
 36
1.0
 17
0.0
 27
0.0
 37
0.0
 40
297.0
 41
1.92798353909465
 42
50.0
 43
0.0
 44
0.0
 50
0.0
 51
0.0
 71
0
 72
100
 73
1
 74
3
 75
1
 76
1
 77
0
 78
0
281
0
 65
1
110
0.0
120
0.0
130
0.0
111
1.0
121
0.0
131
0.0
112
0.0
122
1.0
132
0.0
 79
0
146
0.0
  0
ENDTAB
  0
TABLE
  2
LTYPE
  5
5
100
AcDbSymbolTable
 70
46
  0
LTYPE
  5
16
100
AcDbSymbolTableRecord
100
AcDbLinetypeTableRecord
  2
Continuous
 70
0
  3
Solid line
 72
65
 73
0
 40
0.0
  0
LTYPE
  5
14
100
AcDbSymbolTableRecord
100
AcDbLinetypeTableRecord
  2
ByBlock
 70
0
  3

 72
65
 73
0
 40
0.0
  0
LTYPE
  5
31
100
AcDbSymbolTableRecord
100
AcDbLinetypeTableRecord
  2
DOTX2
 70
0
  3
Dot (2x) .  .  .  .  .  .  .  .  .  .  .  .  .  .
 72
65
 73
2
 40
12.6999999999999993
 49
0.1
 74
0
 49
-12.5999999999999996
 74
0
  0
LTYPE
  5
32
100
AcDbSymbolTableRecord
100
AcDbLinetypeTableRecord
  2
HIDDEN
 70
0
  3
Hidden __ __ __ __ __ __ __ __ __ __ __ __ __ __
 72
65
 73
2
 40
9.5249999999999986
 49
6.3499999999999996
 74
0
 49
-3.1749999999999998
 74
0
  0
LTYPE
  5
33
100
AcDbSymbolTableRecord
100
AcDbLinetypeTableRecord
  2
ACAD_ISO04W100
 70
0
  3
ISO long-dash dot ____ . ____ . ____ . ____ . _
 72
65
 73
4
 40
30.0
 49
24.0
 74
0
 49
-2.9500000000000002
 74
0
 49
0.1
 74
0
 49
-2.9500000000000002
 74
0
  0
LTYPE
  5
34
100
AcDbSymbolTableRecord
100
AcDbLinetypeTableRecord
  2
DIVIDEX2
 70
0
  3
Divide (2x) ________  .  .  ________  .  .  _
 72
65
 73
6
 40
63.5
 49
25.3999999999999986
 74
0
 49
-12.6499999999999986
 74
0
 49
0.1
 74
0
 49
-12.5999999999999979
 74
0
 49
0.1
 74
0
 49
-12.6499999999999986
 74
0
  0
LTYPE
  5
35
100
AcDbSymbolTableRecord
100
AcDbLinetypeTableRecord
  2
ACAD_ISO06W100
 70
0
  3
ISO long-dash triple-dot ____ ... ____ ... ____
 72
65
 73
8
 40
36.0000000000000071
 49
24.0
 74
0
 49
-2.9500000000000002
 74
0
 49
0.1
 74
0
 49
-2.9000000000000004
 74
0
 49
0.1
 74
0
 49
-2.9000000000000004
 74
0
 49
0.1
 74
0
 49
-2.9500000000000002
 74
0
  0
LTYPE
  5
36
100
AcDbSymbolTableRecord
100
AcDbLinetypeTableRecord
  2
PHANTOM2
 70
0
  3
Phantom (.5x) ___ _ _ ___ _ _ ___ _ _ ___ _ _
 72
65
 73
6
 40
31.7500000000000036
 49
15.875
 74
0
 49
-3.1749999999999998
 74
0
 49
3.1749999999999998
 74
0
 49
-3.1749999999999998
 74
0
 49
3.1749999999999998
 74
0
 49
-3.1749999999999998
 74
0
  0
LTYPE
  5
37
100
AcDbSymbolTableRecord
100
AcDbLinetypeTableRecord
  2
SectionLineISO
 70
0
  3

 72
65
 73
5
 40
13.7583333333334217
 49
4.23333333333336
 74
0
 49
-2.11666666666668
 74
0
 49
1.05833333333334
 74
0
 49
-2.11666666666668
 74
0
 49
4.23333333333336
 74
0
  0
LTYPE
  5
38
100
AcDbSymbolTableRecord
100
AcDbLinetypeTableRecord
  2
DraftedLine
 70
0
  3

 72
65
 73
2
 40
3.0
 49
2.0
 74
0
 49
-1.0
 74
0
  0
LTYPE
  5
39
100
AcDbSymbolTableRecord
100
AcDbLinetypeTableRecord
  2
BORDERX2
 70
0
  3
Border (2x) ____  ____  .  ____  ____  .  ___
 72
65
 73
6
 40
88.8999999999999773
 49
25.3999999999999986
 74
0
 49
-12.6999999999999993
 74
0
 49
25.3999999999999986
 74
0
 49
-12.6499999999999986
 74
0
 49
0.1
 74
0
 49
-12.6499999999999986
 74
0
  0
LTYPE
  5
3A
100
AcDbSymbolTableRecord
100
AcDbLinetypeTableRecord
  2
DASHED
 70
0
  3
Dashed __ __ __ __ __ __ __ __ __ __ __ __ __ _
 72
65
 73
2
 40
19.0499999999999972
 49
12.6999999999999993
 74
0
 49
-6.3499999999999996
 74
0
  0
LTYPE
  5
3B
100
AcDbSymbolTableRecord
100
AcDbLinetypeTableRecord
  2
ACAD_ISO08W100
 70
0
  3
ISO long-dash short-dash ____ __ ____ __ ____ _
 72
65
 73
4
 40
36.0
 49
24.0
 74
0
 49
-3.0
 74
0
 49
6.0
 74
0
 49
-3.0
 74
0
  0
LTYPE
  5
3C
100
AcDbSymbolTableRecord
100
AcDbLinetypeTableRecord
  2
DOT2
 70
0
  3
Dot (.5x) ........................................
 72
65
 73
2
 40
3.1749999999999998
 49
0.1
 74
0
 49
-3.0749999999999997
 74
0
  0
LTYPE
  5
3D
100
AcDbSymbolTableRecord
100
AcDbLinetypeTableRecord
  2
DASHED2
 70
0
  3
Dashed (.5x) _ _ _ _ _ _ _ _ _ _ _ _ _ _ _ _ _ 
 72
65
 73
2
 40
9.5249999999999986
 49
6.3499999999999996
 74
0
 49
-3.1749999999999998
 74
0
  0
LTYPE
  5
3E
100
AcDbSymbolTableRecord
100
AcDbLinetypeTableRecord
  2
DetailCircleISO
 70
0
  3

 72
65
 73
5
 40
13.7583333333334217
 49
4.23333333333336
 74
0
 49
-2.11666666666668
 74
0
 49
1.05833333333334
 74
0
 49
-2.11666666666668
 74
0
 49
4.23333333333336
 74
0
  0
LTYPE
  5
3F
100
AcDbSymbolTableRecord
100
AcDbLinetypeTableRecord
  2
ACAD_ISO03W100
 70
0
  3
ISO dash space __    __    __    __    __    __
 72
65
 73
2
 40
30.0
 49
12.0
 74
0
 49
-18.0
 74
0
  0
LTYPE
  5
40
100
AcDbSymbolTableRecord
100
AcDbLinetypeTableRecord
  2
ACAD_ISO11W100
 70
0
  3
ISO double-dash dot __ __ . __ __ . __ __ . __ _
 72
65
 73
6
 40
33.0
 49
12.0
 74
0
 49
-3.0
 74
0
 49
12.0
 74
0
 49
-2.9500000000000002
 74
0
 49
0.1
 74
0
 49
-2.9500000000000002
 74
0
  0
LTYPE
  5
41
100
AcDbSymbolTableRecord
100
AcDbLinetypeTableRecord
  2
CenterLine
 70
0
  3

 72
65
 73
4
 40
8.0
 49
5.0
 74
0
 49
-1.0
 74
0
 49
1.0
 74
0
 49
-1.0
 74
0
  0
LTYPE
  5
42
100
AcDbSymbolTableRecord
100
AcDbLinetypeTableRecord
  2
DOT
 70
0
  3
Dot . . . . . . . . . . . . . . . . . . . . . . . .
 72
65
 73
2
 40
6.3499999999999996
 49
0.1
 74
0
 49
-6.25
 74
0
  0
LTYPE
  5
43
100
AcDbSymbolTableRecord
100
AcDbLinetypeTableRecord
  2
ACAD_ISO13W100
 70
0
  3
ISO double-dash double-dot __ __ . . __ __ . . _
 72
65
 73
8
 40
36.0000000000000071
 49
12.0
 74
0
 49
-3.0
 74
0
 49
12.0
 74
0
 49
-2.9500000000000002
 74
0
 49
0.1
 74
0
 49
-2.9000000000000004
 74
0
 49
0.1
 74
0
 49
-2.9500000000000002
 74
0
  0
LTYPE
  5
44
100
AcDbSymbolTableRecord
100
AcDbLinetypeTableRecord
  2
CENTER
 70
0
  3
Center ____ _ ____ _ ____ _ ____ _ ____ _ ____
 72
65
 73
4
 40
50.8000000000000043
 49
31.75
 74
0
 49
-6.3499999999999996
 74
0
 49
6.3499999999999996
 74
0
 49
-6.3499999999999996
 74
0
  0
LTYPE
  5
45
100
AcDbSymbolTableRecord
100
AcDbLinetypeTableRecord
  2
DASHDOT2
 70
0
  3
Dash dot (.5x) _._._._._._._._._._._._._._._.
 72
65
 73
4
 40
12.6999999999999993
 49
6.3499999999999996
 74
0
 49
-3.125
 74
0
 49
0.1
 74
0
 49
-3.125
 74
0
  0
LTYPE
  5
46
100
AcDbSymbolTableRecord
100
AcDbLinetypeTableRecord
  2
SectionLineANSI
 70
0
  3

 72
65
 73
7
 40
11.9944444444445182
 49
4.23333333333336
 74
0
 49
-1.05833333333334
 74
0
 49
0.17638888888889
 74
0
 49
-1.05833333333334
 74
0
 49
0.17638888888889
 74
0
 49
-1.05833333333334
 74
0
 49
4.23333333333336
 74
0
  0
LTYPE
  5
47
100
AcDbSymbolTableRecord
100
AcDbLinetypeTableRecord
  2
ACAD_ISO05W100
 70
0
  3
ISO long-dash double-dot ____ .. ____ .. ____ . 
 72
65
 73
6
 40
33.0000000000000071
 49
24.0
 74
0
 49
-2.9500000000000002
 74
0
 49
0.1
 74
0
 49
-2.9000000000000004
 74
0
 49
0.1
 74
0
 49
-2.9500000000000002
 74
0
  0
LTYPE
  5
48
100
AcDbSymbolTableRecord
100
AcDbLinetypeTableRecord
  2
ACAD_ISO02W100
 70
0
  3
ISO dash __ __ __ __ __ __ __ __ __ __ __ __ __
 72
65
 73
2
 40
15.0
 49
12.0
 74
0
 49
-3.0
 74
0
  0
LTYPE
  5
49
100
AcDbSymbolTableRecord
100
AcDbLinetypeTableRecord
  2
ACAD_ISO09W100
 70
0
  3
ISO long-dash double-short-dash ____ __ __ ____
 72
65
 73
6
 40
45.0
 49
24.0
 74
0
 49
-3.0
 74
0
 49
6.0
 74
0
 49
-3.0
 74
0
 49
6.0
 74
0
 49
-3.0
 74
0
  0
LTYPE
  5
4A
100
AcDbSymbolTableRecord
100
AcDbLinetypeTableRecord
  2
ACAD_ISO14W100
 70
0
  3
ISO dash triple-dot __ . . . __ . . . __ . . . _
 72
65
 73
8
 40
24.0000000000000036
 49
12.0
 74
0
 49
-2.9500000000000002
 74
0
 49
0.1
 74
0
 49
-2.9000000000000004
 74
0
 49
0.1
 74
0
 49
-2.9000000000000004
 74
0
 49
0.1
 74
0
 49
-2.9500000000000002
 74
0
  0
LTYPE
  5
4B
100
AcDbSymbolTableRecord
100
AcDbLinetypeTableRecord
  2
BORDER
 70
0
  3
Border __ __ . __ __ . __ __ . __ __ . __ __ .
 72
65
 73
6
 40
44.4499999999999957
 49
12.6999999999999993
 74
0
 49
-6.3499999999999996
 74
0
 49
12.6999999999999993
 74
0
 49
-6.2999999999999998
 74
0
 49
0.1
 74
0
 49
-6.2999999999999998
 74
0
  0
LTYPE
  5
4C
100
AcDbSymbolTableRecord
100
AcDbLinetypeTableRecord
  2
ACAD_ISO10W100
 70
0
  3
ISO dash dot __ . __ . __ . __ . __ . __ . __ . 
 72
65
 73
4
 40
18.0
 49
12.0
 74
0
 49
-2.9500000000000002
 74
0
 49
0.1
 74
0
 49
-2.9500000000000002
 74
0
  0
LTYPE
  5
4D
100
AcDbSymbolTableRecord
100
AcDbLinetypeTableRecord
  2
DASHDOT
 70
0
  3
Dash dot __ . __ . __ . __ . __ . __ . __ . __
 72
65
 73
4
 40
25.4000000000000021
 49
12.6999999999999993
 74
0
 49
-6.2999999999999998
 74
0
 49
0.1
 74
0
 49
-6.2999999999999998
 74
0
  0
LTYPE
  5
4E
100
AcDbSymbolTableRecord
100
AcDbLinetypeTableRecord
  2
PHANTOM
 70
0
  3
Phantom ______  __  __  ______  __  __  ______ 
 72
65
 73
6
 40
63.5000000000000071
 49
31.75
 74
0
 49
-6.3499999999999996
 74
0
 49
6.3499999999999996
 74
0
 49
-6.3499999999999996
 74
0
 49
6.3499999999999996
 74
0
 49
-6.3499999999999996
 74
0
  0
LTYPE
  5
4F
100
AcDbSymbolTableRecord
100
AcDbLinetypeTableRecord
  2
HIDDENX2
 70
0
  3
Hidden (2x) ____ ____ ____ ____ ____ ____ ____ 
 72
65
 73
2
 40
19.0499999999999972
 49
12.6999999999999993
 74
0
 49
-6.3499999999999996
 74
0
  0
LTYPE
  5
50
100
AcDbSymbolTableRecord
100
AcDbLinetypeTableRecord
  2
DASHDOTX2
 70
0
  3
Dash dot (2x) ____  .  ____  .  ____  .  ___
 72
65
 73
4
 40
50.7999999999999972
 49
25.3999999999999986
 74
0
 49
-12.6499999999999986
 74
0
 49
0.1
 74
0
 49
-12.6499999999999986
 74
0
  0
LTYPE
  5
51
100
AcDbSymbolTableRecord
100
AcDbLinetypeTableRecord
  2
DIVIDE
 70
0
  3
Divide ____ . . ____ . . ____ . . ____ . . ____
 72
65
 73
6
 40
31.7500000000000036
 49
12.6999999999999993
 74
0
 49
-6.2999999999999998
 74
0
 49
0.1
 74
0
 49
-6.25
 74
0
 49
0.1
 74
0
 49
-6.2999999999999998
 74
0
  0
LTYPE
  5
52
100
AcDbSymbolTableRecord
100
AcDbLinetypeTableRecord
  2
ACAD_ISO07W100
 70
0
  3
ISO dot . . . . . . . . . . . . . . . . . . . . 
 72
65
 73
2
 40
3.0
 49
0.1
 74
0
 49
-2.8999999999999999
 74
0
  0
LTYPE
  5
53
100
AcDbSymbolTableRecord
100
AcDbLinetypeTableRecord
  2
ACAD_ISO15W100
 70
0
  3
ISO double-dash triple-dot __ __ . . . __ __ . .
 72
65
 73
10
 40
39.0000000000000071
 49
12.0
 74
0
 49
-3.0
 74
0
 49
12.0
 74
0
 49
-2.9500000000000002
 74
0
 49
0.1
 74
0
 49
-2.9000000000000004
 74
0
 49
0.1
 74
0
 49
-2.9000000000000004
 74
0
 49
0.1
 74
0
 49
-2.9500000000000002
 74
0
  0
LTYPE
  5
54
100
AcDbSymbolTableRecord
100
AcDbLinetypeTableRecord
  2
CENTERX2
 70
0
  3
Center (2x) ________  __  ________  __  _____
 72
65
 73
4
 40
101.6000000000000085
 49
63.5
 74
0
 49
-12.6999999999999993
 74
0
 49
12.6999999999999993
 74
0
 49
-12.6999999999999993
 74
0
  0
LTYPE
  5
55
100
AcDbSymbolTableRecord
100
AcDbLinetypeTableRecord
  2
DIVIDE2
 70
0
  3
Divide (.5x) __..__..__..__..__..__..__..__.._
 72
65
 73
6
 40
15.8749999999999982
 49
6.3499999999999996
 74
0
 49
-3.125
 74
0
 49
0.1
 74
0
 49
-3.0750000000000002
 74
0
 49
0.1
 74
0
 49
-3.125
 74
0
  0
LTYPE
  5
56
100
AcDbSymbolTableRecord
100
AcDbLinetypeTableRecord
  2
ACAD_ISO12W100
 70
0
  3
ISO dash double-dot __ . . __ . . __ . . __ . . 
 72
65
 73
6
 40
21.0
 49
12.0
 74
0
 49
-2.9500000000000002
 74
0
 49
0.1
 74
0
 49
-2.9000000000000004
 74
0
 49
0.1
 74
0
 49
-2.9500000000000002
 74
0
  0
LTYPE
  5
57
100
AcDbSymbolTableRecord
100
AcDbLinetypeTableRecord
  2
DASHEDX2
 70
0
  3
Dashed (2x) ____  ____  ____  ____  ____  ___
 72
65
 73
2
 40
38.0999999999999943
 49
25.3999999999999986
 74
0
 49
-12.6999999999999993
 74
0
  0
LTYPE
  5
58
100
AcDbSymbolTableRecord
100
AcDbLinetypeTableRecord
  2
HIDDEN2
 70
0
  3
Hidden (.5x) _ _ _ _ _ _ _ _ _ _ _ _ _ _ _ _ _ 
 72
65
 73
2
 40
4.7624999999999993
 49
3.1749999999999998
 74
0
 49
-1.5874999999999999
 74
0
  0
LTYPE
  5
59
100
AcDbSymbolTableRecord
100
AcDbLinetypeTableRecord
  2
PHANTOMX2
 70
0
  3
Phantom (2x) ____________    ____    ____   _
 72
65
 73
6
 40
127.0000000000000142
 49
63.5
 74
0
 49
-12.6999999999999993
 74
0
 49
12.6999999999999993
 74
0
 49
-12.6999999999999993
 74
0
 49
12.6999999999999993
 74
0
 49
-12.6999999999999993
 74
0
  0
LTYPE
  5
15
100
AcDbSymbolTableRecord
100
AcDbLinetypeTableRecord
  2
ByLayer
 70
0
  3

 72
65
 73
0
 40
0.0
  0
LTYPE
  5
5A
100
AcDbSymbolTableRecord
100
AcDbLinetypeTableRecord
  2
BORDER2
 70
0
  3
Border (.5x) __.__.__.__.__.__.__.__.__.__.__.
 72
65
 73
6
 40
22.2250000000000014
 49
6.3499999999999996
 74
0
 49
-3.1749999999999998
 74
0
 49
6.3499999999999996
 74
0
 49
-3.125
 74
0
 49
0.1
 74
0
 49
-3.125
 74
0
  0
LTYPE
  5
5B
100
AcDbSymbolTableRecord
100
AcDbLinetypeTableRecord
  2
CENTER2
 70
0
  3
Center (.5x) ___ _ ___ _ ___ _ ___ _ ___ _ ___
 72
65
 73
4
 40
28.5750000000000028
 49
19.0500000000000007
 74
0
 49
-3.1749999999999998
 74
0
 49
3.1749999999999998
 74
0
 49
-3.1749999999999998
 74
0
  0
ENDTAB
  0
TABLE
  2
LAYER
  5
2
100
AcDbSymbolTable
 70
4
  0
LAYER
  5
5C
100
AcDbSymbolTableRecord
100
AcDbLayerTableRecord
  2
Geometries
 70
0
 62
7
420
16777215
  6
Continuous
370
-3
390
F
  0
LAYER
  5
5D
100
AcDbSymbolTableRecord
100
AcDbLayerTableRecord
  2
Border
 70
0
 62
7
420
16777215
  6
Continuous
370
-3
390
F
  0
LAYER
  5
10
100
AcDbSymbolTableRecord
100
AcDbLayerTableRecord
  2
0
 70
0
 62
7
420
16777215
  6
Continuous
370
-3
390
F
  0
LAYER
  5
5E
100
AcDbSymbolTableRecord
100
AcDbLayerTableRecord
  2
Annotations
 70
0
 62
7
420
16777215
  6
Continuous
370
-3
390
F
  0
ENDTAB
  0
TABLE
  2
STYLE
  5
3
100
AcDbSymbolTable
 70
1
  0
STYLE
  5
5F
100
AcDbSymbolTableRecord
100
AcDbTextStyleTableRecord
  2
Standard
 70
0
 40
0.0
 41
1.0
 50
0.0
 71
0
 42
2.5
  3

  4

1001
ACAD
1000
txt
1071
0
  0
ENDTAB
  0
TABLE
  2
VIEW
  5
6
100
AcDbSymbolTable
 70
0
  0
ENDTAB
  0
TABLE
  2
UCS
  5
7
100
AcDbSymbolTable
 70
0
  0
ENDTAB
  0
TABLE
  2
APPID
  5
9
100
AcDbSymbolTable
 70
1
  0
APPID
  5
12
100
AcDbSymbolTableRecord
100
AcDbRegAppTableRecord
  2
ACAD
 70
0
  0
APPID
  5
60
100
AcDbSymbolTableRecord
100
AcDbRegAppTableRecord
  2
QCAD
 70
0
  0
ENDTAB
  0
TABLE
  2
DIMSTYLE
  5
A
100
AcDbSymbolTable
 70
1
100
AcDbDimStyleTable
 71
0
  0
DIMSTYLE
105
27
100
AcDbSymbolTableRecord
100
AcDbDimStyleTableRecord
  2
Standard
 41
2.5
 42
0.625
 43
3.75
 44
1.25
 70
0
 73
0
 74
0
 77
1
 78
8
140
2.5
141
2.5
143
0.03937007874016
147
0.7
171
3
172
1
271
2
272
2
274
3
278
44
283
0
284
8
340
5F
  0
ENDTAB
  0
TABLE
  2
BLOCK_RECORD
  5
1
100
AcDbSymbolTable
 70
1
  0
BLOCK_RECORD
  5
1F
100
AcDbSymbolTableRecord
100
AcDbBlockTableRecord
  2
*Model_Space
340
22
  0
BLOCK_RECORD
  5
1B
100
AcDbSymbolTableRecord
100
AcDbBlockTableRecord
  2
*Paper_Space
340
1E
  0
BLOCK_RECORD
  5
23
100
AcDbSymbolTableRecord
100
AcDbBlockTableRecord
  2
*Paper_Space0
340
26
  0
ENDTAB
  0
ENDSEC
  0
SECTION
  2
BLOCKS
  0
BLOCK
  5
20
100
AcDbEntity
  8
0
100
AcDbBlockBegin
  2
*Model_Space
 70
0
 10
0.0
 20
0.0
 30
0.0
  3
*Model_Space
  1

  0
ENDBLK
  5
21
100
AcDbEntity
  8
0
100
AcDbBlockEnd
  0
BLOCK
  5
1C
100
AcDbEntity
 67
1
  8
0
100
AcDbBlockBegin
  2
*Paper_Space
 70
0
 10
0.0
 20
0.0
 30
0.0
  3
*Paper_Space
  1

  0
ENDBLK
  5
1D
100
AcDbEntity
 67
1
  8
0
100
AcDbBlockEnd
  0
BLOCK
  5
24
100
AcDbEntity
  8
0
100
AcDbBlockBegin
  2
*Paper_Space0
 70
0
 10
0.0
 20
0.0
 30
0.0
  3
*Paper_Space0
  1

  0
ENDBLK
  5
25
100
AcDbEntity
  8
0
100
AcDbBlockEnd
  0
ENDSEC
  0
SECTION
  2
ENTITIES
  0
LWPOLYLINE
  5
61
100
AcDbEntity
  8
Geometries
 62
256
370
0
 48
1.0
  6
Continuous
100
AcDbPolyline
 90
54
 70
128
 10
170.5465669999999818
 20
123.1783359999999874
 10
170.2776248475631746
 20
123.1907804975611498
 10
170.008676497412381
 20
123.203910736567849
 10
169.7397671909278927
 20
123.2177018705492486
 10
169.4708956798891961
 20
123.2321312042022612
 10
169.2020607160746977
 20
123.247176042223856
 10
168.9332610512639974
 20
123.2628136893110593
 10
168.664495437235189
 20
123.2790214501608546
 10
168.3688911007055822
 20
123.2974813816473585
 10
168.0733247938931925
 20
123.3165734820216528
 10
167.7777948554153795
 20
123.3362675438353619
 10
167.4822996238902988
 20
123.3565333596403519
 10
167.1868374379354805
 20
123.3773407219882614
 10
166.8571175178765884
 20
123.4011656559199537
 10
166.5274343808002016
 20
123.425585527452057
 10
166.1977857170600998
 20
123.4505583423168531
 10
165.8681692170091821
 20
123.4760421062468509
 10
165.5385825710016832
 20
123.5019948249742612
 10
165.2090234693905018
 20
123.5283745042314507
 10
164.8794896025291905
 20
123.5551391497507581
 10
164.5499786607713872
 20
123.5822467672645502
 10
164.0228030732960747
 20
123.6262275193430611
 10
163.4956708010781767
 20
123.6708067658819488
 10
162.9685723838047977
 20
123.7158124983608616
 10
162.4414983611643777
 20
123.7610727082594622
 10
161.9144392841796787
 20
123.8064155976363594
 10
160.8791690250491797
 20
123.8953812151162595
 10
159.8439347711781977
 20
123.9843061791951584
 10
158.9028501637283739
 20
124.0652507374682614
 10
157.9618069326111822
 20
124.1464222471061589
 10
157.020810611121675
 20
124.2279447791643605
 10
156.0798667325551889
 20
124.3099424046983614
 10
155.1389808302069753
 20
124.3925391947638559
 10
154.3997576121026896
 20
124.4579378274591619
 10
153.6605762853728834
 20
124.5238431291266608
 10
152.9214392197998791
 20
124.5903086914280493
 10
152.1823462013162782
 20
124.6573339103980516
 10
151.4432957467539893
 20
124.724891562957751
 10
150.6594992038234011
 20
124.7970948787730521
 10
149.8757470821392985
 20
124.8698335922848486
 10
149.0920376017054991
 20
124.9430750047552579
 10
148.3083689825249962
 20
125.0167864174461556
 10
147.5247394446017779
 20
125.0909351316193607
 10
146.7411472079389796
 20
125.1654884485370616
 10
145.8176732523712928
 20
125.2538298097735492
 10
144.8942457231014771
 20
125.342634230993454
 10
143.9708620807080877
 20
125.4318579948789534
 10
143.0475209625498962
 20
125.5214882138050569
 10
141.9483592214013754
 20
125.6287113206235517
 10
140.8492542327153956
 20
125.7364892158531546
 10
139.7502040865404922
 20
125.844810348780257
 10
138.651206872925485
 20
125.953663168691449
 10
137.5522606819185967
 20
126.0630361248728519
 10
136.4533636035682775
 20
126.1729176666111556
  0
LINE
  5
62
100
AcDbEntity
  8
Geometries
 62
256
370
0
 48
1.0
  6
Continuous
100
AcDbLine
 10
139.5382325218430992
 20
119.8270824270638997
 30
0.0
 11
136.4533750594509911
 21
122.6039849532709951
 31
0.0
  0
LWPOLYLINE
  5
63
100
AcDbEntity
  8
Geometries
 62
256
370
0
 48
1.0
  6
Continuous
100
AcDbPolyline
 90
114
 70
128
 10
170.5889999999999986
 20
122.0790000000000077
 10
170.2901975376526877
 20
122.0683813120061956
 10
170.0376463785208898
 20
122.0576657863617953
 10
169.7851308792087934
 20
122.0462260078175944
 10
169.5326501698592949
 20
122.0340941043909027
 10
169.2802033806158875
 20
122.0213022040990012
 10
169.0277898231288134
 20
122.0078832499858947
 10
168.7898302282463021
 20
121.9947016350798066
 10
168.5518978475377025
 20
121.9810622159348981
 10
168.3139901099779081
 20
121.9670203291328932
 10
168.0761044445409027
 20
121.9526313112557006
 10
167.8382382802020913
 20
121.9379504988853
 10
167.7598133358949895
 20
121.9330554235156967
 10
167.7404897016475047
 20
121.9318455576503055
 10
167.7193502305539994
 20
121.930520079571707
 10
167.6651270977930892
 20
121.9271045964580935
 10
167.4450799673849986
 20
121.9130214096022939
 10
167.2486267819635088
 20
121.9001784581925989
 10
167.0521877368121011
 20
121.8871211837351041
 10
166.7014318426402895
 20
121.8633896895839968
 10
166.3507010708231064
 20
121.8393091294807959
 10
166.3193965771000933
 20
121.8371499959825002
 10
166.3042202766197875
 20
121.8361024697693011
 10
166.2771198687208027
 20
121.8342301741033964
 10
166.2287266903435068
 20
121.8308813640275048
 10
166.1423115807608042
 20
121.8248842626901052
 10
165.9880028656704951
 20
121.8141219060563003
 10
165.7124636997666016
 20
121.7947406106735997
 10
165.3993685547158918
 20
121.772478716885999
 10
165.0862903893824978
 20
121.7499841753344043
 10
164.9320111790867998
 20
121.7388197284882949
 10
164.9125381172522964
 20
121.7374070621655022
 10
164.8750717009635025
 20
121.7346878395081973
 10
164.8081676761264021
 20
121.7298283628226017
 10
164.6886971156602044
 20
121.7211390138061944
 10
164.4753596694297926
 20
121.7055858622691034
 10
163.6095767548196136
 20
121.6420196731007053
 10
162.9084001119568939
 20
121.5900747616440043
 10
162.2072502095676043
 20
121.5377867576574999
 10
162.1465712895767979
 20
121.5332475588622003
 10
162.106944277180304
 20
121.5302820759301028
 10
162.0643763243795092
 20
121.527095545863105
 10
161.9883623116101035
 20
121.5214028938893023
 10
161.8526235868287131
 20
121.511229957456294
 10
161.61023476656149
 20
121.4930414333065016
 10
160.6265330490714121
 20
121.4189789596608051
 10
159.7482454929844096
 20
121.352627015054594
 10
158.869966071450591
 20
121.2861715240075
 10
157.5392638892323873
 20
121.1851751799220978
 10
156.2085877578751933
 20
121.0838492906227941
 10
154.8779308619089932
 20
120.982279932721795
 10
153.89431764889909
 20
120.9070938803932052
 10
153.7585951421037009
 20
120.8967146013200988
 10
153.6988772615800087
 20
120.8921474330308001
 10
153.6748145602448972
 20
120.8903070929802936
 10
153.6516918023588119
 20
120.8885386160996944
 10
153.6104011678635004
 20
120.8853805633295053
 10
153.2295477129202084
 20
120.8562484439347031
 10
152.5494529639096015
 20
120.8042177738787046
 10
151.0037821236248021
 20
120.6859778088506943
 10
150.9368980421689912
 20
120.6808632228119933
 10
150.9074690401643011
 20
120.6786128823843995
 10
150.8854144123841934
 20
120.6769264684895973
 10
150.8384931591735096
 20
120.6733387136828952
 10
150.7547051812406096
 20
120.666932332494099
 10
150.6050837051784015
 20
120.6554934582962062
 10
150.3379021939531128
 20
120.6350707194866061
 10
148.3217542250729082
 20
120.4811885891851944
 10
148.1659626563665881
 20
120.4693196081244935
 10
148.0974142714310915
 20
120.4640984502262029
 10
148.0805239403279927
 20
120.4628120710628991
 10
148.0794622622526049
 20
120.462731214461698
 10
148.0773827228626089
 20
120.4625728391151966
 10
148.0752593665401093
 20
120.4624111280415946
 10
148.0731360101108862
 20
120.4622494182944052
 10
148.0710126535743996
 20
120.4620877098741971
 10
148.0688892969309904
 20
120.4619260027811976
 10
148.0667659401802894
 20
120.4617642970158045
 10
148.0550874761372881
 20
120.4608749390541931
 10
148.0076910789780129
 20
120.4572659453765056
 10
147.5705168986754927
 20
120.4240095349613995
 10
146.7898366277981097
 20
120.3647743824099052
 10
145.3957225247621921
 20
120.2595310461753968
 10
145.3260748399960107
 20
120.2542928016531931
 10
145.2954298106608917
 20
120.2519885894719067
 10
145.2819459884223079
 20
120.2509748556935989
 10
145.2804324978147008
 20
120.2508610738174042
 10
145.2789190071349026
 20
120.2507472928638066
 10
145.2774055163835953
 20
120.2506335128328061
 10
145.275892025559898
 20
120.2505197337247012
 10
145.2743785346642085
 20
120.250405955539506
 10
145.2728650436964131
 20
120.2502921782774052
 10
145.2717815401884991
 20
120.2502107260573041
 10
145.2229213833076074
 20
120.246538166252293
 10
145.1356709154426881
 20
120.2399824313684036
 10
144.9798659048709908
 20
120.2282835108795069
 10
144.70164071786769
 20
120.2074176986253065
 10
144.2048036320269944
 20
120.1702397333088044
 10
143.3175732225188881
 20
120.1041265225615007
 10
142.8207116565016861
 20
120.0672660649815953
 10
142.6020896010670924
 20
120.0510861465480019
 10
142.5058953111116011
 20
120.0439746305468987
 10
142.482192982675997
 20
120.0422230769300995
 10
142.4717639512051903
 20
120.0414524843149024
 10
142.4671751760093912
 20
120.0411134411945966
 10
142.4651561146621077
 20
120.0409642656363047
 10
142.4647595133072002
 20
120.0409349635396978
 10
142.4631812409012923
 20
120.0408183568473959
 10
142.4615948353221029
 20
120.0407011505486992
 10
142.460008429644688
 20
120.0405839455388985
 10
142.3269846329829988
 20
120.0307606605319961
 10
141.3974377060459062
 20
119.9623793210013929
 10
140.4678544055445002
 20
119.8944761801819965
 10
139.5382325218430992
 20
119.8270824270638997
  0
LINE
  5
64
100
AcDbEntity
  8
Geometries
 62
256
370
0
 48
1.0
  6
Continuous
100
AcDbLine
 10
170.5465669999999818
 20
123.1783359999999874
 30
0.0
 11
170.5889999999999986
 21
122.0790000000000077
 31
0.0
  0
LINE
  5
65
100
AcDbEntity
  8
Geometries
 62
256
370
0
 48
1.0
  6
Continuous
100
AcDbLine
 10
136.4533750594509911
 20
122.6039849532709951
 30
0.0
 11
136.4533750569833899
 21
126.1729175729361003
 31
0.0
  0
ENDSEC
  0
SECTION
  2
OBJECTS
  0
DICTIONARY
  5
C
100
AcDbDictionary
280
0
281
1
  3
ACAD_GROUP
350
D
  3
ACAD_LAYOUT
350
1A
  3
ACAD_MLINESTYLE
350
17
  3
ACAD_PLOTSETTINGS
350
19
  3
ACAD_PLOTSTYLENAME
350
E
  3
AcDbVariableDictionary
350
66
  3
QCAD_OBJECTS
350
67
  0
DICTIONARY
  5
D
100
AcDbDictionary
280
0
281
1
  0
ACDBDICTIONARYWDFLT
  5
E
100
AcDbDictionary
281
1
  3
Normal
350
F
100
AcDbDictionaryWithDefault
340
F
  0
ACDBPLACEHOLDER
  5
F
  0
DICTIONARY
  5
17
100
AcDbDictionary
280
0
281
1
  3
Standard
350
18
  0
MLINESTYLE
  5
18
100
AcDbMlineStyle
  2
STANDARD
 70
0
  3

 62
256
 51
90.0
 52
90.0
 71
2
 49
0.5
 62
256
  6
BYLAYER
 49
-0.5
 62
256
  6
BYLAYER
  0
DICTIONARY
  5
19
100
AcDbDictionary
280
0
281
1
  0
DICTIONARY
  5
1A
100
AcDbDictionary
281
1
  3
Layout1
350
1E
  3
Layout2
350
26
  3
Model
350
22
  0
LAYOUT
  5
1E
100
AcDbPlotSettings
  1

  2
none_device
  4

  6

 40
0.0
 41
0.0
 42
0.0
 43
0.0
 44
0.0
 45
0.0
 46
0.0
 47
0.0
 48
0.0
 49
0.0
140
0.0
141
0.0
142
1.0
143
1.0
 70
688
 72
0
 73
0
 74
5
  7

 75
16
147
1.0
148
0.0
149
0.0
100
AcDbLayout
  1
Layout1
 70
1
 71
1
 10
0.0
 20
0.0
 11
420.0
 21
297.0
 12
0.0
 22
0.0
 32
0.0
 14
100000000000000000000.0
 24
100000000000000000000.0
 34
100000000000000000000.0
 15
-100000000000000000000.0
 25
-100000000000000000000.0
 35
-100000000000000000000.0
146
0.0
 13
0.0
 23
0.0
 33
0.0
 16
1.0
 26
0.0
 36
0.0
 17
0.0
 27
1.0
 37
0.0
 76
0
330
1B
  0
LAYOUT
  5
22
100
AcDbPlotSettings
  1

  2
none_device
  4

  6

 40
0.0
 41
0.0
 42
0.0
 43
0.0
 44
0.0
 45
0.0
 46
0.0
 47
0.0
 48
0.0
 49
0.0
140
0.0
141
0.0
142
1.0
143
1.0
 70
1712
 72
0
 73
0
 74
0
  7

 75
0
147
1.0
148
0.0
149
0.0
100
AcDbLayout
  1
Model
 70
1
 71
0
 10
0.0
 20
0.0
 11
12.0
 21
9.0
 12
0.0
 22
0.0
 32
0.0
 14
0.0
 24
0.0
 34
0.0
 15
0.0
 25
0.0
 35
0.0
146
0.0
 13
0.0
 23
0.0
 33
0.0
 16
1.0
 26
0.0
 36
0.0
 17
0.0
 27
1.0
 37
0.0
 76
0
330
1F
  0
LAYOUT
  5
26
100
AcDbPlotSettings
  1

  2
none_device
  4

  6

 40
0.0
 41
0.0
 42
0.0
 43
0.0
 44
0.0
 45
0.0
 46
0.0
 47
0.0
 48
0.0
 49
0.0
140
0.0
141
0.0
142
1.0
143
1.0
 70
688
 72
0
 73
0
 74
5
  7

 75
16
147
1.0
148
0.0
149
0.0
100
AcDbLayout
  1
Layout2
 70
1
 71
2
 10
0.0
 20
0.0
 11
12.0
 21
9.0
 12
0.0
 22
0.0
 32
0.0
 14
0.0
 24
0.0
 34
0.0
 15
0.0
 25
0.0
 35
0.0
146
0.0
 13
0.0
 23
0.0
 33
0.0
 16
1.0
 26
0.0
 36
0.0
 17
0.0
 27
1.0
 37
0.0
 76
0
330
23
  0
DICTIONARY
  5
66
100
AcDbDictionary
281
1
  3
DIMASSOC
350
69
  3
HIDETEXT
350
68
  0
DICTIONARYVAR
  5
68
100
DictionaryVariables
280
0
  1
2
  0
DICTIONARYVAR
  5
69
100
DictionaryVariables
280
0
  1
1
  0
DICTIONARY
  5
67
100
AcDbDictionary
281
1
  3
ColorSettings/BackgroundColor
350
6A
  3
ColorSettings/ColorMode
350
6B
  3
Grid/DisplayGrid00
350
6C
  3
Grid/DisplayGrid01
350
6D
  3
Grid/DisplayGrid02
350
6E
  3
Grid/DisplayGrid03
350
6F
  3
Grid/GridSpacingX00
350
70
  3
Grid/GridSpacingX01
350
71
  3
Grid/GridSpacingX02
350
72
  3
Grid/GridSpacingX03
350
73
  3
Grid/GridSpacingY00
350
74
  3
Grid/GridSpacingY01
350
75
  3
Grid/GridSpacingY02
350
76
  3
Grid/GridSpacingY03
350
77
  3
Grid/IsometricGrid00
350
78
  3
Grid/IsometricGrid01
350
79
  3
Grid/IsometricGrid02
350
7A
  3
Grid/IsometricGrid03
350
7B
  3
Grid/IsometricProjection00
350
7C
  3
Grid/IsometricProjection01
350
7D
  3
Grid/IsometricProjection02
350
7E
  3
Grid/IsometricProjection03
350
7F
  3
Grid/MetaGridSpacingX00
350
80
  3
Grid/MetaGridSpacingX01
350
81
  3
Grid/MetaGridSpacingX02
350
82
  3
Grid/MetaGridSpacingX03
350
83
  3
Grid/MetaGridSpacingY00
350
84
  3
Grid/MetaGridSpacingY01
350
85
  3
Grid/MetaGridSpacingY02
350
86
  3
Grid/MetaGridSpacingY03
350
87
  3
MultiPageSettings/Columns
350
88
  3
MultiPageSettings/GlueMarginsBottom
350
89
  3
MultiPageSettings/GlueMarginsLeft
350
8A
  3
MultiPageSettings/GlueMarginsRight
350
8B
  3
MultiPageSettings/GlueMarginsTop
350
8C
  3
MultiPageSettings/PrintCropMarks
350
8D
  3
MultiPageSettings/Rows
350
8E
  3
PageSettings/OffsetX
350
8F
  3
PageSettings/OffsetY
350
90
  3
PageSettings/PageOrientation
350
91
  3
PageSettings/PaperHeight
350
92
  3
PageSettings/PaperWidth
350
93
  3
PageSettings/Scale
350
94
  3
PageSettings/ShowPaperBorders
350
95
  3
PageTagSettings/EnablePageTags
350
96
  3
PageTagSettings/TagAlignment
350
97
  3
PageTagSettings/TagFont
350
98
  3
PageTagSettings/TagPosition
350
99
  3
QCADVersion
350
9A
  3
UnitSettings/PaperUnit
350
9B
  3
ViewportCenter
350
9C
  3
ViewportHeight
350
9D
  3
ViewportWidth
350
9E
  0
XRECORD
  5
6A
330
67
100
AcDbXrecord
280
1
1000
White
  0
XRECORD
  5
6B
330
67
100
AcDbXrecord
280
1
1000
FullColor
  0
XRECORD
  5
6C
330
67
100
AcDbXrecord
280
1
290
1
  0
XRECORD
  5
6D
330
67
100
AcDbXrecord
280
1
290
1
  0
XRECORD
  5
6E
330
67
100
AcDbXrecord
280
1
290
1
  0
XRECORD
  5
6F
330
67
100
AcDbXrecord
280
1
290
1
  0
XRECORD
  5
70
330
67
100
AcDbXrecord
280
1
1000
auto
  0
XRECORD
  5
71
330
67
100
AcDbXrecord
280
1
1000
auto
  0
XRECORD
  5
72
330
67
100
AcDbXrecord
280
1
1000
auto
  0
XRECORD
  5
73
330
67
100
AcDbXrecord
280
1
1000
auto
  0
XRECORD
  5
74
330
67
100
AcDbXrecord
280
1
1000
auto
  0
XRECORD
  5
75
330
67
100
AcDbXrecord
280
1
1000
auto
  0
XRECORD
  5
76
330
67
100
AcDbXrecord
280
1
1000
auto
  0
XRECORD
  5
77
330
67
100
AcDbXrecord
280
1
1000
auto
  0
XRECORD
  5
78
330
67
100
AcDbXrecord
280
1
290
0
  0
XRECORD
  5
79
330
67
100
AcDbXrecord
280
1
290
0
  0
XRECORD
  5
7A
330
67
100
AcDbXrecord
280
1
290
0
  0
XRECORD
  5
7B
330
67
100
AcDbXrecord
280
1
290
0
  0
XRECORD
  5
7C
330
67
100
AcDbXrecord
280
1
 90
65537
  0
XRECORD
  5
7D
330
67
100
AcDbXrecord
280
1
 90
65537
  0
XRECORD
  5
7E
330
67
100
AcDbXrecord
280
1
 90
65537
  0
XRECORD
  5
7F
330
67
100
AcDbXrecord
280
1
 90
65537
  0
XRECORD
  5
80
330
67
100
AcDbXrecord
280
1
1000
auto
  0
XRECORD
  5
81
330
67
100
AcDbXrecord
280
1
1000
auto
  0
XRECORD
  5
82
330
67
100
AcDbXrecord
280
1
1000
auto
  0
XRECORD
  5
83
330
67
100
AcDbXrecord
280
1
1000
auto
  0
XRECORD
  5
84
330
67
100
AcDbXrecord
280
1
1000
auto
  0
XRECORD
  5
85
330
67
100
AcDbXrecord
280
1
1000
auto
  0
XRECORD
  5
86
330
67
100
AcDbXrecord
280
1
1000
auto
  0
XRECORD
  5
87
330
67
100
AcDbXrecord
280
1
1000
auto
  0
XRECORD
  5
88
330
67
100
AcDbXrecord
280
1
 90
1
  0
XRECORD
  5
89
330
67
100
AcDbXrecord
280
1
 40
10.0
  0
XRECORD
  5
8A
330
67
100
AcDbXrecord
280
1
 40
10.0
  0
XRECORD
  5
8B
330
67
100
AcDbXrecord
280
1
 40
10.0
  0
XRECORD
  5
8C
330
67
100
AcDbXrecord
280
1
 40
10.0
  0
XRECORD
  5
8D
330
67
100
AcDbXrecord
280
1
290
0
  0
XRECORD
  5
8E
330
67
100
AcDbXrecord
280
1
 90
1
  0
XRECORD
  5
8F
330
67
100
AcDbXrecord
280
1
 40
0.0
  0
XRECORD
  5
90
330
67
100
AcDbXrecord
280
1
 40
0.0
  0
XRECORD
  5
91
330
67
100
AcDbXrecord
280
1
1000
Portrait
  0
XRECORD
  5
92
330
67
100
AcDbXrecord
280
1
 40
297.0
  0
XRECORD
  5
93
330
67
100
AcDbXrecord
280
1
 40
210.0
  0
XRECORD
  5
94
330
67
100
AcDbXrecord
280
1
1000
1:1
  0
XRECORD
  5
95
330
67
100
AcDbXrecord
280
1
290
1
  0
XRECORD
  5
96
330
67
100
AcDbXrecord
280
1
290
0
  0
XRECORD
  5
97
330
67
100
AcDbXrecord
280
1
1000
Inside
  0
XRECORD
  5
98
330
67
100
AcDbXrecord
280
1
1000
Arial,10,-1,5,50,0,0,0,0,0
  0
XRECORD
  5
99
330
67
100
AcDbXrecord
280
1
1000
TopLeft
  0
XRECORD
  5
9A
330
67
100
AcDbXrecord
280
1
1000
3.32.2
  0
XRECORD
  5
9B
330
67
100
AcDbXrecord
280
1
 90
4
  0
XRECORD
  5
9D
330
67
100
AcDbXrecord
280
1
 40
0.0584441962118376
  0
XRECORD
  5
9E
330
67
100
AcDbXrecord
280
1
 40
0.123928839862856
  0
ENDSEC
  0
EOF
