999
dxflib 3.26.4.0
  0
SECTION
  2
HEADER
  9
$ACADVER
  1
AC1015
  9
$HANDSEED
  5
FFFF
  9
$ANGBASE
 50
0.0
  9
$ANGDIR
 70
0
  9
$ATTMODE
 70
1
  9
$AUNITS
 70
0
  9
$AUPREC
 70
0
  9
$CECOLOR
 62
256
  9
$CELTSCALE
 40
1.0
  9
$CHAMFERA
 40
0.0
  9
$CHAMFERB
 40
0.0
  9
$CHAMFERC
 40
0.0
  9
$CHAMFERD
 40
0.0
  9
$CMLJUST
 70
0
  9
$CMLSCALE
 40
20.0
  9
$DIMADEC
 70
2
  9
$DIMALT
 70
0
  9
$DIMALTD
 70
3
  9
$DIMALTF
 40
0.0393700787401575
  9
$DIMALTRND
 40
0.0
  9
$DIMALTTD
 70
3
  9
$DIMALTTZ
 70
0
  9
$DIMALTU
 70
2
  9
$DIMALTZ
 70
0
  9
$DIMAPOST
  1

  9
$DIMASZ
 40
2.5
  9
$DIMATFIT
 70
3
  9
$DIMAUNIT
 70
0
  9
$DIMAZIN
 70
0
  9
$DIMBLK
  1
0
  9
$DIMBLK1
  1
0
  9
$DIMBLK2
  1
0
  9
$DIMCEN
 40
2.5
  9
$DIMCLRD
 70
0
  9
$DIMCLRE
 70
0
  9
$DIMDEC
 70
2
  9
$DIMDLE
 40
0.0
  9
$DIMDLI
 40
3.75
  9
$DIMDSEP
 70
44
  9
$DIMEXE
 40
1.25
  9
$DIMEXO
 40
0.625
  9
$DIMFRAC
 70
2
  9
$DIMGAP
 40
0.7
  9
$DIMJUST
 70
0
  9
$DIMLDRBLK
  1

  9
$DIMLFAC
 40
1.0
  9
$DIMLIM
 70
0
  9
$DIMLUNIT
 70
2
  9
$DIMLWD
 70
15
  9
$DIMLWE
 70
15
  9
$DIMPOST
  1

  9
$DIMRND
 40
0.01
  9
$DIMSAH
 70
0
  9
$DIMSCALE
 40
1.0
  9
$DIMSD1
 70
0
  9
$DIMSD2
 70
0
  9
$DIMSE1
 70
0
  9
$DIMSE2
 70
0
  9
$DIMSOXD
 70
0
  9
$DIMTAD
 70
1
  9
$DIMTDEC
 70
2
  9
$DIMTFAC
 40
1.0
  9
$DIMTIH
 70
0
  9
$DIMTIX
 70
0
  9
$DIMTM
 40
0.0
  9
$DIMTOFL
 70
1
  9
$DIMTOH
 70
0
  9
$DIMTOL
 70
0
  9
$DIMTOLJ
 70
0
  9
$DIMTP
 40
0.0
  9
$DIMTSZ
 40
0.0
  9
$DIMTVP
 40
0.0
  9
$DIMTXSTY
  7
Standard
  9
$DIMTXT
 40
2.5
  9
$DIMTZIN
 70
8
  9
$DIMUPT
 70
0
  9
$DIMZIN
 70
8
  9
$DISPSILH
 70
0
  9
$DWGCODEPAGE
  3
ANSI_1252
  9
$ELEVATION
 40
0.0
  9
$EXTMAX
 10
-100000000000000000000.0
 20
-100000000000000000000.0
 30
-100000000000000000000.0
  9
$EXTMIN
 10
100000000000000000000.0
 20
100000000000000000000.0
 30
100000000000000000000.0
  9
$FILLETRAD
 40
0.0
  9
$FILLMODE
 70
1
  9
$INSBASE
 10
0.0
 20
0.0
 30
0.0
  9
$INSUNITS
 70
4
  9
$LIMCHECK
 70
0
  9
$LIMMAX
 10
420.0
 20
297.0
  9
$LIMMIN
 10
0.0
 20
0.0
  9
$LTSCALE
 40
1.0
  9
$LUNITS
 70
2
  9
$LUPREC
 70
4
  9
$MAXACTVP
 70
64
  9
$MEASUREMENT
 70
1
  9
$MIRRTEXT
 70
1
  9
$ORTHOMODE
 70
0
  9
$PDMODE
 70
0
  9
$PDSIZE
 40
0.0
  9
$PELEVATION
 40
0.0
  9
$PEXTMAX
 10
0.0
 20
0.0
 30
0.0
  9
$PEXTMIN
 10
0.0
 20
0.0
 30
0.0
  9
$PINSBASE
 10
0.0
 20
0.0
 30
0.0
  9
$PLIMCHECK
 70
0
  9
$PLIMMAX
 10
277.0
 20
202.5
  9
$PLIMMIN
 10
-20.0
 20
-7.5
  9
$PLINEGEN
 70
0
  9
$PLINEWID
 40
0.0
  9
$PROXYGRAPHICS
 70
1
  9
$PSLTSCALE
 70
1
  9
$PUCSNAME
  2

  9
$PUCSORG
 10
0.0
 20
0.0
 30
0.0
  9
$PUCSXDIR
 10
1.0
 20
0.0
 30
0.0
  9
$PUCSYDIR
 10
0.0
 20
1.0
 30
0.0
  9
$QTEXTMODE
 70
0
  9
$REGENMODE
 70
1
  9
$SHADEDGE
 70
3
  9
$SHADEDIF
 70
70
  9
$SKETCHINC
 40
1.0
  9
$SKPOLY
 70
0
  9
$SPLFRAME
 70
0
  9
$SPLINESEGS
 70
8
  9
$SPLINETYPE
 70
6
  9
$SURFTAB1
 70
6
  9
$SURFTAB2
 70
6
  9
$SURFTYPE
 70
6
  9
$SURFU
 70
6
  9
$SURFV
 70
6
  9
$TEXTSIZE
 40
2.5
  9
$TEXTSTYLE
  7
Standard
  9
$THICKNESS
 40
0.0
  9
$TILEMODE
 70
0
  9
$TRACEWID
 40
1.0
  9
$TREEDEPTH
 70
3020
  9
$UCSNAME
  2

  9
$UCSORG
 10
0.0
 20
0.0
 30
0.0
  9
$UCSXDIR
 10
1.0
 20
0.0
 30
0.0
  9
$UCSYDIR
 10
0.0
 20
1.0
 30
0.0
  9
$UNITMODE
 70
0
  9
$USERI1
 70
0
  9
$USERI2
 70
0
  9
$USERI3
 70
0
  9
$USERI4
 70
0
  9
$USERI5
 70
0
  9
$USERR1
 40
0.0
  9
$USERR2
 40
0.0
  9
$USERR3
 40
0.0
  9
$USERR4
 40
0.0
  9
$USERR5
 40
0.0
  9
$USRTIMER
 70
1
  9
$VISRETAIN
 70
1
  0
ENDSEC
  0
SECTION
  2
TABLES
  0
TABLE
  2
VPORT
  5
8
100
AcDbSymbolTable
 70
1
  0
VPORT
  5
30
100
AcDbSymbolTableRecord
100
AcDbViewportTableRecord
  2
*Active
 70
0
 10
0.0
 20
0.0
 11
1.0
 21
1.0
 12
286.3055555555554861
 22
148.5
 13
0.0
 23
0.0
 14
10.0
 24
10.0
 15
10.0
 25
10.0
 16
0.0
 26
0.0
 36
1.0
 17
0.0
 27
0.0
 37
0.0
 40
297.0
 41
1.92798353909465
 42
50.0
 43
0.0
 44
0.0
 50
0.0
 51
0.0
 71
0
 72
100
 73
1
 74
3
 75
1
 76
1
 77
0
 78
0
281
0
 65
1
110
0.0
120
0.0
130
0.0
111
1.0
121
0.0
131
0.0
112
0.0
122
1.0
132
0.0
 79
0
146
0.0
  0
ENDTAB
  0
TABLE
  2
LTYPE
  5
5
100
AcDbSymbolTable
 70
46
  0
LTYPE
  5
16
100
AcDbSymbolTableRecord
100
AcDbLinetypeTableRecord
  2
Continuous
 70
0
  3
Solid line
 72
65
 73
0
 40
0.0
  0
LTYPE
  5
31
100
AcDbSymbolTableRecord
100
AcDbLinetypeTableRecord
  2
BORDER
 70
0
  3
Border __ __ . __ __ . __ __ . __ __ . __ __ .
 72
65
 73
6
 40
44.4499999999999957
 49
12.6999999999999993
 74
0
 49
-6.3499999999999996
 74
0
 49
12.6999999999999993
 74
0
 49
-6.3499999999999996
 74
0
 49
0.0
 74
0
 49
-6.3499999999999996
 74
0
  0
LTYPE
  5
32
100
AcDbSymbolTableRecord
100
AcDbLinetypeTableRecord
  2
CENTERX2
 70
0
  3
Center (2x) ________  __  ________  __  _____
 72
65
 73
4
 40
101.6000000000000085
 49
63.5
 74
0
 49
-12.6999999999999993
 74
0
 49
12.6999999999999993
 74
0
 49
-12.6999999999999993
 74
0
  0
LTYPE
  5
33
100
AcDbSymbolTableRecord
100
AcDbLinetypeTableRecord
  2
ACAD_ISO14W100
 70
0
  3
ISO dash triple-dot __ . . . __ . . . __ . . . _
 72
65
 73
8
 40
24.0
 49
12.0
 74
0
 49
-3.0
 74
0
 49
0.0
 74
0
 49
-3.0
 74
0
 49
0.0
 74
0
 49
-3.0
 74
0
 49
0.0
 74
0
 49
-3.0
 74
0
  0
LTYPE
  5
34
100
AcDbSymbolTableRecord
100
AcDbLinetypeTableRecord
  2
DraftedLine
 70
0
  3

 72
65
 73
2
 40
3.0
 49
2.0
 74
0
 49
-1.0
 74
0
  0
LTYPE
  5
35
100
AcDbSymbolTableRecord
100
AcDbLinetypeTableRecord
  2
DASHEDX2
 70
0
  3
Dashed (2x) ____  ____  ____  ____  ____  ___
 72
65
 73
2
 40
38.0999999999999943
 49
25.3999999999999986
 74
0
 49
-12.6999999999999993
 74
0
  0
LTYPE
  5
36
100
AcDbSymbolTableRecord
100
AcDbLinetypeTableRecord
  2
PHANTOMX2
 70
0
  3
Phantom (2x) ____________    ____    ____   _
 72
65
 73
6
 40
127.0000000000000142
 49
63.5
 74
0
 49
-12.6999999999999993
 74
0
 49
12.6999999999999993
 74
0
 49
-12.6999999999999993
 74
0
 49
12.6999999999999993
 74
0
 49
-12.6999999999999993
 74
0
  0
LTYPE
  5
37
100
AcDbSymbolTableRecord
100
AcDbLinetypeTableRecord
  2
DASHED
 70
0
  3
Dashed __ __ __ __ __ __ __ __ __ __ __ __ __ _
 72
65
 73
2
 40
19.0499999999999972
 49
12.6999999999999993
 74
0
 49
-6.3499999999999996
 74
0
  0
LTYPE
  5
38
100
AcDbSymbolTableRecord
100
AcDbLinetypeTableRecord
  2
HIDDENX2
 70
0
  3
Hidden (2x) ____ ____ ____ ____ ____ ____ ____ 
 72
65
 73
2
 40
19.0499999999999972
 49
12.6999999999999993
 74
0
 49
-6.3499999999999996
 74
0
  0
LTYPE
  5
39
100
AcDbSymbolTableRecord
100
AcDbLinetypeTableRecord
  2
BORDER2
 70
0
  3
Border (.5x) __.__.__.__.__.__.__.__.__.__.__.
 72
65
 73
6
 40
22.2249999999999979
 49
6.3499999999999996
 74
0
 49
-3.1749999999999998
 74
0
 49
6.3499999999999996
 74
0
 49
-3.1749999999999998
 74
0
 49
0.0
 74
0
 49
-3.1749999999999998
 74
0
  0
LTYPE
  5
3A
100
AcDbSymbolTableRecord
100
AcDbLinetypeTableRecord
  2
ACAD_ISO04W100
 70
0
  3
ISO long-dash dot ____ . ____ . ____ . ____ . _
 72
65
 73
4
 40
30.0
 49
24.0
 74
0
 49
-3.0
 74
0
 49
0.0
 74
0
 49
-3.0
 74
0
  0
LTYPE
  5
15
100
AcDbSymbolTableRecord
100
AcDbLinetypeTableRecord
  2
ByLayer
 70
0
  3

 72
65
 73
0
 40
0.0
  0
LTYPE
  5
3B
100
AcDbSymbolTableRecord
100
AcDbLinetypeTableRecord
  2
DASHDOT
 70
0
  3
Dash dot __ . __ . __ . __ . __ . __ . __ . __
 72
65
 73
4
 40
25.3999999999999986
 49
12.6999999999999993
 74
0
 49
-6.3499999999999996
 74
0
 49
0.0
 74
0
 49
-6.3499999999999996
 74
0
  0
LTYPE
  5
3C
100
AcDbSymbolTableRecord
100
AcDbLinetypeTableRecord
  2
ACAD_ISO05W100
 70
0
  3
ISO long-dash double-dot ____ .. ____ .. ____ . 
 72
65
 73
6
 40
33.0
 49
24.0
 74
0
 49
-3.0
 74
0
 49
0.0
 74
0
 49
-3.0
 74
0
 49
0.0
 74
0
 49
-3.0
 74
0
  0
LTYPE
  5
3D
100
AcDbSymbolTableRecord
100
AcDbLinetypeTableRecord
  2
DIVIDE2
 70
0
  3
Divide (.5x) __..__..__..__..__..__..__..__.._
 72
65
 73
6
 40
15.875
 49
6.3499999999999996
 74
0
 49
-3.1749999999999998
 74
0
 49
0.0
 74
0
 49
-3.1749999999999998
 74
0
 49
0.0
 74
0
 49
-3.1749999999999998
 74
0
  0
LTYPE
  5
3E
100
AcDbSymbolTableRecord
100
AcDbLinetypeTableRecord
  2
DASHED2
 70
0
  3
Dashed (.5x) _ _ _ _ _ _ _ _ _ _ _ _ _ _ _ _ _ 
 72
65
 73
2
 40
9.5249999999999986
 49
6.3499999999999996
 74
0
 49
-3.1749999999999998
 74
0
  0
LTYPE
  5
3F
100
AcDbSymbolTableRecord
100
AcDbLinetypeTableRecord
  2
CENTER
 70
0
  3
Center ____ _ ____ _ ____ _ ____ _ ____ _ ____
 72
65
 73
4
 40
50.8000000000000043
 49
31.75
 74
0
 49
-6.3499999999999996
 74
0
 49
6.3499999999999996
 74
0
 49
-6.3499999999999996
 74
0
  0
LTYPE
  5
40
100
AcDbSymbolTableRecord
100
AcDbLinetypeTableRecord
  2
DOTX2
 70
0
  3
Dot (2x) .  .  .  .  .  .  .  .  .  .  .  .  .  .
 72
65
 73
2
 40
12.6999999999999993
 49
0.0
 74
0
 49
-12.6999999999999993
 74
0
  0
LTYPE
  5
41
100
AcDbSymbolTableRecord
100
AcDbLinetypeTableRecord
  2
DASHDOTX2
 70
0
  3
Dash dot (2x) ____  .  ____  .  ____  .  ___
 72
65
 73
4
 40
50.7999999999999972
 49
25.3999999999999986
 74
0
 49
-12.6999999999999993
 74
0
 49
0.0
 74
0
 49
-12.6999999999999993
 74
0
  0
LTYPE
  5
42
100
AcDbSymbolTableRecord
100
AcDbLinetypeTableRecord
  2
ACAD_ISO02W100
 70
0
  3
ISO dash __ __ __ __ __ __ __ __ __ __ __ __ __
 72
65
 73
2
 40
15.0
 49
12.0
 74
0
 49
-3.0
 74
0
  0
LTYPE
  5
43
100
AcDbSymbolTableRecord
100
AcDbLinetypeTableRecord
  2
HIDDEN
 70
0
  3
Hidden __ __ __ __ __ __ __ __ __ __ __ __ __ __
 72
65
 73
2
 40
9.5249999999999986
 49
6.3499999999999996
 74
0
 49
-3.1749999999999998
 74
0
  0
LTYPE
  5
44
100
AcDbSymbolTableRecord
100
AcDbLinetypeTableRecord
  2
ACAD_ISO07W100
 70
0
  3
ISO dot . . . . . . . . . . . . . . . . . . . . 
 72
65
 73
2
 40
3.0
 49
0.0
 74
0
 49
-3.0
 74
0
  0
LTYPE
  5
45
100
AcDbSymbolTableRecord
100
AcDbLinetypeTableRecord
  2
ACAD_ISO11W100
 70
0
  3
ISO double-dash dot __ __ . __ __ . __ __ . __ _
 72
65
 73
6
 40
33.0
 49
12.0
 74
0
 49
-3.0
 74
0
 49
12.0
 74
0
 49
-3.0
 74
0
 49
0.0
 74
0
 49
-3.0
 74
0
  0
LTYPE
  5
46
100
AcDbSymbolTableRecord
100
AcDbLinetypeTableRecord
  2
ACAD_ISO15W100
 70
0
  3
ISO double-dash triple-dot __ __ . . . __ __ . .
 72
65
 73
10
 40
39.0
 49
12.0
 74
0
 49
-3.0
 74
0
 49
12.0
 74
0
 49
-3.0
 74
0
 49
0.0
 74
0
 49
-3.0
 74
0
 49
0.0
 74
0
 49
-3.0
 74
0
 49
0.0
 74
0
 49
-3.0
 74
0
  0
LTYPE
  5
47
100
AcDbSymbolTableRecord
100
AcDbLinetypeTableRecord
  2
ACAD_ISO06W100
 70
0
  3
ISO long-dash triple-dot ____ ... ____ ... ____
 72
65
 73
8
 40
36.0
 49
24.0
 74
0
 49
-3.0
 74
0
 49
0.0
 74
0
 49
-3.0
 74
0
 49
0.0
 74
0
 49
-3.0
 74
0
 49
0.0
 74
0
 49
-3.0
 74
0
  0
LTYPE
  5
48
100
AcDbSymbolTableRecord
100
AcDbLinetypeTableRecord
  2
SectionLineANSI
 70
0
  3

 72
65
 73
7
 40
11.9944444444445182
 49
4.23333333333336
 74
0
 49
-1.05833333333334
 74
0
 49
0.17638888888889
 74
0
 49
-1.05833333333334
 74
0
 49
0.17638888888889
 74
0
 49
-1.05833333333334
 74
0
 49
4.23333333333336
 74
0
  0
LTYPE
  5
49
100
AcDbSymbolTableRecord
100
AcDbLinetypeTableRecord
  2
DASHDOT2
 70
0
  3
Dash dot (.5x) _._._._._._._._._._._._._._._.
 72
65
 73
4
 40
12.6999999999999993
 49
6.3499999999999996
 74
0
 49
-3.1749999999999998
 74
0
 49
0.0
 74
0
 49
-3.1749999999999998
 74
0
  0
LTYPE
  5
4A
100
AcDbSymbolTableRecord
100
AcDbLinetypeTableRecord
  2
PHANTOM
 70
0
  3
Phantom ______  __  __  ______  __  __  ______ 
 72
65
 73
6
 40
63.5000000000000071
 49
31.75
 74
0
 49
-6.3499999999999996
 74
0
 49
6.3499999999999996
 74
0
 49
-6.3499999999999996
 74
0
 49
6.3499999999999996
 74
0
 49
-6.3499999999999996
 74
0
  0
LTYPE
  5
4B
100
AcDbSymbolTableRecord
100
AcDbLinetypeTableRecord
  2
DOT2
 70
0
  3
Dot (.5x) ........................................
 72
65
 73
2
 40
3.1749999999999998
 49
0.0
 74
0
 49
-3.1749999999999998
 74
0
  0
LTYPE
  5
4C
100
AcDbSymbolTableRecord
100
AcDbLinetypeTableRecord
  2
DetailCircleISO
 70
0
  3

 72
65
 73
5
 40
13.7583333333334217
 49
4.23333333333336
 74
0
 49
-2.11666666666668
 74
0
 49
1.05833333333334
 74
0
 49
-2.11666666666668
 74
0
 49
4.23333333333336
 74
0
  0
LTYPE
  5
14
100
AcDbSymbolTableRecord
100
AcDbLinetypeTableRecord
  2
ByBlock
 70
0
  3

 72
65
 73
0
 40
0.0
  0
LTYPE
  5
4D
100
AcDbSymbolTableRecord
100
AcDbLinetypeTableRecord
  2
ACAD_ISO12W100
 70
0
  3
ISO dash double-dot __ . . __ . . __ . . __ . . 
 72
65
 73
6
 40
21.0
 49
12.0
 74
0
 49
-3.0
 74
0
 49
0.0
 74
0
 49
-3.0
 74
0
 49
0.0
 74
0
 49
-3.0
 74
0
  0
LTYPE
  5
4E
100
AcDbSymbolTableRecord
100
AcDbLinetypeTableRecord
  2
DOT
 70
0
  3
Dot . . . . . . . . . . . . . . . . . . . . . . . .
 72
65
 73
2
 40
6.3499999999999996
 49
0.0
 74
0
 49
-6.3499999999999996
 74
0
  0
LTYPE
  5
4F
100
AcDbSymbolTableRecord
100
AcDbLinetypeTableRecord
  2
PHANTOM2
 70
0
  3
Phantom (.5x) ___ _ _ ___ _ _ ___ _ _ ___ _ _
 72
65
 73
6
 40
31.7500000000000036
 49
15.875
 74
0
 49
-3.1749999999999998
 74
0
 49
3.1749999999999998
 74
0
 49
-3.1749999999999998
 74
0
 49
3.1749999999999998
 74
0
 49
-3.1749999999999998
 74
0
  0
LTYPE
  5
50
100
AcDbSymbolTableRecord
100
AcDbLinetypeTableRecord
  2
DIVIDE
 70
0
  3
Divide ____ . . ____ . . ____ . . ____ . . ____
 72
65
 73
6
 40
31.75
 49
12.6999999999999993
 74
0
 49
-6.3499999999999996
 74
0
 49
0.0
 74
0
 49
-6.3499999999999996
 74
0
 49
0.0
 74
0
 49
-6.3499999999999996
 74
0
  0
LTYPE
  5
51
100
AcDbSymbolTableRecord
100
AcDbLinetypeTableRecord
  2
ACAD_ISO13W100
 70
0
  3
ISO double-dash double-dot __ __ . . __ __ . . _
 72
65
 73
8
 40
36.0
 49
12.0
 74
0
 49
-3.0
 74
0
 49
12.0
 74
0
 49
-3.0
 74
0
 49
0.0
 74
0
 49
-3.0
 74
0
 49
0.0
 74
0
 49
-3.0
 74
0
  0
LTYPE
  5
52
100
AcDbSymbolTableRecord
100
AcDbLinetypeTableRecord
  2
CenterLine
 70
0
  3

 72
65
 73
4
 40
8.0
 49
5.0
 74
0
 49
-1.0
 74
0
 49
1.0
 74
0
 49
-1.0
 74
0
  0
LTYPE
  5
53
100
AcDbSymbolTableRecord
100
AcDbLinetypeTableRecord
  2
BORDERX2
 70
0
  3
Border (2x) ____  ____  .  ____  ____  .  ___
 72
65
 73
6
 40
88.8999999999999915
 49
25.3999999999999986
 74
0
 49
-12.6999999999999993
 74
0
 49
25.3999999999999986
 74
0
 49
-12.6999999999999993
 74
0
 49
0.0
 74
0
 49
-12.6999999999999993
 74
0
  0
LTYPE
  5
54
100
AcDbSymbolTableRecord
100
AcDbLinetypeTableRecord
  2
ACAD_ISO10W100
 70
0
  3
ISO dash dot __ . __ . __ . __ . __ . __ . __ . 
 72
65
 73
4
 40
18.0
 49
12.0
 74
0
 49
-3.0
 74
0
 49
0.0
 74
0
 49
-3.0
 74
0
  0
LTYPE
  5
55
100
AcDbSymbolTableRecord
100
AcDbLinetypeTableRecord
  2
CENTER2
 70
0
  3
Center (.5x) ___ _ ___ _ ___ _ ___ _ ___ _ ___
 72
65
 73
4
 40
28.5750000000000028
 49
19.0500000000000007
 74
0
 49
-3.1749999999999998
 74
0
 49
3.1749999999999998
 74
0
 49
-3.1749999999999998
 74
0
  0
LTYPE
  5
56
100
AcDbSymbolTableRecord
100
AcDbLinetypeTableRecord
  2
ACAD_ISO09W100
 70
0
  3
ISO long-dash double-short-dash ____ __ __ ____
 72
65
 73
6
 40
45.0
 49
24.0
 74
0
 49
-3.0
 74
0
 49
6.0
 74
0
 49
-3.0
 74
0
 49
6.0
 74
0
 49
-3.0
 74
0
  0
LTYPE
  5
57
100
AcDbSymbolTableRecord
100
AcDbLinetypeTableRecord
  2
SectionLineISO
 70
0
  3

 72
65
 73
5
 40
13.7583333333334217
 49
4.23333333333336
 74
0
 49
-2.11666666666668
 74
0
 49
1.05833333333334
 74
0
 49
-2.11666666666668
 74
0
 49
4.23333333333336
 74
0
  0
LTYPE
  5
58
100
AcDbSymbolTableRecord
100
AcDbLinetypeTableRecord
  2
DIVIDEX2
 70
0
  3
Divide (2x) ________  .  .  ________  .  .  _
 72
65
 73
6
 40
63.5
 49
25.3999999999999986
 74
0
 49
-12.6999999999999993
 74
0
 49
0.0
 74
0
 49
-12.6999999999999993
 74
0
 49
0.0
 74
0
 49
-12.6999999999999993
 74
0
  0
LTYPE
  5
59
100
AcDbSymbolTableRecord
100
AcDbLinetypeTableRecord
  2
ACAD_ISO08W100
 70
0
  3
ISO long-dash short-dash ____ __ ____ __ ____ _
 72
65
 73
4
 40
36.0
 49
24.0
 74
0
 49
-3.0
 74
0
 49
6.0
 74
0
 49
-3.0
 74
0
  0
LTYPE
  5
5A
100
AcDbSymbolTableRecord
100
AcDbLinetypeTableRecord
  2
HIDDEN2
 70
0
  3
Hidden (.5x) _ _ _ _ _ _ _ _ _ _ _ _ _ _ _ _ _ 
 72
65
 73
2
 40
4.7624999999999993
 49
3.1749999999999998
 74
0
 49
-1.5874999999999999
 74
0
  0
LTYPE
  5
5B
100
AcDbSymbolTableRecord
100
AcDbLinetypeTableRecord
  2
ACAD_ISO03W100
 70
0
  3
ISO dash space __    __    __    __    __    __
 72
65
 73
2
 40
30.0
 49
12.0
 74
0
 49
-18.0
 74
0
  0
ENDTAB
  0
TABLE
  2
LAYER
  5
2
100
AcDbSymbolTable
 70
4
  0
LAYER
  5
5C
100
AcDbSymbolTableRecord
100
AcDbLayerTableRecord
  2
Geometries
 70
0
 62
7
420
16777215
  6
Continuous
370
-3
390
F
  0
LAYER
  5
10
100
AcDbSymbolTableRecord
100
AcDbLayerTableRecord
  2
0
 70
0
 62
7
420
16777215
  6
Continuous
370
-3
390
F
  0
LAYER
  5
5D
100
AcDbSymbolTableRecord
100
AcDbLayerTableRecord
  2
Annotations
 70
0
 62
7
420
16777215
  6
Continuous
370
-3
390
F
  0
LAYER
  5
5E
100
AcDbSymbolTableRecord
100
AcDbLayerTableRecord
  2
Border
 70
0
 62
7
420
16777215
  6
Continuous
370
-3
390
F
  0
ENDTAB
  0
TABLE
  2
STYLE
  5
3
100
AcDbSymbolTable
 70
1
  0
STYLE
  5
5F
100
AcDbSymbolTableRecord
100
AcDbTextStyleTableRecord
  2
Standard
 70
0
 40
0.0
 41
1.0
 50
0.0
 71
0
 42
2.5
  3

  4

1001
ACAD
1000
txt
1071
0
  0
ENDTAB
  0
TABLE
  2
VIEW
  5
6
100
AcDbSymbolTable
 70
0
  0
ENDTAB
  0
TABLE
  2
UCS
  5
7
100
AcDbSymbolTable
 70
0
  0
ENDTAB
  0
TABLE
  2
APPID
  5
9
100
AcDbSymbolTable
 70
1
  0
APPID
  5
12
100
AcDbSymbolTableRecord
100
AcDbRegAppTableRecord
  2
ACAD
 70
0
  0
APPID
  5
60
100
AcDbSymbolTableRecord
100
AcDbRegAppTableRecord
  2
QCAD
 70
0
  0
ENDTAB
  0
TABLE
  2
DIMSTYLE
  5
A
100
AcDbSymbolTable
 70
1
100
AcDbDimStyleTable
 71
0
  0
DIMSTYLE
105
27
100
AcDbSymbolTableRecord
100
AcDbDimStyleTableRecord
  2
Standard
 41
2.5
 42
0.625
 43
3.75
 44
1.25
 70
0
 73
0
 74
0
 77
1
 78
8
140
2.5
141
2.5
143
0.03937007874016
147
0.7
171
3
172
1
271
2
272
2
274
3
278
44
283
0
284
8
340
5F
  0
ENDTAB
  0
TABLE
  2
BLOCK_RECORD
  5
1
100
AcDbSymbolTable
 70
1
  0
BLOCK_RECORD
  5
1F
100
AcDbSymbolTableRecord
100
AcDbBlockTableRecord
  2
*Model_Space
340
22
  0
BLOCK_RECORD
  5
1B
100
AcDbSymbolTableRecord
100
AcDbBlockTableRecord
  2
*Paper_Space
340
1E
  0
BLOCK_RECORD
  5
23
100
AcDbSymbolTableRecord
100
AcDbBlockTableRecord
  2
*Paper_Space0
340
26
  0
ENDTAB
  0
ENDSEC
  0
SECTION
  2
BLOCKS
  0
BLOCK
  5
20
100
AcDbEntity
  8
0
100
AcDbBlockBegin
  2
*Model_Space
 70
0
 10
0.0
 20
0.0
 30
0.0
  3
*Model_Space
  1

  0
ENDBLK
  5
21
100
AcDbEntity
  8
0
100
AcDbBlockEnd
  0
BLOCK
  5
1C
100
AcDbEntity
 67
1
  8
0
100
AcDbBlockBegin
  2
*Paper_Space
 70
0
 10
0.0
 20
0.0
 30
0.0
  3
*Paper_Space
  1

  0
ENDBLK
  5
1D
100
AcDbEntity
 67
1
  8
0
100
AcDbBlockEnd
  0
BLOCK
  5
24
100
AcDbEntity
  8
0
100
AcDbBlockBegin
  2
*Paper_Space0
 70
0
 10
0.0
 20
0.0
 30
0.0
  3
*Paper_Space0
  1

  0
ENDBLK
  5
25
100
AcDbEntity
  8
0
100
AcDbBlockEnd
  0
ENDSEC
  0
SECTION
  2
ENTITIES
  0
LINE
  5
61
100
AcDbEntity
  8
Geometries
 62
256
370
0
 48
1.0
  6
Continuous
100
AcDbLine
 10
187.6277372972589035
 20
169.1560495246461073
 30
0.0
 11
187.6143289715178923
 21
169.1560630818792959
 31
0.0
  0
LINE
  5
62
100
AcDbEntity
  8
Geometries
 62
256
370
0
 48
1.0
  6
Continuous
100
AcDbLine
 10
202.4416357243453888
 20
171.9790584900507042
 30
0.0
 11
202.5403497313924106
 21
171.9775583994434101
 31
0.0
  0
LWPOLYLINE
  5
63
100
AcDbEntity
  8
Geometries
 62
256
370
0
 48
1.0
  6
Continuous
100
AcDbPolyline
 90
4
 70
128
 10
202.5403497313924106
 20
171.9775583994434101
 10
202.6260015990247894
 20
171.9762216585058923
 10
203.0389160970262026
 20
171.9693223811891869
 10
203.2457762586479078
 20
171.9655847580415866
  0
LWPOLYLINE
  5
64
100
AcDbEntity
  8
Geometries
 62
256
370
0
 48
1.0
  6
Continuous
100
AcDbPolyline
 90
3
 70
128
 10
187.5822948028686028
 20
161.0644020295272867
 10
187.2029606487066076
 20
161.0556782615201996
 10
187.1943561061133039
 20
161.0554422239588916
  0
LWPOLYLINE
  5
65
100
AcDbEntity
  8
Geometries
 62
256
370
0
 48
1.0
  6
Continuous
100
AcDbPolyline
 90
283
 70
128
 10
163.1634182380236098
 20
164.0531245836035907
 10
163.1664614667097908
 20
164.0742917265964991
 10
163.1700773159111861
 20
164.0953691359410982
 10
163.1742185049268983
 20
164.1164047997754096
 10
163.178821885289608
 20
164.1373445706950918
 10
163.1812727966614034
 20
164.1477472185742954
 10
163.1825344918723886
 20
164.1529398219506106
 10
163.1828535625230074
 20
164.1542370779010866
 10
163.1829335549371933
 20
164.154561336476803
 10
163.183254418394597
 20
164.1558581501479921
 10
163.1845519713436943
 20
164.1610419081615078
 10
163.1899551444624024
 20
164.1817231466037015
 10
163.1956649545703897
 20
164.2023234612144904
 10
163.2016371753475141
 20
164.2228494315776004
 10
163.2078175515235898
 20
164.243325743937902
 10
163.2142306069131905
 20
164.2637300227102912
 10
163.2232979256343981
 20
164.2907678659076112
 10
163.2329656862131912
 20
164.3176011838486943
 10
163.2431607181860045
 20
164.3442361557617915
 10
163.2538474873549887
 20
164.3707696538324114
 10
163.2649308986109133
 20
164.3971420344905141
 10
163.2763455930009968
 20
164.4233717955995928
 10
163.2938813774595133
 20
164.4623601096577943
 10
163.3028282626410999
 20
164.4817771698118065
 10
163.3119339592591928
 20
164.5011201219734005
 10
163.3212382068572879
 20
164.5203638940290034
 10
163.3307843781464896
 20
164.5394923501366122
 10
163.3310869462235928
 20
164.5400878517860122
 10
163.3312383328637054
 20
164.5403855504501962
 10
163.3312761902595867
 20
164.5404599696553873
 10
163.331427655487289
 20
164.5407576283421065
 10
163.3320340739192034
 20
164.5419479793258972
 10
163.3344686341598901
 20
164.5467048518808042
 10
163.3443470720924893
 20
164.5656603257513098
 10
163.3544442606834934
 20
164.5845016826773133
 10
163.3647518585150067
 20
164.6032287897814115
 10
163.3752673000223012
 20
164.621851743527202
 10
163.3859781563440094
 20
164.6403630256116912
 10
163.3968715055952998
 20
164.6587551023370963
 10
163.4079453600043053
 20
164.6770390926263019
 10
163.4306144901848086
 20
164.7133041776550044
 10
163.4334928761786045
 20
164.7178063754749076
 10
163.4342140159706958
 20
164.7189309358614935
 10
163.4345748162882899
 20
164.7194930682047982
 10
163.4346650403354886
 20
164.7196335859026135
 10
163.4347101559118869
 20
164.7197038424698121
 10
163.4348906423624896
 20
164.7199848532341946
 10
163.435612970698287
 20
164.7211086505631101
 10
163.438508379797014
 20
164.7255999194460969
 10
163.4501858096969897
 20
164.7435030925375088
 10
163.4739791396031023
 20
164.7790207999468066
 10
163.4860813450520141
 20
164.7966395635019978
 10
163.4921811274060985
 20
164.8054152378128094
 10
163.4925634152340876
 20
164.8059629837889872
 10
163.4926590063664946
 20
164.8060999068972023
 10
163.4930414475269913
 20
164.8066475458259958
 10
163.4945724353596859
 20
164.8088372471287926
 10
163.5007157587355096
 20
164.8175824949956905
 10
163.5255864002668886
 20
164.8523538257811936
 10
163.5508980757977042
 20
164.8868087255233092
 10
163.5766039995164931
 20
164.9209707416528943
 10
163.6026718947408938
 20
164.9548814700827108
 10
163.6290481329774877
 20
164.9885531159513903
 10
163.6646148651354054
 20
165.0331027775982022
 10
163.7005632937010944
 20
165.0773470628633106
 10
163.7367872277123979
 20
165.1213680507572974
 10
163.7731804762076138
 20
165.1652478202902046
 10
163.7975437474752027
 20
165.1944134799460073
 10
163.8221057396673075
 20
165.2234122087031096
 10
163.8469547155837915
 20
165.2521636300089085
 10
163.8721527084477998
 20
165.2806512755512074
 10
163.8976536761223883
 20
165.3088695537666126
 10
163.9234435429318921
 20
165.336822727838495
 10
163.9549498833426924
 20
165.3702291221962923
 10
163.9868418264040031
 20
165.4032730319212021
 10
164.0190975057093112
 20
165.4359647584149116
 10
164.051695054851109
 20
165.4683146030791079
 10
164.0846126074227982
 20
165.500332867315592
 10
164.1259034546318105
 20
165.5396483932385081
 10
164.1676309662180131
 20
165.5785049068965975
 10
164.2097602394287037
 20
165.6169266225734873
 10
164.2522563715114075
 20
165.6549377545534014
 10
164.2950844122503042
 20
165.6925621659661942
 10
164.3382222967669861
 20
165.729833586990992
 10
164.3816406226264917
 20
165.7667787778740092
 10
164.425309987395309
 20
165.8034244988616024
 10
164.4841624752419023
 20
165.8521007390976933
 10
164.5433578208267988
 20
165.9003612928979123
 10
164.6028340080958117
 20
165.9482745566718052
 10
164.6696504213061871
 20
166.0016199082544119
 10
164.7366547157726018
 20
166.0547291265108925
 10
164.7814659887852997
 20
166.0899675623113012
 10
164.826473900733788
 20
166.1249549007260953
 10
164.8717401910583931
 20
166.1596055725148062
 10
164.9265009138472919
 20
166.2007330946262869
 10
164.9816493455560078
 20
166.2413458808246105
 10
165.0371637159792044
 20
166.2814603237702897
 10
165.0930222549096129
 20
166.3210928161240929
 10
165.1492031921401065
 20
166.3602597505463052
 10
165.2056298426282126
 20
166.3989402388561984
 10
165.2623474862276964
 20
166.4371971058679947
 10
165.3193381065588881
 20
166.4750484521478882
 10
165.3765836872399859
 20
166.512512378262187
 10
165.4340662118904106
 20
166.5496069847768865
 10
165.5063035840042005
 20
166.5955327033902051
 10
165.5788629398088858
 20
166.6409515955560892
 10
165.6517146579867017
 20
166.6859011144759108
 10
165.7248291172195138
 20
166.7304187133509004
 10
165.8021699556726105
 20
166.7769277147361038
 10
165.8797456084523105
 20
166.8230459207723015
 10
165.9575243890438117
 20
166.8688216390766001
 10
166.0354746109310895
 20
166.9143031772661061
 10
166.1135886106332009
 20
166.9595579242104009
 10
166.1918748638395016
 20
167.004516333660888
 10
166.2703954040435974
 20
167.0490617124561084
 10
166.3492122647382132
 20
167.0930773674350007
 10
166.423691708871587
 20
167.1339465843153107
 10
166.4984566098108019
 20
167.1742977229206986
 10
166.5734892764347137
 20
167.2141534554725126
 10
166.6487720176220932
 20
167.2535364541919876
 10
166.7242871422515123
 20
167.2924693913005001
 10
166.8000169592019972
 20
167.3309749390193986
 10
166.8911554248327889
 20
167.376637355689212
 10
166.9825782428868024
 20
167.4217332353364895
 10
167.0742657434159923
 20
167.466291601975513
 10
167.1661982564710911
 20
167.5103414796205072
 10
167.2583561121039111
 20
167.5539118922858108
 10
167.3738397867844867
 20
167.6077443708354053
 10
167.4896221085373043
 20
167.6609356665939004
 10
167.6056711141374933
 20
167.713544070025705
 10
167.7219548403604961
 20
167.7656278715955125
 10
167.8159238862851907
 20
167.807344800103408
 10
167.910012704106407
 20
167.8487939811305978
 10
168.0042445868373875
 20
167.8899163328931934
 10
168.0986428274910054
 20
167.9306527736067949
 10
168.1932307190797928
 20
167.9709442214875139
 10
168.2872272986330131
 20
168.0103827999506905
 10
168.3814427424601092
 20
168.0493007272544901
 10
168.4758623322958897
 20
168.0877235305574118
 10
168.5704713498734009
 20
168.1256767370182104
 10
168.6652550769262007
 20
168.1631858737956975
 10
168.7839649578652086
 20
168.2094719911544871
 10
168.9029254128766127
 20
168.2551151339131934
 10
169.0221191694901961
 20
168.3001464493721926
 10
169.1415289552377033
 20
168.3445970848320883
 10
169.2611380324115089
 20
168.3884983022950053
 10
169.3809363973778943
 20
168.4318835372970113
 10
169.5009093418400141
 20
168.4747844118487023
 10
169.6210421575015914
 20
168.5172325479607878
 10
169.7821484385974031
 20
168.5734248375138122
 10
169.9434899698489971
 20
168.6289407220263001
 10
170.1050360291484083
 20
168.6838570963091115
 10
170.212363378135791
 20
168.7200055141425992
 10
170.3197900439313912
 20
168.7558581279998862
 10
170.4273420744183909
 20
168.7913314433343999
 10
170.535052813769596
 20
168.8263626880012964
 10
170.6429086044396115
 20
168.8609464360594927
 10
170.750901796722701
 20
168.8950972690379899
 10
170.8806568182951935
 20
168.9355296827039012
 10
171.0105895510845926
 20
168.9753930742350008
 10
171.1406895926413938
 20
169.0147098972412891
 10
171.2709465405141884
 20
169.0535026053329091
 10
171.4013499922517099
 20
169.0917936521198897
 10
171.5648254376621935
 20
169.139066751693008
 10
171.7285044858055869
 20
169.1856353192773099
 10
171.8923702105479094
 20
169.2315439909039014
 10
172.0564056857542141
 20
169.2768374026045137
 10
172.2312852685423081
 20
169.3244734148211137
 10
172.4063202848280127
 20
169.3715385873896082
 10
172.5815009685341863
 20
169.4180592630123954
 10
172.7568175535834882
 20
169.4640617843921007
 10
172.8971706555757066
 20
169.5004862254100999
 10
173.0376236716047913
 20
169.5365281246641871
 10
173.178184760128886
 20
169.5721463443682069
 10
173.3188620796049975
 20
169.6072997467360892
 10
173.4596637884899053
 20
169.6419471939819914
 10
173.6359775848316929
 20
169.6845907320042954
 10
173.8124639877381981
 20
169.7265202756364886
 10
173.989111924699813
 20
169.7677649492609078
 10
174.1659103232061909
 20
169.808353877259691
 10
174.3337565315524955
 20
169.8462783426271017
 10
174.5017247156401083
 20
169.8836649881251901
 10
174.6698071868048032
 20
169.9205388449134091
 10
174.8379962563820982
 20
169.9569249441514955
 10
175.0062842357071133
 20
169.9928483169987032
 10
175.1746634361157078
 20
170.0283339946147976
 10
175.3768185355557137
 20
170.0704172629060906
 10
175.5790814047938966
 20
170.1119857157682986
 10
175.7814564398206869
 20
170.1530054260516067
 10
175.9839480366256055
 20
170.1934424666065127
 10
176.1865605911976047
 20
170.2332629102832868
 10
176.3893123030591994
 20
170.2723895687267941
 10
176.5922060842788142
 20
170.3107823903883116
 10
176.7952337852294136
 20
170.3484651774519136
 10
176.9983872562835927
 20
170.385461732102101
 10
177.2016583478142877
 20
170.4217958565230902
 10
177.4055627533223003
 20
170.4575827713860008
 10
177.6095749940901953
 20
170.4927566788915101
 10
177.813687692623688
 20
170.5273465899495875
 10
178.0178934714255092
 20
170.5613815154700887
 10
178.2221849530002942
 20
170.5948904663628127
 10
178.4770046656186935
 20
170.6359668697205052
 10
178.7319451190770963
 20
170.6762938470990889
 10
178.9869979146203036
 20
170.715905255713011
 10
179.2421546534920935
 20
170.7548349527768039
 10
179.4463562284155955
 20
170.7854797062281023
 10
179.6506317222232099
 20
170.8156351751860029
 10
179.8549830261488012
 20
170.8452737120709912
 10
180.0594120314258078
 20
170.8743676693034104
 10
180.2639206292872132
 20
170.9028893993038878
 10
180.468506717077787
 20
170.9308498948362001
 10
180.6731642299328087
 20
170.9582894454100028
 10
180.8778891821845889
 20
170.985224357728697
 10
181.0826775881645858
 20
171.0116709384953992
 10
181.2875254622051955
 20
171.0376454944133116
 10
181.5440295018593133
 20
171.0695197715793938
 10
181.8006181865661119
 20
171.1007124393989898
 10
182.0572851615698085
 20
171.1312554844745932
 10
182.3140240721143073
 20
171.1611808934083001
 10
182.5875594167920042
 20
171.1924523210687141
 10
182.8611648749487131
 20
171.223116509643603
 10
183.134843600388507
 20
171.2531206658042038
 10
183.4085987469138104
 20
171.2824119962218106
 10
183.6824334683279005
 20
171.310937707567291
 10
183.9563525104171902
 20
171.3386637892704982
 10
184.2303509411696893
 20
171.3656091225585101
 10
184.5044231368675014
 20
171.3918008411764902
 10
184.7785634737925022
 20
171.417266078869801
 10
185.0527663282265962
 20
171.4420319693834927
 10
185.3272056607385991
 20
171.4661412033831027
 10
185.6017019190587121
 20
171.4896049380666909
 10
185.8762508237269913
 20
171.5124503566225087
 10
186.1508480952817024
 20
171.5347046422388928
 10
186.4254894542617933
 20
171.5563949781042936
 10
186.7067799870391127
 20
171.5780817317946116
 10
186.9881113258392986
 20
171.5992456982777981
 10
187.2694849580092864
 20
171.6198406773679039
 10
187.5509023708937946
 20
171.639820468879293
 10
187.8323650518389059
 20
171.6591388726259879
 10
188.1138754537026898
 20
171.6777715720672006
 10
188.3954301398817108
 20
171.6957391904373083
 10
188.6770256443516871
 20
171.7130631987832885
 10
188.9586585010873137
 20
171.7297650681522043
 10
189.2403252440637118
 20
171.7458662695912039
 10
189.5221516661528938
 20
171.7613952497895866
 10
189.8040090091739103
 20
171.7763661288234118
 10
190.0858946952278927
 20
171.7908003657701101
 10
190.3678061464146083
 20
171.8047194197069985
 10
190.6497407848339094
 20
171.8181447497113936
 10
190.9444123400317892
 20
171.8316924887369908
 10
191.2391071317333058
 20
171.8447577176461039
 10
191.533824690647009
 20
171.8573141455165114
 10
191.8285645474801129
 20
171.8693354814263046
 10
192.1233262329405989
 20
171.8807954344532902
 10
192.4181092777359083
 20
171.8916677136753037
 10
192.7129132125743922
 20
171.9019260281704078
 10
193.0568774793671878
 20
171.9131316295446084
 10
193.4008672300620901
 20
171.9235699076324124
 10
193.7448794393885123
 20
171.9332721227007994
 10
194.0889110820770895
 20
171.9422695350164076
 10
194.4329591328574054
 20
171.9505934048459892
 10
194.7770205664598109
 20
171.9582749924564098
 10
195.1210913125171089
 20
171.9653665360733896
 10
195.4651741619910013
 20
171.9718957458294994
 10
195.8092677733843914
 20
171.9778569054398929
 10
196.1533708052002964
 20
171.9832442986200931
 10
196.4974819159415915
 20
171.9880522090853106
 10
196.8415997641110096
 20
171.9922749205508978
 10
197.1862199035334129
 20
171.9958733953313867
 10
197.5308473551031057
 20
171.9988134630193883
 10
197.8754803286336994
 20
172.0011136638181881
 10
198.2201170339394025
 20
172.0027925379312137
 10
198.5647556808335992
 20
172.0038686255618927
 10
198.909394479129503
 20
172.004360466913397
 10
199.3223660745437087
 20
172.0042111871694885
 10
199.7353376216443053
 20
172.0032882440955007
 10
200.1483072794995053
 20
172.0016191494489135
 10
200.5612732071749917
 20
171.9992314149870936
 10
200.9742335637382951
 20
171.9961525524674073
 10
201.3871880175026092
 20
171.9923402945094892
 10
201.8001355284881129
 20
171.9877408817843047
 10
202.2130740659204093
 20
171.9823645809103994
 10
202.3195775969631995
 20
171.9808531658802906
  0
LWPOLYLINE
  5
66
100
AcDbEntity
  8
Geometries
 62
256
370
0
 48
1.0
  6
Continuous
100
AcDbPolyline
 90
126
 70
128
 10
220.1175256734709933
 20
171.1020519795090991
 10
220.4322185704274091
 20
171.0760444732165979
 10
220.8496945891934899
 20
171.0410414170993079
 10
221.2671243125280967
 20
171.00549247941521
 10
221.6845070131045077
 20
170.9694019471889135
 10
222.1020649104551978
 20
170.9327030093272128
 10
222.5195678638293089
 20
170.8953769833931915
 10
222.9370161328126869
 20
170.8574411496441883
 10
223.3544099769883076
 20
170.8189127883370872
 10
223.7717496559411927
 20
170.7798091797293125
 10
224.1828664996280907
 20
170.7407438226798888
 10
224.5939355542811029
 20
170.7011749089419936
 10
225.0049591271863108
 20
170.6611340426350125
 10
225.4159395256291134
 20
170.6206528278781036
 10
225.8268790568953079
 20
170.5797628687905103
 10
226.2377926451468113
 20
170.5384932057270078
 10
226.6486664856853963
 20
170.4968255364163099
 10
227.0594953760584076
 20
170.4547168933927992
 10
227.4702741138112003
 20
170.4121243091906877
 10
227.8809974964904939
 20
170.3690048163443009
 10
228.3943093455968096
 20
170.3143768710511097
 10
228.9075451036800928
 20
170.2590345245172045
 10
229.4207119389120919
 20
170.2030550615893958
 10
229.9338170194633051
 20
170.1465157671146073
 10
230.6178926832324123
 20
170.0704450363396916
 10
231.3018941176449061
 20
169.9937081610943892
 10
231.9858243486955871
 20
169.9163404492516065
 10
232.4987016870591106
 20
169.8577791265286976
 10
233.0115125722360006
 20
169.7986361300777958
 10
233.5242624379087033
 20
169.738965542052398
 10
234.036956717760404
 20
169.6788214446063989
 10
234.7204883612278934
 20
169.5980601934909089
 10
235.4039771675259942
 20
169.5169363636036906
 10
236.0874569195242998
 20
169.4357362125298891
 10
236.7713973951202888
 20
169.3546280913911914
 10
237.4553366264377132
 20
169.2735094904178936
 10
238.139241508397987
 20
169.1921023927210115
 10
238.8231045615191874
 20
169.1103423751393962
 10
239.5069585441241884
 20
169.0285064336976859
 10
240.1908314008913123
 20
168.9468285975470963
 10
240.8743049159749035
 20
168.8656440353989865
 10
241.5578507401451986
 20
168.7850707370793941
 10
242.2414651337331861
 20
168.7050676603955139
 10
242.9251130731975081
 20
168.6253513928317034
 10
243.3808882002020937
 20
168.5722946122700989
 10
243.8366832352994891
 20
168.5194059848107031
 10
244.292507083017
 20
168.4667663718477115
 10
244.7483686478815912
 20
168.4144566347754051
 10
245.2042768344209094
 20
168.3625576349880077
 10
245.6602405471616919
 20
168.3111502338798005
 10
246.1162893958648112
 20
168.2602912122023895
 10
246.5723919156116892
 20
168.2099142538451133
 10
247.0285351549005952
 20
168.1599077525592918
 10
247.4847118525703991
 20
168.1101812777305895
 10
247.9409240147516016
 20
168.0607808890530919
 10
248.3971811504218863
 20
168.0117987801779975
 10
248.8078370157919039
 20
167.9681456005280893
 10
249.2185438764560104
 20
167.9249681349409116
 10
249.6293083165703024
 20
167.8823424860541138
 10
250.0401369202895125
 20
167.8403447565059139
 10
250.4510362717693113
 20
167.7990510489341887
 10
250.7935064799767986
 20
167.7651957366283
 10
251.1360170488810866
 20
167.7317494975299894
 10
251.4785565690318094
 20
167.6986014168172971
 10
251.8211246675039092
 20
167.6657178664958963
 10
252.1637256034697998
 20
167.6331775066880141
 10
252.5063641390844964
 20
167.6010369652238978
 10
252.8490466250991062
 20
167.5693504507640057
 10
253.1917772868397094
 20
167.538174309674389
 10
253.5345596178075027
 20
167.5075681975268935
 10
253.8773971115045924
 20
167.4775917698929959
 10
254.220293261432289
 20
167.4483046823443999
 10
254.5632515610919882
 20
167.4197665904528094
 10
254.9064848462309101
 20
167.391942659231205
 10
255.2497676258169008
 20
167.3647320042271929
 10
255.5930911466805071
 20
167.3380422620743957
 10
255.9364631457835912
 20
167.3118671329586107
 10
256.2798815097838769
 20
167.2863043138092962
 10
256.6233490000668098
 20
167.2614154102965927
 10
256.8979814315973726
 20
167.2420401904003882
 10
257.1726495247585262
 20
167.2231643575138094
 10
257.4473540972343244
 20
167.2048257262844118
 10
257.7220959667064903
 20
167.1870621113600066
 10
257.9968759508577136
 20
167.1699113273882062
 10
258.2716916183139801
 20
167.1533445714223944
 10
258.5465388728288758
 20
167.1372987890200079
 10
258.8214155756148784
 20
167.1217604457089863
 10
259.0963195878832153
 20
167.1067160070172974
 10
259.3712487708452272
 20
167.0921519384729095
 10
259.6463135745016757
 20
167.0780947449106861
 10
259.9214086990016881
 20
167.0646196594240109
 10
260.196533840346774
 20
167.0517692787904878
 10
260.471688694535203
 20
167.03958619978809
 10
260.7468729575675752
 20
167.028113019194592
 10
260.9757484052997825
 20
167.0191541489766109
 10
261.2046438083534099
 20
167.0107115226086876
 10
261.4335556481037202
 20
167.0027326965721954
 10
261.662487091786204
 20
166.9951223530406992
 10
261.8914295575539768
 20
166.9878478832268058
 10
262.1203835067282171
 20
166.9809501744269937
 10
262.3166416359467235
 20
166.9753956570654054
 10
262.512913164503118
 20
166.9702458058505954
 10
262.7091969576123915
 20
166.9655536812911976
 10
262.9054918804893077
 20
166.9613723438963859
 10
263.1017967983473227
 20
166.9577548541749934
 10
263.2981105764014842
 20
166.9547542726359097
 10
263.4944320798657031
 20
166.9524236597881952
 10
263.6662136427304972
 20
166.95097444736939
 10
263.8379984574726791
 20
166.9499544747762911
 10
264.009787187287202
 20
166.9491792966088894
 10
264.181576875422877
 20
166.94868038072579
 10
264.3533817063121205
 20
166.9485668960170131
 10
264.5251870466673267
 20
166.9489244379232957
 10
264.6969897896091197
 20
166.9498409640347916
 10
264.8687868282593172
 20
166.9514044319417962
 10
264.983670274951578
 20
166.9528513050576919
 10
265.0985489244480959
 20
166.9546540956025069
 10
265.2134203420629888
 20
166.9568504982433979
 10
265.3282943733070169
 20
166.9594709144558919
 10
265.44315916732711
 20
166.9624842284796955
 10
265.5580143688952717
 20
166.9658365842936121
 10
265.6958680595108717
 20
166.9702497983739988
 10
265.8337083146116129
 20
166.9751076298109922
 10
265.971530502529788
 20
166.9804550169162098
 10
266.1093299915954731
 20
166.9863368980012979
 10
266.2471021501403925
 20
166.9927982113779024
  0
LWPOLYLINE
  5
67
100
AcDbEntity
  8
Geometries
 62
256
370
0
 48
1.0
  6
Continuous
100
AcDbPolyline
 90
43
 70
128
 10
203.2457762586479078
 20
171.9655847580415866
 10
203.4518164073527942
 20
171.9616725707934961
 10
203.8647033145396961
 20
171.9532877349928128
 10
204.2775755927897876
 20
171.9441927061733963
 10
204.6904320163046975
 20
171.934412316721307
 10
205.1032713592865946
 20
171.9239713990226903
 10
205.5164191842985986
 20
171.9128694553023138
 10
205.929549431692493
 20
171.9011024388034912
 10
206.3426602708750011
 20
171.8886643915381001
 10
206.7557498712513109
 20
171.8755493555173928
 10
207.1688164022270939
 20
171.8617513727527921
 10
207.5815333641272105
 20
171.8472751406862926
 10
207.9942265299696089
 20
171.8321135768237866
 10
208.406894640456386
 20
171.8162765307907875
 10
208.8195364362873931
 20
171.7997738522130931
 10
209.2321506581635049
 20
171.7826153907163018
 10
209.6447371073487886
 20
171.7648152462543862
 10
210.057296509002299
 20
171.7463828087626041
 10
210.4698275573601052
 20
171.7273209235306126
 10
210.882328946655889
 20
171.7076324358478132
 10
211.2947993711248955
 20
171.6873201910036073
 10
211.7072384065967015
 20
171.666379232509513
 10
212.119645421689313
 20
171.6448027921803998
 10
212.5320189504928123
 20
171.6225909902271951
 10
212.9443575270960878
 20
171.5997439468607979
 10
213.3566596855885962
 20
171.5762617822921072
 10
213.7691774270734868
 20
171.5521311785001046
 10
214.1816586254857953
 20
171.5273722007169965
 10
214.5941022846077999
 20
171.5019913646669067
 10
215.0065074082197896
 20
171.4759951860739022
 10
215.4188730001035879
 20
171.4493901806621068
 10
215.8369041238449881
 20
171.4217921809089944
 10
216.2548932137383986
 20
171.3935533690375905
 10
216.6728383337041066
 20
171.3646677649082903
 10
217.0907375476608934
 20
171.3351293883816027
 10
217.5085889195291031
 20
171.3049322593180932
 10
217.9263920366506966
 20
171.2740774064671996
 10
218.3441479178237898
 20
171.2425804297369893
 10
218.7618564040751039
 20
171.2104572327656058
 10
219.1795173364280913
 20
171.1777237191911922
 10
219.5971305559085067
 20
171.1443957926520909
 10
220.0146969835573998
 20
171.1104973607423858
 10
220.1175256734709933
 20
171.1020519795090991
  0
LINE
  5
68
100
AcDbEntity
  8
Geometries
 62
256
370
0
 48
1.0
  6
Continuous
100
AcDbLine
 10
202.5630169905981859
 20
171.9772089753537045
 30
0.0
 11
202.540349690726714
 21
171.9775584000703077
 31
0.0
  0
LINE
  5
69
100
AcDbEntity
  8
Geometries
 62
256
370
0
 48
1.0
  6
Continuous
100
AcDbLine
 10
187.1943561061133039
 20
161.0554422239588916
 30
0.0
 11
186.7344611142598012
 21
161.0457146966735138
 31
0.0
  0
LINE
  5
6A
100
AcDbEntity
  8
Geometries
 62
256
370
0
 48
1.0
  6
Continuous
100
AcDbLine
 10
187.6143289715178923
 20
169.1560630818792959
 30
0.0
 11
187.5822949330170104
 21
161.0644349001551916
 31
0.0
  0
ARC
  5
6B
100
AcDbEntity
  8
Geometries
 62
256
370
0
 48
1.0
  6
Continuous
100
AcDbCircle
 10
266.2928428870146149
 20
166.3777014981720868
 30
0.0
 40
0.6166682322541605
100
AcDbArc
 50
26.4199930944675891
 51
93.1688345657947679
  0
LINE
  5
6C
100
AcDbEntity
  8
Geometries
 62
256
370
0
 48
1.0
  6
Continuous
100
AcDbLine
 10
195.5555487846409051
 20
161.3507694277313931
 30
0.0
 11
195.5864173388685003
 21
169.1480024587098967
 31
0.0
  0
LWPOLYLINE
  5
6D
100
AcDbEntity
  8
Geometries
 62
256
370
0
 48
1.0
  6
Continuous
100
AcDbPolyline
 90
210
 70
128
 10
186.7344611142598012
 20
161.0457146966735138
 10
186.4442502207234895
 20
161.0401221547712112
 10
186.0648798210656878
 20
161.0331343365548946
 10
185.6855029370628927
 20
161.0265690400966037
 10
185.3061183438184116
 20
161.0204455362946021
 10
184.9267260227088912
 20
161.0148326256172027
 10
184.5473259551114893
 20
161.0097991085322917
 10
184.2437542894747082
 20
161.0062357812068115
 10
183.9401769750280948
 20
161.003125269224995
 10
183.6365949781657037
 20
161.0005049559754013
 10
183.3330092652809071
 20
160.9984122248467031
 10
183.0294208027669072
 20
160.9968844592274877
 10
182.6944413317729925
 20
160.9959119715973088
 10
182.3594597104120112
 20
160.9956676691087978
 10
182.0244776116236949
 20
160.9960804403698944
 10
181.6894967083458994
 20
160.9970791739883111
 10
181.3545186735184984
 20
160.9985927585719026
 10
181.0753726135189083
 20
161.0002415114890084
 10
180.7962283040814953
 20
161.0023016780328078
 10
180.5170874355301009
 20
161.0048123803910016
 10
180.2379516981879135
 20
161.007812740750893
 10
179.9588227823784052
 20
161.0113418813000976
 10
179.6797023784245937
 20
161.0154389242258901
 10
179.4005929844072966
 20
161.0201429962274062
 10
179.1214948862933056
 20
161.0254932979013063
 10
178.8424112220490088
 20
161.0315289872557969
 10
178.6330983610629914
 20
161.0365573240017056
 10
178.4237959619860021
 20
161.0420185319559039
 10
178.2145036072523965
 20
161.0478584408890868
 10
178.0052208792970134
 20
161.0540228805718925
 10
177.725863674041193
 20
161.0626580989255103
 10
177.4465198704982924
 20
161.071763858925209
 10
177.1671937218650044
 20
161.0814043099726121
 10
176.887889481337595
 20
161.0916436014694
 10
176.6086114021125013
 20
161.1025458828171111
 10
176.3293637373863021
 20
161.114175303417511
 10
176.1078495492953095
 20
161.1239580274327921
 10
175.8863581698917073
 20
161.1342710974998056
 10
175.6648940493683142
 20
161.1451561747715004
 10
175.4434616379159877
 20
161.1566549204013086
 10
175.2220653857274044
 20
161.1688089955422072
 10
175.0007061581636947
 20
161.181624147190405
 10
174.77938210768761
 20
161.1950491716499982
 10
174.5580925050392977
 20
161.2090403666965983
 10
174.3368366209566886
 20
161.2235540301057029
 10
174.1156137261795891
 20
161.2385464596528948
 10
173.894421950816394
 20
161.2539803372995948
 10
173.6732627078278028
 20
161.2698904137396028
 10
173.4521430483378879
 20
161.2863408933694132
 10
173.2310700234693002
 20
161.3033959805856909
 10
173.0100506843459129
 20
161.3211198797849875
 10
172.8255834277497911
 20
161.3364681939171135
 10
172.6411589859991977
 20
161.3523469615749946
 10
172.456783022589093
 20
161.3687867694268903
 10
172.2724612010146075
 20
161.3858182041410032
 10
172.0881991847699908
 20
161.4034718523855929
 10
171.9040026373506862
 20
161.4217783008288905
 10
171.7193733161277009
 20
161.4408355905958956
 10
171.5348106535195996
 20
161.4605365361616975
 10
171.3503035477706931
 20
161.4807570760656859
 10
171.1658408971235872
 20
161.5013731488473923
 10
170.9814218137503019
 20
161.5223620753197054
 10
170.7970563275418101
 20
161.5438229583432985
 10
170.6127536354302094
 20
161.5658139678128862
 10
170.4285229343475123
 20
161.5883932736228132
 10
170.2811926177490989
 20
161.6069198884997888
 10
170.1339175133207107
 20
161.6258903966960077
 10
169.9867040367398943
 20
161.6453345408177995
 10
169.839558603683713
 20
161.6652820634714942
 10
169.6924876298292872
 20
161.6857627072635069
 10
169.5452357105928058
 20
161.7068511295586859
 10
169.398069114824807
 20
161.7285413088690973
 10
169.250994893601586
 20
161.7508523503258004
 10
169.1040200979977897
 20
161.7738033590601958
 10
168.9571517790888038
 20
161.7974134402035133
 10
168.7915441202194131
 20
161.824691535803197
 10
168.6260139844052901
 20
161.8524386516997993
 10
168.4605504936459965
 20
161.8805794067966133
 10
168.336499102786803
 20
161.9019612610865124
 10
168.2125037115351063
 20
161.9236685797363862
 10
168.0885741922448062
 20
161.9457473908869076
 10
167.964720417268893
 20
161.9682437226788068
 10
167.8409482049036114
 20
161.9912043680872102
 10
167.7172704608478
 20
162.0146750528141126
 10
167.5936999044131142
 20
162.0387016325325078
 10
167.4702492549110957
 20
162.0633299629153896
 10
167.3714218495937871
 20
162.0835301821132077
 10
167.2726835828688081
 20
162.1041705651381903
 10
167.1740430601093124
 20
162.1252744821609895
 10
167.0755088866881124
 20
162.1468653033520866
 10
166.9770896679775944
 20
162.1689663988821906
 10
166.8877355461104059
 20
162.1895725339074943
 10
166.798490521733811
 20
162.2106494771230984
 10
166.7093278269614984
 20
162.2320781225199937
 10
166.6202206939053099
 20
162.2537393640890002
 10
166.5311423546773142
 20
162.2755140958209097
 10
166.4198269366426928
 20
162.3028399445576895
 10
166.3085727213311031
 20
162.3304162707688079
 10
166.197410088510992
 20
162.3583565919709883
 10
166.0863694179514027
 20
162.3867744256814092
 10
165.9975432361343906
 20
162.4099555733556883
 10
165.9088298018282046
 20
162.4335747016095013
 10
165.820249922272609
 20
162.4576895183822103
 10
165.7318244047062876
 20
162.482357731613007
 10
165.6435740563684078
 20
162.5076370492413957
 10
165.5682350655573032
 20
162.5297910268693045
 10
165.4930508195602101
 20
162.5524719486346896
 10
165.4180390887256067
 20
162.5757152484868868
 10
165.3432176434010046
 20
162.5995563603748906
 10
165.2685946899503051
 20
162.6240340439910881
 10
165.1941916334322116
 20
162.6491829233017938
 10
165.1200313926599108
 20
162.6750369638421887
 10
165.0461368864471865
 20
162.7016301311477093
 10
164.9721918846398125
 20
162.7289067426818008
 10
164.8983463180317131
 20
162.7564522004942091
 10
164.8245317230075955
 20
162.7840863851745894
 10
164.7507809929610971
 20
162.81189014309399
 10
164.6774266285862893
 20
162.8399069046930094
 10
164.6042302236241142
 20
162.8683349436849142
 10
164.5312352525128858
 20
162.8972730073481898
 10
164.476616870379388
 20
162.9193832151244976
 10
164.4221542625884922
 20
162.9418788922031922
 10
164.3678703701802135
 20
162.9648007488117969
 10
164.3137881341934872
 20
162.9881894951778065
 10
164.2599563053150007
 20
163.0120744808218092
 10
164.2063715457786088
 20
163.0365083289431141
 10
164.1530343991530003
 20
163.0615433469436084
 10
164.0999975397766946
 20
163.0872079658045948
 10
164.064835391656203
 20
163.1046795060952093
 10
164.0298275673061141
 20
163.1224598307018141
 10
163.9949847133484866
 20
163.1405594235378942
 10
163.9602890939027873
 20
163.1590059529683003
 10
163.925776272073989
 20
163.17779421167549
 10
163.8914551419304928
 20
163.1969282992695867
 10
163.857353784381587
 20
163.216390664809694
 10
163.8234416221714866
 20
163.2361827444186986
 10
163.7897180466580096
 20
163.2562928370155078
 10
163.7561527846079912
 20
163.2767285498104002
 10
163.7227845951468908
 20
163.2974860337724863
 10
163.6896335016384114
 20
163.3185863691350903
 10
163.6649286467942943
 20
163.3346080892821135
 10
163.6403308461030974
 20
163.350793612226596
 10
163.6158576977979067
 20
163.3671801984278886
 10
163.5915498103296954
 20
163.3838106835540884
 10
163.5794697752986906
 20
163.3922261039620878
 10
163.5734490237229863
 20
163.3964612955898019
 10
163.5704436643092095
 20
163.3985859991387883
 10
163.5689422639312056
 20
163.3996501574465867
 10
163.5681918867448132
 20
163.4001826919291034
 10
163.5680981048045908
 20
163.4002492801596134
 10
163.5680512150705113
 20
163.4002825760159965
 10
163.5678636647679127
 20
163.4004157715970962
 10
163.567113599132
 20
163.4009487448043103
 10
163.564115523248006
 20
163.4030837136392904
 10
163.5521591913154964
 20
163.4116740148292877
 10
163.5284317301540966
 20
163.4291105350608859
 10
163.5049737813870934
 20
163.4469194583303135
 10
163.4818123921272957
 20
163.4651041088461909
 10
163.458845323771186
 20
163.4835348783448978
 10
163.4360043439479
 20
163.502140838751103
 10
163.4133814300348035
 20
163.5210106908033083
 10
163.3910614745653902
 20
163.5402163745258122
 10
163.3691094410339986
 20
163.5598569063940033
 10
163.3476280283769029
 20
163.5799978946004956
 10
163.3370916026939028
 20
163.5902808446890049
 10
163.3318798601978017
 20
163.5954793692351075
 10
163.3315554312999041
 20
163.595805575635012
 10
163.3302596617456004
 20
163.5971123357815031
 10
163.325107418699389
 20
163.6023698764651897
 10
163.3149287663669895
 20
163.6130071621192883
 10
163.3048689974064871
 20
163.6237599221377081
 10
163.2915415078105923
 20
163.6381769991664044
 10
163.2783494361096075
 20
163.6527180570975872
 10
163.2654045318838882
 20
163.6674766608078073
 10
163.2558925168567043
 20
163.6787981513764123
 10
163.2466459168275037
 20
163.6903441638247045
 10
163.237723398728491
 20
163.7021385380087111
 10
163.2291836294913878
 20
163.7142051137842884
 10
163.2210470058751923
 20
163.7264815056331031
 10
163.2132148235963882
 20
163.7389547529413107
 10
163.2056299426641885
 20
163.7516169279851965
 10
163.1983387664818963
 20
163.7644497536321921
 10
163.1917949442834868
 20
163.7767721513154981
 10
163.1856750817680961
 20
163.7893226291961923
 10
163.1800763308897899
 20
163.8021066387568112
 10
163.1750958436026053
 20
163.8151296314802892
 10
163.1706744772097863
 20
163.8287771798335086
 10
163.166944375816712
 20
163.8426302379274944
 10
163.1638434771168988
 20
163.8567686925302098
 10
163.1613212862951912
 20
163.8710231759112901
 10
163.1594068713079935
 20
163.8844528396028863
 10
163.1578709716472133
 20
163.8979315796503897
 10
163.1566310810578955
 20
163.9114740076452961
 10
163.1556799858389866
 20
163.9250394394134105
 10
163.1550788318812977
 20
163.9385858371815061
 10
163.1549319119889105
 20
163.9453636774046004
 10
163.1549005837177901
 20
163.9487531714187014
 10
163.1548958988470872
 20
163.9504479731135973
 10
163.1548958923771124
 20
163.9508716742103047
 10
163.1548960651753077
 20
163.9510835246639999
 10
163.1548961957468862
 20
163.9511894498425875
 10
163.1548969867588141
 20
163.9516131501858069
 10
163.1549043401720098
 20
163.9533079416655994
 10
163.1549988392993953
 20
163.9600866972303095
 10
163.1554773101354954
 20
163.9736379941265909
 10
163.1562957862059875
 20
163.9871820129133084
 10
163.1576768499936918
 20
164.0036995814980116
 10
163.1593863952693084
 20
164.0201870267405866
 10
163.1613316780228899
 20
164.0366643176006107
 10
163.1634182380236098
 20
164.0531245836035907
  0
LINE
  5
6E
100
AcDbEntity
  8
Geometries
 62
256
370
0
 48
1.0
  6
Continuous
100
AcDbLine
 10
266.3250067957309284
 20
166.2111786906293105
 30
0.0
 11
266.3133397496009138
 21
166.2104783420543868
 31
0.0
  0
ARC
  5
6F
100
AcDbEntity
  8
Geometries
 62
256
370
0
 48
1.0
  6
Continuous
100
AcDbCircle
 10
266.2549946565571872
 20
166.8209741813111862
 30
0.0
 40
0.6138014663453146
100
AcDbArc
 50
276.5495929182532109
 51
344.0290374897026595
  0
LINE
  5
70
100
AcDbEntity
  8
Geometries
 62
256
370
0
 48
1.0
  6
Continuous
100
AcDbLine
 10
202.3195775969631995
 20
171.9808531658802906
 30
0.0
 11
202.4416357243453888
 21
171.9790584900507042
 31
0.0
  0
LWPOLYLINE
  5
71
100
AcDbEntity
  8
Geometries
 62
256
370
0
 48
1.0
  6
Continuous
100
AcDbPolyline
 90
79
 70
128
 10
266.3133397496009138
 20
166.2104783420543868
 10
266.1293186328169895
 20
166.1881863099928012
 10
265.9452532682623769
 20
166.1662568066250003
 10
265.7647998823795206
 20
166.1453228262136861
 10
265.584273101015981
 20
166.1250158533219974
 10
265.4036751720469169
 20
166.1053472735515868
 10
265.2230083433453274
 20
166.0863284725037943
 10
265.0422748627851206
 20
166.0679708357801871
 10
264.8162849539048125
 20
166.0458247111986054
 10
264.5902304160711083
 20
166.0243402945816911
 10
264.3641276195160117
 20
166.0033629243581004
 10
264.1379929344722086
 20
165.9827379389564896
 10
263.9116623946907794
 20
165.962440243374914
 10
263.6852838918690054
 20
165.9426861583609139
 10
263.4588431949375149
 20
165.923588680148498
 10
263.2323564797500239
 20
165.9050432741715042
 10
262.9607403097293172
 20
165.8833154300835133
 10
262.6890926982139263
 20
165.8619824812658976
 10
262.4174249706882165
 20
165.8409028076592051
 10
262.1457484526350186
 20
165.8199347892040123
 10
261.8740744695376748
 20
165.7989368058406114
 10
261.4212605886366987
 20
165.7641893791299026
 10
260.9683986013670278
 20
165.7300710127024104
 10
260.5154983656249783
 20
165.6964655577455972
 10
259.8361187571177879
 20
165.6465872219810933
 10
259.1567083676105767
 20
165.5971280199854903
 10
258.4772660991790758
 20
165.5481090469104117
 10
257.797790853898789
 20
165.4995513979075099
 10
256.4387850299638103
 20
165.4032298612654017
 10
255.0797508564631926
 20
165.3073086527915052
 10
253.7205023291544137
 20
165.211684301663098
 10
252.3612327925523005
 20
165.1163588075453106
 10
250.5491213121555063
 20
164.9894035633242027
 10
248.7370134722955868
 20
164.8623963852182897
 10
246.9249218032215936
 20
164.7351589093130997
 10
244.2068098897381958
 20
164.5439368458702916
 10
241.4887057641489889
 20
164.3526040859152033
 10
237.8645840886811982
 20
164.0972521916993117
 10
234.2404754829497904
 20
163.8417147350126868
 10
230.6163504175030994
 20
163.5864110045268092
 10
229.0631450063928014
 20
163.477118304446293
 10
227.5099334274167973
 20
163.367911204801004
 10
225.9567095771940899
 20
163.2588784670442976
 10
224.4034673523445917
 20
163.1501088526293017
 10
222.8502006494861121
 20
163.0416911230094001
 10
221.2969033652383075
 20
162.9337140396376924
 10
219.7435693962198968
 20
162.8262663639675907
 10
218.5353873639334097
 20
162.7431277880328935
 10
217.3271764395117884
 20
162.6604096466016074
 10
216.1189354109235978
 20
162.5781330309035866
 10
215.2127334639600917
 20
162.5167336097632926
 10
214.3065091250086027
 20
162.4556642791746981
 10
213.4002570785930004
 20
162.3950085554882889
 10
212.4939720092357049
 20
162.334849955054807
 10
211.5876470772603
 20
162.2751718562145129
 10
210.6812928845218096
 20
162.2159378390830113
 10
209.7749064439323945
 20
162.1572001478955087
 10
208.8684847684056081
 20
162.0990110268872968
 10
208.0368087214561115
 20
162.0462406592785953
 10
207.2050899241050956
 20
161.9941443628756019
 10
206.3733315615787092
 20
161.9426827216339859
 10
205.5415368191031007
 20
161.8918163195095019
 10
204.8760774526116109
 20
161.8515067056505927
 10
204.2105951679264138
 20
161.8115714725192902
 10
203.5450850299723982
 20
161.7721044116009068
 10
202.8795421036737139
 20
161.7331993143804993
 10
202.2139614539549939
 20
161.6949499723430961
 10
201.6592785282095974
 20
161.6636477542375019
 10
201.1045674481372032
 20
161.6328460812927119
 10
200.5498325853276071
 20
161.6024769648377912
 10
199.9950755363458939
 20
161.5724619632397889
 10
199.4402985865004041
 20
161.5428162171286033
 10
198.8854983451408032
 20
161.5136116328023093
 10
198.3305875293881115
 20
161.4849089659221875
 10
197.7756478362676944
 20
161.4567677112422075
 10
197.2206773293183062
 20
161.42924472902871
 10
196.6656661058719919
 20
161.4024208054522944
 10
196.1106216608374098
 20
161.3762880653202103
 10
195.5555487846409051
 20
161.3507694277313931
  0
LINE
  5
72
100
AcDbEntity
  8
Geometries
 62
256
370
0
 48
1.0
  6
Continuous
100
AcDbLine
 10
195.5864173388685003
 20
169.1480024587098967
 30
0.0
 11
187.6277372972589035
 21
169.1560495246461073
 31
0.0
  0
LINE
  5
73
100
AcDbEntity
  8
Geometries
 62
256
370
0
 48
1.0
  6
Continuous
100
AcDbLine
 10
187.5822949330170104
 20
161.0644349001551916
 30
0.0
 11
187.5822948028686028
 21
161.0644020295272867
 31
0.0
  0
LINE
  5
74
100
AcDbEntity
  8
Geometries
 62
256
370
0
 48
1.0
  6
Continuous
100
AcDbLine
 10
266.2471021501422115
 20
166.9927982113779876
 30
0.0
 11
266.2587544504426091
 21
166.993426832362303
 31
0.0
  0
ENDSEC
  0
SECTION
  2
OBJECTS
  0
DICTIONARY
  5
C
100
AcDbDictionary
280
0
281
1
  3
ACAD_GROUP
350
D
  3
ACAD_LAYOUT
350
1A
  3
ACAD_MLINESTYLE
350
17
  3
ACAD_PLOTSETTINGS
350
19
  3
ACAD_PLOTSTYLENAME
350
E
  3
AcDbVariableDictionary
350
75
  3
QCAD_OBJECTS
350
76
  0
DICTIONARY
  5
D
100
AcDbDictionary
280
0
281
1
  0
ACDBDICTIONARYWDFLT
  5
E
100
AcDbDictionary
281
1
  3
Normal
350
F
100
AcDbDictionaryWithDefault
340
F
  0
ACDBPLACEHOLDER
  5
F
  0
DICTIONARY
  5
17
100
AcDbDictionary
280
0
281
1
  3
Standard
350
18
  0
MLINESTYLE
  5
18
100
AcDbMlineStyle
  2
STANDARD
 70
0
  3

 62
256
 51
90.0
 52
90.0
 71
2
 49
0.5
 62
256
  6
BYLAYER
 49
-0.5
 62
256
  6
BYLAYER
  0
DICTIONARY
  5
19
100
AcDbDictionary
280
0
281
1
  0
DICTIONARY
  5
1A
100
AcDbDictionary
281
1
  3
Layout1
350
1E
  3
Layout2
350
26
  3
Model
350
22
  0
LAYOUT
  5
1E
100
AcDbPlotSettings
  1

  2
none_device
  4

  6

 40
0.0
 41
0.0
 42
0.0
 43
0.0
 44
0.0
 45
0.0
 46
0.0
 47
0.0
 48
0.0
 49
0.0
140
0.0
141
0.0
142
1.0
143
1.0
 70
688
 72
0
 73
0
 74
5
  7

 75
16
147
1.0
148
0.0
149
0.0
100
AcDbLayout
  1
Layout1
 70
1
 71
1
 10
0.0
 20
0.0
 11
420.0
 21
297.0
 12
0.0
 22
0.0
 32
0.0
 14
100000000000000000000.0
 24
100000000000000000000.0
 34
100000000000000000000.0
 15
-100000000000000000000.0
 25
-100000000000000000000.0
 35
-100000000000000000000.0
146
0.0
 13
0.0
 23
0.0
 33
0.0
 16
1.0
 26
0.0
 36
0.0
 17
0.0
 27
1.0
 37
0.0
 76
0
330
1B
  0
LAYOUT
  5
22
100
AcDbPlotSettings
  1

  2
none_device
  4

  6

 40
0.0
 41
0.0
 42
0.0
 43
0.0
 44
0.0
 45
0.0
 46
0.0
 47
0.0
 48
0.0
 49
0.0
140
0.0
141
0.0
142
1.0
143
1.0
 70
1712
 72
0
 73
0
 74
0
  7

 75
0
147
1.0
148
0.0
149
0.0
100
AcDbLayout
  1
Model
 70
1
 71
0
 10
0.0
 20
0.0
 11
12.0
 21
9.0
 12
0.0
 22
0.0
 32
0.0
 14
0.0
 24
0.0
 34
0.0
 15
0.0
 25
0.0
 35
0.0
146
0.0
 13
0.0
 23
0.0
 33
0.0
 16
1.0
 26
0.0
 36
0.0
 17
0.0
 27
1.0
 37
0.0
 76
0
330
1F
  0
LAYOUT
  5
26
100
AcDbPlotSettings
  1

  2
none_device
  4

  6

 40
0.0
 41
0.0
 42
0.0
 43
0.0
 44
0.0
 45
0.0
 46
0.0
 47
0.0
 48
0.0
 49
0.0
140
0.0
141
0.0
142
1.0
143
1.0
 70
688
 72
0
 73
0
 74
5
  7

 75
16
147
1.0
148
0.0
149
0.0
100
AcDbLayout
  1
Layout2
 70
1
 71
2
 10
0.0
 20
0.0
 11
12.0
 21
9.0
 12
0.0
 22
0.0
 32
0.0
 14
0.0
 24
0.0
 34
0.0
 15
0.0
 25
0.0
 35
0.0
146
0.0
 13
0.0
 23
0.0
 33
0.0
 16
1.0
 26
0.0
 36
0.0
 17
0.0
 27
1.0
 37
0.0
 76
0
330
23
  0
DICTIONARY
  5
75
100
AcDbDictionary
281
1
  3
DIMASSOC
350
78
  3
HIDETEXT
350
77
  0
DICTIONARYVAR
  5
77
100
DictionaryVariables
280
0
  1
2
  0
DICTIONARYVAR
  5
78
100
DictionaryVariables
280
0
  1
1
  0
DICTIONARY
  5
76
100
AcDbDictionary
281
1
  3
ColorSettings/BackgroundColor
350
79
  3
ColorSettings/ColorMode
350
7A
  3
Grid/DisplayGrid00
350
7B
  3
Grid/DisplayGrid01
350
7C
  3
Grid/DisplayGrid02
350
7D
  3
Grid/DisplayGrid03
350
7E
  3
Grid/GridSpacingX00
350
7F
  3
Grid/GridSpacingX01
350
80
  3
Grid/GridSpacingX02
350
81
  3
Grid/GridSpacingX03
350
82
  3
Grid/GridSpacingY00
350
83
  3
Grid/GridSpacingY01
350
84
  3
Grid/GridSpacingY02
350
85
  3
Grid/GridSpacingY03
350
86
  3
Grid/IsometricGrid00
350
87
  3
Grid/IsometricGrid01
350
88
  3
Grid/IsometricGrid02
350
89
  3
Grid/IsometricGrid03
350
8A
  3
Grid/IsometricProjection00
350
8B
  3
Grid/IsometricProjection01
350
8C
  3
Grid/IsometricProjection02
350
8D
  3
Grid/IsometricProjection03
350
8E
  3
Grid/MetaGridSpacingX00
350
8F
  3
Grid/MetaGridSpacingX01
350
90
  3
Grid/MetaGridSpacingX02
350
91
  3
Grid/MetaGridSpacingX03
350
92
  3
Grid/MetaGridSpacingY00
350
93
  3
Grid/MetaGridSpacingY01
350
94
  3
Grid/MetaGridSpacingY02
350
95
  3
Grid/MetaGridSpacingY03
350
96
  3
MultiPageSettings/Columns
350
97
  3
MultiPageSettings/GlueMarginsBottom
350
98
  3
MultiPageSettings/GlueMarginsLeft
350
99
  3
MultiPageSettings/GlueMarginsRight
350
9A
  3
MultiPageSettings/GlueMarginsTop
350
9B
  3
MultiPageSettings/PrintCropMarks
350
9C
  3
MultiPageSettings/Rows
350
9D
  3
PageSettings/OffsetX
350
9E
  3
PageSettings/OffsetY
350
9F
  3
PageSettings/PageOrientation
350
A0
  3
PageSettings/PaperHeight
350
A1
  3
PageSettings/PaperWidth
350
A2
  3
PageSettings/Scale
350
A3
  3
PageSettings/ShowPaperBorders
350
A4
  3
PageTagSettings/EnablePageTags
350
A5
  3
PageTagSettings/TagAlignment
350
A6
  3
PageTagSettings/TagFont
350
A7
  3
PageTagSettings/TagPosition
350
A8
  3
QCADVersion
350
A9
  3
UnitSettings/PaperUnit
350
AA
  3
ViewportCenter
350
AB
  3
ViewportHeight
350
AC
  3
ViewportWidth
350
AD
  0
XRECORD
  5
79
330
76
100
AcDbXrecord
280
1
1000
White
  0
XRECORD
  5
7A
330
76
100
AcDbXrecord
280
1
1000
FullColor
  0
XRECORD
  5
7B
330
76
100
AcDbXrecord
280
1
290
1
  0
XRECORD
  5
7C
330
76
100
AcDbXrecord
280
1
290
1
  0
XRECORD
  5
7D
330
76
100
AcDbXrecord
280
1
290
1
  0
XRECORD
  5
7E
330
76
100
AcDbXrecord
280
1
290
1
  0
XRECORD
  5
7F
330
76
100
AcDbXrecord
280
1
1000
auto
  0
XRECORD
  5
80
330
76
100
AcDbXrecord
280
1
1000
auto
  0
XRECORD
  5
81
330
76
100
AcDbXrecord
280
1
1000
auto
  0
XRECORD
  5
82
330
76
100
AcDbXrecord
280
1
1000
auto
  0
XRECORD
  5
83
330
76
100
AcDbXrecord
280
1
1000
auto
  0
XRECORD
  5
84
330
76
100
AcDbXrecord
280
1
1000
auto
  0
XRECORD
  5
85
330
76
100
AcDbXrecord
280
1
1000
auto
  0
XRECORD
  5
86
330
76
100
AcDbXrecord
280
1
1000
auto
  0
XRECORD
  5
87
330
76
100
AcDbXrecord
280
1
290
0
  0
XRECORD
  5
88
330
76
100
AcDbXrecord
280
1
290
0
  0
XRECORD
  5
89
330
76
100
AcDbXrecord
280
1
290
0
  0
XRECORD
  5
8A
330
76
100
AcDbXrecord
280
1
290
0
  0
XRECORD
  5
8B
330
76
100
AcDbXrecord
280
1
 90
65537
  0
XRECORD
  5
8C
330
76
100
AcDbXrecord
280
1
 90
65537
  0
XRECORD
  5
8D
330
76
100
AcDbXrecord
280
1
 90
65537
  0
XRECORD
  5
8E
330
76
100
AcDbXrecord
280
1
 90
65537
  0
XRECORD
  5
8F
330
76
100
AcDbXrecord
280
1
1000
auto
  0
XRECORD
  5
90
330
76
100
AcDbXrecord
280
1
1000
auto
  0
XRECORD
  5
91
330
76
100
AcDbXrecord
280
1
1000
auto
  0
XRECORD
  5
92
330
76
100
AcDbXrecord
280
1
1000
auto
  0
XRECORD
  5
93
330
76
100
AcDbXrecord
280
1
1000
auto
  0
XRECORD
  5
94
330
76
100
AcDbXrecord
280
1
1000
auto
  0
XRECORD
  5
95
330
76
100
AcDbXrecord
280
1
1000
auto
  0
XRECORD
  5
96
330
76
100
AcDbXrecord
280
1
1000
auto
  0
XRECORD
  5
97
330
76
100
AcDbXrecord
280
1
 90
1
  0
XRECORD
  5
98
330
76
100
AcDbXrecord
280
1
 40
10.0
  0
XRECORD
  5
99
330
76
100
AcDbXrecord
280
1
 40
10.0
  0
XRECORD
  5
9A
330
76
100
AcDbXrecord
280
1
 40
10.0
  0
XRECORD
  5
9B
330
76
100
AcDbXrecord
280
1
 40
10.0
  0
XRECORD
  5
9C
330
76
100
AcDbXrecord
280
1
290
0
  0
XRECORD
  5
9D
330
76
100
AcDbXrecord
280
1
 90
1
  0
XRECORD
  5
9E
330
76
100
AcDbXrecord
280
1
 40
0.0
  0
XRECORD
  5
9F
330
76
100
AcDbXrecord
280
1
 40
0.0
  0
XRECORD
  5
A0
330
76
100
AcDbXrecord
280
1
1000
Portrait
  0
XRECORD
  5
A1
330
76
100
AcDbXrecord
280
1
 40
297.0
  0
XRECORD
  5
A2
330
76
100
AcDbXrecord
280
1
 40
210.0
  0
XRECORD
  5
A3
330
76
100
AcDbXrecord
280
1
1000
1:1
  0
XRECORD
  5
A4
330
76
100
AcDbXrecord
280
1
290
1
  0
XRECORD
  5
A5
330
76
100
AcDbXrecord
280
1
290
0
  0
XRECORD
  5
A6
330
76
100
AcDbXrecord
280
1
1000
Inside
  0
XRECORD
  5
A7
330
76
100
AcDbXrecord
280
1
1000
Arial,10,-1,5,50,0,0,0,0,0
  0
XRECORD
  5
A8
330
76
100
AcDbXrecord
280
1
1000
TopLeft
  0
XRECORD
  5
A9
330
76
100
AcDbXrecord
280
1
1000
3.32.2
  0
XRECORD
  5
AA
330
76
100
AcDbXrecord
280
1
 90
4
  0
XRECORD
  5
AC
330
76
100
AcDbXrecord
280
1
 40
20.3736046156988095
  0
XRECORD
  5
AD
330
76
100
AcDbXrecord
280
1
 40
43.2015041270478548
  0
ENDSEC
  0
EOF
