999
dxflib 3.26.4.0
  0
SECTION
  2
HEADER
  9
$ACADVER
  1
AC1015
  9
$HANDSEED
  5
FFFF
  9
$ANGBASE
 50
0.0
  9
$ANGDIR
 70
0
  9
$ATTMODE
 70
1
  9
$AUNITS
 70
0
  9
$AUPREC
 70
0
  9
$CECOLOR
 62
256
  9
$CELTSCALE
 40
1.0
  9
$CHAMFERA
 40
0.0
  9
$CHAMFERB
 40
0.0
  9
$CHAMFERC
 40
0.0
  9
$CHAMFERD
 40
0.0
  9
$CMLJUST
 70
0
  9
$CMLSCALE
 40
20.0
  9
$DIMADEC
 70
2
  9
$DIMALT
 70
0
  9
$DIMALTD
 70
3
  9
$DIMALTF
 40
0.0393700787401575
  9
$DIMALTRND
 40
0.0
  9
$DIMALTTD
 70
3
  9
$DIMALTTZ
 70
0
  9
$DIMALTU
 70
2
  9
$DIMALTZ
 70
0
  9
$DIMAPOST
  1

  9
$DIMASZ
 40
2.5
  9
$DIMATFIT
 70
3
  9
$DIMAUNIT
 70
0
  9
$DIMAZIN
 70
0
  9
$DIMBLK
  1
0
  9
$DIMBLK1
  1
0
  9
$DIMBLK2
  1
0
  9
$DIMCEN
 40
2.5
  9
$DIMCLRD
 70
0
  9
$DIMCLRE
 70
0
  9
$DIMDEC
 70
2
  9
$DIMDLE
 40
0.0
  9
$DIMDLI
 40
3.75
  9
$DIMDSEP
 70
44
  9
$DIMEXE
 40
1.25
  9
$DIMEXO
 40
0.625
  9
$DIMFRAC
 70
2
  9
$DIMGAP
 40
0.7
  9
$DIMJUST
 70
0
  9
$DIMLDRBLK
  1

  9
$DIMLFAC
 40
1.0
  9
$DIMLIM
 70
0
  9
$DIMLUNIT
 70
2
  9
$DIMLWD
 70
15
  9
$DIMLWE
 70
15
  9
$DIMPOST
  1

  9
$DIMRND
 40
0.01
  9
$DIMSAH
 70
0
  9
$DIMSCALE
 40
1.0
  9
$DIMSD1
 70
0
  9
$DIMSD2
 70
0
  9
$DIMSE1
 70
0
  9
$DIMSE2
 70
0
  9
$DIMSOXD
 70
0
  9
$DIMTAD
 70
1
  9
$DIMTDEC
 70
2
  9
$DIMTFAC
 40
1.0
  9
$DIMTIH
 70
0
  9
$DIMTIX
 70
0
  9
$DIMTM
 40
0.0
  9
$DIMTOFL
 70
1
  9
$DIMTOH
 70
0
  9
$DIMTOL
 70
0
  9
$DIMTOLJ
 70
0
  9
$DIMTP
 40
0.0
  9
$DIMTSZ
 40
0.0
  9
$DIMTVP
 40
0.0
  9
$DIMTXSTY
  7
Standard
  9
$DIMTXT
 40
2.5
  9
$DIMTZIN
 70
8
  9
$DIMUPT
 70
0
  9
$DIMZIN
 70
8
  9
$DISPSILH
 70
0
  9
$DWGCODEPAGE
  3
ANSI_1252
  9
$ELEVATION
 40
0.0
  9
$EXTMAX
 10
-100000000000000000000.0
 20
-100000000000000000000.0
 30
-100000000000000000000.0
  9
$EXTMIN
 10
100000000000000000000.0
 20
100000000000000000000.0
 30
100000000000000000000.0
  9
$FILLETRAD
 40
0.0
  9
$FILLMODE
 70
1
  9
$INSBASE
 10
0.0
 20
0.0
 30
0.0
  9
$INSUNITS
 70
4
  9
$LIMCHECK
 70
0
  9
$LIMMAX
 10
420.0
 20
297.0
  9
$LIMMIN
 10
0.0
 20
0.0
  9
$LTSCALE
 40
1.0
  9
$LUNITS
 70
2
  9
$LUPREC
 70
4
  9
$MAXACTVP
 70
64
  9
$MEASUREMENT
 70
1
  9
$MIRRTEXT
 70
1
  9
$ORTHOMODE
 70
0
  9
$PDMODE
 70
0
  9
$PDSIZE
 40
0.0
  9
$PELEVATION
 40
0.0
  9
$PEXTMAX
 10
0.0
 20
0.0
 30
0.0
  9
$PEXTMIN
 10
0.0
 20
0.0
 30
0.0
  9
$PINSBASE
 10
0.0
 20
0.0
 30
0.0
  9
$PLIMCHECK
 70
0
  9
$PLIMMAX
 10
277.0
 20
202.5
  9
$PLIMMIN
 10
-20.0
 20
-7.5
  9
$PLINEGEN
 70
0
  9
$PLINEWID
 40
0.0
  9
$PROXYGRAPHICS
 70
1
  9
$PSLTSCALE
 70
1
  9
$PUCSNAME
  2

  9
$PUCSORG
 10
0.0
 20
0.0
 30
0.0
  9
$PUCSXDIR
 10
1.0
 20
0.0
 30
0.0
  9
$PUCSYDIR
 10
0.0
 20
1.0
 30
0.0
  9
$QTEXTMODE
 70
0
  9
$REGENMODE
 70
1
  9
$SHADEDGE
 70
3
  9
$SHADEDIF
 70
70
  9
$SKETCHINC
 40
1.0
  9
$SKPOLY
 70
0
  9
$SPLFRAME
 70
0
  9
$SPLINESEGS
 70
8
  9
$SPLINETYPE
 70
6
  9
$SURFTAB1
 70
6
  9
$SURFTAB2
 70
6
  9
$SURFTYPE
 70
6
  9
$SURFU
 70
6
  9
$SURFV
 70
6
  9
$TEXTSIZE
 40
2.5
  9
$TEXTSTYLE
  7
Standard
  9
$THICKNESS
 40
0.0
  9
$TILEMODE
 70
0
  9
$TRACEWID
 40
1.0
  9
$TREEDEPTH
 70
3020
  9
$UCSNAME
  2

  9
$UCSORG
 10
0.0
 20
0.0
 30
0.0
  9
$UCSXDIR
 10
1.0
 20
0.0
 30
0.0
  9
$UCSYDIR
 10
0.0
 20
1.0
 30
0.0
  9
$UNITMODE
 70
0
  9
$USERI1
 70
0
  9
$USERI2
 70
0
  9
$USERI3
 70
0
  9
$USERI4
 70
0
  9
$USERI5
 70
0
  9
$USERR1
 40
0.0
  9
$USERR2
 40
0.0
  9
$USERR3
 40
0.0
  9
$USERR4
 40
0.0
  9
$USERR5
 40
0.0
  9
$USRTIMER
 70
1
  9
$VISRETAIN
 70
1
  0
ENDSEC
  0
SECTION
  2
TABLES
  0
TABLE
  2
VPORT
  5
8
100
AcDbSymbolTable
 70
1
  0
VPORT
  5
30
100
AcDbSymbolTableRecord
100
AcDbViewportTableRecord
  2
*Active
 70
0
 10
0.0
 20
0.0
 11
1.0
 21
1.0
 12
286.3055555555554861
 22
148.5
 13
0.0
 23
0.0
 14
10.0
 24
10.0
 15
10.0
 25
10.0
 16
0.0
 26
0.0
 36
1.0
 17
0.0
 27
0.0
 37
0.0
 40
297.0
 41
1.92798353909465
 42
50.0
 43
0.0
 44
0.0
 50
0.0
 51
0.0
 71
0
 72
100
 73
1
 74
3
 75
1
 76
1
 77
0
 78
0
281
0
 65
1
110
0.0
120
0.0
130
0.0
111
1.0
121
0.0
131
0.0
112
0.0
122
1.0
132
0.0
 79
0
146
0.0
  0
ENDTAB
  0
TABLE
  2
LTYPE
  5
5
100
AcDbSymbolTable
 70
46
  0
LTYPE
  5
16
100
AcDbSymbolTableRecord
100
AcDbLinetypeTableRecord
  2
Continuous
 70
0
  3
Solid line
 72
65
 73
0
 40
0.0
  0
LTYPE
  5
31
100
AcDbSymbolTableRecord
100
AcDbLinetypeTableRecord
  2
BORDER
 70
0
  3
Border __ __ . __ __ . __ __ . __ __ . __ __ .
 72
65
 73
6
 40
44.4499999999999957
 49
12.6999999999999993
 74
0
 49
-6.3499999999999996
 74
0
 49
12.6999999999999993
 74
0
 49
-6.3499999999999996
 74
0
 49
0.0
 74
0
 49
-6.3499999999999996
 74
0
  0
LTYPE
  5
32
100
AcDbSymbolTableRecord
100
AcDbLinetypeTableRecord
  2
CENTERX2
 70
0
  3
Center (2x) ________  __  ________  __  _____
 72
65
 73
4
 40
101.6000000000000085
 49
63.5
 74
0
 49
-12.6999999999999993
 74
0
 49
12.6999999999999993
 74
0
 49
-12.6999999999999993
 74
0
  0
LTYPE
  5
33
100
AcDbSymbolTableRecord
100
AcDbLinetypeTableRecord
  2
ACAD_ISO14W100
 70
0
  3
ISO dash triple-dot __ . . . __ . . . __ . . . _
 72
65
 73
8
 40
24.0
 49
12.0
 74
0
 49
-3.0
 74
0
 49
0.0
 74
0
 49
-3.0
 74
0
 49
0.0
 74
0
 49
-3.0
 74
0
 49
0.0
 74
0
 49
-3.0
 74
0
  0
LTYPE
  5
34
100
AcDbSymbolTableRecord
100
AcDbLinetypeTableRecord
  2
DraftedLine
 70
0
  3

 72
65
 73
2
 40
3.0
 49
2.0
 74
0
 49
-1.0
 74
0
  0
LTYPE
  5
35
100
AcDbSymbolTableRecord
100
AcDbLinetypeTableRecord
  2
DASHEDX2
 70
0
  3
Dashed (2x) ____  ____  ____  ____  ____  ___
 72
65
 73
2
 40
38.0999999999999943
 49
25.3999999999999986
 74
0
 49
-12.6999999999999993
 74
0
  0
LTYPE
  5
36
100
AcDbSymbolTableRecord
100
AcDbLinetypeTableRecord
  2
PHANTOMX2
 70
0
  3
Phantom (2x) ____________    ____    ____   _
 72
65
 73
6
 40
127.0000000000000142
 49
63.5
 74
0
 49
-12.6999999999999993
 74
0
 49
12.6999999999999993
 74
0
 49
-12.6999999999999993
 74
0
 49
12.6999999999999993
 74
0
 49
-12.6999999999999993
 74
0
  0
LTYPE
  5
37
100
AcDbSymbolTableRecord
100
AcDbLinetypeTableRecord
  2
DASHED
 70
0
  3
Dashed __ __ __ __ __ __ __ __ __ __ __ __ __ _
 72
65
 73
2
 40
19.0499999999999972
 49
12.6999999999999993
 74
0
 49
-6.3499999999999996
 74
0
  0
LTYPE
  5
38
100
AcDbSymbolTableRecord
100
AcDbLinetypeTableRecord
  2
HIDDENX2
 70
0
  3
Hidden (2x) ____ ____ ____ ____ ____ ____ ____ 
 72
65
 73
2
 40
19.0499999999999972
 49
12.6999999999999993
 74
0
 49
-6.3499999999999996
 74
0
  0
LTYPE
  5
39
100
AcDbSymbolTableRecord
100
AcDbLinetypeTableRecord
  2
BORDER2
 70
0
  3
Border (.5x) __.__.__.__.__.__.__.__.__.__.__.
 72
65
 73
6
 40
22.2249999999999979
 49
6.3499999999999996
 74
0
 49
-3.1749999999999998
 74
0
 49
6.3499999999999996
 74
0
 49
-3.1749999999999998
 74
0
 49
0.0
 74
0
 49
-3.1749999999999998
 74
0
  0
LTYPE
  5
3A
100
AcDbSymbolTableRecord
100
AcDbLinetypeTableRecord
  2
ACAD_ISO04W100
 70
0
  3
ISO long-dash dot ____ . ____ . ____ . ____ . _
 72
65
 73
4
 40
30.0
 49
24.0
 74
0
 49
-3.0
 74
0
 49
0.0
 74
0
 49
-3.0
 74
0
  0
LTYPE
  5
15
100
AcDbSymbolTableRecord
100
AcDbLinetypeTableRecord
  2
ByLayer
 70
0
  3

 72
65
 73
0
 40
0.0
  0
LTYPE
  5
3B
100
AcDbSymbolTableRecord
100
AcDbLinetypeTableRecord
  2
DASHDOT
 70
0
  3
Dash dot __ . __ . __ . __ . __ . __ . __ . __
 72
65
 73
4
 40
25.3999999999999986
 49
12.6999999999999993
 74
0
 49
-6.3499999999999996
 74
0
 49
0.0
 74
0
 49
-6.3499999999999996
 74
0
  0
LTYPE
  5
3C
100
AcDbSymbolTableRecord
100
AcDbLinetypeTableRecord
  2
ACAD_ISO05W100
 70
0
  3
ISO long-dash double-dot ____ .. ____ .. ____ . 
 72
65
 73
6
 40
33.0
 49
24.0
 74
0
 49
-3.0
 74
0
 49
0.0
 74
0
 49
-3.0
 74
0
 49
0.0
 74
0
 49
-3.0
 74
0
  0
LTYPE
  5
3D
100
AcDbSymbolTableRecord
100
AcDbLinetypeTableRecord
  2
DIVIDE2
 70
0
  3
Divide (.5x) __..__..__..__..__..__..__..__.._
 72
65
 73
6
 40
15.875
 49
6.3499999999999996
 74
0
 49
-3.1749999999999998
 74
0
 49
0.0
 74
0
 49
-3.1749999999999998
 74
0
 49
0.0
 74
0
 49
-3.1749999999999998
 74
0
  0
LTYPE
  5
3E
100
AcDbSymbolTableRecord
100
AcDbLinetypeTableRecord
  2
DASHED2
 70
0
  3
Dashed (.5x) _ _ _ _ _ _ _ _ _ _ _ _ _ _ _ _ _ 
 72
65
 73
2
 40
9.5249999999999986
 49
6.3499999999999996
 74
0
 49
-3.1749999999999998
 74
0
  0
LTYPE
  5
3F
100
AcDbSymbolTableRecord
100
AcDbLinetypeTableRecord
  2
CENTER
 70
0
  3
Center ____ _ ____ _ ____ _ ____ _ ____ _ ____
 72
65
 73
4
 40
50.8000000000000043
 49
31.75
 74
0
 49
-6.3499999999999996
 74
0
 49
6.3499999999999996
 74
0
 49
-6.3499999999999996
 74
0
  0
LTYPE
  5
40
100
AcDbSymbolTableRecord
100
AcDbLinetypeTableRecord
  2
DOTX2
 70
0
  3
Dot (2x) .  .  .  .  .  .  .  .  .  .  .  .  .  .
 72
65
 73
2
 40
12.6999999999999993
 49
0.0
 74
0
 49
-12.6999999999999993
 74
0
  0
LTYPE
  5
41
100
AcDbSymbolTableRecord
100
AcDbLinetypeTableRecord
  2
DASHDOTX2
 70
0
  3
Dash dot (2x) ____  .  ____  .  ____  .  ___
 72
65
 73
4
 40
50.7999999999999972
 49
25.3999999999999986
 74
0
 49
-12.6999999999999993
 74
0
 49
0.0
 74
0
 49
-12.6999999999999993
 74
0
  0
LTYPE
  5
42
100
AcDbSymbolTableRecord
100
AcDbLinetypeTableRecord
  2
ACAD_ISO02W100
 70
0
  3
ISO dash __ __ __ __ __ __ __ __ __ __ __ __ __
 72
65
 73
2
 40
15.0
 49
12.0
 74
0
 49
-3.0
 74
0
  0
LTYPE
  5
43
100
AcDbSymbolTableRecord
100
AcDbLinetypeTableRecord
  2
HIDDEN
 70
0
  3
Hidden __ __ __ __ __ __ __ __ __ __ __ __ __ __
 72
65
 73
2
 40
9.5249999999999986
 49
6.3499999999999996
 74
0
 49
-3.1749999999999998
 74
0
  0
LTYPE
  5
44
100
AcDbSymbolTableRecord
100
AcDbLinetypeTableRecord
  2
ACAD_ISO07W100
 70
0
  3
ISO dot . . . . . . . . . . . . . . . . . . . . 
 72
65
 73
2
 40
3.0
 49
0.0
 74
0
 49
-3.0
 74
0
  0
LTYPE
  5
45
100
AcDbSymbolTableRecord
100
AcDbLinetypeTableRecord
  2
ACAD_ISO11W100
 70
0
  3
ISO double-dash dot __ __ . __ __ . __ __ . __ _
 72
65
 73
6
 40
33.0
 49
12.0
 74
0
 49
-3.0
 74
0
 49
12.0
 74
0
 49
-3.0
 74
0
 49
0.0
 74
0
 49
-3.0
 74
0
  0
LTYPE
  5
46
100
AcDbSymbolTableRecord
100
AcDbLinetypeTableRecord
  2
ACAD_ISO15W100
 70
0
  3
ISO double-dash triple-dot __ __ . . . __ __ . .
 72
65
 73
10
 40
39.0
 49
12.0
 74
0
 49
-3.0
 74
0
 49
12.0
 74
0
 49
-3.0
 74
0
 49
0.0
 74
0
 49
-3.0
 74
0
 49
0.0
 74
0
 49
-3.0
 74
0
 49
0.0
 74
0
 49
-3.0
 74
0
  0
LTYPE
  5
47
100
AcDbSymbolTableRecord
100
AcDbLinetypeTableRecord
  2
ACAD_ISO06W100
 70
0
  3
ISO long-dash triple-dot ____ ... ____ ... ____
 72
65
 73
8
 40
36.0
 49
24.0
 74
0
 49
-3.0
 74
0
 49
0.0
 74
0
 49
-3.0
 74
0
 49
0.0
 74
0
 49
-3.0
 74
0
 49
0.0
 74
0
 49
-3.0
 74
0
  0
LTYPE
  5
48
100
AcDbSymbolTableRecord
100
AcDbLinetypeTableRecord
  2
SectionLineANSI
 70
0
  3

 72
65
 73
7
 40
11.9944444444445182
 49
4.23333333333336
 74
0
 49
-1.05833333333334
 74
0
 49
0.17638888888889
 74
0
 49
-1.05833333333334
 74
0
 49
0.17638888888889
 74
0
 49
-1.05833333333334
 74
0
 49
4.23333333333336
 74
0
  0
LTYPE
  5
49
100
AcDbSymbolTableRecord
100
AcDbLinetypeTableRecord
  2
DASHDOT2
 70
0
  3
Dash dot (.5x) _._._._._._._._._._._._._._._.
 72
65
 73
4
 40
12.6999999999999993
 49
6.3499999999999996
 74
0
 49
-3.1749999999999998
 74
0
 49
0.0
 74
0
 49
-3.1749999999999998
 74
0
  0
LTYPE
  5
4A
100
AcDbSymbolTableRecord
100
AcDbLinetypeTableRecord
  2
PHANTOM
 70
0
  3
Phantom ______  __  __  ______  __  __  ______ 
 72
65
 73
6
 40
63.5000000000000071
 49
31.75
 74
0
 49
-6.3499999999999996
 74
0
 49
6.3499999999999996
 74
0
 49
-6.3499999999999996
 74
0
 49
6.3499999999999996
 74
0
 49
-6.3499999999999996
 74
0
  0
LTYPE
  5
4B
100
AcDbSymbolTableRecord
100
AcDbLinetypeTableRecord
  2
DOT2
 70
0
  3
Dot (.5x) ........................................
 72
65
 73
2
 40
3.1749999999999998
 49
0.0
 74
0
 49
-3.1749999999999998
 74
0
  0
LTYPE
  5
4C
100
AcDbSymbolTableRecord
100
AcDbLinetypeTableRecord
  2
DetailCircleISO
 70
0
  3

 72
65
 73
5
 40
13.7583333333334217
 49
4.23333333333336
 74
0
 49
-2.11666666666668
 74
0
 49
1.05833333333334
 74
0
 49
-2.11666666666668
 74
0
 49
4.23333333333336
 74
0
  0
LTYPE
  5
14
100
AcDbSymbolTableRecord
100
AcDbLinetypeTableRecord
  2
ByBlock
 70
0
  3

 72
65
 73
0
 40
0.0
  0
LTYPE
  5
4D
100
AcDbSymbolTableRecord
100
AcDbLinetypeTableRecord
  2
ACAD_ISO12W100
 70
0
  3
ISO dash double-dot __ . . __ . . __ . . __ . . 
 72
65
 73
6
 40
21.0
 49
12.0
 74
0
 49
-3.0
 74
0
 49
0.0
 74
0
 49
-3.0
 74
0
 49
0.0
 74
0
 49
-3.0
 74
0
  0
LTYPE
  5
4E
100
AcDbSymbolTableRecord
100
AcDbLinetypeTableRecord
  2
DOT
 70
0
  3
Dot . . . . . . . . . . . . . . . . . . . . . . . .
 72
65
 73
2
 40
6.3499999999999996
 49
0.0
 74
0
 49
-6.3499999999999996
 74
0
  0
LTYPE
  5
4F
100
AcDbSymbolTableRecord
100
AcDbLinetypeTableRecord
  2
PHANTOM2
 70
0
  3
Phantom (.5x) ___ _ _ ___ _ _ ___ _ _ ___ _ _
 72
65
 73
6
 40
31.7500000000000036
 49
15.875
 74
0
 49
-3.1749999999999998
 74
0
 49
3.1749999999999998
 74
0
 49
-3.1749999999999998
 74
0
 49
3.1749999999999998
 74
0
 49
-3.1749999999999998
 74
0
  0
LTYPE
  5
50
100
AcDbSymbolTableRecord
100
AcDbLinetypeTableRecord
  2
DIVIDE
 70
0
  3
Divide ____ . . ____ . . ____ . . ____ . . ____
 72
65
 73
6
 40
31.75
 49
12.6999999999999993
 74
0
 49
-6.3499999999999996
 74
0
 49
0.0
 74
0
 49
-6.3499999999999996
 74
0
 49
0.0
 74
0
 49
-6.3499999999999996
 74
0
  0
LTYPE
  5
51
100
AcDbSymbolTableRecord
100
AcDbLinetypeTableRecord
  2
ACAD_ISO13W100
 70
0
  3
ISO double-dash double-dot __ __ . . __ __ . . _
 72
65
 73
8
 40
36.0
 49
12.0
 74
0
 49
-3.0
 74
0
 49
12.0
 74
0
 49
-3.0
 74
0
 49
0.0
 74
0
 49
-3.0
 74
0
 49
0.0
 74
0
 49
-3.0
 74
0
  0
LTYPE
  5
52
100
AcDbSymbolTableRecord
100
AcDbLinetypeTableRecord
  2
CenterLine
 70
0
  3

 72
65
 73
4
 40
8.0
 49
5.0
 74
0
 49
-1.0
 74
0
 49
1.0
 74
0
 49
-1.0
 74
0
  0
LTYPE
  5
53
100
AcDbSymbolTableRecord
100
AcDbLinetypeTableRecord
  2
BORDERX2
 70
0
  3
Border (2x) ____  ____  .  ____  ____  .  ___
 72
65
 73
6
 40
88.8999999999999915
 49
25.3999999999999986
 74
0
 49
-12.6999999999999993
 74
0
 49
25.3999999999999986
 74
0
 49
-12.6999999999999993
 74
0
 49
0.0
 74
0
 49
-12.6999999999999993
 74
0
  0
LTYPE
  5
54
100
AcDbSymbolTableRecord
100
AcDbLinetypeTableRecord
  2
ACAD_ISO10W100
 70
0
  3
ISO dash dot __ . __ . __ . __ . __ . __ . __ . 
 72
65
 73
4
 40
18.0
 49
12.0
 74
0
 49
-3.0
 74
0
 49
0.0
 74
0
 49
-3.0
 74
0
  0
LTYPE
  5
55
100
AcDbSymbolTableRecord
100
AcDbLinetypeTableRecord
  2
CENTER2
 70
0
  3
Center (.5x) ___ _ ___ _ ___ _ ___ _ ___ _ ___
 72
65
 73
4
 40
28.5750000000000028
 49
19.0500000000000007
 74
0
 49
-3.1749999999999998
 74
0
 49
3.1749999999999998
 74
0
 49
-3.1749999999999998
 74
0
  0
LTYPE
  5
56
100
AcDbSymbolTableRecord
100
AcDbLinetypeTableRecord
  2
ACAD_ISO09W100
 70
0
  3
ISO long-dash double-short-dash ____ __ __ ____
 72
65
 73
6
 40
45.0
 49
24.0
 74
0
 49
-3.0
 74
0
 49
6.0
 74
0
 49
-3.0
 74
0
 49
6.0
 74
0
 49
-3.0
 74
0
  0
LTYPE
  5
57
100
AcDbSymbolTableRecord
100
AcDbLinetypeTableRecord
  2
SectionLineISO
 70
0
  3

 72
65
 73
5
 40
13.7583333333334217
 49
4.23333333333336
 74
0
 49
-2.11666666666668
 74
0
 49
1.05833333333334
 74
0
 49
-2.11666666666668
 74
0
 49
4.23333333333336
 74
0
  0
LTYPE
  5
58
100
AcDbSymbolTableRecord
100
AcDbLinetypeTableRecord
  2
DIVIDEX2
 70
0
  3
Divide (2x) ________  .  .  ________  .  .  _
 72
65
 73
6
 40
63.5
 49
25.3999999999999986
 74
0
 49
-12.6999999999999993
 74
0
 49
0.0
 74
0
 49
-12.6999999999999993
 74
0
 49
0.0
 74
0
 49
-12.6999999999999993
 74
0
  0
LTYPE
  5
59
100
AcDbSymbolTableRecord
100
AcDbLinetypeTableRecord
  2
ACAD_ISO08W100
 70
0
  3
ISO long-dash short-dash ____ __ ____ __ ____ _
 72
65
 73
4
 40
36.0
 49
24.0
 74
0
 49
-3.0
 74
0
 49
6.0
 74
0
 49
-3.0
 74
0
  0
LTYPE
  5
5A
100
AcDbSymbolTableRecord
100
AcDbLinetypeTableRecord
  2
HIDDEN2
 70
0
  3
Hidden (.5x) _ _ _ _ _ _ _ _ _ _ _ _ _ _ _ _ _ 
 72
65
 73
2
 40
4.7624999999999993
 49
3.1749999999999998
 74
0
 49
-1.5874999999999999
 74
0
  0
LTYPE
  5
5B
100
AcDbSymbolTableRecord
100
AcDbLinetypeTableRecord
  2
ACAD_ISO03W100
 70
0
  3
ISO dash space __    __    __    __    __    __
 72
65
 73
2
 40
30.0
 49
12.0
 74
0
 49
-18.0
 74
0
  0
ENDTAB
  0
TABLE
  2
LAYER
  5
2
100
AcDbSymbolTable
 70
4
  0
LAYER
  5
5C
100
AcDbSymbolTableRecord
100
AcDbLayerTableRecord
  2
Geometries
 70
0
 62
7
420
16777215
  6
Continuous
370
-3
390
F
  0
LAYER
  5
10
100
AcDbSymbolTableRecord
100
AcDbLayerTableRecord
  2
0
 70
0
 62
7
420
16777215
  6
Continuous
370
-3
390
F
  0
LAYER
  5
5D
100
AcDbSymbolTableRecord
100
AcDbLayerTableRecord
  2
Annotations
 70
0
 62
7
420
16777215
  6
Continuous
370
-3
390
F
  0
LAYER
  5
5E
100
AcDbSymbolTableRecord
100
AcDbLayerTableRecord
  2
Border
 70
0
 62
7
420
16777215
  6
Continuous
370
-3
390
F
  0
ENDTAB
  0
TABLE
  2
STYLE
  5
3
100
AcDbSymbolTable
 70
1
  0
STYLE
  5
5F
100
AcDbSymbolTableRecord
100
AcDbTextStyleTableRecord
  2
Standard
 70
0
 40
0.0
 41
1.0
 50
0.0
 71
0
 42
2.5
  3

  4

1001
ACAD
1000
txt
1071
0
  0
ENDTAB
  0
TABLE
  2
VIEW
  5
6
100
AcDbSymbolTable
 70
0
  0
ENDTAB
  0
TABLE
  2
UCS
  5
7
100
AcDbSymbolTable
 70
0
  0
ENDTAB
  0
TABLE
  2
APPID
  5
9
100
AcDbSymbolTable
 70
1
  0
APPID
  5
12
100
AcDbSymbolTableRecord
100
AcDbRegAppTableRecord
  2
ACAD
 70
0
  0
APPID
  5
60
100
AcDbSymbolTableRecord
100
AcDbRegAppTableRecord
  2
QCAD
 70
0
  0
ENDTAB
  0
TABLE
  2
DIMSTYLE
  5
A
100
AcDbSymbolTable
 70
1
100
AcDbDimStyleTable
 71
0
  0
DIMSTYLE
105
27
100
AcDbSymbolTableRecord
100
AcDbDimStyleTableRecord
  2
Standard
 41
2.5
 42
0.625
 43
3.75
 44
1.25
 70
0
 73
0
 74
0
 77
1
 78
8
140
2.5
141
2.5
143
0.03937007874016
147
0.7
171
3
172
1
271
2
272
2
274
3
278
44
283
0
284
8
340
5F
  0
ENDTAB
  0
TABLE
  2
BLOCK_RECORD
  5
1
100
AcDbSymbolTable
 70
1
  0
BLOCK_RECORD
  5
1F
100
AcDbSymbolTableRecord
100
AcDbBlockTableRecord
  2
*Model_Space
340
22
  0
BLOCK_RECORD
  5
1B
100
AcDbSymbolTableRecord
100
AcDbBlockTableRecord
  2
*Paper_Space
340
1E
  0
BLOCK_RECORD
  5
23
100
AcDbSymbolTableRecord
100
AcDbBlockTableRecord
  2
*Paper_Space0
340
26
  0
ENDTAB
  0
ENDSEC
  0
SECTION
  2
BLOCKS
  0
BLOCK
  5
20
100
AcDbEntity
  8
0
100
AcDbBlockBegin
  2
*Model_Space
 70
0
 10
0.0
 20
0.0
 30
0.0
  3
*Model_Space
  1

  0
ENDBLK
  5
21
100
AcDbEntity
  8
0
100
AcDbBlockEnd
  0
BLOCK
  5
1C
100
AcDbEntity
 67
1
  8
0
100
AcDbBlockBegin
  2
*Paper_Space
 70
0
 10
0.0
 20
0.0
 30
0.0
  3
*Paper_Space
  1

  0
ENDBLK
  5
1D
100
AcDbEntity
 67
1
  8
0
100
AcDbBlockEnd
  0
BLOCK
  5
24
100
AcDbEntity
  8
0
100
AcDbBlockBegin
  2
*Paper_Space0
 70
0
 10
0.0
 20
0.0
 30
0.0
  3
*Paper_Space0
  1

  0
ENDBLK
  5
25
100
AcDbEntity
  8
0
100
AcDbBlockEnd
  0
ENDSEC
  0
SECTION
  2
ENTITIES
  0
LINE
  5
61
100
AcDbEntity
  8
Geometries
 62
256
370
0
 48
1.0
  6
Continuous
100
AcDbLine
 10
118.2394789515593914
 20
161.7315962057190006
 30
0.0
 11
118.2392032986562072
 21
161.6619677447303047
 31
0.0
  0
LINE
  5
62
100
AcDbEntity
  8
Geometries
 62
256
370
0
 48
1.0
  6
Continuous
100
AcDbLine
 10
114.4516751010096982
 20
161.5994462856633049
 30
0.0
 11
114.2216727020604878
 21
161.597605269606305
 31
0.0
  0
LINE
  5
63
100
AcDbEntity
  8
Geometries
 62
256
370
0
 48
1.0
  6
Continuous
100
AcDbLine
 10
126.2124571548602887
 20
161.9483034229619989
 30
0.0
 11
126.2433266033839061
 21
169.7457623546173977
 31
0.0
  0
LINE
  5
64
100
AcDbEntity
  8
Geometries
 62
256
370
0
 48
1.0
  6
Continuous
100
AcDbLine
 10
118.2712382360334971
 20
169.7538229777867969
 30
0.0
 11
118.2699445342825868
 21
169.4270407787541899
 31
0.0
  0
LINE
  5
65
100
AcDbEntity
  8
Geometries
 62
256
370
0
 48
1.0
  6
Continuous
100
AcDbLine
 10
118.2699445342825868
 20
169.4270407787541899
 30
0.0
 11
118.2394789515593914
 21
161.7315962057190006
 31
0.0
  0
LINE
  5
66
100
AcDbEntity
  8
Geometries
 62
256
370
0
 48
1.0
  6
Continuous
100
AcDbLine
 10
126.2433266033839061
 20
169.7457623546173977
 30
0.0
 11
118.2712382360334971
 21
169.7538229777867969
 31
0.0
  0
ARC
  5
67
100
AcDbEntity
  8
Geometries
 62
256
370
0
 48
1.0
  6
Continuous
100
AcDbCircle
 10
196.8983625004836426
 20
167.418352449301068
 30
0.0
 40
0.6139698344805894
100
AcDbArc
 50
276.5600867203477264
 51
344.0185436876036533
  0
ARC
  5
68
100
AcDbEntity
  8
Geometries
 62
256
370
0
 48
1.0
  6
Continuous
100
AcDbCircle
 10
196.9365836541589658
 20
166.9753410451639297
 30
0.0
 40
0.6162665905914056
100
AcDbArc
 50
26.3953912867685787
 51
93.1934363734962687
  0
LWPOLYLINE
  5
69
100
AcDbEntity
  8
Geometries
 62
256
370
0
 48
1.0
  6
Continuous
100
AcDbPolyline
 90
9
 70
128
 10
118.2392032890095095
 20
161.6619677447685035
 10
117.677130531157303
 20
161.6492164219168899
 10
117.1150336070072058
 20
161.6379360522543891
 10
116.5528995816013094
 20
161.627758928306605
 10
115.9907233104598845
 20
161.6184811910663939
 10
115.4285139657070829
 20
161.6103173021973873
 10
114.986760992261992
 20
161.6048302819162075
 10
114.5449979958214044
 20
161.6002780796102627
 10
114.4516751010096982
 20
161.5994462856633049
  0
LWPOLYLINE
  5
6A
100
AcDbEntity
  8
Geometries
 62
256
370
0
 48
1.0
  6
Continuous
100
AcDbPolyline
 90
3
 70
128
 10
114.2216727020604878
 20
161.597605269606305
 10
114.1032303099808018
 20
161.596780567443119
 10
113.9598629173507049
 20
161.5958968396641922
  0
LWPOLYLINE
  5
6B
100
AcDbEntity
  8
Geometries
 62
256
370
0
 48
1.0
  6
Continuous
100
AcDbPolyline
 90
229
 70
128
 10
113.9598629173507049
 20
161.5958968396641922
 10
113.6614638628516047
 20
161.5944663133135748
 10
113.2196994237675938
 20
161.5933884610300026
 10
112.831796801864499
 20
161.5934981635699614
 10
112.7362178933661028
 20
161.5936806749608081
 10
112.6555898524235886
 20
161.5938733291687868
 10
112.5895024355743885
 20
161.5940488534074859
 10
112.3212825563331876
 20
161.5949351148713049
 10
111.7769764205868057
 20
161.5977077326220979
 10
111.2326533932597954
 20
161.6020266415578135
 10
111.1255908001261901
 20
161.6030831117418813
 10
111.1150757506727871
 20
161.6031907870233226
 10
111.1045607067507888
 20
161.6032991710092972
 10
111.0963821760946928
 20
161.6033839627095858
 10
111.0911246585376091
 20
161.6034386980666113
 10
111.085867142470903
 20
161.6034936117908956
 10
111.0806096279171982
 20
161.6035487041439183
 10
111.0753521149009089
 20
161.6036039753871023
 10
111.0700946034444883
 20
161.603659425781899
 10
110.9949874812340056
 20
161.6044712896828912
 10
110.8608686392157097
 20
161.6060145094344875
 10
110.6213750388816948
 20
161.6090803309948853
 10
110.1937278713041906
 20
161.6156123219649885
 10
109.8466378475035015
 20
161.6219927385901656
 10
109.4995785741515988
 20
161.629420615631858
 10
109.1525623219212946
 20
161.6380186118232132
 10
108.8055791642208874
 20
161.6477191577465362
 10
108.4585953344617906
 20
161.6582470853851419
 10
108.0905690011103104
 20
161.6701949871286956
 10
107.7225476757174079
 20
161.6830787325403094
 10
107.3545519475383969
 20
161.6970466389731769
 10
106.9866024058291032
 20
161.7122470237806908
 10
106.6187196398458923
 20
161.7288282043161871
 10
106.2509242388432824
 20
161.7469384979327742
 10
105.9042527156296103
 20
161.7656043429871602
 10
105.5576909893974857
 20
161.7858755572615621
 10
105.2112099464451944
 20
161.8075891024487305
 10
104.8647800280651836
 20
161.8305790535254971
 10
104.5183722628063094
 20
161.8546824163117037
 10
104.1950969991899001
 20
161.8782628571526345
 10
103.8719048316959004
 20
161.903113130541783
 10
103.5488292388907041
 20
161.9293967255250948
 10
103.3356794683294027
 20
161.9476084810286807
 10
103.1226046859206917
 20
161.9665628096937837
 10
103.017631957495496
 20
161.9761910062884738
 10
102.9714507635372058
 20
161.9804896085485666
 10
102.9511323944136052
 20
161.982393222507568
 10
102.9471413847178951
 20
161.9827680303797877
 10
102.9431504075236887
 20
161.9831431291538593
 10
102.939159462893798
 20
161.98351851913921
 10
102.9367045686157098
 20
161.983749573877617
 10
102.8630880666154042
 20
161.9907305228545056
 10
102.636822314683485
 20
162.0128363836598737
 10
102.410681655803586
 20
162.0359745878713511
 10
102.1846613126454884
 20
162.0601351324329187
 10
101.9395347665066822
 20
162.0871148698267916
 10
101.6944230071080995
 20
162.1147776076316234
 10
101.4493618974484832
 20
162.1432536857425077
 10
101.2043884598292038
 20
162.172678261294692
 10
100.9595397165524844
 20
162.2031864914235086
 10
100.7148526899185015
 20
162.2349135332642902
 10
100.4703644022287961
 20
162.2679945439523408
 10
100.226111875785989
 20
162.3025646806228792
 10
100.007014454576705
 20
162.334987459501491
 10
99.7881637931886871
 20
162.3688178085176332
 10
99.569573630563184
 20
162.4041138341387125
 10
99.3511169793291913
 20
162.4404902949650307
 10
99.132646305048695
 20
162.4774799439281026
 10
98.9142473064733849
 20
162.5153296170042552
 10
98.6960097365420097
 20
162.5542988523998531
 10
98.5250798431245869
 20
162.5857935980435514
 10
98.3543428976919074
 20
162.6182467054870813
 10
98.1838400887658906
 20
162.6517769244079261
 10
98.0136126048670917
 20
162.6865030044834839
 10
97.8437016345177994
 20
162.72254369539138
 10
97.7266827002125069
 20
162.7482373180884849
 10
97.720251867377101
 20
162.7496710365463741
 10
97.7138215927527938
 20
162.7511069433082014
 10
97.7073918785895046
 20
162.7525450448623872
 10
97.7009627271378065
 20
162.7539853476966698
 10
97.6945341406479884
 20
162.7554278582991856
 10
97.6881061213709074
 20
162.7568725831582412
 10
97.6829005682975833
 20
162.7580442745702385
 10
97.6796870032638083
 20
162.7587683703702339
 10
97.6594907397322061
 20
162.7633326236845903
 10
97.5775848693978958
 20
162.7820865772750096
 10
97.4315789329887991
 20
162.8165409257618705
 10
97.3276775349525849
 20
162.8417723818906211
 10
97.3020735502568925
 20
162.8480227859275544
 10
97.2987201676066036
 20
162.8488413527942669
 10
97.2953666512185009
 20
162.8496598823646195
 10
97.2920129940544882
 20
162.8504783585882194
 10
97.2886591890774923
 20
162.8512967654146735
 10
97.2840730999354832
 20
162.8524157252178384
 10
97.2773648420642871
 20
162.8540525835303185
 10
97.2054721191917963
 20
162.8716138447854576
 10
97.0595263174635079
 20
162.9074755714518687
 10
96.9135974565354843
 20
162.9438440900481453
 10
96.902160761196285
 20
162.9467239936141141
 10
96.8907249420379912
 20
162.949608639041287
 10
96.8842290267618864
 20
162.9512494718536004
 10
96.8785117366122961
 20
162.9526950081084919
 10
96.8727946945269878
 20
162.9541417909770189
 10
96.8670779075227983
 20
162.9555898352429324
 10
96.8613613826150868
 20
162.9570391556903246
 10
96.8556451268200078
 20
162.9584897671030035
 10
96.8197209819522016
 20
162.9676383914184896
 10
96.7556033278000029
 20
162.9841150624348529
 10
96.6412390073359973
 20
163.0140416065996192
 10
96.5051485683075896
 20
163.0507161264835361
 10
96.4976744422101831
 20
163.0527680822776517
 10
96.4915672658950996
 20
163.0544478712239993
 10
96.4878311764981902
 20
163.0554768810960127
 10
96.4840954019267087
 20
163.0565068671169513
 10
96.4803599441739834
 20
163.057537833485469
 10
96.4766248052326034
 20
163.058569784399964
 10
96.4728899870945042
 20
163.0596027240590047
 10
96.4691554917525877
 20
163.0606366566611314
 10
96.4456890384099097
 20
163.0671586634738901
 10
96.3505937877654048
 20
163.0940538620446318
 10
96.2974486600043917
 20
163.1094320984995818
 10
96.2945601743240047
 20
163.1102754673104016
 10
96.2901992687924064
 20
163.1115502540500017
 10
96.2858389421562038
 20
163.1128266911937885
 10
96.2814791976337006
 20
163.1141047855236934
 10
96.2771200384436838
 20
163.1153845438216194
 10
96.2727614678044006
 20
163.1166659728696118
 10
96.2522219449475926
 20
163.1227297039505117
 10
96.2155779956413824
 20
163.1336527555724558
 10
96.1413594592162895
 20
163.1562070949358372
 10
96.0673419918717002
 20
163.1793107702607415
 10
95.9675586673596968
 20
163.2115001208304363
 10
95.8682124069806036
 20
163.244840389978549
 10
95.7693429339070974
 20
163.2794152805068393
 10
95.6709560228910902
 20
163.3152535549403694
 10
95.5727171812104928
 20
163.351818088695353
 10
95.4743606478934907
 20
163.3886561116406426
 10
95.3642098508645972
 20
163.4304496885142441
 10
95.2542993231760988
 20
163.47315065919517
 10
95.1448418215194067
 20
163.5170699233144376
 10
95.0729513774165866
 20
163.5468750277038055
 10
95.0014121149652908
 20
163.5774356309942448
 10
94.9935668621417051
 20
163.580847258510488
 10
94.9857266801460014
 20
163.5842692280582469
 10
94.9778916503910011
 20
163.5877016586056243
 10
94.9700618542900088
 20
163.59114466912078
 10
94.9622373732551068
 20
163.5945983785715327
 10
94.9544182886997987
 20
163.5980629059261275
 10
94.9486625161117104
 20
163.6006217467534327
 10
94.944757058908209
 20
163.6023621592750317
 10
94.9202408157717912
 20
163.613365945229873
 10
94.8452356697463017
 20
163.6479228399113026
 10
94.7708487559631862
 20
163.6836569278981131
 10
94.6971535297176956
 20
163.7206755488186616
 10
94.6533943327478084
 20
163.7434974848022762
 10
94.6099251492565827
 20
163.7668413447200351
 10
94.5886150278055879
 20
163.7785442161024037
 10
94.5852731692045836
 20
163.7803954514648979
 10
94.5798640390970036
 20
163.7834011075768501
 10
94.5731915968586918
 20
163.7871242946351913
 10
94.5665262385832079
 20
163.7908606437427181
 10
94.5598679460748883
 20
163.7946100781725818
 10
94.5007291510974028
 20
163.8286547760776273
 10
94.4262537233954049
 20
163.8733980731083193
 10
94.4179485620609853
 20
163.8785146676428894
 10
94.409654228204289
 20
163.8836497339269727
 10
94.4045821042315083
 20
163.8868030609671393
 10
94.4004440349272045
 20
163.8893852815645289
 10
94.3963099055958992
 20
163.8919736789378021
 10
94.3921796019880901
 20
163.8945681365801761
 10
94.3880530098531949
 20
163.8971685379848964
 10
94.3367371711520093
 20
163.930127547629894
 10
94.3042891469303868
 20
163.9514876723268912
 10
94.2720794805345861
 20
163.9732178705377521
 10
94.2440002026608852
 20
163.9927092275829636
 10
94.2396139884635033
 20
163.9958069074401124
 10
94.2361142179258877
 20
163.9982896083811283
 10
94.2339271146528858
 20
163.9998462019845817
 10
94.231742002644296
 20
164.0014053471701061
 10
94.2295589075015982
 20
164.0029670674090596
 10
94.1857358966404092
 20
164.0352517935054948
 10
94.168527536470009
 20
164.0484800614239305
 10
94.1610126039032878
 20
164.054367609963947
 10
94.1600311708641868
 20
164.0551417246680046
 10
94.1590503634039067
 20
164.055916570997681
 10
94.1580701841247958
 20
164.0566921513379839
 10
94.1570906356288901
 20
164.0574684680744326
 10
94.1561117205178846
 20
164.0582455235924328
 10
94.1550771669191988
 20
164.0590680935815442
 10
94.1075719088680955
 20
164.0973639507871837
 10
94.0796244790803087
 20
164.1206807343739911
 10
94.0521431869337903
 20
164.1445361801200136
 10
94.0253154457254823
 20
164.1690579604381526
 10
94.0008378950786039
 20
164.1928488495869658
 10
93.9993321985244847
 20
164.1943661260242209
 10
93.9979881249093978
 20
164.1957278260103692
 10
93.9966476961228068
 20
164.1970925182974383
 10
93.9953107456051953
 20
164.1984601178344008
 10
93.9939771067969048
 20
164.1998305395709679
 10
93.9926466131385041
 20
164.2012036984561973
 10
93.9913190980713011
 20
164.2025795094393743
 10
93.9749085533372863
 20
164.2199662327615215
 10
93.9459460834331992
 20
164.2516185156068502
 10
93.930225025595206
 20
164.2697109385069609
 10
93.915156092721503
 20
164.2882712756897092
 10
93.9010082088692855
 20
164.3074218354582285
 10
93.8878324277928868
 20
164.3272537252824179
 10
93.8753518520680075
 20
164.3477123877036092
 10
93.8660162346521929
 20
164.3641717181794775
 10
93.8573689918223977
 20
164.3809564995774792
 10
93.8496303477051015
 20
164.3980515914013267
 10
93.8430419635479893
 20
164.4154553087275019
 10
93.8376505201160001
 20
164.433225222349904
 10
93.8324537525961944
 20
164.4560421223660569
 10
93.8287122078698985
 20
164.4793336764943774
 10
93.8261404358262041
 20
164.5027963652256915
 10
93.8244642726147902
 20
164.5261416097656593
 10
93.8239897303708972
 20
164.5389941285118596
 10
93.8239599333377896
 20
164.5404370022382636
 10
93.8239351655313101
 20
164.5418800680531888
 10
93.8239155074117832
 20
164.5433233652339311
 10
93.8239010394393915
 20
164.5447669330580709
 10
93.823891842074886
 20
164.54621081080262
 10
93.8238879957785912
 20
164.5476550377448746
 10
93.8238916186873837
 20
164.5496928293952408
 10
93.8243259369469911
 20
164.5677768826889746
 10
93.8253916844680873
 20
164.5858893165135441
 10
93.8284645135881874
 20
164.6182263324414521
 10
93.8324164590736984
 20
164.6504353421380529
  0
LWPOLYLINE
  5
6C
100
AcDbEntity
  8
Geometries
 62
256
370
0
 48
1.0
  6
Continuous
100
AcDbPolyline
 90
138
 70
128
 10
196.9685055586168687
 20
166.8084025259074963
 10
196.7037432214143564
 20
166.7764316024835693
 10
196.4388728635827306
 20
166.7453808923230554
 10
196.1738573480214995
 20
166.7156284888282016
 10
195.9086755305966392
 20
166.6873367765807075
 10
195.849154322150639
 20
166.6812046829228962
 10
195.7769859600629729
 20
166.6738619736370595
 10
195.6480885169416979
 20
166.6609753175714843
 10
195.4178454727078815
 20
166.6385938690287674
 10
195.1875346825900692
 20
166.6168663929850027
 10
195.0861827431003803
 20
166.6074668970346977
 10
195.074806071472949
 20
166.6064168929591176
 10
195.0634307310340319
 20
166.6053679569884594
 10
195.0577494867956432
 20
166.6048443737273317
 10
195.052061087512044
 20
166.6043202532611645
 10
195.0463726836076717
 20
166.6037962572492575
 10
195.0406842747808014
 20
166.6032723882639175
 10
195.0349958607305894
 20
166.6027486488779914
 10
194.6676918383606107
 20
166.5693279718744861
 10
194.4058453807822957
 20
166.5462265997716713
 10
194.2906085951799753
 20
166.5363266915850318
 10
194.2622115157564906
 20
166.5339160398983722
 10
194.209662882882526
 20
166.529484109672353
 10
194.050266010377868
 20
166.5162254851246075
 10
193.6385034811894741
 20
166.4830299353374414
 10
193.2266507471126147
 20
166.4508347438611224
 10
192.8641953434505467
 20
166.422822689067317
 10
192.7047191369649681
 20
166.4104736515096761
 10
192.6345518357613855
 20
166.4050209269672109
 10
192.6266760210141342
 20
166.4044079333173443
 10
192.6201910962622605
 20
166.4039030451949372
 10
192.61625319819575
 20
166.4035964782424912
 10
192.6123152954751845
 20
166.4032899693560523
 10
192.6083773881060779
 20
166.4029835184596777
 10
192.6044394760960472
 20
166.4026771254765151
 10
192.6005015594499525
 20
166.4023707903300249
 10
191.9437886257665582
 20
166.3520377420942964
 10
191.286974956206592
 20
166.3029560889058587
 10
190.291684402666192
 20
166.2300654596651555
 10
189.2963521656392913
 20
166.1577725223852724
 10
188.300930379220091
 20
166.0866581311109371
 10
187.8888563333372872
 20
166.05744594357094
 10
187.7873204594438903
 20
166.0502590595131949
 10
187.7426446043693886
 20
166.0470977773032644
 10
187.7376299652271996
 20
166.0467429711683565
 10
187.7310766550673975
 20
166.0462793059874969
 10
187.7210473755966973
 20
166.0455697107526589
 10
187.7110180959767831
 20
166.044860118781969
 10
187.7009888161996969
 20
166.044150530161545
 10
187.6909595362589016
 20
166.0434409449779594
 10
187.6809302561475761
 20
166.0427313633176425
 10
187.3960074256777943
 20
166.0225746313176955
 10
186.2396600670455769
 20
165.9408407062302899
 10
186.1259384723391008
 20
165.9328119469120111
 10
186.0706466575182958
 20
165.9289091241315646
 10
185.9908673275548949
 20
165.9232787733679118
 10
185.8484040277666907
 20
165.913227464741766
 10
185.5940045526064068
 20
165.8952885995279303
 10
185.1397171539595945
 20
165.86329039471633
 10
184.6152372900600938
 20
165.8264140726350604
 10
184.4860045414062029
 20
165.817339882202873
 10
184.3830556957366866
 20
165.810114065000306
 10
184.293700231950595
 20
165.8038432521468906
 10
183.9310557227374829
 20
165.7784014544351407
 10
183.1068607650828994
 20
165.7206186366321106
 10
182.9037786453662875
 20
165.706387535384124
 10
182.830068464343185
 20
165.7012227551934131
 10
182.7949642455440937
 20
165.6987631334710329
 10
182.6524957861485063
 20
165.6887814355084458
 10
181.3384034448594093
 20
165.5967352666255294
 10
181.2660321900690974
 20
165.5916661946279191
 10
181.1881009524188926
 20
165.586207601979396
 10
180.7819359370151915
 20
165.5577561805234268
 10
180.0566423823871958
 20
165.506935015186059
 10
178.7614818233263918
 20
165.4160948828182711
 10
178.0361974178617857
 20
165.3651497271180801
 10
177.9073280848735976
 20
165.3560907250954983
 10
177.8371208664834171
 20
165.3511550004593573
 10
177.7117508669782069
 20
165.3423407548545754
 10
177.2029444692543052
 20
165.3065629853057033
 10
175.1379890551397978
 20
165.1612849371558127
 10
172.5098713049740979
 20
164.9762865083118584
 10
171.8623033424349842
 20
164.9306995234998965
 10
171.5773733861745995
 20
164.9106419694464876
 10
171.4520041903664946
 20
164.9018168505774327
 10
171.3544509342073923
 20
164.8949495902147078
 10
171.2677671436929927
 20
164.8888469299888584
 10
169.4506202397508901
 20
164.7608151155242808
 10
168.7253503554641156
 20
164.709673584947808
 10
168.4062319508950907
 20
164.6871666612939862
 10
168.2658199036818019
 20
164.6772629292375996
 10
168.1678934296816124
 20
164.6703556343910861
 10
167.6590953777410959
 20
164.6344651378960862
 10
166.7505276863037977
 20
164.5703714765436985
 10
165.1280836078117886
 20
164.4559424300001922
 10
161.7832217595421866
 20
164.22028420628601
 10
161.6145535220659895
 20
164.2084103988264019
 10
161.387106828890694
 20
164.1924002103295095
 10
160.9809517077613066
 20
164.1638147807715029
 10
160.2556737038333097
 20
164.1127828238705035
 10
158.9605311742464835
 20
164.0216977021800915
 10
158.5543736111322062
 20
163.9931449865439106
 10
158.3895509335598888
 20
163.9815596117767882
 10
158.3193436367764093
 20
163.976624880363488
 10
158.0344114241941895
 20
163.9565975458351943
 10
157.5256036063084935
 20
163.92083834961349
 10
155.1790281043041091
 20
163.7562254503338011
 10
152.8323782205322061
 20
163.5926257514354063
 10
152.0081436597041886
 20
163.5353809649479047
 10
151.8944120137038851
 20
163.5274883035762059
 10
151.7248213873176041
 20
163.5157236378782102
 10
151.405674391466107
 20
163.493604301396914
 10
150.8357642229300097
 20
163.4541718807421944
 10
148.5227507032358858
 20
163.295054035742794
 10
146.2096228338178037
 20
163.1375174403630126
 10
145.6396493712271933
 20
163.0989602618656988
 10
145.3888586080595076
 20
163.0820289359623132
 10
145.3224767016579904
 20
163.0775511843428092
 10
145.2791254502950835
 20
163.0746284188334982
 10
144.8792613490255974
 20
163.0477256246639115
 10
143.6498053734185874
 20
162.9656348115028095
 10
142.42028506586189
 20
162.8844620289962108
 10
141.1907053466329103
 20
162.8041164490161066
 10
140.016961313659408
 20
162.7281937529162974
 10
138.8431479289027948
 20
162.653308410690812
 10
137.6692471171095917
 20
162.579770872692194
 10
136.4952604766820912
 20
162.5075329962436115
 10
135.5727904683726877
 20
162.4515261858246049
 10
134.6502731108558066
 20
162.3962238609528015
 10
133.7276952225946047
 20
162.3419041239035892
 10
132.8050460756580833
 20
162.2887928140376061
 10
131.8634837896107967
 20
162.2360481464303916
 10
130.9218423055135077
 20
162.1845909600388893
 10
129.98013263524021
 20
162.1341680178043703
 10
129.0383468573888877
 20
162.0850637854084937
 10
128.0964769728354895
 20
162.037564192975708
 10
127.1545151400671045
 20
161.9919514747678022
 10
126.2124571460562095
 20
161.948303422996787
  0
LWPOLYLINE
  5
6D
100
AcDbEntity
  8
Geometries
 62
256
370
0
 48
1.0
  6
Continuous
100
AcDbPolyline
 90
78
 70
128
 10
93.8324164590736984
 20
164.6504353421380529
 10
93.8571671985822888
 20
164.7738153730093984
 10
93.9014804422322982
 20
164.9120291176479896
 10
93.9653561900233854
 20
165.0650765760532863
 10
94.0469247225011884
 20
165.2221170993962573
 10
94.1511753750731089
 20
165.3872527264927896
 10
94.278108147738692
 20
165.5604834573436506
 10
94.3399634789417973
 20
165.6385023914284602
 10
94.402118068328889
 20
165.7143357512544242
 10
94.4645719158994837
 20
165.7879835368208603
 10
94.5273250216536951
 20
165.8594457481284223
 10
94.5903773855916938
 20
165.928722385176485
 10
94.6537290077135083
 20
165.9958134479652472
 10
94.7173798880188826
 20
166.0607189364955047
 10
94.787741499556887
 20
166.129590635608821
 10
94.8584652134972828
 20
166.1958177898683005
 10
94.9480971310555901
 20
166.2758730213159879
 10
95.057629671391993
 20
166.3698544289789538
 10
95.1798560665365869
 20
166.4712044723890756
 10
95.3537117970936094
 20
166.6108459884475224
 10
95.5182716629095978
 20
166.7391172319295265
 10
95.6607582254372915
 20
166.8459517288867175
 10
95.7747111230424082
 20
166.9273437943972169
 10
95.8848892428763975
 20
167.0032406193319616
 10
95.9998709225442894
 20
167.0799823817925471
 10
96.1196561620465957
 20
167.1575690817470559
 10
96.207605267368308
 20
167.2131751263684407
 10
96.2999177917147051
 20
167.2704784642782272
 10
96.3965937350857871
 20
167.3294790954784048
 10
96.4976330974814971
 20
167.3901770199654493
 10
96.6030358789020056
 20
167.4525722377394459
 10
96.712802079347199
 20
167.516664748799684
 10
96.9910211149778831
 20
167.6750913055100796
 10
97.2961388637249058
 20
167.8389543485210993
 10
97.5888452250979981
 20
167.9875885846960273
 10
97.9006834732560094
 20
168.1384189980146004
 10
98.231653608198684
 20
168.2914455884768472
 10
98.5925648960844967
 20
168.4516457878695803
 10
99.0963636557933967
 20
168.6643098289748082
 10
99.5852315179365064
 20
168.857442925977665
 10
100.0702271236857825
 20
169.0367468841030814
 10
100.5797472412091906
 20
169.2156687649602702
 10
101.1149286166051979
 20
169.3946914662778056
 10
101.4327221591983061
 20
169.4963019488002942
 10
101.7691228110481063
 20
169.5995237177864396
 10
102.1241305721548827
 20
169.7043567732360714
 10
102.4977454425186068
 20
169.8108011151492747
 10
102.8899674221393923
 20
169.9188567435261632
 10
103.3379879830856964
 20
170.0381740381008626
 10
103.8516599196007917
 20
170.1692384471203354
 10
104.8256529419963101
 20
170.4019611242785004
 10
105.8413956734071064
 20
170.6248975896932905
 10
106.8878279587256088
 20
170.8358023276874178
 10
108.0411191199482914
 20
171.0481024013495528
 10
109.2306305207841035
 20
171.2468825915109392
 10
110.4563621612327893
 20
171.432142898171719
 10
111.7183140412946045
 20
171.6038833213318071
 10
113.0164861609694071
 20
171.7621038609912603
 10
113.4058556445530996
 20
171.8061367406192801
 10
113.7983053668706077
 20
171.8489826863817314
 10
114.1938353279219882
 20
171.8906416982783014
 10
114.5924455277067864
 20
171.9311137763093029
 10
114.9941359662254854
 20
171.9703989204745085
 10
115.3989066434776021
 20
172.0084971307740886
 10
115.8067575594635912
 20
172.0454084072079866
 10
116.9442300593956077
 20
172.1407942896560996
 10
118.1049968647510866
 20
172.2272039847449037
 10
119.5172345029143912
 20
172.3183690237245003
 10
120.9624856124829932
 20
172.3968127087368032
 10
122.4407501934568927
 20
172.4625350397818977
 10
124.0612399487380912
 20
172.5188350144327103
 10
125.7196278217037104
 20
172.5605313939680912
 10
127.4159138123536934
 20
172.5876241783878982
 10
129.1500979206884097
 20
172.6001133676921881
 10
130.9221801467076034
 20
172.5979989618809896
 10
131.9311000910828966
 20
172.5904360442802101
 10
133.0117959624080868
 20
172.5774171018487948
 10
133.2060217550435937
 20
172.5745427081529897
  0
LWPOLYLINE
  5
6E
100
AcDbEntity
  8
Geometries
 62
256
370
0
 48
1.0
  6
Continuous
100
AcDbPolyline
 90
93
 70
128
 10
133.2060217550435937
 20
172.5745427081529897
 10
134.1229131018673968
 20
172.55879878676879
 10
135.2408116740128037
 20
172.5348067301638082
 10
136.3654916788445064
 20
172.5054409320335935
 10
138.594427683368707
 20
172.4321132609217102
 10
140.8495292923263094
 20
172.3380514468078104
 10
143.4063068999419102
 20
172.2080866404282915
 10
144.041336953852408
 20
172.1720694756245109
 10
144.1246432138686089
 20
172.1672360107073132
 10
144.2079836462488061
 20
172.1623754669323887
 10
144.2913582509926869
 20
172.1574878442999079
 10
144.3747670281005071
 20
172.1525731428095867
 10
144.4582099775720962
 20
172.1476313624615955
 10
144.5605838964257828
 20
172.1415339609847877
 10
145.8680234614749907
 20
172.0602397298058861
 10
148.5437192762580878
 20
171.8744109278121925
 10
151.2497102167241962
 20
171.6606281348555001
 10
152.8027718475078984
 20
171.5265227687717129
 10
152.9777072156987003
 20
171.5109053051905903
 10
153.1527661318361879
 20
171.4951738411517965
 10
153.3279485959207875
 20
171.4793283766553031
 10
153.5032546079521012
 20
171.4633689117011954
 10
153.6786841679305837
 20
171.4472954462895018
 10
153.854237275855894
 20
171.4311079804201086
 10
154.0021371308444884
 20
171.417390755932189
 10
154.8165008948352863
 20
171.3405827128079864
 10
155.6498845628790093
 20
171.2598505438442089
 10
156.6668071718432032
 20
171.1586243282800126
 10
157.710685427140703
 20
171.0518367098817123
 10
158.7815193287717079
 20
170.939487688649308
 10
159.7018511296278973
 20
170.840816658704
 10
160.6412028345367844
 20
170.7382215029190036
 10
160.8546918546466031
 20
170.7146505947576998
 10
161.0691393955353021
 20
170.6908819276515885
 10
161.2845454572029951
 20
170.666915501600613
 10
161.5009100396497104
 20
170.6427513166046879
 10
161.7076293086875012
 20
170.6195802278203928
 10
161.8567964613577033
 20
170.6028135585443124
 10
162.00635637361259
 20
170.5859667124188093
 10
162.950004284550289
 20
170.4788574173925895
 10
163.9089943667713953
 20
170.3686162141900979
 10
165.1517162893879913
 20
170.2237796090327038
 10
166.4192899935870855
 20
170.073869830300481
 10
167.5553122470078051
 20
169.9377526958350018
 10
167.7355797736386762
 20
169.9160056725552863
 10
167.9750231048121805
 20
169.8870932615052141
 10
168.2397528959135116
 20
169.855177766995098
 10
168.5044892740726823
 20
169.8233176571118861
 10
168.769232239289579
 20
169.7915129318558058
 10
171.7781377530528175
 20
169.4339862550172882
 10
172.1722240815662985
 20
169.3876968898667883
 10
172.5517518323247828
 20
169.3432342621024986
 10
172.8698669926399134
 20
169.3060307942766372
 10
173.176195931236407
 20
169.2702533189591634
 10
173.4707386481146045
 20
169.235901836150191
 10
173.7534951432742787
 20
169.2029763458495779
 10
174.1265401344068948
 20
169.1596260301133157
 10
174.4768643877631007
 20
169.1190246531488128
 10
174.8044679033432089
 20
169.0811722149560694
 10
175.1093506811473048
 20
169.0460687155352275
 10
175.3915127211749905
 20
169.0137141548860882
 10
175.7025338433955994
 20
168.9782352247807751
 10
176.0667020840494956
 20
168.9369420815642115
 10
177.0504711278437071
 20
168.82677207232814
 10
178.0082895318992087
 20
168.7215683938530617
 10
179.114713668586802
 20
168.6028012940526821
 10
180.184359687730705
 20
168.491072644877363
 10
181.2172275893312019
 20
168.3863824463268202
 10
182.2830593177511957
 20
168.2820249020170422
 10
183.3066712683786932
 20
168.1857472117408747
 10
184.2880634412138932
 20
168.0975493754985166
 10
185.227235836256682
 20
168.0174313932896837
 10
186.1241884535069175
 20
167.9453932651143475
 10
186.7823759473048995
 20
167.8955411100128572
 10
187.4304973738052809
 20
167.8489661535527659
 10
188.0685527330077775
 20
167.8056683957333632
 10
188.6965420249123895
 20
167.7656478365549617
 10
189.314465249519202
 20
167.7289044760170782
 10
189.9223224068279023
 20
167.695438314120139
 10
190.5201134968386896
 20
167.6652493508643715
 10
191.421024561034244
 20
167.6251678925522413
 10
192.2980629400260284
 20
167.5928586385370238
 10
192.5238185201606314
 20
167.5856810434106023
 10
192.747936574836217
 20
167.5790365756768381
 10
192.9704171040528138
 20
167.5729252353349068
 10
193.1912601078103933
 20
167.5673470223856611
 10
193.4104655861089554
 20
167.5623019368285043
 10
193.576753161849183
 20
167.5588338103029855
 10
194.3109629673026575
 20
167.5482676697408806
 10
195.0106523525521993
 20
167.5462194776458773
 10
195.6758213175980927
 20
167.5526892340183451
 10
196.3064698624402524
 20
167.5676769388599041
 10
196.9025979870785363
 20
167.5911825921687353
  0
ENDSEC
  0
SECTION
  2
OBJECTS
  0
DICTIONARY
  5
C
100
AcDbDictionary
280
0
281
1
  3
ACAD_GROUP
350
D
  3
ACAD_LAYOUT
350
1A
  3
ACAD_MLINESTYLE
350
17
  3
ACAD_PLOTSETTINGS
350
19
  3
ACAD_PLOTSTYLENAME
350
E
  3
AcDbVariableDictionary
350
6F
  3
QCAD_OBJECTS
350
70
  0
DICTIONARY
  5
D
100
AcDbDictionary
280
0
281
1
  0
ACDBDICTIONARYWDFLT
  5
E
100
AcDbDictionary
281
1
  3
Normal
350
F
100
AcDbDictionaryWithDefault
340
F
  0
ACDBPLACEHOLDER
  5
F
  0
DICTIONARY
  5
17
100
AcDbDictionary
280
0
281
1
  3
Standard
350
18
  0
MLINESTYLE
  5
18
100
AcDbMlineStyle
  2
STANDARD
 70
0
  3

 62
256
 51
90.0
 52
90.0
 71
2
 49
0.5
 62
256
  6
BYLAYER
 49
-0.5
 62
256
  6
BYLAYER
  0
DICTIONARY
  5
19
100
AcDbDictionary
280
0
281
1
  0
DICTIONARY
  5
1A
100
AcDbDictionary
281
1
  3
Layout1
350
1E
  3
Layout2
350
26
  3
Model
350
22
  0
LAYOUT
  5
1E
100
AcDbPlotSettings
  1

  2
none_device
  4

  6

 40
0.0
 41
0.0
 42
0.0
 43
0.0
 44
0.0
 45
0.0
 46
0.0
 47
0.0
 48
0.0
 49
0.0
140
0.0
141
0.0
142
1.0
143
1.0
 70
688
 72
0
 73
0
 74
5
  7

 75
16
147
1.0
148
0.0
149
0.0
100
AcDbLayout
  1
Layout1
 70
1
 71
1
 10
0.0
 20
0.0
 11
420.0
 21
297.0
 12
0.0
 22
0.0
 32
0.0
 14
100000000000000000000.0
 24
100000000000000000000.0
 34
100000000000000000000.0
 15
-100000000000000000000.0
 25
-100000000000000000000.0
 35
-100000000000000000000.0
146
0.0
 13
0.0
 23
0.0
 33
0.0
 16
1.0
 26
0.0
 36
0.0
 17
0.0
 27
1.0
 37
0.0
 76
0
330
1B
  0
LAYOUT
  5
22
100
AcDbPlotSettings
  1

  2
none_device
  4

  6

 40
0.0
 41
0.0
 42
0.0
 43
0.0
 44
0.0
 45
0.0
 46
0.0
 47
0.0
 48
0.0
 49
0.0
140
0.0
141
0.0
142
1.0
143
1.0
 70
1712
 72
0
 73
0
 74
0
  7

 75
0
147
1.0
148
0.0
149
0.0
100
AcDbLayout
  1
Model
 70
1
 71
0
 10
0.0
 20
0.0
 11
12.0
 21
9.0
 12
0.0
 22
0.0
 32
0.0
 14
0.0
 24
0.0
 34
0.0
 15
0.0
 25
0.0
 35
0.0
146
0.0
 13
0.0
 23
0.0
 33
0.0
 16
1.0
 26
0.0
 36
0.0
 17
0.0
 27
1.0
 37
0.0
 76
0
330
1F
  0
LAYOUT
  5
26
100
AcDbPlotSettings
  1

  2
none_device
  4

  6

 40
0.0
 41
0.0
 42
0.0
 43
0.0
 44
0.0
 45
0.0
 46
0.0
 47
0.0
 48
0.0
 49
0.0
140
0.0
141
0.0
142
1.0
143
1.0
 70
688
 72
0
 73
0
 74
5
  7

 75
16
147
1.0
148
0.0
149
0.0
100
AcDbLayout
  1
Layout2
 70
1
 71
2
 10
0.0
 20
0.0
 11
12.0
 21
9.0
 12
0.0
 22
0.0
 32
0.0
 14
0.0
 24
0.0
 34
0.0
 15
0.0
 25
0.0
 35
0.0
146
0.0
 13
0.0
 23
0.0
 33
0.0
 16
1.0
 26
0.0
 36
0.0
 17
0.0
 27
1.0
 37
0.0
 76
0
330
23
  0
DICTIONARY
  5
6F
100
AcDbDictionary
281
1
  3
DIMASSOC
350
72
  3
HIDETEXT
350
71
  0
DICTIONARYVAR
  5
71
100
DictionaryVariables
280
0
  1
2
  0
DICTIONARYVAR
  5
72
100
DictionaryVariables
280
0
  1
1
  0
DICTIONARY
  5
70
100
AcDbDictionary
281
1
  3
ColorSettings/BackgroundColor
350
73
  3
ColorSettings/ColorMode
350
74
  3
Grid/DisplayGrid00
350
75
  3
Grid/DisplayGrid01
350
76
  3
Grid/DisplayGrid02
350
77
  3
Grid/DisplayGrid03
350
78
  3
Grid/GridSpacingX00
350
79
  3
Grid/GridSpacingX01
350
7A
  3
Grid/GridSpacingX02
350
7B
  3
Grid/GridSpacingX03
350
7C
  3
Grid/GridSpacingY00
350
7D
  3
Grid/GridSpacingY01
350
7E
  3
Grid/GridSpacingY02
350
7F
  3
Grid/GridSpacingY03
350
80
  3
Grid/IsometricGrid00
350
81
  3
Grid/IsometricGrid01
350
82
  3
Grid/IsometricGrid02
350
83
  3
Grid/IsometricGrid03
350
84
  3
Grid/IsometricProjection00
350
85
  3
Grid/IsometricProjection01
350
86
  3
Grid/IsometricProjection02
350
87
  3
Grid/IsometricProjection03
350
88
  3
Grid/MetaGridSpacingX00
350
89
  3
Grid/MetaGridSpacingX01
350
8A
  3
Grid/MetaGridSpacingX02
350
8B
  3
Grid/MetaGridSpacingX03
350
8C
  3
Grid/MetaGridSpacingY00
350
8D
  3
Grid/MetaGridSpacingY01
350
8E
  3
Grid/MetaGridSpacingY02
350
8F
  3
Grid/MetaGridSpacingY03
350
90
  3
MultiPageSettings/Columns
350
91
  3
MultiPageSettings/GlueMarginsBottom
350
92
  3
MultiPageSettings/GlueMarginsLeft
350
93
  3
MultiPageSettings/GlueMarginsRight
350
94
  3
MultiPageSettings/GlueMarginsTop
350
95
  3
MultiPageSettings/PrintCropMarks
350
96
  3
MultiPageSettings/Rows
350
97
  3
PageSettings/OffsetX
350
98
  3
PageSettings/OffsetY
350
99
  3
PageSettings/PageOrientation
350
9A
  3
PageSettings/PaperHeight
350
9B
  3
PageSettings/PaperWidth
350
9C
  3
PageSettings/Scale
350
9D
  3
PageSettings/ShowPaperBorders
350
9E
  3
PageTagSettings/EnablePageTags
350
9F
  3
PageTagSettings/TagAlignment
350
A0
  3
PageTagSettings/TagFont
350
A1
  3
PageTagSettings/TagPosition
350
A2
  3
QCADVersion
350
A3
  3
UnitSettings/PaperUnit
350
A4
  3
ViewportCenter
350
A5
  3
ViewportHeight
350
A6
  3
ViewportWidth
350
A7
  0
XRECORD
  5
73
330
70
100
AcDbXrecord
280
1
1000
White
  0
XRECORD
  5
74
330
70
100
AcDbXrecord
280
1
1000
FullColor
  0
XRECORD
  5
75
330
70
100
AcDbXrecord
280
1
290
1
  0
XRECORD
  5
76
330
70
100
AcDbXrecord
280
1
290
1
  0
XRECORD
  5
77
330
70
100
AcDbXrecord
280
1
290
1
  0
XRECORD
  5
78
330
70
100
AcDbXrecord
280
1
290
1
  0
XRECORD
  5
79
330
70
100
AcDbXrecord
280
1
1000
auto
  0
XRECORD
  5
7A
330
70
100
AcDbXrecord
280
1
1000
auto
  0
XRECORD
  5
7B
330
70
100
AcDbXrecord
280
1
1000
auto
  0
XRECORD
  5
7C
330
70
100
AcDbXrecord
280
1
1000
auto
  0
XRECORD
  5
7D
330
70
100
AcDbXrecord
280
1
1000
auto
  0
XRECORD
  5
7E
330
70
100
AcDbXrecord
280
1
1000
auto
  0
XRECORD
  5
7F
330
70
100
AcDbXrecord
280
1
1000
auto
  0
XRECORD
  5
80
330
70
100
AcDbXrecord
280
1
1000
auto
  0
XRECORD
  5
81
330
70
100
AcDbXrecord
280
1
290
0
  0
XRECORD
  5
82
330
70
100
AcDbXrecord
280
1
290
0
  0
XRECORD
  5
83
330
70
100
AcDbXrecord
280
1
290
0
  0
XRECORD
  5
84
330
70
100
AcDbXrecord
280
1
290
0
  0
XRECORD
  5
85
330
70
100
AcDbXrecord
280
1
 90
65537
  0
XRECORD
  5
86
330
70
100
AcDbXrecord
280
1
 90
65537
  0
XRECORD
  5
87
330
70
100
AcDbXrecord
280
1
 90
65537
  0
XRECORD
  5
88
330
70
100
AcDbXrecord
280
1
 90
65537
  0
XRECORD
  5
89
330
70
100
AcDbXrecord
280
1
1000
auto
  0
XRECORD
  5
8A
330
70
100
AcDbXrecord
280
1
1000
auto
  0
XRECORD
  5
8B
330
70
100
AcDbXrecord
280
1
1000
auto
  0
XRECORD
  5
8C
330
70
100
AcDbXrecord
280
1
1000
auto
  0
XRECORD
  5
8D
330
70
100
AcDbXrecord
280
1
1000
auto
  0
XRECORD
  5
8E
330
70
100
AcDbXrecord
280
1
1000
auto
  0
XRECORD
  5
8F
330
70
100
AcDbXrecord
280
1
1000
auto
  0
XRECORD
  5
90
330
70
100
AcDbXrecord
280
1
1000
auto
  0
XRECORD
  5
91
330
70
100
AcDbXrecord
280
1
 90
1
  0
XRECORD
  5
92
330
70
100
AcDbXrecord
280
1
 40
10.0
  0
XRECORD
  5
93
330
70
100
AcDbXrecord
280
1
 40
10.0
  0
XRECORD
  5
94
330
70
100
AcDbXrecord
280
1
 40
10.0
  0
XRECORD
  5
95
330
70
100
AcDbXrecord
280
1
 40
10.0
  0
XRECORD
  5
96
330
70
100
AcDbXrecord
280
1
290
0
  0
XRECORD
  5
97
330
70
100
AcDbXrecord
280
1
 90
1
  0
XRECORD
  5
98
330
70
100
AcDbXrecord
280
1
 40
0.0
  0
XRECORD
  5
99
330
70
100
AcDbXrecord
280
1
 40
0.0
  0
XRECORD
  5
9A
330
70
100
AcDbXrecord
280
1
1000
Portrait
  0
XRECORD
  5
9B
330
70
100
AcDbXrecord
280
1
 40
297.0
  0
XRECORD
  5
9C
330
70
100
AcDbXrecord
280
1
 40
210.0
  0
XRECORD
  5
9D
330
70
100
AcDbXrecord
280
1
1000
1:1
  0
XRECORD
  5
9E
330
70
100
AcDbXrecord
280
1
290
1
  0
XRECORD
  5
9F
330
70
100
AcDbXrecord
280
1
290
0
  0
XRECORD
  5
A0
330
70
100
AcDbXrecord
280
1
1000
Inside
  0
XRECORD
  5
A1
330
70
100
AcDbXrecord
280
1
1000
Arial,10,-1,5,50,0,0,0,0,0
  0
XRECORD
  5
A2
330
70
100
AcDbXrecord
280
1
1000
TopLeft
  0
XRECORD
  5
A3
330
70
100
AcDbXrecord
280
1
1000
3.32.2
  0
XRECORD
  5
A4
330
70
100
AcDbXrecord
280
1
 90
4
  0
XRECORD
  5
A6
330
70
100
AcDbXrecord
280
1
 40
245.7990549040702604
  0
XRECORD
  5
A7
330
70
100
AcDbXrecord
280
1
 40
521.2081556093565951
  0
ENDSEC
  0
EOF
