999
dxflib 3.26.4.0
  0
SECTION
  2
HEADER
  9
$ACADVER
  1
AC1015
  9
$HANDSEED
  5
FFFF
  9
$ANGBASE
 50
0.0
  9
$ANGDIR
 70
0
  9
$ATTMODE
 70
1
  9
$AUNITS
 70
0
  9
$AUPREC
 70
0
  9
$CECOLOR
 62
256
  9
$CELTSCALE
 40
1.0
  9
$CHAMFERA
 40
0.0
  9
$CHAMFERB
 40
0.0
  9
$CHAMFERC
 40
0.0
  9
$CHAMFERD
 40
0.0
  9
$CMLJUST
 70
0
  9
$CMLSCALE
 40
20.0
  9
$DIMADEC
 70
2
  9
$DIMALT
 70
0
  9
$DIMALTD
 70
3
  9
$DIMALTF
 40
0.0393700787401575
  9
$DIMALTRND
 40
0.0
  9
$DIMALTTD
 70
3
  9
$DIMALTTZ
 70
0
  9
$DIMALTU
 70
2
  9
$DIMALTZ
 70
0
  9
$DIMAPOST
  1

  9
$DIMASZ
 40
2.5
  9
$DIMATFIT
 70
3
  9
$DIMAUNIT
 70
0
  9
$DIMAZIN
 70
0
  9
$DIMBLK
  1
0
  9
$DIMBLK1
  1
0
  9
$DIMBLK2
  1
0
  9
$DIMCEN
 40
2.5
  9
$DIMCLRD
 70
0
  9
$DIMCLRE
 70
0
  9
$DIMDEC
 70
2
  9
$DIMDLE
 40
0.0
  9
$DIMDLI
 40
3.75
  9
$DIMDSEP
 70
44
  9
$DIMEXE
 40
1.25
  9
$DIMEXO
 40
0.625
  9
$DIMFRAC
 70
2
  9
$DIMGAP
 40
0.7
  9
$DIMJUST
 70
0
  9
$DIMLDRBLK
  1

  9
$DIMLFAC
 40
1.0
  9
$DIMLIM
 70
0
  9
$DIMLUNIT
 70
2
  9
$DIMLWD
 70
15
  9
$DIMLWE
 70
15
  9
$DIMPOST
  1

  9
$DIMRND
 40
0.01
  9
$DIMSAH
 70
0
  9
$DIMSCALE
 40
1.0
  9
$DIMSD1
 70
0
  9
$DIMSD2
 70
0
  9
$DIMSE1
 70
0
  9
$DIMSE2
 70
0
  9
$DIMSOXD
 70
0
  9
$DIMTAD
 70
1
  9
$DIMTDEC
 70
2
  9
$DIMTFAC
 40
1.0
  9
$DIMTIH
 70
0
  9
$DIMTIX
 70
0
  9
$DIMTM
 40
0.0
  9
$DIMTOFL
 70
1
  9
$DIMTOH
 70
0
  9
$DIMTOL
 70
0
  9
$DIMTOLJ
 70
0
  9
$DIMTP
 40
0.0
  9
$DIMTSZ
 40
0.0
  9
$DIMTVP
 40
0.0
  9
$DIMTXSTY
  7
Standard
  9
$DIMTXT
 40
2.5
  9
$DIMTZIN
 70
8
  9
$DIMUPT
 70
0
  9
$DIMZIN
 70
8
  9
$DISPSILH
 70
0
  9
$DWGCODEPAGE
  3
ANSI_1252
  9
$ELEVATION
 40
0.0
  9
$EXTMAX
 10
-100000000000000000000.0
 20
-100000000000000000000.0
 30
-100000000000000000000.0
  9
$EXTMIN
 10
100000000000000000000.0
 20
100000000000000000000.0
 30
100000000000000000000.0
  9
$FILLETRAD
 40
0.0
  9
$FILLMODE
 70
1
  9
$INSBASE
 10
0.0
 20
0.0
 30
0.0
  9
$INSUNITS
 70
4
  9
$LIMCHECK
 70
0
  9
$LIMMAX
 10
420.0
 20
297.0
  9
$LIMMIN
 10
0.0
 20
0.0
  9
$LTSCALE
 40
1.0
  9
$LUNITS
 70
2
  9
$LUPREC
 70
4
  9
$MAXACTVP
 70
64
  9
$MEASUREMENT
 70
1
  9
$MIRRTEXT
 70
1
  9
$ORTHOMODE
 70
0
  9
$PDMODE
 70
0
  9
$PDSIZE
 40
0.0
  9
$PELEVATION
 40
0.0
  9
$PEXTMAX
 10
0.0
 20
0.0
 30
0.0
  9
$PEXTMIN
 10
0.0
 20
0.0
 30
0.0
  9
$PINSBASE
 10
0.0
 20
0.0
 30
0.0
  9
$PLIMCHECK
 70
0
  9
$PLIMMAX
 10
277.0
 20
202.5
  9
$PLIMMIN
 10
-20.0
 20
-7.5
  9
$PLINEGEN
 70
0
  9
$PLINEWID
 40
0.0
  9
$PROXYGRAPHICS
 70
1
  9
$PSLTSCALE
 70
1
  9
$PUCSNAME
  2

  9
$PUCSORG
 10
0.0
 20
0.0
 30
0.0
  9
$PUCSXDIR
 10
1.0
 20
0.0
 30
0.0
  9
$PUCSYDIR
 10
0.0
 20
1.0
 30
0.0
  9
$QTEXTMODE
 70
0
  9
$REGENMODE
 70
1
  9
$SHADEDGE
 70
3
  9
$SHADEDIF
 70
70
  9
$SKETCHINC
 40
1.0
  9
$SKPOLY
 70
0
  9
$SPLFRAME
 70
0
  9
$SPLINESEGS
 70
8
  9
$SPLINETYPE
 70
6
  9
$SURFTAB1
 70
6
  9
$SURFTAB2
 70
6
  9
$SURFTYPE
 70
6
  9
$SURFU
 70
6
  9
$SURFV
 70
6
  9
$TEXTSIZE
 40
2.5
  9
$TEXTSTYLE
  7
Standard
  9
$THICKNESS
 40
0.0
  9
$TILEMODE
 70
0
  9
$TRACEWID
 40
1.0
  9
$TREEDEPTH
 70
3020
  9
$UCSNAME
  2

  9
$UCSORG
 10
0.0
 20
0.0
 30
0.0
  9
$UCSXDIR
 10
1.0
 20
0.0
 30
0.0
  9
$UCSYDIR
 10
0.0
 20
1.0
 30
0.0
  9
$UNITMODE
 70
0
  9
$USERI1
 70
0
  9
$USERI2
 70
0
  9
$USERI3
 70
0
  9
$USERI4
 70
0
  9
$USERI5
 70
0
  9
$USERR1
 40
0.0
  9
$USERR2
 40
0.0
  9
$USERR3
 40
0.0
  9
$USERR4
 40
0.0
  9
$USERR5
 40
0.0
  9
$USRTIMER
 70
1
  9
$VISRETAIN
 70
1
  0
ENDSEC
  0
SECTION
  2
TABLES
  0
TABLE
  2
VPORT
  5
8
100
AcDbSymbolTable
 70
1
  0
VPORT
  5
30
100
AcDbSymbolTableRecord
100
AcDbViewportTableRecord
  2
*Active
 70
0
 10
0.0
 20
0.0
 11
1.0
 21
1.0
 12
286.3055555555554861
 22
148.5
 13
0.0
 23
0.0
 14
10.0
 24
10.0
 15
10.0
 25
10.0
 16
0.0
 26
0.0
 36
1.0
 17
0.0
 27
0.0
 37
0.0
 40
297.0
 41
1.92798353909465
 42
50.0
 43
0.0
 44
0.0
 50
0.0
 51
0.0
 71
0
 72
100
 73
1
 74
3
 75
1
 76
1
 77
0
 78
0
281
0
 65
1
110
0.0
120
0.0
130
0.0
111
1.0
121
0.0
131
0.0
112
0.0
122
1.0
132
0.0
 79
0
146
0.0
  0
ENDTAB
  0
TABLE
  2
LTYPE
  5
5
100
AcDbSymbolTable
 70
46
  0
LTYPE
  5
16
100
AcDbSymbolTableRecord
100
AcDbLinetypeTableRecord
  2
Continuous
 70
0
  3
Solid line
 72
65
 73
0
 40
0.0
  0
LTYPE
  5
31
100
AcDbSymbolTableRecord
100
AcDbLinetypeTableRecord
  2
DIVIDEX2
 70
0
  3
Divide (2x) ________  .  .  ________  .  .  _
 72
65
 73
6
 40
63.5
 49
25.3999999999999986
 74
0
 49
-12.6999999999999993
 74
0
 49
0.0
 74
0
 49
-12.6999999999999993
 74
0
 49
0.0
 74
0
 49
-12.6999999999999993
 74
0
  0
LTYPE
  5
32
100
AcDbSymbolTableRecord
100
AcDbLinetypeTableRecord
  2
ACAD_ISO14W100
 70
0
  3
ISO dash triple-dot __ . . . __ . . . __ . . . _
 72
65
 73
8
 40
24.0
 49
12.0
 74
0
 49
-3.0
 74
0
 49
0.0
 74
0
 49
-3.0
 74
0
 49
0.0
 74
0
 49
-3.0
 74
0
 49
0.0
 74
0
 49
-3.0
 74
0
  0
LTYPE
  5
33
100
AcDbSymbolTableRecord
100
AcDbLinetypeTableRecord
  2
HIDDEN
 70
0
  3
Hidden __ __ __ __ __ __ __ __ __ __ __ __ __ __
 72
65
 73
2
 40
9.5249999999999986
 49
6.3499999999999996
 74
0
 49
-3.1749999999999998
 74
0
  0
LTYPE
  5
34
100
AcDbSymbolTableRecord
100
AcDbLinetypeTableRecord
  2
DASHDOT
 70
0
  3
Dash dot __ . __ . __ . __ . __ . __ . __ . __
 72
65
 73
4
 40
25.3999999999999986
 49
12.6999999999999993
 74
0
 49
-6.3499999999999996
 74
0
 49
0.0
 74
0
 49
-6.3499999999999996
 74
0
  0
LTYPE
  5
35
100
AcDbSymbolTableRecord
100
AcDbLinetypeTableRecord
  2
HIDDENX2
 70
0
  3
Hidden (2x) ____ ____ ____ ____ ____ ____ ____ 
 72
65
 73
2
 40
19.0499999999999972
 49
12.6999999999999993
 74
0
 49
-6.3499999999999996
 74
0
  0
LTYPE
  5
36
100
AcDbSymbolTableRecord
100
AcDbLinetypeTableRecord
  2
DraftedLine
 70
0
  3

 72
65
 73
2
 40
3.0
 49
2.0
 74
0
 49
-1.0
 74
0
  0
LTYPE
  5
37
100
AcDbSymbolTableRecord
100
AcDbLinetypeTableRecord
  2
ACAD_ISO11W100
 70
0
  3
ISO double-dash dot __ __ . __ __ . __ __ . __ _
 72
65
 73
6
 40
33.0
 49
12.0
 74
0
 49
-3.0
 74
0
 49
12.0
 74
0
 49
-3.0
 74
0
 49
0.0
 74
0
 49
-3.0
 74
0
  0
LTYPE
  5
38
100
AcDbSymbolTableRecord
100
AcDbLinetypeTableRecord
  2
DASHEDX2
 70
0
  3
Dashed (2x) ____  ____  ____  ____  ____  ___
 72
65
 73
2
 40
38.0999999999999943
 49
25.3999999999999986
 74
0
 49
-12.6999999999999993
 74
0
  0
LTYPE
  5
39
100
AcDbSymbolTableRecord
100
AcDbLinetypeTableRecord
  2
CENTERX2
 70
0
  3
Center (2x) ________  __  ________  __  _____
 72
65
 73
4
 40
101.6000000000000085
 49
63.5
 74
0
 49
-12.6999999999999993
 74
0
 49
12.6999999999999993
 74
0
 49
-12.6999999999999993
 74
0
  0
LTYPE
  5
3A
100
AcDbSymbolTableRecord
100
AcDbLinetypeTableRecord
  2
DASHED2
 70
0
  3
Dashed (.5x) _ _ _ _ _ _ _ _ _ _ _ _ _ _ _ _ _ 
 72
65
 73
2
 40
9.5249999999999986
 49
6.3499999999999996
 74
0
 49
-3.1749999999999998
 74
0
  0
LTYPE
  5
3B
100
AcDbSymbolTableRecord
100
AcDbLinetypeTableRecord
  2
PHANTOM
 70
0
  3
Phantom ______  __  __  ______  __  __  ______ 
 72
65
 73
6
 40
63.5000000000000071
 49
31.75
 74
0
 49
-6.3499999999999996
 74
0
 49
6.3499999999999996
 74
0
 49
-6.3499999999999996
 74
0
 49
6.3499999999999996
 74
0
 49
-6.3499999999999996
 74
0
  0
LTYPE
  5
3C
100
AcDbSymbolTableRecord
100
AcDbLinetypeTableRecord
  2
DASHED
 70
0
  3
Dashed __ __ __ __ __ __ __ __ __ __ __ __ __ _
 72
65
 73
2
 40
19.0499999999999972
 49
12.6999999999999993
 74
0
 49
-6.3499999999999996
 74
0
  0
LTYPE
  5
3D
100
AcDbSymbolTableRecord
100
AcDbLinetypeTableRecord
  2
ACAD_ISO07W100
 70
0
  3
ISO dot . . . . . . . . . . . . . . . . . . . . 
 72
65
 73
2
 40
3.0
 49
0.0
 74
0
 49
-3.0
 74
0
  0
LTYPE
  5
3E
100
AcDbSymbolTableRecord
100
AcDbLinetypeTableRecord
  2
DOT
 70
0
  3
Dot . . . . . . . . . . . . . . . . . . . . . . . .
 72
65
 73
2
 40
6.3499999999999996
 49
0.0
 74
0
 49
-6.3499999999999996
 74
0
  0
LTYPE
  5
3F
100
AcDbSymbolTableRecord
100
AcDbLinetypeTableRecord
  2
BORDER
 70
0
  3
Border __ __ . __ __ . __ __ . __ __ . __ __ .
 72
65
 73
6
 40
44.4499999999999957
 49
12.6999999999999993
 74
0
 49
-6.3499999999999996
 74
0
 49
12.6999999999999993
 74
0
 49
-6.3499999999999996
 74
0
 49
0.0
 74
0
 49
-6.3499999999999996
 74
0
  0
LTYPE
  5
40
100
AcDbSymbolTableRecord
100
AcDbLinetypeTableRecord
  2
ACAD_ISO12W100
 70
0
  3
ISO dash double-dot __ . . __ . . __ . . __ . . 
 72
65
 73
6
 40
21.0
 49
12.0
 74
0
 49
-3.0
 74
0
 49
0.0
 74
0
 49
-3.0
 74
0
 49
0.0
 74
0
 49
-3.0
 74
0
  0
LTYPE
  5
41
100
AcDbSymbolTableRecord
100
AcDbLinetypeTableRecord
  2
ACAD_ISO06W100
 70
0
  3
ISO long-dash triple-dot ____ ... ____ ... ____
 72
65
 73
8
 40
36.0
 49
24.0
 74
0
 49
-3.0
 74
0
 49
0.0
 74
0
 49
-3.0
 74
0
 49
0.0
 74
0
 49
-3.0
 74
0
 49
0.0
 74
0
 49
-3.0
 74
0
  0
LTYPE
  5
42
100
AcDbSymbolTableRecord
100
AcDbLinetypeTableRecord
  2
ACAD_ISO09W100
 70
0
  3
ISO long-dash double-short-dash ____ __ __ ____
 72
65
 73
6
 40
45.0
 49
24.0
 74
0
 49
-3.0
 74
0
 49
6.0
 74
0
 49
-3.0
 74
0
 49
6.0
 74
0
 49
-3.0
 74
0
  0
LTYPE
  5
43
100
AcDbSymbolTableRecord
100
AcDbLinetypeTableRecord
  2
ACAD_ISO02W100
 70
0
  3
ISO dash __ __ __ __ __ __ __ __ __ __ __ __ __
 72
65
 73
2
 40
15.0
 49
12.0
 74
0
 49
-3.0
 74
0
  0
LTYPE
  5
44
100
AcDbSymbolTableRecord
100
AcDbLinetypeTableRecord
  2
ACAD_ISO15W100
 70
0
  3
ISO double-dash triple-dot __ __ . . . __ __ . .
 72
65
 73
10
 40
39.0
 49
12.0
 74
0
 49
-3.0
 74
0
 49
12.0
 74
0
 49
-3.0
 74
0
 49
0.0
 74
0
 49
-3.0
 74
0
 49
0.0
 74
0
 49
-3.0
 74
0
 49
0.0
 74
0
 49
-3.0
 74
0
  0
LTYPE
  5
45
100
AcDbSymbolTableRecord
100
AcDbLinetypeTableRecord
  2
DOTX2
 70
0
  3
Dot (2x) .  .  .  .  .  .  .  .  .  .  .  .  .  .
 72
65
 73
2
 40
12.6999999999999993
 49
0.0
 74
0
 49
-12.6999999999999993
 74
0
  0
LTYPE
  5
46
100
AcDbSymbolTableRecord
100
AcDbLinetypeTableRecord
  2
BORDER2
 70
0
  3
Border (.5x) __.__.__.__.__.__.__.__.__.__.__.
 72
65
 73
6
 40
22.2249999999999979
 49
6.3499999999999996
 74
0
 49
-3.1749999999999998
 74
0
 49
6.3499999999999996
 74
0
 49
-3.1749999999999998
 74
0
 49
0.0
 74
0
 49
-3.1749999999999998
 74
0
  0
LTYPE
  5
47
100
AcDbSymbolTableRecord
100
AcDbLinetypeTableRecord
  2
DASHDOTX2
 70
0
  3
Dash dot (2x) ____  .  ____  .  ____  .  ___
 72
65
 73
4
 40
50.7999999999999972
 49
25.3999999999999986
 74
0
 49
-12.6999999999999993
 74
0
 49
0.0
 74
0
 49
-12.6999999999999993
 74
0
  0
LTYPE
  5
48
100
AcDbSymbolTableRecord
100
AcDbLinetypeTableRecord
  2
ACAD_ISO05W100
 70
0
  3
ISO long-dash double-dot ____ .. ____ .. ____ . 
 72
65
 73
6
 40
33.0
 49
24.0
 74
0
 49
-3.0
 74
0
 49
0.0
 74
0
 49
-3.0
 74
0
 49
0.0
 74
0
 49
-3.0
 74
0
  0
LTYPE
  5
49
100
AcDbSymbolTableRecord
100
AcDbLinetypeTableRecord
  2
PHANTOM2
 70
0
  3
Phantom (.5x) ___ _ _ ___ _ _ ___ _ _ ___ _ _
 72
65
 73
6
 40
31.7500000000000036
 49
15.875
 74
0
 49
-3.1749999999999998
 74
0
 49
3.1749999999999998
 74
0
 49
-3.1749999999999998
 74
0
 49
3.1749999999999998
 74
0
 49
-3.1749999999999998
 74
0
  0
LTYPE
  5
4A
100
AcDbSymbolTableRecord
100
AcDbLinetypeTableRecord
  2
ACAD_ISO08W100
 70
0
  3
ISO long-dash short-dash ____ __ ____ __ ____ _
 72
65
 73
4
 40
36.0
 49
24.0
 74
0
 49
-3.0
 74
0
 49
6.0
 74
0
 49
-3.0
 74
0
  0
LTYPE
  5
4B
100
AcDbSymbolTableRecord
100
AcDbLinetypeTableRecord
  2
DASHDOT2
 70
0
  3
Dash dot (.5x) _._._._._._._._._._._._._._._.
 72
65
 73
4
 40
12.6999999999999993
 49
6.3499999999999996
 74
0
 49
-3.1749999999999998
 74
0
 49
0.0
 74
0
 49
-3.1749999999999998
 74
0
  0
LTYPE
  5
4C
100
AcDbSymbolTableRecord
100
AcDbLinetypeTableRecord
  2
DIVIDE
 70
0
  3
Divide ____ . . ____ . . ____ . . ____ . . ____
 72
65
 73
6
 40
31.75
 49
12.6999999999999993
 74
0
 49
-6.3499999999999996
 74
0
 49
0.0
 74
0
 49
-6.3499999999999996
 74
0
 49
0.0
 74
0
 49
-6.3499999999999996
 74
0
  0
LTYPE
  5
4D
100
AcDbSymbolTableRecord
100
AcDbLinetypeTableRecord
  2
BORDERX2
 70
0
  3
Border (2x) ____  ____  .  ____  ____  .  ___
 72
65
 73
6
 40
88.8999999999999915
 49
25.3999999999999986
 74
0
 49
-12.6999999999999993
 74
0
 49
25.3999999999999986
 74
0
 49
-12.6999999999999993
 74
0
 49
0.0
 74
0
 49
-12.6999999999999993
 74
0
  0
LTYPE
  5
4E
100
AcDbSymbolTableRecord
100
AcDbLinetypeTableRecord
  2
DOT2
 70
0
  3
Dot (.5x) ........................................
 72
65
 73
2
 40
3.1749999999999998
 49
0.0
 74
0
 49
-3.1749999999999998
 74
0
  0
LTYPE
  5
4F
100
AcDbSymbolTableRecord
100
AcDbLinetypeTableRecord
  2
ACAD_ISO04W100
 70
0
  3
ISO long-dash dot ____ . ____ . ____ . ____ . _
 72
65
 73
4
 40
30.0
 49
24.0
 74
0
 49
-3.0
 74
0
 49
0.0
 74
0
 49
-3.0
 74
0
  0
LTYPE
  5
50
100
AcDbSymbolTableRecord
100
AcDbLinetypeTableRecord
  2
ACAD_ISO13W100
 70
0
  3
ISO double-dash double-dot __ __ . . __ __ . . _
 72
65
 73
8
 40
36.0
 49
12.0
 74
0
 49
-3.0
 74
0
 49
12.0
 74
0
 49
-3.0
 74
0
 49
0.0
 74
0
 49
-3.0
 74
0
 49
0.0
 74
0
 49
-3.0
 74
0
  0
LTYPE
  5
51
100
AcDbSymbolTableRecord
100
AcDbLinetypeTableRecord
  2
DetailCircleISO
 70
0
  3

 72
65
 73
5
 40
13.7583333333334217
 49
4.23333333333336
 74
0
 49
-2.11666666666668
 74
0
 49
1.05833333333334
 74
0
 49
-2.11666666666668
 74
0
 49
4.23333333333336
 74
0
  0
LTYPE
  5
52
100
AcDbSymbolTableRecord
100
AcDbLinetypeTableRecord
  2
SectionLineISO
 70
0
  3

 72
65
 73
5
 40
13.7583333333334217
 49
4.23333333333336
 74
0
 49
-2.11666666666668
 74
0
 49
1.05833333333334
 74
0
 49
-2.11666666666668
 74
0
 49
4.23333333333336
 74
0
  0
LTYPE
  5
14
100
AcDbSymbolTableRecord
100
AcDbLinetypeTableRecord
  2
ByBlock
 70
0
  3

 72
65
 73
0
 40
0.0
  0
LTYPE
  5
53
100
AcDbSymbolTableRecord
100
AcDbLinetypeTableRecord
  2
DIVIDE2
 70
0
  3
Divide (.5x) __..__..__..__..__..__..__..__.._
 72
65
 73
6
 40
15.875
 49
6.3499999999999996
 74
0
 49
-3.1749999999999998
 74
0
 49
0.0
 74
0
 49
-3.1749999999999998
 74
0
 49
0.0
 74
0
 49
-3.1749999999999998
 74
0
  0
LTYPE
  5
15
100
AcDbSymbolTableRecord
100
AcDbLinetypeTableRecord
  2
ByLayer
 70
0
  3

 72
65
 73
0
 40
0.0
  0
LTYPE
  5
54
100
AcDbSymbolTableRecord
100
AcDbLinetypeTableRecord
  2
CENTER
 70
0
  3
Center ____ _ ____ _ ____ _ ____ _ ____ _ ____
 72
65
 73
4
 40
50.8000000000000043
 49
31.75
 74
0
 49
-6.3499999999999996
 74
0
 49
6.3499999999999996
 74
0
 49
-6.3499999999999996
 74
0
  0
LTYPE
  5
55
100
AcDbSymbolTableRecord
100
AcDbLinetypeTableRecord
  2
PHANTOMX2
 70
0
  3
Phantom (2x) ____________    ____    ____   _
 72
65
 73
6
 40
127.0000000000000142
 49
63.5
 74
0
 49
-12.6999999999999993
 74
0
 49
12.6999999999999993
 74
0
 49
-12.6999999999999993
 74
0
 49
12.6999999999999993
 74
0
 49
-12.6999999999999993
 74
0
  0
LTYPE
  5
56
100
AcDbSymbolTableRecord
100
AcDbLinetypeTableRecord
  2
ACAD_ISO03W100
 70
0
  3
ISO dash space __    __    __    __    __    __
 72
65
 73
2
 40
30.0
 49
12.0
 74
0
 49
-18.0
 74
0
  0
LTYPE
  5
57
100
AcDbSymbolTableRecord
100
AcDbLinetypeTableRecord
  2
CENTER2
 70
0
  3
Center (.5x) ___ _ ___ _ ___ _ ___ _ ___ _ ___
 72
65
 73
4
 40
28.5750000000000028
 49
19.0500000000000007
 74
0
 49
-3.1749999999999998
 74
0
 49
3.1749999999999998
 74
0
 49
-3.1749999999999998
 74
0
  0
LTYPE
  5
58
100
AcDbSymbolTableRecord
100
AcDbLinetypeTableRecord
  2
ACAD_ISO10W100
 70
0
  3
ISO dash dot __ . __ . __ . __ . __ . __ . __ . 
 72
65
 73
4
 40
18.0
 49
12.0
 74
0
 49
-3.0
 74
0
 49
0.0
 74
0
 49
-3.0
 74
0
  0
LTYPE
  5
59
100
AcDbSymbolTableRecord
100
AcDbLinetypeTableRecord
  2
CenterLine
 70
0
  3

 72
65
 73
4
 40
8.0
 49
5.0
 74
0
 49
-1.0
 74
0
 49
1.0
 74
0
 49
-1.0
 74
0
  0
LTYPE
  5
5A
100
AcDbSymbolTableRecord
100
AcDbLinetypeTableRecord
  2
SectionLineANSI
 70
0
  3

 72
65
 73
7
 40
11.9944444444445182
 49
4.23333333333336
 74
0
 49
-1.05833333333334
 74
0
 49
0.17638888888889
 74
0
 49
-1.05833333333334
 74
0
 49
0.17638888888889
 74
0
 49
-1.05833333333334
 74
0
 49
4.23333333333336
 74
0
  0
LTYPE
  5
5B
100
AcDbSymbolTableRecord
100
AcDbLinetypeTableRecord
  2
HIDDEN2
 70
0
  3
Hidden (.5x) _ _ _ _ _ _ _ _ _ _ _ _ _ _ _ _ _ 
 72
65
 73
2
 40
4.7624999999999993
 49
3.1749999999999998
 74
0
 49
-1.5874999999999999
 74
0
  0
ENDTAB
  0
TABLE
  2
LAYER
  5
2
100
AcDbSymbolTable
 70
4
  0
LAYER
  5
5C
100
AcDbSymbolTableRecord
100
AcDbLayerTableRecord
  2
Geometries
 70
0
 62
7
420
16777215
  6
Continuous
370
-3
390
F
  0
LAYER
  5
5D
100
AcDbSymbolTableRecord
100
AcDbLayerTableRecord
  2
Annotations
 70
0
 62
7
420
16777215
  6
Continuous
370
-3
390
F
  0
LAYER
  5
5E
100
AcDbSymbolTableRecord
100
AcDbLayerTableRecord
  2
Border
 70
0
 62
7
420
16777215
  6
Continuous
370
-3
390
F
  0
LAYER
  5
10
100
AcDbSymbolTableRecord
100
AcDbLayerTableRecord
  2
0
 70
0
 62
7
420
16777215
  6
Continuous
370
-3
390
F
  0
ENDTAB
  0
TABLE
  2
STYLE
  5
3
100
AcDbSymbolTable
 70
1
  0
STYLE
  5
5F
100
AcDbSymbolTableRecord
100
AcDbTextStyleTableRecord
  2
Standard
 70
0
 40
0.0
 41
1.0
 50
0.0
 71
0
 42
2.5
  3

  4

1001
ACAD
1000
txt
1071
0
  0
ENDTAB
  0
TABLE
  2
VIEW
  5
6
100
AcDbSymbolTable
 70
0
  0
ENDTAB
  0
TABLE
  2
UCS
  5
7
100
AcDbSymbolTable
 70
0
  0
ENDTAB
  0
TABLE
  2
APPID
  5
9
100
AcDbSymbolTable
 70
1
  0
APPID
  5
12
100
AcDbSymbolTableRecord
100
AcDbRegAppTableRecord
  2
ACAD
 70
0
  0
APPID
  5
60
100
AcDbSymbolTableRecord
100
AcDbRegAppTableRecord
  2
QCAD
 70
0
  0
ENDTAB
  0
TABLE
  2
DIMSTYLE
  5
A
100
AcDbSymbolTable
 70
1
100
AcDbDimStyleTable
 71
0
  0
DIMSTYLE
105
27
100
AcDbSymbolTableRecord
100
AcDbDimStyleTableRecord
  2
Standard
 41
2.5
 42
0.625
 43
3.75
 44
1.25
 70
0
 73
0
 74
0
 77
1
 78
8
140
2.5
141
2.5
143
0.03937007874016
147
0.7
171
3
172
1
271
2
272
2
274
3
278
44
283
0
284
8
340
5F
  0
ENDTAB
  0
TABLE
  2
BLOCK_RECORD
  5
1
100
AcDbSymbolTable
 70
1
  0
BLOCK_RECORD
  5
1F
100
AcDbSymbolTableRecord
100
AcDbBlockTableRecord
  2
*Model_Space
340
22
  0
BLOCK_RECORD
  5
1B
100
AcDbSymbolTableRecord
100
AcDbBlockTableRecord
  2
*Paper_Space
340
1E
  0
BLOCK_RECORD
  5
23
100
AcDbSymbolTableRecord
100
AcDbBlockTableRecord
  2
*Paper_Space0
340
26
  0
ENDTAB
  0
ENDSEC
  0
SECTION
  2
BLOCKS
  0
BLOCK
  5
20
100
AcDbEntity
  8
0
100
AcDbBlockBegin
  2
*Model_Space
 70
0
 10
0.0
 20
0.0
 30
0.0
  3
*Model_Space
  1

  0
ENDBLK
  5
21
100
AcDbEntity
  8
0
100
AcDbBlockEnd
  0
BLOCK
  5
1C
100
AcDbEntity
 67
1
  8
0
100
AcDbBlockBegin
  2
*Paper_Space
 70
0
 10
0.0
 20
0.0
 30
0.0
  3
*Paper_Space
  1

  0
ENDBLK
  5
1D
100
AcDbEntity
 67
1
  8
0
100
AcDbBlockEnd
  0
BLOCK
  5
24
100
AcDbEntity
  8
0
100
AcDbBlockBegin
  2
*Paper_Space0
 70
0
 10
0.0
 20
0.0
 30
0.0
  3
*Paper_Space0
  1

  0
ENDBLK
  5
25
100
AcDbEntity
  8
0
100
AcDbBlockEnd
  0
ENDSEC
  0
SECTION
  2
ENTITIES
  0
LWPOLYLINE
  5
61
100
AcDbEntity
  8
Geometries
 62
256
370
0
 48
1.0
  6
Continuous
100
AcDbPolyline
 90
90
 70
128
 10
32.8408887484173135
 20
159.9170251979008128
 10
32.8115246447212883
 20
159.8019429086043885
 10
32.7854169798055821
 20
159.6859811105852884
 10
32.7589681417070224
 20
159.5481896726060995
 10
32.73739356886054
 20
159.4094588108401069
 10
32.7208788387953007
 20
159.2700451194288007
 10
32.7096095290405913
 20
159.1302051925136993
 10
32.7036903533445695
 20
158.9866516397378859
 10
32.7035997892380124
 20
158.8428536939489106
 10
32.7094697003713932
 20
158.6991862295865019
 10
32.7214319503953774
 20
158.5560241210907009
 10
32.7390072709202968
 20
158.417529601515696
 10
32.7624806104754214
 20
158.2799130230255003
 10
32.7921350276481292
 20
158.1424260714825891
 10
32.8277207815569625
 20
158.0063521999695126
 10
32.8702017564015705
 20
157.8685112003107065
 10
32.9185337083611103
 20
157.7324782158414109
 10
32.9724239272570117
 20
157.5985357088513865
 10
33.0315797029111877
 20
157.4669661416305075
 10
33.1064185371027691
 20
157.3175646989211884
 10
33.1876334028563917
 20
157.1715264253946032
 10
33.2754681465783619
 20
157.0279818305698996
 10
33.3689704815108072
 20
156.8880582277849101
 10
33.4699341759206277
 20
156.7489468918211912
 10
33.5760922780628377
 20
156.6136140570868918
 10
33.6870070609864172
 20
156.4821259166884033
 10
33.8022407977396711
 20
156.3545486637318902
 10
33.9166558815961068
 20
156.2355914339223091
 10
34.0344520206659524
 20
156.1199289829170027
 10
34.1552836182240966
 20
156.0074809672927074
 10
34.2796553809426072
 20
155.8974448849222938
 10
34.4066287176496814
 20
155.7903820394581089
 10
34.5359559215882328
 20
155.6862053805500068
 10
34.696454547538373
 20
155.562972598191692
 10
34.8599399463850474
 20
155.4436078293338994
 10
35.0261359045667575
 20
155.3279758529639878
 10
35.1947662085204911
 20
155.2159414480694863
 10
35.3655546446842095
 20
155.1073693936378106
 10
35.5910826216716885
 20
154.970814587789107
 10
35.8197641689761781
 20
154.8395310407850047
 10
36.051223413666321
 20
154.7132681754262933
 10
36.2860957385084077
 20
154.5912278735023904
 10
36.5232319936464194
 20
154.4735899665039938
 10
36.7623577555981527
 20
154.3600924451170044
 10
37.050591727798377
 20
154.2294258423023905
 10
37.3411670970446323
 20
154.103899838425292
 10
37.6338358623541822
 20
153.9832417120059063
 10
37.9283500227435582
 20
153.8671787415640893
 10
38.2244615772294978
 20
153.7554382056204076
 10
38.5965051571745335
 20
153.6215241721756968
 10
38.9707041971147135
 20
153.4936105224774963
 10
39.3467996860627167
 20
153.3713483553933088
 10
39.7245326130318119
 20
153.2543887697910066
 10
40.1355665472837018
 20
153.1331814340989013
 10
40.548192975030787
 20
153.0173841677259929
 10
40.9622276324215591
 20
152.9066979759757885
 10
41.3774862556044809
 20
152.8008238641517096
 10
41.8754350296445566
 20
152.6801580641709961
 10
42.37489052213175
 20
152.5656279721544877
 10
42.8756961824198584
 20
152.4569564692451138
 10
43.3776954598627427
 20
152.3538664365856903
 10
43.8807318038142924
 20
152.2560807553192888
 10
44.3846486636280417
 20
152.1633223065890093
 10
44.9902820577743796
 20
152.0583167459199103
 10
45.5970781989778686
 20
151.959940408894596
 10
46.204908718555572
 20
151.8680240781121995
 10
46.8136452478228833
 20
151.7823985361717973
 10
47.423159418096418
 20
151.7028945656722954
 10
47.9315064513436084
 20
151.6412957962978965
 10
48.4403656993850689
 20
151.5840015799649905
 10
48.9496876019776366
 20
151.5310696757414064
 10
49.4598233819521269
 20
151.4824930257740903
 10
49.970412873858443
 20
151.4388336069656873
 10
50.481440069347002
 20
151.4008931470009998
 10
51.0087402937107584
 20
151.367271735463703
 10
51.5362279701390378
 20
151.3365835561995993
 10
52.0637454515141869
 20
151.3064005675674082
 10
53.6462507143396294
 20
151.2148432411619012
 10
56.7134410162551319
 20
151.0411226479031939
 10
59.7809048547184716
 20
150.8722329013224055
 10
62.848627232283377
 20
150.7081023896965917
 10
65.9165931515040313
 20
150.5486595013028932
 10
68.984799097584073
 20
150.3938840779609905
 10
72.0532484429972442
 20
150.2439295970665114
 10
75.1219379484310537
 20
150.0989848271694029
 10
78.1908643745736072
 20
149.9592385368196119
 10
81.4411046412564588
 20
149.8171534585472955
 10
84.6916295963064272
 20
149.6815645233747887
 10
87.9424363694786564
 20
149.5529576440121957
 10
91.1935220905278072
 20
149.4318187331697914
  0
LWPOLYLINE
  5
62
100
AcDbEntity
  8
Geometries
 62
256
370
0
 48
1.0
  6
Continuous
100
AcDbPolyline
 90
31
 70
128
 10
395.700641718442796
 20
157.411671388193696
 10
395.8787569232155192
 20
157.4623558505973051
 10
395.9671692189651253
 20
157.4903733396675136
 10
396.0549286700335756
 20
157.5203685797407047
 10
396.166050286285099
 20
157.5619026977981889
 10
396.2756341952446064
 20
157.6074213332738054
 10
396.3832120245231181
 20
157.657360272076204
 10
396.4638012547289918
 20
157.6988106760875041
 10
396.5427772055426772
 20
157.743421571848387
 10
396.619733815557197
 20
157.7913772424477088
 10
396.6942650233655741
 20
157.8428619709744112
 10
396.750969815055214
 20
157.8859970598454083
 10
396.8057557892151976
 20
157.9315401845458098
 10
396.8588214206961879
 20
157.9799581050056076
 10
396.9094664199042768
 20
158.0308987114379988
 10
396.9593332911010179
 20
158.0865891912818881
 10
397.0061108422918892
 20
158.1449685129242937
 10
397.0495044362958197
 20
158.2058302468581985
 10
397.0904678618924208
 20
158.2710048999163917
 10
397.127585876342323
 20
158.3385205378098135
 10
397.1607248320610211
 20
158.4080057524271865
 10
397.1890727158335039
 20
158.4771358119427873
 10
397.2137693008992869
 20
158.5477110161340875
 10
397.2348870492473907
 20
158.6193924529497963
 10
397.2529131300962035
 20
158.6935850222062925
 10
397.2675578659756184
 20
158.7685623153626864
 10
397.2790093074110018
 20
158.8440618785033962
 10
397.2883159993994013
 20
158.9291910190075043
 10
397.294176991475922
 20
159.0146307517505875
 10
397.2968896450204852
 20
159.1007217909402129
 10
397.2966879014089159
 20
159.1868583793929872
  0
LINE
  5
63
100
AcDbEntity
  8
Geometries
 62
256
370
0
 48
1.0
  6
Continuous
100
AcDbLine
 10
223.2534270656636863
 20
169.4668839960731077
 30
0.0
 11
223.2534270656636863
 21
149.7551282952404108
 31
0.0
  0
LWPOLYLINE
  5
64
100
AcDbEntity
  8
Geometries
 62
256
370
0
 48
1.0
  6
Continuous
100
AcDbPolyline
 90
34
 70
128
 10
397.2966879014089159
 20
159.1868583793929872
 10
397.2951968151828055
 20
159.490085932870187
 10
397.2930176862553253
 20
159.7933097823033108
 10
397.2917232221577137
 20
159.8930438205852056
 10
397.2876054897118934
 20
159.9926591836338048
 10
397.2812979757374023
 20
160.0425478497716085
 10
397.2730350910107973
 20
160.0922216172498054
 10
397.2567080655704217
 20
160.1916602623294068
 10
397.2361262338769734
 20
160.2927561872803039
 10
397.2111402674386795
 20
160.3929680865387866
 10
397.1814777576395841
 20
160.4918624411619135
 10
397.1468662958637879
 20
160.5890057322064877
 10
397.1067490899350219
 20
160.6852248041545863
 10
397.0616080433625257
 20
160.7792695222049986
 10
397.011529305955321
 20
160.8706922572465885
 10
396.9548202148400833
 20
160.9616591584866114
 10
396.8928472824700862
 20
161.0492351898284085
 10
396.8258549048316013
 20
161.132910226825004
 10
396.7560391916210847
 20
161.2104055880803912
 10
396.681909321033686
 20
161.2839016165306987
 10
396.603778382030896
 20
161.3529989826822941
 10
396.5191426774587171
 20
161.4193661310883954
 10
396.4306120272916019
 20
161.4806138307613139
 10
396.3387025738970806
 20
161.5364859844902128
 10
396.2495083424212794
 20
161.5839304658827018
 10
396.157715386130576
 20
161.6263161832054891
 10
396.0637290897586809
 20
161.6633559793193058
 10
395.9649164197426785
 20
161.695850107564695
 10
395.8643505664176132
 20
161.7227586735556883
 10
395.7625336285886988
 20
161.7440888546435076
 10
395.6720599008339718
 20
161.7582766565259931
 10
395.5810115444651842
 20
161.7681185368043941
 10
395.4887042123398828
 20
161.7735510849817899
 10
395.3962439722150748
 20
161.774247887522705
  0
LWPOLYLINE
  5
65
100
AcDbEntity
  8
Geometries
 62
256
370
0
 48
1.0
  6
Continuous
100
AcDbPolyline
 90
32
 70
128
 10
91.2935218527364611
 20
149.4282165053733991
 10
92.4185423548848206
 20
149.3882304224715085
 10
94.5464929327962977
 20
149.3153455964452121
 10
96.6745735823811003
 20
149.2462478276061972
 10
98.8027813724127526
 20
149.1812154718637942
 10
100.931113371665603
 20
149.1205268851269921
 10
103.0595874493168935
 20
149.0644502922883134
 10
105.188194433289695
 20
149.0133866093273127
 10
107.3169237703782954
 20
148.9678123245919039
 10
109.4457649073767982
 20
148.9282039264296884
 10
110.8655474204058038
 20
148.9053016508900953
 10
112.2853781037715066
 20
148.8855099945197082
 10
113.7052510137876027
 20
148.8692430709332939
 10
115.1252392609476942
 20
148.8569575477584976
 10
116.5452573037430994
 20
148.8483063899996921
 10
117.9652889198354018
 20
148.8424958534664881
 10
120.5203247102265038
 20
148.8369994160933913
 10
123.0753704020340962
 20
148.8366512516712987
 10
125.6304183422083014
 20
148.8405372619654088
 10
128.1854608776974089
 20
148.8477433487406927
 10
130.7404903554511009
 20
148.8573554137626047
 10
134.9989775016130977
 20
148.8774766810255983
 10
139.2574420317075976
 20
148.9021921415111933
 10
143.515883117879099
 20
148.9305826717096011
 10
149.9032542221785036
 20
148.9784243249042106
 10
156.2905850881990091
 20
149.0315854653300107
 10
162.6778788181647997
 20
149.0891626729045072
 10
169.065138514300088
 20
149.1502525275450068
 10
177.6045645276809921
 20
149.2362983932140992
 10
186.1439461168972116
 20
149.3267099906337876
 10
194.6832881494578089
 20
149.4207578024443137
 10
206.8534270996806015
 20
149.5599209197478956
  0
LWPOLYLINE
  5
66
100
AcDbEntity
  8
Geometries
 62
256
370
0
 48
1.0
  6
Continuous
100
AcDbPolyline
 90
246
 70
128
 10
395.3962439722150748
 20
161.774247887522705
 10
391.8966410698978962
 20
161.715610117985193
 10
388.3969375942455144
 20
161.6629174015496915
 10
384.8971511069318012
 20
161.6157932357988898
 10
381.397299169629207
 20
161.5738611183151932
 10
377.8973993440108075
 20
161.5367445466812057
 10
374.3974544212375122
 20
161.5043966562176081
 10
370.8974580676227788
 20
161.477247162024895
 10
367.3974222144466921
 20
161.4556345115445879
 10
363.8973587929883138
 20
161.4398971522184922
 10
360.3972797345268191
 20
161.4303735314879873
 10
357.4805029812152952
 20
161.4274187030109999
 10
354.5637103135546226
 20
161.4294455798338106
 10
351.6469235249862209
 20
161.4370312269853969
 10
348.7301644089511115
 20
161.4507527094947932
 10
345.8134547588895202
 20
161.4711870923908918
 10
342.8968163682428099
 20
161.4989114407028126
 10
340.7071806104381722
 20
161.5249465235762898
 10
338.5176044682038992
 20
161.5560939547472117
 10
336.3281209924713835
 20
161.5930024802574962
 10
334.1387632341724725
 20
161.636320846148891
 10
332.6790285966862939
 20
161.6690346883515019
 10
331.2193587832518915
 20
161.7051644381793949
 10
329.7597876435489752
 20
161.7451864344955936
 10
328.3003490272570843
 20
161.7895770161632072
 10
326.8410767840558719
 20
161.8388125220452025
 10
325.3820047636248205
 20
161.8933692910046034
 10
324.2950195067193135
 20
161.9378110158615129
 10
323.2081847403330812
 20
161.9859657944047058
 10
322.1215480711667851
 20
162.0383278309199113
 10
321.0351571059209164
 20
162.0953913296924043
 10
320.1658869722875806
 20
162.1450414607784865
 10
319.296850647853887
 20
162.1990729980365984
 10
318.428145054642016
 20
162.2581552462538923
 10
317.5598671146714764
 20
162.3229575102176057
 10
316.6921137499642214
 20
162.3941490947152033
 10
315.8251822117840106
 20
162.4715149232679039
 10
314.9587152885022192
 20
162.5540934150544956
 10
314.0926949768924032
 20
162.6413595683210076
 10
313.2271032737272094
 20
162.7327883813132132
 10
312.3619221757796822
 20
162.8278548522769995
 10
311.2804597440531893
 20
162.9512109046457908
 10
310.1995128641042925
 20
163.0790767366337093
 10
309.1190481603287026
 20
163.2109815633874064
 10
308.0390322571215052
 20
163.3464546000535904
 10
306.3127304813414753
 20
163.5694804186150861
 10
304.5873303590814771
 20
163.7994786483733094
 10
302.8627404873043929
 20
164.0355682290361869
 10
301.1388694629720817
 20
164.2768681003119866
 10
299.4156258830469142
 20
164.5224972019086067
 10
297.2351740306517058
 20
164.8386079609277033
 10
295.0554678023689803
 20
165.1598547383362074
 10
292.8764022036609163
 20
165.4854385261490108
 10
290.6978722399886124
 20
165.8145603163812893
 10
287.256610541765383
 20
166.340099526420687
 10
283.8161718816986081
 20
166.8710166008486908
 10
280.3763483532778764
 20
167.4059356655916133
 10
276.9369320499923219
 20
167.9434808465755111
 10
273.4977150653310218
 20
168.4822762697268956
 10
269.19869928646159
 20
169.1558666036904128
 10
264.8995046860495108
 20
169.8283195829137924
 10
260.5999211264715996
 20
170.4982715443715051
 10
256.2997384701059218
 20
171.1643588250381072
 10
253.1717780535240934
 20
171.6456395848198895
 10
250.0433220641484127
 20
172.1238471323688088
 10
246.9143292287255065
 20
172.5986270256684918
 10
243.784758274001689
 20
173.0696248227021954
 10
240.6545679267233879
 20
173.5364860814534893
 10
237.5237169136374007
 20
173.9988563599058011
 10
234.3921639614902119
 20
174.4563812160425869
 10
231.2598677970285053
 20
174.9087062078471888
 10
228.1267871469981969
 20
175.3554768933032051
 10
224.9928807381463969
 20
175.7963388303940064
 10
221.8581072972195898
 20
176.230937577102992
 10
218.9387098725269993
 20
176.6296439787575139
 10
216.0184984915856035
 20
177.0223931372854906
 10
213.0974594399575892
 20
177.4089308970455932
 10
210.1755790032053142
 20
177.7890031023962933
 10
207.8374362047561874
 20
178.0882001487279069
 10
205.49871011704289
 20
178.3828639283059942
 10
203.1593939000696025
 20
178.6728181369350068
 10
200.8194807138386864
 20
178.9578864704195951
 10
198.4789637183534978
 20
179.2378926245642106
 10
196.1369601919138006
 20
179.5127753817193081
 10
193.7943215542219946
 20
179.7822820851324082
 10
191.4510506205405989
 20
180.0462564035316859
 10
189.1071502061309104
 20
180.3045420056456862
 10
186.7626231262543968
 20
180.5569825602024991
 10
185.1736445977184076
 20
180.7246055159793059
 10
183.5843649783373905
 20
180.8893487923016892
 10
181.9947590795565873
 20
181.0511301974308083
 10
180.4048461394583001
 20
181.2098652377524957
 10
178.2844752924065119
 20
181.4166319229155988
 10
176.1635438117531862
 20
181.6176528344958001
 10
174.042059892113798
 20
181.8127472219408105
 10
171.9200317281029982
 20
182.0017343346983125
 10
169.7974436170856052
 20
182.1844534927109009
 10
167.674300745385608
 20
182.3607329115702953
 10
165.5506185306203122
 20
182.5303772958162938
 10
163.4264123904077053
 20
182.6931913499886946
 10
161.7256696485160887
 20
182.8184287674903032
 10
160.0245763272214958
 20
182.9389641971488061
 10
158.3231442621066094
 20
183.0546569565485981
 10
156.6213852887532028
 20
183.1653663632737903
 10
154.9193112427437882
 20
183.270951734908806
 10
153.2376629679087898
 20
183.3700952786570895
 10
151.5557039087483133
 20
183.463973357510497
 10
149.8734515797088989
 20
183.5524224090083862
 10
148.1909234952368877
 20
183.6352788706903141
 10
146.5081081476083966
 20
183.7123636378574929
 10
144.8250189418791081
 20
183.7834799568229869
 10
143.1416821151256045
 20
183.848439153705101
 10
141.4581239044242977
 20
183.907052554621913
 10
139.7730473724772935
 20
183.9591917507854077
 10
138.0877684547893125
 20
184.0047876132369993
 10
136.4023256712831085
 20
184.0438688946437935
 10
134.716757541881293
 20
184.0764643476726974
 10
133.0324134365905024
 20
184.1035177766401887
 10
131.3479927738366939
 20
184.1258353689989065
 10
129.6635148027770867
 20
184.1431705477307901
 10
127.9789987725687013
 20
184.1552767358182905
 10
126.2944355738416959
 20
184.1619246441661062
 10
124.6098492262868973
 20
184.1628697769558869
 10
122.9252718634715933
 20
184.157842952695006
 10
121.240735618964095
 20
184.1465749898908086
 10
119.5550435137213015
 20
184.1287412929333982
 10
117.8694233936758025
 20
184.1040248640705954
 10
116.1839259525625039
 20
184.0721368161960072
 10
114.4986018841151036
 20
184.0327882622028994
 10
113.1514113300775932
 20
183.9957490073007875
 10
111.8043559529725997
 20
183.9535391773299011
 10
110.4574755333968028
 20
183.9059720228528931
 10
109.1108098519456036
 20
183.852860794432786
 10
107.7643986892150991
 20
183.7940187426324883
 10
106.4182255013737972
 20
183.7292882286776887
 10
105.0723341788296068
 20
183.6584979228503016
 10
103.7267823238540956
 20
183.5814371977189126
 10
102.3816275387187034
 20
183.4978954258523061
 10
101.0369274256949979
 20
183.4076619798190961
 10
99.6899873143435684
 20
183.3103490045330091
 10
98.3435462378117506
 20
183.2059600866182905
 10
96.9976808180030048
 20
183.0943053495402921
 10
95.6524676768188158
 20
182.9751949167643943
 10
94.3079834361620186
 20
182.8484389117558919
 10
93.0143064312239147
 20
182.7189745419001099
 10
91.7213753236025013
 20
182.5820516939222102
 10
90.4292707101953823
 20
182.4375498277034922
 10
89.1380731879002752
 20
182.285348403125596
 10
88.1057827228535473
 20
182.1579536464977878
 10
87.0741128205977759
 20
182.0254703630560016
 10
86.0431130465075
 20
181.8878268889571928
 10
85.0128329659559938
 20
181.744951560358686
 10
83.9833221443169577
 20
181.5967727134174936
 10
82.9545857551915731
 20
181.4432312233496134
 10
81.9266455773172595
 20
181.2843040924890943
 10
80.8995490125920185
 20
181.1199698793762991
 10
79.8733434629132262
 20
180.9502071425515908
 10
78.848076330177804
 20
180.774994440555389
 10
77.8173598762878385
 20
180.5931350124425023
 10
76.7876244089822819
 20
180.4056702111288075
 10
75.7589179551533505
 20
180.2125972550360871
 10
74.7312885416924644
 20
180.0139133625860097
 10
73.7047841954912428
 20
179.8096157521999885
 10
72.5372373722892689
 20
179.5701537067531888
 10
71.3711587950012643
 20
179.3234794185183034
 10
70.2066061081722239
 20
179.0696436785551953
 10
69.0436369563468872
 20
178.8086972779231871
 10
67.8823089840702494
 20
178.5406910076821134
 10
66.7226378532358808
 20
178.2656637124705128
 10
65.5646044958106131
 20
177.9836912383620131
 10
64.4082439222172525
 20
177.6948867715003075
 10
63.2535911428770135
 20
177.399363498028805
 10
62.1006811682120201
 20
177.0972346040909997
 10
61.3809690356542887
 20
176.9054217841000991
 10
60.6618935051749588
 20
176.711211321261203
 10
59.9436746638781131
 20
176.5138790193140892
 10
59.2265325988684879
 20
176.3127006819987059
 10
58.5104319721690231
 20
176.1062391420223037
 10
57.7960812513371991
 20
175.8937054781071083
 10
57.0835973755465034
 20
175.6750019661598117
 10
56.3730972839705871
 20
175.4500308820869918
 10
55.6545724930109031
 20
175.2153897864913858
 10
54.9382005496835006
 20
174.9741531150156106
 10
54.2241246733269691
 20
174.7262103544869092
 10
53.5124880832802887
 20
174.4714509917328087
 10
52.94414706618835
 20
174.2623135693584118
 10
52.3774709893257011
 20
174.0486191462138095
 10
51.8125412590477978
 20
173.8303257369923926
 10
51.2494392817098117
 20
173.607391356387609
 10
50.6882464636667933
 20
173.3797740190927072
 10
50.1378476978801473
 20
173.1511056827274899
 10
49.5893973584323078
 20
172.9177122821220962
 10
49.0430033762034228
 20
172.6795215455030075
 10
48.4987736820727093
 20
172.4364612010965061
 10
47.9568162069197399
 20
172.1884589771291871
 10
47.4171435919660667
 20
171.9354246782606879
 10
46.879847547189371
 20
171.6772813734430088
 10
46.3450694147044331
 20
171.4139372255918943
 10
45.8129505366252872
 20
171.1453003976234015
 10
45.2836322550664079
 20
170.8712790524535876
 10
44.7571439460265026
 20
170.5917176932042878
 10
44.2336339748731575
 20
170.3064992999123035
 10
43.7132887323834893
 20
170.0155197953610866
 10
43.1962946093335276
 20
169.7186751023340889
 10
42.6828379964997922
 20
169.4158611436145918
 10
42.2469261230704873
 20
169.152219804405604
 10
41.8137663990536907
 20
168.8839510579458931
 10
41.3835383841773421
 20
168.6109554422152996
 10
40.9564216381698429
 20
168.3331334951934082
 10
40.5325957207595593
 20
168.0503857548602014
 10
40.1122401916741822
 20
167.7626127591954059
 10
39.7058178325993367
 20
167.4770157022211094
 10
39.3029853988750233
 20
167.1863059674955139
 10
38.9039993952701479
 20
166.8903497269114098
 10
38.5091163265536522
 20
166.5890131523617868
 10
38.1962458833630478
 20
166.3439043267273121
 10
37.8862515694510478
 20
166.0950904967154997
 10
37.5793398048699601
 20
165.8424699311215988
 10
37.2757170096712969
 20
165.5859408987410859
 10
36.9755896039072809
 20
165.325401668369409
 10
36.6748064875081425
 20
165.0567896427627943
 10
36.3780160158065087
 20
164.7836485178972907
 10
36.0855950386256623
 20
164.5058178761354952
 10
35.7979204057882612
 20
164.2231372998396068
 10
35.515368967116963
 20
163.9354463713719099
 10
35.3057221912692967
 20
163.7148400822225085
 10
35.0994156210355968
 20
163.4910550136470135
 10
34.8967505450707165
 20
163.2639787160090918
 10
34.6980282520299923
 20
163.0334987396726092
 10
34.5025183660455923
 20
162.7982153600412971
 10
34.3116582105395196
 20
162.5590580338214863
 10
34.1260011248264732
 20
162.315866055796306
 10
33.9461004482208182
 20
162.0684787207489137
 10
33.7946078569446797
 20
161.8495040401215022
 10
33.6484256628801006
 20
161.6269087307697987
 10
33.5082186550204426
 20
161.4005637542391014
 10
33.4072932480044429
 20
161.2280766248709085
 10
33.3104826440513833
 20
161.0531716293477871
 10
33.2183161724263698
 20
160.8758020816729015
 10
33.1313231623944731
 20
160.6959212958493879
 10
33.0744538608768366
 20
160.5699253464725871
 10
33.0205916049939674
 20
160.4425959710976031
 10
32.9700378922636332
 20
160.3139443792555028
 10
32.9227831982505279
 20
160.1830339139812907
 10
32.8795786894387234
 20
160.0507011476603054
 10
32.8408887484173135
 20
159.9170251979008981
  0
LINE
  5
67
100
AcDbEntity
  8
Geometries
 62
256
370
0
 48
1.0
  6
Continuous
100
AcDbLine
 10
91.1935220905278072
 20
149.4318187331697914
 30
0.0
 11
91.1935107124380124
 21
152.8482438921620883
 31
0.0
  0
ARC
  5
68
100
AcDbEntity
  8
Geometries
 62
256
370
0
 48
1.0
  6
Continuous
100
AcDbCircle
 10
91.2935107124378931
 20
160.9476265846886918
 30
0.0
 40
8.0999999999999996
100
AcDbArc
 50
270.0000000000006821
 51
269.2926267274514203
  0
LINE
  5
69
100
AcDbEntity
  8
Geometries
 62
256
370
0
 48
1.0
  6
Continuous
100
AcDbLine
 10
206.8534270656637091
 20
149.5599237549647
 30
0.0
 11
206.8534270656637091
 21
169.4668839960731077
 31
0.0
  0
LWPOLYLINE
  5
6A
100
AcDbEntity
  8
Geometries
 62
256
370
0
 48
1.0
  6
Continuous
100
AcDbPolyline
 90
49
 70
128
 10
223.2534269739549018
 20
149.7551264999952991
 10
226.6369261642130937
 20
149.7963077556958069
 10
239.0304026730254918
 20
149.9493483538809073
 10
251.4238433637268031
 20
150.1052671992619878
 10
253.9025428004678133
 20
150.1363209673529013
 10
256.3812419186659781
 20
150.1678382696277083
 10
258.8599074885564164
 20
150.2016178292813038
 10
261.3385062803723144
 20
150.2394583695090944
 10
263.8170050643478248
 20
150.2831586135060888
 10
266.2955599438787999
 20
150.3332994388003101
 10
268.7740027116869896
 20
150.3890562912395978
 10
271.2523245137634262
 20
150.4501294812164929
 10
273.7305164960973798
 20
150.5162193191233939
 10
276.208569804679712
 20
150.587026115352387
 10
279.3058285270417969
 20
150.6817291414953104
 10
282.4028925527017009
 20
150.7829887554622132
 10
285.4997569413541783
 20
150.8905151525765973
 10
288.5964167526930737
 20
151.0040185281617937
 10
291.692867046412573
 20
151.1232090775413042
 10
294.7891028822073167
 20
151.2477969960384883
 10
297.8851193197708085
 20
151.3774924789767908
 10
300.9809114187976888
 20
151.5120057216794862
 10
304.5220885911181199
 20
151.6715011182758133
 10
308.0630083158247885
 20
151.8368012725968867
 10
311.6036693895404142
 20
152.0076923690128865
 10
315.1440706088865227
 20
152.183960591894305
 10
318.6842107704849241
 20
152.3653921256112085
 10
322.2240886709578831
 20
152.5517731545338904
 10
325.7637031069272098
 20
152.7428898630327865
 10
330.1374796540666239
 20
152.9853693728620101
 10
334.5108787891485917
 20
153.2346530573103962
 10
338.8838966028777122
 20
153.4905480004759113
 10
343.2565291859589252
 20
153.7528612864566071
 10
347.6287787210799252
 20
154.0214059706954117
 10
352.0006516484980921
 20
154.2960813516762073
 10
356.3721393685211183
 20
154.5768232055698093
 10
360.7432332814569236
 20
154.8635673085466067
 10
365.1139345107598047
 20
155.1562521892718962
 10
369.4842278716051283
 20
155.4550316375342902
 10
373.8540815458807742
 20
155.760164403648389
 10
378.2234637154754182
 20
156.0719092379285939
 10
381.1371647884125764
 20
156.2836627187305965
 10
384.0506131480756267
 20
156.49887690931169
 10
386.9637697161138021
 20
156.7179854292315895
 10
389.1484600163939263
 20
156.8852170266517874
 10
391.3329075254803797
 20
157.0555862587739
 10
392.7890784578088983
 20
157.1711084542500885
 10
394.2450405276186984
 20
157.2892357104481107
 10
395.700641718442796
 20
157.411671388193696
  0
LINE
  5
6B
100
AcDbEntity
  8
Geometries
 62
256
370
0
 48
1.0
  6
Continuous
100
AcDbLine
 10
91.2935107124379925
 20
152.8476265846886974
 30
0.0
 11
91.2935218527364611
 21
149.4282165053733991
 31
0.0
  0
LINE
  5
6C
100
AcDbEntity
  8
Geometries
 62
256
370
0
 48
1.0
  6
Continuous
100
AcDbLine
 10
206.8534270656637091
 20
169.4668839960731077
 30
0.0
 11
223.2534270656636863
 21
169.4668839960731077
 31
0.0
  0
ENDSEC
  0
SECTION
  2
OBJECTS
  0
DICTIONARY
  5
C
100
AcDbDictionary
280
0
281
1
  3
ACAD_GROUP
350
D
  3
ACAD_LAYOUT
350
1A
  3
ACAD_MLINESTYLE
350
17
  3
ACAD_PLOTSETTINGS
350
19
  3
ACAD_PLOTSTYLENAME
350
E
  3
AcDbVariableDictionary
350
6D
  3
QCAD_OBJECTS
350
6E
  0
DICTIONARY
  5
D
100
AcDbDictionary
280
0
281
1
  0
ACDBDICTIONARYWDFLT
  5
E
100
AcDbDictionary
281
1
  3
Normal
350
F
100
AcDbDictionaryWithDefault
340
F
  0
ACDBPLACEHOLDER
  5
F
  0
DICTIONARY
  5
17
100
AcDbDictionary
280
0
281
1
  3
Standard
350
18
  0
MLINESTYLE
  5
18
100
AcDbMlineStyle
  2
STANDARD
 70
0
  3

 62
256
 51
90.0
 52
90.0
 71
2
 49
0.5
 62
256
  6
BYLAYER
 49
-0.5
 62
256
  6
BYLAYER
  0
DICTIONARY
  5
19
100
AcDbDictionary
280
0
281
1
  0
DICTIONARY
  5
1A
100
AcDbDictionary
281
1
  3
Layout1
350
1E
  3
Layout2
350
26
  3
Model
350
22
  0
LAYOUT
  5
1E
100
AcDbPlotSettings
  1

  2
none_device
  4

  6

 40
0.0
 41
0.0
 42
0.0
 43
0.0
 44
0.0
 45
0.0
 46
0.0
 47
0.0
 48
0.0
 49
0.0
140
0.0
141
0.0
142
1.0
143
1.0
 70
688
 72
0
 73
0
 74
5
  7

 75
16
147
1.0
148
0.0
149
0.0
100
AcDbLayout
  1
Layout1
 70
1
 71
1
 10
0.0
 20
0.0
 11
420.0
 21
297.0
 12
0.0
 22
0.0
 32
0.0
 14
100000000000000000000.0
 24
100000000000000000000.0
 34
100000000000000000000.0
 15
-100000000000000000000.0
 25
-100000000000000000000.0
 35
-100000000000000000000.0
146
0.0
 13
0.0
 23
0.0
 33
0.0
 16
1.0
 26
0.0
 36
0.0
 17
0.0
 27
1.0
 37
0.0
 76
0
330
1B
  0
LAYOUT
  5
22
100
AcDbPlotSettings
  1

  2
none_device
  4

  6

 40
0.0
 41
0.0
 42
0.0
 43
0.0
 44
0.0
 45
0.0
 46
0.0
 47
0.0
 48
0.0
 49
0.0
140
0.0
141
0.0
142
1.0
143
1.0
 70
1712
 72
0
 73
0
 74
0
  7

 75
0
147
1.0
148
0.0
149
0.0
100
AcDbLayout
  1
Model
 70
1
 71
0
 10
0.0
 20
0.0
 11
12.0
 21
9.0
 12
0.0
 22
0.0
 32
0.0
 14
0.0
 24
0.0
 34
0.0
 15
0.0
 25
0.0
 35
0.0
146
0.0
 13
0.0
 23
0.0
 33
0.0
 16
1.0
 26
0.0
 36
0.0
 17
0.0
 27
1.0
 37
0.0
 76
0
330
1F
  0
LAYOUT
  5
26
100
AcDbPlotSettings
  1

  2
none_device
  4

  6

 40
0.0
 41
0.0
 42
0.0
 43
0.0
 44
0.0
 45
0.0
 46
0.0
 47
0.0
 48
0.0
 49
0.0
140
0.0
141
0.0
142
1.0
143
1.0
 70
688
 72
0
 73
0
 74
5
  7

 75
16
147
1.0
148
0.0
149
0.0
100
AcDbLayout
  1
Layout2
 70
1
 71
2
 10
0.0
 20
0.0
 11
12.0
 21
9.0
 12
0.0
 22
0.0
 32
0.0
 14
0.0
 24
0.0
 34
0.0
 15
0.0
 25
0.0
 35
0.0
146
0.0
 13
0.0
 23
0.0
 33
0.0
 16
1.0
 26
0.0
 36
0.0
 17
0.0
 27
1.0
 37
0.0
 76
0
330
23
  0
DICTIONARY
  5
6D
100
AcDbDictionary
281
1
  3
DIMASSOC
350
70
  3
HIDETEXT
350
6F
  0
DICTIONARYVAR
  5
6F
100
DictionaryVariables
280
0
  1
2
  0
DICTIONARYVAR
  5
70
100
DictionaryVariables
280
0
  1
1
  0
DICTIONARY
  5
6E
100
AcDbDictionary
281
1
  3
ColorSettings/BackgroundColor
350
71
  3
ColorSettings/ColorMode
350
72
  3
Grid/DisplayGrid00
350
73
  3
Grid/DisplayGrid01
350
74
  3
Grid/DisplayGrid02
350
75
  3
Grid/DisplayGrid03
350
76
  3
Grid/GridSpacingX00
350
77
  3
Grid/GridSpacingX01
350
78
  3
Grid/GridSpacingX02
350
79
  3
Grid/GridSpacingX03
350
7A
  3
Grid/GridSpacingY00
350
7B
  3
Grid/GridSpacingY01
350
7C
  3
Grid/GridSpacingY02
350
7D
  3
Grid/GridSpacingY03
350
7E
  3
Grid/IsometricGrid00
350
7F
  3
Grid/IsometricGrid01
350
80
  3
Grid/IsometricGrid02
350
81
  3
Grid/IsometricGrid03
350
82
  3
Grid/IsometricProjection00
350
83
  3
Grid/IsometricProjection01
350
84
  3
Grid/IsometricProjection02
350
85
  3
Grid/IsometricProjection03
350
86
  3
Grid/MetaGridSpacingX00
350
87
  3
Grid/MetaGridSpacingX01
350
88
  3
Grid/MetaGridSpacingX02
350
89
  3
Grid/MetaGridSpacingX03
350
8A
  3
Grid/MetaGridSpacingY00
350
8B
  3
Grid/MetaGridSpacingY01
350
8C
  3
Grid/MetaGridSpacingY02
350
8D
  3
Grid/MetaGridSpacingY03
350
8E
  3
MultiPageSettings/Columns
350
8F
  3
MultiPageSettings/GlueMarginsBottom
350
90
  3
MultiPageSettings/GlueMarginsLeft
350
91
  3
MultiPageSettings/GlueMarginsRight
350
92
  3
MultiPageSettings/GlueMarginsTop
350
93
  3
MultiPageSettings/PrintCropMarks
350
94
  3
MultiPageSettings/Rows
350
95
  3
PageSettings/OffsetX
350
96
  3
PageSettings/OffsetY
350
97
  3
PageSettings/PageOrientation
350
98
  3
PageSettings/PaperHeight
350
99
  3
PageSettings/PaperWidth
350
9A
  3
PageSettings/Scale
350
9B
  3
PageSettings/ShowPaperBorders
350
9C
  3
PageTagSettings/EnablePageTags
350
9D
  3
PageTagSettings/TagAlignment
350
9E
  3
PageTagSettings/TagFont
350
9F
  3
PageTagSettings/TagPosition
350
A0
  3
QCADVersion
350
A1
  3
UnitSettings/PaperUnit
350
A2
  3
ViewportCenter
350
A3
  3
ViewportHeight
350
A4
  3
ViewportWidth
350
A5
  0
XRECORD
  5
71
330
6E
100
AcDbXrecord
280
1
1000
White
  0
XRECORD
  5
72
330
6E
100
AcDbXrecord
280
1
1000
FullColor
  0
XRECORD
  5
73
330
6E
100
AcDbXrecord
280
1
290
1
  0
XRECORD
  5
74
330
6E
100
AcDbXrecord
280
1
290
1
  0
XRECORD
  5
75
330
6E
100
AcDbXrecord
280
1
290
1
  0
XRECORD
  5
76
330
6E
100
AcDbXrecord
280
1
290
1
  0
XRECORD
  5
77
330
6E
100
AcDbXrecord
280
1
1000
auto
  0
XRECORD
  5
78
330
6E
100
AcDbXrecord
280
1
1000
auto
  0
XRECORD
  5
79
330
6E
100
AcDbXrecord
280
1
1000
auto
  0
XRECORD
  5
7A
330
6E
100
AcDbXrecord
280
1
1000
auto
  0
XRECORD
  5
7B
330
6E
100
AcDbXrecord
280
1
1000
auto
  0
XRECORD
  5
7C
330
6E
100
AcDbXrecord
280
1
1000
auto
  0
XRECORD
  5
7D
330
6E
100
AcDbXrecord
280
1
1000
auto
  0
XRECORD
  5
7E
330
6E
100
AcDbXrecord
280
1
1000
auto
  0
XRECORD
  5
7F
330
6E
100
AcDbXrecord
280
1
290
0
  0
XRECORD
  5
80
330
6E
100
AcDbXrecord
280
1
290
0
  0
XRECORD
  5
81
330
6E
100
AcDbXrecord
280
1
290
0
  0
XRECORD
  5
82
330
6E
100
AcDbXrecord
280
1
290
0
  0
XRECORD
  5
83
330
6E
100
AcDbXrecord
280
1
 90
65537
  0
XRECORD
  5
84
330
6E
100
AcDbXrecord
280
1
 90
65537
  0
XRECORD
  5
85
330
6E
100
AcDbXrecord
280
1
 90
65537
  0
XRECORD
  5
86
330
6E
100
AcDbXrecord
280
1
 90
65537
  0
XRECORD
  5
87
330
6E
100
AcDbXrecord
280
1
1000
auto
  0
XRECORD
  5
88
330
6E
100
AcDbXrecord
280
1
1000
auto
  0
XRECORD
  5
89
330
6E
100
AcDbXrecord
280
1
1000
auto
  0
XRECORD
  5
8A
330
6E
100
AcDbXrecord
280
1
1000
auto
  0
XRECORD
  5
8B
330
6E
100
AcDbXrecord
280
1
1000
auto
  0
XRECORD
  5
8C
330
6E
100
AcDbXrecord
280
1
1000
auto
  0
XRECORD
  5
8D
330
6E
100
AcDbXrecord
280
1
1000
auto
  0
XRECORD
  5
8E
330
6E
100
AcDbXrecord
280
1
1000
auto
  0
XRECORD
  5
8F
330
6E
100
AcDbXrecord
280
1
 90
1
  0
XRECORD
  5
90
330
6E
100
AcDbXrecord
280
1
 40
10.0
  0
XRECORD
  5
91
330
6E
100
AcDbXrecord
280
1
 40
10.0
  0
XRECORD
  5
92
330
6E
100
AcDbXrecord
280
1
 40
10.0
  0
XRECORD
  5
93
330
6E
100
AcDbXrecord
280
1
 40
10.0
  0
XRECORD
  5
94
330
6E
100
AcDbXrecord
280
1
290
0
  0
XRECORD
  5
95
330
6E
100
AcDbXrecord
280
1
 90
1
  0
XRECORD
  5
96
330
6E
100
AcDbXrecord
280
1
 40
0.0
  0
XRECORD
  5
97
330
6E
100
AcDbXrecord
280
1
 40
0.0
  0
XRECORD
  5
98
330
6E
100
AcDbXrecord
280
1
1000
Portrait
  0
XRECORD
  5
99
330
6E
100
AcDbXrecord
280
1
 40
297.0
  0
XRECORD
  5
9A
330
6E
100
AcDbXrecord
280
1
 40
210.0
  0
XRECORD
  5
9B
330
6E
100
AcDbXrecord
280
1
1000
1:1
  0
XRECORD
  5
9C
330
6E
100
AcDbXrecord
280
1
290
1
  0
XRECORD
  5
9D
330
6E
100
AcDbXrecord
280
1
290
0
  0
XRECORD
  5
9E
330
6E
100
AcDbXrecord
280
1
1000
Inside
  0
XRECORD
  5
9F
330
6E
100
AcDbXrecord
280
1
1000
Arial,10,-1,5,50,0,0,0,0,0
  0
XRECORD
  5
A0
330
6E
100
AcDbXrecord
280
1
1000
TopLeft
  0
XRECORD
  5
A1
330
6E
100
AcDbXrecord
280
1
1000
3.32.2
  0
XRECORD
  5
A2
330
6E
100
AcDbXrecord
280
1
 90
4
  0
XRECORD
  5
A4
330
6E
100
AcDbXrecord
280
1
 40
0.0010512865161445
  0
XRECORD
  5
A5
330
6E
100
AcDbXrecord
280
1
 40
0.0022434514847163
  0
ENDSEC
  0
EOF
