999
dxflib 3.26.4.0
  0
SECTION
  2
HEADER
  9
$ACADVER
  1
AC1015
  9
$HANDSEED
  5
FFFF
  9
$ANGBASE
 50
0.0
  9
$ANGDIR
 70
0
  9
$ATTMODE
 70
1
  9
$AUNITS
 70
0
  9
$AUPREC
 70
0
  9
$CECOLOR
 62
256
  9
$CELTSCALE
 40
1.0
  9
$CHAMFERA
 40
0.0
  9
$CHAMFERB
 40
0.0
  9
$CHAMFERC
 40
0.0
  9
$CHAMFERD
 40
0.0
  9
$CMLJUST
 70
0
  9
$CMLSCALE
 40
20.0
  9
$DIMADEC
 70
2
  9
$DIMALT
 70
0
  9
$DIMALTD
 70
3
  9
$DIMALTF
 40
0.0393700787401575
  9
$DIMALTRND
 40
0.0
  9
$DIMALTTD
 70
3
  9
$DIMALTTZ
 70
0
  9
$DIMALTU
 70
2
  9
$DIMALTZ
 70
0
  9
$DIMAPOST
  1

  9
$DIMASZ
 40
2.5
  9
$DIMATFIT
 70
3
  9
$DIMAUNIT
 70
0
  9
$DIMAZIN
 70
0
  9
$DIMBLK
  1
0
  9
$DIMBLK1
  1
0
  9
$DIMBLK2
  1
0
  9
$DIMCEN
 40
2.5
  9
$DIMCLRD
 70
0
  9
$DIMCLRE
 70
0
  9
$DIMDEC
 70
2
  9
$DIMDLE
 40
0.0
  9
$DIMDLI
 40
3.75
  9
$DIMDSEP
 70
44
  9
$DIMEXE
 40
1.25
  9
$DIMEXO
 40
0.625
  9
$DIMFRAC
 70
2
  9
$DIMGAP
 40
0.7
  9
$DIMJUST
 70
0
  9
$DIMLDRBLK
  1

  9
$DIMLFAC
 40
1.0
  9
$DIMLIM
 70
0
  9
$DIMLUNIT
 70
2
  9
$DIMLWD
 70
15
  9
$DIMLWE
 70
15
  9
$DIMPOST
  1

  9
$DIMRND
 40
0.01
  9
$DIMSAH
 70
0
  9
$DIMSCALE
 40
1.0
  9
$DIMSD1
 70
0
  9
$DIMSD2
 70
0
  9
$DIMSE1
 70
0
  9
$DIMSE2
 70
0
  9
$DIMSOXD
 70
0
  9
$DIMTAD
 70
1
  9
$DIMTDEC
 70
2
  9
$DIMTFAC
 40
1.0
  9
$DIMTIH
 70
0
  9
$DIMTIX
 70
0
  9
$DIMTM
 40
0.0
  9
$DIMTOFL
 70
1
  9
$DIMTOH
 70
0
  9
$DIMTOL
 70
0
  9
$DIMTOLJ
 70
0
  9
$DIMTP
 40
0.0
  9
$DIMTSZ
 40
0.0
  9
$DIMTVP
 40
0.0
  9
$DIMTXSTY
  7
Standard
  9
$DIMTXT
 40
2.5
  9
$DIMTZIN
 70
8
  9
$DIMUPT
 70
0
  9
$DIMZIN
 70
8
  9
$DISPSILH
 70
0
  9
$DWGCODEPAGE
  3
ANSI_1252
  9
$ELEVATION
 40
0.0
  9
$EXTMAX
 10
-100000000000000000000.0
 20
-100000000000000000000.0
 30
-100000000000000000000.0
  9
$EXTMIN
 10
100000000000000000000.0
 20
100000000000000000000.0
 30
100000000000000000000.0
  9
$FILLETRAD
 40
0.0
  9
$FILLMODE
 70
1
  9
$INSBASE
 10
0.0
 20
0.0
 30
0.0
  9
$INSUNITS
 70
4
  9
$LIMCHECK
 70
0
  9
$LIMMAX
 10
420.0
 20
297.0
  9
$LIMMIN
 10
0.0
 20
0.0
  9
$LTSCALE
 40
1.0
  9
$LUNITS
 70
2
  9
$LUPREC
 70
4
  9
$MAXACTVP
 70
64
  9
$MEASUREMENT
 70
1
  9
$MIRRTEXT
 70
1
  9
$ORTHOMODE
 70
0
  9
$PDMODE
 70
0
  9
$PDSIZE
 40
0.0
  9
$PELEVATION
 40
0.0
  9
$PEXTMAX
 10
0.0
 20
0.0
 30
0.0
  9
$PEXTMIN
 10
0.0
 20
0.0
 30
0.0
  9
$PINSBASE
 10
0.0
 20
0.0
 30
0.0
  9
$PLIMCHECK
 70
0
  9
$PLIMMAX
 10
277.0
 20
202.5
  9
$PLIMMIN
 10
-20.0
 20
-7.5
  9
$PLINEGEN
 70
0
  9
$PLINEWID
 40
0.0
  9
$PROXYGRAPHICS
 70
1
  9
$PSLTSCALE
 70
1
  9
$PUCSNAME
  2

  9
$PUCSORG
 10
0.0
 20
0.0
 30
0.0
  9
$PUCSXDIR
 10
1.0
 20
0.0
 30
0.0
  9
$PUCSYDIR
 10
0.0
 20
1.0
 30
0.0
  9
$QTEXTMODE
 70
0
  9
$REGENMODE
 70
1
  9
$SHADEDGE
 70
3
  9
$SHADEDIF
 70
70
  9
$SKETCHINC
 40
1.0
  9
$SKPOLY
 70
0
  9
$SPLFRAME
 70
0
  9
$SPLINESEGS
 70
8
  9
$SPLINETYPE
 70
6
  9
$SURFTAB1
 70
6
  9
$SURFTAB2
 70
6
  9
$SURFTYPE
 70
6
  9
$SURFU
 70
6
  9
$SURFV
 70
6
  9
$TEXTSIZE
 40
2.5
  9
$TEXTSTYLE
  7
Standard
  9
$THICKNESS
 40
0.0
  9
$TILEMODE
 70
0
  9
$TRACEWID
 40
1.0
  9
$TREEDEPTH
 70
3020
  9
$UCSNAME
  2

  9
$UCSORG
 10
0.0
 20
0.0
 30
0.0
  9
$UCSXDIR
 10
1.0
 20
0.0
 30
0.0
  9
$UCSYDIR
 10
0.0
 20
1.0
 30
0.0
  9
$UNITMODE
 70
0
  9
$USERI1
 70
0
  9
$USERI2
 70
0
  9
$USERI3
 70
0
  9
$USERI4
 70
0
  9
$USERI5
 70
0
  9
$USERR1
 40
0.0
  9
$USERR2
 40
0.0
  9
$USERR3
 40
0.0
  9
$USERR4
 40
0.0
  9
$USERR5
 40
0.0
  9
$USRTIMER
 70
1
  9
$VISRETAIN
 70
1
  0
ENDSEC
  0
SECTION
  2
TABLES
  0
TABLE
  2
VPORT
  5
8
100
AcDbSymbolTable
 70
1
  0
VPORT
  5
30
100
AcDbSymbolTableRecord
100
AcDbViewportTableRecord
  2
*Active
 70
0
 10
0.0
 20
0.0
 11
1.0
 21
1.0
 12
286.3055555555554861
 22
148.5
 13
0.0
 23
0.0
 14
10.0
 24
10.0
 15
10.0
 25
10.0
 16
0.0
 26
0.0
 36
1.0
 17
0.0
 27
0.0
 37
0.0
 40
297.0
 41
1.92798353909465
 42
50.0
 43
0.0
 44
0.0
 50
0.0
 51
0.0
 71
0
 72
100
 73
1
 74
3
 75
1
 76
1
 77
0
 78
0
281
0
 65
1
110
0.0
120
0.0
130
0.0
111
1.0
121
0.0
131
0.0
112
0.0
122
1.0
132
0.0
 79
0
146
0.0
  0
ENDTAB
  0
TABLE
  2
LTYPE
  5
5
100
AcDbSymbolTable
 70
46
  0
LTYPE
  5
16
100
AcDbSymbolTableRecord
100
AcDbLinetypeTableRecord
  2
Continuous
 70
0
  3
Solid line
 72
65
 73
0
 40
0.0
  0
LTYPE
  5
31
100
AcDbSymbolTableRecord
100
AcDbLinetypeTableRecord
  2
DASHDOT
 70
0
  3
Dash dot __ . __ . __ . __ . __ . __ . __ . __
 72
65
 73
4
 40
25.3999999999999986
 49
12.6999999999999993
 74
0
 49
-6.3499999999999996
 74
0
 49
0.0
 74
0
 49
-6.3499999999999996
 74
0
  0
LTYPE
  5
32
100
AcDbSymbolTableRecord
100
AcDbLinetypeTableRecord
  2
DetailCircleISO
 70
0
  3

 72
65
 73
5
 40
13.7583333333334217
 49
4.23333333333336
 74
0
 49
-2.11666666666668
 74
0
 49
1.05833333333334
 74
0
 49
-2.11666666666668
 74
0
 49
4.23333333333336
 74
0
  0
LTYPE
  5
33
100
AcDbSymbolTableRecord
100
AcDbLinetypeTableRecord
  2
ACAD_ISO03W100
 70
0
  3
ISO dash space __    __    __    __    __    __
 72
65
 73
2
 40
30.0
 49
12.0
 74
0
 49
-18.0
 74
0
  0
LTYPE
  5
34
100
AcDbSymbolTableRecord
100
AcDbLinetypeTableRecord
  2
ACAD_ISO09W100
 70
0
  3
ISO long-dash double-short-dash ____ __ __ ____
 72
65
 73
6
 40
45.0
 49
24.0
 74
0
 49
-3.0
 74
0
 49
6.0
 74
0
 49
-3.0
 74
0
 49
6.0
 74
0
 49
-3.0
 74
0
  0
LTYPE
  5
35
100
AcDbSymbolTableRecord
100
AcDbLinetypeTableRecord
  2
DOT
 70
0
  3
Dot . . . . . . . . . . . . . . . . . . . . . . . .
 72
65
 73
2
 40
6.3499999999999996
 49
0.0
 74
0
 49
-6.3499999999999996
 74
0
  0
LTYPE
  5
36
100
AcDbSymbolTableRecord
100
AcDbLinetypeTableRecord
  2
ACAD_ISO08W100
 70
0
  3
ISO long-dash short-dash ____ __ ____ __ ____ _
 72
65
 73
4
 40
36.0
 49
24.0
 74
0
 49
-3.0
 74
0
 49
6.0
 74
0
 49
-3.0
 74
0
  0
LTYPE
  5
37
100
AcDbSymbolTableRecord
100
AcDbLinetypeTableRecord
  2
CenterLine
 70
0
  3

 72
65
 73
4
 40
8.0
 49
5.0
 74
0
 49
-1.0
 74
0
 49
1.0
 74
0
 49
-1.0
 74
0
  0
LTYPE
  5
38
100
AcDbSymbolTableRecord
100
AcDbLinetypeTableRecord
  2
ACAD_ISO15W100
 70
0
  3
ISO double-dash triple-dot __ __ . . . __ __ . .
 72
65
 73
10
 40
39.0
 49
12.0
 74
0
 49
-3.0
 74
0
 49
12.0
 74
0
 49
-3.0
 74
0
 49
0.0
 74
0
 49
-3.0
 74
0
 49
0.0
 74
0
 49
-3.0
 74
0
 49
0.0
 74
0
 49
-3.0
 74
0
  0
LTYPE
  5
39
100
AcDbSymbolTableRecord
100
AcDbLinetypeTableRecord
  2
ACAD_ISO13W100
 70
0
  3
ISO double-dash double-dot __ __ . . __ __ . . _
 72
65
 73
8
 40
36.0
 49
12.0
 74
0
 49
-3.0
 74
0
 49
12.0
 74
0
 49
-3.0
 74
0
 49
0.0
 74
0
 49
-3.0
 74
0
 49
0.0
 74
0
 49
-3.0
 74
0
  0
LTYPE
  5
3A
100
AcDbSymbolTableRecord
100
AcDbLinetypeTableRecord
  2
HIDDEN2
 70
0
  3
Hidden (.5x) _ _ _ _ _ _ _ _ _ _ _ _ _ _ _ _ _ 
 72
65
 73
2
 40
4.7624999999999993
 49
3.1749999999999998
 74
0
 49
-1.5874999999999999
 74
0
  0
LTYPE
  5
3B
100
AcDbSymbolTableRecord
100
AcDbLinetypeTableRecord
  2
BORDERX2
 70
0
  3
Border (2x) ____  ____  .  ____  ____  .  ___
 72
65
 73
6
 40
88.8999999999999915
 49
25.3999999999999986
 74
0
 49
-12.6999999999999993
 74
0
 49
25.3999999999999986
 74
0
 49
-12.6999999999999993
 74
0
 49
0.0
 74
0
 49
-12.6999999999999993
 74
0
  0
LTYPE
  5
3C
100
AcDbSymbolTableRecord
100
AcDbLinetypeTableRecord
  2
DASHED
 70
0
  3
Dashed __ __ __ __ __ __ __ __ __ __ __ __ __ _
 72
65
 73
2
 40
19.0499999999999972
 49
12.6999999999999993
 74
0
 49
-6.3499999999999996
 74
0
  0
LTYPE
  5
3D
100
AcDbSymbolTableRecord
100
AcDbLinetypeTableRecord
  2
BORDER
 70
0
  3
Border __ __ . __ __ . __ __ . __ __ . __ __ .
 72
65
 73
6
 40
44.4499999999999957
 49
12.6999999999999993
 74
0
 49
-6.3499999999999996
 74
0
 49
12.6999999999999993
 74
0
 49
-6.3499999999999996
 74
0
 49
0.0
 74
0
 49
-6.3499999999999996
 74
0
  0
LTYPE
  5
3E
100
AcDbSymbolTableRecord
100
AcDbLinetypeTableRecord
  2
SectionLineISO
 70
0
  3

 72
65
 73
5
 40
13.7583333333334217
 49
4.23333333333336
 74
0
 49
-2.11666666666668
 74
0
 49
1.05833333333334
 74
0
 49
-2.11666666666668
 74
0
 49
4.23333333333336
 74
0
  0
LTYPE
  5
3F
100
AcDbSymbolTableRecord
100
AcDbLinetypeTableRecord
  2
CENTER2
 70
0
  3
Center (.5x) ___ _ ___ _ ___ _ ___ _ ___ _ ___
 72
65
 73
4
 40
28.5750000000000028
 49
19.0500000000000007
 74
0
 49
-3.1749999999999998
 74
0
 49
3.1749999999999998
 74
0
 49
-3.1749999999999998
 74
0
  0
LTYPE
  5
40
100
AcDbSymbolTableRecord
100
AcDbLinetypeTableRecord
  2
BORDER2
 70
0
  3
Border (.5x) __.__.__.__.__.__.__.__.__.__.__.
 72
65
 73
6
 40
22.2249999999999979
 49
6.3499999999999996
 74
0
 49
-3.1749999999999998
 74
0
 49
6.3499999999999996
 74
0
 49
-3.1749999999999998
 74
0
 49
0.0
 74
0
 49
-3.1749999999999998
 74
0
  0
LTYPE
  5
41
100
AcDbSymbolTableRecord
100
AcDbLinetypeTableRecord
  2
ACAD_ISO04W100
 70
0
  3
ISO long-dash dot ____ . ____ . ____ . ____ . _
 72
65
 73
4
 40
30.0
 49
24.0
 74
0
 49
-3.0
 74
0
 49
0.0
 74
0
 49
-3.0
 74
0
  0
LTYPE
  5
42
100
AcDbSymbolTableRecord
100
AcDbLinetypeTableRecord
  2
ACAD_ISO07W100
 70
0
  3
ISO dot . . . . . . . . . . . . . . . . . . . . 
 72
65
 73
2
 40
3.0
 49
0.0
 74
0
 49
-3.0
 74
0
  0
LTYPE
  5
43
100
AcDbSymbolTableRecord
100
AcDbLinetypeTableRecord
  2
DASHEDX2
 70
0
  3
Dashed (2x) ____  ____  ____  ____  ____  ___
 72
65
 73
2
 40
38.0999999999999943
 49
25.3999999999999986
 74
0
 49
-12.6999999999999993
 74
0
  0
LTYPE
  5
44
100
AcDbSymbolTableRecord
100
AcDbLinetypeTableRecord
  2
PHANTOM
 70
0
  3
Phantom ______  __  __  ______  __  __  ______ 
 72
65
 73
6
 40
63.5000000000000071
 49
31.75
 74
0
 49
-6.3499999999999996
 74
0
 49
6.3499999999999996
 74
0
 49
-6.3499999999999996
 74
0
 49
6.3499999999999996
 74
0
 49
-6.3499999999999996
 74
0
  0
LTYPE
  5
45
100
AcDbSymbolTableRecord
100
AcDbLinetypeTableRecord
  2
ACAD_ISO05W100
 70
0
  3
ISO long-dash double-dot ____ .. ____ .. ____ . 
 72
65
 73
6
 40
33.0
 49
24.0
 74
0
 49
-3.0
 74
0
 49
0.0
 74
0
 49
-3.0
 74
0
 49
0.0
 74
0
 49
-3.0
 74
0
  0
LTYPE
  5
46
100
AcDbSymbolTableRecord
100
AcDbLinetypeTableRecord
  2
CENTERX2
 70
0
  3
Center (2x) ________  __  ________  __  _____
 72
65
 73
4
 40
101.6000000000000085
 49
63.5
 74
0
 49
-12.6999999999999993
 74
0
 49
12.6999999999999993
 74
0
 49
-12.6999999999999993
 74
0
  0
LTYPE
  5
47
100
AcDbSymbolTableRecord
100
AcDbLinetypeTableRecord
  2
SectionLineANSI
 70
0
  3

 72
65
 73
7
 40
11.9944444444445182
 49
4.23333333333336
 74
0
 49
-1.05833333333334
 74
0
 49
0.17638888888889
 74
0
 49
-1.05833333333334
 74
0
 49
0.17638888888889
 74
0
 49
-1.05833333333334
 74
0
 49
4.23333333333336
 74
0
  0
LTYPE
  5
48
100
AcDbSymbolTableRecord
100
AcDbLinetypeTableRecord
  2
PHANTOM2
 70
0
  3
Phantom (.5x) ___ _ _ ___ _ _ ___ _ _ ___ _ _
 72
65
 73
6
 40
31.7500000000000036
 49
15.875
 74
0
 49
-3.1749999999999998
 74
0
 49
3.1749999999999998
 74
0
 49
-3.1749999999999998
 74
0
 49
3.1749999999999998
 74
0
 49
-3.1749999999999998
 74
0
  0
LTYPE
  5
15
100
AcDbSymbolTableRecord
100
AcDbLinetypeTableRecord
  2
ByLayer
 70
0
  3

 72
65
 73
0
 40
0.0
  0
LTYPE
  5
49
100
AcDbSymbolTableRecord
100
AcDbLinetypeTableRecord
  2
DASHDOT2
 70
0
  3
Dash dot (.5x) _._._._._._._._._._._._._._._.
 72
65
 73
4
 40
12.6999999999999993
 49
6.3499999999999996
 74
0
 49
-3.1749999999999998
 74
0
 49
0.0
 74
0
 49
-3.1749999999999998
 74
0
  0
LTYPE
  5
14
100
AcDbSymbolTableRecord
100
AcDbLinetypeTableRecord
  2
ByBlock
 70
0
  3

 72
65
 73
0
 40
0.0
  0
LTYPE
  5
4A
100
AcDbSymbolTableRecord
100
AcDbLinetypeTableRecord
  2
ACAD_ISO12W100
 70
0
  3
ISO dash double-dot __ . . __ . . __ . . __ . . 
 72
65
 73
6
 40
21.0
 49
12.0
 74
0
 49
-3.0
 74
0
 49
0.0
 74
0
 49
-3.0
 74
0
 49
0.0
 74
0
 49
-3.0
 74
0
  0
LTYPE
  5
4B
100
AcDbSymbolTableRecord
100
AcDbLinetypeTableRecord
  2
ACAD_ISO02W100
 70
0
  3
ISO dash __ __ __ __ __ __ __ __ __ __ __ __ __
 72
65
 73
2
 40
15.0
 49
12.0
 74
0
 49
-3.0
 74
0
  0
LTYPE
  5
4C
100
AcDbSymbolTableRecord
100
AcDbLinetypeTableRecord
  2
ACAD_ISO14W100
 70
0
  3
ISO dash triple-dot __ . . . __ . . . __ . . . _
 72
65
 73
8
 40
24.0
 49
12.0
 74
0
 49
-3.0
 74
0
 49
0.0
 74
0
 49
-3.0
 74
0
 49
0.0
 74
0
 49
-3.0
 74
0
 49
0.0
 74
0
 49
-3.0
 74
0
  0
LTYPE
  5
4D
100
AcDbSymbolTableRecord
100
AcDbLinetypeTableRecord
  2
DIVIDE
 70
0
  3
Divide ____ . . ____ . . ____ . . ____ . . ____
 72
65
 73
6
 40
31.75
 49
12.6999999999999993
 74
0
 49
-6.3499999999999996
 74
0
 49
0.0
 74
0
 49
-6.3499999999999996
 74
0
 49
0.0
 74
0
 49
-6.3499999999999996
 74
0
  0
LTYPE
  5
4E
100
AcDbSymbolTableRecord
100
AcDbLinetypeTableRecord
  2
DASHDOTX2
 70
0
  3
Dash dot (2x) ____  .  ____  .  ____  .  ___
 72
65
 73
4
 40
50.7999999999999972
 49
25.3999999999999986
 74
0
 49
-12.6999999999999993
 74
0
 49
0.0
 74
0
 49
-12.6999999999999993
 74
0
  0
LTYPE
  5
4F
100
AcDbSymbolTableRecord
100
AcDbLinetypeTableRecord
  2
ACAD_ISO06W100
 70
0
  3
ISO long-dash triple-dot ____ ... ____ ... ____
 72
65
 73
8
 40
36.0
 49
24.0
 74
0
 49
-3.0
 74
0
 49
0.0
 74
0
 49
-3.0
 74
0
 49
0.0
 74
0
 49
-3.0
 74
0
 49
0.0
 74
0
 49
-3.0
 74
0
  0
LTYPE
  5
50
100
AcDbSymbolTableRecord
100
AcDbLinetypeTableRecord
  2
HIDDENX2
 70
0
  3
Hidden (2x) ____ ____ ____ ____ ____ ____ ____ 
 72
65
 73
2
 40
19.0499999999999972
 49
12.6999999999999993
 74
0
 49
-6.3499999999999996
 74
0
  0
LTYPE
  5
51
100
AcDbSymbolTableRecord
100
AcDbLinetypeTableRecord
  2
DASHED2
 70
0
  3
Dashed (.5x) _ _ _ _ _ _ _ _ _ _ _ _ _ _ _ _ _ 
 72
65
 73
2
 40
9.5249999999999986
 49
6.3499999999999996
 74
0
 49
-3.1749999999999998
 74
0
  0
LTYPE
  5
52
100
AcDbSymbolTableRecord
100
AcDbLinetypeTableRecord
  2
ACAD_ISO10W100
 70
0
  3
ISO dash dot __ . __ . __ . __ . __ . __ . __ . 
 72
65
 73
4
 40
18.0
 49
12.0
 74
0
 49
-3.0
 74
0
 49
0.0
 74
0
 49
-3.0
 74
0
  0
LTYPE
  5
53
100
AcDbSymbolTableRecord
100
AcDbLinetypeTableRecord
  2
DIVIDEX2
 70
0
  3
Divide (2x) ________  .  .  ________  .  .  _
 72
65
 73
6
 40
63.5
 49
25.3999999999999986
 74
0
 49
-12.6999999999999993
 74
0
 49
0.0
 74
0
 49
-12.6999999999999993
 74
0
 49
0.0
 74
0
 49
-12.6999999999999993
 74
0
  0
LTYPE
  5
54
100
AcDbSymbolTableRecord
100
AcDbLinetypeTableRecord
  2
DOT2
 70
0
  3
Dot (.5x) ........................................
 72
65
 73
2
 40
3.1749999999999998
 49
0.0
 74
0
 49
-3.1749999999999998
 74
0
  0
LTYPE
  5
55
100
AcDbSymbolTableRecord
100
AcDbLinetypeTableRecord
  2
ACAD_ISO11W100
 70
0
  3
ISO double-dash dot __ __ . __ __ . __ __ . __ _
 72
65
 73
6
 40
33.0
 49
12.0
 74
0
 49
-3.0
 74
0
 49
12.0
 74
0
 49
-3.0
 74
0
 49
0.0
 74
0
 49
-3.0
 74
0
  0
LTYPE
  5
56
100
AcDbSymbolTableRecord
100
AcDbLinetypeTableRecord
  2
PHANTOMX2
 70
0
  3
Phantom (2x) ____________    ____    ____   _
 72
65
 73
6
 40
127.0000000000000142
 49
63.5
 74
0
 49
-12.6999999999999993
 74
0
 49
12.6999999999999993
 74
0
 49
-12.6999999999999993
 74
0
 49
12.6999999999999993
 74
0
 49
-12.6999999999999993
 74
0
  0
LTYPE
  5
57
100
AcDbSymbolTableRecord
100
AcDbLinetypeTableRecord
  2
DIVIDE2
 70
0
  3
Divide (.5x) __..__..__..__..__..__..__..__.._
 72
65
 73
6
 40
15.875
 49
6.3499999999999996
 74
0
 49
-3.1749999999999998
 74
0
 49
0.0
 74
0
 49
-3.1749999999999998
 74
0
 49
0.0
 74
0
 49
-3.1749999999999998
 74
0
  0
LTYPE
  5
58
100
AcDbSymbolTableRecord
100
AcDbLinetypeTableRecord
  2
HIDDEN
 70
0
  3
Hidden __ __ __ __ __ __ __ __ __ __ __ __ __ __
 72
65
 73
2
 40
9.5249999999999986
 49
6.3499999999999996
 74
0
 49
-3.1749999999999998
 74
0
  0
LTYPE
  5
59
100
AcDbSymbolTableRecord
100
AcDbLinetypeTableRecord
  2
CENTER
 70
0
  3
Center ____ _ ____ _ ____ _ ____ _ ____ _ ____
 72
65
 73
4
 40
50.8000000000000043
 49
31.75
 74
0
 49
-6.3499999999999996
 74
0
 49
6.3499999999999996
 74
0
 49
-6.3499999999999996
 74
0
  0
LTYPE
  5
5A
100
AcDbSymbolTableRecord
100
AcDbLinetypeTableRecord
  2
DraftedLine
 70
0
  3

 72
65
 73
2
 40
3.0
 49
2.0
 74
0
 49
-1.0
 74
0
  0
LTYPE
  5
5B
100
AcDbSymbolTableRecord
100
AcDbLinetypeTableRecord
  2
DOTX2
 70
0
  3
Dot (2x) .  .  .  .  .  .  .  .  .  .  .  .  .  .
 72
65
 73
2
 40
12.6999999999999993
 49
0.0
 74
0
 49
-12.6999999999999993
 74
0
  0
ENDTAB
  0
TABLE
  2
LAYER
  5
2
100
AcDbSymbolTable
 70
4
  0
LAYER
  5
5C
100
AcDbSymbolTableRecord
100
AcDbLayerTableRecord
  2
Border
 70
0
 62
7
420
16777215
  6
Continuous
370
-3
390
F
  0
LAYER
  5
5D
100
AcDbSymbolTableRecord
100
AcDbLayerTableRecord
  2
Geometries
 70
0
 62
7
420
16777215
  6
Continuous
370
-3
390
F
  0
LAYER
  5
5E
100
AcDbSymbolTableRecord
100
AcDbLayerTableRecord
  2
Annotations
 70
0
 62
7
420
16777215
  6
Continuous
370
-3
390
F
  0
LAYER
  5
10
100
AcDbSymbolTableRecord
100
AcDbLayerTableRecord
  2
0
 70
0
 62
7
420
16777215
  6
Continuous
370
-3
390
F
  0
ENDTAB
  0
TABLE
  2
STYLE
  5
3
100
AcDbSymbolTable
 70
1
  0
STYLE
  5
5F
100
AcDbSymbolTableRecord
100
AcDbTextStyleTableRecord
  2
Standard
 70
0
 40
0.0
 41
1.0
 50
0.0
 71
0
 42
2.5
  3

  4

1001
ACAD
1000
txt
1071
0
  0
ENDTAB
  0
TABLE
  2
VIEW
  5
6
100
AcDbSymbolTable
 70
0
  0
ENDTAB
  0
TABLE
  2
UCS
  5
7
100
AcDbSymbolTable
 70
0
  0
ENDTAB
  0
TABLE
  2
APPID
  5
9
100
AcDbSymbolTable
 70
1
  0
APPID
  5
12
100
AcDbSymbolTableRecord
100
AcDbRegAppTableRecord
  2
ACAD
 70
0
  0
APPID
  5
60
100
AcDbSymbolTableRecord
100
AcDbRegAppTableRecord
  2
QCAD
 70
0
  0
ENDTAB
  0
TABLE
  2
DIMSTYLE
  5
A
100
AcDbSymbolTable
 70
1
100
AcDbDimStyleTable
 71
0
  0
DIMSTYLE
105
27
100
AcDbSymbolTableRecord
100
AcDbDimStyleTableRecord
  2
Standard
 41
2.5
 42
0.625
 43
3.75
 44
1.25
 70
0
 73
0
 74
0
 77
1
 78
8
140
2.5
141
2.5
143
0.03937007874016
147
0.7
171
3
172
1
271
2
272
2
274
3
278
44
283
0
284
8
340
5F
  0
ENDTAB
  0
TABLE
  2
BLOCK_RECORD
  5
1
100
AcDbSymbolTable
 70
1
  0
BLOCK_RECORD
  5
1F
100
AcDbSymbolTableRecord
100
AcDbBlockTableRecord
  2
*Model_Space
340
22
  0
BLOCK_RECORD
  5
1B
100
AcDbSymbolTableRecord
100
AcDbBlockTableRecord
  2
*Paper_Space
340
1E
  0
BLOCK_RECORD
  5
23
100
AcDbSymbolTableRecord
100
AcDbBlockTableRecord
  2
*Paper_Space0
340
26
  0
ENDTAB
  0
ENDSEC
  0
SECTION
  2
BLOCKS
  0
BLOCK
  5
20
100
AcDbEntity
  8
0
100
AcDbBlockBegin
  2
*Model_Space
 70
0
 10
0.0
 20
0.0
 30
0.0
  3
*Model_Space
  1

  0
ENDBLK
  5
21
100
AcDbEntity
  8
0
100
AcDbBlockEnd
  0
BLOCK
  5
1C
100
AcDbEntity
 67
1
  8
0
100
AcDbBlockBegin
  2
*Paper_Space
 70
0
 10
0.0
 20
0.0
 30
0.0
  3
*Paper_Space
  1

  0
ENDBLK
  5
1D
100
AcDbEntity
 67
1
  8
0
100
AcDbBlockEnd
  0
BLOCK
  5
24
100
AcDbEntity
  8
0
100
AcDbBlockBegin
  2
*Paper_Space0
 70
0
 10
0.0
 20
0.0
 30
0.0
  3
*Paper_Space0
  1

  0
ENDBLK
  5
25
100
AcDbEntity
  8
0
100
AcDbBlockEnd
  0
ENDSEC
  0
SECTION
  2
ENTITIES
  0
LWPOLYLINE
  5
61
100
AcDbEntity
  8
Geometries
 62
256
370
0
 48
1.0
  6
Continuous
100
AcDbPolyline
 90
58
 70
128
 10
178.2190912824356985
 20
122.1983460300802022
 10
178.2420966289076034
 20
122.2014842900811971
 10
178.2650143737108124
 20
122.2052063077559012
 10
178.2878319520243053
 20
122.2095052833757052
 10
178.3105367990276022
 20
122.2143744172116016
 10
178.3331163498999103
 20
122.2198069095350945
 10
178.3555580398204938
 20
122.2257959606172051
 10
178.3818130974472069
 20
122.2335597466973951
 10
178.4078386395576956
 20
122.2420760332554011
 10
178.4336140966383084
 20
122.2513336886469943
 10
178.4591188991755075
 20
122.2613215812280032
 10
178.4816455733177918
 20
122.2708473409385022
 10
178.5039254444515961
 20
122.2809384439026985
 10
178.52594387160309
 20
122.2915869668359932
 10
178.5476862137990963
 20
122.3027849864539007
 10
178.5691378300660119
 20
122.3145245794721063
 10
178.5902840794302904
 20
122.3267978226060961
 10
178.6111103209186126
 20
122.339596792571399
 10
178.6316019135574891
 20
122.3529135660836999
 10
178.6517442163734017
 20
122.3667402198584
 10
178.6715225883928895
 20
122.3810688306111985
 10
178.6909223886424911
 20
122.3958914750574962
 10
178.7099289761488876
 20
122.4112002299130069
 10
178.7285277099383904
 20
122.4269871718932023
 10
178.746703949037709
 20
122.4432443777136967
 10
178.7644430524732968
 20
122.4599639240899052
 10
178.7817303792716928
 20
122.477137887737598
 10
178.799340400875991
 20
122.4956084169293007
 10
178.8164216927881114
 20
122.5145598658650954
 10
178.8329574883252917
 20
122.5339830770473952
 10
178.8489354399044089
 20
122.553865757843397
 10
178.8643502880269125
 20
122.5741905869711985
 10
178.8791974116728909
 20
122.5949397901794953
 10
178.8928358181701128
 20
122.6151253961655954
 10
178.905948708957709
 20
122.6356660194510937
 10
178.9185320649461062
 20
122.656546201044506
 10
178.9305818670455039
 20
122.6777504819547033
 10
178.942094096166386
 20
122.6992634031900025
 10
178.9530647332190085
 20
122.7210695057593028
 10
178.9634897591135996
 20
122.7431533306709071
 10
178.9733651547605859
 20
122.7654994189337003
 10
178.9831169154801103
 20
122.7891740565173961
 10
178.9922564218931882
 20
122.8131017890336949
 10
179.0007790529799081
 20
122.8372648422315052
 10
179.0086801877201026
 20
122.8616454418594941
 10
179.0159552050936895
 20
122.8862258136666981
 10
179.0225994840807004
 20
122.9109881834016988
 10
179.0286084036609964
 20
122.9359147768134051
 10
179.0339773428144952
 20
122.9609878196506969
 10
179.0387016805211999
 20
122.9861895376621987
 10
179.0427767957608864
 20
123.011502156596805
 10
179.0461980675136999
 20
123.0369079022032963
 10
179.0489608747593877
 20
123.0623890002304961
 10
179.0509585557105083
 20
123.0864670825070988
 10
179.0523628939102991
 20
123.1105814525658957
 10
179.0531700161085951
 20
123.1347172123716973
 10
179.0533760490554016
 20
123.158859463889101
 10
179.0529771195004969
 20
123.1829933090827041
  0
LINE
  5
62
100
AcDbEntity
  8
Geometries
 62
256
370
0
 48
1.0
  6
Continuous
100
AcDbLine
 10
134.9268736404152094
 20
118.1377776997395017
 30
0.0
 11
127.8999999999999915
 21
124.5999999999999943
 31
0.0
  0
LWPOLYLINE
  5
63
100
AcDbEntity
  8
Geometries
 62
256
370
0
 48
1.0
  6
Continuous
100
AcDbPolyline
 90
51
 70
128
 10
134.9268736404152094
 20
118.1377776997395017
 10
135.7797231183909048
 20
118.2023735663647983
 10
136.632513587802606
 20
118.2677208309612951
 10
137.4852456702411985
 20
118.333807955070597
 10
138.3379199872979086
 20
118.4006234002345934
 10
139.1905371605637072
 20
118.4681556279951025
 10
140.0278740063382941
 20
118.5351684560831984
 10
140.8651569194219917
 20
118.6028506346065967
 10
141.7023864886973001
 20
118.6711912322663949
 10
142.5395633030468048
 20
118.7401793177638041
 10
143.3937715888087041
 20
118.8112314222429973
 10
144.2479261832519057
 20
118.8829347159684033
 10
145.1020277120537116
 20
118.9552775846266002
 10
145.956076800891708
 20
119.0282484139041941
 10
146.8100740754431968
 20
119.1018355894879051
 10
147.6640201613857926
 20
119.1760274970640978
 10
148.5179156843967974
 20
119.2508125223194071
 10
149.5140640567016987
 20
119.3387958585823014
 10
150.5101454524078122
 20
119.4275522424379972
 10
151.5061608650676135
 20
119.5170632307868033
 10
152.5021112882338912
 20
119.6073103805291993
 10
153.4979977154592916
 20
119.6982752485658068
 10
154.4938211402962054
 20
119.7899393917969064
 10
155.432683557063001
 20
119.8769894923667039
 10
156.3714916820169947
 20
119.9646293801231991
 10
157.310246129207286
 20
120.0528458939715932
 10
158.2489457138944999
 20
120.1416447676346024
 10
159.1875883678333992
 20
120.2310410153493052
 10
160.0408487231777031
 20
120.3128414020540049
 10
160.8940587554650108
 20
120.3951592766202054
 10
161.7472169061942111
 20
120.4780059677611064
 10
162.6003216168643917
 20
120.5613928041902057
 10
163.4533713289748107
 20
120.6453311146208023
 10
164.3063644840244137
 20
120.7298322277662947
 10
165.1592995235124022
 20
120.8149074723398968
 10
166.0974590834046012
 20
120.9091668839898972
 10
167.0355443633162906
 20
121.0041497809286994
 10
167.9735532888828118
 20
121.0998712416737959
 10
168.9114837857395059
 20
121.1963463447424942
 10
169.8493337795216007
 20
121.2935901686525
 10
170.6308124490508078
 20
121.3752247842924987
 10
171.412232572693398
 20
121.4574124310366017
 10
172.1935929500070017
 20
121.5401618348787025
 10
172.9748923805489937
 20
121.6234817218127944
 10
173.7561296638768056
 20
121.7073808178326999
 10
174.5373035995480109
 20
121.791867848932398
 10
175.2737799247626924
 20
121.8720733902857063
 10
176.0101978618467058
 20
121.9528166651169983
 10
176.7465564046121074
 20
122.0341049873863
 10
177.4828545468710104
 20
122.115945671054007
 10
178.2190912824356985
 20
122.1983460300802022
  0
LINE
  5
64
100
AcDbEntity
  8
Geometries
 62
256
370
0
 48
1.0
  6
Continuous
100
AcDbLine
 10
127.8999999999999915
 20
124.5999999999999943
 30
0.0
 11
127.9466163626449031
 21
127.8622222717867061
 31
0.0
  0
LWPOLYLINE
  5
65
100
AcDbEntity
  8
Geometries
 62
256
370
0
 48
1.0
  6
Continuous
100
AcDbPolyline
 90
68
 70
128
 10
179.0529771195004969
 20
123.1829933090827041
 10
179.0516335258647018
 20
123.2309817824616971
 10
179.0501771343078872
 20
123.2790407789585032
 10
179.0483862963075126
 20
123.327111777014494
 10
179.0460393633406966
 20
123.3751362550712969
 10
179.0441801165702032
 20
123.4052730142484933
 10
179.0419585353816103
 20
123.4353537374714023
 10
179.0393195733967104
 20
123.4653638909196047
 10
179.0362081842370117
 20
123.4952889407723973
 10
179.0325693215243916
 20
123.5251143532093039
 10
179.0290942915007122
 20
123.5498822662247989
 10
179.025182878203907
 20
123.5745624828837066
 10
179.0208032260910045
 20
123.5991465924104062
 10
179.0159234796190901
 20
123.6236261840290069
 10
179.0105117832451072
 20
123.6479928469637031
 10
179.0045363576336968
 20
123.6722381646003015
 10
178.9983679676803945
 20
123.6949785292298003
 10
178.9916854544136982
 20
123.7175932727754031
 10
178.9844961364904918
 20
123.7400727391507047
 10
178.976807332567887
 20
123.7624072722693001
 10
178.9686263613029098
 20
123.7845872160445992
 10
178.9594199188757102
 20
123.8079317071950953
 10
178.9496768089277907
 20
123.8310799207988993
 10
178.9394057630566124
 20
123.8540203365645027
 10
178.9286155128598921
 20
123.8767414342008948
 10
178.9173147899348919
 20
123.8992316934165956
 10
178.9055123258791866
 20
123.9214795939205942
 10
178.8909700200547093
 20
123.9473735233340932
 10
178.8757572031483107
 20
123.9728959474967951
 10
178.8598881694121019
 20
123.9980280068647005
 10
178.8433772130979094
 20
124.0227508418940943
 10
178.8258824265888904
 20
124.0475368146886979
 10
178.8077493202605126
 20
124.071857014560706
 10
178.7889930815047137
 20
124.0956914035754011
 10
178.7696290264636048
 20
124.1190208968009046
 10
178.7496732255305005
 20
124.1418319922548932
 10
178.729142022923611
 20
124.1641132147972968
 10
178.7080517632471128
 20
124.185853092145905
 10
178.6864665692272922
 20
124.2069945357803959
 10
178.6643572662129031
 20
124.2275741742472945
 10
178.6417400920587113
 20
124.2475806101923013
 10
178.6186312846191981
 20
124.2670024462609035
 10
178.5950470817489872
 20
124.285828285098404
 10
178.5714369993582125
 20
124.3037267923476037
 10
178.5473993948718032
 20
124.3210286063704046
 10
178.5229496517005998
 20
124.3377229295467004
 10
178.4981031532551867
 20
124.353798964256498
 10
178.4723565653555966
 20
124.369554530761107
 10
178.4462292251596125
 20
124.384643599903697
 10
178.4197374772712124
 20
124.3990546994022992
 10
178.3928976662946866
 20
124.4127763569747032
 10
178.3657261368344109
 20
124.4257971003388974
 10
178.3382392334943063
 20
124.4381054572127994
 10
178.3104533008786916
 20
124.4496899553141986
 10
178.2859081614172965
 20
124.4592235820163069
 10
178.2611575411121976
 20
124.4681865353471011
 10
178.2362123895715058
 20
124.4765711297737028
 10
178.211083656402991
 20
124.4843696797636028
 10
178.1857822912145934
 20
124.4915744997839937
 10
178.1603192436141967
 20
124.4981779043020964
 10
178.1347054632097127
 20
124.5041722077851034
 10
178.1089518996089964
 20
124.5095497247005056
 10
178.0818339801944035
 20
124.514513397736593
 10
178.0545872546933026
 20
124.5187828725239001
 10
178.0272243126127876
 20
124.5223493124840957
 10
177.9997577434600089
 20
124.5252038810388058
 10
177.9722001367418898
 20
124.5273377416095997
 10
177.9445640819654955
 20
124.5287420576182029
  0
LWPOLYLINE
  5
66
100
AcDbEntity
  8
Geometries
 62
256
370
0
 48
1.0
  6
Continuous
100
AcDbPolyline
 90
87
 70
128
 10
177.9445640819654955
 20
124.5287420576182029
 10
176.9592390196893064
 20
124.5665126701454994
 10
175.9739326384188871
 20
124.6047851212181996
 10
174.9886458565702867
 20
124.6435713287375933
 10
174.0033795925590994
 20
124.6828832106052971
 10
173.0181347648012888
 20
124.722732684722601
 10
172.0505053488085139
 20
124.7624053707791063
 10
171.0828983663205918
 20
124.8026194076261959
 10
170.1153146874258937
 20
124.843386086039402
 10
169.1477551822127907
 20
124.8847166967943991
 10
168.1604753863809094
 20
124.9274838203533022
 10
167.173222591397888
 20
124.9708618813517944
 10
166.1859977217173139
 20
125.0148628760409935
 10
165.198801701792604
 20
125.059498800672003
 10
164.2116354560776017
 20
125.1047816514960971
 10
163.2244999090258091
 20
125.1507234247642941
 10
162.2373959850908136
 20
125.1973361167277972
 10
161.2503246087262028
 20
125.2446317236376956
 10
160.2632867043855924
 20
125.292622241745093
 10
159.2762831965227122
 20
125.3413196673013061
 10
158.2893150095910926
 20
125.3907359965572965
 10
157.3023830680442927
 20
125.4408832257642956
 10
156.3154882963360137
 20
125.491773351173407
 10
155.3286316189197862
 20
125.5434183690358054
 10
154.5532715560422048
 20
125.5845339921344959
 10
153.7779360296817117
 20
125.6261288705084951
 10
153.0026254882521926
 20
125.668208823039194
 10
152.227340771240506
 20
125.7107838396771058
 10
151.452085009144696
 20
125.753888345627999
 10
150.6768621641948869
 20
125.797565637109102
 10
149.9016761997939966
 20
125.8418590228461937
 10
149.2571282569500966
 20
125.8791899052418017
 10
148.6126108329829094
 20
125.9170016095934983
 10
147.9681262065483054
 20
125.9553190351308984
 10
147.3236766563020979
 20
125.9941670810837024
 10
146.6792644609001002
 20
126.0335706466813974
 10
146.034891851335999
 20
126.0735582521077021
 10
145.42737859936679
 20
126.111836319266402
 10
144.8199039592720112
 20
126.1507156957884064
 10
144.2124695638918865
 20
126.1902383023224985
 10
143.6050770460662989
 20
126.2304460595177034
 10
142.9977280386351879
 20
126.2713808880227049
 10
142.4916382808962965
 20
126.3060788904833061
 10
141.9855808175564107
 20
126.341335174772297
 10
141.4795565935459081
 20
126.3771740005243061
 10
140.9735665537955072
 20
126.4136196273743025
 10
140.4676116432356139
 20
126.4506963149569003
 10
139.9616948554806015
 20
126.4884421232051039
 10
139.6210043844309041
 20
126.5142994410422972
 10
139.2803444534573885
 20
126.5405630761733988
 10
138.9397212650135884
 20
126.5672802754499031
 10
138.5991410215532085
 20
126.5944982857232048
 10
138.2586099255296119
 20
126.6222643538445993
 10
137.9181341793965032
 20
126.6506257266656945
 10
137.5777199856073878
 20
126.6796296510377999
 10
137.2947117534270092
 20
126.7042700913233944
 10
137.0117539340355961
 20
126.7294146336121941
 10
136.7288500933732962
 20
126.7550904412569963
 10
136.4460037973800013
 20
126.781324677610499
 10
136.1632186119956884
 20
126.8081445060253998
 10
135.8804981031601073
 20
126.8355770898545956
 10
135.6139954943095915
 20
126.8620277369235936
 10
135.3475565405412908
 20
126.8890700265164071
 10
135.0811842307570885
 20
126.9167267264326
 10
134.8148815538596068
 20
126.9450206044719067
 10
134.548651498750786
 20
126.9739744284337064
 10
134.2824970543331062
 20
127.0036109661177051
 10
134.0164210723638973
 20
127.0339517525602986
 10
133.7504235764766918
 20
127.064992901415394
 10
133.4845019323454096
 20
127.0967066345257024
 10
133.2186534025730964
 20
127.1290642472538934
 10
132.9576206869211887
 20
127.1614430069428039
 10
132.69665326385649
 20
127.1943879730578999
 10
132.435748540025287
 20
127.2278719514138032
 10
132.1749039220738098
 20
127.2618677478256046
 10
131.8785592515808105
 20
127.3010860915076989
 10
131.582285042778409
 20
127.340890335742003
 10
131.2860774901490117
 20
127.3812405754623995
 10
130.9899327881749969
 20
127.4220969056030981
 10
130.6938471313387993
 20
127.4634194210977967
 10
130.3978167141227118
 20
127.5051682168808043
 10
130.1018377310091978
 20
127.5473033878860036
 10
129.8059063764806069
 20
127.5897850290474054
 10
129.3409584667616912
 20
127.6571459232888941
 10
128.8761040060051073
 20
127.7251089953396956
 10
128.4113282270272975
 20
127.7935193949292056
 10
127.9466163626449031
 20
127.8622222717867061
  0
ENDSEC
  0
SECTION
  2
OBJECTS
  0
DICTIONARY
  5
C
100
AcDbDictionary
280
0
281
1
  3
ACAD_GROUP
350
D
  3
ACAD_LAYOUT
350
1A
  3
ACAD_MLINESTYLE
350
17
  3
ACAD_PLOTSETTINGS
350
19
  3
ACAD_PLOTSTYLENAME
350
E
  3
AcDbVariableDictionary
350
67
  3
QCAD_OBJECTS
350
68
  0
DICTIONARY
  5
D
100
AcDbDictionary
280
0
281
1
  0
ACDBDICTIONARYWDFLT
  5
E
100
AcDbDictionary
281
1
  3
Normal
350
F
100
AcDbDictionaryWithDefault
340
F
  0
ACDBPLACEHOLDER
  5
F
  0
DICTIONARY
  5
17
100
AcDbDictionary
280
0
281
1
  3
Standard
350
18
  0
MLINESTYLE
  5
18
100
AcDbMlineStyle
  2
STANDARD
 70
0
  3

 62
256
 51
90.0
 52
90.0
 71
2
 49
0.5
 62
256
  6
BYLAYER
 49
-0.5
 62
256
  6
BYLAYER
  0
DICTIONARY
  5
19
100
AcDbDictionary
280
0
281
1
  0
DICTIONARY
  5
1A
100
AcDbDictionary
281
1
  3
Layout1
350
1E
  3
Layout2
350
26
  3
Model
350
22
  0
LAYOUT
  5
1E
100
AcDbPlotSettings
  1

  2
none_device
  4

  6

 40
0.0
 41
0.0
 42
0.0
 43
0.0
 44
0.0
 45
0.0
 46
0.0
 47
0.0
 48
0.0
 49
0.0
140
0.0
141
0.0
142
1.0
143
1.0
 70
688
 72
0
 73
0
 74
5
  7

 75
16
147
1.0
148
0.0
149
0.0
100
AcDbLayout
  1
Layout1
 70
1
 71
1
 10
0.0
 20
0.0
 11
420.0
 21
297.0
 12
0.0
 22
0.0
 32
0.0
 14
100000000000000000000.0
 24
100000000000000000000.0
 34
100000000000000000000.0
 15
-100000000000000000000.0
 25
-100000000000000000000.0
 35
-100000000000000000000.0
146
0.0
 13
0.0
 23
0.0
 33
0.0
 16
1.0
 26
0.0
 36
0.0
 17
0.0
 27
1.0
 37
0.0
 76
0
330
1B
  0
LAYOUT
  5
22
100
AcDbPlotSettings
  1

  2
none_device
  4

  6

 40
0.0
 41
0.0
 42
0.0
 43
0.0
 44
0.0
 45
0.0
 46
0.0
 47
0.0
 48
0.0
 49
0.0
140
0.0
141
0.0
142
1.0
143
1.0
 70
1712
 72
0
 73
0
 74
0
  7

 75
0
147
1.0
148
0.0
149
0.0
100
AcDbLayout
  1
Model
 70
1
 71
0
 10
0.0
 20
0.0
 11
12.0
 21
9.0
 12
0.0
 22
0.0
 32
0.0
 14
0.0
 24
0.0
 34
0.0
 15
0.0
 25
0.0
 35
0.0
146
0.0
 13
0.0
 23
0.0
 33
0.0
 16
1.0
 26
0.0
 36
0.0
 17
0.0
 27
1.0
 37
0.0
 76
0
330
1F
  0
LAYOUT
  5
26
100
AcDbPlotSettings
  1

  2
none_device
  4

  6

 40
0.0
 41
0.0
 42
0.0
 43
0.0
 44
0.0
 45
0.0
 46
0.0
 47
0.0
 48
0.0
 49
0.0
140
0.0
141
0.0
142
1.0
143
1.0
 70
688
 72
0
 73
0
 74
5
  7

 75
16
147
1.0
148
0.0
149
0.0
100
AcDbLayout
  1
Layout2
 70
1
 71
2
 10
0.0
 20
0.0
 11
12.0
 21
9.0
 12
0.0
 22
0.0
 32
0.0
 14
0.0
 24
0.0
 34
0.0
 15
0.0
 25
0.0
 35
0.0
146
0.0
 13
0.0
 23
0.0
 33
0.0
 16
1.0
 26
0.0
 36
0.0
 17
0.0
 27
1.0
 37
0.0
 76
0
330
23
  0
DICTIONARY
  5
67
100
AcDbDictionary
281
1
  3
DIMASSOC
350
6A
  3
HIDETEXT
350
69
  0
DICTIONARYVAR
  5
69
100
DictionaryVariables
280
0
  1
2
  0
DICTIONARYVAR
  5
6A
100
DictionaryVariables
280
0
  1
1
  0
DICTIONARY
  5
68
100
AcDbDictionary
281
1
  3
ColorSettings/BackgroundColor
350
6B
  3
ColorSettings/ColorMode
350
6C
  3
Grid/DisplayGrid00
350
6D
  3
Grid/DisplayGrid01
350
6E
  3
Grid/DisplayGrid02
350
6F
  3
Grid/DisplayGrid03
350
70
  3
Grid/GridSpacingX00
350
71
  3
Grid/GridSpacingX01
350
72
  3
Grid/GridSpacingX02
350
73
  3
Grid/GridSpacingX03
350
74
  3
Grid/GridSpacingY00
350
75
  3
Grid/GridSpacingY01
350
76
  3
Grid/GridSpacingY02
350
77
  3
Grid/GridSpacingY03
350
78
  3
Grid/IsometricGrid00
350
79
  3
Grid/IsometricGrid01
350
7A
  3
Grid/IsometricGrid02
350
7B
  3
Grid/IsometricGrid03
350
7C
  3
Grid/IsometricProjection00
350
7D
  3
Grid/IsometricProjection01
350
7E
  3
Grid/IsometricProjection02
350
7F
  3
Grid/IsometricProjection03
350
80
  3
Grid/MetaGridSpacingX00
350
81
  3
Grid/MetaGridSpacingX01
350
82
  3
Grid/MetaGridSpacingX02
350
83
  3
Grid/MetaGridSpacingX03
350
84
  3
Grid/MetaGridSpacingY00
350
85
  3
Grid/MetaGridSpacingY01
350
86
  3
Grid/MetaGridSpacingY02
350
87
  3
Grid/MetaGridSpacingY03
350
88
  3
MultiPageSettings/Columns
350
89
  3
MultiPageSettings/GlueMarginsBottom
350
8A
  3
MultiPageSettings/GlueMarginsLeft
350
8B
  3
MultiPageSettings/GlueMarginsRight
350
8C
  3
MultiPageSettings/GlueMarginsTop
350
8D
  3
MultiPageSettings/PrintCropMarks
350
8E
  3
MultiPageSettings/Rows
350
8F
  3
PageSettings/OffsetX
350
90
  3
PageSettings/OffsetY
350
91
  3
PageSettings/PageOrientation
350
92
  3
PageSettings/PaperHeight
350
93
  3
PageSettings/PaperWidth
350
94
  3
PageSettings/Scale
350
95
  3
PageSettings/ShowPaperBorders
350
96
  3
PageTagSettings/EnablePageTags
350
97
  3
PageTagSettings/TagAlignment
350
98
  3
PageTagSettings/TagFont
350
99
  3
PageTagSettings/TagPosition
350
9A
  3
QCADVersion
350
9B
  3
UnitSettings/PaperUnit
350
9C
  3
ViewportCenter
350
9D
  3
ViewportHeight
350
9E
  3
ViewportWidth
350
9F
  0
XRECORD
  5
6B
330
68
100
AcDbXrecord
280
1
1000
White
  0
XRECORD
  5
6C
330
68
100
AcDbXrecord
280
1
1000
FullColor
  0
XRECORD
  5
6D
330
68
100
AcDbXrecord
280
1
290
1
  0
XRECORD
  5
6E
330
68
100
AcDbXrecord
280
1
290
1
  0
XRECORD
  5
6F
330
68
100
AcDbXrecord
280
1
290
1
  0
XRECORD
  5
70
330
68
100
AcDbXrecord
280
1
290
1
  0
XRECORD
  5
71
330
68
100
AcDbXrecord
280
1
1000
auto
  0
XRECORD
  5
72
330
68
100
AcDbXrecord
280
1
1000
auto
  0
XRECORD
  5
73
330
68
100
AcDbXrecord
280
1
1000
auto
  0
XRECORD
  5
74
330
68
100
AcDbXrecord
280
1
1000
auto
  0
XRECORD
  5
75
330
68
100
AcDbXrecord
280
1
1000
auto
  0
XRECORD
  5
76
330
68
100
AcDbXrecord
280
1
1000
auto
  0
XRECORD
  5
77
330
68
100
AcDbXrecord
280
1
1000
auto
  0
XRECORD
  5
78
330
68
100
AcDbXrecord
280
1
1000
auto
  0
XRECORD
  5
79
330
68
100
AcDbXrecord
280
1
290
0
  0
XRECORD
  5
7A
330
68
100
AcDbXrecord
280
1
290
0
  0
XRECORD
  5
7B
330
68
100
AcDbXrecord
280
1
290
0
  0
XRECORD
  5
7C
330
68
100
AcDbXrecord
280
1
290
0
  0
XRECORD
  5
7D
330
68
100
AcDbXrecord
280
1
 90
65537
  0
XRECORD
  5
7E
330
68
100
AcDbXrecord
280
1
 90
65537
  0
XRECORD
  5
7F
330
68
100
AcDbXrecord
280
1
 90
65537
  0
XRECORD
  5
80
330
68
100
AcDbXrecord
280
1
 90
65537
  0
XRECORD
  5
81
330
68
100
AcDbXrecord
280
1
1000
auto
  0
XRECORD
  5
82
330
68
100
AcDbXrecord
280
1
1000
auto
  0
XRECORD
  5
83
330
68
100
AcDbXrecord
280
1
1000
auto
  0
XRECORD
  5
84
330
68
100
AcDbXrecord
280
1
1000
auto
  0
XRECORD
  5
85
330
68
100
AcDbXrecord
280
1
1000
auto
  0
XRECORD
  5
86
330
68
100
AcDbXrecord
280
1
1000
auto
  0
XRECORD
  5
87
330
68
100
AcDbXrecord
280
1
1000
auto
  0
XRECORD
  5
88
330
68
100
AcDbXrecord
280
1
1000
auto
  0
XRECORD
  5
89
330
68
100
AcDbXrecord
280
1
 90
1
  0
XRECORD
  5
8A
330
68
100
AcDbXrecord
280
1
 40
10.0
  0
XRECORD
  5
8B
330
68
100
AcDbXrecord
280
1
 40
10.0
  0
XRECORD
  5
8C
330
68
100
AcDbXrecord
280
1
 40
10.0
  0
XRECORD
  5
8D
330
68
100
AcDbXrecord
280
1
 40
10.0
  0
XRECORD
  5
8E
330
68
100
AcDbXrecord
280
1
290
0
  0
XRECORD
  5
8F
330
68
100
AcDbXrecord
280
1
 90
1
  0
XRECORD
  5
90
330
68
100
AcDbXrecord
280
1
 40
0.0
  0
XRECORD
  5
91
330
68
100
AcDbXrecord
280
1
 40
0.0
  0
XRECORD
  5
92
330
68
100
AcDbXrecord
280
1
1000
Portrait
  0
XRECORD
  5
93
330
68
100
AcDbXrecord
280
1
 40
297.0
  0
XRECORD
  5
94
330
68
100
AcDbXrecord
280
1
 40
210.0
  0
XRECORD
  5
95
330
68
100
AcDbXrecord
280
1
1000
1:1
  0
XRECORD
  5
96
330
68
100
AcDbXrecord
280
1
290
1
  0
XRECORD
  5
97
330
68
100
AcDbXrecord
280
1
290
0
  0
XRECORD
  5
98
330
68
100
AcDbXrecord
280
1
1000
Inside
  0
XRECORD
  5
99
330
68
100
AcDbXrecord
280
1
1000
Arial,10,-1,5,50,0,0,0,0,0
  0
XRECORD
  5
9A
330
68
100
AcDbXrecord
280
1
1000
TopLeft
  0
XRECORD
  5
9B
330
68
100
AcDbXrecord
280
1
1000
3.32.2
  0
XRECORD
  5
9C
330
68
100
AcDbXrecord
280
1
 90
4
  0
XRECORD
  5
9E
330
68
100
AcDbXrecord
280
1
 40
4.8158203610458941
  0
XRECORD
  5
9F
330
68
100
AcDbXrecord
280
1
 40
10.2769884073616282
  0
ENDSEC
  0
EOF
