999
dxflib 3.26.4.0
  0
SECTION
  2
HEADER
  9
$ACADVER
  1
AC1015
  9
$HANDSEED
  5
FFFF
  9
$ANGBASE
 50
0.0
  9
$ANGDIR
 70
0
  9
$ATTMODE
 70
1
  9
$AUNITS
 70
0
  9
$AUPREC
 70
0
  9
$CECOLOR
 62
256
  9
$CELTSCALE
 40
1.0
  9
$CHAMFERA
 40
0.0
  9
$CHAMFERB
 40
0.0
  9
$CHAMFERC
 40
0.0
  9
$CHAMFERD
 40
0.0
  9
$CMLJUST
 70
0
  9
$CMLSCALE
 40
20.0
  9
$DIMADEC
 70
2
  9
$DIMALT
 70
0
  9
$DIMALTD
 70
3
  9
$DIMALTF
 40
0.0393700787401575
  9
$DIMALTRND
 40
0.0
  9
$DIMALTTD
 70
3
  9
$DIMALTTZ
 70
0
  9
$DIMALTU
 70
2
  9
$DIMALTZ
 70
0
  9
$DIMAPOST
  1

  9
$DIMASZ
 40
2.5
  9
$DIMATFIT
 70
3
  9
$DIMAUNIT
 70
0
  9
$DIMAZIN
 70
0
  9
$DIMBLK
  1
0
  9
$DIMBLK1
  1
0
  9
$DIMBLK2
  1
0
  9
$DIMCEN
 40
2.5
  9
$DIMCLRD
 70
0
  9
$DIMCLRE
 70
0
  9
$DIMDEC
 70
2
  9
$DIMDLE
 40
0.0
  9
$DIMDLI
 40
3.75
  9
$DIMDSEP
 70
44
  9
$DIMEXE
 40
1.25
  9
$DIMEXO
 40
0.625
  9
$DIMFRAC
 70
2
  9
$DIMGAP
 40
0.7
  9
$DIMJUST
 70
0
  9
$DIMLDRBLK
  1

  9
$DIMLFAC
 40
1.0
  9
$DIMLIM
 70
0
  9
$DIMLUNIT
 70
2
  9
$DIMLWD
 70
15
  9
$DIMLWE
 70
15
  9
$DIMPOST
  1

  9
$DIMRND
 40
0.01
  9
$DIMSAH
 70
0
  9
$DIMSCALE
 40
1.0
  9
$DIMSD1
 70
0
  9
$DIMSD2
 70
0
  9
$DIMSE1
 70
0
  9
$DIMSE2
 70
0
  9
$DIMSOXD
 70
0
  9
$DIMTAD
 70
1
  9
$DIMTDEC
 70
2
  9
$DIMTFAC
 40
1.0
  9
$DIMTIH
 70
0
  9
$DIMTIX
 70
0
  9
$DIMTM
 40
0.0
  9
$DIMTOFL
 70
1
  9
$DIMTOH
 70
0
  9
$DIMTOL
 70
0
  9
$DIMTOLJ
 70
0
  9
$DIMTP
 40
0.0
  9
$DIMTSZ
 40
0.0
  9
$DIMTVP
 40
0.0
  9
$DIMTXSTY
  7
Standard
  9
$DIMTXT
 40
2.5
  9
$DIMTZIN
 70
8
  9
$DIMUPT
 70
0
  9
$DIMZIN
 70
8
  9
$DISPSILH
 70
0
  9
$DWGCODEPAGE
  3
ANSI_1252
  9
$ELEVATION
 40
0.0
  9
$EXTMAX
 10
-100000000000000000000.0
 20
-100000000000000000000.0
 30
-100000000000000000000.0
  9
$EXTMIN
 10
100000000000000000000.0
 20
100000000000000000000.0
 30
100000000000000000000.0
  9
$FILLETRAD
 40
0.0
  9
$FILLMODE
 70
1
  9
$INSBASE
 10
0.0
 20
0.0
 30
0.0
  9
$INSUNITS
 70
4
  9
$LIMCHECK
 70
0
  9
$LIMMAX
 10
420.0
 20
297.0
  9
$LIMMIN
 10
0.0
 20
0.0
  9
$LTSCALE
 40
1.0
  9
$LUNITS
 70
2
  9
$LUPREC
 70
4
  9
$MAXACTVP
 70
64
  9
$MEASUREMENT
 70
1
  9
$MIRRTEXT
 70
1
  9
$ORTHOMODE
 70
0
  9
$PDMODE
 70
0
  9
$PDSIZE
 40
0.0
  9
$PELEVATION
 40
0.0
  9
$PEXTMAX
 10
0.0
 20
0.0
 30
0.0
  9
$PEXTMIN
 10
0.0
 20
0.0
 30
0.0
  9
$PINSBASE
 10
0.0
 20
0.0
 30
0.0
  9
$PLIMCHECK
 70
0
  9
$PLIMMAX
 10
277.0
 20
202.5
  9
$PLIMMIN
 10
-20.0
 20
-7.5
  9
$PLINEGEN
 70
0
  9
$PLINEWID
 40
0.0
  9
$PROXYGRAPHICS
 70
1
  9
$PSLTSCALE
 70
1
  9
$PUCSNAME
  2

  9
$PUCSORG
 10
0.0
 20
0.0
 30
0.0
  9
$PUCSXDIR
 10
1.0
 20
0.0
 30
0.0
  9
$PUCSYDIR
 10
0.0
 20
1.0
 30
0.0
  9
$QTEXTMODE
 70
0
  9
$REGENMODE
 70
1
  9
$SHADEDGE
 70
3
  9
$SHADEDIF
 70
70
  9
$SKETCHINC
 40
1.0
  9
$SKPOLY
 70
0
  9
$SPLFRAME
 70
0
  9
$SPLINESEGS
 70
8
  9
$SPLINETYPE
 70
6
  9
$SURFTAB1
 70
6
  9
$SURFTAB2
 70
6
  9
$SURFTYPE
 70
6
  9
$SURFU
 70
6
  9
$SURFV
 70
6
  9
$TEXTSIZE
 40
2.5
  9
$TEXTSTYLE
  7
Standard
  9
$THICKNESS
 40
0.0
  9
$TILEMODE
 70
0
  9
$TRACEWID
 40
1.0
  9
$TREEDEPTH
 70
3020
  9
$UCSNAME
  2

  9
$UCSORG
 10
0.0
 20
0.0
 30
0.0
  9
$UCSXDIR
 10
1.0
 20
0.0
 30
0.0
  9
$UCSYDIR
 10
0.0
 20
1.0
 30
0.0
  9
$UNITMODE
 70
0
  9
$USERI1
 70
0
  9
$USERI2
 70
0
  9
$USERI3
 70
0
  9
$USERI4
 70
0
  9
$USERI5
 70
0
  9
$USERR1
 40
0.0
  9
$USERR2
 40
0.0
  9
$USERR3
 40
0.0
  9
$USERR4
 40
0.0
  9
$USERR5
 40
0.0
  9
$USRTIMER
 70
1
  9
$VISRETAIN
 70
1
  0
ENDSEC
  0
SECTION
  2
TABLES
  0
TABLE
  2
VPORT
  5
8
100
AcDbSymbolTable
 70
1
  0
VPORT
  5
30
100
AcDbSymbolTableRecord
100
AcDbViewportTableRecord
  2
*Active
 70
0
 10
0.0
 20
0.0
 11
1.0
 21
1.0
 12
286.3055555555554861
 22
148.5
 13
0.0
 23
0.0
 14
10.0
 24
10.0
 15
10.0
 25
10.0
 16
0.0
 26
0.0
 36
1.0
 17
0.0
 27
0.0
 37
0.0
 40
297.0
 41
1.92798353909465
 42
50.0
 43
0.0
 44
0.0
 50
0.0
 51
0.0
 71
0
 72
100
 73
1
 74
3
 75
1
 76
1
 77
0
 78
0
281
0
 65
1
110
0.0
120
0.0
130
0.0
111
1.0
121
0.0
131
0.0
112
0.0
122
1.0
132
0.0
 79
0
146
0.0
  0
ENDTAB
  0
TABLE
  2
LTYPE
  5
5
100
AcDbSymbolTable
 70
46
  0
LTYPE
  5
16
100
AcDbSymbolTableRecord
100
AcDbLinetypeTableRecord
  2
Continuous
 70
0
  3
Solid line
 72
65
 73
0
 40
0.0
  0
LTYPE
  5
31
100
AcDbSymbolTableRecord
100
AcDbLinetypeTableRecord
  2
DASHED
 70
0
  3
Dashed __ __ __ __ __ __ __ __ __ __ __ __ __ _
 72
65
 73
2
 40
19.0499999999999972
 49
12.6999999999999993
 74
0
 49
-6.3499999999999996
 74
0
  0
LTYPE
  5
32
100
AcDbSymbolTableRecord
100
AcDbLinetypeTableRecord
  2
DOTX2
 70
0
  3
Dot (2x) .  .  .  .  .  .  .  .  .  .  .  .  .  .
 72
65
 73
2
 40
12.6999999999999993
 49
0.0
 74
0
 49
-12.6999999999999993
 74
0
  0
LTYPE
  5
33
100
AcDbSymbolTableRecord
100
AcDbLinetypeTableRecord
  2
DASHDOT2
 70
0
  3
Dash dot (.5x) _._._._._._._._._._._._._._._.
 72
65
 73
4
 40
12.6999999999999993
 49
6.3499999999999996
 74
0
 49
-3.1749999999999998
 74
0
 49
0.0
 74
0
 49
-3.1749999999999998
 74
0
  0
LTYPE
  5
34
100
AcDbSymbolTableRecord
100
AcDbLinetypeTableRecord
  2
ACAD_ISO05W100
 70
0
  3
ISO long-dash double-dot ____ .. ____ .. ____ . 
 72
65
 73
6
 40
33.0
 49
24.0
 74
0
 49
-3.0
 74
0
 49
0.0
 74
0
 49
-3.0
 74
0
 49
0.0
 74
0
 49
-3.0
 74
0
  0
LTYPE
  5
35
100
AcDbSymbolTableRecord
100
AcDbLinetypeTableRecord
  2
HIDDENX2
 70
0
  3
Hidden (2x) ____ ____ ____ ____ ____ ____ ____ 
 72
65
 73
2
 40
19.0499999999999972
 49
12.6999999999999993
 74
0
 49
-6.3499999999999996
 74
0
  0
LTYPE
  5
36
100
AcDbSymbolTableRecord
100
AcDbLinetypeTableRecord
  2
CENTER2
 70
0
  3
Center (.5x) ___ _ ___ _ ___ _ ___ _ ___ _ ___
 72
65
 73
4
 40
28.5750000000000028
 49
19.0500000000000007
 74
0
 49
-3.1749999999999998
 74
0
 49
3.1749999999999998
 74
0
 49
-3.1749999999999998
 74
0
  0
LTYPE
  5
37
100
AcDbSymbolTableRecord
100
AcDbLinetypeTableRecord
  2
ACAD_ISO03W100
 70
0
  3
ISO dash space __    __    __    __    __    __
 72
65
 73
2
 40
30.0
 49
12.0
 74
0
 49
-18.0
 74
0
  0
LTYPE
  5
38
100
AcDbSymbolTableRecord
100
AcDbLinetypeTableRecord
  2
DIVIDE2
 70
0
  3
Divide (.5x) __..__..__..__..__..__..__..__.._
 72
65
 73
6
 40
15.875
 49
6.3499999999999996
 74
0
 49
-3.1749999999999998
 74
0
 49
0.0
 74
0
 49
-3.1749999999999998
 74
0
 49
0.0
 74
0
 49
-3.1749999999999998
 74
0
  0
LTYPE
  5
39
100
AcDbSymbolTableRecord
100
AcDbLinetypeTableRecord
  2
PHANTOMX2
 70
0
  3
Phantom (2x) ____________    ____    ____   _
 72
65
 73
6
 40
127.0000000000000142
 49
63.5
 74
0
 49
-12.6999999999999993
 74
0
 49
12.6999999999999993
 74
0
 49
-12.6999999999999993
 74
0
 49
12.6999999999999993
 74
0
 49
-12.6999999999999993
 74
0
  0
LTYPE
  5
3A
100
AcDbSymbolTableRecord
100
AcDbLinetypeTableRecord
  2
BORDER
 70
0
  3
Border __ __ . __ __ . __ __ . __ __ . __ __ .
 72
65
 73
6
 40
44.4499999999999957
 49
12.6999999999999993
 74
0
 49
-6.3499999999999996
 74
0
 49
12.6999999999999993
 74
0
 49
-6.3499999999999996
 74
0
 49
0.0
 74
0
 49
-6.3499999999999996
 74
0
  0
LTYPE
  5
3B
100
AcDbSymbolTableRecord
100
AcDbLinetypeTableRecord
  2
DraftedLine
 70
0
  3

 72
65
 73
2
 40
3.0
 49
2.0
 74
0
 49
-1.0
 74
0
  0
LTYPE
  5
3C
100
AcDbSymbolTableRecord
100
AcDbLinetypeTableRecord
  2
PHANTOM
 70
0
  3
Phantom ______  __  __  ______  __  __  ______ 
 72
65
 73
6
 40
63.5000000000000071
 49
31.75
 74
0
 49
-6.3499999999999996
 74
0
 49
6.3499999999999996
 74
0
 49
-6.3499999999999996
 74
0
 49
6.3499999999999996
 74
0
 49
-6.3499999999999996
 74
0
  0
LTYPE
  5
3D
100
AcDbSymbolTableRecord
100
AcDbLinetypeTableRecord
  2
CENTER
 70
0
  3
Center ____ _ ____ _ ____ _ ____ _ ____ _ ____
 72
65
 73
4
 40
50.8000000000000043
 49
31.75
 74
0
 49
-6.3499999999999996
 74
0
 49
6.3499999999999996
 74
0
 49
-6.3499999999999996
 74
0
  0
LTYPE
  5
3E
100
AcDbSymbolTableRecord
100
AcDbLinetypeTableRecord
  2
CenterLine
 70
0
  3

 72
65
 73
4
 40
8.0
 49
5.0
 74
0
 49
-1.0
 74
0
 49
1.0
 74
0
 49
-1.0
 74
0
  0
LTYPE
  5
3F
100
AcDbSymbolTableRecord
100
AcDbLinetypeTableRecord
  2
ACAD_ISO13W100
 70
0
  3
ISO double-dash double-dot __ __ . . __ __ . . _
 72
65
 73
8
 40
36.0
 49
12.0
 74
0
 49
-3.0
 74
0
 49
12.0
 74
0
 49
-3.0
 74
0
 49
0.0
 74
0
 49
-3.0
 74
0
 49
0.0
 74
0
 49
-3.0
 74
0
  0
LTYPE
  5
40
100
AcDbSymbolTableRecord
100
AcDbLinetypeTableRecord
  2
SectionLineANSI
 70
0
  3

 72
65
 73
7
 40
11.9944444444445182
 49
4.23333333333336
 74
0
 49
-1.05833333333334
 74
0
 49
0.17638888888889
 74
0
 49
-1.05833333333334
 74
0
 49
0.17638888888889
 74
0
 49
-1.05833333333334
 74
0
 49
4.23333333333336
 74
0
  0
LTYPE
  5
15
100
AcDbSymbolTableRecord
100
AcDbLinetypeTableRecord
  2
ByLayer
 70
0
  3

 72
65
 73
0
 40
0.0
  0
LTYPE
  5
41
100
AcDbSymbolTableRecord
100
AcDbLinetypeTableRecord
  2
ACAD_ISO09W100
 70
0
  3
ISO long-dash double-short-dash ____ __ __ ____
 72
65
 73
6
 40
45.0
 49
24.0
 74
0
 49
-3.0
 74
0
 49
6.0
 74
0
 49
-3.0
 74
0
 49
6.0
 74
0
 49
-3.0
 74
0
  0
LTYPE
  5
42
100
AcDbSymbolTableRecord
100
AcDbLinetypeTableRecord
  2
ACAD_ISO04W100
 70
0
  3
ISO long-dash dot ____ . ____ . ____ . ____ . _
 72
65
 73
4
 40
30.0
 49
24.0
 74
0
 49
-3.0
 74
0
 49
0.0
 74
0
 49
-3.0
 74
0
  0
LTYPE
  5
43
100
AcDbSymbolTableRecord
100
AcDbLinetypeTableRecord
  2
ACAD_ISO15W100
 70
0
  3
ISO double-dash triple-dot __ __ . . . __ __ . .
 72
65
 73
10
 40
39.0
 49
12.0
 74
0
 49
-3.0
 74
0
 49
12.0
 74
0
 49
-3.0
 74
0
 49
0.0
 74
0
 49
-3.0
 74
0
 49
0.0
 74
0
 49
-3.0
 74
0
 49
0.0
 74
0
 49
-3.0
 74
0
  0
LTYPE
  5
14
100
AcDbSymbolTableRecord
100
AcDbLinetypeTableRecord
  2
ByBlock
 70
0
  3

 72
65
 73
0
 40
0.0
  0
LTYPE
  5
44
100
AcDbSymbolTableRecord
100
AcDbLinetypeTableRecord
  2
DASHED2
 70
0
  3
Dashed (.5x) _ _ _ _ _ _ _ _ _ _ _ _ _ _ _ _ _ 
 72
65
 73
2
 40
9.5249999999999986
 49
6.3499999999999996
 74
0
 49
-3.1749999999999998
 74
0
  0
LTYPE
  5
45
100
AcDbSymbolTableRecord
100
AcDbLinetypeTableRecord
  2
ACAD_ISO02W100
 70
0
  3
ISO dash __ __ __ __ __ __ __ __ __ __ __ __ __
 72
65
 73
2
 40
15.0
 49
12.0
 74
0
 49
-3.0
 74
0
  0
LTYPE
  5
46
100
AcDbSymbolTableRecord
100
AcDbLinetypeTableRecord
  2
SectionLineISO
 70
0
  3

 72
65
 73
5
 40
13.7583333333334217
 49
4.23333333333336
 74
0
 49
-2.11666666666668
 74
0
 49
1.05833333333334
 74
0
 49
-2.11666666666668
 74
0
 49
4.23333333333336
 74
0
  0
LTYPE
  5
47
100
AcDbSymbolTableRecord
100
AcDbLinetypeTableRecord
  2
BORDER2
 70
0
  3
Border (.5x) __.__.__.__.__.__.__.__.__.__.__.
 72
65
 73
6
 40
22.2249999999999979
 49
6.3499999999999996
 74
0
 49
-3.1749999999999998
 74
0
 49
6.3499999999999996
 74
0
 49
-3.1749999999999998
 74
0
 49
0.0
 74
0
 49
-3.1749999999999998
 74
0
  0
LTYPE
  5
48
100
AcDbSymbolTableRecord
100
AcDbLinetypeTableRecord
  2
BORDERX2
 70
0
  3
Border (2x) ____  ____  .  ____  ____  .  ___
 72
65
 73
6
 40
88.8999999999999915
 49
25.3999999999999986
 74
0
 49
-12.6999999999999993
 74
0
 49
25.3999999999999986
 74
0
 49
-12.6999999999999993
 74
0
 49
0.0
 74
0
 49
-12.6999999999999993
 74
0
  0
LTYPE
  5
49
100
AcDbSymbolTableRecord
100
AcDbLinetypeTableRecord
  2
DASHDOT
 70
0
  3
Dash dot __ . __ . __ . __ . __ . __ . __ . __
 72
65
 73
4
 40
25.3999999999999986
 49
12.6999999999999993
 74
0
 49
-6.3499999999999996
 74
0
 49
0.0
 74
0
 49
-6.3499999999999996
 74
0
  0
LTYPE
  5
4A
100
AcDbSymbolTableRecord
100
AcDbLinetypeTableRecord
  2
ACAD_ISO14W100
 70
0
  3
ISO dash triple-dot __ . . . __ . . . __ . . . _
 72
65
 73
8
 40
24.0
 49
12.0
 74
0
 49
-3.0
 74
0
 49
0.0
 74
0
 49
-3.0
 74
0
 49
0.0
 74
0
 49
-3.0
 74
0
 49
0.0
 74
0
 49
-3.0
 74
0
  0
LTYPE
  5
4B
100
AcDbSymbolTableRecord
100
AcDbLinetypeTableRecord
  2
DOT2
 70
0
  3
Dot (.5x) ........................................
 72
65
 73
2
 40
3.1749999999999998
 49
0.0
 74
0
 49
-3.1749999999999998
 74
0
  0
LTYPE
  5
4C
100
AcDbSymbolTableRecord
100
AcDbLinetypeTableRecord
  2
DetailCircleISO
 70
0
  3

 72
65
 73
5
 40
13.7583333333334217
 49
4.23333333333336
 74
0
 49
-2.11666666666668
 74
0
 49
1.05833333333334
 74
0
 49
-2.11666666666668
 74
0
 49
4.23333333333336
 74
0
  0
LTYPE
  5
4D
100
AcDbSymbolTableRecord
100
AcDbLinetypeTableRecord
  2
HIDDEN2
 70
0
  3
Hidden (.5x) _ _ _ _ _ _ _ _ _ _ _ _ _ _ _ _ _ 
 72
65
 73
2
 40
4.7624999999999993
 49
3.1749999999999998
 74
0
 49
-1.5874999999999999
 74
0
  0
LTYPE
  5
4E
100
AcDbSymbolTableRecord
100
AcDbLinetypeTableRecord
  2
DASHDOTX2
 70
0
  3
Dash dot (2x) ____  .  ____  .  ____  .  ___
 72
65
 73
4
 40
50.7999999999999972
 49
25.3999999999999986
 74
0
 49
-12.6999999999999993
 74
0
 49
0.0
 74
0
 49
-12.6999999999999993
 74
0
  0
LTYPE
  5
4F
100
AcDbSymbolTableRecord
100
AcDbLinetypeTableRecord
  2
ACAD_ISO07W100
 70
0
  3
ISO dot . . . . . . . . . . . . . . . . . . . . 
 72
65
 73
2
 40
3.0
 49
0.0
 74
0
 49
-3.0
 74
0
  0
LTYPE
  5
50
100
AcDbSymbolTableRecord
100
AcDbLinetypeTableRecord
  2
DOT
 70
0
  3
Dot . . . . . . . . . . . . . . . . . . . . . . . .
 72
65
 73
2
 40
6.3499999999999996
 49
0.0
 74
0
 49
-6.3499999999999996
 74
0
  0
LTYPE
  5
51
100
AcDbSymbolTableRecord
100
AcDbLinetypeTableRecord
  2
ACAD_ISO08W100
 70
0
  3
ISO long-dash short-dash ____ __ ____ __ ____ _
 72
65
 73
4
 40
36.0
 49
24.0
 74
0
 49
-3.0
 74
0
 49
6.0
 74
0
 49
-3.0
 74
0
  0
LTYPE
  5
52
100
AcDbSymbolTableRecord
100
AcDbLinetypeTableRecord
  2
ACAD_ISO12W100
 70
0
  3
ISO dash double-dot __ . . __ . . __ . . __ . . 
 72
65
 73
6
 40
21.0
 49
12.0
 74
0
 49
-3.0
 74
0
 49
0.0
 74
0
 49
-3.0
 74
0
 49
0.0
 74
0
 49
-3.0
 74
0
  0
LTYPE
  5
53
100
AcDbSymbolTableRecord
100
AcDbLinetypeTableRecord
  2
DIVIDEX2
 70
0
  3
Divide (2x) ________  .  .  ________  .  .  _
 72
65
 73
6
 40
63.5
 49
25.3999999999999986
 74
0
 49
-12.6999999999999993
 74
0
 49
0.0
 74
0
 49
-12.6999999999999993
 74
0
 49
0.0
 74
0
 49
-12.6999999999999993
 74
0
  0
LTYPE
  5
54
100
AcDbSymbolTableRecord
100
AcDbLinetypeTableRecord
  2
DIVIDE
 70
0
  3
Divide ____ . . ____ . . ____ . . ____ . . ____
 72
65
 73
6
 40
31.75
 49
12.6999999999999993
 74
0
 49
-6.3499999999999996
 74
0
 49
0.0
 74
0
 49
-6.3499999999999996
 74
0
 49
0.0
 74
0
 49
-6.3499999999999996
 74
0
  0
LTYPE
  5
55
100
AcDbSymbolTableRecord
100
AcDbLinetypeTableRecord
  2
CENTERX2
 70
0
  3
Center (2x) ________  __  ________  __  _____
 72
65
 73
4
 40
101.6000000000000085
 49
63.5
 74
0
 49
-12.6999999999999993
 74
0
 49
12.6999999999999993
 74
0
 49
-12.6999999999999993
 74
0
  0
LTYPE
  5
56
100
AcDbSymbolTableRecord
100
AcDbLinetypeTableRecord
  2
ACAD_ISO10W100
 70
0
  3
ISO dash dot __ . __ . __ . __ . __ . __ . __ . 
 72
65
 73
4
 40
18.0
 49
12.0
 74
0
 49
-3.0
 74
0
 49
0.0
 74
0
 49
-3.0
 74
0
  0
LTYPE
  5
57
100
AcDbSymbolTableRecord
100
AcDbLinetypeTableRecord
  2
HIDDEN
 70
0
  3
Hidden __ __ __ __ __ __ __ __ __ __ __ __ __ __
 72
65
 73
2
 40
9.5249999999999986
 49
6.3499999999999996
 74
0
 49
-3.1749999999999998
 74
0
  0
LTYPE
  5
58
100
AcDbSymbolTableRecord
100
AcDbLinetypeTableRecord
  2
DASHEDX2
 70
0
  3
Dashed (2x) ____  ____  ____  ____  ____  ___
 72
65
 73
2
 40
38.0999999999999943
 49
25.3999999999999986
 74
0
 49
-12.6999999999999993
 74
0
  0
LTYPE
  5
59
100
AcDbSymbolTableRecord
100
AcDbLinetypeTableRecord
  2
PHANTOM2
 70
0
  3
Phantom (.5x) ___ _ _ ___ _ _ ___ _ _ ___ _ _
 72
65
 73
6
 40
31.7500000000000036
 49
15.875
 74
0
 49
-3.1749999999999998
 74
0
 49
3.1749999999999998
 74
0
 49
-3.1749999999999998
 74
0
 49
3.1749999999999998
 74
0
 49
-3.1749999999999998
 74
0
  0
LTYPE
  5
5A
100
AcDbSymbolTableRecord
100
AcDbLinetypeTableRecord
  2
ACAD_ISO11W100
 70
0
  3
ISO double-dash dot __ __ . __ __ . __ __ . __ _
 72
65
 73
6
 40
33.0
 49
12.0
 74
0
 49
-3.0
 74
0
 49
12.0
 74
0
 49
-3.0
 74
0
 49
0.0
 74
0
 49
-3.0
 74
0
  0
LTYPE
  5
5B
100
AcDbSymbolTableRecord
100
AcDbLinetypeTableRecord
  2
ACAD_ISO06W100
 70
0
  3
ISO long-dash triple-dot ____ ... ____ ... ____
 72
65
 73
8
 40
36.0
 49
24.0
 74
0
 49
-3.0
 74
0
 49
0.0
 74
0
 49
-3.0
 74
0
 49
0.0
 74
0
 49
-3.0
 74
0
 49
0.0
 74
0
 49
-3.0
 74
0
  0
ENDTAB
  0
TABLE
  2
LAYER
  5
2
100
AcDbSymbolTable
 70
4
  0
LAYER
  5
5C
100
AcDbSymbolTableRecord
100
AcDbLayerTableRecord
  2
Geometries
 70
0
 62
7
420
16777215
  6
Continuous
370
-3
390
F
  0
LAYER
  5
10
100
AcDbSymbolTableRecord
100
AcDbLayerTableRecord
  2
0
 70
0
 62
7
420
16777215
  6
Continuous
370
-3
390
F
  0
LAYER
  5
5D
100
AcDbSymbolTableRecord
100
AcDbLayerTableRecord
  2
Border
 70
0
 62
7
420
16777215
  6
Continuous
370
-3
390
F
  0
LAYER
  5
5E
100
AcDbSymbolTableRecord
100
AcDbLayerTableRecord
  2
Annotations
 70
0
 62
7
420
16777215
  6
Continuous
370
-3
390
F
  0
ENDTAB
  0
TABLE
  2
STYLE
  5
3
100
AcDbSymbolTable
 70
1
  0
STYLE
  5
5F
100
AcDbSymbolTableRecord
100
AcDbTextStyleTableRecord
  2
Standard
 70
0
 40
0.0
 41
1.0
 50
0.0
 71
0
 42
2.5
  3

  4

1001
ACAD
1000
txt
1071
0
  0
ENDTAB
  0
TABLE
  2
VIEW
  5
6
100
AcDbSymbolTable
 70
0
  0
ENDTAB
  0
TABLE
  2
UCS
  5
7
100
AcDbSymbolTable
 70
0
  0
ENDTAB
  0
TABLE
  2
APPID
  5
9
100
AcDbSymbolTable
 70
1
  0
APPID
  5
12
100
AcDbSymbolTableRecord
100
AcDbRegAppTableRecord
  2
ACAD
 70
0
  0
APPID
  5
60
100
AcDbSymbolTableRecord
100
AcDbRegAppTableRecord
  2
QCAD
 70
0
  0
ENDTAB
  0
TABLE
  2
DIMSTYLE
  5
A
100
AcDbSymbolTable
 70
1
100
AcDbDimStyleTable
 71
0
  0
DIMSTYLE
105
27
100
AcDbSymbolTableRecord
100
AcDbDimStyleTableRecord
  2
Standard
 41
2.5
 42
0.625
 43
3.75
 44
1.25
 70
0
 73
0
 74
0
 77
1
 78
8
140
2.5
141
2.5
143
0.03937007874016
147
0.7
171
3
172
1
271
2
272
2
274
3
278
44
283
0
284
8
340
5F
  0
ENDTAB
  0
TABLE
  2
BLOCK_RECORD
  5
1
100
AcDbSymbolTable
 70
1
  0
BLOCK_RECORD
  5
1F
100
AcDbSymbolTableRecord
100
AcDbBlockTableRecord
  2
*Model_Space
340
22
  0
BLOCK_RECORD
  5
1B
100
AcDbSymbolTableRecord
100
AcDbBlockTableRecord
  2
*Paper_Space
340
1E
  0
BLOCK_RECORD
  5
23
100
AcDbSymbolTableRecord
100
AcDbBlockTableRecord
  2
*Paper_Space0
340
26
  0
ENDTAB
  0
ENDSEC
  0
SECTION
  2
BLOCKS
  0
BLOCK
  5
20
100
AcDbEntity
  8
0
100
AcDbBlockBegin
  2
*Model_Space
 70
0
 10
0.0
 20
0.0
 30
0.0
  3
*Model_Space
  1

  0
ENDBLK
  5
21
100
AcDbEntity
  8
0
100
AcDbBlockEnd
  0
BLOCK
  5
1C
100
AcDbEntity
 67
1
  8
0
100
AcDbBlockBegin
  2
*Paper_Space
 70
0
 10
0.0
 20
0.0
 30
0.0
  3
*Paper_Space
  1

  0
ENDBLK
  5
1D
100
AcDbEntity
 67
1
  8
0
100
AcDbBlockEnd
  0
BLOCK
  5
24
100
AcDbEntity
  8
0
100
AcDbBlockBegin
  2
*Paper_Space0
 70
0
 10
0.0
 20
0.0
 30
0.0
  3
*Paper_Space0
  1

  0
ENDBLK
  5
25
100
AcDbEntity
  8
0
100
AcDbBlockEnd
  0
ENDSEC
  0
SECTION
  2
ENTITIES
  0
LWPOLYLINE
  5
61
100
AcDbEntity
  8
Geometries
 62
256
370
0
 48
1.0
  6
Continuous
100
AcDbPolyline
 90
104
 70
128
 10
347.778863791913011
 20
120.4334664940066943
 10
346.9041494864903825
 20
120.417428208454794
 10
346.0312580630297248
 20
120.4016023236766983
 10
345.1601879420961154
 20
120.3859880879667941
 10
344.2909372710341813
 20
120.3705847572886967
 10
343.4235039239678144
 20
120.3553915952761031
 10
342.573327073386622
 20
120.3406736072794985
 10
341.7248983790847205
 20
120.3261569628656957
 10
340.8782150574514276
 20
120.3118409860203002
 10
340.0332740706548975
 20
120.2977250078650968
 10
339.1728820067548895
 20
120.2835264245317006
 10
338.3142969197535876
 20
120.2695347019675012
 10
337.4575147634205905
 20
120.255749152480206
 10
336.6025312159069927
 20
120.2421690961146936
 10
335.7493416797452142
 20
120.2287938606528996
 10
334.8979412818493984
 20
120.2156227816137033
 10
334.0483248735142752
 20
120.2026552022530979
 10
333.200487030418401
 20
120.1898904735642049
 10
332.3544220526190998
 20
120.1773279542770041
 10
331.5101239645563851
 20
120.1649670108589021
 10
330.667586515051994
 20
120.1528070175139931
 10
329.8268031773083067
 20
120.140847356183599
 10
328.9877671489098248
 20
120.1290874165460991
 10
328.1504713518219205
 20
120.1175265960168019
 10
327.2314471573815808
 20
120.1050389662850932
 10
326.3145095661690789
 20
120.0927907701434947
 10
325.3996480017489148
 20
120.0807812379908057
 10
324.4868514841522256
 20
120.0690096115534971
 10
323.5761086298775808
 20
120.0574751438859948
 10
322.7499327743230992
 20
120.0471944439019012
 10
321.9254352794824854
 20
120.0371085902603028
 10
321.1026067245641116
 20
120.0272170461418
 10
320.2814374131576756
 20
120.0175192824636952
 10
319.4619173732344279
 20
120.0080147778807032
 10
318.6440363571470016
 20
119.9987030187841981
 10
317.8277838416304917
 20
119.9895834993029951
 10
316.9317740960281071
 20
119.9797734703367951
 10
316.0377070051234227
 20
119.9701947965226054
 10
315.1455674068777739
 20
119.9608468369842029
 10
314.255339735719474
 20
119.9517289621737035
 10
313.3670080225431889
 20
119.9428405538704965
 10
312.4805558947113013
 20
119.9341810051822961
 10
311.5959665760522057
 20
119.9257497205442036
 10
310.7132228868620132
 20
119.9175461157195031
 10
309.832307243903017
 20
119.9095696177990931
 10
308.9532016604052842
 20
119.9018196652017991
 10
308.0915384628739844
 20
119.8944280854170046
 10
307.2315857173048812
 20
119.8872539908191044
 10
306.3733252467437183
 20
119.8802968812854033
 10
305.516738498762777
 20
119.8735562672332975
 10
304.5655858675767149
 20
119.8663100750055008
 10
303.6164552932514766
 20
119.8593306733786932
 10
302.6693195804384118
 20
119.8526174339559986
 10
301.7241509582955246
 20
119.8461697444953984
 10
300.7809210804878717
 20
119.8399870089100006
 10
299.8396010251867096
 20
119.8340686472679977
 10
298.9001612950693243
 20
119.8284140957923967
 10
298.04063434851588
 20
119.8234620388481062
 10
297.1826385458160189
 20
119.8187307855059061
 10
296.3261498921008865
 20
119.8142199372890957
 10
295.4711439861650888
 20
119.8099291071275019
 10
294.6175960204665216
 20
119.8058579193576065
 10
293.7654807811258024
 20
119.8020060097222057
 10
292.7447975908406761
 20
119.7976726692865981
 10
291.7260955678490859
 20
119.7936539938178981
 10
290.7093288254736194
 20
119.7899494189243939
 10
289.6944506344569277
 20
119.7865584038669056
 10
288.6814134229621231
 20
119.7834804315590986
 10
287.6882112815926007
 20
119.7807616530905932
 10
286.6966916012091815
 20
119.778343915798601
 10
285.7068069398811758
 20
119.7762267964294978
 10
284.7185090716886862
 20
119.7744098937376975
 10
283.7138218986485185
 20
119.7728680221476054
 10
282.7106774115878238
 20
119.7716366605830984
 10
281.7090248138906077
 20
119.7707155735994036
 10
280.7088141780848218
 20
119.7701046265458018
 10
279.7099964458423074
 20
119.7698037855655002
 10
278.7303239296251149
 20
119.7698102301808945
 10
277.7519036912113961
 20
119.7701160268725005
 10
276.7746917019185275
 20
119.7707214274775964
 10
275.7986447417678733
 20
119.7716267776191046
 10
274.6381443481125189
 20
119.7730962815641931
 10
273.4791649448396811
 20
119.7749924260861007
 10
272.321638095085973
 20
119.7773163142199024
 10
271.1654969863142242
 20
119.7800692373727003
 10
270.0106764303131968
 20
119.7832526753234959
 10
268.8571128631974716
 20
119.7868682962231048
 10
267.3906614585476973
 20
119.792098002947597
 10
265.9260220824722865
 20
119.7980350663631981
 10
264.4630751072709245
 20
119.8046842494603936
 10
263.001705167255011
 20
119.8120508094920069
 10
261.5418011587468072
 20
119.8201404979735969
 10
260.083256240080118
 20
119.8289595606830034
 10
258.3658624007176741
 20
119.8402990253330955
 10
256.6500537543195719
 20
119.852672912811002
 10
254.9356781939621897
 20
119.8660940920680957
 10
253.2225918358724073
 20
119.8805763856883999
 10
251.4757327183021118
 20
119.8964633950441936
 10
249.7299394246446127
 20
119.9134873834236004
 10
247.9850855592314076
 20
119.9316661077518944
 10
246.241053641652087
 20
119.9510183588507033
 10
244.4977351067549876
 20
119.9715639614380933
 10
242.7550303046473914
 20
119.9933237741281999
 10
241.0128485006947017
 20
120.0163196894315973
  0
ARC
  5
62
100
AcDbEntity
  8
Geometries
 62
256
370
0
 48
1.0
  6
Continuous
100
AcDbCircle
 10
240.8117412371294108
 20
158.8180914331200029
 30
0.0
 40
8.1999999999999993
100
AcDbArc
 50
271.4053357151290129
 51
270.0
  0
LINE
  5
63
100
AcDbEntity
  8
Geometries
 62
256
370
0
 48
1.0
  6
Continuous
100
AcDbLine
 10
347.7788637919085204
 20
120.4334664939974004
 30
0.0
 11
348.2999999999999545
 21
210.7999999999999829
 31
0.0
  0
LWPOLYLINE
  5
64
100
AcDbEntity
  8
Geometries
 62
256
370
0
 48
1.0
  6
Continuous
100
AcDbPolyline
 90
840
 70
128
 10
240.8117412371294108
 20
120.0190552209082995
 10
239.0636384409893083
 20
120.0435491961763006
 10
237.3158984898213077
 20
120.0693385657536965
 10
235.5684577762166896
 20
120.096448727228605
 10
233.8212617399740907
 20
120.1249061273872059
 10
232.074264868098993
 20
120.1547382622143942
 10
230.3586229076582015
 20
120.1854034261641004
 10
228.6431118089452923
 20
120.217450225552497
 10
226.9277139377142873
 20
120.2509076648543953
 10
225.2124200778021077
 20
120.2858057247836996
 10
223.4622266540472992
 20
120.3229331445937049
 10
221.7121489168058019
 20
120.3616267618106974
 10
219.9622041800593877
 20
120.4019215738809976
 10
218.2124188843874038
 20
120.4438536366556036
 10
216.4628285969658918
 20
120.4874600643910014
 10
214.7134780115688102
 20
120.5327790297482977
 10
212.9644209485666977
 20
120.5798497637943001
 10
211.4342860589968893
 20
120.6225053007109977
 10
209.9044718563341121
 20
120.6665605218611006
 10
208.3750315919484137
 20
120.7120437031937996
 10
206.8460238670535887
 20
120.7589837410759941
 10
205.3175126327072917
 20
120.8074101522921069
 10
203.7895671898108958
 20
120.8573530740441981
 10
202.262262189109407
 20
120.9088432639520931
 10
200.7356776311914075
 20
120.9619121000531976
 10
199.3655510741837986
 20
121.0109373109954021
 10
197.9961396574514083
 20
121.0612848209258061
 10
196.627512333387898
 20
121.1129786280637006
 10
195.2597415326910095
 20
121.1660431340042976
 10
193.8929031643619112
 20
121.2205031437196965
 10
192.5270766157053117
 20
121.276383865558202
 10
191.1623447523294033
 20
121.3337109112444949
 10
190.0284450462955874
 20
121.3824992300636012
 10
188.8954133350974018
 20
121.4323207116305952
 10
187.7633027540562978
 20
121.4831907178651988
 10
186.632168101324595
 20
121.5351248035244964
 10
185.5020658378861071
 20
121.5881387162029057
 10
184.373054087555289
 20
121.6422483963322065
 10
183.3096098106744876
 20
121.6942842210947049
 10
182.2472395790711914
 20
121.7473221809297996
 10
181.1859961728031863
 20
121.8013761078440069
 10
180.1259336860385076
 20
121.8564599862405942
 10
179.0671075270545884
 20
121.9125879529190968
 10
178.0095744182401916
 20
121.9697742970754035
 10
176.9533923960929087
 20
122.0280334603018986
 10
175.8986208112208089
 20
122.0873800365874047
 10
174.8453203283422113
 20
122.1478287723171974
 10
173.7935529262844909
 20
122.2093945662728061
 10
172.9682809408745072
 20
122.2585611399756971
 10
172.1440257159393923
 20
122.3084339816534936
 10
171.3208190221997995
 20
122.3590205160870994
 10
170.498693131206295
 20
122.4103282261383043
 10
169.6776808153396985
 20
122.4623646527498977
 10
168.8081641338050929
 20
122.5183595765636966
 10
167.9399778434390953
 20
122.5751919090575939
 10
167.0731628905411981
 20
122.6328708612108045
 10
166.2077608551448975
 20
122.6914057174960959
 10
165.343813951017097
 20
122.7508058358800014
 10
164.4813650256579933
 20
122.8110806478227062
 10
163.6696099808530107
 20
122.868720871687799
 10
162.8592622184609127
 20
122.9271551560916009
 10
162.0503592004523057
 20
122.9863915858252028
 10
161.24293888962751
 20
123.046438303760695
 10
160.4370397496176963
 20
123.1073035108510965
 10
159.6327007448824986
 20
123.1689954661303972
 10
158.8299613407127993
 20
123.2315224867133026
 10
158.0288615032291943
 20
123.2948929477956028
 10
157.2294416993821073
 20
123.359115282653903
 10
156.4317428969519881
 20
123.4241979826457936
 10
155.6500040155808904
 20
123.4889642203940952
 10
154.8700049762178139
 20
123.5545767710595015
 10
154.0917860016176917
 20
123.6210438427799971
 10
153.315387780538714
 20
123.6883736977360968
 10
152.5999591798282893
 20
123.7513331971001946
 10
151.8861516294122964
 20
123.8150423694345932
 10
151.1739982459370992
 20
123.8795078470819959
 10
150.4635324851467999
 20
123.9447363017104067
 10
149.7547881418834095
 20
124.0107344443123054
 10
149.0604085560441092
 20
124.0763097740044003
 10
148.3677550384281858
 20
124.1426404915612949
 10
147.6768605607352924
 20
124.2097330656091998
 10
146.9877584101830905
 20
124.2775940013643066
 10
146.3740305692288928
 20
124.3388387375847941
 10
145.7617824744527013
 20
124.4007059026273936
 10
145.1510384566834944
 20
124.4632002007240033
 10
144.5418230472672008
 20
124.5263263593601977
 10
143.9341609780670126
 20
124.5900891292756967
 10
143.3280771814636978
 20
124.654493284463598
 10
142.7235967903550886
 20
124.719543622171301
 10
142.1207451381569058
 20
124.785244962899597
 10
141.5819944542226096
 20
124.844670302564694
 10
141.0445903482340952
 20
124.9046256662903005
 10
140.5085514533120943
 20
124.9651145691459959
 10
139.9738965318136081
 20
125.0261405411888944
 10
139.4406444753319931
 20
125.0877071274633039
 10
138.9182986925603984
 20
125.148703974649905
 10
138.3973426083232994
 20
125.2102291215604026
 10
137.8777944841561975
 20
125.2722859689132946
 10
137.359672701843806
 20
125.3348779313723043
 10
136.8324665106746068
 20
125.3993024468339001
 10
136.3067845259654973
 20
125.4642913695409021
 10
135.7826466652398949
 20
125.5298483724168932
 10
135.2600729763915126
 20
125.595977143504399
 10
134.7390836376841889
 20
125.6626813859648024
 10
134.2196989577518025
 20
125.7299648180785994
 10
133.701939375598613
 20
125.7978311732449015
 10
133.1869497209845861
 20
125.8661342065892939
 10
132.6736191246270096
 20
125.9350250933102018
 10
132.1619682801714077
 20
126.004507587434901
 10
131.6520180104990914
 20
126.0745854579779035
 10
131.1437892677278114
 20
126.1452624889412988
 10
130.6463321246050953
 20
126.2152643128366947
 10
130.1505759864722052
 20
126.2858513636433031
 10
129.6565409031119884
 20
126.3570272312981047
 10
129.164246790700787
 20
126.4287954621025989
 10
128.6637210110692138
 20
126.5026426040192007
 10
128.1650494379074132
 20
126.5771138503767048
 10
127.6682527786803973
 20
126.6522128233569049
 10
127.1733515882863941
 20
126.7279430960839051
 10
126.6803662690566057
 20
126.8043081926243048
 10
126.1893170707558056
 20
126.8813115879868008
 10
125.7002240905819974
 20
126.9589567081224999
 10
125.2738881259892025
 20
127.0274252589860993
 10
124.8490784288142947
 20
127.0963899479907013
 10
124.4258081751504932
 20
127.1658529778235049
 10
124.0040904516588967
 20
127.2358165224151065
 10
123.5839382555688957
 20
127.3062827269393011
 10
123.1653644946781014
 20
127.3772537078131961
 10
122.7483819873521043
 20
127.4487315526969979
 10
122.3330034625247009
 20
127.5207183204944954
 10
121.8995791498744978
 20
127.5966810928249942
 10
121.4679435154563976
 20
127.6732069391264019
 10
121.0381108787668012
 20
127.7502981251075056
 10
120.6100954515800936
 20
127.8279568818390999
 10
120.1839113379485013
 20
127.9061854057540017
 10
119.7595725342011974
 20
127.984985858647093
 10
119.3762594406611015
 20
128.0569628238781092
 10
118.9944864684703987
 20
128.129413711194303
 10
118.6142638345882006
 20
128.2023400602166134
 10
118.2356016830378991
 20
128.2757433871132093
 10
117.8585100849072944
 20
128.349625184600086
 10
117.482999038348396
 20
128.4239869219408092
 10
117.1304023405612043
 20
128.4945403021972936
 10
116.7792278045181007
 20
128.5655228174337878
 10
116.4294836323173001
 20
128.6369356418715881
 10
116.0811779684172933
 20
128.7087799311977108
 10
115.7343188996368042
 20
128.7810568225650911
 10
115.3889144551536958
 20
128.8537674345926121
 10
115.044972606506704
 20
128.9269128673651892
 10
114.7025012675939024
 20
129.0004942024334866
 10
114.3615082946738966
 20
129.0745125028140023
 10
114.0220014863649993
 20
129.1489688129892954
 10
113.6900113834788044
 20
129.2225228861896085
 10
113.3594695884726065
 20
129.2965014098969903
 10
113.0303833272394058
 20
129.3709053214265907
 10
112.7027597720402952
 20
129.4457355408482044
 10
112.3706896227398033
 20
129.5223652477862117
 10
112.0401506888897956
 20
129.5994387761498956
 10
111.7111503697455959
 20
129.6769570420069897
 10
111.3836960069224062
 20
129.7549209428910899
 10
111.0577948843955056
 20
129.8333313578017112
 10
110.7392323003681014
 20
129.9107770444016978
 10
110.4221817417452058
 20
129.9886550683289101
 10
110.1066499468576012
 20
130.066966210123212
 10
109.7926436004041051
 20
130.1457112330791972
 10
109.4738083063253953
 20
130.2265113250956858
 10
109.1565752513413941
 20
130.3077647393218115
 10
108.8409513651344014
 20
130.3894722312153931
 10
108.5269435192406036
 20
130.4716345375377102
 10
108.214558527050599
 20
130.5542523763531904
 10
107.9038031438091991
 20
130.6373264470294089
 10
107.5946840666151019
 20
130.7208574302374871
 10
107.2878769982631013
 20
130.8046622416366915
 10
106.9827122514287936
 20
130.8889232721344911
 10
106.6791963063621012
 20
130.9736411422933031
 10
106.3773355856725971
 20
131.0588164541414073
 10
106.0771364543301019
 20
131.1444497911726899
 10
105.7839214722669965
 20
131.2290003378739982
 10
105.4923212724763033
 20
131.3139937606156025
 10
105.2023417226418047
 20
131.3994305599817096
 10
104.9139886368154038
 20
131.4853112193113134
 10
104.621433364632793
 20
131.5734025687395956
 10
104.3305836806825937
 20
131.6619570416860938
 10
104.0414455895997037
 20
131.7509750961606869
 10
103.7540250378737028
 20
131.840457171476487
 10
103.4683279138476024
 20
131.93040368825001
 10
103.1843600477190961
 20
132.0208150484006921
 10
102.9021272115399057
 20
132.1116916351516863
 10
102.6216351192160943
 20
132.203033813029009
 10
102.3428894265076963
 20
132.2948419278621088
 10
102.0658957310289026
 20
132.3871163067838097
 10
101.7906595722483019
 20
132.479857258229913
 10
101.5171864314884971
 20
132.573065071939908
 10
101.2454817319263043
 20
132.6667400189560908
 10
100.9755508385924969
 20
132.7608823516243888
 10
100.7296769593565955
 20
132.8475902751013962
 10
100.4853020747165999
 20
132.9346912950626063
 10
100.2424301883496014
 20
133.022185564475194
 10
100.0010652628779013
 20
133.1100732231047061
 10
99.7612112198688692
 20
133.1983543975159137
 10
99.5228719398353121
 20
133.2870292010719879
 10
99.276105312158947
 20
133.3798596261781881
 10
99.0309922656002044
 20
133.4731177603383117
 10
98.7875370498579315
 20
133.5668036860911911
 10
98.5457438662061662
 20
133.6609174704043141
 10
98.3056168674943223
 20
133.7554591646745905
 10
98.0671601581472316
 20
133.8504288047278123
 10
97.8303777941649315
 20
133.9458264108189951
 10
97.5952737831228347
 20
134.0416519876320933
 10
97.3507787943829186
 20
134.1424997003732926
 10
97.108134647369539
 20
134.2438170704741083
 10
96.8673457788557073
 20
134.3456040483326035
 10
96.6284165672860524
 20
134.4478605655912986
 10
96.3913513327769351
 20
134.5505865351373984
 10
96.1561543371161349
 20
134.6537818511025932
 10
95.9228297837630492
 20
134.7574463888628884
 10
95.6913818178487929
 20
134.8615800050392863
 10
95.4618145261758713
 20
134.9661825374969055
 10
95.2341319372185069
 20
135.0712538053458047
 10
95.0083380211224977
 20
135.1767936089401871
 10
94.7844366897051316
 20
135.28280172987931
 10
94.5750666361539203
 20
135.3831809715273948
 10
94.3673856603380443
 20
135.4839761130131137
 10
94.1613968985888619
 20
135.585186925462807
 10
93.9571034411417259
 20
135.6868131651810927
 10
93.7545083321358135
 20
135.7888545736502124
 10
93.5414939360300366
 20
135.8975336787713957
 10
93.3303968790756926
 20
136.0066791491024958
 10
93.1212206231279822
 20
136.1162906215577095
 10
92.9139685717139514
 20
136.2263677142954066
 10
92.7086440700320509
 20
136.3369100267190106
 10
92.505250404952335
 20
136.4479171394762886
 10
92.3152506252324088
 20
136.553006314423186
 10
92.1269728490430424
 20
136.6585079155815947
 10
91.9404196888968244
 20
136.764421545644808
 10
91.7555937112102811
 20
136.8707467924834873
 10
91.5724974363037774
 20
136.9774832291469124
 10
91.3911333384018576
 20
137.0846304138613903
 10
91.2115038456328477
 20
137.1921878900315903
 10
91.0336113400289975
 20
137.3001551862398912
 10
90.857458157526608
 20
137.4085318162466933
 10
90.6830465879657481
 20
137.517317278989907
 10
90.5134469221949303
 20
137.6245575921325894
 10
90.345531471118548
 20
137.7321912669735866
 10
90.1793022742426729
 20
137.8402177870665071
 10
90.014761328182658
 20
137.9486366221738081
 10
89.8389734385902159
 20
138.0661569694871105
 10
89.6651590048118976
 20
138.1841334818396092
 10
89.4933203727258189
 20
138.3025654373041959
 10
89.3234598298816422
 20
138.4214520951979068
 10
89.1555796055005345
 20
138.5407926960824909
 10
88.9896818704752377
 20
138.6605864617644102
 10
88.8350817032664679
 20
138.7739492155722871
 10
88.6822475303604705
 20
138.887713432060707
 10
88.5311810288791747
 20
139.0018784131484892
 10
88.3818838298483911
 20
139.1164434459327026
 10
88.2343575181978963
 20
139.2314078026882953
 10
88.0886036327615329
 20
139.3467707408676972
 10
87.9446236662768968
 20
139.462531503101701
 10
87.8024190653856067
 20
139.5786893171984104
 10
87.6619912306333191
 20
139.6952433961442921
 10
87.5233415164694009
 20
139.8121929381034931
 10
87.3888997320538579
 20
139.9274382385729041
 10
87.2561755893244424
 20
140.0430634291689103
 10
87.1251702416173117
 20
140.1590677084982133
 10
86.9958847993777624
 20
140.2754502613759939
 10
86.8660169122888135
 20
140.3943366563455868
 10
86.7379342290061572
 20
140.5136134561658139
 10
86.6116377845995373
 20
140.6332797563044892
 10
86.487128568042607
 20
140.7533346374073915
 10
86.3644075222129857
 20
140.8737771652980939
 10
86.2456193499381527
 20
140.9924453407917042
 10
86.1285577268406826
 20
141.111485613811908
 10
86.0132234163417593
 20
141.2308970575884928
 10
85.8996171389722178
 20
141.3506787315600093
 10
85.7854743611558206
 20
141.4732855798297066
 10
85.673132247519959
 20
141.5962759013901007
 10
85.5625914255091971
 20
141.7196486525031105
 10
85.4538524760676239
 20
141.8434027744781929
 10
85.346915933638769
 20
141.9675371936729107
 10
85.2417822861655452
 20
142.0920508214921938
 10
85.1384519750903337
 20
142.2169425543891919
 10
85.0464799411134038
 20
142.330310661477597
 10
84.9559858876669978
 20
142.4439867777647066
 10
84.8669700435571031
 20
142.5579700532493064
 10
84.7794326063794301
 20
142.6722596278943058
 10
84.6933737425193556
 20
142.7868546316271932
 10
84.6102909794296636
 20
142.8996997411250049
 10
84.5286346841885745
 20
143.0128377767765073
 10
84.4484049265138879
 20
143.1262678860244932
 10
84.3696017470836352
 20
143.2399892069742862
 10
84.27764850345676
 20
143.3757502210098096
 10
84.1877170354293582
 20
143.5119212276582061
 10
84.0998072506459096
 20
143.6485007209805076
 10
84.013918998422497
 20
143.7854871762820892
 10
83.9300520697470063
 20
143.9228790501130106
 10
83.8482061972786994
 20
144.0606747802675898
 10
83.7683810553484989
 20
144.1988727857851131
 10
83.6905762599587888
 20
144.3374714669492107
 10
83.6147913687837843
 20
144.4764692052879127
 10
83.5410258811691051
 20
144.6158643635741043
 10
83.4692792381320885
 20
144.7556552858249859
 10
83.3995508223614195
 20
144.8958402973026125
 10
83.3356548126200209
 20
145.028374168940303
 10
83.2735517517791095
 20
145.1612554378056927
 10
83.2132409799417303
 20
145.2944826543518104
 10
83.1547217911147243
 20
145.4280543542089958
 10
83.097993433208984
 20
145.5619690581860084
 10
83.0397830250714151
 20
145.7043729552752893
 10
82.9835851888099683
 20
145.8471592111930022
 10
82.9293988571515683
 20
145.9903260065159998
 10
82.8772229044945448
 20
146.1338715030657056
 10
82.8270561469089159
 20
146.277793843908313
 10
82.7788973421362186
 20
146.4220911533545006
 10
82.7353284221344154
 20
146.5584846410264106
 10
82.6935422378695364
 20
146.6952081810073878
 10
82.6535376056257576
 20
146.8322601553167885
 10
82.6153132955912213
 20
146.9696389311517919
 10
82.5788680318580077
 20
147.1073428608875133
 10
82.5442004924221067
 20
147.245370282076891
 10
82.5113093091835879
 20
147.3837195174506007
 10
82.48019306794626
 20
147.5223888749173113
 10
82.4508503084181825
 20
147.6613766475637135
 10
82.423279524210983
 20
147.8006811136538943
 10
82.3979243677005968
 20
147.9378045808751949
 10
82.3742754552468739
 20
148.0752301979011918
 10
82.3523312298869143
 20
148.2129562918443071
 10
82.3320900917671565
 20
148.3509811760256127
 10
82.3121426091493618
 20
148.5003664299198931
 10
82.2941771608258534
 20
148.6500959788789942
 10
82.278191563546244
 20
148.8001676446382078
 10
82.2641835757316073
 20
148.9505792301777092
 10
82.2521508974746496
 20
149.1013285197219034
 10
82.2420911705397089
 20
149.2524132787403062
 10
82.234411177030438
 20
149.3951698613358019
 10
82.2284808761751833
 20
149.5382207625436024
 10
82.2242981488676037
 20
149.6815640636089881
 10
82.221860829905097
 20
149.8251978309550907
 10
82.2211667079890276
 20
149.9691201161832907
 10
82.2222135257247828
 20
150.1133289560721096
 10
82.2249989796217449
 20
150.2578223725784881
 10
82.2295207200931202
 20
150.4025983728371045
 10
82.2357763514560816
 20
150.5476549491602896
 10
82.2437634319318249
 20
150.692990079038708
 10
82.2532908260236866
 20
150.8359991042345882
 10
82.2644835839535631
 20
150.9792729142482131
 10
82.2773392625886402
 20
151.1228095512445861
 10
82.2918553759054134
 20
151.2666070435979861
 10
82.3083387980198324
 20
151.413284996201412
 10
82.3265382462537048
 20
151.5602292073455999
 10
82.34645095944839
 20
151.7074375518249099
 10
82.3680741303493278
 20
151.8549078896110132
 10
82.3914049056056399
 20
152.0026380658538017
 10
82.4159783918394169
 20
152.14798102389409
 10
82.4421934542299084
 20
152.2935704610491996
 10
82.4700472597294265
 20
152.4394042941075895
 10
82.499536932399792
 20
152.5854804260665105
 10
82.5313116910418501
 20
152.7347852795224128
 10
82.5647835816967017
 20
152.8843379671833986
 10
82.5999494106237364
 20
153.0341362166126089
 10
82.636805937581812
 20
153.1841777404210063
 10
82.6753498758290846
 20
153.3344602362674038
 10
82.7155778921234059
 20
153.4849813868584079
 10
82.7574866067218693
 20
153.6357388599481908
 10
82.7995396568984461
 20
153.7815127266046886
 10
82.8431530228439783
 20
153.9275025637861063
 10
82.8883235395950067
 20
154.0737062329251046
 10
82.9350480017850202
 20
154.2201215824626104
 10
82.9833231636443998
 20
154.3667464478481861
 10
83.0331457390007586
 20
154.5135786515396035
 10
83.0845124012785163
 20
154.6606160030032129
 10
83.1427951304839326
 20
154.8225914049953928
 10
83.2029375920511427
 20
154.9848094182030991
 10
83.2649351889125739
 20
155.1472670725572129
 10
83.3287832648466065
 20
155.3099613789673867
 10
83.3944771044776303
 20
155.4728893293226974
 10
83.4620119332758463
 20
155.636047896490993
 10
83.5313829175576643
 20
155.799434034319404
 10
83.6025851644852764
 20
155.9630446776340023
 10
83.6756137220670269
 20
156.1268767422400003
 10
83.7504635791571843
 20
156.2909271249218079
 10
83.8257447310779469
 20
156.4522575206316901
 10
83.9027729671624058
 20
156.6137925194881007
 10
83.9815433733308225
 20
156.7755291279906089
 10
84.0620509804630842
 20
156.9374643349406142
 10
84.1458020350257243
 20
157.102544735027891
 10
84.2313434652400588
 20
157.2678246648981997
 10
84.3186698501075966
 20
157.4333008895480077
 10
84.4077757094755725
 20
157.5989701549528093
 10
84.4986555040374299
 20
157.7648291880674094
 10
84.5896337303292967
 20
157.9279079823809866
 10
84.6823123431142619
 20
158.0911635153152019
 10
84.7766859279438734
 20
158.2545926324766015
 10
84.8727490153290205
 20
158.4181921617733906
 10
84.9725084139100204
 20
158.5853028107325997
 10
85.0740152966901633
 20
158.7525841689308095
 10
85.1772636752040171
 20
158.9200328090880134
 10
85.2822475013131793
 20
159.087645284736908
 10
85.3889606672061348
 20
159.2554181302218979
 10
85.4973970053981986
 20
159.4233478606996925
 10
85.6075502887317441
 20
159.5914309721395909
 10
85.7191683060826506
 20
159.7592967270109909
 10
85.832483220228994
 20
159.9273081671711054
 10
85.9474886670277272
 20
160.0954617543490031
 10
86.0641782231817558
 20
160.2637539312530919
 10
86.1825454062398535
 20
160.4321811215708067
 10
86.3004255182786153
 20
160.5977286233089956
 10
86.4199113141147279
 20
160.7633994675803137
 10
86.5409964857838929
 20
160.9291902126819878
 10
86.6636746702813241
 20
161.0950973992129889
 10
86.7904919403137853
 20
161.2645068681636928
 10
86.9189543465716952
 20
161.4340302458662109
 10
87.0490549512449405
 20
161.6036637997798096
 10
87.1807867568502388
 20
161.773403778176089
 10
87.3141427062311948
 20
161.9432464101384994
 10
87.4491156825582863
 20
162.1131879055627962
 10
87.5856985093289637
 20
162.2832244551568976
 10
87.7238839503676786
 20
162.4533522304411974
 10
87.8636647098255423
 20
162.6235673837477975
 10
88.0050334321806673
 20
162.7938660482211048
 10
88.1479827022379823
 20
162.9642443378178029
 10
88.2925050451294595
 20
163.1346983473067098
 10
88.4385929263139019
 20
163.3052241522686074
 10
88.5862387515768717
 20
163.4758178090966965
 10
88.7504394480819201
 20
163.6635444703451867
 10
88.916505723734474
 20
163.851343135668202
 10
89.0844272204468268
 20
164.0392084756770998
 10
89.2541934927639318
 20
164.2271351328903961
 10
89.4257940078633595
 20
164.4151177217337079
 10
89.5830317867971644
 20
164.585681968642092
 10
89.7417621343501821
 20
164.7562837234910091
 10
89.9019770021926661
 20
164.9269189064607133
 10
90.0636682828408794
 20
165.0975834187111104
 10
90.2268278096572232
 20
165.2682731423807923
 10
90.3884949668808702
 20
165.4359353727220991
 10
90.5515626181444304
 20
165.6036139946563139
 10
90.7160228599197325
 20
165.7713050534283923
 10
90.8818677336381313
 20
165.9390045765854893
 10
91.0810963506019959
 20
166.1386523683185885
 10
91.2822623324245086
 20
166.3382997353949975
 10
91.4853519464224689
 20
166.5379398774481956
 10
91.6903513493608529
 20
166.7375659585638914
 10
91.8972465874530258
 20
166.9371711072799087
 10
92.1060235963601741
 20
167.1367484165861015
 10
92.316668201192229
 20
167.3362909439248938
 10
92.52916611666069
 20
167.535791711261993
 10
92.743502971298355
 20
167.7352437163332013
 10
92.9596644027322725
 20
167.9346399768859044
 10
93.1776360982283904
 20
168.1339735495064929
 10
93.3974037956270848
 20
168.3332375300547881
 10
93.6062455606547559
 20
168.5210450883751889
 10
93.8166594297986194
 20
168.7087789556931057
 10
94.0286335723299089
 20
168.8964334410246124
 10
94.2421561974879154
 20
169.0840028844228868
 10
94.4572155544805838
 20
169.271481656978807
 10
94.6869750141057835
 20
169.4702174591160997
 10
94.9184360252012027
 20
169.6688383299166958
 10
95.151584715755007
 20
169.8673376682079095
 10
95.3864072643299608
 20
170.0657089120905141
 10
95.622889900063484
 20
170.2639455389389127
 10
95.8610189026677944
 20
170.4620410654011096
 10
96.0870361888431574
 20
170.6486818207283989
 10
96.3144934925443437
 20
170.8351860423898074
 10
96.5433794372287224
 20
171.0215483920977135
 10
96.7736826863220898
 20
171.2077635626021106
 10
97.0053919432186973
 20
171.3938262776898114
 10
97.2656424944648705
 20
171.6012990996794088
 10
97.5276147801669424
 20
171.808568241999609
 10
97.7912932721967962
 20
172.0156265066372896
 10
98.0566625044396005
 20
172.2224667437357084
 10
98.3237070727937805
 20
172.4290818515941055
 10
98.5924116351711604
 20
172.6354647766679022
 10
98.8627609114966219
 20
172.8416085135687865
 10
99.1347396837084887
 20
173.0475061050642864
 10
99.418402590393228
 20
173.2606917049816104
 10
99.7037836687742498
 20
173.4735976954829084
 10
99.9908661744049851
 20
173.6862164889344911
 10
100.2796334344675984
 20
173.8985405533254891
 10
100.5700688477730012
 20
174.1105624122683935
 10
100.8621558847608952
 20
174.3222746449982026
 10
101.1558780874994028
 20
174.5336698863731044
 10
101.4808415720391963
 20
174.7658298046198126
 10
101.8077420711638013
 20
174.9975876687537948
 10
102.1365579796804042
 20
175.2289339089792009
 10
102.4672677972682067
 20
175.459859036937587
 10
102.7998501284778001
 20
175.6903536457081998
 10
103.1342836827318052
 20
175.9204084098082888
 10
103.4705472743241046
 20
176.1500140851925096
 10
103.8086198224204963
 20
176.3791615092528104
 10
104.1484803510583959
 20
176.6078416008191141
 10
104.490107989146594
 20
176.8360453601590905
 10
104.8273350981770022
 20
177.0597017735805991
 10
105.1662271625842067
 20
177.2828817393431109
 10
105.5067647049228015
 20
177.5055769606746878
 10
105.8489283453263994
 20
177.7277792165783978
 10
106.1989639268337982
 20
177.9535066030026087
 10
106.5506450359201978
 20
178.178705974231093
 10
106.9039515281051962
 20
178.4033688947779126
 10
107.258863363780506
 20
178.627487010594507
 10
107.6153606082091017
 20
178.8510520490702902
 10
107.9670158382081979
 20
179.0700785777991939
 10
108.320162544551593
 20
179.2885560204244086
 10
108.6747821368766012
 20
179.506476769034407
 10
109.0308561223993991
 20
179.7238332914920989
 10
109.3956770516332995
 20
179.9450363074109873
 10
109.7619737496078045
 20
180.1656362280812118
 10
110.1297268822665956
 20
180.3856252947315966
 10
110.4989172213452946
 20
180.6049958307432917
 10
110.8695256443712935
 20
180.8237402416494035
 10
111.241533134663996
 20
181.0418510151357054
 10
111.6149207813349022
 20
181.2593207210400976
 10
111.9888506768137972
 20
181.4756696578199922
 10
112.3641174122832069
 20
181.6913657868495875
 10
112.7407025153241023
 20
181.9064019710741889
 10
113.1185876183889008
 20
182.1207711548771897
 10
113.497754458801495
 20
182.3344663640793044
 10
113.8713805026563932
 20
182.5436828886060141
 10
114.2462082969773007
 20
182.7522361915576141
 10
114.6222208354779042
 20
182.960119895130191
 10
114.9994012094508946
 20
183.1673276972942972
 10
115.4499248476268036
 20
183.4131137463390075
 10
115.9020515778069012
 20
183.6579227000925982
 10
116.3557534128501061
 20
183.9017443459439107
 10
116.8110025616086034
 20
184.14456862347879
 10
117.2677714289265936
 20
184.3863856244803117
 10
117.7260326156411026
 20
184.6271855929288108
 10
118.1857589185818966
 20
184.8669589250015974
 10
118.6469233305709992
 20
185.1056961690736102
 10
119.1094990404233016
 20
185.3433880257165072
 10
119.5734594329461942
 20
185.5800253476992907
 10
120.0387780889395941
 20
185.8155991399883931
 10
120.5054287851960027
 20
186.0501005597471078
 10
120.9466103802763968
 20
186.2702118824273896
 10
121.3889313367643012
 20
186.48935500035779
 10
121.8323701536226054
 20
186.707522873414689
 10
122.2769054847041019
 20
186.924708581753606
 10
122.7225161387518
 20
187.1409053258090864
 10
123.1913384896393069
 20
187.3667427320924901
 10
123.6612980504271064
 20
187.5914758123523995
 10
124.1323708719313004
 20
187.8150971329594938
 10
124.6045331929124984
 20
188.037599406231493
 10
125.0777614400751929
 20
188.2589754904336132
 10
125.5520322280683985
 20
188.4792183897779125
 10
126.0273223594846996
 20
188.6983212544236892
 10
126.5512913895103964
 20
188.9380096687156083
 10
127.0764356246739055
 20
189.1763018134884078
 10
127.6027249772106984
 20
189.4131891835100134
 10
128.1301296345249909
 20
189.6486634872294132
 10
128.6586200591900138
 20
189.8827166467771121
 10
129.1881669889480122
 20
190.1153407979647909
 10
129.7187414367103884
 20
190.3465282902855051
 10
130.2503146905573885
 20
190.5762716869136
 10
130.782858313738501
 20
190.8045637647047101
 10
131.3163441446720014
 20
191.0313975141957883
 10
131.8411935796607111
 20
191.2527545861840963
 10
132.3668988117755987
 20
191.4726921545932044
 10
132.8934339363968888
 20
191.6912041806907041
 10
133.4207733049391891
 20
191.908284824566806
 10
133.9585007265941101
 20
192.1278359026703129
 10
134.4970090495480122
 20
192.3458914850151018
 10
135.0362720187478942
 20
192.5624460426444102
 10
135.5762636543092867
 20
192.7774942602825945
 10
136.1169582515167917
 20
192.9910310363356132
 10
136.6486572261511867
 20
193.1992787277793866
 10
137.180985917508508
 20
193.4060593301400104
 10
137.7139207485539032
 20
193.6113686121611011
 10
138.2474383982869028
 20
193.8152025414088087
 10
138.7924210085421919
 20
194.0216715452970959
 10
139.3379622223449985
 20
194.2265965127419065
 10
139.8840380859645052
 20
194.429973799555313
 10
140.4306249232539017
 20
194.6317999771054872
 10
140.9776993356497883
 20
194.8320718323176095
 10
141.5252382021724031
 20
195.0307863676727038
 10
142.0732186794255938
 20
195.2279408012082911
 10
142.6204212536135003
 20
195.4231075236016011
 10
143.1680189030936106
 20
195.6167160534390916
 10
143.7159897600737111
 20
195.8087642686728032
 10
144.264312231931001
 20
195.9992502609358098
 10
144.8129650012114098
 20
196.1881723355425891
 10
145.3521215411657863
 20
196.3721970914077986
 10
145.891556712596099
 20
196.554710653486012
 10
146.4312510948689976
 20
196.7357120181563914
 10
146.971185523385401
 20
196.9152003806204903
 10
147.5223668438842139
 20
197.096791509362788
 10
148.0737586058974102
 20
197.2768061898626968
 10
148.6253412717979074
 20
197.4552442072381098
 10
149.1770955815426021
 20
197.6321055621635878
 10
149.7290025526716875
 20
197.8073904708701889
 10
150.2810434803093926
 20
197.9810993651452122
 10
150.8331999371631014
 20
198.1532328923321984
 10
151.38545377352429
 20
198.3237919153314124
 10
151.9377871172679875
 20
198.4927775125993037
 10
152.4901823738528037
 20
198.6601909781485915
 10
153.0426222263211002
 20
198.8260338215486058
 10
153.5950896352985922
 20
198.9903077679250032
 10
154.1475678389952861
 20
199.1530147579597099
 10
154.7000403532042867
 20
199.3141569478910924
 10
155.307734213153708
 20
199.4896088498649931
 10
155.9153804016087861
 20
199.6631736762597029
 10
156.5229581419015119
 20
199.8348552007809928
 10
157.1304470637741133
 20
200.0046575127306028
 10
157.7378272033789983
 20
200.172585017006611
 10
158.288675750896914
 20
200.323295592696212
 10
158.8394043813682117
 20
200.4724711227524097
 10
159.3899990613963098
 20
200.6201155688924018
 10
159.9404460327529875
 20
200.7662331065149885
 10
160.4907318123802895
 20
200.9108281247000889
 10
161.0310213795573873
 20
201.0513635611895893
 10
161.5711304647556119
 20
201.1904393688668904
 10
162.1110470694868866
 20
201.3280603077458863
 10
162.6507594512980006
 20
201.4642313366628912
 10
163.2929920038845921
 20
201.6244563971889932
 10
163.9348999520009897
 20
201.7826429853720924
 10
164.5764649033332887
 20
201.9388005698673965
 10
165.2176689798262998
 20
202.0929390186745138
 10
165.8584948176819864
 20
202.2450685991381079
 10
166.4989255673613116
 20
202.3951999779476125
 10
167.1389448935819928
 20
202.5433442211372892
 10
167.7785369753206908
 20
202.6895127940861983
 10
168.4176865058119006
 20
202.8337175615183128
 10
169.0563786925478951
 20
202.9759707875020922
 10
169.6945992572792079
 20
203.1162851354513066
 10
170.3323344360142926
 20
203.2546736681242123
 10
170.9331711194672039
 20
203.3834024852615983
 10
171.5335538347567024
 20
203.5104428650066097
 10
172.1334723013470978
 20
203.635806731790808
 10
172.7329166451127946
 20
203.7595063256416097
 10
173.3318773983382926
 20
203.881554202182997
 10
173.9666002669501097
 20
204.0092083672822127
 10
174.6007586524260944
 20
204.1350347664123888
 10
175.2343427579077115
 20
204.2590495429915904
 10
175.8673433007946016
 20
204.3812692397831938
 10
176.4997515127444103
 20
204.5017107988950045
 10
177.1315591396721913
 20
204.6203915617795985
 10
177.7267064261600922
 20
204.7306937556691082
 10
178.3213068513952919
 20
204.8394616007246896
 10
178.9153547531402921
 20
204.9467106076972129
 10
179.5088448755674904
 20
205.0524566029334892
 10
180.1017723692598054
 20
205.1567157283768097
 10
180.6941327912103077
 20
205.2595044415662073
 10
181.2859221048223048
 20
205.3608395156369966
 10
181.877136679909313
 20
205.4607380393204892
 10
182.467773292695
 20
205.5592174169443069
 10
183.0578291258134982
 20
205.6562953684318131
 10
183.636780597410791
 20
205.7502931231354069
 10
184.2151676169957
 20
205.8429738348015974
 10
184.7929886602146894
 20
205.9343551798820044
 10
185.3702425808631062
 20
206.0244551284787065
 10
186.0335513301880042
 20
206.1265354216600088
 10
186.6961077960368129
 20
206.2269722063832944
 10
187.3579112450983928
 20
206.3257931098748088
 10
188.0189610426751869
 20
206.4230254964498101
 10
188.679256652681886
 20
206.5186964675131094
 10
189.3387976376465076
 20
206.6128328615585872
 10
189.9975836587094875
 20
206.7054612541697907
 10
190.6556144756256117
 20
206.7966079580189955
 10
191.344169936762114
 20
206.8905341575820955
 10
192.0318963557371035
 20
206.9828924244407915
 10
192.7187938045676958
 20
207.0737120836093084
 10
193.4048624740522087
 20
207.1630221434205907
 10
194.0901026737695929
 20
207.2508512955267861
 10
194.7745148320805981
 20
207.3372279148995005
 10
195.4580994961262945
 20
207.4221800598288894
 10
196.1408573318292099
 20
207.5057354719247087
 10
196.8227891238931022
 20
207.587921576115491
 10
197.5038957758025902
 20
207.6687654806490002
 10
198.1841783098236078
 20
207.7482939770920893
 10
198.8636378670030922
 20
207.8265335403310132
 10
199.6633746703085137
 20
207.9171252820100051
 10
200.4619723631203101
 20
208.0060052344402948
 10
201.2594334488589141
 20
208.0932150447578124
 10
202.0557606601223029
 20
208.1787957490928136
 10
202.8654046247719975
 20
208.2643004439757988
 10
203.6738795498806951
 20
208.3482001803249091
 10
204.4811890521395128
 20
208.4305363211292104
 10
205.2873369945440061
 20
208.5113495727080135
 10
206.0923274863941117
 20
208.590679984711187
 10
206.8818207294065985
 20
208.66718854382421
 10
207.6702060487056087
 20
208.7423414531336903
 10
208.4574880311386949
 20
208.8161748051759901
 10
209.243671492730499
 20
208.8887240814808877
 10
210.0447723742593951
 20
208.9614664902194079
 10
210.844740300304494
 20
209.0329445768178971
 10
211.6435811257510125
 20
209.103194072357411
 10
212.4413009539499058
 20
209.1722500454870897
 10
213.2379061367182089
 20
209.2401469024244989
 10
214.0334032743386103
 20
209.3069183869550045
 10
214.827799215559395
 20
209.372597580432398
 10
215.6193714028916872
 20
209.4370770447295911
 10
216.4098615574268081
 20
209.5005328067869925
 10
217.1992772229039872
 20
209.5629957597357134
 10
217.9876261893670915
 20
209.6244961400373086
 10
218.7749164931649091
 20
209.6850635274840897
 10
219.5471255801791983
 20
209.7436691919772898
 10
220.3183295431850865
 20
209.8014295731368009
 10
221.0885366894353865
 20
209.8583708445698903
 10
221.8577555553596028
 20
209.914518568877611
 10
222.7722158962542949
 20
209.9803609860447011
 10
223.6853032599792073
 20
210.0451550625685115
 10
224.5970333195172941
 20
210.1089405400566932
 10
225.5074222081657069
 20
210.1717559328803873
 10
226.4164865195344873
 20
210.2336385281739979
 10
227.3242433075479028
 20
210.2946243858351068
 10
228.2307100864433096
 20
210.3547483385245869
 10
229.1359048307718922
 20
210.4140439916668868
 10
230.0398459753984071
 20
210.4725437234492063
 10
230.9425524155012113
 20
210.5302786848224059
 10
231.8440435065724898
 20
210.5872787995006092
 10
232.7443390644176873
 20
210.6435727639610889
 10
233.8038944672771891
 20
210.709049955331011
 10
234.8618514370778882
 20
210.7736271634462923
 10
235.9182448762637989
 20
210.8373448011319056
 10
236.9731105754100042
 20
210.9002409133744038
 10
238.1105759087153899
 20
210.9672802683471957
 10
239.2463497908939871
 20
211.0334449868554998
 10
240.3804807833369921
 20
211.0987736769818071
 10
241.5130186552358964
 20
211.1633017267058108
 10
242.6440143835826859
 20
211.2270613039044065
 10
243.7735201531702955
 20
211.290081356351692
 10
244.8371660115934958
 20
211.3488460755729932
 10
245.8995805181536127
 20
211.4069952127669012
 10
246.9608103634317047
 20
211.464545165661292
 10
248.0209031925155045
 20
211.5215097871856926
 10
249.0799076049981977
 20
211.5779003854717075
 10
250.4291776315758113
 20
211.6490077437196078
 10
251.7768626729310881
 20
211.7192074264692963
 10
253.123070341888905
 20
211.7885048749189991
 10
254.4679107777461127
 20
211.8568987944686057
 10
255.8114966462719053
 20
211.9243811547196117
 10
257.1539431397077919
 20
211.9909371894752041
 10
258.4953679767673975
 20
212.0565453967402902
 10
260.0592329199993173
 20
212.1318523099753861
 10
261.622066337102126
 20
212.2057739858954051
 10
263.1840681998530727
 20
212.2782415174839912
 10
264.7454431606303729
 20
212.3491735188273992
 10
266.3064005524145728
 20
212.4184761251133864
 10
267.8671543887872986
 20
212.486042992632008
 10
269.093460472861409
 20
212.5378366037097919
 10
270.3198839172114276
 20
212.5884225123054989
 10
271.5465346122380765
 20
212.6377329221446928
 10
272.7735242322000886
 20
212.6856952810294104
 10
274.0009662352139799
 20
212.7322322808387014
 10
275.2289758632539929
 20
212.7772618575284866
 10
276.3435015680838092
 20
212.8167319578894023
 10
277.4586792303434777
 20
212.8548221163364076
 10
278.5745985610860771
 20
212.8914614904830103
 10
279.6913498010155763
 20
212.9265793431237057
 10
280.8090234277199784
 20
212.9601064778005082
 10
281.9277101458065999
 20
212.991975287182612
 10
282.8074482229365003
 20
213.0158086389043888
 10
283.6879120662800915
 20
213.0385461067172912
 10
284.5691459678167803
 20
213.0601569618189899
 10
285.4511943060467729
 20
213.0806110810515008
 10
286.3341015459907908
 20
213.0998789469003043
 10
287.2179122391905821
 20
213.1179316474953964
 10
288.1026710237072734
 20
213.1347408766102092
 10
288.9884226241239276
 20
213.1502789336624062
 10
289.8752118515433267
 20
213.1645187237137122
 10
290.7630836035888819
 20
213.1774337574694016
 10
291.6520828644049175
 20
213.1889981512792076
 10
292.5422547046559885
 20
213.1991866271362994
 10
293.3826741410185832
 20
213.2075105006402964
 10
294.2242140400051085
 20
213.2145690861918013
 10
295.0669123903227842
 20
213.2203426756576903
 10
295.9108072490553809
 20
213.2248120395356921
 10
296.7559367416623104
 20
213.2279584269550128
 10
297.5253397946552241
 20
213.2296553569890136
 10
298.2958235151879194
 20
213.2302304263562007
 10
299.0674166945922821
 20
213.2296705770206984
 10
299.8401481709021255
 20
213.2279630778585897
 10
300.6140468288527927
 20
213.2250955246572062
 10
301.3891415998813272
 20
213.2210558401154969
 10
302.1654614621260748
 20
213.2158322738440859
 10
302.8781889995411234
 20
213.2099942352787139
 10
303.5919927332777775
 20
213.2031432469796925
 10
304.3068950873017116
 20
213.195270982094911
 10
305.0229185185526717
 20
213.1863693445932881
 10
305.7400855169448732
 20
213.176430469265398
 10
306.4584186053677968
 20
213.1654467217231002
 10
307.1779403396839143
 20
213.1534106983995116
 10
307.8986733087310199
 20
213.1403152265492054
 10
308.6206401343218886
 20
213.1261533642480117
 10
309.3438634712430826
 20
213.1109184003933024
 10
310.0683660072556904
 20
213.0946038547035073
 10
310.7941704630961226
 20
213.0772034777187116
 10
311.4797132740400798
 20
213.0597974646204023
 10
312.1664527910247102
 20
213.0414159605504096
 10
312.8544081386795028
 20
213.0220542911584118
 10
313.5435984676943804
 20
213.0017079645087961
 10
314.2340429548174257
 20
212.9803726710804881
 10
314.9343438889937943
 20
212.9577612369338908
 10
315.6359699038212057
 20
212.9341278424635107
 10
316.3389409797349003
 20
212.9094685872503874
 10
317.0432771245456252
 20
212.8837797625054975
 10
317.7489983734403154
 20
212.8570578510692997
 10
318.456124788980901
 20
212.8292995274115924
 10
319.1646764611055005
 20
212.8005016576317985
 10
319.8746735071268859
 20
212.7706612994589079
 10
320.6200521396781937
 20
212.7382788434618988
 10
321.3670623813713974
 20
212.7047462963840871
 10
322.1157274591216151
 20
212.6700609520231922
 10
322.8660706328187189
 20
212.6342203349981901
 10
323.6181151953272206
 20
212.5972222007493997
 10
324.3718844724859878
 20
212.559064535538397
 10
325.0193628619010724
 20
212.5254337156362112
 10
325.6681402788568107
 20
212.490948693992209
 10
326.3182314703573184
 20
212.4556086074024108
 10
326.9696512012054086
 20
212.4194127172544881
 10
327.6224142540028765
 20
212.3823604095275073
 10
328.2765354291502149
 20
212.344451194792498
 10
328.9320295448463867
 20
212.3056847082117997
 10
329.6546765257414791
 20
212.2620511409753021
 10
330.3790224882238249
 20
212.2173798411020016
 10
331.1050872299405228
 20
212.1716708453620868
 10
331.8328905745983093
 20
212.1249243729405976
 10
332.5624523719628201
 20
212.0771408254369135
 10
333.2272330240655833
 20
212.0328017835533103
 10
333.8934983205488152
 20
211.9876067049004007
 10
334.5612632309018863
 20
211.941556283669513
 10
335.2305427424124105
 20
211.8946513386433139
 10
335.9013518601672104
 20
211.8468928131962912
 10
336.5737056070515791
 20
211.7982817752946971
 10
337.2476190237501896
 20
211.7488194174960086
 10
337.8667559763500776
 20
211.7027321846865107
 10
338.4872277499496818
 20
211.6559318185726113
 10
339.1090459691209844
 20
211.6084195136334074
 10
339.7322222710029109
 20
211.560196552317592
 10
340.356768305301614
 20
211.5112643050443069
 10
340.9826957342910987
 20
211.4616242302024887
 10
341.610016232810608
 20
211.4112778741512102
 10
342.2387414882679195
 20
211.3602268712193961
 10
342.8688832006383791
 20
211.3084729437059934
 10
343.500453082463423
 20
211.2560179018798863
 10
344.1334628588521127
 20
211.2028636439802938
 10
344.7679242674810212
 20
211.149012156215889
 10
345.367470872211527
 20
211.0976011531477923
 10
345.9683282530613724
 20
211.0455739803032884
 10
346.5705062790229931
 20
210.9929325173688142
 10
347.1740148290197112
 20
210.9396787135518991
 10
348.2999999999999545
 20
210.7999999999999829
  0
LINE
  5
65
100
AcDbEntity
  8
Geometries
 62
256
370
0
 48
1.0
  6
Continuous
100
AcDbLine
 10
240.8117412371294108
 20
150.6180914331199858
 30
0.0
 11
240.8117412371294108
 21
120.0190552209082995
 31
0.0
  0
LINE
  5
66
100
AcDbEntity
  8
Geometries
 62
256
370
0
 48
1.0
  6
Continuous
100
AcDbLine
 10
241.0128485006947869
 20
120.0163196894315973
 30
0.0
 11
241.0128485006945027
 21
150.6205579096422866
 31
0.0
  0
ENDSEC
  0
SECTION
  2
OBJECTS
  0
DICTIONARY
  5
C
100
AcDbDictionary
280
0
281
1
  3
ACAD_GROUP
350
D
  3
ACAD_LAYOUT
350
1A
  3
ACAD_MLINESTYLE
350
17
  3
ACAD_PLOTSETTINGS
350
19
  3
ACAD_PLOTSTYLENAME
350
E
  3
AcDbVariableDictionary
350
67
  3
QCAD_OBJECTS
350
68
  0
DICTIONARY
  5
D
100
AcDbDictionary
280
0
281
1
  0
ACDBDICTIONARYWDFLT
  5
E
100
AcDbDictionary
281
1
  3
Normal
350
F
100
AcDbDictionaryWithDefault
340
F
  0
ACDBPLACEHOLDER
  5
F
  0
DICTIONARY
  5
17
100
AcDbDictionary
280
0
281
1
  3
Standard
350
18
  0
MLINESTYLE
  5
18
100
AcDbMlineStyle
  2
STANDARD
 70
0
  3

 62
256
 51
90.0
 52
90.0
 71
2
 49
0.5
 62
256
  6
BYLAYER
 49
-0.5
 62
256
  6
BYLAYER
  0
DICTIONARY
  5
19
100
AcDbDictionary
280
0
281
1
  0
DICTIONARY
  5
1A
100
AcDbDictionary
281
1
  3
Layout1
350
1E
  3
Layout2
350
26
  3
Model
350
22
  0
LAYOUT
  5
1E
100
AcDbPlotSettings
  1

  2
none_device
  4

  6

 40
0.0
 41
0.0
 42
0.0
 43
0.0
 44
0.0
 45
0.0
 46
0.0
 47
0.0
 48
0.0
 49
0.0
140
0.0
141
0.0
142
1.0
143
1.0
 70
688
 72
0
 73
0
 74
5
  7

 75
16
147
1.0
148
0.0
149
0.0
100
AcDbLayout
  1
Layout1
 70
1
 71
1
 10
0.0
 20
0.0
 11
420.0
 21
297.0
 12
0.0
 22
0.0
 32
0.0
 14
100000000000000000000.0
 24
100000000000000000000.0
 34
100000000000000000000.0
 15
-100000000000000000000.0
 25
-100000000000000000000.0
 35
-100000000000000000000.0
146
0.0
 13
0.0
 23
0.0
 33
0.0
 16
1.0
 26
0.0
 36
0.0
 17
0.0
 27
1.0
 37
0.0
 76
0
330
1B
  0
LAYOUT
  5
22
100
AcDbPlotSettings
  1

  2
none_device
  4

  6

 40
0.0
 41
0.0
 42
0.0
 43
0.0
 44
0.0
 45
0.0
 46
0.0
 47
0.0
 48
0.0
 49
0.0
140
0.0
141
0.0
142
1.0
143
1.0
 70
1712
 72
0
 73
0
 74
0
  7

 75
0
147
1.0
148
0.0
149
0.0
100
AcDbLayout
  1
Model
 70
1
 71
0
 10
0.0
 20
0.0
 11
12.0
 21
9.0
 12
0.0
 22
0.0
 32
0.0
 14
0.0
 24
0.0
 34
0.0
 15
0.0
 25
0.0
 35
0.0
146
0.0
 13
0.0
 23
0.0
 33
0.0
 16
1.0
 26
0.0
 36
0.0
 17
0.0
 27
1.0
 37
0.0
 76
0
330
1F
  0
LAYOUT
  5
26
100
AcDbPlotSettings
  1

  2
none_device
  4

  6

 40
0.0
 41
0.0
 42
0.0
 43
0.0
 44
0.0
 45
0.0
 46
0.0
 47
0.0
 48
0.0
 49
0.0
140
0.0
141
0.0
142
1.0
143
1.0
 70
688
 72
0
 73
0
 74
5
  7

 75
16
147
1.0
148
0.0
149
0.0
100
AcDbLayout
  1
Layout2
 70
1
 71
2
 10
0.0
 20
0.0
 11
12.0
 21
9.0
 12
0.0
 22
0.0
 32
0.0
 14
0.0
 24
0.0
 34
0.0
 15
0.0
 25
0.0
 35
0.0
146
0.0
 13
0.0
 23
0.0
 33
0.0
 16
1.0
 26
0.0
 36
0.0
 17
0.0
 27
1.0
 37
0.0
 76
0
330
23
  0
DICTIONARY
  5
67
100
AcDbDictionary
281
1
  3
DIMASSOC
350
6A
  3
HIDETEXT
350
69
  0
DICTIONARYVAR
  5
69
100
DictionaryVariables
280
0
  1
2
  0
DICTIONARYVAR
  5
6A
100
DictionaryVariables
280
0
  1
1
  0
DICTIONARY
  5
68
100
AcDbDictionary
281
1
  3
ColorSettings/BackgroundColor
350
6B
  3
ColorSettings/ColorMode
350
6C
  3
Grid/DisplayGrid00
350
6D
  3
Grid/DisplayGrid01
350
6E
  3
Grid/DisplayGrid02
350
6F
  3
Grid/DisplayGrid03
350
70
  3
Grid/GridSpacingX00
350
71
  3
Grid/GridSpacingX01
350
72
  3
Grid/GridSpacingX02
350
73
  3
Grid/GridSpacingX03
350
74
  3
Grid/GridSpacingY00
350
75
  3
Grid/GridSpacingY01
350
76
  3
Grid/GridSpacingY02
350
77
  3
Grid/GridSpacingY03
350
78
  3
Grid/IsometricGrid00
350
79
  3
Grid/IsometricGrid01
350
7A
  3
Grid/IsometricGrid02
350
7B
  3
Grid/IsometricGrid03
350
7C
  3
Grid/IsometricProjection00
350
7D
  3
Grid/IsometricProjection01
350
7E
  3
Grid/IsometricProjection02
350
7F
  3
Grid/IsometricProjection03
350
80
  3
Grid/MetaGridSpacingX00
350
81
  3
Grid/MetaGridSpacingX01
350
82
  3
Grid/MetaGridSpacingX02
350
83
  3
Grid/MetaGridSpacingX03
350
84
  3
Grid/MetaGridSpacingY00
350
85
  3
Grid/MetaGridSpacingY01
350
86
  3
Grid/MetaGridSpacingY02
350
87
  3
Grid/MetaGridSpacingY03
350
88
  3
MultiPageSettings/Columns
350
89
  3
MultiPageSettings/GlueMarginsBottom
350
8A
  3
MultiPageSettings/GlueMarginsLeft
350
8B
  3
MultiPageSettings/GlueMarginsRight
350
8C
  3
MultiPageSettings/GlueMarginsTop
350
8D
  3
MultiPageSettings/PrintCropMarks
350
8E
  3
MultiPageSettings/Rows
350
8F
  3
PageSettings/OffsetX
350
90
  3
PageSettings/OffsetY
350
91
  3
PageSettings/PageOrientation
350
92
  3
PageSettings/PaperHeight
350
93
  3
PageSettings/PaperWidth
350
94
  3
PageSettings/Scale
350
95
  3
PageSettings/ShowPaperBorders
350
96
  3
PageTagSettings/EnablePageTags
350
97
  3
PageTagSettings/TagAlignment
350
98
  3
PageTagSettings/TagFont
350
99
  3
PageTagSettings/TagPosition
350
9A
  3
QCADVersion
350
9B
  3
UnitSettings/PaperUnit
350
9C
  3
ViewportCenter
350
9D
  3
ViewportHeight
350
9E
  3
ViewportWidth
350
9F
  0
XRECORD
  5
6B
330
68
100
AcDbXrecord
280
1
1000
White
  0
XRECORD
  5
6C
330
68
100
AcDbXrecord
280
1
1000
FullColor
  0
XRECORD
  5
6D
330
68
100
AcDbXrecord
280
1
290
1
  0
XRECORD
  5
6E
330
68
100
AcDbXrecord
280
1
290
1
  0
XRECORD
  5
6F
330
68
100
AcDbXrecord
280
1
290
1
  0
XRECORD
  5
70
330
68
100
AcDbXrecord
280
1
290
1
  0
XRECORD
  5
71
330
68
100
AcDbXrecord
280
1
1000
auto
  0
XRECORD
  5
72
330
68
100
AcDbXrecord
280
1
1000
auto
  0
XRECORD
  5
73
330
68
100
AcDbXrecord
280
1
1000
auto
  0
XRECORD
  5
74
330
68
100
AcDbXrecord
280
1
1000
auto
  0
XRECORD
  5
75
330
68
100
AcDbXrecord
280
1
1000
auto
  0
XRECORD
  5
76
330
68
100
AcDbXrecord
280
1
1000
auto
  0
XRECORD
  5
77
330
68
100
AcDbXrecord
280
1
1000
auto
  0
XRECORD
  5
78
330
68
100
AcDbXrecord
280
1
1000
auto
  0
XRECORD
  5
79
330
68
100
AcDbXrecord
280
1
290
0
  0
XRECORD
  5
7A
330
68
100
AcDbXrecord
280
1
290
0
  0
XRECORD
  5
7B
330
68
100
AcDbXrecord
280
1
290
0
  0
XRECORD
  5
7C
330
68
100
AcDbXrecord
280
1
290
0
  0
XRECORD
  5
7D
330
68
100
AcDbXrecord
280
1
 90
65537
  0
XRECORD
  5
7E
330
68
100
AcDbXrecord
280
1
 90
65537
  0
XRECORD
  5
7F
330
68
100
AcDbXrecord
280
1
 90
65537
  0
XRECORD
  5
80
330
68
100
AcDbXrecord
280
1
 90
65537
  0
XRECORD
  5
81
330
68
100
AcDbXrecord
280
1
1000
auto
  0
XRECORD
  5
82
330
68
100
AcDbXrecord
280
1
1000
auto
  0
XRECORD
  5
83
330
68
100
AcDbXrecord
280
1
1000
auto
  0
XRECORD
  5
84
330
68
100
AcDbXrecord
280
1
1000
auto
  0
XRECORD
  5
85
330
68
100
AcDbXrecord
280
1
1000
auto
  0
XRECORD
  5
86
330
68
100
AcDbXrecord
280
1
1000
auto
  0
XRECORD
  5
87
330
68
100
AcDbXrecord
280
1
1000
auto
  0
XRECORD
  5
88
330
68
100
AcDbXrecord
280
1
1000
auto
  0
XRECORD
  5
89
330
68
100
AcDbXrecord
280
1
 90
1
  0
XRECORD
  5
8A
330
68
100
AcDbXrecord
280
1
 40
10.0
  0
XRECORD
  5
8B
330
68
100
AcDbXrecord
280
1
 40
10.0
  0
XRECORD
  5
8C
330
68
100
AcDbXrecord
280
1
 40
10.0
  0
XRECORD
  5
8D
330
68
100
AcDbXrecord
280
1
 40
10.0
  0
XRECORD
  5
8E
330
68
100
AcDbXrecord
280
1
290
0
  0
XRECORD
  5
8F
330
68
100
AcDbXrecord
280
1
 90
1
  0
XRECORD
  5
90
330
68
100
AcDbXrecord
280
1
 40
0.0
  0
XRECORD
  5
91
330
68
100
AcDbXrecord
280
1
 40
0.0
  0
XRECORD
  5
92
330
68
100
AcDbXrecord
280
1
1000
Portrait
  0
XRECORD
  5
93
330
68
100
AcDbXrecord
280
1
 40
297.0
  0
XRECORD
  5
94
330
68
100
AcDbXrecord
280
1
 40
210.0
  0
XRECORD
  5
95
330
68
100
AcDbXrecord
280
1
1000
1:1
  0
XRECORD
  5
96
330
68
100
AcDbXrecord
280
1
290
1
  0
XRECORD
  5
97
330
68
100
AcDbXrecord
280
1
290
0
  0
XRECORD
  5
98
330
68
100
AcDbXrecord
280
1
1000
Inside
  0
XRECORD
  5
99
330
68
100
AcDbXrecord
280
1
1000
Arial,10,-1,5,50,0,0,0,0,0
  0
XRECORD
  5
9A
330
68
100
AcDbXrecord
280
1
1000
TopLeft
  0
XRECORD
  5
9B
330
68
100
AcDbXrecord
280
1
1000
3.32.2
  0
XRECORD
  5
9C
330
68
100
AcDbXrecord
280
1
 90
4
  0
XRECORD
  5
9E
330
68
100
AcDbXrecord
280
1
 40
4.7653331797924352
  0
XRECORD
  5
9F
330
68
100
AcDbXrecord
280
1
 40
10.4569936510475259
  0
ENDSEC
  0
EOF
